<?xml version="1.0" encoding="UTF-8" standalone="yes"?><svg xmlns="http://www.w3.org/2000/svg" xmlns:xlink="http://www.w3.org/1999/xlink" height="2251pt" style="width:3497px;height:2251px;" version="1.1" viewBox="0 0 3497 2251" width="3497pt"><defs><filter height="300%" id="f1" width="300%" x="-1" y="-1"><feGaussianBlur result="blurOut" stdDeviation="2.0"/><feColorMatrix in="blurOut" result="blurOut2" type="matrix" values="0 0 0 0 0 0 0 0 0 0 0 0 0 0 0 0 0 0 .4 0"/><feOffset dx="4.0" dy="4.0" in="blurOut2" result="blurOut3"/><feBlend in="SourceGraphic" in2="blurOut3" mode="normal"/></filter></defs><g><rect fill="#FFFFFF" filter="url(#f1)" height="699.8984" style="stroke: #A80036; stroke-width: 1.0;" width="10" x="1158" y="141.1094"/><rect fill="#FFFFFF" filter="url(#f1)" height="100.9316" style="stroke: #A80036; stroke-width: 1.0;" width="10" x="1341" y="279.5293"/><rect fill="#FFFFFF" filter="url(#f1)" height="191.5527" style="stroke: #A80036; stroke-width: 1.0;" width="10" x="2345" y="1994.7441"/><rect fill="#FFFFFF" filter="url(#f1)" height="111.9316" style="stroke: #A80036; stroke-width: 1.0;" width="10" x="2350" y="2032.0547"/><rect fill="#FEFECE" filter="url(#f1)" height="30.4883" style="stroke: #A80036; stroke-width: 1.5;" width="165" x="1440" y="183.7305"/><text fill="#000000" font-family="sans-serif" font-size="14" lengthAdjust="spacingAndGlyphs" textLength="151" x="1447" y="204.2656">CPcmHybridAudioMgr</text><rect fill="#FEFECE" filter="url(#f1)" height="30.4883" style="stroke: #A80036; stroke-width: 1.5;" width="193" x="1619" y="394.6484"/><text fill="#000000" font-family="sans-serif" font-size="14" lengthAdjust="spacingAndGlyphs" textLength="179" x="1626" y="415.1836">HybridAudioExportedProc</text><rect fill="#FEFECE" filter="url(#f1)" height="30.4883" style="stroke: #A80036; stroke-width: 1.5;" width="136" x="2110.5" y="592.5664"/><text fill="#000000" font-family="sans-serif" font-size="14" lengthAdjust="spacingAndGlyphs" textLength="122" x="2117.5" y="613.1016">CHybridClientMgr</text><rect fill="#FEFECE" filter="url(#f1)" height="30.4883" style="stroke: #A80036; stroke-width: 1.5;" width="175" x="2260.5" y="638.0547"/><text fill="#000000" font-family="sans-serif" font-size="14" lengthAdjust="spacingAndGlyphs" textLength="161" x="2267.5" y="658.5898">CHCCTelephoneService</text><rect fill="#FEFECE" filter="url(#f1)" height="30.4883" style="stroke: #A80036; stroke-width: 1.5;" width="111" x="3057.5" y="683.543"/><text fill="#000000" font-family="sans-serif" font-size="14" lengthAdjust="spacingAndGlyphs" textLength="97" x="3064.5" y="704.0781">CDTAppClient</text><rect fill="#FEFECE" filter="url(#f1)" height="30.4883" style="stroke: #A80036; stroke-width: 1.5;" width="132" x="2449.5" y="729.0313"/><text fill="#000000" font-family="sans-serif" font-size="14" lengthAdjust="spacingAndGlyphs" textLength="118" x="2456.5" y="749.5664">CHCCVoIPService</text><rect fill="#FEFECE" filter="url(#f1)" height="30.4883" style="stroke: #A80036; stroke-width: 1.5;" width="150" x="2758.5" y="774.5195"/><text fill="#000000" font-family="sans-serif" font-size="14" lengthAdjust="spacingAndGlyphs" textLength="136" x="2765.5" y="795.0547">CHybridVoIPModule</text><rect fill="#FEFECE" filter="url(#f1)" height="30.4883" style="stroke: #A80036; stroke-width: 1.5;" width="149" x="2595.5" y="820.0078"/><text fill="#000000" font-family="sans-serif" font-size="14" lengthAdjust="spacingAndGlyphs" textLength="135" x="2602.5" y="840.543">CHCCFailoverAgent</text><rect fill="#DDDDDD" height="2246.0957" style="stroke: #A80036; stroke-width: 1.0;" width="381" x="85" y="4"/><text fill="#000000" font-family="sans-serif" font-size="13" font-weight="bold" lengthAdjust="spacingAndGlyphs" textLength="72" x="239.5" y="16.5684">WebExMgr</text><rect fill="#DDDDDD" height="2246.0957" style="stroke: #A80036; stroke-width: 1.0;" width="780" x="468" y="4"/><text fill="#000000" font-family="sans-serif" font-size="13" font-weight="bold" lengthAdjust="spacingAndGlyphs" textLength="75" x="820.5" y="16.5684">ServiceMgr</text><rect fill="#DDDDDD" height="2246.0957" style="stroke: #A80036; stroke-width: 1.0;" width="562" x="1258" y="4"/><text fill="#000000" font-family="sans-serif" font-size="13" font-weight="bold" lengthAdjust="spacingAndGlyphs" textLength="20" x="1529" y="16.5684">cm</text><rect fill="#DDDDDD" height="2246.0957" style="stroke: #A80036; stroke-width: 1.0;" width="1229.5" x="1822" y="4"/><text fill="#000000" font-family="sans-serif" font-size="13" font-weight="bold" lengthAdjust="spacingAndGlyphs" textLength="63" x="2405.25" y="16.5684">HybridCli</text><rect fill="#DDDDDD" height="2246.0957" style="stroke: #A80036; stroke-width: 1.0;" width="271" x="3053.5" y="4"/><text fill="#000000" font-family="sans-serif" font-size="13" font-weight="bold" lengthAdjust="spacingAndGlyphs" textLength="55" x="3161.5" y="16.5684">dtappcli</text><rect fill="#DDDDDD" height="2246.0957" style="stroke: #A80036; stroke-width: 1.0;" width="165" x="3326.5" y="4"/><text fill="#000000" font-family="sans-serif" font-size="13" font-weight="bold" lengthAdjust="spacingAndGlyphs" textLength="31" x="3393.5" y="16.5684">ARM</text><line style="stroke: #A80036; stroke-width: 1.0; stroke-dasharray: 5.0,5.0;" x1="189" x2="189" y1="58.7988" y2="2211.6074"/><line style="stroke: #A80036; stroke-width: 1.0; stroke-dasharray: 5.0,5.0;" x1="380" x2="380" y1="58.7988" y2="2211.6074"/><line style="stroke: #A80036; stroke-width: 1.0; stroke-dasharray: 5.0,5.0;" x1="571" x2="571" y1="58.7988" y2="2211.6074"/><line style="stroke: #A80036; stroke-width: 1.0; stroke-dasharray: 5.0,5.0;" x1="776" x2="776" y1="58.7988" y2="2211.6074"/><line style="stroke: #A80036; stroke-width: 1.0; stroke-dasharray: 5.0,5.0;" x1="976" x2="976" y1="58.7988" y2="2211.6074"/><line style="stroke: #A80036; stroke-width: 1.0; stroke-dasharray: 5.0,5.0;" x1="1163" x2="1163" y1="58.7988" y2="2211.6074"/><line style="stroke: #A80036; stroke-width: 1.0; stroke-dasharray: 5.0,5.0;" x1="1346" x2="1346" y1="58.7988" y2="2211.6074"/><line style="stroke: #A80036; stroke-width: 1.0; stroke-dasharray: 5.0,5.0;" x1="1524" x2="1524" y1="216.4746" y2="2211.6074"/><line style="stroke: #A80036; stroke-width: 1.0; stroke-dasharray: 5.0,5.0;" x1="1717" x2="1717" y1="427.3926" y2="2211.6074"/><line style="stroke: #A80036; stroke-width: 1.0; stroke-dasharray: 5.0,5.0;" x1="1887" x2="1887" y1="58.7988" y2="2211.6074"/><line style="stroke: #A80036; stroke-width: 1.0; stroke-dasharray: 5.0,5.0;" x1="2031.5" x2="2031.5" y1="58.7988" y2="2211.6074"/><line style="stroke: #A80036; stroke-width: 1.0; stroke-dasharray: 5.0,5.0;" x1="2180.5" x2="2180.5" y1="625.3105" y2="2211.6074"/><line style="stroke: #A80036; stroke-width: 1.0; stroke-dasharray: 5.0,5.0;" x1="2349.5" x2="2349.5" y1="670.7988" y2="2211.6074"/><line style="stroke: #A80036; stroke-width: 1.0; stroke-dasharray: 5.0,5.0;" x1="2517.5" x2="2517.5" y1="761.7754" y2="2211.6074"/><line style="stroke: #A80036; stroke-width: 1.0; stroke-dasharray: 5.0,5.0;" x1="2671.5" x2="2671.5" y1="852.752" y2="2211.6074"/><line style="stroke: #A80036; stroke-width: 1.0; stroke-dasharray: 5.0,5.0;" x1="2835.5" x2="2835.5" y1="807.2637" y2="2211.6074"/><line style="stroke: #A80036; stroke-width: 1.0; stroke-dasharray: 5.0,5.0;" x1="2984.5" x2="2984.5" y1="58.7988" y2="2211.6074"/><line style="stroke: #A80036; stroke-width: 1.0; stroke-dasharray: 5.0,5.0;" x1="3114.5" x2="3114.5" y1="716.2871" y2="2211.6074"/><line style="stroke: #A80036; stroke-width: 1.0; stroke-dasharray: 5.0,5.0;" x1="3251.5" x2="3251.5" y1="58.7988" y2="2211.6074"/><line style="stroke: #A80036; stroke-width: 1.0; stroke-dasharray: 5.0,5.0;" x1="3408.5" x2="3408.5" y1="58.7988" y2="2211.6074"/><rect fill="#FEFECE" filter="url(#f1)" height="30.4883" style="stroke: #A80036; stroke-width: 1.5;" width="196" x="89" y="23.3105"/><text fill="#000000" font-family="sans-serif" font-size="14" lengthAdjust="spacingAndGlyphs" textLength="182" x="96" y="43.8457">CMCQuickStartSessionMgr</text><rect fill="#FEFECE" filter="url(#f1)" height="30.4883" style="stroke: #A80036; stroke-width: 1.5;" width="196" x="89" y="2210.6074"/><text fill="#000000" font-family="sans-serif" font-size="14" lengthAdjust="spacingAndGlyphs" textLength="182" x="96" y="2231.1426">CMCQuickStartSessionMgr</text><rect fill="#FEFECE" filter="url(#f1)" height="30.4883" style="stroke: #A80036; stroke-width: 1.5;" width="159" x="299" y="23.3105"/><text fill="#000000" font-family="sans-serif" font-size="14" lengthAdjust="spacingAndGlyphs" textLength="145" x="306" y="43.8457">CMCHybridAudioMgr</text><rect fill="#FEFECE" filter="url(#f1)" height="30.4883" style="stroke: #A80036; stroke-width: 1.5;" width="159" x="299" y="2210.6074"/><text fill="#000000" font-family="sans-serif" font-size="14" lengthAdjust="spacingAndGlyphs" textLength="145" x="306" y="2231.1426">CMCHybridAudioMgr</text><rect fill="#FEFECE" filter="url(#f1)" height="30.4883" style="stroke: #A80036; stroke-width: 1.5;" width="195" x="472" y="23.3105"/><text fill="#000000" font-family="sans-serif" font-size="14" lengthAdjust="spacingAndGlyphs" textLength="181" x="479" y="43.8457">CSmQuickStartSessionMgr</text><rect fill="#FEFECE" filter="url(#f1)" height="30.4883" style="stroke: #A80036; stroke-width: 1.5;" width="195" x="472" y="2210.6074"/><text fill="#000000" font-family="sans-serif" font-size="14" lengthAdjust="spacingAndGlyphs" textLength="181" x="479" y="2231.1426">CSmQuickStartSessionMgr</text><rect fill="#FEFECE" filter="url(#f1)" height="30.4883" style="stroke: #A80036; stroke-width: 1.5;" width="186" x="681" y="23.3105"/><text fill="#000000" font-family="sans-serif" font-size="14" lengthAdjust="spacingAndGlyphs" textLength="172" x="688" y="43.8457">CSmAudioStatusWrapper</text><rect fill="#FEFECE" filter="url(#f1)" height="30.4883" style="stroke: #A80036; stroke-width: 1.5;" width="186" x="681" y="2210.6074"/><text fill="#000000" font-family="sans-serif" font-size="14" lengthAdjust="spacingAndGlyphs" textLength="172" x="688" y="2231.1426">CSmAudioStatusWrapper</text><rect fill="#FEFECE" filter="url(#f1)" height="30.4883" style="stroke: #A80036; stroke-width: 1.5;" width="187" x="881" y="23.3105"/><text fill="#000000" font-family="sans-serif" font-size="14" lengthAdjust="spacingAndGlyphs" textLength="173" x="888" y="43.8457">CSmAudioPhoneWrapper</text><rect fill="#FEFECE" filter="url(#f1)" height="30.4883" style="stroke: #A80036; stroke-width: 1.5;" width="187" x="881" y="2210.6074"/><text fill="#000000" font-family="sans-serif" font-size="14" lengthAdjust="spacingAndGlyphs" textLength="173" x="888" y="2231.1426">CSmAudioPhoneWrapper</text><rect fill="#FEFECE" filter="url(#f1)" height="30.4883" style="stroke: #A80036; stroke-width: 1.5;" width="158" x="1082" y="23.3105"/><text fill="#000000" font-family="sans-serif" font-size="14" lengthAdjust="spacingAndGlyphs" textLength="144" x="1089" y="43.8457">CSmHybridAudioMgr</text><rect fill="#FEFECE" filter="url(#f1)" height="30.4883" style="stroke: #A80036; stroke-width: 1.5;" width="158" x="1082" y="2210.6074"/><text fill="#000000" font-family="sans-serif" font-size="14" lengthAdjust="spacingAndGlyphs" textLength="144" x="1089" y="2231.1426">CSmHybridAudioMgr</text><rect fill="#FEFECE" filter="url(#f1)" height="30.4883" style="stroke: #A80036; stroke-width: 1.5;" width="164" x="1262" y="23.3105"/><text fill="#000000" font-family="sans-serif" font-size="14" lengthAdjust="spacingAndGlyphs" textLength="150" x="1269" y="43.8457">CPcmComponentBase</text><rect fill="#FEFECE" filter="url(#f1)" height="30.4883" style="stroke: #A80036; stroke-width: 1.5;" width="164" x="1262" y="2210.6074"/><text fill="#000000" font-family="sans-serif" font-size="14" lengthAdjust="spacingAndGlyphs" textLength="150" x="1269" y="2231.1426">CPcmComponentBase</text><rect fill="#FEFECE" filter="url(#f1)" height="30.4883" style="stroke: #A80036; stroke-width: 1.5;" width="165" x="1440" y="2210.6074"/><text fill="#000000" font-family="sans-serif" font-size="14" lengthAdjust="spacingAndGlyphs" textLength="151" x="1447" y="2231.1426">CPcmHybridAudioMgr</text><rect fill="#FEFECE" filter="url(#f1)" height="30.4883" style="stroke: #A80036; stroke-width: 1.5;" width="193" x="1619" y="2210.6074"/><text fill="#000000" font-family="sans-serif" font-size="14" lengthAdjust="spacingAndGlyphs" textLength="179" x="1626" y="2231.1426">HybridAudioExportedProc</text><rect fill="#FEFECE" filter="url(#f1)" height="30.4883" style="stroke: #A80036; stroke-width: 1.5;" width="119" x="1826" y="23.3105"/><text fill="#000000" font-family="sans-serif" font-size="14" lengthAdjust="spacingAndGlyphs" textLength="105" x="1833" y="43.8457">hybridaudioAPI</text><rect fill="#FEFECE" filter="url(#f1)" height="30.4883" style="stroke: #A80036; stroke-width: 1.5;" width="119" x="1826" y="2210.6074"/><text fill="#000000" font-family="sans-serif" font-size="14" lengthAdjust="spacingAndGlyphs" textLength="105" x="1833" y="2231.1426">hybridaudioAPI</text><rect fill="#FEFECE" filter="url(#f1)" height="30.4883" style="stroke: #A80036; stroke-width: 1.5;" width="134" x="1962.5" y="23.3105"/><text fill="#000000" font-family="sans-serif" font-size="14" lengthAdjust="spacingAndGlyphs" textLength="120" x="1969.5" y="43.8457">CHybridClientCtrl</text><rect fill="#FEFECE" filter="url(#f1)" height="30.4883" style="stroke: #A80036; stroke-width: 1.5;" width="134" x="1962.5" y="2210.6074"/><text fill="#000000" font-family="sans-serif" font-size="14" lengthAdjust="spacingAndGlyphs" textLength="120" x="1969.5" y="2231.1426">CHybridClientCtrl</text><rect fill="#FEFECE" filter="url(#f1)" height="30.4883" style="stroke: #A80036; stroke-width: 1.5;" width="136" x="2110.5" y="2210.6074"/><text fill="#000000" font-family="sans-serif" font-size="14" lengthAdjust="spacingAndGlyphs" textLength="122" x="2117.5" y="2231.1426">CHybridClientMgr</text><rect fill="#FEFECE" filter="url(#f1)" height="30.4883" style="stroke: #A80036; stroke-width: 1.5;" width="175" x="2260.5" y="2210.6074"/><text fill="#000000" font-family="sans-serif" font-size="14" lengthAdjust="spacingAndGlyphs" textLength="161" x="2267.5" y="2231.1426">CHCCTelephoneService</text><rect fill="#FEFECE" filter="url(#f1)" height="30.4883" style="stroke: #A80036; stroke-width: 1.5;" width="132" x="2449.5" y="2210.6074"/><text fill="#000000" font-family="sans-serif" font-size="14" lengthAdjust="spacingAndGlyphs" textLength="118" x="2456.5" y="2231.1426">CHCCVoIPService</text><rect fill="#FEFECE" filter="url(#f1)" height="30.4883" style="stroke: #A80036; stroke-width: 1.5;" width="149" x="2595.5" y="2210.6074"/><text fill="#000000" font-family="sans-serif" font-size="14" lengthAdjust="spacingAndGlyphs" textLength="135" x="2602.5" y="2231.1426">CHCCFailoverAgent</text><rect fill="#FEFECE" filter="url(#f1)" height="30.4883" style="stroke: #A80036; stroke-width: 1.5;" width="150" x="2758.5" y="2210.6074"/><text fill="#000000" font-family="sans-serif" font-size="14" lengthAdjust="spacingAndGlyphs" textLength="136" x="2765.5" y="2231.1426">CHybridVoIPModule</text><rect fill="#FEFECE" filter="url(#f1)" height="30.4883" style="stroke: #A80036; stroke-width: 1.5;" width="121" x="2922.5" y="23.3105"/><text fill="#000000" font-family="sans-serif" font-size="14" lengthAdjust="spacingAndGlyphs" textLength="107" x="2929.5" y="43.8457">CJoinCommand</text><rect fill="#FEFECE" filter="url(#f1)" height="30.4883" style="stroke: #A80036; stroke-width: 1.5;" width="121" x="2922.5" y="2210.6074"/><text fill="#000000" font-family="sans-serif" font-size="14" lengthAdjust="spacingAndGlyphs" textLength="107" x="2929.5" y="2231.1426">CJoinCommand</text><rect fill="#FEFECE" filter="url(#f1)" height="30.4883" style="stroke: #A80036; stroke-width: 1.5;" width="111" x="3057.5" y="2210.6074"/><text fill="#000000" font-family="sans-serif" font-size="14" lengthAdjust="spacingAndGlyphs" textLength="97" x="3064.5" y="2231.1426">CDTAppClient</text><rect fill="#FEFECE" filter="url(#f1)" height="30.4883" style="stroke: #A80036; stroke-width: 1.5;" width="134" x="3182.5" y="23.3105"/><text fill="#000000" font-family="sans-serif" font-size="14" lengthAdjust="spacingAndGlyphs" textLength="120" x="3189.5" y="43.8457">IDTAppClientSink</text><rect fill="#FEFECE" filter="url(#f1)" height="30.4883" style="stroke: #A80036; stroke-width: 1.5;" width="134" x="3182.5" y="2210.6074"/><text fill="#000000" font-family="sans-serif" font-size="14" lengthAdjust="spacingAndGlyphs" textLength="120" x="3189.5" y="2231.1426">IDTAppClientSink</text><rect fill="#FEFECE" filter="url(#f1)" height="30.4883" style="stroke: #A80036; stroke-width: 1.5;" width="153" x="3330.5" y="23.3105"/><text fill="#000000" font-family="sans-serif" font-size="14" lengthAdjust="spacingAndGlyphs" textLength="139" x="3337.5" y="43.8457">IArmNodeController</text><rect fill="#FEFECE" filter="url(#f1)" height="30.4883" style="stroke: #A80036; stroke-width: 1.5;" width="153" x="3330.5" y="2210.6074"/><text fill="#000000" font-family="sans-serif" font-size="14" lengthAdjust="spacingAndGlyphs" textLength="139" x="3337.5" y="2231.1426">IArmNodeController</text><rect fill="#FFFFFF" filter="url(#f1)" height="699.8984" style="stroke: #A80036; stroke-width: 1.0;" width="10" x="1158" y="141.1094"/><rect fill="#FFFFFF" filter="url(#f1)" height="100.9316" style="stroke: #A80036; stroke-width: 1.0;" width="10" x="1341" y="279.5293"/><rect fill="#FFFFFF" filter="url(#f1)" height="191.5527" style="stroke: #A80036; stroke-width: 1.0;" width="10" x="2345" y="1994.7441"/><rect fill="#FFFFFF" filter="url(#f1)" height="111.9316" style="stroke: #A80036; stroke-width: 1.0;" width="10" x="2350" y="2032.0547"/><rect fill="#EEEEEE" filter="url(#f1)" height="3" style="stroke: #EEEEEE; stroke-width: 1.0;" width="3489.5" x="3" y="89.4541"/><line style="stroke: #000000; stroke-width: 1.0;" x1="3" x2="3492.5" y1="89.4541" y2="89.4541"/><line style="stroke: #000000; stroke-width: 1.0;" x1="3" x2="3492.5" y1="92.4541" y2="92.4541"/><rect fill="#EEEEEE" filter="url(#f1)" height="23.3105" style="stroke: #000000; stroke-width: 2.0;" width="158" x="1668.75" y="78.7988"/><text fill="#000000" font-family="sans-serif" font-size="13" font-weight="bold" lengthAdjust="spacingAndGlyphs" textLength="140" x="1674.75" y="95.3672">Load hybridaudio.dll</text><line style="stroke: #A80036; stroke-width: 1.0;" x1="1163" x2="1210" y1="128.4199" y2="128.4199"/><line style="stroke: #A80036; stroke-width: 1.0;" x1="1210" x2="1210" y1="128.4199" y2="141.4199"/><line style="stroke: #A80036; stroke-width: 1.0;" x1="1169" x2="1210" y1="141.4199" y2="141.4199"/><polygon fill="#A80036" points="1179,137.4199,1169,141.4199,1179,145.4199,1175,141.4199" style="stroke: #A80036; stroke-width: 1.0;"/><text fill="#000000" font-family="sans-serif" font-size="13" lengthAdjust="spacingAndGlyphs" textLength="73" x="1175" y="123.6777">SetDllName</text><polygon fill="#FBFB77" filter="url(#f1)" points="934,118.6094,934,143.6094,1149,143.6094,1149,128.6094,1139,118.6094,934,118.6094" style="stroke: #A80036; stroke-width: 1.0;"/><line style="stroke: #A80036; stroke-width: 1.0;" x1="1139" x2="1139" y1="118.6094" y2="128.6094"/><line style="stroke: #A80036; stroke-width: 1.0;" x1="1149" x2="1139" y1="128.6094" y2="128.6094"/><text fill="#000000" font-family="sans-serif" font-size="13" lengthAdjust="spacingAndGlyphs" textLength="194" x="940" y="136.1777">HYBRIDAUDIO_MODULE_NAME</text><polygon fill="#A80036" points="1146,171.4199,1156,175.4199,1146,179.4199,1150,175.4199" style="stroke: #A80036; stroke-width: 1.0;"/><line style="stroke: #A80036; stroke-width: 1.0;" x1="3" x2="1152" y1="175.4199" y2="175.4199"/><text fill="#000000" font-family="sans-serif" font-size="13" lengthAdjust="spacingAndGlyphs" textLength="54" x="10" y="170.9883">Initialize</text><polygon fill="#A80036" points="1428,200.7305,1438,204.7305,1428,208.7305,1432,204.7305" style="stroke: #A80036; stroke-width: 1.0;"/><line style="stroke: #A80036; stroke-width: 1.0;" x1="1168" x2="1434" y1="204.7305" y2="204.7305"/><text fill="#000000" font-family="sans-serif" font-size="13" lengthAdjust="spacingAndGlyphs" textLength="25" x="1175" y="200.2988">new</text><rect fill="#FEFECE" filter="url(#f1)" height="30.4883" style="stroke: #A80036; stroke-width: 1.5;" width="165" x="1440" y="183.7305"/><text fill="#000000" font-family="sans-serif" font-size="14" lengthAdjust="spacingAndGlyphs" textLength="151" x="1447" y="204.2656">CPcmHybridAudioMgr</text><polygon fill="#A80036" points="1512.5,246.2188,1522.5,250.2188,1512.5,254.2188,1516.5,250.2188" style="stroke: #A80036; stroke-width: 1.0;"/><line style="stroke: #A80036; stroke-width: 1.0;" x1="1168" x2="1518.5" y1="250.2188" y2="250.2188"/><text fill="#000000" font-family="sans-serif" font-size="13" lengthAdjust="spacingAndGlyphs" textLength="64" x="1175" y="245.7871">SetDllPath</text><polygon fill="#A80036" points="1329,275.5293,1339,279.5293,1329,283.5293,1333,279.5293" style="stroke: #A80036; stroke-width: 1.0;"/><line style="stroke: #A80036; stroke-width: 1.0;" x1="1168" x2="1335" y1="279.5293" y2="279.5293"/><text fill="#000000" font-family="sans-serif" font-size="13" lengthAdjust="spacingAndGlyphs" textLength="54" x="1175" y="275.0977">Initialize</text><line style="stroke: #A80036; stroke-width: 1.0;" x1="1351" x2="1393" y1="309.1504" y2="309.1504"/><line style="stroke: #A80036; stroke-width: 1.0;" x1="1393" x2="1393" y1="309.1504" y2="322.1504"/><line style="stroke: #A80036; stroke-width: 1.0;" x1="1352" x2="1393" y1="322.1504" y2="322.1504"/><polygon fill="#A80036" points="1362,318.1504,1352,322.1504,1362,326.1504,1358,322.1504" style="stroke: #A80036; stroke-width: 1.0;"/><text fill="#000000" font-family="sans-serif" font-size="13" lengthAdjust="spacingAndGlyphs" textLength="99" x="1358" y="304.4082">InstanceModule</text><polygon fill="#A80036" points="1512.5,347.1504,1522.5,351.1504,1512.5,355.1504,1516.5,351.1504" style="stroke: #A80036; stroke-width: 1.0;"/><line style="stroke: #A80036; stroke-width: 1.0;" x1="1351" x2="1518.5" y1="351.1504" y2="351.1504"/><text fill="#000000" font-family="sans-serif" font-size="13" lengthAdjust="spacingAndGlyphs" textLength="117" x="1358" y="346.7188">HookExportedProc</text><polygon fill="#A80036" points="1607,376.4609,1617,380.4609,1607,384.4609,1611,380.4609" style="stroke: #A80036; stroke-width: 1.0;"/><line style="stroke: #A80036; stroke-width: 1.0;" x1="1524.5" x2="1613" y1="380.4609" y2="380.4609"/><text fill="#000000" font-family="sans-serif" font-size="13" lengthAdjust="spacingAndGlyphs" textLength="25" x="1531.5" y="376.0293">new</text><rect fill="#FEFECE" filter="url(#f1)" height="30.4883" style="stroke: #A80036; stroke-width: 1.5;" width="193" x="1619" y="394.6484"/><text fill="#000000" font-family="sans-serif" font-size="14" lengthAdjust="spacingAndGlyphs" textLength="179" x="1626" y="415.1836">HybridAudioExportedProc</text><polygon fill="#FBFB77" filter="url(#f1)" points="1384,364.4609,1384,465.4609,1515,465.4609,1515,374.4609,1505,364.4609,1384,364.4609" style="stroke: #A80036; stroke-width: 1.0;"/><line style="stroke: #A80036; stroke-width: 1.0;" x1="1505" x2="1505" y1="364.4609" y2="374.4609"/><line style="stroke: #A80036; stroke-width: 1.0;" x1="1515" x2="1505" y1="374.4609" y2="374.4609"/><text fill="#000000" font-family="sans-serif" font-size="13" lengthAdjust="spacingAndGlyphs" textLength="97" x="1390" y="382.0293">ATNewInstance</text><text fill="#000000" font-family="sans-serif" font-size="13" lengthAdjust="spacingAndGlyphs" textLength="110" x="1390" y="397.3398">ATDeleteInstance</text><text fill="#000000" font-family="sans-serif" font-size="13" lengthAdjust="spacingAndGlyphs" textLength="89" x="1390" y="412.6504">HCC_Initialize</text><text fill="#000000" font-family="sans-serif" font-size="13" lengthAdjust="spacingAndGlyphs" textLength="99" x="1390" y="427.9609">HCC_Command</text><text fill="#000000" font-family="sans-serif" font-size="13" lengthAdjust="spacingAndGlyphs" textLength="92" x="1390" y="443.2715">HCC_SetParam</text><text fill="#000000" font-family="sans-serif" font-size="13" lengthAdjust="spacingAndGlyphs" textLength="94" x="1390" y="458.582">HCC_GetParam</text><polygon fill="#A80036" points="1512.5,492.3242,1522.5,496.3242,1512.5,500.3242,1516.5,496.3242" style="stroke: #A80036; stroke-width: 1.0;"/><line style="stroke: #A80036; stroke-width: 1.0;" x1="1168" x2="1518.5" y1="496.3242" y2="496.3242"/><text fill="#000000" font-family="sans-serif" font-size="13" lengthAdjust="spacingAndGlyphs" textLength="53" x="1175" y="491.8926">Instance</text><polygon fill="#A80036" points="1705.5,521.6348,1715.5,525.6348,1705.5,529.6348,1709.5,525.6348" style="stroke: #A80036; stroke-width: 1.0;"/><line style="stroke: #A80036; stroke-width: 1.0;" x1="1524.5" x2="1711.5" y1="525.6348" y2="525.6348"/><text fill="#000000" font-family="sans-serif" font-size="13" lengthAdjust="spacingAndGlyphs" textLength="152" x="1531.5" y="521.2031">pfnATNewInstanceProce</text><polygon fill="#A80036" points="1875.5,550.9453,1885.5,554.9453,1875.5,558.9453,1879.5,554.9453" style="stroke: #A80036; stroke-width: 1.0;"/><line style="stroke: #A80036; stroke-width: 1.0;" x1="1717.5" x2="1881.5" y1="554.9453" y2="554.9453"/><text fill="#000000" font-family="sans-serif" font-size="13" lengthAdjust="spacingAndGlyphs" textLength="97" x="1724.5" y="550.5137">ATNewInstance</text><polygon fill="#A80036" points="2019.5,580.2559,2029.5,584.2559,2019.5,588.2559,2023.5,584.2559" style="stroke: #A80036; stroke-width: 1.0;"/><line style="stroke: #A80036; stroke-width: 1.0;" x1="1887.5" x2="2025.5" y1="584.2559" y2="584.2559"/><text fill="#000000" font-family="sans-serif" font-size="13" lengthAdjust="spacingAndGlyphs" textLength="53" x="1894.5" y="579.8242">Instance</text><polygon fill="#A80036" points="2098.5,609.5664,2108.5,613.5664,2098.5,617.5664,2102.5,613.5664" style="stroke: #A80036; stroke-width: 1.0;"/><line style="stroke: #A80036; stroke-width: 1.0;" x1="2031.5" x2="2104.5" y1="613.5664" y2="613.5664"/><text fill="#000000" font-family="sans-serif" font-size="13" lengthAdjust="spacingAndGlyphs" textLength="25" x="2038.5" y="609.1348">new</text><rect fill="#FEFECE" filter="url(#f1)" height="30.4883" style="stroke: #A80036; stroke-width: 1.5;" width="136" x="2110.5" y="592.5664"/><text fill="#000000" font-family="sans-serif" font-size="14" lengthAdjust="spacingAndGlyphs" textLength="122" x="2117.5" y="613.1016">CHybridClientMgr</text><polygon fill="#A80036" points="2248.5,655.0547,2258.5,659.0547,2248.5,663.0547,2252.5,659.0547" style="stroke: #A80036; stroke-width: 1.0;"/><line style="stroke: #A80036; stroke-width: 1.0;" x1="2180.5" x2="2254.5" y1="659.0547" y2="659.0547"/><text fill="#000000" font-family="sans-serif" font-size="13" lengthAdjust="spacingAndGlyphs" textLength="25" x="2187.5" y="654.623">new</text><rect fill="#FEFECE" filter="url(#f1)" height="30.4883" style="stroke: #A80036; stroke-width: 1.5;" width="175" x="2260.5" y="638.0547"/><text fill="#000000" font-family="sans-serif" font-size="14" lengthAdjust="spacingAndGlyphs" textLength="161" x="2267.5" y="658.5898">CHCCTelephoneService</text><polygon fill="#A80036" points="3045.5,700.543,3055.5,704.543,3045.5,708.543,3049.5,704.543" style="stroke: #A80036; stroke-width: 1.0;"/><line style="stroke: #A80036; stroke-width: 1.0;" x1="2350" x2="3051.5" y1="704.543" y2="704.543"/><text fill="#000000" font-family="sans-serif" font-size="13" lengthAdjust="spacingAndGlyphs" textLength="25" x="2357" y="700.1113">new</text><rect fill="#FEFECE" filter="url(#f1)" height="30.4883" style="stroke: #A80036; stroke-width: 1.5;" width="111" x="3057.5" y="683.543"/><text fill="#000000" font-family="sans-serif" font-size="14" lengthAdjust="spacingAndGlyphs" textLength="97" x="3064.5" y="704.0781">CDTAppClient</text><polygon fill="#A80036" points="2437.5,746.0313,2447.5,750.0313,2437.5,754.0313,2441.5,750.0313" style="stroke: #A80036; stroke-width: 1.0;"/><line style="stroke: #A80036; stroke-width: 1.0;" x1="2180.5" x2="2443.5" y1="750.0313" y2="750.0313"/><text fill="#000000" font-family="sans-serif" font-size="13" lengthAdjust="spacingAndGlyphs" textLength="25" x="2187.5" y="745.5996">new</text><rect fill="#FEFECE" filter="url(#f1)" height="30.4883" style="stroke: #A80036; stroke-width: 1.5;" width="132" x="2449.5" y="729.0313"/><text fill="#000000" font-family="sans-serif" font-size="14" lengthAdjust="spacingAndGlyphs" textLength="118" x="2456.5" y="749.5664">CHCCVoIPService</text><polygon fill="#A80036" points="2746.5,791.5195,2756.5,795.5195,2746.5,799.5195,2750.5,795.5195" style="stroke: #A80036; stroke-width: 1.0;"/><line style="stroke: #A80036; stroke-width: 1.0;" x1="2517.5" x2="2752.5" y1="795.5195" y2="795.5195"/><text fill="#000000" font-family="sans-serif" font-size="13" lengthAdjust="spacingAndGlyphs" textLength="25" x="2524.5" y="791.0879">new</text><rect fill="#FEFECE" filter="url(#f1)" height="30.4883" style="stroke: #A80036; stroke-width: 1.5;" width="150" x="2758.5" y="774.5195"/><text fill="#000000" font-family="sans-serif" font-size="14" lengthAdjust="spacingAndGlyphs" textLength="136" x="2765.5" y="795.0547">CHybridVoIPModule</text><polygon fill="#A80036" points="2583.5,837.0078,2593.5,841.0078,2583.5,845.0078,2587.5,841.0078" style="stroke: #A80036; stroke-width: 1.0;"/><line style="stroke: #A80036; stroke-width: 1.0;" x1="2180.5" x2="2589.5" y1="841.0078" y2="841.0078"/><text fill="#000000" font-family="sans-serif" font-size="13" lengthAdjust="spacingAndGlyphs" textLength="25" x="2187.5" y="836.5762">new</text><rect fill="#FEFECE" filter="url(#f1)" height="30.4883" style="stroke: #A80036; stroke-width: 1.5;" width="149" x="2595.5" y="820.0078"/><text fill="#000000" font-family="sans-serif" font-size="14" lengthAdjust="spacingAndGlyphs" textLength="135" x="2602.5" y="840.543">CHCCFailoverAgent</text><rect fill="#EEEEEE" filter="url(#f1)" height="3" style="stroke: #EEEEEE; stroke-width: 1.0;" width="3489.5" x="3" y="886.1514"/><line style="stroke: #000000; stroke-width: 1.0;" x1="3" x2="3492.5" y1="886.1514" y2="886.1514"/><line style="stroke: #000000; stroke-width: 1.0;" x1="3" x2="3492.5" y1="889.1514" y2="889.1514"/><rect fill="#EEEEEE" filter="url(#f1)" height="23.3105" style="stroke: #000000; stroke-width: 2.0;" width="200" x="1647.75" y="875.4961"/><text fill="#000000" font-family="sans-serif" font-size="13" font-weight="bold" lengthAdjust="spacingAndGlyphs" textLength="182" x="1653.75" y="892.0645">Initialize call HCC_Initialize</text><polygon fill="#A80036" points="1151,925.8066,1161,929.8066,1151,933.8066,1155,929.8066" style="stroke: #A80036; stroke-width: 1.0;"/><line style="stroke: #A80036; stroke-width: 1.0;" x1="380.5" x2="1157" y1="929.8066" y2="929.8066"/><text fill="#000000" font-family="sans-serif" font-size="13" lengthAdjust="spacingAndGlyphs" textLength="169" x="387.5" y="925.375">OnSessionCreateIndication</text><line style="stroke: #A80036; stroke-width: 1.0;" x1="1163" x2="1205" y1="959.4277" y2="959.4277"/><line style="stroke: #A80036; stroke-width: 1.0;" x1="1205" x2="1205" y1="959.4277" y2="972.4277"/><line style="stroke: #A80036; stroke-width: 1.0;" x1="1164" x2="1205" y1="972.4277" y2="972.4277"/><polygon fill="#A80036" points="1174,968.4277,1164,972.4277,1174,976.4277,1170,972.4277" style="stroke: #A80036; stroke-width: 1.0;"/><text fill="#000000" font-family="sans-serif" font-size="13" lengthAdjust="spacingAndGlyphs" textLength="169" x="1170" y="954.6855">OnSessionCreateIndication</text><line style="stroke: #A80036; stroke-width: 1.0;" x1="1163" x2="1205" y1="1001.7383" y2="1001.7383"/><line style="stroke: #A80036; stroke-width: 1.0;" x1="1205" x2="1205" y1="1001.7383" y2="1014.7383"/><line style="stroke: #A80036; stroke-width: 1.0;" x1="1164" x2="1205" y1="1014.7383" y2="1014.7383"/><polygon fill="#A80036" points="1174,1010.7383,1164,1014.7383,1174,1018.7383,1170,1014.7383" style="stroke: #A80036; stroke-width: 1.0;"/><text fill="#000000" font-family="sans-serif" font-size="13" lengthAdjust="spacingAndGlyphs" textLength="157" x="1170" y="996.9961">OnSessionCreateConfirm</text><polygon fill="#A80036" points="1512.5,1039.7383,1522.5,1043.7383,1512.5,1047.7383,1516.5,1043.7383" style="stroke: #A80036; stroke-width: 1.0;"/><line style="stroke: #A80036; stroke-width: 1.0;" x1="1163" x2="1518.5" y1="1043.7383" y2="1043.7383"/><text fill="#000000" font-family="sans-serif" font-size="13" lengthAdjust="spacingAndGlyphs" textLength="83" x="1170" y="1039.3066">EnrollControl</text><polygon fill="#A80036" points="1875.5,1069.0488,1885.5,1073.0488,1875.5,1077.0488,1879.5,1073.0488" style="stroke: #A80036; stroke-width: 1.0;"/><line style="stroke: #A80036; stroke-width: 1.0;" x1="1524.5" x2="1881.5" y1="1073.0488" y2="1073.0488"/><text fill="#000000" font-family="sans-serif" font-size="13" lengthAdjust="spacingAndGlyphs" textLength="89" x="1531.5" y="1068.6172">HCC_Initialize</text><polygon fill="#A80036" points="2019.5,1098.3594,2029.5,1102.3594,2019.5,1106.3594,2023.5,1102.3594" style="stroke: #A80036; stroke-width: 1.0;"/><line style="stroke: #A80036; stroke-width: 1.0;" x1="1887.5" x2="2025.5" y1="1102.3594" y2="1102.3594"/><text fill="#000000" font-family="sans-serif" font-size="13" lengthAdjust="spacingAndGlyphs" textLength="54" x="1894.5" y="1097.9277">Initialize</text><polygon fill="#A80036" points="2168.5,1127.6699,2178.5,1131.6699,2168.5,1135.6699,2172.5,1131.6699" style="stroke: #A80036; stroke-width: 1.0;"/><line style="stroke: #A80036; stroke-width: 1.0;" x1="2031.5" x2="2174.5" y1="1131.6699" y2="1131.6699"/><text fill="#000000" font-family="sans-serif" font-size="13" lengthAdjust="spacingAndGlyphs" textLength="54" x="2038.5" y="1127.2383">Initialize</text><polygon fill="#A80036" points="2338,1156.9805,2348,1160.9805,2338,1164.9805,2342,1160.9805" style="stroke: #A80036; stroke-width: 1.0;"/><line style="stroke: #A80036; stroke-width: 1.0;" x1="2180.5" x2="2344" y1="1160.9805" y2="1160.9805"/><text fill="#000000" font-family="sans-serif" font-size="13" lengthAdjust="spacingAndGlyphs" textLength="54" x="2187.5" y="1156.5488">Initialize</text><polygon fill="#A80036" points="3103,1186.291,3113,1190.291,3103,1194.291,3107,1190.291" style="stroke: #A80036; stroke-width: 1.0;"/><line style="stroke: #A80036; stroke-width: 1.0;" x1="2350" x2="3109" y1="1190.291" y2="1190.291"/><text fill="#000000" font-family="sans-serif" font-size="13" lengthAdjust="spacingAndGlyphs" textLength="54" x="2357" y="1185.8594">Initialize</text><rect fill="#EEEEEE" filter="url(#f1)" height="3" style="stroke: #EEEEEE; stroke-width: 1.0;" width="3489.5" x="3" y="1219.2568"/><line style="stroke: #000000; stroke-width: 1.0;" x1="3" x2="3492.5" y1="1219.2568" y2="1219.2568"/><line style="stroke: #000000; stroke-width: 1.0;" x1="3" x2="3492.5" y1="1222.2568" y2="1222.2568"/><rect fill="#EEEEEE" filter="url(#f1)" height="23.3105" style="stroke: #000000; stroke-width: 2.0;" width="224" x="1635.75" y="1208.6016"/><text fill="#000000" font-family="sans-serif" font-size="13" font-weight="bold" lengthAdjust="spacingAndGlyphs" textLength="206" x="1641.75" y="1225.1699">Show Audio Connection Dialog</text><polygon fill="#A80036" points="177,1258.9121,187,1262.9121,177,1266.9121,181,1262.9121" style="stroke: #A80036; stroke-width: 1.0;"/><line style="stroke: #A80036; stroke-width: 1.0;" x1="3" x2="183" y1="1262.9121" y2="1262.9121"/><text fill="#000000" font-family="sans-serif" font-size="13" lengthAdjust="spacingAndGlyphs" textLength="76" x="10" y="1258.4805">OnQsAction</text><polygon fill="#A80036" points="559.5,1293.2227,569.5,1297.2227,559.5,1301.2227,563.5,1297.2227" style="stroke: #A80036; stroke-width: 1.0;"/><line style="stroke: #A80036; stroke-width: 1.0;" x1="189" x2="565.5" y1="1297.2227" y2="1297.2227"/><text fill="#000000" font-family="sans-serif" font-size="13" lengthAdjust="spacingAndGlyphs" textLength="116" x="196" y="1292.791">ShowJoinAudioDlg</text><polygon fill="#FBFB77" filter="url(#f1)" points="8,1276.2227,8,1301.2227,180,1301.2227,180,1286.2227,170,1276.2227,8,1276.2227" style="stroke: #A80036; stroke-width: 1.0;"/><line style="stroke: #A80036; stroke-width: 1.0;" x1="170" x2="170" y1="1276.2227" y2="1286.2227"/><line style="stroke: #A80036; stroke-width: 1.0;" x1="180" x2="170" y1="1286.2227" y2="1286.2227"/><text fill="#000000" font-family="sans-serif" font-size="13" lengthAdjust="spacingAndGlyphs" textLength="151" x="14" y="1293.791">NEWQSID_AUDIO_CONF</text><polygon fill="#A80036" points="1151,1327.5332,1161,1331.5332,1151,1335.5332,1155,1331.5332" style="stroke: #A80036; stroke-width: 1.0;"/><line style="stroke: #A80036; stroke-width: 1.0;" x1="571.5" x2="1157" y1="1331.5332" y2="1331.5332"/><text fill="#000000" font-family="sans-serif" font-size="13" lengthAdjust="spacingAndGlyphs" textLength="171" x="578.5" y="1327.1016">ShowHybridAudioSelectDlg</text><polygon fill="#A80036" points="787,1356.8438,777,1360.8438,787,1364.8438,783,1360.8438" style="stroke: #A80036; stroke-width: 1.0;"/><line style="stroke: #A80036; stroke-width: 1.0;" x1="781" x2="1162" y1="1360.8438" y2="1360.8438"/><text fill="#000000" font-family="sans-serif" font-size="13" lengthAdjust="spacingAndGlyphs" textLength="111" x="793" y="1356.4121">ShowAudioDialog</text><rect fill="#EEEEEE" filter="url(#f1)" height="3" style="stroke: #EEEEEE; stroke-width: 1.0;" width="3489.5" x="3" y="1389.8096"/><line style="stroke: #000000; stroke-width: 1.0;" x1="3" x2="3492.5" y1="1389.8096" y2="1389.8096"/><line style="stroke: #000000; stroke-width: 1.0;" x1="3" x2="3492.5" y1="1392.8096" y2="1392.8096"/><rect fill="#EEEEEE" filter="url(#f1)" height="23.3105" style="stroke: #000000; stroke-width: 2.0;" width="68" x="1713.75" y="1379.1543"/><text fill="#000000" font-family="sans-serif" font-size="13" font-weight="bold" lengthAdjust="spacingAndGlyphs" textLength="50" x="1719.75" y="1395.7227">Call me</text><polygon fill="#A80036" points="764,1429.4648,774,1433.4648,764,1437.4648,768,1433.4648" style="stroke: #A80036; stroke-width: 1.0;"/><line style="stroke: #A80036; stroke-width: 1.0;" x1="3" x2="770" y1="1433.4648" y2="1433.4648"/><text fill="#000000" font-family="sans-serif" font-size="13" lengthAdjust="spacingAndGlyphs" textLength="62" x="10" y="1429.0332">CallPhone</text><polygon fill="#A80036" points="964.5,1458.7754,974.5,1462.7754,964.5,1466.7754,968.5,1462.7754" style="stroke: #A80036; stroke-width: 1.0;"/><line style="stroke: #A80036; stroke-width: 1.0;" x1="776" x2="970.5" y1="1462.7754" y2="1462.7754"/><text fill="#000000" font-family="sans-serif" font-size="13" lengthAdjust="spacingAndGlyphs" textLength="24" x="783" y="1458.3438">Call</text><polygon fill="#A80036" points="1151,1493.0859,1161,1497.0859,1151,1501.0859,1155,1497.0859" style="stroke: #A80036; stroke-width: 1.0;"/><line style="stroke: #A80036; stroke-width: 1.0;" x1="976.5" x2="1157" y1="1497.0859" y2="1497.0859"/><text fill="#000000" font-family="sans-serif" font-size="13" lengthAdjust="spacingAndGlyphs" textLength="24" x="983.5" y="1492.6543">Call</text><polygon fill="#FBFB77" filter="url(#f1)" points="829,1476.0859,829,1501.0859,967,1501.0859,967,1486.0859,957,1476.0859,829,1476.0859" style="stroke: #A80036; stroke-width: 1.0;"/><line style="stroke: #A80036; stroke-width: 1.0;" x1="957" x2="957" y1="1476.0859" y2="1486.0859"/><line style="stroke: #A80036; stroke-width: 1.0;" x1="967" x2="957" y1="1486.0859" y2="1486.0859"/><text fill="#000000" font-family="sans-serif" font-size="13" lengthAdjust="spacingAndGlyphs" textLength="117" x="835" y="1493.6543">By ITelephoneFunc</text><line style="stroke: #A80036; stroke-width: 1.0;" x1="1163" x2="1205" y1="1531.707" y2="1531.707"/><line style="stroke: #A80036; stroke-width: 1.0;" x1="1205" x2="1205" y1="1531.707" y2="1544.707"/><line style="stroke: #A80036; stroke-width: 1.0;" x1="1164" x2="1205" y1="1544.707" y2="1544.707"/><polygon fill="#A80036" points="1174,1540.707,1164,1544.707,1174,1548.707,1170,1544.707" style="stroke: #A80036; stroke-width: 1.0;"/><text fill="#000000" font-family="sans-serif" font-size="13" lengthAdjust="spacingAndGlyphs" textLength="144" x="1170" y="1526.9648">CallMeAtPhoneNumber</text><line style="stroke: #A80036; stroke-width: 1.0;" x1="1163" x2="1205" y1="1574.0176" y2="1574.0176"/><line style="stroke: #A80036; stroke-width: 1.0;" x1="1205" x2="1205" y1="1574.0176" y2="1587.0176"/><line style="stroke: #A80036; stroke-width: 1.0;" x1="1164" x2="1205" y1="1587.0176" y2="1587.0176"/><polygon fill="#A80036" points="1174,1583.0176,1164,1587.0176,1174,1591.0176,1170,1587.0176" style="stroke: #A80036; stroke-width: 1.0;"/><text fill="#000000" font-family="sans-serif" font-size="13" lengthAdjust="spacingAndGlyphs" textLength="117" x="1170" y="1569.2754">JoinWithTelephone</text><polygon fill="#A80036" points="1512.5,1612.0176,1522.5,1616.0176,1512.5,1620.0176,1516.5,1616.0176" style="stroke: #A80036; stroke-width: 1.0;"/><line style="stroke: #A80036; stroke-width: 1.0;" x1="1163" x2="1518.5" y1="1616.0176" y2="1616.0176"/><text fill="#000000" font-family="sans-serif" font-size="13" lengthAdjust="spacingAndGlyphs" textLength="95" x="1170" y="1611.5859">JoinConference</text><polygon fill="#A80036" points="1875.5,1641.3281,1885.5,1645.3281,1875.5,1649.3281,1879.5,1645.3281" style="stroke: #A80036; stroke-width: 1.0;"/><line style="stroke: #A80036; stroke-width: 1.0;" x1="1524.5" x2="1881.5" y1="1645.3281" y2="1645.3281"/><text fill="#000000" font-family="sans-serif" font-size="13" lengthAdjust="spacingAndGlyphs" textLength="99" x="1531.5" y="1640.8965">HCC_Command</text><polygon fill="#A80036" points="2019.5,1670.6387,2029.5,1674.6387,2019.5,1678.6387,2023.5,1674.6387" style="stroke: #A80036; stroke-width: 1.0;"/><line style="stroke: #A80036; stroke-width: 1.0;" x1="1887.5" x2="2025.5" y1="1674.6387" y2="1674.6387"/><text fill="#000000" font-family="sans-serif" font-size="13" lengthAdjust="spacingAndGlyphs" textLength="120" x="1894.5" y="1670.207">DispatchCommand</text><polygon fill="#A80036" points="2168.5,1699.9492,2178.5,1703.9492,2168.5,1707.9492,2172.5,1703.9492" style="stroke: #A80036; stroke-width: 1.0;"/><line style="stroke: #A80036; stroke-width: 1.0;" x1="2031.5" x2="2174.5" y1="1703.9492" y2="1703.9492"/><text fill="#000000" font-family="sans-serif" font-size="13" lengthAdjust="spacingAndGlyphs" textLength="120" x="2038.5" y="1699.5176">DispatchCommand</text><polygon fill="#A80036" points="2973,1729.2598,2983,1733.2598,2973,1737.2598,2977,1733.2598" style="stroke: #A80036; stroke-width: 1.0;"/><line style="stroke: #A80036; stroke-width: 1.0;" x1="2180.5" x2="2979" y1="1733.2598" y2="1733.2598"/><text fill="#000000" font-family="sans-serif" font-size="13" lengthAdjust="spacingAndGlyphs" textLength="49" x="2187.5" y="1728.8281">Execute</text><polygon fill="#A80036" points="2361,1758.5703,2351,1762.5703,2361,1766.5703,2357,1762.5703" style="stroke: #A80036; stroke-width: 1.0;"/><line style="stroke: #A80036; stroke-width: 1.0;" x1="2355" x2="2984" y1="1762.5703" y2="1762.5703"/><text fill="#000000" font-family="sans-serif" font-size="13" lengthAdjust="spacingAndGlyphs" textLength="72" x="2367" y="1758.1387">JoinSession</text><polygon fill="#A80036" points="3103,1787.8809,3113,1791.8809,3103,1795.8809,3107,1791.8809" style="stroke: #A80036; stroke-width: 1.0;"/><line style="stroke: #A80036; stroke-width: 1.0;" x1="2350" x2="3109" y1="1791.8809" y2="1791.8809"/><text fill="#000000" font-family="sans-serif" font-size="13" lengthAdjust="spacingAndGlyphs" textLength="102" x="2357" y="1787.4492">ConnectRequest</text><line style="stroke: #A80036; stroke-width: 1.0;" x1="3115" x2="3157" y1="1821.502" y2="1821.502"/><line style="stroke: #A80036; stroke-width: 1.0;" x1="3157" x2="3157" y1="1821.502" y2="1834.502"/><line style="stroke: #A80036; stroke-width: 1.0;" x1="3116" x2="3157" y1="1834.502" y2="1834.502"/><polygon fill="#A80036" points="3126,1830.502,3116,1834.502,3126,1838.502,3122,1834.502" style="stroke: #A80036; stroke-width: 1.0;"/><text fill="#000000" font-family="sans-serif" font-size="13" lengthAdjust="spacingAndGlyphs" textLength="59" x="3122" y="1816.7598">SendData</text><polygon fill="#A80036" points="3397,1859.502,3407,1863.502,3397,1867.502,3401,1863.502" style="stroke: #A80036; stroke-width: 1.0;"/><line style="stroke: #A80036; stroke-width: 1.0;" x1="3115" x2="3403" y1="1863.502" y2="1863.502"/><text fill="#000000" font-family="sans-serif" font-size="13" lengthAdjust="spacingAndGlyphs" textLength="83" x="3122" y="1859.0703">ApeSendData</text><rect fill="#EEEEEE" filter="url(#f1)" height="3" style="stroke: #EEEEEE; stroke-width: 1.0;" width="3489.5" x="3" y="1892.4678"/><line style="stroke: #000000; stroke-width: 1.0;" x1="3" x2="3492.5" y1="1892.4678" y2="1892.4678"/><line style="stroke: #000000; stroke-width: 1.0;" x1="3" x2="3492.5" y1="1895.4678" y2="1895.4678"/><rect fill="#EEEEEE" filter="url(#f1)" height="23.3105" style="stroke: #000000; stroke-width: 2.0;" width="133" x="1681.25" y="1881.8125"/><text fill="#000000" font-family="sans-serif" font-size="13" font-weight="bold" lengthAdjust="spacingAndGlyphs" textLength="115" x="1687.25" y="1898.3809">Recieve ASN PDU</text><polygon fill="#A80036" points="3103,1932.123,3113,1936.123,3103,1940.123,3107,1936.123" style="stroke: #A80036; stroke-width: 1.0;"/><line style="stroke: #A80036; stroke-width: 1.0;" x1="3" x2="3109" y1="1936.123" y2="1936.123"/><text fill="#000000" font-family="sans-serif" font-size="13" lengthAdjust="spacingAndGlyphs" textLength="116" x="10" y="1931.6914">ApeDataIndication</text><polygon fill="#A80036" points="3239.5,1961.4336,3249.5,1965.4336,3239.5,1969.4336,3243.5,1965.4336" style="stroke: #A80036; stroke-width: 1.0;"/><line style="stroke: #A80036; stroke-width: 1.0;" x1="3115" x2="3245.5" y1="1965.4336" y2="1965.4336"/><text fill="#000000" font-family="sans-serif" font-size="13" lengthAdjust="spacingAndGlyphs" textLength="85" x="3122" y="1961.002">OnASNReport</text><polygon fill="#A80036" points="2366,1990.7441,2356,1994.7441,2366,1998.7441,2362,1994.7441" style="stroke: #A80036; stroke-width: 1.0;"/><line style="stroke: #A80036; stroke-width: 1.0;" x1="2360" x2="3250.5" y1="1994.7441" y2="1994.7441"/><text fill="#000000" font-family="sans-serif" font-size="13" lengthAdjust="spacingAndGlyphs" textLength="85" x="2372" y="1990.3125">OnASNReport</text><line style="stroke: #A80036; stroke-width: 1.0;" x1="2355" x2="2402" y1="2019.3652" y2="2019.3652"/><line style="stroke: #A80036; stroke-width: 1.0;" x1="2402" x2="2402" y1="2019.3652" y2="2032.3652"/><line style="stroke: #A80036; stroke-width: 1.0;" x1="2361" x2="2402" y1="2032.3652" y2="2032.3652"/><polygon fill="#A80036" points="2371,2028.3652,2361,2032.3652,2371,2036.3652,2367,2032.3652" style="stroke: #A80036; stroke-width: 1.0;"/><text fill="#000000" font-family="sans-serif" font-size="13" lengthAdjust="spacingAndGlyphs" textLength="55" x="2367" y="2014.623">StartASN</text><line style="stroke: #A80036; stroke-width: 1.0;" x1="2360" x2="2402" y1="2066.6758" y2="2066.6758"/><line style="stroke: #A80036; stroke-width: 1.0;" x1="2402" x2="2402" y1="2066.6758" y2="2079.6758"/><line style="stroke: #A80036; stroke-width: 1.0;" x1="2361" x2="2402" y1="2079.6758" y2="2079.6758"/><polygon fill="#A80036" points="2371,2075.6758,2361,2079.6758,2371,2083.6758,2367,2079.6758" style="stroke: #A80036; stroke-width: 1.0;"/><text fill="#000000" font-family="sans-serif" font-size="13" lengthAdjust="spacingAndGlyphs" textLength="101" x="2367" y="2061.9336">FlashUser(False)</text><polygon fill="#A80036" points="391.5,2104.6758,381.5,2108.6758,391.5,2112.6758,387.5,2108.6758" style="stroke: #A80036; stroke-width: 1.0;"/><line style="stroke: #A80036; stroke-width: 1.0;" x1="385.5" x2="2349" y1="2108.6758" y2="2108.6758"/><text fill="#000000" font-family="sans-serif" font-size="13" lengthAdjust="spacingAndGlyphs" textLength="113" x="397.5" y="2104.2441">OnRosterChanged</text><line style="stroke: #A80036; stroke-width: 1.0;" x1="2360" x2="2402" y1="2143.2969" y2="2143.2969"/><line style="stroke: #A80036; stroke-width: 1.0;" x1="2402" x2="2402" y1="2143.2969" y2="2156.2969"/><line style="stroke: #A80036; stroke-width: 1.0;" x1="2355" x2="2402" y1="2156.2969" y2="2156.2969"/><polygon fill="#A80036" points="2365,2152.2969,2355,2156.2969,2365,2160.2969,2361,2156.2969" style="stroke: #A80036; stroke-width: 1.0;"/><text fill="#000000" font-family="sans-serif" font-size="13" lengthAdjust="spacingAndGlyphs" textLength="97" x="2367" y="2138.5547">FlashUser(True)</text><line style="stroke: #A80036; stroke-width: 1.0;" x1="2355" x2="2397" y1="2185.6074" y2="2185.6074"/><line style="stroke: #A80036; stroke-width: 1.0;" x1="2397" x2="2397" y1="2185.6074" y2="2198.6074"/><line style="stroke: #A80036; stroke-width: 1.0;" x1="2350" x2="2397" y1="2198.6074" y2="2198.6074"/><polygon fill="#A80036" points="2360,2194.6074,2350,2198.6074,2360,2202.6074,2356,2198.6074" style="stroke: #A80036; stroke-width: 1.0;"/><text fill="#000000" font-family="sans-serif" font-size="13" lengthAdjust="spacingAndGlyphs" textLength="82" x="2362" y="2180.8652">SaveASNUser</text></g></svg>