<?xml version="1.0" encoding="UTF-8" standalone="no"?><svg xmlns="http://www.w3.org/2000/svg" xmlns:xlink="http://www.w3.org/1999/xlink" contentScriptType="application/ecmascript" contentStyleType="text/css" height="706px" preserveAspectRatio="none" style="width:1259px;height:706px;" version="1.1" viewBox="0 0 1259 706" width="1259px" zoomAndPan="magnify"><defs><filter height="300%" id="fcrky18" width="300%" x="-1" y="-1"><feGaussianBlur result="blurOut" stdDeviation="2.0"/><feColorMatrix in="blurOut" result="blurOut2" type="matrix" values="0 0 0 0 0 0 0 0 0 0 0 0 0 0 0 0 0 0 .4 0"/><feOffset dx="4.0" dy="4.0" in="blurOut2" result="blurOut3"/><feBlend in="SourceGraphic" in2="blurOut3" mode="normal"/></filter></defs><g><rect fill="#ADD8E6" height="701.5664" style="stroke: #A80036; stroke-width: 1.0;" width="274" x="708" y="4"/><text fill="#000000" font-family="sans-serif" font-size="13" font-weight="bold" lengthAdjust="spacingAndGlyphs" textLength="92" x="799" y="16.5684">CNBRPfwUICtl</text><line style="stroke: #A80036; stroke-width: 1.0; stroke-dasharray: 5.0,5.0;" x1="109" x2="109" y1="58.7988" y2="667.0781"/><line style="stroke: #A80036; stroke-width: 1.0; stroke-dasharray: 5.0,5.0;" x1="237" x2="237" y1="58.7988" y2="667.0781"/><line style="stroke: #A80036; stroke-width: 1.0; stroke-dasharray: 5.0,5.0;" x1="368" x2="368" y1="58.7988" y2="667.0781"/><line style="stroke: #A80036; stroke-width: 1.0; stroke-dasharray: 5.0,5.0;" x1="498" x2="498" y1="58.7988" y2="667.0781"/><line style="stroke: #A80036; stroke-width: 1.0; stroke-dasharray: 5.0,5.0;" x1="622" x2="622" y1="58.7988" y2="667.0781"/><line style="stroke: #A80036; stroke-width: 1.0; stroke-dasharray: 5.0,5.0;" x1="772" x2="772" y1="58.7988" y2="667.0781"/><line style="stroke: #A80036; stroke-width: 1.0; stroke-dasharray: 5.0,5.0;" x1="922" x2="922" y1="58.7988" y2="667.0781"/><line style="stroke: #A80036; stroke-width: 1.0; stroke-dasharray: 5.0,5.0;" x1="1061.5" x2="1061.5" y1="58.7988" y2="667.0781"/><line style="stroke: #A80036; stroke-width: 1.0; stroke-dasharray: 5.0,5.0;" x1="1191.5" x2="1191.5" y1="58.7988" y2="667.0781"/><rect fill="#FEFECE" filter="url(#fcrky18)" height="30.4883" style="stroke: #A80036; stroke-width: 1.5;" width="100" x="57" y="23.3105"/><text fill="#000000" font-family="sans-serif" font-size="14" lengthAdjust="spacingAndGlyphs" textLength="86" x="64" y="43.8457">CNBRPlayBar</text><rect fill="#FEFECE" filter="url(#fcrky18)" height="30.4883" style="stroke: #A80036; stroke-width: 1.5;" width="100" x="57" y="666.0781"/><text fill="#000000" font-family="sans-serif" font-size="14" lengthAdjust="spacingAndGlyphs" textLength="86" x="64" y="686.6133">CNBRPlayBar</text><rect fill="#FEFECE" filter="url(#fcrky18)" height="30.4883" style="stroke: #A80036; stroke-width: 1.5;" width="129" x="171" y="23.3105"/><text fill="#000000" font-family="sans-serif" font-size="14" lengthAdjust="spacingAndGlyphs" textLength="115" x="178" y="43.8457">CWbxBmpButton</text><rect fill="#FEFECE" filter="url(#fcrky18)" height="30.4883" style="stroke: #A80036; stroke-width: 1.5;" width="129" x="171" y="666.0781"/><text fill="#000000" font-family="sans-serif" font-size="14" lengthAdjust="spacingAndGlyphs" textLength="115" x="178" y="686.6133">CWbxBmpButton</text><rect fill="#FEFECE" filter="url(#fcrky18)" height="30.4883" style="stroke: #A80036; stroke-width: 1.5;" width="105" x="314" y="23.3105"/><text fill="#000000" font-family="sans-serif" font-size="14" lengthAdjust="spacingAndGlyphs" textLength="91" x="321" y="43.8457">CNBRPlayMgr</text><rect fill="#FEFECE" filter="url(#fcrky18)" height="30.4883" style="stroke: #A80036; stroke-width: 1.5;" width="105" x="314" y="666.0781"/><text fill="#000000" font-family="sans-serif" font-size="14" lengthAdjust="spacingAndGlyphs" textLength="91" x="321" y="686.6133">CNBRPlayMgr</text><rect fill="#FEFECE" filter="url(#fcrky18)" height="30.4883" style="stroke: #A80036; stroke-width: 1.5;" width="127" x="433" y="23.3105"/><text fill="#000000" font-family="sans-serif" font-size="14" lengthAdjust="spacingAndGlyphs" textLength="113" x="440" y="43.8457">CNBRMainFrame</text><rect fill="#FEFECE" filter="url(#fcrky18)" height="30.4883" style="stroke: #A80036; stroke-width: 1.5;" width="127" x="433" y="666.0781"/><text fill="#000000" font-family="sans-serif" font-size="14" lengthAdjust="spacingAndGlyphs" textLength="113" x="440" y="686.6133">CNBRMainFrame</text><rect fill="#FEFECE" filter="url(#fcrky18)" height="30.4883" style="stroke: #A80036; stroke-width: 1.5;" width="92" x="574" y="23.3105"/><text fill="#000000" font-family="sans-serif" font-size="14" lengthAdjust="spacingAndGlyphs" textLength="78" x="581" y="43.8457">CNBRUIMgr</text><rect fill="#FEFECE" filter="url(#fcrky18)" height="30.4883" style="stroke: #A80036; stroke-width: 1.5;" width="92" x="574" y="666.0781"/><text fill="#000000" font-family="sans-serif" font-size="14" lengthAdjust="spacingAndGlyphs" textLength="78" x="581" y="686.6133">CNBRUIMgr</text><rect fill="#FEFECE" filter="url(#fcrky18)" height="30.4883" style="stroke: #A80036; stroke-width: 1.5;" width="116" x="712" y="23.3105"/><text fill="#000000" font-family="sans-serif" font-size="14" lengthAdjust="spacingAndGlyphs" textLength="102" x="719" y="43.8457">INBRCommand</text><rect fill="#FEFECE" filter="url(#fcrky18)" height="30.4883" style="stroke: #A80036; stroke-width: 1.5;" width="116" x="712" y="666.0781"/><text fill="#000000" font-family="sans-serif" font-size="14" lengthAdjust="spacingAndGlyphs" textLength="102" x="719" y="686.6133">INBRCommand</text><rect fill="#FEFECE" filter="url(#fcrky18)" height="30.4883" style="stroke: #A80036; stroke-width: 1.5;" width="108" x="866" y="23.3105"/><text fill="#000000" font-family="sans-serif" font-size="14" lengthAdjust="spacingAndGlyphs" textLength="94" x="873" y="43.8457">CNBRPfwUICtl</text><rect fill="#FEFECE" filter="url(#fcrky18)" height="30.4883" style="stroke: #A80036; stroke-width: 1.5;" width="108" x="866" y="666.0781"/><text fill="#000000" font-family="sans-serif" font-size="14" lengthAdjust="spacingAndGlyphs" textLength="94" x="873" y="686.6133">CNBRPfwUICtl</text><rect fill="#FEFECE" filter="url(#fcrky18)" height="30.4883" style="stroke: #A80036; stroke-width: 1.5;" width="121" x="999.5" y="23.3105"/><text fill="#000000" font-family="sans-serif" font-size="14" lengthAdjust="spacingAndGlyphs" textLength="107" x="1006.5" y="43.8457">CNBRPfwPlayCtl</text><rect fill="#FEFECE" filter="url(#fcrky18)" height="30.4883" style="stroke: #A80036; stroke-width: 1.5;" width="121" x="999.5" y="666.0781"/><text fill="#000000" font-family="sans-serif" font-size="14" lengthAdjust="spacingAndGlyphs" textLength="107" x="1006.5" y="686.6133">CNBRPfwPlayCtl</text><rect fill="#FEFECE" filter="url(#fcrky18)" height="30.4883" style="stroke: #A80036; stroke-width: 1.5;" width="111" x="1134.5" y="23.3105"/><text fill="#000000" font-family="sans-serif" font-size="14" lengthAdjust="spacingAndGlyphs" textLength="97" x="1141.5" y="43.8457">INBRPlayCCCtl</text><rect fill="#FEFECE" filter="url(#fcrky18)" height="30.4883" style="stroke: #A80036; stroke-width: 1.5;" width="111" x="1134.5" y="666.0781"/><text fill="#000000" font-family="sans-serif" font-size="14" lengthAdjust="spacingAndGlyphs" textLength="97" x="1141.5" y="686.6133">INBRPlayCCCtl</text><rect fill="#EEEEEE" filter="url(#fcrky18)" height="3" style="stroke: #EEEEEE; stroke-width: 1.0;" width="1251.5" x="3" y="89.4541"/><line style="stroke: #000000; stroke-width: 1.0;" x1="3" x2="1254.5" y1="89.4541" y2="89.4541"/><line style="stroke: #000000; stroke-width: 1.0;" x1="3" x2="1254.5" y1="92.4541" y2="92.4541"/><rect fill="#EEEEEE" filter="url(#fcrky18)" height="23.3105" style="stroke: #000000; stroke-width: 2.0;" width="171" x="543.25" y="78.7988"/><text fill="#000000" font-family="sans-serif" font-size="13" font-weight="bold" lengthAdjust="spacingAndGlyphs" textLength="153" x="549.25" y="95.3672">User click mute button</text><polygon fill="#A80036" points="97,129.1094,107,133.1094,97,137.1094,101,133.1094" style="stroke: #A80036; stroke-width: 1.0;"/><line style="stroke: #A80036; stroke-width: 1.0;" x1="3" x2="103" y1="133.1094" y2="133.1094"/><text fill="#000000" font-family="sans-serif" font-size="13" lengthAdjust="spacingAndGlyphs" textLength="82" x="10" y="128.6777">OnCommand</text><polygon fill="#FBFB77" filter="url(#fcrky18)" points="56,146.4199,56,171.4199,157,171.4199,157,156.4199,147,146.4199,56,146.4199" style="stroke: #A80036; stroke-width: 1.0;"/><line style="stroke: #A80036; stroke-width: 1.0;" x1="147" x2="147" y1="146.4199" y2="156.4199"/><line style="stroke: #A80036; stroke-width: 1.0;" x1="157" x2="147" y1="156.4199" y2="156.4199"/><text fill="#000000" font-family="sans-serif" font-size="13" lengthAdjust="spacingAndGlyphs" textLength="80" x="62" y="163.9883">NBRUI_MUTE</text><polygon fill="#A80036" points="225.5,197.7305,235.5,201.7305,225.5,205.7305,229.5,201.7305" style="stroke: #A80036; stroke-width: 1.0;"/><line style="stroke: #A80036; stroke-width: 1.0;" x1="109" x2="231.5" y1="201.7305" y2="201.7305"/><text fill="#000000" font-family="sans-serif" font-size="13" lengthAdjust="spacingAndGlyphs" textLength="75" x="116" y="197.2988">GetChecked</text><line style="stroke: #A80036; stroke-width: 1.0;" x1="109" x2="151" y1="231.3516" y2="231.3516"/><line style="stroke: #A80036; stroke-width: 1.0;" x1="151" x2="151" y1="231.3516" y2="244.3516"/><line style="stroke: #A80036; stroke-width: 1.0;" x1="110" x2="151" y1="244.3516" y2="244.3516"/><polygon fill="#A80036" points="120,240.3516,110,244.3516,120,248.3516,116,244.3516" style="stroke: #A80036; stroke-width: 1.0;"/><text fill="#000000" font-family="sans-serif" font-size="13" lengthAdjust="spacingAndGlyphs" textLength="78" x="116" y="226.6094">MuteVolume</text><polygon fill="#A80036" points="356.5,269.3516,366.5,273.3516,356.5,277.3516,360.5,273.3516" style="stroke: #A80036; stroke-width: 1.0;"/><line style="stroke: #A80036; stroke-width: 1.0;" x1="109" x2="362.5" y1="273.3516" y2="273.3516"/><text fill="#000000" font-family="sans-serif" font-size="13" lengthAdjust="spacingAndGlyphs" textLength="77" x="116" y="268.9199">UICommand</text><polygon fill="#FBFB77" filter="url(#fcrky18)" points="58,286.6621,58,311.6621,419,311.6621,419,296.6621,409,286.6621,58,286.6621" style="stroke: #A80036; stroke-width: 1.0;"/><line style="stroke: #A80036; stroke-width: 1.0;" x1="409" x2="409" y1="286.6621" y2="296.6621"/><line style="stroke: #A80036; stroke-width: 1.0;" x1="419" x2="409" y1="296.6621" y2="296.6621"/><text fill="#000000" font-family="sans-serif" font-size="13" lengthAdjust="spacingAndGlyphs" textLength="80" x="192" y="304.2305">NBRUI_MUTE</text><polygon fill="#A80036" points="486.5,337.9727,496.5,341.9727,486.5,345.9727,490.5,341.9727" style="stroke: #A80036; stroke-width: 1.0;"/><line style="stroke: #A80036; stroke-width: 1.0;" x1="368.5" x2="492.5" y1="341.9727" y2="341.9727"/><text fill="#000000" font-family="sans-serif" font-size="13" lengthAdjust="spacingAndGlyphs" textLength="58" x="375.5" y="337.541">ToUICmd</text><polygon fill="#FBFB77" filter="url(#fcrky18)" points="311,355.2832,311,380.2832,556,380.2832,556,365.2832,546,355.2832,311,355.2832" style="stroke: #A80036; stroke-width: 1.0;"/><line style="stroke: #A80036; stroke-width: 1.0;" x1="546" x2="546" y1="355.2832" y2="365.2832"/><line style="stroke: #A80036; stroke-width: 1.0;" x1="556" x2="546" y1="365.2832" y2="365.2832"/><text fill="#000000" font-family="sans-serif" font-size="13" lengthAdjust="spacingAndGlyphs" textLength="85" x="384.5" y="372.8516">UICMD_MUTE</text><polygon fill="#A80036" points="610,406.5938,620,410.5938,610,414.5938,614,410.5938" style="stroke: #A80036; stroke-width: 1.0;"/><line style="stroke: #A80036; stroke-width: 1.0;" x1="498.5" x2="616" y1="410.5938" y2="410.5938"/><text fill="#000000" font-family="sans-serif" font-size="13" lengthAdjust="spacingAndGlyphs" textLength="70" x="505.5" y="406.1621">ToPFWCmd</text><polygon fill="#FBFB77" filter="url(#fcrky18)" points="444,423.9043,444,448.9043,676,448.9043,676,433.9043,666,423.9043,444,423.9043" style="stroke: #A80036; stroke-width: 1.0;"/><line style="stroke: #A80036; stroke-width: 1.0;" x1="666" x2="666" y1="423.9043" y2="433.9043"/><line style="stroke: #A80036; stroke-width: 1.0;" x1="676" x2="666" y1="433.9043" y2="433.9043"/><text fill="#000000" font-family="sans-serif" font-size="13" lengthAdjust="spacingAndGlyphs" textLength="156" x="475.5" y="441.4727">NBR_PLAY_CMDID_MUTE</text><polygon fill="#A80036" points="760,475.2148,770,479.2148,760,483.2148,764,479.2148" style="stroke: #A80036; stroke-width: 1.0;"/><line style="stroke: #A80036; stroke-width: 1.0;" x1="622" x2="766" y1="479.2148" y2="479.2148"/><text fill="#000000" font-family="sans-serif" font-size="13" lengthAdjust="spacingAndGlyphs" textLength="126" x="629" y="474.7832">OnHandleCommand</text><polygon fill="#A80036" points="910,504.5254,920,508.5254,910,512.5254,914,508.5254" style="stroke: #A80036; stroke-width: 1.0;"/><line style="stroke: #A80036; stroke-width: 1.0; stroke-dasharray: 2.0,2.0;" x1="772" x2="916" y1="508.5254" y2="508.5254"/><text fill="#000000" font-family="sans-serif" font-size="13" lengthAdjust="spacingAndGlyphs" textLength="126" x="779" y="504.0938">OnHandleCommand</text><polygon fill="#A80036" points="1050,533.8359,1060,537.8359,1050,541.8359,1054,537.8359" style="stroke: #A80036; stroke-width: 1.0;"/><line style="stroke: #A80036; stroke-width: 1.0;" x1="922" x2="1056" y1="537.8359" y2="537.8359"/><text fill="#000000" font-family="sans-serif" font-size="13" lengthAdjust="spacingAndGlyphs" textLength="116" x="929" y="533.4043">OnHandlePlayCmd</text><polygon fill="#FBFB77" filter="url(#fcrky18)" points="865,551.1465,865,576.1465,1118,576.1465,1118,561.1465,1108,551.1465,865,551.1465" style="stroke: #A80036; stroke-width: 1.0;"/><line style="stroke: #A80036; stroke-width: 1.0;" x1="1108" x2="1108" y1="551.1465" y2="561.1465"/><line style="stroke: #A80036; stroke-width: 1.0;" x1="1118" x2="1108" y1="561.1465" y2="561.1465"/><text fill="#000000" font-family="sans-serif" font-size="13" lengthAdjust="spacingAndGlyphs" textLength="156" x="907.25" y="568.7148">NBR_PLAY_CMDID_MUTE</text><line style="stroke: #A80036; stroke-width: 1.0;" x1="1062" x2="1104" y1="606.7676" y2="606.7676"/><line style="stroke: #A80036; stroke-width: 1.0;" x1="1104" x2="1104" y1="606.7676" y2="619.7676"/><line style="stroke: #A80036; stroke-width: 1.0;" x1="1063" x2="1104" y1="619.7676" y2="619.7676"/><polygon fill="#A80036" points="1073,615.7676,1063,619.7676,1073,623.7676,1069,619.7676" style="stroke: #A80036; stroke-width: 1.0;"/><text fill="#000000" font-family="sans-serif" font-size="13" lengthAdjust="spacingAndGlyphs" textLength="50" x="1069" y="602.0254">SetMute</text><polygon fill="#A80036" points="1180,644.7676,1190,648.7676,1180,652.7676,1184,648.7676" style="stroke: #A80036; stroke-width: 1.0;"/><line style="stroke: #A80036; stroke-width: 1.0;" x1="1062" x2="1186" y1="648.7676" y2="648.7676"/><text fill="#000000" font-family="sans-serif" font-size="13" lengthAdjust="spacingAndGlyphs" textLength="98" x="1069" y="644.3359">HandlePlayCmd</text></g></svg>