<?xml version="1.0" encoding="UTF-8" standalone="yes"?><svg xmlns="http://www.w3.org/2000/svg" xmlns:xlink="http://www.w3.org/1999/xlink" height="2069pt" style="width:1261px;height:2069px;" version="1.1" viewBox="0 0 1261 2069" width="1261pt"><defs><filter height="300%" id="f1" width="300%" x="-1" y="-1"><feGaussianBlur result="blurOut" stdDeviation="2.0"/><feColorMatrix in="blurOut" result="blurOut2" type="matrix" values="0 0 0 0 0 0 0 0 0 0 0 0 0 0 0 0 0 0 .4 0"/><feOffset dx="4.0" dy="4.0" in="blurOut2" result="blurOut3"/><feBlend in="SourceGraphic" in2="blurOut3" mode="normal"/></filter></defs><g><rect fill="#FFFFFF" filter="url(#f1)" height="595.5898" style="stroke: #A80036; stroke-width: 1.0;" width="10" x="247" y="98.7988"/><rect fill="#FFFFFF" filter="url(#f1)" height="193.8633" style="stroke: #A80036; stroke-width: 1.0;" width="10" x="252" y="237.041"/><rect fill="#FFFFFF" filter="url(#f1)" height="122.2422" style="stroke: #A80036; stroke-width: 1.0;" width="10" x="257" y="279.3516"/><rect fill="#FFFFFF" filter="url(#f1)" height="608.2793" style="stroke: #A80036; stroke-width: 1.0;" width="10" x="247" y="1212.0469"/><rect fill="#FFFFFF" filter="url(#f1)" height="327.7949" style="stroke: #A80036; stroke-width: 1.0;" width="10" x="1059.5" y="1492.5313"/><rect fill="#FFFFFF" filter="url(#f1)" height="132.2422" style="stroke: #A80036; stroke-width: 1.0;" width="10" x="1064.5" y="1658.7734"/><line style="stroke: #A80036; stroke-width: 1.0; stroke-dasharray: 5.0,5.0;" x1="125" x2="125" y1="38.4883" y2="2031.1895"/><line style="stroke: #A80036; stroke-width: 1.0; stroke-dasharray: 5.0,5.0;" x1="252" x2="252" y1="38.4883" y2="2031.1895"/><line style="stroke: #A80036; stroke-width: 1.0; stroke-dasharray: 5.0,5.0;" x1="468.5" x2="468.5" y1="38.4883" y2="2031.1895"/><line style="stroke: #A80036; stroke-width: 1.0; stroke-dasharray: 5.0,5.0;" x1="581.5" x2="581.5" y1="38.4883" y2="2031.1895"/><line style="stroke: #A80036; stroke-width: 1.0; stroke-dasharray: 5.0,5.0;" x1="713.5" x2="713.5" y1="38.4883" y2="2031.1895"/><line style="stroke: #A80036; stroke-width: 1.0; stroke-dasharray: 5.0,5.0;" x1="838.5" x2="838.5" y1="38.4883" y2="2031.1895"/><line style="stroke: #A80036; stroke-width: 1.0; stroke-dasharray: 5.0,5.0;" x1="944.5" x2="944.5" y1="38.4883" y2="2031.1895"/><line style="stroke: #A80036; stroke-width: 1.0; stroke-dasharray: 5.0,5.0;" x1="1064.5" x2="1064.5" y1="38.4883" y2="2031.1895"/><line style="stroke: #A80036; stroke-width: 1.0; stroke-dasharray: 5.0,5.0;" x1="1210.5" x2="1210.5" y1="38.4883" y2="2031.1895"/><rect fill="#FEFECE" filter="url(#f1)" height="30.4883" style="stroke: #A80036; stroke-width: 1.5;" width="68" x="89" y="3"/><text fill="#000000" font-family="sans-serif" font-size="14" lengthAdjust="spacingAndGlyphs" textLength="54" x="96" y="23.5352">CPTMgr</text><rect fill="#FEFECE" filter="url(#f1)" height="30.4883" style="stroke: #A80036; stroke-width: 1.5;" width="68" x="89" y="2030.1895"/><text fill="#000000" font-family="sans-serif" font-size="14" lengthAdjust="spacingAndGlyphs" textLength="54" x="96" y="2050.7246">CPTMgr</text><rect fill="#FEFECE" filter="url(#f1)" height="30.4883" style="stroke: #A80036; stroke-width: 1.5;" width="96" x="202" y="3"/><text fill="#000000" font-family="sans-serif" font-size="14" lengthAdjust="spacingAndGlyphs" textLength="82" x="209" y="23.5352">CPTMeeting</text><rect fill="#FEFECE" filter="url(#f1)" height="30.4883" style="stroke: #A80036; stroke-width: 1.5;" width="96" x="202" y="2030.1895"/><text fill="#000000" font-family="sans-serif" font-size="14" lengthAdjust="spacingAndGlyphs" textLength="82" x="209" y="2050.7246">CPTMeeting</text><rect fill="#FEFECE" filter="url(#f1)" height="30.4883" style="stroke: #A80036; stroke-width: 1.5;" width="107" x="413.5" y="3"/><text fill="#000000" font-family="sans-serif" font-size="14" lengthAdjust="spacingAndGlyphs" textLength="93" x="420.5" y="23.5352">CAccountInfo</text><rect fill="#FEFECE" filter="url(#f1)" height="30.4883" style="stroke: #A80036; stroke-width: 1.5;" width="107" x="413.5" y="2030.1895"/><text fill="#000000" font-family="sans-serif" font-size="14" lengthAdjust="spacingAndGlyphs" textLength="93" x="420.5" y="2050.7246">CAccountInfo</text><rect fill="#FEFECE" filter="url(#f1)" height="30.4883" style="stroke: #A80036; stroke-width: 1.5;" width="90" x="534.5" y="3"/><text fill="#000000" font-family="sans-serif" font-size="14" lengthAdjust="spacingAndGlyphs" textLength="76" x="541.5" y="23.5352">CAtURLCtrl</text><rect fill="#FEFECE" filter="url(#f1)" height="30.4883" style="stroke: #A80036; stroke-width: 1.5;" width="90" x="534.5" y="2030.1895"/><text fill="#000000" font-family="sans-serif" font-size="14" lengthAdjust="spacingAndGlyphs" textLength="76" x="541.5" y="2050.7246">CAtURLCtrl</text><rect fill="#FEFECE" filter="url(#f1)" height="30.4883" style="stroke: #A80036; stroke-width: 1.5;" width="146" x="638.5" y="3"/><text fill="#000000" font-family="sans-serif" font-size="14" lengthAdjust="spacingAndGlyphs" textLength="132" x="645.5" y="23.5352">CHelpMainMsgWnd</text><rect fill="#FEFECE" filter="url(#f1)" height="30.4883" style="stroke: #A80036; stroke-width: 1.5;" width="146" x="638.5" y="2030.1895"/><text fill="#000000" font-family="sans-serif" font-size="14" lengthAdjust="spacingAndGlyphs" textLength="132" x="645.5" y="2050.7246">CHelpMainMsgWnd</text><rect fill="#FEFECE" filter="url(#f1)" height="30.4883" style="stroke: #A80036; stroke-width: 1.5;" width="76" x="798.5" y="3"/><text fill="#000000" font-family="sans-serif" font-size="14" lengthAdjust="spacingAndGlyphs" textLength="62" x="805.5" y="23.5352">CHttpGet</text><rect fill="#FEFECE" filter="url(#f1)" height="30.4883" style="stroke: #A80036; stroke-width: 1.5;" width="76" x="798.5" y="2030.1895"/><text fill="#000000" font-family="sans-serif" font-size="14" lengthAdjust="spacingAndGlyphs" textLength="62" x="805.5" y="2050.7246">CHttpGet</text><rect fill="#FEFECE" filter="url(#f1)" height="30.4883" style="stroke: #A80036; stroke-width: 1.5;" width="108" x="888.5" y="3"/><text fill="#000000" font-family="sans-serif" font-size="14" lengthAdjust="spacingAndGlyphs" textLength="94" x="895.5" y="23.5352">CPtXMLParser</text><rect fill="#FEFECE" filter="url(#f1)" height="30.4883" style="stroke: #A80036; stroke-width: 1.5;" width="108" x="888.5" y="2030.1895"/><text fill="#000000" font-family="sans-serif" font-size="14" lengthAdjust="spacingAndGlyphs" textLength="94" x="895.5" y="2050.7246">CPtXMLParser</text><rect fill="#FEFECE" filter="url(#f1)" height="30.4883" style="stroke: #A80036; stroke-width: 1.5;" width="104" x="1010.5" y="3"/><text fill="#000000" font-family="sans-serif" font-size="14" lengthAdjust="spacingAndGlyphs" textLength="90" x="1017.5" y="23.5352">CExeMeeting</text><rect fill="#FEFECE" filter="url(#f1)" height="30.4883" style="stroke: #A80036; stroke-width: 1.5;" width="104" x="1010.5" y="2030.1895"/><text fill="#000000" font-family="sans-serif" font-size="14" lengthAdjust="spacingAndGlyphs" textLength="90" x="1017.5" y="2050.7246">CExeMeeting</text><rect fill="#FEFECE" filter="url(#f1)" height="30.4883" style="stroke: #A80036; stroke-width: 1.5;" width="64" x="1176.5" y="3"/><text fill="#000000" font-family="sans-serif" font-size="14" lengthAdjust="spacingAndGlyphs" textLength="50" x="1183.5" y="23.5352">ieatgpc</text><rect fill="#FEFECE" filter="url(#f1)" height="30.4883" style="stroke: #A80036; stroke-width: 1.5;" width="64" x="1176.5" y="2030.1895"/><text fill="#000000" font-family="sans-serif" font-size="14" lengthAdjust="spacingAndGlyphs" textLength="50" x="1183.5" y="2050.7246">ieatgpc</text><rect fill="#FFFFFF" filter="url(#f1)" height="595.5898" style="stroke: #A80036; stroke-width: 1.0;" width="10" x="247" y="98.7988"/><rect fill="#FFFFFF" filter="url(#f1)" height="193.8633" style="stroke: #A80036; stroke-width: 1.0;" width="10" x="252" y="237.041"/><rect fill="#FFFFFF" filter="url(#f1)" height="122.2422" style="stroke: #A80036; stroke-width: 1.0;" width="10" x="257" y="279.3516"/><rect fill="#FFFFFF" filter="url(#f1)" height="608.2793" style="stroke: #A80036; stroke-width: 1.0;" width="10" x="247" y="1212.0469"/><rect fill="#FFFFFF" filter="url(#f1)" height="327.7949" style="stroke: #A80036; stroke-width: 1.0;" width="10" x="1059.5" y="1492.5313"/><rect fill="#FFFFFF" filter="url(#f1)" height="132.2422" style="stroke: #A80036; stroke-width: 1.0;" width="10" x="1064.5" y="1658.7734"/><polygon fill="#A80036" points="113,65.4883,123,69.4883,113,73.4883,117,69.4883" style="stroke: #A80036; stroke-width: 1.0;"/><line style="stroke: #A80036; stroke-width: 1.0;" x1="3" x2="119" y1="69.4883" y2="69.4883"/><text fill="#000000" font-family="sans-serif" font-size="13" lengthAdjust="spacingAndGlyphs" textLength="98" x="10" y="65.0566">StartOCMeeting</text><polygon fill="#A80036" points="235,94.7988,245,98.7988,235,102.7988,239,98.7988" style="stroke: #A80036; stroke-width: 1.0;"/><line style="stroke: #A80036; stroke-width: 1.0;" x1="125" x2="241" y1="98.7988" y2="98.7988"/><text fill="#000000" font-family="sans-serif" font-size="13" lengthAdjust="spacingAndGlyphs" textLength="98" x="132" y="94.3672">StartOCMeeting</text><line style="stroke: #A80036; stroke-width: 1.0; stroke-dasharray: 2.0,2.0;" x1="257" x2="299" y1="128.4199" y2="128.4199"/><line style="stroke: #A80036; stroke-width: 1.0; stroke-dasharray: 2.0,2.0;" x1="299" x2="299" y1="128.4199" y2="141.4199"/><line style="stroke: #A80036; stroke-width: 1.0; stroke-dasharray: 2.0,2.0;" x1="258" x2="299" y1="141.4199" y2="141.4199"/><polygon fill="#A80036" points="268,137.4199,258,141.4199,268,145.4199,264,141.4199" style="stroke: #A80036; stroke-width: 1.0;"/><text fill="#000000" font-family="sans-serif" font-size="13" lengthAdjust="spacingAndGlyphs" textLength="94" x="264" y="123.6777">StartPTMeeting</text><polygon fill="#A80036" points="457,166.4199,467,170.4199,457,174.4199,461,170.4199" style="stroke: #A80036; stroke-width: 1.0;"/><line style="stroke: #A80036; stroke-width: 1.0; stroke-dasharray: 2.0,2.0;" x1="257" x2="463" y1="170.4199" y2="170.4199"/><text fill="#000000" font-family="sans-serif" font-size="13" lengthAdjust="spacingAndGlyphs" textLength="153" x="264" y="165.9883">GetCanChangeTopicFlag</text><polygon fill="#A80036" points="457,195.7305,467,199.7305,457,203.7305,461,199.7305" style="stroke: #A80036; stroke-width: 1.0;"/><line style="stroke: #A80036; stroke-width: 1.0; stroke-dasharray: 2.0,2.0;" x1="257" x2="463" y1="199.7305" y2="199.7305"/><text fill="#000000" font-family="sans-serif" font-size="13" lengthAdjust="spacingAndGlyphs" textLength="188" x="264" y="195.2988">GetCanChangeMPasswordFlag</text><line style="stroke: #A80036; stroke-width: 1.0; stroke-dasharray: 2.0,2.0;" x1="257" x2="304" y1="224.3516" y2="224.3516"/><line style="stroke: #A80036; stroke-width: 1.0; stroke-dasharray: 2.0,2.0;" x1="304" x2="304" y1="224.3516" y2="237.3516"/><line style="stroke: #A80036; stroke-width: 1.0; stroke-dasharray: 2.0,2.0;" x1="263" x2="304" y1="237.3516" y2="237.3516"/><polygon fill="#A80036" points="273,233.3516,263,237.3516,273,241.3516,269,237.3516" style="stroke: #A80036; stroke-width: 1.0;"/><text fill="#000000" font-family="sans-serif" font-size="13" lengthAdjust="spacingAndGlyphs" textLength="123" x="269" y="219.6094">StartInstantMeeting</text><line style="stroke: #A80036; stroke-width: 1.0; stroke-dasharray: 2.0,2.0;" x1="262" x2="309" y1="266.6621" y2="266.6621"/><line style="stroke: #A80036; stroke-width: 1.0; stroke-dasharray: 2.0,2.0;" x1="309" x2="309" y1="266.6621" y2="279.6621"/><line style="stroke: #A80036; stroke-width: 1.0; stroke-dasharray: 2.0,2.0;" x1="268" x2="309" y1="279.6621" y2="279.6621"/><polygon fill="#A80036" points="278,275.6621,268,279.6621,278,283.6621,274,279.6621" style="stroke: #A80036; stroke-width: 1.0;"/><text fill="#000000" font-family="sans-serif" font-size="13" lengthAdjust="spacingAndGlyphs" textLength="96" x="274" y="261.9199">InitConnectCtrl</text><polygon fill="#A80036" points="569.5,309.6621,579.5,313.6621,569.5,317.6621,573.5,313.6621" style="stroke: #A80036; stroke-width: 1.0;"/><line style="stroke: #A80036; stroke-width: 1.0; stroke-dasharray: 2.0,2.0;" x1="267" x2="575.5" y1="313.6621" y2="313.6621"/><text fill="#000000" font-family="sans-serif" font-size="13" lengthAdjust="spacingAndGlyphs" textLength="93" x="274" y="309.2305">SetUnicodeSite</text><polygon fill="#A80036" points="569.5,338.9727,579.5,342.9727,569.5,346.9727,573.5,342.9727" style="stroke: #A80036; stroke-width: 1.0;"/><line style="stroke: #A80036; stroke-width: 1.0; stroke-dasharray: 2.0,2.0;" x1="267" x2="575.5" y1="342.9727" y2="342.9727"/><text fill="#000000" font-family="sans-serif" font-size="13" lengthAdjust="spacingAndGlyphs" textLength="152" x="274" y="338.541">SetEnableR2SecurityFlag</text><polygon fill="#A80036" points="701.5,368.2832,711.5,372.2832,701.5,376.2832,705.5,372.2832" style="stroke: #A80036; stroke-width: 1.0;"/><line style="stroke: #A80036; stroke-width: 1.0; stroke-dasharray: 2.0,2.0;" x1="267" x2="707.5" y1="372.2832" y2="372.2832"/><text fill="#000000" font-family="sans-serif" font-size="13" lengthAdjust="spacingAndGlyphs" textLength="54" x="274" y="367.8516">m_hWnd</text><polygon fill="#A80036" points="569.5,397.5938,579.5,401.5938,569.5,405.5938,573.5,401.5938" style="stroke: #A80036; stroke-width: 1.0;"/><line style="stroke: #A80036; stroke-width: 1.0; stroke-dasharray: 2.0,2.0;" x1="262" x2="575.5" y1="401.5938" y2="401.5938"/><text fill="#000000" font-family="sans-serif" font-size="13" lengthAdjust="spacingAndGlyphs" textLength="58" x="269" y="397.1621">SetParent</text><polygon fill="#A80036" points="701.5,426.9043,711.5,430.9043,701.5,434.9043,705.5,430.9043" style="stroke: #A80036; stroke-width: 1.0;"/><line style="stroke: #A80036; stroke-width: 1.0; stroke-dasharray: 2.0,2.0;" x1="257" x2="707.5" y1="430.9043" y2="430.9043"/><text fill="#000000" font-family="sans-serif" font-size="13" lengthAdjust="spacingAndGlyphs" textLength="65" x="264" y="426.4727">StartTimer</text><polygon fill="#A80036" points="569.5,456.2148,579.5,460.2148,569.5,464.2148,573.5,460.2148" style="stroke: #A80036; stroke-width: 1.0;"/><line style="stroke: #A80036; stroke-width: 1.0; stroke-dasharray: 2.0,2.0;" x1="257" x2="575.5" y1="460.2148" y2="460.2148"/><text fill="#000000" font-family="sans-serif" font-size="13" lengthAdjust="spacingAndGlyphs" textLength="75" x="264" y="455.7832">GetTicketEx</text><line style="stroke: #A80036; stroke-width: 1.0; stroke-dasharray: 2.0,2.0;" x1="581.5" x2="623.5" y1="489.8359" y2="489.8359"/><line style="stroke: #A80036; stroke-width: 1.0; stroke-dasharray: 2.0,2.0;" x1="623.5" x2="623.5" y1="489.8359" y2="502.8359"/><line style="stroke: #A80036; stroke-width: 1.0; stroke-dasharray: 2.0,2.0;" x1="582.5" x2="623.5" y1="502.8359" y2="502.8359"/><polygon fill="#A80036" points="592.5,498.8359,582.5,502.8359,592.5,506.8359,588.5,502.8359" style="stroke: #A80036; stroke-width: 1.0;"/><text fill="#000000" font-family="sans-serif" font-size="13" lengthAdjust="spacingAndGlyphs" textLength="99" x="588.5" y="485.0938">AddOneHttpGet</text><polygon fill="#A80036" points="826.5,527.8359,836.5,531.8359,826.5,535.8359,830.5,531.8359" style="stroke: #A80036; stroke-width: 1.0;"/><line style="stroke: #A80036; stroke-width: 1.0; stroke-dasharray: 2.0,2.0;" x1="581.5" x2="832.5" y1="531.8359" y2="531.8359"/><text fill="#000000" font-family="sans-serif" font-size="13" lengthAdjust="spacingAndGlyphs" textLength="33" x="588.5" y="527.4043">Open</text><polygon fill="#FBFB77" filter="url(#f1)" points="540,545.1465,540,570.1465,879,570.1465,879,555.1465,869,545.1465,540,545.1465" style="stroke: #A80036; stroke-width: 1.0;"/><line style="stroke: #A80036; stroke-width: 1.0;" x1="869" x2="869" y1="545.1465" y2="555.1465"/><line style="stroke: #A80036; stroke-width: 1.0;" x1="879" x2="869" y1="555.1465" y2="555.1465"/><text fill="#000000" font-family="sans-serif" font-size="13" lengthAdjust="spacingAndGlyphs" textLength="306" x="550" y="562.7148">https://t1web.qa.webex/WBXService/XMLService</text><polygon fill="#A80036" points="826.5,596.457,836.5,600.457,826.5,604.457,830.5,600.457" style="stroke: #A80036; stroke-width: 1.0;"/><line style="stroke: #A80036; stroke-width: 1.0; stroke-dasharray: 2.0,2.0;" x1="581.5" x2="832.5" y1="600.457" y2="600.457"/><text fill="#000000" font-family="sans-serif" font-size="13" lengthAdjust="spacingAndGlyphs" textLength="58" x="588.5" y="596.0254">SetParent</text><polygon fill="#A80036" points="826.5,625.7676,836.5,629.7676,826.5,633.7676,830.5,629.7676" style="stroke: #A80036; stroke-width: 1.0;"/><line style="stroke: #A80036; stroke-width: 1.0; stroke-dasharray: 2.0,2.0;" x1="581.5" x2="832.5" y1="629.7676" y2="629.7676"/><text fill="#000000" font-family="sans-serif" font-size="13" lengthAdjust="spacingAndGlyphs" textLength="49" x="588.5" y="625.3359">SetType</text><polygon fill="#A80036" points="826.5,655.0781,836.5,659.0781,826.5,663.0781,830.5,659.0781" style="stroke: #A80036; stroke-width: 1.0;"/><line style="stroke: #A80036; stroke-width: 1.0; stroke-dasharray: 2.0,2.0;" x1="581.5" x2="832.5" y1="659.0781" y2="659.0781"/><text fill="#000000" font-family="sans-serif" font-size="13" lengthAdjust="spacingAndGlyphs" textLength="57" x="588.5" y="654.6465">SetParam</text><line style="stroke: #A80036; stroke-width: 1.0; stroke-dasharray: 2.0,2.0;" x1="581.5" x2="623.5" y1="693.6992" y2="693.6992"/><line style="stroke: #A80036; stroke-width: 1.0; stroke-dasharray: 2.0,2.0;" x1="623.5" x2="623.5" y1="693.6992" y2="706.6992"/><line style="stroke: #A80036; stroke-width: 1.0; stroke-dasharray: 2.0,2.0;" x1="576.5" x2="623.5" y1="706.6992" y2="706.6992"/><polygon fill="#A80036" points="586.5,702.6992,576.5,706.6992,586.5,710.6992,582.5,706.6992" style="stroke: #A80036; stroke-width: 1.0;"/><text fill="#000000" font-family="sans-serif" font-size="13" lengthAdjust="spacingAndGlyphs" textLength="74" x="588.5" y="688.957">AddHttpGet</text><polygon fill="#A80036" points="592.5,726.6992,582.5,730.6992,592.5,734.6992,588.5,730.6992" style="stroke: #A80036; stroke-width: 1.0;"/><line style="stroke: #A80036; stroke-width: 1.0; stroke-dasharray: 2.0,2.0;" x1="586.5" x2="837.5" y1="730.6992" y2="730.6992"/><text fill="#000000" font-family="sans-serif" font-size="13" lengthAdjust="spacingAndGlyphs" textLength="66" x="598.5" y="726.2676">OnOpened</text><polygon fill="#FBFB77" filter="url(#f1)" points="508,744.0098,508,769.0098,908,769.0098,908,754.0098,898,744.0098,508,744.0098" style="stroke: #A80036; stroke-width: 1.0;"/><line style="stroke: #A80036; stroke-width: 1.0;" x1="898" x2="898" y1="744.0098" y2="754.0098"/><line style="stroke: #A80036; stroke-width: 1.0;" x1="908" x2="898" y1="754.0098" y2="754.0098"/><text fill="#000000" font-family="sans-serif" font-size="13" lengthAdjust="spacingAndGlyphs" textLength="379" x="514" y="761.5781">return data https://t1web.qa.webex/WBXService/XMLService</text><polygon fill="#A80036" points="701.5,795.3203,711.5,799.3203,701.5,803.3203,705.5,799.3203" style="stroke: #A80036; stroke-width: 1.0;"/><line style="stroke: #A80036; stroke-width: 1.0; stroke-dasharray: 2.0,2.0;" x1="581.5" x2="707.5" y1="799.3203" y2="799.3203"/><text fill="#000000" font-family="sans-serif" font-size="13" lengthAdjust="spacingAndGlyphs" textLength="102" x="588.5" y="794.8887">OnURLResponse</text><polygon fill="#FBFB77" filter="url(#f1)" points="643,812.6309,643,837.6309,780,837.6309,780,822.6309,770,812.6309,643,812.6309" style="stroke: #A80036; stroke-width: 1.0;"/><line style="stroke: #A80036; stroke-width: 1.0;" x1="770" x2="770" y1="812.6309" y2="822.6309"/><line style="stroke: #A80036; stroke-width: 1.0;" x1="780" x2="770" y1="822.6309" y2="822.6309"/><text fill="#000000" font-family="sans-serif" font-size="13" lengthAdjust="spacingAndGlyphs" textLength="116" x="649" y="830.1992">WM_URLRESPONSE</text><polygon fill="#A80036" points="263,863.9414,253,867.9414,263,871.9414,259,867.9414" style="stroke: #A80036; stroke-width: 1.0;"/><line style="stroke: #A80036; stroke-width: 1.0;" x1="257" x2="712.5" y1="867.9414" y2="867.9414"/><text fill="#000000" font-family="sans-serif" font-size="13" lengthAdjust="spacingAndGlyphs" textLength="96" x="269" y="863.5098">OnUrlResponse</text><polygon fill="#A80036" points="569.5,893.252,579.5,897.252,569.5,901.252,573.5,897.252" style="stroke: #A80036; stroke-width: 1.0;"/><line style="stroke: #A80036; stroke-width: 1.0; stroke-dasharray: 2.0,2.0;" x1="252" x2="575.5" y1="897.252" y2="897.252"/><text fill="#000000" font-family="sans-serif" font-size="13" lengthAdjust="spacingAndGlyphs" textLength="44" x="259" y="892.8203">PTStart</text><line style="stroke: #A80036; stroke-width: 1.0; stroke-dasharray: 2.0,2.0;" x1="581.5" x2="623.5" y1="926.873" y2="926.873"/><line style="stroke: #A80036; stroke-width: 1.0; stroke-dasharray: 2.0,2.0;" x1="623.5" x2="623.5" y1="926.873" y2="939.873"/><line style="stroke: #A80036; stroke-width: 1.0; stroke-dasharray: 2.0,2.0;" x1="582.5" x2="623.5" y1="939.873" y2="939.873"/><polygon fill="#A80036" points="592.5,935.873,582.5,939.873,592.5,943.873,588.5,939.873" style="stroke: #A80036; stroke-width: 1.0;"/><text fill="#000000" font-family="sans-serif" font-size="13" lengthAdjust="spacingAndGlyphs" textLength="99" x="588.5" y="922.1309">AddOneHttpGet</text><polygon fill="#A80036" points="826.5,964.873,836.5,968.873,826.5,972.873,830.5,968.873" style="stroke: #A80036; stroke-width: 1.0;"/><line style="stroke: #A80036; stroke-width: 1.0; stroke-dasharray: 2.0,2.0;" x1="581.5" x2="832.5" y1="968.873" y2="968.873"/><text fill="#000000" font-family="sans-serif" font-size="13" lengthAdjust="spacingAndGlyphs" textLength="33" x="588.5" y="964.4414">Open</text><polygon fill="#FBFB77" filter="url(#f1)" points="540,982.1836,540,1007.1836,879,1007.1836,879,992.1836,869,982.1836,540,982.1836" style="stroke: #A80036; stroke-width: 1.0;"/><line style="stroke: #A80036; stroke-width: 1.0;" x1="869" x2="869" y1="982.1836" y2="992.1836"/><line style="stroke: #A80036; stroke-width: 1.0;" x1="879" x2="869" y1="992.1836" y2="992.1836"/><text fill="#000000" font-family="sans-serif" font-size="13" lengthAdjust="spacingAndGlyphs" textLength="241" x="582.5" y="999.752">https://t1web.qa.webex/t1t30/pt.php</text><polygon fill="#A80036" points="592.5,1033.4941,582.5,1037.4941,592.5,1041.4941,588.5,1037.4941" style="stroke: #A80036; stroke-width: 1.0;"/><line style="stroke: #A80036; stroke-width: 1.0; stroke-dasharray: 2.0,2.0;" x1="586.5" x2="837.5" y1="1037.4941" y2="1037.4941"/><text fill="#000000" font-family="sans-serif" font-size="13" lengthAdjust="spacingAndGlyphs" textLength="66" x="598.5" y="1033.0625">OnOpened</text><polygon fill="#FBFB77" filter="url(#f1)" points="540,1050.8047,540,1075.8047,875,1075.8047,875,1060.8047,865,1050.8047,540,1050.8047" style="stroke: #A80036; stroke-width: 1.0;"/><line style="stroke: #A80036; stroke-width: 1.0;" x1="865" x2="865" y1="1050.8047" y2="1060.8047"/><line style="stroke: #A80036; stroke-width: 1.0;" x1="875" x2="865" y1="1060.8047" y2="1060.8047"/><text fill="#000000" font-family="sans-serif" font-size="13" lengthAdjust="spacingAndGlyphs" textLength="314" x="546" y="1068.373">return data https://t1web.qa.webex/t1t30/pt.php</text><polygon fill="#A80036" points="701.5,1102.1152,711.5,1106.1152,701.5,1110.1152,705.5,1106.1152" style="stroke: #A80036; stroke-width: 1.0;"/><line style="stroke: #A80036; stroke-width: 1.0; stroke-dasharray: 2.0,2.0;" x1="581.5" x2="707.5" y1="1106.1152" y2="1106.1152"/><text fill="#000000" font-family="sans-serif" font-size="13" lengthAdjust="spacingAndGlyphs" textLength="102" x="588.5" y="1101.6836">OnURLResponse</text><polygon fill="#FBFB77" filter="url(#f1)" points="531,1119.4258,531,1144.4258,892,1144.4258,892,1129.4258,882,1119.4258,531,1119.4258" style="stroke: #A80036; stroke-width: 1.0;"/><line style="stroke: #A80036; stroke-width: 1.0;" x1="882" x2="882" y1="1119.4258" y2="1129.4258"/><line style="stroke: #A80036; stroke-width: 1.0;" x1="892" x2="882" y1="1129.4258" y2="1129.4258"/><text fill="#000000" font-family="sans-serif" font-size="13" lengthAdjust="spacingAndGlyphs" textLength="340" x="537" y="1136.9941">WM_URLRESPONSE , retrieve meeting data from pt.php</text><polygon fill="#A80036" points="263,1170.7363,253,1174.7363,263,1178.7363,259,1174.7363" style="stroke: #A80036; stroke-width: 1.0;"/><line style="stroke: #A80036; stroke-width: 1.0;" x1="257" x2="712.5" y1="1174.7363" y2="1174.7363"/><text fill="#000000" font-family="sans-serif" font-size="13" lengthAdjust="spacingAndGlyphs" textLength="96" x="269" y="1170.3047">OnUrlResponse</text><line style="stroke: #A80036; stroke-width: 1.0; stroke-dasharray: 2.0,2.0;" x1="252" x2="299" y1="1199.3574" y2="1199.3574"/><line style="stroke: #A80036; stroke-width: 1.0; stroke-dasharray: 2.0,2.0;" x1="299" x2="299" y1="1199.3574" y2="1212.3574"/><line style="stroke: #A80036; stroke-width: 1.0; stroke-dasharray: 2.0,2.0;" x1="258" x2="299" y1="1212.3574" y2="1212.3574"/><polygon fill="#A80036" points="268,1208.3574,258,1212.3574,268,1216.3574,264,1212.3574" style="stroke: #A80036; stroke-width: 1.0;"/><text fill="#000000" font-family="sans-serif" font-size="13" lengthAdjust="spacingAndGlyphs" textLength="112" x="264" y="1194.6152">ParseMeetingData</text><polygon fill="#FBFB77" filter="url(#f1)" points="139,1230.3574,139,1255.3574,361,1255.3574,361,1240.3574,351,1230.3574,139,1230.3574" style="stroke: #A80036; stroke-width: 1.0;"/><line style="stroke: #A80036; stroke-width: 1.0;" x1="351" x2="351" y1="1230.3574" y2="1240.3574"/><line style="stroke: #A80036; stroke-width: 1.0;" x1="361" x2="351" y1="1240.3574" y2="1240.3574"/><text fill="#000000" font-family="sans-serif" font-size="13" lengthAdjust="spacingAndGlyphs" textLength="201" x="145" y="1247.9258">PT_1CLK_GET_STARTMEETDATA</text><polygon fill="#A80036" points="932.5,1281.668,942.5,1285.668,932.5,1289.668,936.5,1285.668" style="stroke: #A80036; stroke-width: 1.0;"/><line style="stroke: #A80036; stroke-width: 1.0; stroke-dasharray: 2.0,2.0;" x1="257" x2="938.5" y1="1285.668" y2="1285.668"/><text fill="#000000" font-family="sans-serif" font-size="13" lengthAdjust="spacingAndGlyphs" textLength="99" x="264" y="1281.2363">LoadFromString</text><polygon fill="#A80036" points="932.5,1310.9785,942.5,1314.9785,932.5,1318.9785,936.5,1314.9785" style="stroke: #A80036; stroke-width: 1.0;"/><line style="stroke: #A80036; stroke-width: 1.0; stroke-dasharray: 2.0,2.0;" x1="257" x2="938.5" y1="1314.9785" y2="1314.9785"/><text fill="#000000" font-family="sans-serif" font-size="13" lengthAdjust="spacingAndGlyphs" textLength="244" x="264" y="1310.5469">GetNode("MeetingData", "MeetingInfo")</text><line style="stroke: #A80036; stroke-width: 1.0; stroke-dasharray: 2.0,2.0;" x1="257" x2="299" y1="1344.5996" y2="1344.5996"/><line style="stroke: #A80036; stroke-width: 1.0; stroke-dasharray: 2.0,2.0;" x1="299" x2="299" y1="1344.5996" y2="1357.5996"/><line style="stroke: #A80036; stroke-width: 1.0; stroke-dasharray: 2.0,2.0;" x1="258" x2="299" y1="1357.5996" y2="1357.5996"/><polygon fill="#A80036" points="268,1353.5996,258,1357.5996,268,1361.5996,264,1357.5996" style="stroke: #A80036; stroke-width: 1.0;"/><text fill="#000000" font-family="sans-serif" font-size="13" lengthAdjust="spacingAndGlyphs" textLength="103" x="264" y="1339.8574">SaveMeetingInfo</text><polygon fill="#FBFB77" filter="url(#f1)" points="180,1370.5996,180,1395.5996,319,1395.5996,319,1380.5996,309,1370.5996,180,1370.5996" style="stroke: #A80036; stroke-width: 1.0;"/><line style="stroke: #A80036; stroke-width: 1.0;" x1="309" x2="309" y1="1370.5996" y2="1380.5996"/><line style="stroke: #A80036; stroke-width: 1.0;" x1="319" x2="309" y1="1380.5996" y2="1380.5996"/><text fill="#000000" font-family="sans-serif" font-size="13" lengthAdjust="spacingAndGlyphs" textLength="118" x="186" y="1388.168">generate webex.ini</text><polygon fill="#A80036" points="1052.5,1421.9102,1062.5,1425.9102,1052.5,1429.9102,1056.5,1425.9102" style="stroke: #A80036; stroke-width: 1.0;"/><line style="stroke: #A80036; stroke-width: 1.0; stroke-dasharray: 2.0,2.0;" x1="257" x2="1058.5" y1="1425.9102" y2="1425.9102"/><text fill="#000000" font-family="sans-serif" font-size="13" lengthAdjust="spacingAndGlyphs" textLength="21" x="264" y="1421.4785">Init</text><polygon fill="#A80036" points="1052.5,1451.2207,1062.5,1455.2207,1052.5,1459.2207,1056.5,1455.2207" style="stroke: #A80036; stroke-width: 1.0;"/><line style="stroke: #A80036; stroke-width: 1.0; stroke-dasharray: 2.0,2.0;" x1="257" x2="1058.5" y1="1455.2207" y2="1455.2207"/><text fill="#000000" font-family="sans-serif" font-size="13" lengthAdjust="spacingAndGlyphs" textLength="29" x="264" y="1450.7891">Start</text><line style="stroke: #A80036; stroke-width: 1.0; stroke-dasharray: 2.0,2.0;" x1="1064.5" x2="1111.5" y1="1479.8418" y2="1479.8418"/><line style="stroke: #A80036; stroke-width: 1.0; stroke-dasharray: 2.0,2.0;" x1="1111.5" x2="1111.5" y1="1479.8418" y2="1492.8418"/><line style="stroke: #A80036; stroke-width: 1.0; stroke-dasharray: 2.0,2.0;" x1="1070.5" x2="1111.5" y1="1492.8418" y2="1492.8418"/><polygon fill="#A80036" points="1080.5,1488.8418,1070.5,1492.8418,1080.5,1496.8418,1076.5,1492.8418" style="stroke: #A80036; stroke-width: 1.0;"/><text fill="#000000" font-family="sans-serif" font-size="13" lengthAdjust="spacingAndGlyphs" textLength="129" x="1076.5" y="1475.0996">DownloadBaseBinary</text><line style="stroke: #A80036; stroke-width: 1.0; stroke-dasharray: 2.0,2.0;" x1="1069.5" x2="1111.5" y1="1527.1523" y2="1527.1523"/><line style="stroke: #A80036; stroke-width: 1.0; stroke-dasharray: 2.0,2.0;" x1="1111.5" x2="1111.5" y1="1527.1523" y2="1540.1523"/><line style="stroke: #A80036; stroke-width: 1.0; stroke-dasharray: 2.0,2.0;" x1="1070.5" x2="1111.5" y1="1540.1523" y2="1540.1523"/><polygon fill="#A80036" points="1080.5,1536.1523,1070.5,1540.1523,1080.5,1544.1523,1076.5,1540.1523" style="stroke: #A80036; stroke-width: 1.0;"/><text fill="#000000" font-family="sans-serif" font-size="13" lengthAdjust="spacingAndGlyphs" textLength="63" x="1076.5" y="1522.4102">UnInitGPC</text><line style="stroke: #A80036; stroke-width: 1.0; stroke-dasharray: 2.0,2.0;" x1="1069.5" x2="1111.5" y1="1569.4629" y2="1569.4629"/><line style="stroke: #A80036; stroke-width: 1.0; stroke-dasharray: 2.0,2.0;" x1="1111.5" x2="1111.5" y1="1569.4629" y2="1582.4629"/><line style="stroke: #A80036; stroke-width: 1.0; stroke-dasharray: 2.0,2.0;" x1="1070.5" x2="1111.5" y1="1582.4629" y2="1582.4629"/><polygon fill="#A80036" points="1080.5,1578.4629,1070.5,1582.4629,1080.5,1586.4629,1076.5,1582.4629" style="stroke: #A80036; stroke-width: 1.0;"/><text fill="#000000" font-family="sans-serif" font-size="13" lengthAdjust="spacingAndGlyphs" textLength="46" x="1076.5" y="1564.7207">InitGPC</text><polygon fill="#FBFB77" filter="url(#f1)" points="1003,1595.4629,1003,1620.4629,1121,1620.4629,1121,1605.4629,1111,1595.4629,1003,1595.4629" style="stroke: #A80036; stroke-width: 1.0;"/><line style="stroke: #A80036; stroke-width: 1.0;" x1="1111" x2="1111" y1="1595.4629" y2="1605.4629"/><line style="stroke: #A80036; stroke-width: 1.0;" x1="1121" x2="1111" y1="1605.4629" y2="1605.4629"/><text fill="#000000" font-family="sans-serif" font-size="13" lengthAdjust="spacingAndGlyphs" textLength="97" x="1009" y="1613.0313">load ieatgpc.dll</text><line style="stroke: #A80036; stroke-width: 1.0; stroke-dasharray: 2.0,2.0;" x1="1069.5" x2="1116.5" y1="1646.084" y2="1646.084"/><line style="stroke: #A80036; stroke-width: 1.0; stroke-dasharray: 2.0,2.0;" x1="1116.5" x2="1116.5" y1="1646.084" y2="1659.084"/><line style="stroke: #A80036; stroke-width: 1.0; stroke-dasharray: 2.0,2.0;" x1="1075.5" x2="1116.5" y1="1659.084" y2="1659.084"/><polygon fill="#A80036" points="1085.5,1655.084,1075.5,1659.084,1085.5,1663.084,1081.5,1659.084" style="stroke: #A80036; stroke-width: 1.0;"/><text fill="#000000" font-family="sans-serif" font-size="13" lengthAdjust="spacingAndGlyphs" textLength="61" x="1081.5" y="1641.3418">GetGpcIni</text><polygon fill="#FBFB77" filter="url(#f1)" points="994,1677.084,994,1702.084,1131,1702.084,1131,1687.084,1121,1677.084,994,1677.084" style="stroke: #A80036; stroke-width: 1.0;"/><line style="stroke: #A80036; stroke-width: 1.0;" x1="1121" x2="1121" y1="1677.084" y2="1687.084"/><line style="stroke: #A80036; stroke-width: 1.0;" x1="1131" x2="1121" y1="1687.084" y2="1687.084"/><text fill="#000000" font-family="sans-serif" font-size="13" lengthAdjust="spacingAndGlyphs" textLength="116" x="1000" y="1694.6523">download gpc.php</text><polygon fill="#A80036" points="849.5,1728.3945,839.5,1732.3945,849.5,1736.3945,845.5,1732.3945" style="stroke: #A80036; stroke-width: 1.0;"/><line style="stroke: #A80036; stroke-width: 1.0; stroke-dasharray: 2.0,2.0;" x1="843.5" x2="1063.5" y1="1732.3945" y2="1732.3945"/><text fill="#000000" font-family="sans-serif" font-size="13" lengthAdjust="spacingAndGlyphs" textLength="33" x="855.5" y="1727.9629">Open</text><polygon fill="#A80036" points="849.5,1757.7051,839.5,1761.7051,849.5,1765.7051,845.5,1761.7051" style="stroke: #A80036; stroke-width: 1.0;"/><line style="stroke: #A80036; stroke-width: 1.0; stroke-dasharray: 2.0,2.0;" x1="843.5" x2="1063.5" y1="1761.7051" y2="1761.7051"/><text fill="#000000" font-family="sans-serif" font-size="13" lengthAdjust="spacingAndGlyphs" textLength="32" x="855.5" y="1757.2734">Write</text><polygon fill="#A80036" points="849.5,1787.0156,839.5,1791.0156,849.5,1795.0156,845.5,1791.0156" style="stroke: #A80036; stroke-width: 1.0;"/><line style="stroke: #A80036; stroke-width: 1.0; stroke-dasharray: 2.0,2.0;" x1="843.5" x2="1058.5" y1="1791.0156" y2="1791.0156"/><text fill="#000000" font-family="sans-serif" font-size="13" lengthAdjust="spacingAndGlyphs" textLength="30" x="855.5" y="1786.584">Read</text><polygon fill="#A80036" points="1198.5,1816.3262,1208.5,1820.3262,1198.5,1824.3262,1202.5,1820.3262" style="stroke: #A80036; stroke-width: 1.0;"/><line style="stroke: #A80036; stroke-width: 1.0; stroke-dasharray: 2.0,2.0;" x1="1064.5" x2="1204.5" y1="1820.3262" y2="1820.3262"/><text fill="#000000" font-family="sans-serif" font-size="13" lengthAdjust="spacingAndGlyphs" textLength="107" x="1071.5" y="1815.8945">GpcStdDownload</text><polygon fill="#FBFB77" filter="url(#f1)" points="1023,1833.6367,1023,1858.6367,1252,1858.6367,1252,1843.6367,1242,1833.6367,1023,1833.6367" style="stroke: #A80036; stroke-width: 1.0;"/><line style="stroke: #A80036; stroke-width: 1.0;" x1="1242" x2="1242" y1="1833.6367" y2="1843.6367"/><line style="stroke: #A80036; stroke-width: 1.0;" x1="1252" x2="1242" y1="1843.6367" y2="1843.6367"/><text fill="#000000" font-family="sans-serif" font-size="13" lengthAdjust="spacingAndGlyphs" textLength="174" x="1044" y="1851.2051">gpc.php, download PT_Base</text><polygon fill="#A80036" points="1075.5,1884.9473,1065.5,1888.9473,1075.5,1892.9473,1071.5,1888.9473" style="stroke: #A80036; stroke-width: 1.0;"/><line style="stroke: #A80036; stroke-width: 1.0; stroke-dasharray: 2.0,2.0;" x1="1069.5" x2="1209.5" y1="1888.9473" y2="1888.9473"/><text fill="#000000" font-family="sans-serif" font-size="13" lengthAdjust="spacingAndGlyphs" textLength="105" x="1081.5" y="1884.5156">OnGpcDownload</text><line style="stroke: #A80036; stroke-width: 1.0; stroke-dasharray: 2.0,2.0;" x1="1064.5" x2="1106.5" y1="1918.5684" y2="1918.5684"/><line style="stroke: #A80036; stroke-width: 1.0; stroke-dasharray: 2.0,2.0;" x1="1106.5" x2="1106.5" y1="1918.5684" y2="1931.5684"/><line style="stroke: #A80036; stroke-width: 1.0; stroke-dasharray: 2.0,2.0;" x1="1065.5" x2="1106.5" y1="1931.5684" y2="1931.5684"/><polygon fill="#A80036" points="1075.5,1927.5684,1065.5,1931.5684,1075.5,1935.5684,1071.5,1931.5684" style="stroke: #A80036; stroke-width: 1.0;"/><text fill="#000000" font-family="sans-serif" font-size="13" lengthAdjust="spacingAndGlyphs" textLength="132" x="1071.5" y="1913.8262">LaunchMeetingClient</text><line style="stroke: #A80036; stroke-width: 1.0; stroke-dasharray: 2.0,2.0;" x1="1064.5" x2="1106.5" y1="1960.8789" y2="1960.8789"/><line style="stroke: #A80036; stroke-width: 1.0; stroke-dasharray: 2.0,2.0;" x1="1106.5" x2="1106.5" y1="1960.8789" y2="1973.8789"/><line style="stroke: #A80036; stroke-width: 1.0; stroke-dasharray: 2.0,2.0;" x1="1065.5" x2="1106.5" y1="1973.8789" y2="1973.8789"/><polygon fill="#A80036" points="1075.5,1969.8789,1065.5,1973.8789,1075.5,1977.8789,1071.5,1973.8789" style="stroke: #A80036; stroke-width: 1.0;"/><text fill="#000000" font-family="sans-serif" font-size="13" lengthAdjust="spacingAndGlyphs" textLength="121" x="1071.5" y="1956.1367">StdStartExeMeeting</text><polygon fill="#FBFB77" filter="url(#f1)" points="1008,1986.8789,1008,2011.8789,1117,2011.8789,1117,1996.8789,1107,1986.8789,1008,1986.8789" style="stroke: #A80036; stroke-width: 1.0;"/><line style="stroke: #A80036; stroke-width: 1.0;" x1="1107" x2="1107" y1="1986.8789" y2="1996.8789"/><line style="stroke: #A80036; stroke-width: 1.0;" x1="1117" x2="1107" y1="1996.8789" y2="1996.8789"/><text fill="#000000" font-family="sans-serif" font-size="13" lengthAdjust="spacingAndGlyphs" textLength="88" x="1014" y="2004.4473">CreateProcess</text></g></svg>