<?xml version="1.0" encoding="UTF-8" standalone="yes"?><svg xmlns="http://www.w3.org/2000/svg" xmlns:xlink="http://www.w3.org/1999/xlink" height="509pt" style="width:1371px;height:509px;" version="1.1" viewBox="0 0 1371 509" width="1371pt"><defs><filter height="300%" id="f1" width="300%" x="-1" y="-1"><feGaussianBlur result="blurOut" stdDeviation="2.0"/><feColorMatrix in="blurOut" result="blurOut2" type="matrix" values="0 0 0 0 0 0 0 0 0 0 0 0 0 0 0 0 0 0 .4 0"/><feOffset dx="4.0" dy="4.0" in="blurOut2" result="blurOut3"/><feBlend in="SourceGraphic" in2="blurOut3" mode="normal"/></filter></defs><g><rect fill="#DDDDDD" height="504.0137" style="stroke: #A80036; stroke-width: 1.0;" width="1111.5" x="54" y="4"/><text fill="#000000" font-family="sans-serif" font-size="13" font-weight="bold" lengthAdjust="spacingAndGlyphs" textLength="72" x="573.75" y="16.5684">WebExMgr</text><rect fill="#DDDDDD" height="504.0137" style="stroke: #A80036; stroke-width: 1.0;" width="203" x="1167.5" y="4"/><text fill="#000000" font-family="sans-serif" font-size="13" font-weight="bold" lengthAdjust="spacingAndGlyphs" textLength="75" x="1231.5" y="16.5684">ServiceMgr</text><line style="stroke: #A80036; stroke-width: 1.0; stroke-dasharray: 5.0,5.0;" x1="139" x2="139" y1="58.7988" y2="469.5254"/><line style="stroke: #A80036; stroke-width: 1.0; stroke-dasharray: 5.0,5.0;" x1="328" x2="328" y1="58.7988" y2="469.5254"/><line style="stroke: #A80036; stroke-width: 1.0; stroke-dasharray: 5.0,5.0;" x1="481" x2="481" y1="58.7988" y2="469.5254"/><line style="stroke: #A80036; stroke-width: 1.0; stroke-dasharray: 5.0,5.0;" x1="617.5" x2="617.5" y1="58.7988" y2="469.5254"/><line style="stroke: #A80036; stroke-width: 1.0; stroke-dasharray: 5.0,5.0;" x1="742.5" x2="742.5" y1="58.7988" y2="469.5254"/><line style="stroke: #A80036; stroke-width: 1.0; stroke-dasharray: 5.0,5.0;" x1="885.5" x2="885.5" y1="58.7988" y2="469.5254"/><line style="stroke: #A80036; stroke-width: 1.0; stroke-dasharray: 5.0,5.0;" x1="1064.5" x2="1064.5" y1="58.7988" y2="469.5254"/><line style="stroke: #A80036; stroke-width: 1.0; stroke-dasharray: 5.0,5.0;" x1="1268.5" x2="1268.5" y1="58.7988" y2="469.5254"/><rect fill="#FEFECE" filter="url(#f1)" height="30.4883" style="stroke: #A80036; stroke-width: 1.5;" width="158" x="58" y="23.3105"/><text fill="#000000" font-family="sans-serif" font-size="14" lengthAdjust="spacingAndGlyphs" textLength="144" x="65" y="43.8457">CTCQuickStartDialog</text><rect fill="#FEFECE" filter="url(#f1)" height="30.4883" style="stroke: #A80036; stroke-width: 1.5;" width="158" x="58" y="468.5254"/><text fill="#000000" font-family="sans-serif" font-size="14" lengthAdjust="spacingAndGlyphs" textLength="144" x="65" y="489.0605">CTCQuickStartDialog</text><rect fill="#FEFECE" filter="url(#f1)" height="30.4883" style="stroke: #A80036; stroke-width: 1.5;" width="193" x="230" y="23.3105"/><text fill="#000000" font-family="sans-serif" font-size="14" lengthAdjust="spacingAndGlyphs" textLength="179" x="237" y="43.8457">CTCQuickStartSessionMgr</text><rect fill="#FEFECE" filter="url(#f1)" height="30.4883" style="stroke: #A80036; stroke-width: 1.5;" width="193" x="230" y="468.5254"/><text fill="#000000" font-family="sans-serif" font-size="14" lengthAdjust="spacingAndGlyphs" textLength="179" x="237" y="489.0605">CTCQuickStartSessionMgr</text><rect fill="#FEFECE" filter="url(#f1)" height="30.4883" style="stroke: #A80036; stroke-width: 1.5;" width="84" x="437" y="23.3105"/><text fill="#000000" font-family="sans-serif" font-size="14" lengthAdjust="spacingAndGlyphs" textLength="70" x="444" y="43.8457">CTCUIMgr</text><rect fill="#FEFECE" filter="url(#f1)" height="30.4883" style="stroke: #A80036; stroke-width: 1.5;" width="84" x="437" y="468.5254"/><text fill="#000000" font-family="sans-serif" font-size="14" lengthAdjust="spacingAndGlyphs" textLength="70" x="444" y="489.0605">CTCUIMgr</text><rect fill="#FEFECE" filter="url(#f1)" height="30.4883" style="stroke: #A80036; stroke-width: 1.5;" width="103" x="564.5" y="23.3105"/><text fill="#000000" font-family="sans-serif" font-size="14" lengthAdjust="spacingAndGlyphs" textLength="89" x="571.5" y="43.8457">CTCBOUIMgr</text><rect fill="#FEFECE" filter="url(#f1)" height="30.4883" style="stroke: #A80036; stroke-width: 1.5;" width="103" x="564.5" y="468.5254"/><text fill="#000000" font-family="sans-serif" font-size="14" lengthAdjust="spacingAndGlyphs" textLength="89" x="571.5" y="489.0605">CTCBOUIMgr</text><rect fill="#FEFECE" filter="url(#f1)" height="30.4883" style="stroke: #A80036; stroke-width: 1.5;" width="118" x="681.5" y="23.3105"/><text fill="#000000" font-family="sans-serif" font-size="14" lengthAdjust="spacingAndGlyphs" textLength="104" x="688.5" y="43.8457">CTCServiceMgr</text><rect fill="#FEFECE" filter="url(#f1)" height="30.4883" style="stroke: #A80036; stroke-width: 1.5;" width="118" x="681.5" y="468.5254"/><text fill="#000000" font-family="sans-serif" font-size="14" lengthAdjust="spacingAndGlyphs" textLength="104" x="688.5" y="489.0605">CTCServiceMgr</text><rect fill="#FEFECE" filter="url(#f1)" height="30.4883" style="stroke: #A80036; stroke-width: 1.5;" width="141" x="813.5" y="23.3105"/><text fill="#000000" font-family="sans-serif" font-size="14" lengthAdjust="spacingAndGlyphs" textLength="127" x="820.5" y="43.8457">CTCBOSessionMgr</text><rect fill="#FEFECE" filter="url(#f1)" height="30.4883" style="stroke: #A80036; stroke-width: 1.5;" width="141" x="813.5" y="468.5254"/><text fill="#000000" font-family="sans-serif" font-size="14" lengthAdjust="spacingAndGlyphs" textLength="127" x="820.5" y="489.0605">CTCBOSessionMgr</text><rect fill="#FEFECE" filter="url(#f1)" height="30.4883" style="stroke: #A80036; stroke-width: 1.5;" width="189" x="968.5" y="23.3105"/><text fill="#000000" font-family="sans-serif" font-size="14" lengthAdjust="spacingAndGlyphs" textLength="175" x="975.5" y="43.8457">CTCAppShareSessionMgr</text><rect fill="#FEFECE" filter="url(#f1)" height="30.4883" style="stroke: #A80036; stroke-width: 1.5;" width="189" x="968.5" y="468.5254"/><text fill="#000000" font-family="sans-serif" font-size="14" lengthAdjust="spacingAndGlyphs" textLength="175" x="975.5" y="489.0605">CTCAppShareSessionMgr</text><rect fill="#FEFECE" filter="url(#f1)" height="30.4883" style="stroke: #A80036; stroke-width: 1.5;" width="191" x="1171.5" y="23.3105"/><text fill="#000000" font-family="sans-serif" font-size="14" lengthAdjust="spacingAndGlyphs" textLength="177" x="1178.5" y="43.8457">CSmAppShareSessionMgr</text><rect fill="#FEFECE" filter="url(#f1)" height="30.4883" style="stroke: #A80036; stroke-width: 1.5;" width="191" x="1171.5" y="468.5254"/><text fill="#000000" font-family="sans-serif" font-size="14" lengthAdjust="spacingAndGlyphs" textLength="177" x="1178.5" y="489.0605">CSmAppShareSessionMgr</text><polygon fill="#A80036" points="127,85.7988,137,89.7988,127,93.7988,131,89.7988" style="stroke: #A80036; stroke-width: 1.0;"/><line style="stroke: #A80036; stroke-width: 1.0;" x1="3" x2="133" y1="89.7988" y2="89.7988"/><text fill="#000000" font-family="sans-serif" font-size="13" lengthAdjust="spacingAndGlyphs" textLength="105" x="10" y="85.3672">OnShareDesktop</text><polygon fill="#FBFB77" filter="url(#f1)" points="8,103.1094,8,143.1094,266,143.1094,266,113.1094,256,103.1094,8,103.1094" style="stroke: #A80036; stroke-width: 1.0;"/><line style="stroke: #A80036; stroke-width: 1.0;" x1="256" x2="256" y1="103.1094" y2="113.1094"/><line style="stroke: #A80036; stroke-width: 1.0;" x1="266" x2="256" y1="113.1094" y2="113.1094"/><text fill="#000000" font-family="sans-serif" font-size="13" lengthAdjust="spacingAndGlyphs" textLength="233" x="14" y="120.6777">"Click Quick Start : Share Application</text><text fill="#000000" font-family="sans-serif" font-size="13" lengthAdjust="spacingAndGlyphs" textLength="148" x="14" y="135.9883">(IDC_SHARE_DESKTOP)"</text><polygon fill="#A80036" points="316.5,169.7305,326.5,173.7305,316.5,177.7305,320.5,173.7305" style="stroke: #A80036; stroke-width: 1.0;"/><line style="stroke: #A80036; stroke-width: 1.0;" x1="139" x2="322.5" y1="173.7305" y2="173.7305"/><text fill="#000000" font-family="sans-serif" font-size="13" lengthAdjust="spacingAndGlyphs" textLength="76" x="146" y="169.2988">OnQSAction</text><polygon fill="#FBFB77" filter="url(#f1)" points="51,187.041,51,212.041,415,212.041,415,197.041,405,187.041,51,187.041" style="stroke: #A80036; stroke-width: 1.0;"/><line style="stroke: #A80036; stroke-width: 1.0;" x1="405" x2="405" y1="187.041" y2="197.041"/><line style="stroke: #A80036; stroke-width: 1.0;" x1="415" x2="405" y1="197.041" y2="197.041"/><text fill="#000000" font-family="sans-serif" font-size="13" lengthAdjust="spacingAndGlyphs" textLength="283" x="85" y="204.6094">SendMessage(NEWQSID_SHAREAPPLICATION)</text><polygon fill="#A80036" points="469,238.3516,479,242.3516,469,246.3516,473,242.3516" style="stroke: #A80036; stroke-width: 1.0;"/><line style="stroke: #A80036; stroke-width: 1.0;" x1="328.5" x2="475" y1="242.3516" y2="242.3516"/><text fill="#000000" font-family="sans-serif" font-size="13" lengthAdjust="spacingAndGlyphs" textLength="113" x="335.5" y="237.9199">OnBOMenuHandle</text><polygon fill="#FBFB77" filter="url(#f1)" points="322,255.6621,322,280.6621,636,280.6621,636,265.6621,626,255.6621,322,255.6621" style="stroke: #A80036; stroke-width: 1.0;"/><line style="stroke: #A80036; stroke-width: 1.0;" x1="626" x2="626" y1="255.6621" y2="265.6621"/><line style="stroke: #A80036; stroke-width: 1.0;" x1="636" x2="626" y1="265.6621" y2="265.6621"/><text fill="#000000" font-family="sans-serif" font-size="13" lengthAdjust="spacingAndGlyphs" textLength="293" x="328" y="273.2305">SendMessage(ID_TC_SHARE_APPLICATION_BO)</text><polygon fill="#A80036" points="606,306.9727,616,310.9727,606,314.9727,610,310.9727" style="stroke: #A80036; stroke-width: 1.0;"/><line style="stroke: #A80036; stroke-width: 1.0;" x1="481" x2="612" y1="310.9727" y2="310.9727"/><text fill="#000000" font-family="sans-serif" font-size="13" lengthAdjust="spacingAndGlyphs" textLength="113" x="488" y="306.541">OnBOMenuHandle</text><line style="stroke: #A80036; stroke-width: 1.0;" x1="618" x2="660" y1="340.5938" y2="340.5938"/><line style="stroke: #A80036; stroke-width: 1.0;" x1="660" x2="660" y1="340.5938" y2="353.5938"/><line style="stroke: #A80036; stroke-width: 1.0;" x1="619" x2="660" y1="353.5938" y2="353.5938"/><polygon fill="#A80036" points="629,349.5938,619,353.5938,629,357.5938,625,353.5938" style="stroke: #A80036; stroke-width: 1.0;"/><text fill="#000000" font-family="sans-serif" font-size="13" lengthAdjust="spacingAndGlyphs" textLength="107" x="625" y="335.8516">OnApplicationBO</text><polygon fill="#A80036" points="874,378.5938,884,382.5938,874,386.5938,878,382.5938" style="stroke: #A80036; stroke-width: 1.0;"/><line style="stroke: #A80036; stroke-width: 1.0;" x1="618" x2="880" y1="382.5938" y2="382.5938"/><text fill="#000000" font-family="sans-serif" font-size="13" lengthAdjust="spacingAndGlyphs" textLength="139" x="625" y="378.1621">CreateBOShareSession</text><polygon fill="#A80036" points="1257,407.9043,1267,411.9043,1257,415.9043,1261,411.9043" style="stroke: #A80036; stroke-width: 1.0;"/><line style="stroke: #A80036; stroke-width: 1.0;" x1="886" x2="1263" y1="411.9043" y2="411.9043"/><text fill="#000000" font-family="sans-serif" font-size="13" lengthAdjust="spacingAndGlyphs" textLength="151" x="893" y="407.4727">ShowRunningAppDialog</text><polygon fill="#FBFB77" filter="url(#f1)" points="970,425.2148,970,450.2148,1363,450.2148,1363,435.2148,1353,425.2148,970,425.2148" style="stroke: #A80036; stroke-width: 1.0;"/><line style="stroke: #A80036; stroke-width: 1.0;" x1="1353" x2="1353" y1="425.2148" y2="435.2148"/><line style="stroke: #A80036; stroke-width: 1.0;" x1="1363" x2="1353" y1="435.2148" y2="435.2148"/><text fill="#000000" font-family="sans-serif" font-size="13" lengthAdjust="spacingAndGlyphs" textLength="363" x="978.5" y="442.7832">CTCAppShareSessionMgr public CSmAppShareSessionMgr</text></g></svg>