<?xml version="1.0" encoding="UTF-8" standalone="no"?>
<!DOCTYPE svg PUBLIC "-//W3C//DTD SVG 1.1//EN"
 "http://www.w3.org/Graphics/SVG/1.1/DTD/svg11.dtd">
<!-- Generated by graphviz version 2.39.20141230.0545 (20141230.0545)
 -->
<!-- Title: Menu Pages: 1 -->
<svg width="332pt" height="493pt"
 viewBox="0.00 0.00 332.00 493.00" xmlns="http://www.w3.org/2000/svg" xmlns:xlink="http://www.w3.org/1999/xlink">
<g id="graph0" class="graph" transform="scale(1 1) rotate(0) translate(4 489)">
<title>Menu</title>
<polygon fill="white" stroke="transparent" points="-4,4 -4,-489 328,-489 328,4 -4,4"/>
<g id="clust1" class="cluster"><title>clusterUI</title>
<polygon fill="#edf8e9" stroke="black" stroke-width="0.5" points="8,-8 316,-8 316,-477 8,-477 8,-8"/>
<polygon fill="none" stroke="black" points="8,-8 8,-477 316,-477 316,-8 8,-8"/>
</g>
<g id="clust2" class="cluster"><title>clusterMenu</title>
<defs>
<linearGradient id="l_0" gradientUnits="userSpaceOnUse" x1="16" y1="-242.5" x2="109" y2="-242.5" >
<stop offset="0" style="stop-color:#7fc97f;stop-opacity:1.;"/>
<stop offset="1" style="stop-color:#fdc086;stop-opacity:1.;"/>
</linearGradient>
</defs>
<polygon fill="url(#l_0)" stroke="black" points="16,-16 16,-469 109,-469 109,-16 16,-16"/>
<text text-anchor="middle" x="62.5" y="-453.8" font-family="Times,serif" font-size="14.00">Menu</text>
</g>
<g id="clust3" class="cluster"><title>clusterCMCUIMgr</title>
<defs>
<linearGradient id="l_1" gradientUnits="userSpaceOnUse" x1="129" y1="-242.5" x2="308" y2="-242.5" >
<stop offset="0" style="stop-color:#7fc97f;stop-opacity:1.;"/>
<stop offset="1" style="stop-color:#fdc086;stop-opacity:1.;"/>
</linearGradient>
</defs>
<polygon fill="url(#l_1)" stroke="black" points="129,-16 129,-469 308,-469 308,-16 129,-16"/>
<text text-anchor="middle" x="218.5" y="-453.8" font-family="Times,serif" font-size="14.00">CMCUIMgr</text>
</g>
<!-- File -->
<g id="node1" class="node"><title>File</title>
<polygon fill="#74c476" stroke="black" points="89.5,-438 35.5,-438 35.5,-402 89.5,-402 89.5,-438"/>
<text text-anchor="middle" x="62.5" y="-416.3" font-family="Times,serif" font-size="14.00">File</text>
</g>
<!-- OnFileMenuSelect -->
<g id="node9" class="node"><title>OnFileMenuSelect</title>
<polygon fill="#74c476" stroke="black" points="279.5,-438 157.5,-438 157.5,-402 279.5,-402 279.5,-438"/>
<text text-anchor="middle" x="218.5" y="-416.3" font-family="Times,serif" font-size="14.00">OnFileMenuSelect</text>
</g>
<!-- File&#45;&gt;OnFileMenuSelect -->
<g id="edge1" class="edge"><title>File&#45;&gt;OnFileMenuSelect</title>
<path fill="none" stroke="black" d="M89.6731,-420C105.654,-420 126.677,-420 147.094,-420"/>
<polygon fill="black" stroke="black" points="147.362,-423.5 157.362,-420 147.362,-416.5 147.362,-423.5"/>
</g>
<!-- Edit -->
<g id="node2" class="node"><title>Edit</title>
<polygon fill="#74c476" stroke="black" points="89.5,-384 35.5,-384 35.5,-348 89.5,-348 89.5,-384"/>
<text text-anchor="middle" x="62.5" y="-362.3" font-family="Times,serif" font-size="14.00">Edit</text>
</g>
<!-- OnEditMenuSelect -->
<g id="node10" class="node"><title>OnEditMenuSelect</title>
<polygon fill="#74c476" stroke="black" points="280.5,-384 156.5,-384 156.5,-348 280.5,-348 280.5,-384"/>
<text text-anchor="middle" x="218.5" y="-362.3" font-family="Times,serif" font-size="14.00">OnEditMenuSelect</text>
</g>
<!-- Edit&#45;&gt;OnEditMenuSelect -->
<g id="edge2" class="edge"><title>Edit&#45;&gt;OnEditMenuSelect</title>
<path fill="none" stroke="black" d="M89.6731,-366C105.43,-366 126.089,-366 146.235,-366"/>
<polygon fill="black" stroke="black" points="146.375,-369.5 156.375,-366 146.375,-362.5 146.375,-369.5"/>
</g>
<!-- Share -->
<g id="node3" class="node"><title>Share</title>
<polygon fill="#74c476" stroke="black" points="89.5,-330 35.5,-330 35.5,-294 89.5,-294 89.5,-330"/>
<text text-anchor="middle" x="62.5" y="-308.3" font-family="Times,serif" font-size="14.00">Share</text>
</g>
<!-- OnShareMenuSelect -->
<g id="node11" class="node"><title>OnShareMenuSelect</title>
<polygon fill="#74c476" stroke="black" points="284.5,-330 152.5,-330 152.5,-294 284.5,-294 284.5,-330"/>
<text text-anchor="middle" x="218.5" y="-308.3" font-family="Times,serif" font-size="14.00">OnShareMenuSelect</text>
</g>
<!-- Share&#45;&gt;OnShareMenuSelect -->
<g id="edge3" class="edge"><title>Share&#45;&gt;OnShareMenuSelect</title>
<path fill="none" stroke="black" d="M89.6731,-312C104.398,-312 123.404,-312 142.272,-312"/>
<polygon fill="black" stroke="black" points="142.406,-315.5 152.406,-312 142.406,-308.5 142.406,-315.5"/>
</g>
<!-- View -->
<g id="node4" class="node"><title>View</title>
<polygon fill="#74c476" stroke="black" points="89.5,-276 35.5,-276 35.5,-240 89.5,-240 89.5,-276"/>
<text text-anchor="middle" x="62.5" y="-254.3" font-family="Times,serif" font-size="14.00">View</text>
</g>
<!-- OnViewMenuSelect -->
<g id="node12" class="node"><title>OnViewMenuSelect</title>
<polygon fill="#74c476" stroke="black" points="284,-276 153,-276 153,-240 284,-240 284,-276"/>
<text text-anchor="middle" x="218.5" y="-254.3" font-family="Times,serif" font-size="14.00">OnViewMenuSelect</text>
</g>
<!-- View&#45;&gt;OnViewMenuSelect -->
<g id="edge4" class="edge"><title>View&#45;&gt;OnViewMenuSelect</title>
<path fill="none" stroke="black" d="M89.6731,-258C104.472,-258 123.595,-258 142.556,-258"/>
<polygon fill="black" stroke="black" points="142.738,-261.5 152.738,-258 142.738,-254.5 142.738,-261.5"/>
</g>
<!-- Audio -->
<g id="node5" class="node"><title>Audio</title>
<polygon fill="#74c476" stroke="black" points="89.5,-222 35.5,-222 35.5,-186 89.5,-186 89.5,-222"/>
<text text-anchor="middle" x="62.5" y="-200.3" font-family="Times,serif" font-size="14.00">Audio</text>
</g>
<!-- OnAudioMenuSelect -->
<g id="node13" class="node"><title>OnAudioMenuSelect</title>
<polygon fill="#74c476" stroke="black" points="286,-222 151,-222 151,-186 286,-186 286,-222"/>
<text text-anchor="middle" x="218.5" y="-200.3" font-family="Times,serif" font-size="14.00">OnAudioMenuSelect</text>
</g>
<!-- Audio&#45;&gt;OnAudioMenuSelect -->
<g id="edge5" class="edge"><title>Audio&#45;&gt;OnAudioMenuSelect</title>
<path fill="none" stroke="black" d="M89.6731,-204C103.962,-204 122.282,-204 140.595,-204"/>
<polygon fill="black" stroke="black" points="140.743,-207.5 150.743,-204 140.743,-200.5 140.743,-207.5"/>
</g>
<!-- Participant -->
<g id="node6" class="node"><title>Participant</title>
<polygon fill="#74c476" stroke="black" points="101,-168 24,-168 24,-132 101,-132 101,-168"/>
<text text-anchor="middle" x="62.5" y="-146.3" font-family="Times,serif" font-size="14.00">Participant</text>
</g>
<!-- OnParticipantNemuSelect -->
<g id="node14" class="node"><title>OnParticipantNemuSelect</title>
<polygon fill="#74c476" stroke="black" points="300,-168 137,-168 137,-132 300,-132 300,-168"/>
<text text-anchor="middle" x="218.5" y="-146.3" font-family="Times,serif" font-size="14.00">OnParticipantNemuSelect</text>
</g>
<!-- Participant&#45;&gt;OnParticipantNemuSelect -->
<g id="edge6" class="edge"><title>Participant&#45;&gt;OnParticipantNemuSelect</title>
<path fill="none" stroke="black" d="M101.062,-150C108.994,-150 117.665,-150 126.586,-150"/>
<polygon fill="black" stroke="black" points="126.74,-153.5 136.74,-150 126.74,-146.5 126.74,-153.5"/>
</g>
<!-- Meeting -->
<g id="node7" class="node"><title>Meeting</title>
<polygon fill="#74c476" stroke="black" points="94,-114 31,-114 31,-78 94,-78 94,-114"/>
<text text-anchor="middle" x="62.5" y="-92.3" font-family="Times,serif" font-size="14.00">Meeting</text>
</g>
<!-- OnMeetingMenuSelect -->
<g id="node15" class="node"><title>OnMeetingMenuSelect</title>
<polygon fill="#74c476" stroke="black" points="292,-114 145,-114 145,-78 292,-78 292,-114"/>
<text text-anchor="middle" x="218.5" y="-92.3" font-family="Times,serif" font-size="14.00">OnMeetingMenuSelect</text>
</g>
<!-- Meeting&#45;&gt;OnMeetingMenuSelect -->
<g id="edge7" class="edge"><title>Meeting&#45;&gt;OnMeetingMenuSelect</title>
<path fill="none" stroke="black" d="M94.0689,-96C106.005,-96 120.221,-96 134.705,-96"/>
<polygon fill="black" stroke="black" points="134.751,-99.5001 144.751,-96 134.751,-92.5001 134.751,-99.5001"/>
</g>
<!-- Help -->
<g id="node8" class="node"><title>Help</title>
<polygon fill="#74c476" stroke="black" points="89.5,-60 35.5,-60 35.5,-24 89.5,-24 89.5,-60"/>
<text text-anchor="middle" x="62.5" y="-38.3" font-family="Times,serif" font-size="14.00">Help</text>
</g>
<!-- OnHelpMenuSelect -->
<g id="node16" class="node"><title>OnHelpMenuSelect</title>
<polygon fill="#74c476" stroke="black" points="282.5,-60 154.5,-60 154.5,-24 282.5,-24 282.5,-60"/>
<text text-anchor="middle" x="218.5" y="-38.3" font-family="Times,serif" font-size="14.00">OnHelpMenuSelect</text>
</g>
<!-- Help&#45;&gt;OnHelpMenuSelect -->
<g id="edge8" class="edge"><title>Help&#45;&gt;OnHelpMenuSelect</title>
<path fill="none" stroke="black" d="M89.6731,-42C104.912,-42 124.736,-42 144.246,-42"/>
<polygon fill="black" stroke="black" points="144.395,-45.5001 154.395,-42 144.395,-38.5001 144.395,-45.5001"/>
</g>
</g>
</svg>
