<?xml version="1.0" encoding="UTF-8" standalone="no"?>
<!DOCTYPE svg PUBLIC "-//W3C//DTD SVG 1.1//EN"
 "http://www.w3.org/Graphics/SVG/1.1/DTD/svg11.dtd">
<!-- Generated by graphviz version 2.39.20141230.0545 (20141230.0545)
 -->
<!-- Title: Menu Pages: 1 -->
<svg width="1265pt" height="198pt"
 viewBox="0.00 0.00 1265.00 198.00" xmlns="http://www.w3.org/2000/svg" xmlns:xlink="http://www.w3.org/1999/xlink">
<g id="graph0" class="graph" transform="scale(1 1) rotate(0) translate(4 194)">
<title>Menu</title>
<polygon fill="white" stroke="transparent" points="-4,4 -4,-194 1261,-194 1261,4 -4,4"/>
<g id="clust1" class="cluster"><title>clusterUI</title>
<polygon fill="#edf8e9" stroke="black" stroke-width="0.5" points="8,-8 1249,-8 1249,-182 8,-182 8,-8"/>
<polygon fill="none" stroke="black" points="8,-8 8,-182 1249,-182 1249,-8 8,-8"/>
</g>
<g id="clust2" class="cluster"><title>clusterMenu</title>
<defs>
<linearGradient id="l_0" gradientUnits="userSpaceOnUse" x1="339" y1="-136.5" x2="946" y2="-136.5" >
<stop offset="0" style="stop-color:#7fc97f;stop-opacity:1.;"/>
<stop offset="1" style="stop-color:#fdc086;stop-opacity:1.;"/>
</linearGradient>
</defs>
<polygon fill="url(#l_0)" stroke="black" points="339,-99 339,-174 946,-174 946,-99 339,-99"/>
<text text-anchor="middle" x="642.5" y="-158.8" font-family="Times,serif" font-size="14.00">Menu</text>
</g>
<g id="clust3" class="cluster"><title>clusterCMCUIMgr</title>
<defs>
<linearGradient id="l_1" gradientUnits="userSpaceOnUse" x1="16" y1="-53.5" x2="1241" y2="-53.5" >
<stop offset="0" style="stop-color:#7fc97f;stop-opacity:1.;"/>
<stop offset="1" style="stop-color:#fdc086;stop-opacity:1.;"/>
</linearGradient>
</defs>
<polygon fill="url(#l_1)" stroke="black" points="16,-16 16,-91 1241,-91 1241,-16 16,-16"/>
<text text-anchor="middle" x="628.5" y="-75.8" font-family="Times,serif" font-size="14.00">CMCUIMgr</text>
</g>
<!-- File -->
<g id="node1" class="node"><title>File</title>
<polygon fill="#74c476" stroke="black" points="938,-143 884,-143 884,-107 938,-107 938,-143"/>
<text text-anchor="middle" x="911" y="-121.3" font-family="Times,serif" font-size="14.00">File</text>
</g>
<!-- OnFileMenuSelect -->
<g id="node9" class="node"><title>OnFileMenuSelect</title>
<polygon fill="#74c476" stroke="black" points="1233,-60 1111,-60 1111,-24 1233,-24 1233,-60"/>
<text text-anchor="middle" x="1172" y="-38.3" font-family="Times,serif" font-size="14.00">OnFileMenuSelect</text>
</g>
<!-- File&#45;&gt;OnFileMenuSelect -->
<g id="edge1" class="edge"><title>File&#45;&gt;OnFileMenuSelect</title>
<path fill="none" stroke="black" d="M938.289,-123.835C976.314,-121.401 1046.78,-113.919 1102,-91 1116.69,-84.9006 1131.36,-75.3116 1143.45,-66.2274"/>
<polygon fill="black" stroke="black" points="1145.62,-68.9692 1151.37,-60.0681 1141.33,-63.4429 1145.62,-68.9692"/>
</g>
<!-- Edit -->
<g id="node2" class="node"><title>Edit</title>
<polygon fill="#74c476" stroke="black" points="866,-143 812,-143 812,-107 866,-107 866,-143"/>
<text text-anchor="middle" x="839" y="-121.3" font-family="Times,serif" font-size="14.00">Edit</text>
</g>
<!-- OnEditMenuSelect -->
<g id="node10" class="node"><title>OnEditMenuSelect</title>
<polygon fill="#74c476" stroke="black" points="1093,-60 969,-60 969,-24 1093,-24 1093,-60"/>
<text text-anchor="middle" x="1031" y="-38.3" font-family="Times,serif" font-size="14.00">OnEditMenuSelect</text>
</g>
<!-- Edit&#45;&gt;OnEditMenuSelect -->
<g id="edge2" class="edge"><title>Edit&#45;&gt;OnEditMenuSelect</title>
<path fill="none" stroke="black" d="M860.397,-106.777C864.968,-103.704 869.949,-100.899 875,-99 910.517,-85.645 924.342,-103.974 960,-91 975.323,-85.4246 990.455,-75.7287 1002.79,-66.4256"/>
<polygon fill="black" stroke="black" points="1005.14,-69.0299 1010.84,-60.1033 1000.82,-63.5228 1005.14,-69.0299"/>
</g>
<!-- Share -->
<g id="node3" class="node"><title>Share</title>
<polygon fill="#74c476" stroke="black" points="794,-143 740,-143 740,-107 794,-107 794,-143"/>
<text text-anchor="middle" x="767" y="-121.3" font-family="Times,serif" font-size="14.00">Share</text>
</g>
<!-- OnShareMenuSelect -->
<g id="node11" class="node"><title>OnShareMenuSelect</title>
<polygon fill="#74c476" stroke="black" points="951,-60 819,-60 819,-24 951,-24 951,-60"/>
<text text-anchor="middle" x="885" y="-38.3" font-family="Times,serif" font-size="14.00">OnShareMenuSelect</text>
</g>
<!-- Share&#45;&gt;OnShareMenuSelect -->
<g id="edge3" class="edge"><title>Share&#45;&gt;OnShareMenuSelect</title>
<path fill="none" stroke="black" d="M792.136,-106.759C795.773,-104.144 799.477,-101.496 803,-99 818.491,-88.0231 835.734,-76.0073 850.395,-65.8499"/>
<polygon fill="black" stroke="black" points="852.464,-68.6743 858.696,-60.106 848.481,-62.918 852.464,-68.6743"/>
</g>
<!-- View -->
<g id="node4" class="node"><title>View</title>
<polygon fill="#74c476" stroke="black" points="722,-143 668,-143 668,-107 722,-107 722,-143"/>
<text text-anchor="middle" x="695" y="-121.3" font-family="Times,serif" font-size="14.00">View</text>
</g>
<!-- OnViewMenuSelect -->
<g id="node12" class="node"><title>OnViewMenuSelect</title>
<polygon fill="#74c476" stroke="black" points="800.5,-60 669.5,-60 669.5,-24 800.5,-24 800.5,-60"/>
<text text-anchor="middle" x="735" y="-38.3" font-family="Times,serif" font-size="14.00">OnViewMenuSelect</text>
</g>
<!-- View&#45;&gt;OnViewMenuSelect -->
<g id="edge4" class="edge"><title>View&#45;&gt;OnViewMenuSelect</title>
<path fill="none" stroke="black" d="M703.679,-106.99C708.989,-95.9722 715.887,-81.6604 721.857,-69.2727"/>
<polygon fill="black" stroke="black" points="725.011,-70.7892 726.199,-60.2612 718.705,-67.7502 725.011,-70.7892"/>
</g>
<!-- Audio -->
<g id="node5" class="node"><title>Audio</title>
<polygon fill="#74c476" stroke="black" points="650,-143 596,-143 596,-107 650,-107 650,-143"/>
<text text-anchor="middle" x="623" y="-121.3" font-family="Times,serif" font-size="14.00">Audio</text>
</g>
<!-- OnAudioMenuSelect -->
<g id="node13" class="node"><title>OnAudioMenuSelect</title>
<polygon fill="#74c476" stroke="black" points="651.5,-60 516.5,-60 516.5,-24 651.5,-24 651.5,-60"/>
<text text-anchor="middle" x="584" y="-38.3" font-family="Times,serif" font-size="14.00">OnAudioMenuSelect</text>
</g>
<!-- Audio&#45;&gt;OnAudioMenuSelect -->
<g id="edge5" class="edge"><title>Audio&#45;&gt;OnAudioMenuSelect</title>
<path fill="none" stroke="black" d="M614.538,-106.99C609.411,-96.0802 602.767,-81.9407 596.986,-69.6376"/>
<polygon fill="black" stroke="black" points="600.001,-67.8234 592.581,-60.2612 593.666,-70.8004 600.001,-67.8234"/>
</g>
<!-- Participant -->
<g id="node6" class="node"><title>Participant</title>
<polygon fill="#74c476" stroke="black" points="577.5,-143 500.5,-143 500.5,-107 577.5,-107 577.5,-143"/>
<text text-anchor="middle" x="539" y="-121.3" font-family="Times,serif" font-size="14.00">Participant</text>
</g>
<!-- OnParticipantNemuSelect -->
<g id="node14" class="node"><title>OnParticipantNemuSelect</title>
<polygon fill="#74c476" stroke="black" points="498.5,-60 335.5,-60 335.5,-24 498.5,-24 498.5,-60"/>
<text text-anchor="middle" x="417" y="-38.3" font-family="Times,serif" font-size="14.00">OnParticipantNemuSelect</text>
</g>
<!-- Participant&#45;&gt;OnParticipantNemuSelect -->
<g id="edge6" class="edge"><title>Participant&#45;&gt;OnParticipantNemuSelect</title>
<path fill="none" stroke="black" d="M512.528,-106.99C494.904,-95 471.546,-79.1091 452.339,-66.0421"/>
<polygon fill="black" stroke="black" points="454.079,-62.9924 443.842,-60.2612 450.141,-68.78 454.079,-62.9924"/>
</g>
<!-- Meeting -->
<g id="node7" class="node"><title>Meeting</title>
<polygon fill="#74c476" stroke="black" points="482.5,-143 419.5,-143 419.5,-107 482.5,-107 482.5,-143"/>
<text text-anchor="middle" x="451" y="-121.3" font-family="Times,serif" font-size="14.00">Meeting</text>
</g>
<!-- OnMeetingMenuSelect -->
<g id="node15" class="node"><title>OnMeetingMenuSelect</title>
<polygon fill="#74c476" stroke="black" points="317.5,-60 170.5,-60 170.5,-24 317.5,-24 317.5,-60"/>
<text text-anchor="middle" x="244" y="-38.3" font-family="Times,serif" font-size="14.00">OnMeetingMenuSelect</text>
</g>
<!-- Meeting&#45;&gt;OnMeetingMenuSelect -->
<g id="edge7" class="edge"><title>Meeting&#45;&gt;OnMeetingMenuSelect</title>
<path fill="none" stroke="black" d="M426.359,-106.797C421.176,-103.723 415.582,-100.912 410,-99 374.522,-86.8459 361.636,-102.683 326,-91 308.512,-85.2671 290.778,-75.2973 276.297,-65.841"/>
<polygon fill="black" stroke="black" points="277.979,-62.7538 267.732,-60.0619 274.063,-68.5564 277.979,-62.7538"/>
</g>
<!-- Help -->
<g id="node8" class="node"><title>Help</title>
<polygon fill="#74c476" stroke="black" points="401,-143 347,-143 347,-107 401,-107 401,-143"/>
<text text-anchor="middle" x="374" y="-121.3" font-family="Times,serif" font-size="14.00">Help</text>
</g>
<!-- OnHelpMenuSelect -->
<g id="node16" class="node"><title>OnHelpMenuSelect</title>
<polygon fill="#74c476" stroke="black" points="152,-60 24,-60 24,-24 152,-24 152,-60"/>
<text text-anchor="middle" x="88" y="-38.3" font-family="Times,serif" font-size="14.00">OnHelpMenuSelect</text>
</g>
<!-- Help&#45;&gt;OnHelpMenuSelect -->
<g id="edge8" class="edge"><title>Help&#45;&gt;OnHelpMenuSelect</title>
<path fill="none" stroke="black" d="M346.992,-122.155C297.54,-116.704 194.455,-104.158 161,-91 145.765,-85.0081 130.483,-75.4365 117.867,-66.3363"/>
<polygon fill="black" stroke="black" points="119.7,-63.3369 109.592,-60.1613 115.513,-68.947 119.7,-63.3369"/>
</g>
</g>
</svg>
