<?xml version="1.0" encoding="UTF-8" standalone="no"?>
<!DOCTYPE svg PUBLIC "-//W3C//DTD SVG 1.1//EN"
 "http://www.w3.org/Graphics/SVG/1.1/DTD/svg11.dtd">
<!-- Generated by graphviz version 2.39.20141230.0545 (20141230.0545)
 -->
<!-- Title: QuickStart Pages: 1 -->
<svg width="354pt" height="565pt"
 viewBox="0.00 0.00 354.00 565.00" xmlns="http://www.w3.org/2000/svg" xmlns:xlink="http://www.w3.org/1999/xlink">
<g id="graph0" class="graph" transform="scale(1 1) rotate(0) translate(4 561)">
<title>QuickStart</title>
<polygon fill="#edf8e9" stroke="transparent" points="-4,4 -4,-561 350,-561 350,4 -4,4"/>
<g id="clust1" class="cluster"><title>clusterUI</title>
<defs>
<linearGradient id="l_0" gradientUnits="userSpaceOnUse" x1="8" y1="-278.5" x2="168" y2="-278.5" >
<stop offset="0" style="stop-color:#7fc97f;stop-opacity:1.;"/>
<stop offset="1" style="stop-color:#fdc086;stop-opacity:1.;"/>
</linearGradient>
</defs>
<polygon fill="url(#l_0)" stroke="black" points="8,-8 8,-549 168,-549 168,-8 8,-8"/>
<text text-anchor="middle" x="88" y="-533.8" font-family="Times,serif" font-size="14.00">Buttons</text>
</g>
<g id="clust2" class="cluster"><title>clusterItems</title>
<defs>
<linearGradient id="l_1" gradientUnits="userSpaceOnUse" x1="36" y1="-438" x2="140" y2="-438" >
<stop offset="0" style="stop-color:#7fc97f;stop-opacity:1.;"/>
<stop offset="1" style="stop-color:#fdc086;stop-opacity:1.;"/>
</linearGradient>
</defs>
<polygon fill="url(#l_1)" stroke="black" points="36,-358 36,-518 140,-518 140,-358 36,-358"/>
</g>
<g id="clust3" class="cluster"><title>clusterAudio</title>
<defs>
<linearGradient id="l_2" gradientUnits="userSpaceOnUse" x1="22" y1="-297" x2="154" y2="-297" >
<stop offset="0" style="stop-color:#7fc97f;stop-opacity:1.;"/>
<stop offset="1" style="stop-color:#fdc086;stop-opacity:1.;"/>
</linearGradient>
</defs>
<polygon fill="url(#l_2)" stroke="black" points="22,-244 22,-350 154,-350 154,-244 22,-244"/>
</g>
<g id="clust4" class="cluster"><title>clusterShare</title>
<defs>
<linearGradient id="l_3" gradientUnits="userSpaceOnUse" x1="21" y1="-183" x2="155" y2="-183" >
<stop offset="0" style="stop-color:#7fc97f;stop-opacity:1.;"/>
<stop offset="1" style="stop-color:#fdc086;stop-opacity:1.;"/>
</linearGradient>
</defs>
<polygon fill="url(#l_3)" stroke="black" points="21,-130 21,-236 155,-236 155,-130 21,-130"/>
</g>
<g id="clust5" class="cluster"><title>cluster_Invite</title>
<defs>
<linearGradient id="l_4" gradientUnits="userSpaceOnUse" x1="16" y1="-69" x2="160" y2="-69" >
<stop offset="0" style="stop-color:#7fc97f;stop-opacity:1.;"/>
<stop offset="1" style="stop-color:#fdc086;stop-opacity:1.;"/>
</linearGradient>
</defs>
<polygon fill="url(#l_4)" stroke="black" points="16,-16 16,-122 160,-122 160,-16 16,-16"/>
</g>
<g id="clust6" class="cluster"><title>cluster_Code_QuickStart</title>
<defs>
<linearGradient id="l_5" gradientUnits="userSpaceOnUse" x1="180" y1="-281.5" x2="340" y2="-281.5" >
<stop offset="0" style="stop-color:#7fc97f;stop-opacity:1.;"/>
<stop offset="1" style="stop-color:#fdc086;stop-opacity:1.;"/>
</linearGradient>
</defs>
<polygon fill="url(#l_5)" stroke="black" points="180,-28 180,-535 340,-535 340,-28 180,-28"/>
<text text-anchor="middle" x="260" y="-519.8" font-family="Times,serif" font-size="14.00">CQuickStartDlgPresenter</text>
</g>
<!-- Record -->
<g id="node1" class="node"><title>Record</title>
<polygon fill="#74c476" stroke="black" points="116.5,-510 59.5,-510 59.5,-474 116.5,-474 116.5,-510"/>
<text text-anchor="middle" x="88" y="-488.3" font-family="Times,serif" font-size="14.00">Record</text>
</g>
<!-- OnRecord -->
<g id="node12" class="node"><title>OnRecord</title>
<polygon fill="#74c476" stroke="black" points="296.5,-504 222.5,-504 222.5,-468 296.5,-468 296.5,-504"/>
<text text-anchor="middle" x="259.5" y="-482.3" font-family="Times,serif" font-size="14.00">OnRecord</text>
</g>
<!-- Record&#45;&gt;OnRecord -->
<g id="edge3" class="edge"><title>Record&#45;&gt;OnRecord</title>
<path fill="none" stroke="black" d="M116.705,-490.996C142.749,-490.085 181.641,-488.724 212.263,-487.653"/>
<polygon fill="black" stroke="black" points="212.429,-491.149 222.3,-487.301 212.184,-484.153 212.429,-491.149"/>
</g>
<!-- Lock Room -->
<g id="node2" class="node"><title>Lock Room</title>
<polygon fill="#74c476" stroke="black" points="129.5,-456 46.5,-456 46.5,-420 129.5,-420 129.5,-456"/>
<text text-anchor="middle" x="88" y="-434.3" font-family="Times,serif" font-size="14.00">Lock Room</text>
</g>
<!-- OnLockRoom -->
<g id="node15" class="node"><title>OnLockRoom</title>
<polygon fill="#74c476" stroke="black" points="308,-450 211,-450 211,-414 308,-414 308,-450"/>
<text text-anchor="middle" x="259.5" y="-428.3" font-family="Times,serif" font-size="14.00">OnLockRoom</text>
</g>
<!-- Lock Room&#45;&gt;OnLockRoom -->
<g id="edge6" class="edge"><title>Lock Room&#45;&gt;OnLockRoom</title>
<path fill="none" stroke="black" d="M129.515,-436.548C150.845,-435.801 177.202,-434.879 200.595,-434.061"/>
<polygon fill="black" stroke="black" points="200.889,-437.553 210.76,-433.705 200.644,-430.557 200.889,-437.553"/>
</g>
<!-- Leave Room -->
<g id="node3" class="node"><title>Leave Room</title>
<polygon fill="#74c476" stroke="black" points="132,-402 44,-402 44,-366 132,-366 132,-402"/>
<text text-anchor="middle" x="88" y="-380.3" font-family="Times,serif" font-size="14.00">Leave Room</text>
</g>
<!-- OnLeaveRoom -->
<g id="node16" class="node"><title>OnLeaveRoom</title>
<polygon fill="#74c476" stroke="black" points="310.5,-396 208.5,-396 208.5,-360 310.5,-360 310.5,-396"/>
<text text-anchor="middle" x="259.5" y="-374.3" font-family="Times,serif" font-size="14.00">OnLeaveRoom</text>
</g>
<!-- Leave Room&#45;&gt;OnLeaveRoom -->
<g id="edge7" class="edge"><title>Leave Room&#45;&gt;OnLeaveRoom</title>
<path fill="none" stroke="black" d="M132.166,-382.455C152.3,-381.75 176.47,-380.905 198.316,-380.141"/>
<polygon fill="black" stroke="black" points="198.625,-383.632 208.496,-379.784 198.38,-376.636 198.625,-383.632"/>
</g>
<!-- Connect to Audio -->
<g id="node4" class="node"><title>Connect to Audio</title>
<polygon fill="#74c476" stroke="black" points="146,-342 30,-342 30,-306 146,-306 146,-342"/>
<text text-anchor="middle" x="88" y="-320.3" font-family="Times,serif" font-size="14.00">Connect to Audio</text>
</g>
<!-- OnAudio -->
<g id="node14" class="node"><title>OnAudio</title>
<polygon fill="#74c476" stroke="black" points="294,-342 225,-342 225,-306 294,-306 294,-342"/>
<text text-anchor="middle" x="259.5" y="-320.3" font-family="Times,serif" font-size="14.00">OnAudio</text>
</g>
<!-- Connect to Audio&#45;&gt;OnAudio -->
<g id="edge5" class="edge"><title>Connect to Audio&#45;&gt;OnAudio</title>
<path fill="none" stroke="black" d="M146.062,-324C168.424,-324 193.6,-324 214.543,-324"/>
<polygon fill="black" stroke="black" points="214.762,-327.5 224.762,-324 214.762,-320.5 214.762,-327.5"/>
</g>
<!-- Audio_More -->
<g id="node5" class="node"><title>Audio_More</title>
<polygon fill="#74c476" stroke="black" points="115,-288 61,-288 61,-252 115,-252 115,-288"/>
<text text-anchor="middle" x="88" y="-266.3" font-family="Times,serif" font-size="14.00">More</text>
</g>
<!-- OnAudioMore -->
<g id="node13" class="node"><title>OnAudioMore</title>
<polygon fill="#74c476" stroke="black" points="309,-288 210,-288 210,-252 309,-252 309,-288"/>
<text text-anchor="middle" x="259.5" y="-266.3" font-family="Times,serif" font-size="14.00">OnAudioMore</text>
</g>
<!-- Audio_More&#45;&gt;OnAudioMore -->
<g id="edge4" class="edge"><title>Audio_More&#45;&gt;OnAudioMore</title>
<path fill="none" stroke="black" d="M115.175,-270C137.803,-270 170.855,-270 199.621,-270"/>
<polygon fill="black" stroke="black" points="199.999,-273.5 209.998,-270 199.998,-266.5 199.999,-273.5"/>
</g>
<!-- Share Application -->
<g id="node6" class="node"><title>Share Application</title>
<polygon fill="#74c476" stroke="black" points="147,-228 29,-228 29,-192 147,-192 147,-228"/>
<text text-anchor="middle" x="88" y="-206.3" font-family="Times,serif" font-size="14.00">Share Application</text>
</g>
<!-- OnShare -->
<g id="node10" class="node"><title>OnShare</title>
<polygon fill="#74c476" stroke="black" points="292,-234 227,-234 227,-198 292,-198 292,-234"/>
<text text-anchor="middle" x="259.5" y="-212.3" font-family="Times,serif" font-size="14.00">OnShare</text>
</g>
<!-- Share Application&#45;&gt;OnShare -->
<g id="edge1" class="edge"><title>Share Application&#45;&gt;OnShare</title>
<path fill="none" stroke="black" d="M147.021,-212.065C169.898,-212.865 195.595,-213.764 216.647,-214.501"/>
<polygon fill="black" stroke="black" points="216.766,-218.007 226.883,-214.859 217.011,-211.011 216.766,-218.007"/>
</g>
<!-- Share_More -->
<g id="node7" class="node"><title>Share_More</title>
<polygon fill="#74c476" stroke="black" points="115,-174 61,-174 61,-138 115,-138 115,-174"/>
<text text-anchor="middle" x="88" y="-152.3" font-family="Times,serif" font-size="14.00">More</text>
</g>
<!-- OnShareMore -->
<g id="node11" class="node"><title>OnShareMore</title>
<polygon fill="#74c476" stroke="black" points="307.5,-180 211.5,-180 211.5,-144 307.5,-144 307.5,-180"/>
<text text-anchor="middle" x="259.5" y="-158.3" font-family="Times,serif" font-size="14.00">OnShareMore</text>
</g>
<!-- Share_More&#45;&gt;OnShareMore -->
<g id="edge2" class="edge"><title>Share_More&#45;&gt;OnShareMore</title>
<path fill="none" stroke="black" d="M115.175,-156.951C138.24,-157.758 172.136,-158.944 201.284,-159.963"/>
<polygon fill="black" stroke="black" points="201.254,-163.464 211.37,-160.316 201.499,-156.469 201.254,-163.464"/>
</g>
<!-- Invite &amp; Remind -->
<g id="node8" class="node"><title>Invite &amp; Remind</title>
<polygon fill="#74c476" stroke="black" points="143.5,-114 32.5,-114 32.5,-78 143.5,-78 143.5,-114"/>
<text text-anchor="middle" x="88" y="-92.3" font-family="Times,serif" font-size="14.00">Invite &amp; Remind</text>
</g>
<!-- OnInviteRemind -->
<g id="node17" class="node"><title>OnInviteRemind</title>
<polygon fill="#74c476" stroke="black" points="315,-126 204,-126 204,-90 315,-90 315,-126"/>
<text text-anchor="middle" x="259.5" y="-104.3" font-family="Times,serif" font-size="14.00">OnInviteRemind</text>
</g>
<!-- Invite &amp; Remind&#45;&gt;OnInviteRemind -->
<g id="edge8" class="edge"><title>Invite &amp; Remind&#45;&gt;OnInviteRemind</title>
<path fill="none" stroke="black" d="M143.681,-99.8961C159.637,-101.013 177.184,-102.24 193.688,-103.395"/>
<polygon fill="black" stroke="black" points="193.585,-106.896 203.805,-104.103 194.074,-99.9134 193.585,-106.896"/>
</g>
<!-- Copy Meeting URL -->
<g id="node9" class="node"><title>Copy Meeting URL</title>
<polygon fill="#74c476" stroke="black" points="152,-60 24,-60 24,-24 152,-24 152,-60"/>
<text text-anchor="middle" x="88" y="-38.3" font-family="Times,serif" font-size="14.00">Copy Meeting URL</text>
</g>
<!-- OnInviteRemindMore -->
<g id="node18" class="node"><title>OnInviteRemindMore</title>
<polygon fill="#74c476" stroke="black" points="330,-72 189,-72 189,-36 330,-36 330,-72"/>
<text text-anchor="middle" x="259.5" y="-50.3" font-family="Times,serif" font-size="14.00">OnInviteRemindMore</text>
</g>
<!-- Copy Meeting URL&#45;&gt;OnInviteRemindMore -->
<g id="edge9" class="edge"><title>Copy Meeting URL&#45;&gt;OnInviteRemindMore</title>
<path fill="none" stroke="black" d="M152.348,-46.5025C160.888,-47.1 169.729,-47.7187 178.505,-48.3327"/>
<polygon fill="black" stroke="black" points="178.533,-51.8432 188.753,-49.0498 179.022,-44.8602 178.533,-51.8432"/>
</g>
</g>
</svg>
