<?xml version="1.0" encoding="UTF-8" standalone="yes"?><svg xmlns="http://www.w3.org/2000/svg" xmlns:xlink="http://www.w3.org/1999/xlink" height="1567pt" style="width:2148px;height:1567px;" version="1.1" viewBox="0 0 2148 1567" width="2148pt"><defs><filter height="300%" id="f1" width="300%" x="-1" y="-1"><feGaussianBlur result="blurOut" stdDeviation="2.0"/><feColorMatrix in="blurOut" result="blurOut2" type="matrix" values="0 0 0 0 0 0 0 0 0 0 0 0 0 0 0 0 0 0 .4 0"/><feOffset dx="4.0" dy="4.0" in="blurOut2" result="blurOut3"/><feBlend in="SourceGraphic" in2="blurOut3" mode="normal"/></filter></defs><g><rect fill="#FFFFFF" filter="url(#f1)" height="614.6582" style="stroke: #A80036; stroke-width: 1.0;" width="10" x="616.5" y="278.041"/><rect fill="#DDDDDD" height="1562.4668" style="stroke: #A80036; stroke-width: 1.0;" width="956.5" x="194" y="4"/><text fill="#000000" font-family="sans-serif" font-size="13" font-weight="bold" lengthAdjust="spacingAndGlyphs" textLength="72" x="636.25" y="16.5684">WebExMgr</text><rect fill="#DDDDDD" height="1562.4668" style="stroke: #A80036; stroke-width: 1.0;" width="898" x="1173.5" y="4"/><text fill="#000000" font-family="sans-serif" font-size="13" font-weight="bold" lengthAdjust="spacingAndGlyphs" textLength="75" x="1585" y="16.5684">ServiceMgr</text><line style="stroke: #A80036; stroke-width: 1.0; stroke-dasharray: 5.0,5.0;" x1="26" x2="26" y1="86.4883" y2="1479.9785"/><line style="stroke: #A80036; stroke-width: 1.0; stroke-dasharray: 5.0,5.0;" x1="78" x2="78" y1="86.4883" y2="1479.9785"/><line style="stroke: #A80036; stroke-width: 1.0; stroke-dasharray: 5.0,5.0;" x1="254" x2="254" y1="86.4883" y2="1479.9785"/><line style="stroke: #A80036; stroke-width: 1.0; stroke-dasharray: 5.0,5.0;" x1="381" x2="381" y1="86.4883" y2="1479.9785"/><line style="stroke: #A80036; stroke-width: 1.0; stroke-dasharray: 5.0,5.0;" x1="496" x2="496" y1="86.4883" y2="1479.9785"/><line style="stroke: #A80036; stroke-width: 1.0; stroke-dasharray: 5.0,5.0;" x1="621" x2="621" y1="86.4883" y2="1479.9785"/><line style="stroke: #A80036; stroke-width: 1.0; stroke-dasharray: 5.0,5.0;" x1="811" x2="811" y1="86.4883" y2="1479.9785"/><line style="stroke: #A80036; stroke-width: 1.0; stroke-dasharray: 5.0,5.0;" x1="944" x2="944" y1="86.4883" y2="1479.9785"/><line style="stroke: #A80036; stroke-width: 1.0; stroke-dasharray: 5.0,5.0;" x1="1083.5" x2="1083.5" y1="86.4883" y2="1479.9785"/><line style="stroke: #A80036; stroke-width: 1.0; stroke-dasharray: 5.0,5.0;" x1="1240.5" x2="1240.5" y1="86.4883" y2="1479.9785"/><line style="stroke: #A80036; stroke-width: 1.0; stroke-dasharray: 5.0,5.0;" x1="1427.5" x2="1427.5" y1="86.4883" y2="1479.9785"/><line style="stroke: #A80036; stroke-width: 1.0; stroke-dasharray: 5.0,5.0;" x1="1599.5" x2="1599.5" y1="86.4883" y2="1479.9785"/><line style="stroke: #A80036; stroke-width: 1.0; stroke-dasharray: 5.0,5.0;" x1="1778.5" x2="1778.5" y1="86.4883" y2="1479.9785"/><line style="stroke: #A80036; stroke-width: 1.0; stroke-dasharray: 5.0,5.0;" x1="1967.5" x2="1967.5" y1="86.4883" y2="1479.9785"/><text fill="#000000" font-family="sans-serif" font-size="14" lengthAdjust="spacingAndGlyphs" textLength="31" x="8" y="83.5352">User</text><ellipse cx="26.5" cy="13" fill="#FEFECE" filter="url(#f1)" rx="8" ry="8" style="stroke: #A80036; stroke-width: 2.0;"/><path d="M26.5,21 L26.5,48 M13.5,29 L39.5,29 M26.5,48 L13.5,63 M26.5,48 L39.5,63 " fill="#FEFECE" filter="url(#f1)" style="stroke: #A80036; stroke-width: 2.0;"/><text fill="#000000" font-family="sans-serif" font-size="14" lengthAdjust="spacingAndGlyphs" textLength="31" x="8" y="1492.5137">User</text><ellipse cx="26.5" cy="1505.4668" fill="#FEFECE" filter="url(#f1)" rx="8" ry="8" style="stroke: #A80036; stroke-width: 2.0;"/><path d="M26.5,1513.4668 L26.5,1540.4668 M13.5,1521.4668 L39.5,1521.4668 M26.5,1540.4668 L13.5,1555.4668 M26.5,1540.4668 L39.5,1555.4668 " fill="#FEFECE" filter="url(#f1)" style="stroke: #A80036; stroke-width: 2.0;"/><text fill="#000000" font-family="sans-serif" font-size="14" lengthAdjust="spacingAndGlyphs" textLength="41" x="55" y="83.5352">atmgr</text><ellipse cx="78.5" cy="13" fill="#FEFECE" filter="url(#f1)" rx="8" ry="8" style="stroke: #A80036; stroke-width: 2.0;"/><path d="M78.5,21 L78.5,48 M65.5,29 L91.5,29 M78.5,48 L65.5,63 M78.5,48 L91.5,63 " fill="#FEFECE" filter="url(#f1)" style="stroke: #A80036; stroke-width: 2.0;"/><text fill="#000000" font-family="sans-serif" font-size="14" lengthAdjust="spacingAndGlyphs" textLength="41" x="55" y="1492.5137">atmgr</text><ellipse cx="78.5" cy="1505.4668" fill="#FEFECE" filter="url(#f1)" rx="8" ry="8" style="stroke: #A80036; stroke-width: 2.0;"/><path d="M78.5,1513.4668 L78.5,1540.4668 M65.5,1521.4668 L91.5,1521.4668 M78.5,1540.4668 L65.5,1555.4668 M78.5,1540.4668 L91.5,1555.4668 " fill="#FEFECE" filter="url(#f1)" style="stroke: #A80036; stroke-width: 2.0;"/><rect fill="#FEFECE" filter="url(#f1)" height="30.4883" style="stroke: #A80036; stroke-width: 1.5;" width="109" x="198" y="51"/><text fill="#000000" font-family="sans-serif" font-size="14" lengthAdjust="spacingAndGlyphs" textLength="95" x="205" y="71.5352">WebExMgrAPI</text><rect fill="#FEFECE" filter="url(#f1)" height="30.4883" style="stroke: #A80036; stroke-width: 1.5;" width="109" x="198" y="1478.9785"/><text fill="#000000" font-family="sans-serif" font-size="14" lengthAdjust="spacingAndGlyphs" textLength="95" x="205" y="1499.5137">WebExMgrAPI</text><rect fill="#FEFECE" filter="url(#f1)" height="30.4883" style="stroke: #A80036; stroke-width: 1.5;" width="116" x="321" y="51"/><text fill="#000000" font-family="sans-serif" font-size="14" lengthAdjust="spacingAndGlyphs" textLength="102" x="328" y="71.5352">CWebExMgrCtl</text><rect fill="#FEFECE" filter="url(#f1)" height="30.4883" style="stroke: #A80036; stroke-width: 1.5;" width="116" x="321" y="1478.9785"/><text fill="#000000" font-family="sans-serif" font-size="14" lengthAdjust="spacingAndGlyphs" textLength="102" x="328" y="1499.5137">CWebExMgrCtl</text><rect fill="#FEFECE" filter="url(#f1)" height="30.4883" style="stroke: #A80036; stroke-width: 1.5;" width="87" x="451" y="51"/><text fill="#000000" font-family="sans-serif" font-size="14" lengthAdjust="spacingAndGlyphs" textLength="73" x="458" y="71.5352">CMCUIMgr</text><rect fill="#FEFECE" filter="url(#f1)" height="30.4883" style="stroke: #A80036; stroke-width: 1.5;" width="87" x="451" y="1478.9785"/><text fill="#000000" font-family="sans-serif" font-size="14" lengthAdjust="spacingAndGlyphs" textLength="73" x="458" y="1499.5137">CMCUIMgr</text><rect fill="#FEFECE" filter="url(#f1)" height="30.4883" style="stroke: #A80036; stroke-width: 1.5;" width="135" x="552" y="51"/><text fill="#000000" font-family="sans-serif" font-size="14" lengthAdjust="spacingAndGlyphs" textLength="121" x="559" y="71.5352">CMCDocshowMgr</text><rect fill="#FEFECE" filter="url(#f1)" height="30.4883" style="stroke: #A80036; stroke-width: 1.5;" width="135" x="552" y="1478.9785"/><text fill="#000000" font-family="sans-serif" font-size="14" lengthAdjust="spacingAndGlyphs" textLength="121" x="559" y="1499.5137">CMCDocshowMgr</text><rect fill="#FEFECE" filter="url(#f1)" height="30.4883" style="stroke: #A80036; stroke-width: 1.5;" width="171" x="724" y="51"/><text fill="#000000" font-family="sans-serif" font-size="14" lengthAdjust="spacingAndGlyphs" textLength="157" x="731" y="71.5352">CMCDocshowXmlParse</text><rect fill="#FEFECE" filter="url(#f1)" height="30.4883" style="stroke: #A80036; stroke-width: 1.5;" width="171" x="724" y="1478.9785"/><text fill="#000000" font-family="sans-serif" font-size="14" lengthAdjust="spacingAndGlyphs" textLength="157" x="731" y="1499.5137">CMCDocshowXmlParse</text><rect fill="#FEFECE" filter="url(#f1)" height="30.4883" style="stroke: #A80036; stroke-width: 1.5;" width="66" x="909" y="51"/><text fill="#000000" font-family="sans-serif" font-size="14" lengthAdjust="spacingAndGlyphs" textLength="52" x="916" y="71.5352">CAbout</text><rect fill="#FEFECE" filter="url(#f1)" height="30.4883" style="stroke: #A80036; stroke-width: 1.5;" width="66" x="909" y="1478.9785"/><text fill="#000000" font-family="sans-serif" font-size="14" lengthAdjust="spacingAndGlyphs" textLength="52" x="916" y="1499.5137">CAbout</text><rect fill="#FEFECE" filter="url(#f1)" height="30.4883" style="stroke: #A80036; stroke-width: 1.5;" width="121" x="1021.5" y="51"/><text fill="#000000" font-family="sans-serif" font-size="14" lengthAdjust="spacingAndGlyphs" textLength="107" x="1028.5" y="71.5352">CMCServiceMgr</text><rect fill="#FEFECE" filter="url(#f1)" height="30.4883" style="stroke: #A80036; stroke-width: 1.5;" width="121" x="1021.5" y="1478.9785"/><text fill="#000000" font-family="sans-serif" font-size="14" lengthAdjust="spacingAndGlyphs" textLength="107" x="1028.5" y="1499.5137">CMCServiceMgr</text><rect fill="#FEFECE" filter="url(#f1)" height="30.4883" style="stroke: #A80036; stroke-width: 1.5;" width="123" x="1177.5" y="51"/><text fill="#000000" font-family="sans-serif" font-size="14" lengthAdjust="spacingAndGlyphs" textLength="109" x="1184.5" y="71.5352">CPfwServiceMgr</text><rect fill="#FEFECE" filter="url(#f1)" height="30.4883" style="stroke: #A80036; stroke-width: 1.5;" width="123" x="1177.5" y="1478.9785"/><text fill="#000000" font-family="sans-serif" font-size="14" lengthAdjust="spacingAndGlyphs" textLength="109" x="1184.5" y="1499.5137">CPfwServiceMgr</text><rect fill="#FEFECE" filter="url(#f1)" height="30.4883" style="stroke: #A80036; stroke-width: 1.5;" width="139" x="1356.5" y="51"/><text fill="#000000" font-family="sans-serif" font-size="14" lengthAdjust="spacingAndGlyphs" textLength="125" x="1363.5" y="71.5352">CConfContextMgr</text><rect fill="#FEFECE" filter="url(#f1)" height="30.4883" style="stroke: #A80036; stroke-width: 1.5;" width="139" x="1356.5" y="1478.9785"/><text fill="#000000" font-family="sans-serif" font-size="14" lengthAdjust="spacingAndGlyphs" textLength="125" x="1363.5" y="1499.5137">CConfContextMgr</text><rect fill="#FEFECE" filter="url(#f1)" height="30.4883" style="stroke: #A80036; stroke-width: 1.5;" width="176" x="1509.5" y="51"/><text fill="#000000" font-family="sans-serif" font-size="14" lengthAdjust="spacingAndGlyphs" textLength="162" x="1516.5" y="71.5352">CContextMgrParamMgr</text><rect fill="#FEFECE" filter="url(#f1)" height="30.4883" style="stroke: #A80036; stroke-width: 1.5;" width="176" x="1509.5" y="1478.9785"/><text fill="#000000" font-family="sans-serif" font-size="14" lengthAdjust="spacingAndGlyphs" textLength="162" x="1516.5" y="1499.5137">CContextMgrParamMgr</text><rect fill="#FEFECE" filter="url(#f1)" height="30.4883" style="stroke: #A80036; stroke-width: 1.5;" width="155" x="1699.5" y="51"/><text fill="#000000" font-family="sans-serif" font-size="14" lengthAdjust="spacingAndGlyphs" textLength="141" x="1706.5" y="71.5352">CConfContextParam</text><rect fill="#FEFECE" filter="url(#f1)" height="30.4883" style="stroke: #A80036; stroke-width: 1.5;" width="155" x="1699.5" y="1478.9785"/><text fill="#000000" font-family="sans-serif" font-size="14" lengthAdjust="spacingAndGlyphs" textLength="141" x="1706.5" y="1499.5137">CConfContextParam</text><rect fill="#FEFECE" filter="url(#f1)" height="30.4883" style="stroke: #A80036; stroke-width: 1.5;" width="195" x="1868.5" y="51"/><text fill="#000000" font-family="sans-serif" font-size="14" lengthAdjust="spacingAndGlyphs" textLength="181" x="1875.5" y="71.5352">CCiscoWebExUpdateProxy</text><rect fill="#FEFECE" filter="url(#f1)" height="30.4883" style="stroke: #A80036; stroke-width: 1.5;" width="195" x="1868.5" y="1478.9785"/><text fill="#000000" font-family="sans-serif" font-size="14" lengthAdjust="spacingAndGlyphs" textLength="181" x="1875.5" y="1499.5137">CCiscoWebExUpdateProxy</text><rect fill="#FFFFFF" filter="url(#f1)" height="614.6582" style="stroke: #A80036; stroke-width: 1.0;" width="10" x="616.5" y="278.041"/><rect fill="#EEEEEE" filter="url(#f1)" height="3" style="stroke: #EEEEEE; stroke-width: 1.0;" width="2140" x="3" y="117.1436"/><line style="stroke: #000000; stroke-width: 1.0;" x1="3" x2="2143" y1="117.1436" y2="117.1436"/><line style="stroke: #000000; stroke-width: 1.0;" x1="3" x2="2143" y1="120.1436" y2="120.1436"/><rect fill="#EEEEEE" filter="url(#f1)" height="23.3105" style="stroke: #000000; stroke-width: 2.0;" width="314" x="916" y="106.4883"/><text fill="#000000" font-family="sans-serif" font-size="13" font-weight="bold" lengthAdjust="spacingAndGlyphs" textLength="296" x="922" y="123.0566">Docshow clientparam Update Client Version</text><polygon fill="#A80036" points="242.5,156.7988,252.5,160.7988,242.5,164.7988,246.5,160.7988" style="stroke: #A80036; stroke-width: 1.0;"/><line style="stroke: #A80036; stroke-width: 1.0;" x1="78.5" x2="248.5" y1="160.7988" y2="160.7988"/><text fill="#000000" font-family="sans-serif" font-size="13" lengthAdjust="spacingAndGlyphs" textLength="152" x="85.5" y="156.3672">NameValue(clientparam)</text><polygon fill="#A80036" points="369,186.1094,379,190.1094,369,194.1094,373,190.1094" style="stroke: #A80036; stroke-width: 1.0;"/><line style="stroke: #A80036; stroke-width: 1.0;" x1="254.5" x2="375" y1="190.1094" y2="190.1094"/><text fill="#000000" font-family="sans-serif" font-size="13" lengthAdjust="spacingAndGlyphs" textLength="97" x="261.5" y="185.6777">MC_NameValue</text><polygon fill="#A80036" points="609.5,215.4199,619.5,219.4199,609.5,223.4199,613.5,219.4199" style="stroke: #A80036; stroke-width: 1.0;"/><line style="stroke: #A80036; stroke-width: 1.0;" x1="381" x2="615.5" y1="219.4199" y2="219.4199"/><text fill="#000000" font-family="sans-serif" font-size="13" lengthAdjust="spacingAndGlyphs" textLength="138" x="388" y="214.9883">SetDocshowXmlString</text><polygon fill="#A80036" points="799.5,244.7305,809.5,248.7305,799.5,252.7305,803.5,248.7305" style="stroke: #A80036; stroke-width: 1.0;"/><line style="stroke: #A80036; stroke-width: 1.0;" x1="621.5" x2="805.5" y1="248.7305" y2="248.7305"/><text fill="#000000" font-family="sans-serif" font-size="13" lengthAdjust="spacingAndGlyphs" textLength="138" x="628.5" y="244.2988">SetDocshowXmlString</text><polygon fill="#A80036" points="604.5,274.041,614.5,278.041,604.5,282.041,608.5,278.041" style="stroke: #A80036; stroke-width: 1.0;"/><line style="stroke: #A80036; stroke-width: 1.0;" x1="381" x2="610.5" y1="278.041" y2="278.041"/><text fill="#000000" font-family="sans-serif" font-size="13" lengthAdjust="spacingAndGlyphs" textLength="117" x="388" y="273.6094">ProcessParameters</text><line style="stroke: #A80036; stroke-width: 1.0;" x1="626.5" x2="668.5" y1="307.6621" y2="307.6621"/><line style="stroke: #A80036; stroke-width: 1.0;" x1="668.5" x2="668.5" y1="307.6621" y2="320.6621"/><line style="stroke: #A80036; stroke-width: 1.0;" x1="627.5" x2="668.5" y1="320.6621" y2="320.6621"/><polygon fill="#A80036" points="637.5,316.6621,627.5,320.6621,637.5,324.6621,633.5,320.6621" style="stroke: #A80036; stroke-width: 1.0;"/><text fill="#000000" font-family="sans-serif" font-size="13" lengthAdjust="spacingAndGlyphs" textLength="117" x="633.5" y="302.9199">SetHardcodeParam</text><line style="stroke: #A80036; stroke-width: 1.0;" x1="626.5" x2="668.5" y1="349.9727" y2="349.9727"/><line style="stroke: #A80036; stroke-width: 1.0;" x1="668.5" x2="668.5" y1="349.9727" y2="362.9727"/><line style="stroke: #A80036; stroke-width: 1.0;" x1="627.5" x2="668.5" y1="362.9727" y2="362.9727"/><polygon fill="#A80036" points="637.5,358.9727,627.5,362.9727,637.5,366.9727,633.5,362.9727" style="stroke: #A80036; stroke-width: 1.0;"/><text fill="#000000" font-family="sans-serif" font-size="13" lengthAdjust="spacingAndGlyphs" textLength="109" x="633.5" y="345.2305">ProcessSiteParam</text><polygon fill="#A80036" points="1416,387.9727,1426,391.9727,1416,395.9727,1420,391.9727" style="stroke: #A80036; stroke-width: 1.0;"/><line style="stroke: #A80036; stroke-width: 1.0;" x1="626.5" x2="1422" y1="391.9727" y2="391.9727"/><text fill="#000000" font-family="sans-serif" font-size="13" lengthAdjust="spacingAndGlyphs" textLength="323" x="633.5" y="387.541">SetAboutDlgClientVersion($AboutDlgClientVersion)</text><line style="stroke: #A80036; stroke-width: 1.0;" x1="626.5" x2="668.5" y1="421.5938" y2="421.5938"/><line style="stroke: #A80036; stroke-width: 1.0;" x1="668.5" x2="668.5" y1="421.5938" y2="434.5938"/><line style="stroke: #A80036; stroke-width: 1.0;" x1="627.5" x2="668.5" y1="434.5938" y2="434.5938"/><polygon fill="#A80036" points="637.5,430.5938,627.5,434.5938,637.5,438.5938,633.5,434.5938" style="stroke: #A80036; stroke-width: 1.0;"/><text fill="#000000" font-family="sans-serif" font-size="13" lengthAdjust="spacingAndGlyphs" textLength="136" x="633.5" y="416.8516">ProcessMeetingParam</text><line style="stroke: #A80036; stroke-width: 1.0;" x1="626.5" x2="668.5" y1="463.9043" y2="463.9043"/><line style="stroke: #A80036; stroke-width: 1.0;" x1="668.5" x2="668.5" y1="463.9043" y2="476.9043"/><line style="stroke: #A80036; stroke-width: 1.0;" x1="627.5" x2="668.5" y1="476.9043" y2="476.9043"/><polygon fill="#A80036" points="637.5,472.9043,627.5,476.9043,637.5,480.9043,633.5,476.9043" style="stroke: #A80036; stroke-width: 1.0;"/><text fill="#000000" font-family="sans-serif" font-size="13" lengthAdjust="spacingAndGlyphs" textLength="103" x="633.5" y="459.1621">ProcessPDParam</text><line style="stroke: #A80036; stroke-width: 1.0;" x1="626.5" x2="668.5" y1="506.2148" y2="506.2148"/><line style="stroke: #A80036; stroke-width: 1.0;" x1="668.5" x2="668.5" y1="506.2148" y2="519.2148"/><line style="stroke: #A80036; stroke-width: 1.0;" x1="627.5" x2="668.5" y1="519.2148" y2="519.2148"/><polygon fill="#A80036" points="637.5,515.2148,627.5,519.2148,637.5,523.2148,633.5,519.2148" style="stroke: #A80036; stroke-width: 1.0;"/><text fill="#000000" font-family="sans-serif" font-size="13" lengthAdjust="spacingAndGlyphs" textLength="102" x="633.5" y="501.4727">ProcessASParam</text><line style="stroke: #A80036; stroke-width: 1.0;" x1="626.5" x2="668.5" y1="548.5254" y2="548.5254"/><line style="stroke: #A80036; stroke-width: 1.0;" x1="668.5" x2="668.5" y1="548.5254" y2="561.5254"/><line style="stroke: #A80036; stroke-width: 1.0;" x1="627.5" x2="668.5" y1="561.5254" y2="561.5254"/><polygon fill="#A80036" points="637.5,557.5254,627.5,561.5254,637.5,565.5254,633.5,561.5254" style="stroke: #A80036; stroke-width: 1.0;"/><text fill="#000000" font-family="sans-serif" font-size="13" lengthAdjust="spacingAndGlyphs" textLength="114" x="633.5" y="543.7832">ProcessUserParam</text><line style="stroke: #A80036; stroke-width: 1.0;" x1="626.5" x2="668.5" y1="590.8359" y2="590.8359"/><line style="stroke: #A80036; stroke-width: 1.0;" x1="668.5" x2="668.5" y1="590.8359" y2="603.8359"/><line style="stroke: #A80036; stroke-width: 1.0;" x1="627.5" x2="668.5" y1="603.8359" y2="603.8359"/><polygon fill="#A80036" points="637.5,599.8359,627.5,603.8359,637.5,607.8359,633.5,603.8359" style="stroke: #A80036; stroke-width: 1.0;"/><text fill="#000000" font-family="sans-serif" font-size="13" lengthAdjust="spacingAndGlyphs" textLength="166" x="633.5" y="586.0938">ProcessMeetingTypeParam</text><line style="stroke: #A80036; stroke-width: 1.0;" x1="626.5" x2="668.5" y1="633.1465" y2="633.1465"/><line style="stroke: #A80036; stroke-width: 1.0;" x1="668.5" x2="668.5" y1="633.1465" y2="646.1465"/><line style="stroke: #A80036; stroke-width: 1.0;" x1="627.5" x2="668.5" y1="646.1465" y2="646.1465"/><polygon fill="#A80036" points="637.5,642.1465,627.5,646.1465,637.5,650.1465,633.5,646.1465" style="stroke: #A80036; stroke-width: 1.0;"/><text fill="#000000" font-family="sans-serif" font-size="13" lengthAdjust="spacingAndGlyphs" textLength="151" x="633.5" y="628.4043">ProcessTelephonyParam</text><line style="stroke: #A80036; stroke-width: 1.0;" x1="626.5" x2="668.5" y1="675.457" y2="675.457"/><line style="stroke: #A80036; stroke-width: 1.0;" x1="668.5" x2="668.5" y1="675.457" y2="688.457"/><line style="stroke: #A80036; stroke-width: 1.0;" x1="627.5" x2="668.5" y1="688.457" y2="688.457"/><polygon fill="#A80036" points="637.5,684.457,627.5,688.457,637.5,692.457,633.5,688.457" style="stroke: #A80036; stroke-width: 1.0;"/><text fill="#000000" font-family="sans-serif" font-size="13" lengthAdjust="spacingAndGlyphs" textLength="158" x="633.5" y="670.7148">ProcessAudioVideoParam</text><line style="stroke: #A80036; stroke-width: 1.0;" x1="626.5" x2="668.5" y1="717.7676" y2="717.7676"/><line style="stroke: #A80036; stroke-width: 1.0;" x1="668.5" x2="668.5" y1="717.7676" y2="730.7676"/><line style="stroke: #A80036; stroke-width: 1.0;" x1="627.5" x2="668.5" y1="730.7676" y2="730.7676"/><polygon fill="#A80036" points="637.5,726.7676,627.5,730.7676,637.5,734.7676,633.5,730.7676" style="stroke: #A80036; stroke-width: 1.0;"/><text fill="#000000" font-family="sans-serif" font-size="13" lengthAdjust="spacingAndGlyphs" textLength="111" x="633.5" y="713.0254">ProcessNBRParam</text><line style="stroke: #A80036; stroke-width: 1.0;" x1="626.5" x2="668.5" y1="760.0781" y2="760.0781"/><line style="stroke: #A80036; stroke-width: 1.0;" x1="668.5" x2="668.5" y1="760.0781" y2="773.0781"/><line style="stroke: #A80036; stroke-width: 1.0;" x1="627.5" x2="668.5" y1="773.0781" y2="773.0781"/><polygon fill="#A80036" points="637.5,769.0781,627.5,773.0781,637.5,777.0781,633.5,773.0781" style="stroke: #A80036; stroke-width: 1.0;"/><text fill="#000000" font-family="sans-serif" font-size="13" lengthAdjust="spacingAndGlyphs" textLength="136" x="633.5" y="755.3359">ProcessSecurityParam</text><line style="stroke: #A80036; stroke-width: 1.0;" x1="626.5" x2="668.5" y1="802.3887" y2="802.3887"/><line style="stroke: #A80036; stroke-width: 1.0;" x1="668.5" x2="668.5" y1="802.3887" y2="815.3887"/><line style="stroke: #A80036; stroke-width: 1.0;" x1="627.5" x2="668.5" y1="815.3887" y2="815.3887"/><polygon fill="#A80036" points="637.5,811.3887,627.5,815.3887,637.5,819.3887,633.5,815.3887" style="stroke: #A80036; stroke-width: 1.0;"/><text fill="#000000" font-family="sans-serif" font-size="13" lengthAdjust="spacingAndGlyphs" textLength="117" x="633.5" y="797.6465">ProcessURLsParam</text><line style="stroke: #A80036; stroke-width: 1.0;" x1="626.5" x2="668.5" y1="844.6992" y2="844.6992"/><line style="stroke: #A80036; stroke-width: 1.0;" x1="668.5" x2="668.5" y1="844.6992" y2="857.6992"/><line style="stroke: #A80036; stroke-width: 1.0;" x1="627.5" x2="668.5" y1="857.6992" y2="857.6992"/><polygon fill="#A80036" points="637.5,853.6992,627.5,857.6992,637.5,861.6992,633.5,857.6992" style="stroke: #A80036; stroke-width: 1.0;"/><text fill="#000000" font-family="sans-serif" font-size="13" lengthAdjust="spacingAndGlyphs" textLength="140" x="633.5" y="839.957">ProcessWebACDParam</text><line style="stroke: #A80036; stroke-width: 1.0;" x1="626.5" x2="668.5" y1="892.0098" y2="892.0098"/><line style="stroke: #A80036; stroke-width: 1.0;" x1="668.5" x2="668.5" y1="892.0098" y2="905.0098"/><line style="stroke: #A80036; stroke-width: 1.0;" x1="621.5" x2="668.5" y1="905.0098" y2="905.0098"/><polygon fill="#A80036" points="631.5,901.0098,621.5,905.0098,631.5,909.0098,627.5,905.0098" style="stroke: #A80036; stroke-width: 1.0;"/><text fill="#000000" font-family="sans-serif" font-size="13" lengthAdjust="spacingAndGlyphs" textLength="137" x="633.5" y="887.2676">ProcessNewJMAParam</text><rect fill="#EEEEEE" filter="url(#f1)" height="3" style="stroke: #EEEEEE; stroke-width: 1.0;" width="2140" x="3" y="928.665"/><line style="stroke: #000000; stroke-width: 1.0;" x1="3" x2="2143" y1="928.665" y2="928.665"/><line style="stroke: #000000; stroke-width: 1.0;" x1="3" x2="2143" y1="931.665" y2="931.665"/><rect fill="#EEEEEE" filter="url(#f1)" height="23.3105" style="stroke: #000000; stroke-width: 2.0;" width="310" x="918" y="918.0098"/><text fill="#000000" font-family="sans-serif" font-size="13" font-weight="bold" lengthAdjust="spacingAndGlyphs" textLength="292" x="924" y="934.5781">Update Management update Client Version</text><line style="stroke: #A80036; stroke-width: 1.0;" x1="1241" x2="1283" y1="972.6309" y2="972.6309"/><line style="stroke: #A80036; stroke-width: 1.0;" x1="1283" x2="1283" y1="972.6309" y2="985.6309"/><line style="stroke: #A80036; stroke-width: 1.0;" x1="1242" x2="1283" y1="985.6309" y2="985.6309"/><polygon fill="#A80036" points="1252,981.6309,1242,985.6309,1252,989.6309,1248,985.6309" style="stroke: #A80036; stroke-width: 1.0;"/><text fill="#000000" font-family="sans-serif" font-size="13" lengthAdjust="spacingAndGlyphs" textLength="67" x="1248" y="967.8887">InitializeUI</text><polygon fill="#A80036" points="1956,1010.6309,1966,1014.6309,1956,1018.6309,1960,1014.6309" style="stroke: #A80036; stroke-width: 1.0;"/><line style="stroke: #A80036; stroke-width: 1.0;" x1="1241" x2="1962" y1="1014.6309" y2="1014.6309"/><text fill="#000000" font-family="sans-serif" font-size="13" lengthAdjust="spacingAndGlyphs" textLength="21" x="1248" y="1010.1992">Init</text><line style="stroke: #A80036; stroke-width: 1.0;" x1="1968" x2="2010" y1="1044.252" y2="1044.252"/><line style="stroke: #A80036; stroke-width: 1.0;" x1="2010" x2="2010" y1="1044.252" y2="1057.252"/><line style="stroke: #A80036; stroke-width: 1.0;" x1="1969" x2="2010" y1="1057.252" y2="1057.252"/><polygon fill="#A80036" points="1979,1053.252,1969,1057.252,1979,1061.252,1975,1057.252" style="stroke: #A80036; stroke-width: 1.0;"/><text fill="#000000" font-family="sans-serif" font-size="13" lengthAdjust="spacingAndGlyphs" textLength="161" x="1975" y="1039.5098">ReadCurrentClientVersion</text><polygon fill="#A80036" points="1416,1082.252,1426,1086.252,1416,1090.252,1420,1086.252" style="stroke: #A80036; stroke-width: 1.0;"/><line style="stroke: #A80036; stroke-width: 1.0;" x1="1241" x2="1422" y1="1086.252" y2="1086.252"/><text fill="#000000" font-family="sans-serif" font-size="13" lengthAdjust="spacingAndGlyphs" textLength="163" x="1248" y="1081.8203">SetAboutDlgClientVersion</text><rect fill="#EEEEEE" filter="url(#f1)" height="3" style="stroke: #EEEEEE; stroke-width: 1.0;" width="2140" x="3" y="1115.2178"/><line style="stroke: #000000; stroke-width: 1.0;" x1="3" x2="2143" y1="1115.2178" y2="1115.2178"/><line style="stroke: #000000; stroke-width: 1.0;" x1="3" x2="2143" y1="1118.2178" y2="1118.2178"/><rect fill="#EEEEEE" filter="url(#f1)" height="23.3105" style="stroke: #000000; stroke-width: 2.0;" width="507" x="819.5" y="1104.5625"/><text fill="#000000" font-family="sans-serif" font-size="13" font-weight="bold" lengthAdjust="spacingAndGlyphs" textLength="108" x="825.5" y="1121.1309">User click menu</text><text fill="#000000" font-family="sans-serif" font-size="13" font-weight="bold" lengthAdjust="spacingAndGlyphs" textLength="237" x="937.5" y="1121.1309">About Cisco WebEx Meeting Center</text><text fill="#000000" font-family="sans-serif" font-size="13" font-weight="bold" lengthAdjust="spacingAndGlyphs" textLength="140" x="1174.5" y="1121.1309">, popup about dialog</text><polygon fill="#A80036" points="484.5,1154.873,494.5,1158.873,484.5,1162.873,488.5,1158.873" style="stroke: #A80036; stroke-width: 1.0;"/><line style="stroke: #A80036; stroke-width: 1.0;" x1="26.5" x2="490.5" y1="1158.873" y2="1158.873"/><text fill="#000000" font-family="sans-serif" font-size="13" lengthAdjust="spacingAndGlyphs" textLength="85" x="33.5" y="1154.4414">OnHelpAbout</text><polygon fill="#A80036" points="932,1184.1836,942,1188.1836,932,1192.1836,936,1188.1836" style="stroke: #A80036; stroke-width: 1.0;"/><line style="stroke: #A80036; stroke-width: 1.0;" x1="496.5" x2="938" y1="1188.1836" y2="1188.1836"/><text fill="#000000" font-family="sans-serif" font-size="13" lengthAdjust="spacingAndGlyphs" textLength="40" x="503.5" y="1183.752">Create</text><line style="stroke: #A80036; stroke-width: 1.0;" x1="944" x2="986" y1="1217.8047" y2="1217.8047"/><line style="stroke: #A80036; stroke-width: 1.0;" x1="986" x2="986" y1="1217.8047" y2="1230.8047"/><line style="stroke: #A80036; stroke-width: 1.0;" x1="945" x2="986" y1="1230.8047" y2="1230.8047"/><polygon fill="#A80036" points="955,1226.8047,945,1230.8047,955,1234.8047,951,1230.8047" style="stroke: #A80036; stroke-width: 1.0;"/><text fill="#000000" font-family="sans-serif" font-size="13" lengthAdjust="spacingAndGlyphs" textLength="80" x="951" y="1213.0625">OnInitDialog</text><line style="stroke: #A80036; stroke-width: 1.0;" x1="944" x2="986" y1="1260.1152" y2="1260.1152"/><line style="stroke: #A80036; stroke-width: 1.0;" x1="986" x2="986" y1="1260.1152" y2="1273.1152"/><line style="stroke: #A80036; stroke-width: 1.0;" x1="945" x2="986" y1="1273.1152" y2="1273.1152"/><polygon fill="#A80036" points="955,1269.1152,945,1273.1152,955,1277.1152,951,1273.1152" style="stroke: #A80036; stroke-width: 1.0;"/><text fill="#000000" font-family="sans-serif" font-size="13" lengthAdjust="spacingAndGlyphs" textLength="126" x="951" y="1255.373">InitializeVersionInfo</text><polygon fill="#A80036" points="1416,1298.1152,1426,1302.1152,1416,1306.1152,1420,1302.1152" style="stroke: #A80036; stroke-width: 1.0;"/><line style="stroke: #A80036; stroke-width: 1.0;" x1="944" x2="1422" y1="1302.1152" y2="1302.1152"/><text fill="#000000" font-family="sans-serif" font-size="13" lengthAdjust="spacingAndGlyphs" textLength="325" x="951" y="1297.6836">GetAboutDlgClientVersion($AboutDlgClientVersion)</text><polygon fill="#A80036" points="1587.5,1327.4258,1597.5,1331.4258,1587.5,1335.4258,1591.5,1331.4258" style="stroke: #A80036; stroke-width: 1.0;"/><line style="stroke: #A80036; stroke-width: 1.0;" x1="1428" x2="1593.5" y1="1331.4258" y2="1331.4258"/><text fill="#000000" font-family="sans-serif" font-size="13" lengthAdjust="spacingAndGlyphs" textLength="96" x="1435" y="1326.9941">GetParamString</text><line style="stroke: #A80036; stroke-width: 1.0;" x1="1599.5" x2="1641.5" y1="1361.0469" y2="1361.0469"/><line style="stroke: #A80036; stroke-width: 1.0;" x1="1641.5" x2="1641.5" y1="1361.0469" y2="1374.0469"/><line style="stroke: #A80036; stroke-width: 1.0;" x1="1600.5" x2="1641.5" y1="1374.0469" y2="1374.0469"/><polygon fill="#A80036" points="1610.5,1370.0469,1600.5,1374.0469,1610.5,1378.0469,1606.5,1374.0469" style="stroke: #A80036; stroke-width: 1.0;"/><text fill="#000000" font-family="sans-serif" font-size="13" lengthAdjust="spacingAndGlyphs" textLength="59" x="1606.5" y="1356.3047">GetParam</text><polygon fill="#A80036" points="1767,1399.0469,1777,1403.0469,1767,1407.0469,1771,1403.0469" style="stroke: #A80036; stroke-width: 1.0;"/><line style="stroke: #A80036; stroke-width: 1.0;" x1="1599.5" x2="1773" y1="1403.0469" y2="1403.0469"/><text fill="#000000" font-family="sans-serif" font-size="13" lengthAdjust="spacingAndGlyphs" textLength="55" x="1606.5" y="1398.6152">GetValue</text><polygon fill="#A80036" points="1072,1428.3574,1082,1432.3574,1072,1436.3574,1076,1432.3574" style="stroke: #A80036; stroke-width: 1.0;"/><line style="stroke: #A80036; stroke-width: 1.0;" x1="496.5" x2="1078" y1="1432.3574" y2="1432.3574"/><text fill="#000000" font-family="sans-serif" font-size="13" lengthAdjust="spacingAndGlyphs" textLength="133" x="503.5" y="1427.9258">ShowModelessDialog</text><polygon fill="#A80036" points="1229,1457.668,1239,1461.668,1229,1465.668,1233,1461.668" style="stroke: #A80036; stroke-width: 1.0;"/><line style="stroke: #A80036; stroke-width: 1.0;" x1="1084" x2="1235" y1="1461.668" y2="1461.668"/><text fill="#000000" font-family="sans-serif" font-size="13" lengthAdjust="spacingAndGlyphs" textLength="133" x="1091" y="1457.2363">ShowModelessDialog</text></g></svg>