<?xml version="1.0" encoding="UTF-8" standalone="no"?><svg xmlns="http://www.w3.org/2000/svg" xmlns:xlink="http://www.w3.org/1999/xlink" contentScriptType="application/ecmascript" contentStyleType="text/css" height="751px" preserveAspectRatio="none" style="width:5570px;height:751px;" version="1.1" viewBox="0 0 5570 751" width="5570px" zoomAndPan="magnify"><defs><filter height="300%" id="f6n8wfi" width="300%" x="-1" y="-1"><feGaussianBlur result="blurOut" stdDeviation="2.0"/><feColorMatrix in="blurOut" result="blurOut2" type="matrix" values="0 0 0 0 0 0 0 0 0 0 0 0 0 0 0 0 0 0 .4 0"/><feOffset dx="4.0" dy="4.0" in="blurOut2" result="blurOut3"/><feBlend in="SourceGraphic" in2="blurOut3" mode="normal"/></filter></defs><g><ellipse cx="2598" cy="33" fill="#000000" filter="url(#f6n8wfi)" rx="10" ry="10" style="stroke: none; stroke-width: 1.0;"/><rect fill="#FEFECE" filter="url(#f6n8wfi)" height="50" rx="12.5" ry="12.5" style="stroke: #A80036; stroke-width: 1.5;" width="274" x="2643" y="8"/><line style="stroke: #A80036; stroke-width: 1.5;" x1="2643" x2="2917" y1="34.4883" y2="34.4883"/><text fill="#000000" font-family="sans-serif" font-size="14" lengthAdjust="spacingAndGlyphs" textLength="254" x="2653" y="26.5352">ANYONE_CAN_SHARE_STATUS_NONE</text><rect fill="#FEFECE" filter="url(#f6n8wfi)" height="50.6211" rx="12.5" ry="12.5" style="stroke: #A80036; stroke-width: 1.5;" width="406" x="6" y="125"/><line style="stroke: #A80036; stroke-width: 1.5;" x1="6" x2="412" y1="151.4883" y2="151.4883"/><text fill="#000000" font-family="sans-serif" font-size="14" lengthAdjust="spacingAndGlyphs" textLength="268" x="75" y="143.5352">ANYONE_CAN_SHARE_STATUS_SCREEN</text><text fill="#000000" font-family="sans-serif" font-size="12" lengthAdjust="spacingAndGlyphs" textLength="386" x="11" y="168.0898">entry / CMCUIMgr::OnShareDesktop() [S_OK == MakeMePresenter]</text><rect fill="#FEFECE" filter="url(#f6n8wfi)" height="50.6211" rx="12.5" ry="12.5" style="stroke: #A80036; stroke-width: 1.5;" width="422" x="447" y="125"/><line style="stroke: #A80036; stroke-width: 1.5;" x1="447" x2="869" y1="151.4883" y2="151.4883"/><text fill="#000000" font-family="sans-serif" font-size="14" lengthAdjust="spacingAndGlyphs" textLength="306" x="505" y="143.5352">ANYONE_CAN_SHARE_STATUS_APPLICATION</text><text fill="#000000" font-family="sans-serif" font-size="12" lengthAdjust="spacingAndGlyphs" textLength="402" x="452" y="168.0898">entry / CMCUIMgr::OnShareApplication() [S_OK == MakeMePresenter]</text><rect fill="#FEFECE" filter="url(#f6n8wfi)" height="50.6211" rx="12.5" ry="12.5" style="stroke: #A80036; stroke-width: 1.5;" width="437" x="904.5" y="125"/><line style="stroke: #A80036; stroke-width: 1.5;" x1="904.5" x2="1341.5" y1="151.4883" y2="151.4883"/><text fill="#000000" font-family="sans-serif" font-size="14" lengthAdjust="spacingAndGlyphs" textLength="371" x="937.5" y="143.5352">ANYONE_CAN_SHARE_STATUS_APPLICATION_BYINDEX</text><text fill="#000000" font-family="sans-serif" font-size="12" lengthAdjust="spacingAndGlyphs" textLength="417" x="909.5" y="168.0898">entry / CMCFITUIMgr::OnPreOnCommand() [S_OK == MakeMePresenter]</text><rect fill="#FEFECE" filter="url(#f6n8wfi)" height="50.6211" rx="12.5" ry="12.5" style="stroke: #A80036; stroke-width: 1.5;" width="437" x="1376.5" y="125"/><line style="stroke: #A80036; stroke-width: 1.5;" x1="1376.5" x2="1813.5" y1="151.4883" y2="151.4883"/><text fill="#000000" font-family="sans-serif" font-size="14" lengthAdjust="spacingAndGlyphs" textLength="368" x="1411" y="143.5352">ANYONE_CAN_SHARE_STATUS_APPLICATION_OTHERS</text><text fill="#000000" font-family="sans-serif" font-size="12" lengthAdjust="spacingAndGlyphs" textLength="417" x="1381.5" y="168.0898">entry / CMCFITUIMgr::OnPreOnCommand() [S_OK == MakeMePresenter]</text><rect fill="#FEFECE" filter="url(#f6n8wfi)" height="64.7539" rx="12.5" ry="12.5" style="stroke: #A80036; stroke-width: 1.5;" width="446" x="1849" y="118"/><line style="stroke: #A80036; stroke-width: 1.5;" x1="1849" x2="2295" y1="144.4883" y2="144.4883"/><text fill="#000000" font-family="sans-serif" font-size="14" lengthAdjust="spacingAndGlyphs" textLength="302" x="1921" y="136.5352">ANYONE_CAN_SHARE_STATUS_FILES_LOCAL</text><text fill="#000000" font-family="sans-serif" font-size="12" lengthAdjust="spacingAndGlyphs" textLength="426" x="1854" y="161.0898">entry1 /  CMCUIMgr::OnFileOpenDocument() [S_OK == MakeMePresenter]</text><text fill="#000000" font-family="sans-serif" font-size="12" lengthAdjust="spacingAndGlyphs" textLength="417" x="1854" y="175.2227">entry2 / CMCUIMgr::OnSharePresentation() [S_OK == MakeMePresenter]</text><rect fill="#FEFECE" filter="url(#f6n8wfi)" height="50.6211" rx="12.5" ry="12.5" style="stroke: #A80036; stroke-width: 1.5;" width="437" x="2330.5" y="125"/><line style="stroke: #A80036; stroke-width: 1.5;" x1="2330.5" x2="2767.5" y1="151.4883" y2="151.4883"/><text fill="#000000" font-family="sans-serif" font-size="14" lengthAdjust="spacingAndGlyphs" textLength="287" x="2405.5" y="143.5352">ANYONE_CAN_SHARE_STATUS_FILES_DMS</text><text fill="#000000" font-family="sans-serif" font-size="12" lengthAdjust="spacingAndGlyphs" textLength="417" x="2335.5" y="168.0898">entry / CMCFITUIMgr::OnPreOnCommand() [S_OK == MakeMePresenter]</text><rect fill="#FEFECE" filter="url(#f6n8wfi)" height="50.6211" rx="12.5" ry="12.5" style="stroke: #A80036; stroke-width: 1.5;" width="417" x="2802.5" y="125"/><line style="stroke: #A80036; stroke-width: 1.5;" x1="2802.5" x2="3219.5" y1="151.4883" y2="151.4883"/><text fill="#000000" font-family="sans-serif" font-size="14" lengthAdjust="spacingAndGlyphs" textLength="310" x="2856" y="143.5352">ANYONE_CAN_SHARE_STATUS_WEBCONTENT</text><text fill="#000000" font-family="sans-serif" font-size="12" lengthAdjust="spacingAndGlyphs" textLength="397" x="2807.5" y="168.0898">entry CMCUIMgr::OnShareWebContent() [S_OK == MakeMePresenter]</text><rect fill="#FEFECE" filter="url(#f6n8wfi)" height="50.6211" rx="12.5" ry="12.5" style="stroke: #A80036; stroke-width: 1.5;" width="429" x="3254.5" y="125"/><line style="stroke: #A80036; stroke-width: 1.5;" x1="3254.5" x2="3683.5" y1="151.4883" y2="151.4883"/><text fill="#000000" font-family="sans-serif" font-size="14" lengthAdjust="spacingAndGlyphs" textLength="308" x="3315" y="143.5352">ANYONE_CAN_SHARE_STATUS_WEBBROWSER</text><text fill="#000000" font-family="sans-serif" font-size="12" lengthAdjust="spacingAndGlyphs" textLength="409" x="3259.5" y="168.0898">entry / CMCUIMgr::OnShareWebBrowser() [S_OK == MakeMePresenter]</text><rect fill="#FEFECE" filter="url(#f6n8wfi)" height="50.6211" rx="12.5" ry="12.5" style="stroke: #A80036; stroke-width: 1.5;" width="453" x="3718.5" y="125"/><line style="stroke: #A80036; stroke-width: 1.5;" x1="3718.5" x2="4171.5" y1="151.4883" y2="151.4883"/><text fill="#000000" font-family="sans-serif" font-size="14" lengthAdjust="spacingAndGlyphs" textLength="239" x="3825.5" y="143.5352">ANYONE_CAN_SHARE_STATUS_MM</text><text fill="#000000" font-family="sans-serif" font-size="12" lengthAdjust="spacingAndGlyphs" textLength="433" x="3723.5" y="168.0898">entry / CMCUIMgr::OnShareMeetingManager() [S_OK == MakeMePresenter]</text><rect fill="#FEFECE" filter="url(#f6n8wfi)" height="50.6211" rx="12.5" ry="12.5" style="stroke: #A80036; stroke-width: 1.5;" width="424" x="4207" y="125"/><line style="stroke: #A80036; stroke-width: 1.5;" x1="4207" x2="4631" y1="151.4883" y2="151.4883"/><text fill="#000000" font-family="sans-serif" font-size="14" lengthAdjust="spacingAndGlyphs" textLength="306" x="4266" y="143.5352">ANYONE_CAN_SHARE_STATUS_WHITEBOARD</text><text fill="#000000" font-family="sans-serif" font-size="12" lengthAdjust="spacingAndGlyphs" textLength="404" x="4212" y="168.0898">entry / CMCUIMgr::OnShareWhiteboard() [S_OK == MakeMePresenter]</text><rect fill="#FEFECE" filter="url(#f6n8wfi)" height="50.6211" rx="12.5" ry="12.5" style="stroke: #A80036; stroke-width: 1.5;" width="459" x="4666.5" y="125"/><line style="stroke: #A80036; stroke-width: 1.5;" x1="4666.5" x2="5125.5" y1="151.4883" y2="151.4883"/><text fill="#000000" font-family="sans-serif" font-size="14" lengthAdjust="spacingAndGlyphs" textLength="234" x="4779" y="143.5352">ANYONE_CAN_SHARE_STATUS_RA</text><text fill="#000000" font-family="sans-serif" font-size="12" lengthAdjust="spacingAndGlyphs" textLength="439" x="4671.5" y="168.0898">entry / CMCUIMgr::OnShareRemoteComputer() [S_OK == MakeMePresenter]</text><rect fill="#FEFECE" filter="url(#f6n8wfi)" height="50.6211" rx="12.5" ry="12.5" style="stroke: #A80036; stroke-width: 1.5;" width="400" x="5161" y="125"/><line style="stroke: #A80036; stroke-width: 1.5;" x1="5161" x2="5561" y1="151.4883" y2="151.4883"/><text fill="#000000" font-family="sans-serif" font-size="14" lengthAdjust="spacingAndGlyphs" textLength="281" x="5220.5" y="143.5352">ANYONE_CAN_SHARE_STATUS_ADDPAGE</text><text fill="#000000" font-family="sans-serif" font-size="12" lengthAdjust="spacingAndGlyphs" textLength="380" x="5166" y="168.0898">entry / CMCUIMgr::OnEditAddPage() [S_OK == MakeMePresenter]</text><rect fill="#FEFECE" filter="url(#f6n8wfi)" height="501.4883" rx="12.5" ry="12.5" style="stroke: #A80036; stroke-width: 1.5;" width="1717" x="1921.5" y="243"/><rect fill="#FFFFFF" height="469" rx="12.5" ry="12.5" style="stroke: #FFFFFF; stroke-width: 1.0;" width="1711" x="1924.5" y="272.4883"/><line style="stroke: #A80036; stroke-width: 1.5;" x1="1921.5" x2="3638.5" y1="269.4883" y2="269.4883"/><text fill="#000000" font-family="sans-serif" font-size="14" lengthAdjust="spacingAndGlyphs" textLength="208" x="2676" y="261.5352">ANYONE_CAN_SHARE_ACTION</text><ellipse cx="2629.479" cy="292.4883" fill="#000000" filter="url(#f6n8wfi)" rx="10" ry="10" style="stroke: none; stroke-width: 1.0;"/><rect fill="#FEFECE" filter="url(#f6n8wfi)" height="50" rx="12.5" ry="12.5" style="stroke: #A80036; stroke-width: 1.5;" width="274" x="2492.479" y="339.4883"/><line style="stroke: #A80036; stroke-width: 1.5;" x1="2492.479" x2="2766.479" y1="365.9766" y2="365.9766"/><text fill="#000000" font-family="sans-serif" font-size="14" lengthAdjust="spacingAndGlyphs" textLength="254" x="2502.479" y="358.0234">ANYONE_CAN_SHARE_ACTION_NONE</text><rect fill="#FEFECE" filter="url(#f6n8wfi)" height="50" rx="12.5" ry="12.5" style="stroke: #A80036; stroke-width: 1.5;" width="358" x="2027.4792" y="457.4883"/><line style="stroke: #A80036; stroke-width: 1.5;" x1="2027.4792" x2="2385.4792" y1="483.9766" y2="483.9766"/><text fill="#000000" font-family="sans-serif" font-size="14" lengthAdjust="spacingAndGlyphs" textLength="338" x="2037.4792" y="476.0234">ANYONE_CAN_SHARE_ACTION_MAKE_PRESENTER</text><rect fill="#FEFECE" filter="url(#f6n8wfi)" height="50" rx="12.5" ry="12.5" style="stroke: #A80036; stroke-width: 1.5;" width="270" x="2494.479" y="457.4883"/><line style="stroke: #A80036; stroke-width: 1.5;" x1="2494.479" x2="2764.479" y1="483.9766" y2="483.9766"/><text fill="#000000" font-family="sans-serif" font-size="14" lengthAdjust="spacingAndGlyphs" textLength="250" x="2504.479" y="476.0234">ANYONE_CAN_SHARE_ACTION_WAIT</text><rect fill="#FEFECE" filter="url(#f6n8wfi)" height="50" rx="12.5" ry="12.5" style="stroke: #A80036; stroke-width: 1.5;" width="281" x="2723.979" y="575.4883"/><line style="stroke: #A80036; stroke-width: 1.5;" x1="2723.979" x2="3004.979" y1="601.9766" y2="601.9766"/><text fill="#000000" font-family="sans-serif" font-size="14" lengthAdjust="spacingAndGlyphs" textLength="261" x="2733.979" y="594.0234">ANYONE_CAN_SHARE_ACTION_READY</text><rect fill="#FEFECE" filter="url(#f6n8wfi)" height="50.6211" rx="12.5" ry="12.5" style="stroke: #A80036; stroke-width: 1.5;" width="306" x="3041.48" y="678.4883"/><line style="stroke: #A80036; stroke-width: 1.5;" x1="3041.48" x2="3347.48" y1="704.9766" y2="704.9766"/><text fill="#000000" font-family="sans-serif" font-size="14" lengthAdjust="spacingAndGlyphs" textLength="286" x="3051.48" y="697.0234">ANYONE_CAN_SHARE_ACTION_HANDLING</text><text fill="#000000" font-family="sans-serif" font-size="12" lengthAdjust="spacingAndGlyphs" textLength="216" x="3046.48" y="721.5781">exit/CMCUIMgr::LaunchAnyoneShare()</text><path d="M2629.479,302.6393 C2629.479,310.6743 2629.479,322.8143 2629.479,334.1423 " fill="none" style="stroke: #A80036; stroke-width: 1.0;"/><polygon fill="#A80036" points="2629.479,339.2723,2633.479,330.2723,2629.479,334.2723,2625.479,330.2723,2629.479,339.2723" style="stroke: #A80036; stroke-width: 1.0;"/><path d="M2492.1,369.1543 C2297.75,375.0213 1963.9077,387.8933 1945.4792,407.4883 C1908.4495,446.8613 1957.0691,465.8053 2021.9892,474.7233 " fill="none" style="stroke: #A80036; stroke-width: 1.0;"/><polygon fill="#A80036" points="2027.0951,475.3993,2018.6987,470.2515,2022.1384,474.7423,2017.6476,478.1821,2027.0951,475.3993" style="stroke: #A80036; stroke-width: 1.0;"/><text fill="#000000" font-family="sans-serif" font-size="13" lengthAdjust="spacingAndGlyphs" textLength="490" x="1946.4792" y="428.5566">CMCFeatureMgr::MakeMePresenter() [!= ANYONE_CAN_SHARE_STATUS_NONE]</text><path d="M2492.24,386.2213 C2472.374,391.8703 2456.311,398.8793 2449.479,407.4883 C2428.022,434.5283 2452.358,451.7713 2489.355,462.7303 " fill="none" style="stroke: #A80036; stroke-width: 1.0;"/><polygon fill="#A80036" points="2494.411,464.1693,2486.8497,457.8584,2489.602,462.8006,2484.6598,465.5528,2494.411,464.1693" style="stroke: #A80036; stroke-width: 1.0;"/><text fill="#000000" font-family="sans-serif" font-size="13" lengthAdjust="spacingAndGlyphs" textLength="338" x="2450.479" y="428.5566">[!= ANYONE_CAN_SHARE_ACTION_MAKE_PRESENTER]</text><path d="M2757.611,457.4513 C2772.439,452.3403 2784.173,446.3673 2789.479,439.4883 C2806.021,418.0443 2792.008,402.5833 2766.588,391.5313 " fill="none" style="stroke: #A80036; stroke-width: 1.0;"/><polygon fill="#A80036" points="2761.714,389.5183,2768.5057,396.6508,2766.3354,391.4268,2771.5594,389.2566,2761.714,389.5183" style="stroke: #A80036; stroke-width: 1.0;"/><text fill="#000000" font-family="sans-serif" font-size="13" lengthAdjust="spacingAndGlyphs" textLength="213" x="2950.479" y="421.0566">CMCUIMgr::OnPresenterChanged()</text><text fill="#000000" font-family="sans-serif" font-size="13" lengthAdjust="spacingAndGlyphs" textLength="523" x="2797.479" y="436.3672">[ANYONE_CAN_SHARE_ACTION_WAIT] / CMCServiceMgr::ResetAnyoneShareStatus()</text><path d="M2342.817,507.5233 C2454.092,527.1403 2610.767,554.7613 2723.325,574.6043 " fill="none" style="stroke: #A80036; stroke-width: 1.0;"/><polygon fill="#A80036" points="2728.316,575.4843,2720.1476,569.9818,2723.392,574.6158,2718.758,577.8601,2728.316,575.4843" style="stroke: #A80036; stroke-width: 1.0;"/><text fill="#000000" font-family="sans-serif" font-size="13" lengthAdjust="spacingAndGlyphs" textLength="213" x="2636.479" y="539.0566">CMCUIMgr::OnPresenterChanged()</text><text fill="#000000" font-family="sans-serif" font-size="13" lengthAdjust="spacingAndGlyphs" textLength="259" x="2615.479" y="554.3672">[!= ANYONE_CAN_SHARE_ACTION_WAIT]</text><path d="M2942.68,625.5423 C2992.91,640.9895 3058.13,661.0495 3109.6,676.883 " fill="none" style="stroke: #A80036; stroke-width: 1.0;"/><polygon fill="#A80036" points="3114.54,678.4018,3107.1155,671.9306,3109.7614,676.9305,3104.7614,679.5764,3114.54,678.4018" style="stroke: #A80036; stroke-width: 1.0;"/><text fill="#000000" font-family="sans-serif" font-size="13" lengthAdjust="spacingAndGlyphs" textLength="123" x="3049.48" y="657.0566">CMCUIMgr::OnIdle()</text><path d="M3221.59,678.4851 C3279.18,623.5983 3402.41,489.2053 3325.48,407.4883 C3306.81,387.6543 2970.19,374.9453 2772.052,369.1493 " fill="none" style="stroke: #A80036; stroke-width: 1.0;"/><polygon fill="#A80036" points="2766.814,368.9963,2775.6936,373.2569,2771.8119,369.142,2775.9268,365.2603,2766.814,368.9963" style="stroke: #A80036; stroke-width: 1.0;"/><text fill="#000000" font-family="sans-serif" font-size="13" lengthAdjust="spacingAndGlyphs" textLength="267" x="3337.48" y="546.5566">CMCServiceMgr::ResetAnyoneShareStatus()</text><path d="M2608.31,33 C2618.11,33 2627.92,33 2637.72,33 " fill="none" style="stroke: #A80036; stroke-width: 1.0;"/><polygon fill="#A80036" points="2642.85,33,2633.85,29,2637.85,33,2633.85,37,2642.85,33" style="stroke: #A80036; stroke-width: 1.0;"/><path d="M2642.77,56.189 C2636.78,56.862 2630.83,57.471 2625,58 C1652.63,146.209 1401.86,35.337 429,118 C409.684,119.641 389.476,121.852 369.471,124.344 " fill="none" style="stroke: #A80036; stroke-width: 1.0;"/><polygon fill="#A80036" points="364.389,124.984,373.818,127.8291,369.3499,124.3598,372.8192,119.8917,364.389,124.984" style="stroke: #A80036; stroke-width: 1.0;"/><path d="M2642.77,56.136 C2636.77,56.823 2630.83,57.45 2625,58 C1855.51,130.595 1657.07,51.918 887,118 C867.28,119.692 846.658,121.902 826.214,124.366 " fill="none" style="stroke: #A80036; stroke-width: 1.0;"/><polygon fill="#A80036" points="821.021,124.998,830.4385,127.8809,825.9843,124.3937,829.4715,119.9395,821.021,124.998" style="stroke: #A80036; stroke-width: 1.0;"/><path d="M2642.76,56.042 C2636.76,56.755 2630.82,57.413 2625,58 C2064.54,114.51 1920.02,67.358 1359,118 C1339.45,119.764 1319.04,121.958 1298.76,124.36 " fill="none" style="stroke: #A80036; stroke-width: 1.0;"/><polygon fill="#A80036" points="1293.6,124.975,1303.0067,127.8929,1298.5656,124.3891,1302.0693,119.948,1293.6,124.975" style="stroke: #A80036; stroke-width: 1.0;"/><path d="M2642.74,55.837 C2636.75,56.605 2630.82,57.331 2625,58 C2273.42,98.44 2182.98,81.241 1831,118 C1812.96,119.884 1794.18,122.047 1775.43,124.339 " fill="none" style="stroke: #A80036; stroke-width: 1.0;"/><polygon fill="#A80036" points="1770.14,124.988,1779.5551,127.8785,1775.1038,124.3877,1778.5947,119.9364,1770.14,124.988" style="stroke: #A80036; stroke-width: 1.0;"/><path d="M2642.65,56.407 C2536.86,73.666 2389.11,97.768 2270.46,117.123 " fill="none" style="stroke: #A80036; stroke-width: 1.0;"/><polygon fill="#A80036" points="2265.19,117.984,2274.7211,120.4656,2270.1233,117.1701,2273.4189,112.5723,2265.19,117.984" style="stroke: #A80036; stroke-width: 1.0;"/><path d="M2731.86,58.072 C2694.25,76.877 2641.99,103.005 2602.97,122.516 " fill="none" style="stroke: #A80036; stroke-width: 1.0;"/><polygon fill="#A80036" points="2598.28,124.862,2608.1193,124.4286,2602.7553,122.6322,2604.5517,117.2682,2598.28,124.862" style="stroke: #A80036; stroke-width: 1.0;"/><path d="M2828.14,58.072 C2865.75,76.877 2918.01,103.005 2957.03,122.516 " fill="none" style="stroke: #A80036; stroke-width: 1.0;"/><polygon fill="#A80036" points="2961.72,124.862,2955.4483,117.2682,2957.2447,122.6322,2951.8807,124.4286,2961.72,124.862" style="stroke: #A80036; stroke-width: 1.0;"/><path d="M2917.36,57.026 C3033.04,76.418 3198.28,104.119 3317.72,124.141 " fill="none" style="stroke: #A80036; stroke-width: 1.0;"/><polygon fill="#A80036" points="3322.66,124.969,3314.4474,119.5326,3317.7292,124.1403,3313.1215,127.422,3322.66,124.969" style="stroke: #A80036; stroke-width: 1.0;"/><path d="M2917.09,44.891 C3097.15,59.565 3423.11,87.4 3701,118 C3718.75,119.955 3737.22,122.112 3755.69,124.352 " fill="none" style="stroke: #A80036; stroke-width: 1.0;"/><polygon fill="#A80036" points="3760.9,124.986,3752.4595,119.9107,3755.9379,124.3718,3751.4768,127.8502,3760.9,124.986" style="stroke: #A80036; stroke-width: 1.0;"/><path d="M2917.28,38.691 C3169.58,48.09 3723.8,72.344 4189,118 C4207.42,119.808 4226.64,121.981 4245.77,124.331 " fill="none" style="stroke: #A80036; stroke-width: 1.0;"/><polygon fill="#A80036" points="4251.16,124.998,4242.7195,119.9227,4246.1979,124.3838,4241.7368,127.8622,4251.16,124.998" style="stroke: #A80036; stroke-width: 1.0;"/><path d="M2917.13,36.318 C3226.55,42.39 4002.39,62.332 4649,118 C4669.53,119.768 4690.99,121.97 4712.31,124.383 " fill="none" style="stroke: #A80036; stroke-width: 1.0;"/><polygon fill="#A80036" points="4717.43,124.967,4708.9461,119.9646,4712.4628,124.3956,4708.0318,127.9122,4717.43,124.967" style="stroke: #A80036; stroke-width: 1.0;"/><path d="M2917.17,33.708 C3280.82,34.053 4299.47,42.287 5143,118 C5161.63,119.672 5181.09,121.854 5200.39,124.291 " fill="none" style="stroke: #A80036; stroke-width: 1.0;"/><polygon fill="#A80036" points="5205.83,124.985,5197.4045,119.8849,5200.8697,124.3562,5196.3984,127.8214,5205.83,124.985" style="stroke: #A80036; stroke-width: 1.0;"/><path d="M378.925,176.026 C395.839,178.408 412.754,180.768 429,183 C921.077,250.616 1471.53,323.244 1916.04,381.141 " fill="none" style="stroke: #A80036; stroke-width: 1.0;"/><polygon fill="#A80036" points="1921.26,381.821,1912.849,376.6971,1916.3015,381.1782,1911.8204,384.6307,1921.26,381.821" style="stroke: #A80036; stroke-width: 1.0;"/><path d="M810.609,176.024 C1042.35,213.264 1500.09,286.822 1915.99,353.655 " fill="none" style="stroke: #A80036; stroke-width: 1.0;"/><polygon fill="#A80036" points="1921.18,354.491,1912.9357,349.1029,1916.2444,353.6912,1911.6561,356.9999,1921.18,354.491" style="stroke: #A80036; stroke-width: 1.0;"/><path d="M1242.17,176.024 C1388.39,206.116 1649.85,259.923 1916.19,314.734 " fill="none" style="stroke: #A80036; stroke-width: 1.0;"/><polygon fill="#A80036" points="1921.3,315.784,1913.2823,310.0642,1916.4011,314.7836,1911.6817,317.9025,1921.3,315.784" style="stroke: #A80036; stroke-width: 1.0;"/><path d="M1680.22,176.024 C1738.15,192.693 1821.37,216.64 1916.46,244.003 " fill="none" style="stroke: #A80036; stroke-width: 1.0;"/><polygon fill="#A80036" points="1921.28,245.392,1913.7406,239.0551,1916.4757,244.0067,1911.5241,246.7419,1921.28,245.392" style="stroke: #A80036; stroke-width: 1.0;"/><path d="M2137.65,183.122 C2169.45,198.437 2210.81,218.357 2257.22,240.711 " fill="none" style="stroke: #A80036; stroke-width: 1.0;"/><polygon fill="#A80036" points="2261.73,242.882,2255.359,235.3713,2257.2258,240.7113,2251.8858,242.5781,2261.73,242.882" style="stroke: #A80036; stroke-width: 1.0;"/><path d="M2565.61,176.024 C2576.13,191.543 2590.91,213.368 2607.86,238.386 " fill="none" style="stroke: #A80036; stroke-width: 1.0;"/><polygon fill="#A80036" points="2610.82,242.759,2609.0875,233.0637,2608.0172,238.6184,2602.4626,237.5481,2610.82,242.759" style="stroke: #A80036; stroke-width: 1.0;"/><path d="M2994.39,176.024 C2983.87,191.543 2969.09,213.368 2952.14,238.386 " fill="none" style="stroke: #A80036; stroke-width: 1.0;"/><polygon fill="#A80036" points="2949.18,242.759,2957.5374,237.5481,2951.9828,238.6184,2950.9125,233.0637,2949.18,242.759" style="stroke: #A80036; stroke-width: 1.0;"/><path d="M3419.45,176.024 C3387.18,191.996 3341.4,214.65 3288.99,240.589 " fill="none" style="stroke: #A80036; stroke-width: 1.0;"/><polygon fill="#A80036" points="3284.23,242.947,3294.0696,242.5211,3288.707,240.7206,3290.5075,235.358,3284.23,242.947" style="stroke: #A80036; stroke-width: 1.0;"/><path d="M3861.22,176.024 C3805.99,192.189 3727.38,215.198 3637.42,241.53 " fill="none" style="stroke: #A80036; stroke-width: 1.0;"/><polygon fill="#A80036" points="3632.58,242.947,3642.3401,244.2662,3637.3799,241.5466,3640.0995,236.5864,3632.58,242.947" style="stroke: #A80036; stroke-width: 1.0;"/><path d="M4301.13,176.024 C4158.18,205.765 3903.88,258.672 3643.64,312.817 " fill="none" style="stroke: #A80036; stroke-width: 1.0;"/><polygon fill="#A80036" points="3638.65,313.854,3648.2745,315.9444,3643.546,312.8394,3646.651,308.1109,3638.65,313.854" style="stroke: #A80036; stroke-width: 1.0;"/><path d="M4743.82,176.024 C4513.15,213.197 4057.92,286.56 3643.79,353.297 " fill="none" style="stroke: #A80036; stroke-width: 1.0;"/><polygon fill="#A80036" points="3638.62,354.131,3648.1369,356.6664,3643.5578,353.3449,3646.8792,348.7658,3638.62,354.131" style="stroke: #A80036; stroke-width: 1.0;"/><path d="M5192.92,176.015 C5176.06,178.405 5159.19,180.769 5143,183 C4646.82,251.34 4091.5,324.255 3643.94,382.137 " fill="none" style="stroke: #A80036; stroke-width: 1.0;"/><polygon fill="#A80036" points="3638.68,382.817,3648.1196,385.6267,3643.6385,382.1742,3647.091,377.6931,3638.68,382.817" style="stroke: #A80036; stroke-width: 1.0;"/></g></svg>