<?xml version="1.0" encoding="UTF-8" standalone="yes"?><svg xmlns="http://www.w3.org/2000/svg" xmlns:xlink="http://www.w3.org/1999/xlink" height="619pt" style="width:958px;height:619px;" version="1.1" viewBox="0 0 958 619" width="958pt"><defs><filter height="300%" id="f1" width="300%" x="-1" y="-1"><feGaussianBlur result="blurOut" stdDeviation="2.0"/><feColorMatrix in="blurOut" result="blurOut2" type="matrix" values="0 0 0 0 0 0 0 0 0 0 0 0 0 0 0 0 0 0 .4 0"/><feOffset dx="4.0" dy="4.0" in="blurOut2" result="blurOut3"/><feBlend in="SourceGraphic" in2="blurOut3" mode="normal"/></filter></defs><g><rect fill="#FFFFFF" filter="url(#f1)" height="125.5527" style="stroke: #FFFFFF; stroke-width: 1.0;" width="10" x="104" y="112.7988"/><line style="stroke: #A80036; stroke-width: 1.0;" x1="104" x2="104" y1="112.7988" y2="238.3516"/><line style="stroke: #A80036; stroke-width: 1.0;" x1="114" x2="114" y1="112.7988" y2="238.3516"/><line style="stroke: #A80036; stroke-width: 1.0;" x1="104" x2="114" y1="112.7988" y2="112.7988"/><rect fill="#FFFFFF" filter="url(#f1)" height="283.4844" style="stroke: #FFFFFF; stroke-width: 1.0;" width="10" x="104" y="279.3066"/><line style="stroke: #A80036; stroke-width: 1.0;" x1="104" x2="104" y1="279.3066" y2="562.791"/><line style="stroke: #A80036; stroke-width: 1.0;" x1="114" x2="114" y1="279.3066" y2="562.791"/><line style="stroke: #A80036; stroke-width: 1.0;" x1="104" x2="114" y1="562.791" y2="562.791"/><rect fill="#FFFFFF" filter="url(#f1)" height="87.9316" style="stroke: #A80036; stroke-width: 1.0;" width="10" x="267" y="142.1094"/><rect fill="#FFFFFF" filter="url(#f1)" height="117.2422" style="stroke: #A80036; stroke-width: 1.0;" width="10" x="267" y="300.3066"/><line style="stroke: #A80036; stroke-width: 1.0;" x1="108.5" x2="108.5" y1="38.4883" y2="238.3516"/><line style="stroke: #A80036; stroke-width: 1.0; stroke-dasharray: 1.0,4.0;" x1="108.5" x2="108.5" y1="238.3516" y2="279.3066"/><line style="stroke: #A80036; stroke-width: 1.0;" x1="108.5" x2="108.5" y1="279.3066" y2="581.1016"/><line style="stroke: #A80036; stroke-width: 1.0;" x1="271.5" x2="271.5" y1="38.4883" y2="238.3516"/><line style="stroke: #A80036; stroke-width: 1.0; stroke-dasharray: 1.0,4.0;" x1="271.5" x2="271.5" y1="238.3516" y2="279.3066"/><line style="stroke: #A80036; stroke-width: 1.0;" x1="271.5" x2="271.5" y1="279.3066" y2="581.1016"/><line style="stroke: #A80036; stroke-width: 1.0;" x1="442.5" x2="442.5" y1="38.4883" y2="238.3516"/><line style="stroke: #A80036; stroke-width: 1.0; stroke-dasharray: 1.0,4.0;" x1="442.5" x2="442.5" y1="238.3516" y2="279.3066"/><line style="stroke: #A80036; stroke-width: 1.0;" x1="442.5" x2="442.5" y1="279.3066" y2="581.1016"/><line style="stroke: #A80036; stroke-width: 1.0;" x1="584.5" x2="584.5" y1="38.4883" y2="238.3516"/><line style="stroke: #A80036; stroke-width: 1.0; stroke-dasharray: 1.0,4.0;" x1="584.5" x2="584.5" y1="238.3516" y2="279.3066"/><line style="stroke: #A80036; stroke-width: 1.0;" x1="584.5" x2="584.5" y1="279.3066" y2="581.1016"/><line style="stroke: #A80036; stroke-width: 1.0;" x1="720.5" x2="720.5" y1="38.4883" y2="238.3516"/><line style="stroke: #A80036; stroke-width: 1.0; stroke-dasharray: 1.0,4.0;" x1="720.5" x2="720.5" y1="238.3516" y2="279.3066"/><line style="stroke: #A80036; stroke-width: 1.0;" x1="720.5" x2="720.5" y1="279.3066" y2="581.1016"/><line style="stroke: #A80036; stroke-width: 1.0;" x1="925.5" x2="925.5" y1="38.4883" y2="238.3516"/><line style="stroke: #A80036; stroke-width: 1.0; stroke-dasharray: 1.0,4.0;" x1="925.5" x2="925.5" y1="238.3516" y2="279.3066"/><line style="stroke: #A80036; stroke-width: 1.0;" x1="925.5" x2="925.5" y1="279.3066" y2="581.1016"/><rect fill="#FEFECE" filter="url(#f1)" height="30.4883" style="stroke: #A80036; stroke-width: 1.5;" width="107" x="53.5" y="3"/><text fill="#000000" font-family="sans-serif" font-size="14" lengthAdjust="spacingAndGlyphs" textLength="93" x="60.5" y="23.5352">CSmFITUIMgr</text><rect fill="#FEFECE" filter="url(#f1)" height="30.4883" style="stroke: #A80036; stroke-width: 1.5;" width="107" x="53.5" y="580.1016"/><text fill="#000000" font-family="sans-serif" font-size="14" lengthAdjust="spacingAndGlyphs" textLength="93" x="60.5" y="600.6367">CSmFITUIMgr</text><rect fill="#FEFECE" filter="url(#f1)" height="30.4883" style="stroke: #A80036; stroke-width: 1.5;" width="191" x="174.5" y="3"/><text fill="#000000" font-family="sans-serif" font-size="14" lengthAdjust="spacingAndGlyphs" textLength="177" x="181.5" y="23.5352">CSmAppShareSessionMgr</text><rect fill="#FEFECE" filter="url(#f1)" height="30.4883" style="stroke: #A80036; stroke-width: 1.5;" width="191" x="174.5" y="580.1016"/><text fill="#000000" font-family="sans-serif" font-size="14" lengthAdjust="spacingAndGlyphs" textLength="177" x="181.5" y="600.6367">CSmAppShareSessionMgr</text><rect fill="#FEFECE" filter="url(#f1)" height="30.4883" style="stroke: #A80036; stroke-width: 1.5;" width="123" x="379.5" y="3"/><text fill="#000000" font-family="sans-serif" font-size="14" lengthAdjust="spacingAndGlyphs" textLength="109" x="386.5" y="23.5352">CPfwServiceMgr</text><rect fill="#FEFECE" filter="url(#f1)" height="30.4883" style="stroke: #A80036; stroke-width: 1.5;" width="123" x="379.5" y="580.1016"/><text fill="#000000" font-family="sans-serif" font-size="14" lengthAdjust="spacingAndGlyphs" textLength="109" x="386.5" y="600.6367">CPfwServiceMgr</text><rect fill="#FEFECE" filter="url(#f1)" height="30.4883" style="stroke: #A80036; stroke-width: 1.5;" width="132" x="516.5" y="3"/><text fill="#000000" font-family="sans-serif" font-size="14" lengthAdjust="spacingAndGlyphs" textLength="118" x="523.5" y="23.5352">CAtConfManager</text><rect fill="#FEFECE" filter="url(#f1)" height="30.4883" style="stroke: #A80036; stroke-width: 1.5;" width="132" x="516.5" y="580.1016"/><text fill="#000000" font-family="sans-serif" font-size="14" lengthAdjust="spacingAndGlyphs" textLength="118" x="523.5" y="600.6367">CAtConfManager</text><rect fill="#FEFECE" filter="url(#f1)" height="30.4883" style="stroke: #A80036; stroke-width: 1.5;" width="113" x="662.5" y="3"/><text fill="#000000" font-family="sans-serif" font-size="14" lengthAdjust="spacingAndGlyphs" textLength="99" x="669.5" y="23.5352">CAtConfAgent</text><rect fill="#FEFECE" filter="url(#f1)" height="30.4883" style="stroke: #A80036; stroke-width: 1.5;" width="113" x="662.5" y="580.1016"/><text fill="#000000" font-family="sans-serif" font-size="14" lengthAdjust="spacingAndGlyphs" textLength="99" x="669.5" y="600.6367">CAtConfAgent</text><rect fill="#FEFECE" filter="url(#f1)" height="30.4883" style="stroke: #A80036; stroke-width: 1.5;" width="41" x="903.5" y="3"/><text fill="#000000" font-family="sans-serif" font-size="14" lengthAdjust="spacingAndGlyphs" textLength="27" x="910.5" y="23.5352">arm</text><rect fill="#FEFECE" filter="url(#f1)" height="30.4883" style="stroke: #A80036; stroke-width: 1.5;" width="41" x="903.5" y="580.1016"/><text fill="#000000" font-family="sans-serif" font-size="14" lengthAdjust="spacingAndGlyphs" textLength="27" x="910.5" y="600.6367">arm</text><rect fill="#FFFFFF" filter="url(#f1)" height="125.5527" style="stroke: #FFFFFF; stroke-width: 1.0;" width="10" x="104" y="112.7988"/><line style="stroke: #A80036; stroke-width: 1.0;" x1="104" x2="104" y1="112.7988" y2="238.3516"/><line style="stroke: #A80036; stroke-width: 1.0;" x1="114" x2="114" y1="112.7988" y2="238.3516"/><line style="stroke: #A80036; stroke-width: 1.0;" x1="104" x2="114" y1="112.7988" y2="112.7988"/><rect fill="#FFFFFF" filter="url(#f1)" height="283.4844" style="stroke: #FFFFFF; stroke-width: 1.0;" width="10" x="104" y="279.3066"/><line style="stroke: #A80036; stroke-width: 1.0;" x1="104" x2="104" y1="279.3066" y2="562.791"/><line style="stroke: #A80036; stroke-width: 1.0;" x1="114" x2="114" y1="279.3066" y2="562.791"/><line style="stroke: #A80036; stroke-width: 1.0;" x1="104" x2="114" y1="562.791" y2="562.791"/><rect fill="#FFFFFF" filter="url(#f1)" height="87.9316" style="stroke: #A80036; stroke-width: 1.0;" width="10" x="267" y="142.1094"/><rect fill="#FFFFFF" filter="url(#f1)" height="117.2422" style="stroke: #A80036; stroke-width: 1.0;" width="10" x="267" y="300.3066"/><rect fill="#EEEEEE" filter="url(#f1)" height="3" style="stroke: #EEEEEE; stroke-width: 1.0;" width="950.5" x="3" y="69.1436"/><line style="stroke: #000000; stroke-width: 1.0;" x1="3" x2="953.5" y1="69.1436" y2="69.1436"/><line style="stroke: #000000; stroke-width: 1.0;" x1="3" x2="953.5" y1="72.1436" y2="72.1436"/><rect fill="#EEEEEE" filter="url(#f1)" height="23.3105" style="stroke: #000000; stroke-width: 2.0;" width="296" x="330.25" y="58.4883"/><text fill="#000000" font-family="sans-serif" font-size="13" font-weight="bold" lengthAdjust="spacingAndGlyphs" textLength="282" x="336.25" y="75.0566">User click Share My Screen from FIT Menu</text><polygon fill="#A80036" points="92,108.7988,102,112.7988,92,116.7988,96,112.7988" style="stroke: #A80036; stroke-width: 1.0;"/><line style="stroke: #A80036; stroke-width: 1.0;" x1="3" x2="98" y1="112.7988" y2="112.7988"/><text fill="#000000" font-family="sans-serif" font-size="13" lengthAdjust="spacingAndGlyphs" textLength="82" x="10" y="108.3672">OnCommand</text><polygon fill="#A80036" points="255,138.1094,265,142.1094,255,146.1094,259,142.1094" style="stroke: #A80036; stroke-width: 1.0;"/><line style="stroke: #A80036; stroke-width: 1.0;" x1="114" x2="261" y1="142.1094" y2="142.1094"/><text fill="#000000" font-family="sans-serif" font-size="13" lengthAdjust="spacingAndGlyphs" textLength="109" x="121" y="137.6777">QuitShareSession</text><polygon fill="#A80036" points="572.5,167.4199,582.5,171.4199,572.5,175.4199,576.5,171.4199" style="stroke: #A80036; stroke-width: 1.0;"/><line style="stroke: #A80036; stroke-width: 1.0;" x1="277" x2="578.5" y1="171.4199" y2="171.4199"/><text fill="#000000" font-family="sans-serif" font-size="13" lengthAdjust="spacingAndGlyphs" textLength="83" x="284" y="166.9883">CloseSession</text><polygon fill="#A80036" points="709,196.7305,719,200.7305,709,204.7305,713,200.7305" style="stroke: #A80036; stroke-width: 1.0;"/><line style="stroke: #A80036; stroke-width: 1.0;" x1="584.5" x2="715" y1="200.7305" y2="200.7305"/><text fill="#000000" font-family="sans-serif" font-size="13" lengthAdjust="spacingAndGlyphs" textLength="83" x="591.5" y="196.2988">SessionClose</text><polygon fill="#A80036" points="914,226.041,924,230.041,914,234.041,918,230.041" style="stroke: #A80036; stroke-width: 1.0;"/><line style="stroke: #A80036; stroke-width: 1.0;" x1="721" x2="920" y1="230.041" y2="230.041"/><text fill="#000000" font-family="sans-serif" font-size="13" lengthAdjust="spacingAndGlyphs" textLength="142" x="728" y="225.6094">session_close_request</text><text fill="#000000" font-family="sans-serif" font-size="11" lengthAdjust="spacingAndGlyphs" textLength="309" x="363" y="262.9863">CSmAppShareSessionMgr::QuitShareSession Sleep 300ms</text><polygon fill="#A80036" points="255,296.3066,265,300.3066,255,304.3066,259,300.3066" style="stroke: #A80036; stroke-width: 1.0;"/><line style="stroke: #A80036; stroke-width: 1.0;" x1="114" x2="261" y1="300.3066" y2="300.3066"/><text fill="#000000" font-family="sans-serif" font-size="13" lengthAdjust="spacingAndGlyphs" textLength="59" x="121" y="295.875">ShareApp</text><polygon fill="#A80036" points="431,325.6172,441,329.6172,431,333.6172,435,329.6172" style="stroke: #A80036; stroke-width: 1.0;"/><line style="stroke: #A80036; stroke-width: 1.0;" x1="277" x2="437" y1="329.6172" y2="329.6172"/><text fill="#000000" font-family="sans-serif" font-size="13" lengthAdjust="spacingAndGlyphs" textLength="88" x="284" y="325.1855">CreateSession</text><polygon fill="#A80036" points="572.5,354.9277,582.5,358.9277,572.5,362.9277,576.5,358.9277" style="stroke: #A80036; stroke-width: 1.0;"/><line style="stroke: #A80036; stroke-width: 1.0;" x1="443" x2="578.5" y1="358.9277" y2="358.9277"/><text fill="#000000" font-family="sans-serif" font-size="13" lengthAdjust="spacingAndGlyphs" textLength="88" x="450" y="354.4961">CreateSession</text><polygon fill="#A80036" points="709,384.2383,719,388.2383,709,392.2383,713,388.2383" style="stroke: #A80036; stroke-width: 1.0;"/><line style="stroke: #A80036; stroke-width: 1.0;" x1="584.5" x2="715" y1="388.2383" y2="388.2383"/><text fill="#000000" font-family="sans-serif" font-size="13" lengthAdjust="spacingAndGlyphs" textLength="88" x="591.5" y="383.8066">SessionCreate</text><polygon fill="#A80036" points="914,413.5488,924,417.5488,914,421.5488,918,417.5488" style="stroke: #A80036; stroke-width: 1.0;"/><line style="stroke: #A80036; stroke-width: 1.0;" x1="721" x2="920" y1="417.5488" y2="417.5488"/><text fill="#000000" font-family="sans-serif" font-size="13" lengthAdjust="spacingAndGlyphs" textLength="147" x="728" y="413.1172">session_create_request</text><rect fill="#EEEEEE" filter="url(#f1)" height="3" style="stroke: #EEEEEE; stroke-width: 1.0;" width="950.5" x="3" y="446.5146"/><line style="stroke: #000000; stroke-width: 1.0;" x1="3" x2="953.5" y1="446.5146" y2="446.5146"/><line style="stroke: #000000; stroke-width: 1.0;" x1="3" x2="953.5" y1="449.5146" y2="449.5146"/><rect fill="#EEEEEE" filter="url(#f1)" height="23.3105" style="stroke: #000000; stroke-width: 2.0;" width="321" x="317.75" y="435.8594"/><text fill="#000000" font-family="sans-serif" font-size="13" font-weight="bold" lengthAdjust="spacingAndGlyphs" textLength="307" x="323.75" y="452.4277">receive session close indication from network</text><polygon fill="#A80036" points="732,486.1699,722,490.1699,732,494.1699,728,490.1699" style="stroke: #A80036; stroke-width: 1.0;"/><line style="stroke: #A80036; stroke-width: 1.0;" x1="726" x2="925" y1="490.1699" y2="490.1699"/><text fill="#000000" font-family="sans-serif" font-size="13" lengthAdjust="spacingAndGlyphs" textLength="181" x="738" y="485.7383">on_session_close_indication</text><rect fill="#EEEEEE" filter="url(#f1)" height="3" style="stroke: #EEEEEE; stroke-width: 1.0;" width="950.5" x="3" y="519.1357"/><line style="stroke: #000000; stroke-width: 1.0;" x1="3" x2="953.5" y1="519.1357" y2="519.1357"/><line style="stroke: #000000; stroke-width: 1.0;" x1="3" x2="953.5" y1="522.1357" y2="522.1357"/><rect fill="#EEEEEE" filter="url(#f1)" height="23.3105" style="stroke: #000000; stroke-width: 2.0;" width="329" x="313.75" y="508.4805"/><text fill="#000000" font-family="sans-serif" font-size="13" font-weight="bold" lengthAdjust="spacingAndGlyphs" textLength="315" x="319.75" y="525.0488">receive session create indication from network</text><polygon fill="#A80036" points="732,558.791,722,562.791,732,566.791,728,562.791" style="stroke: #A80036; stroke-width: 1.0;"/><line style="stroke: #A80036; stroke-width: 1.0;" x1="726" x2="925" y1="562.791" y2="562.791"/><text fill="#000000" font-family="sans-serif" font-size="13" lengthAdjust="spacingAndGlyphs" textLength="172" x="738" y="558.3594">on_session_create_confirm</text></g></svg>