<?xml version="1.0" encoding="UTF-8" standalone="yes"?><svg xmlns="http://www.w3.org/2000/svg" xmlns:xlink="http://www.w3.org/1999/xlink" height="1146pt" style="width:1341px;height:1146px;" version="1.1" viewBox="0 0 1341 1146" width="1341pt"><defs><filter height="300%" id="f1" width="300%" x="-1" y="-1"><feGaussianBlur result="blurOut" stdDeviation="2.0"/><feColorMatrix in="blurOut" result="blurOut2" type="matrix" values="0 0 0 0 0 0 0 0 0 0 0 0 0 0 0 0 0 0 .4 0"/><feOffset dx="4.0" dy="4.0" in="blurOut2" result="blurOut3"/><feBlend in="SourceGraphic" in2="blurOut3" mode="normal"/></filter></defs><g><rect fill="#DDDDDD" height="1141.9141" style="stroke: #A80036; stroke-width: 1.0;" width="313" x="141.5" y="4"/><text fill="#000000" font-family="sans-serif" font-size="13" font-weight="bold" lengthAdjust="spacingAndGlyphs" textLength="96" x="250" y="16.5684">ConferencMgr</text><rect fill="#DDDDDD" height="1141.9141" style="stroke: #A80036; stroke-width: 1.0;" width="582.5" x="456.5" y="4"/><text fill="#000000" font-family="sans-serif" font-size="13" font-weight="bold" lengthAdjust="spacingAndGlyphs" textLength="75" x="710.25" y="16.5684">ServiceMgr</text><rect fill="#DDDDDD" height="1141.9141" style="stroke: #A80036; stroke-width: 1.0;" width="133" x="1041" y="4"/><text fill="#000000" font-family="sans-serif" font-size="13" font-weight="bold" lengthAdjust="spacingAndGlyphs" textLength="72" x="1071.5" y="16.5684">WebexMgr</text><line style="stroke: #A80036; stroke-width: 1.0; stroke-dasharray: 5.0,5.0;" x1="224.5" x2="224.5" y1="58.7988" y2="1107.4258"/><line style="stroke: #A80036; stroke-width: 1.0; stroke-dasharray: 5.0,5.0;" x1="382.5" x2="382.5" y1="58.7988" y2="1107.4258"/><line style="stroke: #A80036; stroke-width: 1.0; stroke-dasharray: 5.0,5.0;" x1="523.5" x2="523.5" y1="58.7988" y2="1107.4258"/><line style="stroke: #A80036; stroke-width: 1.0; stroke-dasharray: 5.0,5.0;" x1="746" x2="746" y1="58.7988" y2="1107.4258"/><line style="stroke: #A80036; stroke-width: 1.0; stroke-dasharray: 5.0,5.0;" x1="976" x2="976" y1="58.7988" y2="1107.4258"/><line style="stroke: #A80036; stroke-width: 1.0; stroke-dasharray: 5.0,5.0;" x1="1107" x2="1107" y1="58.7988" y2="1107.4258"/><rect fill="#FEFECE" filter="url(#f1)" height="30.4883" style="stroke: #A80036; stroke-width: 1.5;" width="155" x="145.5" y="23.3105"/><text fill="#000000" font-family="sans-serif" font-size="14" lengthAdjust="spacingAndGlyphs" textLength="141" x="152.5" y="43.8457">IAtConfManagerSink</text><rect fill="#FEFECE" filter="url(#f1)" height="30.4883" style="stroke: #A80036; stroke-width: 1.5;" width="155" x="145.5" y="1106.4258"/><text fill="#000000" font-family="sans-serif" font-size="14" lengthAdjust="spacingAndGlyphs" textLength="141" x="152.5" y="1126.9609">IAtConfManagerSink</text><rect fill="#FEFECE" filter="url(#f1)" height="30.4883" style="stroke: #A80036; stroke-width: 1.5;" width="132" x="314.5" y="23.3105"/><text fill="#000000" font-family="sans-serif" font-size="14" lengthAdjust="spacingAndGlyphs" textLength="118" x="321.5" y="43.8457">CAtConfManager</text><rect fill="#FEFECE" filter="url(#f1)" height="30.4883" style="stroke: #A80036; stroke-width: 1.5;" width="132" x="314.5" y="1106.4258"/><text fill="#000000" font-family="sans-serif" font-size="14" lengthAdjust="spacingAndGlyphs" textLength="118" x="321.5" y="1126.9609">CAtConfManager</text><rect fill="#FEFECE" filter="url(#f1)" height="30.4883" style="stroke: #A80036; stroke-width: 1.5;" width="123" x="460.5" y="23.3105"/><text fill="#000000" font-family="sans-serif" font-size="14" lengthAdjust="spacingAndGlyphs" textLength="109" x="467.5" y="43.8457">CPfwServiceMgr</text><rect fill="#FEFECE" filter="url(#f1)" height="30.4883" style="stroke: #A80036; stroke-width: 1.5;" width="123" x="460.5" y="1106.4258"/><text fill="#000000" font-family="sans-serif" font-size="14" lengthAdjust="spacingAndGlyphs" textLength="109" x="467.5" y="1126.9609">CPfwServiceMgr</text><rect fill="#FEFECE" filter="url(#f1)" height="30.4883" style="stroke: #A80036; stroke-width: 1.5;" width="94" x="697" y="23.3105"/><text fill="#000000" font-family="sans-serif" font-size="14" lengthAdjust="spacingAndGlyphs" textLength="80" x="704" y="43.8457">CSmCSIMgr</text><rect fill="#FEFECE" filter="url(#f1)" height="30.4883" style="stroke: #A80036; stroke-width: 1.5;" width="94" x="697" y="1106.4258"/><text fill="#000000" font-family="sans-serif" font-size="14" lengthAdjust="spacingAndGlyphs" textLength="80" x="704" y="1126.9609">CSmCSIMgr</text><rect fill="#FEFECE" filter="url(#f1)" height="30.4883" style="stroke: #A80036; stroke-width: 1.5;" width="114" x="917" y="23.3105"/><text fill="#000000" font-family="sans-serif" font-size="14" lengthAdjust="spacingAndGlyphs" textLength="100" x="924" y="43.8457">CSmCacheMgr</text><rect fill="#FEFECE" filter="url(#f1)" height="30.4883" style="stroke: #A80036; stroke-width: 1.5;" width="114" x="917" y="1106.4258"/><text fill="#000000" font-family="sans-serif" font-size="14" lengthAdjust="spacingAndGlyphs" textLength="100" x="924" y="1126.9609">CSmCacheMgr</text><rect fill="#FEFECE" filter="url(#f1)" height="30.4883" style="stroke: #A80036; stroke-width: 1.5;" width="121" x="1045" y="23.3105"/><text fill="#000000" font-family="sans-serif" font-size="14" lengthAdjust="spacingAndGlyphs" textLength="107" x="1052" y="43.8457">CMCServiceMgr</text><rect fill="#FEFECE" filter="url(#f1)" height="30.4883" style="stroke: #A80036; stroke-width: 1.5;" width="121" x="1045" y="1106.4258"/><text fill="#000000" font-family="sans-serif" font-size="14" lengthAdjust="spacingAndGlyphs" textLength="107" x="1052" y="1126.9609">CMCServiceMgr</text><rect fill="#EEEEEE" filter="url(#f1)" height="3" style="stroke: #EEEEEE; stroke-width: 1.0;" width="1333" x="3" y="89.4541"/><line style="stroke: #000000; stroke-width: 1.0;" x1="3" x2="1336" y1="89.4541" y2="89.4541"/><line style="stroke: #000000; stroke-width: 1.0;" x1="3" x2="1336" y1="92.4541" y2="92.4541"/><rect fill="#EEEEEE" filter="url(#f1)" height="23.3105" style="stroke: #000000; stroke-width: 2.0;" width="161" x="589" y="78.7988"/><text fill="#000000" font-family="sans-serif" font-size="13" font-weight="bold" lengthAdjust="spacingAndGlyphs" textLength="143" x="595" y="95.3672">Allocate Audio Cache</text><polygon fill="#A80036" points="213,129.1094,223,133.1094,213,137.1094,217,133.1094" style="stroke: #A80036; stroke-width: 1.0;"/><line style="stroke: #A80036; stroke-width: 1.0; stroke-dasharray: 2.0,2.0;" x1="3" x2="219" y1="133.1094" y2="133.1094"/><text fill="#000000" font-family="sans-serif" font-size="13" lengthAdjust="spacingAndGlyphs" textLength="123" x="10" y="128.6777">OnConfJoinConfirm</text><polygon fill="#A80036" points="512,158.4199,522,162.4199,512,166.4199,516,162.4199" style="stroke: #A80036; stroke-width: 1.0;"/><line style="stroke: #A80036; stroke-width: 1.0; stroke-dasharray: 2.0,2.0;" x1="225" x2="518" y1="162.4199" y2="162.4199"/><text fill="#000000" font-family="sans-serif" font-size="13" lengthAdjust="spacingAndGlyphs" textLength="123" x="232" y="157.9883">OnConfJoinConfirm</text><polygon fill="#A80036" points="1095.5,187.7305,1105.5,191.7305,1095.5,195.7305,1099.5,191.7305" style="stroke: #A80036; stroke-width: 1.0;"/><line style="stroke: #A80036; stroke-width: 1.0; stroke-dasharray: 2.0,2.0;" x1="524" x2="1101.5" y1="191.7305" y2="191.7305"/><text fill="#000000" font-family="sans-serif" font-size="13" lengthAdjust="spacingAndGlyphs" textLength="123" x="531" y="187.2988">OnConfJoinConfirm</text><polygon fill="#A80036" points="757,217.041,747,221.041,757,225.041,753,221.041" style="stroke: #A80036; stroke-width: 1.0;"/><line style="stroke: #A80036; stroke-width: 1.0; stroke-dasharray: 2.0,2.0;" x1="751" x2="1106.5" y1="221.041" y2="221.041"/><text fill="#000000" font-family="sans-serif" font-size="13" lengthAdjust="spacingAndGlyphs" textLength="87" x="763" y="216.6094">SetServiceMgr</text><polygon fill="#A80036" points="757,246.3516,747,250.3516,757,254.3516,753,250.3516" style="stroke: #A80036; stroke-width: 1.0;"/><line style="stroke: #A80036; stroke-width: 1.0; stroke-dasharray: 2.0,2.0;" x1="751" x2="1106.5" y1="250.3516" y2="250.3516"/><text fill="#000000" font-family="sans-serif" font-size="13" lengthAdjust="spacingAndGlyphs" textLength="123" x="763" y="245.9199">OnConfJoinConfirm</text><polygon fill="#A80036" points="964,280.6621,974,284.6621,964,288.6621,968,284.6621" style="stroke: #A80036; stroke-width: 1.0;"/><line style="stroke: #A80036; stroke-width: 1.0; stroke-dasharray: 2.0,2.0;" x1="746" x2="970" y1="284.6621" y2="284.6621"/><text fill="#000000" font-family="sans-serif" font-size="13" lengthAdjust="spacingAndGlyphs" textLength="123" x="753" y="280.2305">OnConfJoinConfirm</text><polygon fill="#FBFB77" filter="url(#f1)" points="981,263.6621,981,288.6621,1260,288.6621,1260,273.6621,1250,263.6621,981,263.6621" style="stroke: #A80036; stroke-width: 1.0;"/><line style="stroke: #A80036; stroke-width: 1.0;" x1="1250" x2="1250" y1="263.6621" y2="273.6621"/><line style="stroke: #A80036; stroke-width: 1.0;" x1="1260" x2="1250" y1="273.6621" y2="273.6621"/><text fill="#000000" font-family="sans-serif" font-size="13" lengthAdjust="spacingAndGlyphs" textLength="258" x="987" y="281.2305">eAllocCacheHandle, push to m_wkQueue</text><polygon fill="#A80036" points="512,314.9727,522,318.9727,512,322.9727,516,318.9727" style="stroke: #A80036; stroke-width: 1.0;"/><line style="stroke: #A80036; stroke-width: 1.0; stroke-dasharray: 2.0,2.0;" x1="3" x2="518" y1="318.9727" y2="318.9727"/><text fill="#000000" font-family="sans-serif" font-size="13" lengthAdjust="spacingAndGlyphs" textLength="41" x="10" y="314.541">OnIdle</text><polygon fill="#A80036" points="734,344.2832,744,348.2832,734,352.2832,738,348.2832" style="stroke: #A80036; stroke-width: 1.0;"/><line style="stroke: #A80036; stroke-width: 1.0; stroke-dasharray: 2.0,2.0;" x1="524" x2="740" y1="348.2832" y2="348.2832"/><text fill="#000000" font-family="sans-serif" font-size="13" lengthAdjust="spacingAndGlyphs" textLength="41" x="531" y="343.8516">OnIdle</text><polygon fill="#A80036" points="964,373.5938,974,377.5938,964,381.5938,968,377.5938" style="stroke: #A80036; stroke-width: 1.0;"/><line style="stroke: #A80036; stroke-width: 1.0; stroke-dasharray: 2.0,2.0;" x1="746" x2="970" y1="377.5938" y2="377.5938"/><text fill="#000000" font-family="sans-serif" font-size="13" lengthAdjust="spacingAndGlyphs" textLength="41" x="753" y="373.1621">OnIdle</text><line style="stroke: #A80036; stroke-width: 1.0; stroke-dasharray: 2.0,2.0;" x1="976" x2="1018" y1="407.2148" y2="407.2148"/><line style="stroke: #A80036; stroke-width: 1.0; stroke-dasharray: 2.0,2.0;" x1="1018" x2="1018" y1="407.2148" y2="420.2148"/><line style="stroke: #A80036; stroke-width: 1.0; stroke-dasharray: 2.0,2.0;" x1="977" x2="1018" y1="420.2148" y2="420.2148"/><polygon fill="#A80036" points="987,416.2148,977,420.2148,987,424.2148,983,420.2148" style="stroke: #A80036; stroke-width: 1.0;"/><text fill="#000000" font-family="sans-serif" font-size="13" lengthAdjust="spacingAndGlyphs" textLength="114" x="983" y="402.4727">AllocCacheHandle</text><polygon fill="#FBFB77" filter="url(#f1)" points="1109,392.4043,1109,417.4043,1264,417.4043,1264,402.4043,1254,392.4043,1109,392.4043" style="stroke: #A80036; stroke-width: 1.0;"/><line style="stroke: #A80036; stroke-width: 1.0;" x1="1254" x2="1254" y1="392.4043" y2="402.4043"/><line style="stroke: #A80036; stroke-width: 1.0;" x1="1264" x2="1254" y1="402.4043" y2="402.4043"/><text fill="#000000" font-family="sans-serif" font-size="13" lengthAdjust="spacingAndGlyphs" textLength="134" x="1115" y="409.9727">Allocate Audio Cache</text><polygon fill="#A80036" points="393.5,445.2148,383.5,449.2148,393.5,453.2148,389.5,449.2148" style="stroke: #A80036; stroke-width: 1.0;"/><line style="stroke: #A80036; stroke-width: 1.0; stroke-dasharray: 2.0,2.0;" x1="387.5" x2="975" y1="449.2148" y2="449.2148"/><text fill="#000000" font-family="sans-serif" font-size="13" lengthAdjust="spacingAndGlyphs" textLength="179" x="399.5" y="444.7832">NamehandleAllocateRequest</text><polygon fill="#A80036" points="213,474.5254,223,478.5254,213,482.5254,217,478.5254" style="stroke: #A80036; stroke-width: 1.0;"/><line style="stroke: #A80036; stroke-width: 1.0; stroke-dasharray: 2.0,2.0;" x1="3" x2="219" y1="478.5254" y2="478.5254"/><text fill="#000000" font-family="sans-serif" font-size="13" lengthAdjust="spacingAndGlyphs" textLength="198" x="10" y="474.0938">OnNamehandleAllocateConfirm</text><polygon fill="#A80036" points="1095.5,503.8359,1105.5,507.8359,1095.5,511.8359,1099.5,507.8359" style="stroke: #A80036; stroke-width: 1.0;"/><line style="stroke: #A80036; stroke-width: 1.0; stroke-dasharray: 2.0,2.0;" x1="225" x2="1101.5" y1="507.8359" y2="507.8359"/><text fill="#000000" font-family="sans-serif" font-size="13" lengthAdjust="spacingAndGlyphs" textLength="198" x="232" y="503.4043">OnNamehandleAllocateConfirm</text><polygon fill="#A80036" points="535,533.1465,525,537.1465,535,541.1465,531,537.1465" style="stroke: #A80036; stroke-width: 1.0;"/><line style="stroke: #A80036; stroke-width: 1.0; stroke-dasharray: 2.0,2.0;" x1="529" x2="1106.5" y1="537.1465" y2="537.1465"/><text fill="#000000" font-family="sans-serif" font-size="13" lengthAdjust="spacingAndGlyphs" textLength="198" x="541" y="532.7148">OnNamehandleAllocateConfirm</text><polygon fill="#A80036" points="734,562.457,744,566.457,734,570.457,738,566.457" style="stroke: #A80036; stroke-width: 1.0;"/><line style="stroke: #A80036; stroke-width: 1.0; stroke-dasharray: 2.0,2.0;" x1="524" x2="740" y1="566.457" y2="566.457"/><text fill="#000000" font-family="sans-serif" font-size="13" lengthAdjust="spacingAndGlyphs" textLength="198" x="531" y="562.0254">OnNamehandleAllocateConfirm</text><polygon fill="#A80036" points="964,596.7676,974,600.7676,964,604.7676,968,600.7676" style="stroke: #A80036; stroke-width: 1.0;"/><line style="stroke: #A80036; stroke-width: 1.0; stroke-dasharray: 2.0,2.0;" x1="746" x2="970" y1="600.7676" y2="600.7676"/><text fill="#000000" font-family="sans-serif" font-size="13" lengthAdjust="spacingAndGlyphs" textLength="198" x="753" y="596.3359">OnNamehandleAllocateConfirm</text><polygon fill="#FBFB77" filter="url(#f1)" points="981,579.7676,981,604.7676,1327,604.7676,1327,589.7676,1317,579.7676,981,579.7676" style="stroke: #A80036; stroke-width: 1.0;"/><line style="stroke: #A80036; stroke-width: 1.0;" x1="1317" x2="1317" y1="579.7676" y2="589.7676"/><line style="stroke: #A80036; stroke-width: 1.0;" x1="1327" x2="1317" y1="589.7676" y2="589.7676"/><text fill="#000000" font-family="sans-serif" font-size="13" lengthAdjust="spacingAndGlyphs" textLength="325" x="987" y="597.3359">m_dwCacheHandle = pNameHandle-&gt;handle_value</text><rect fill="#EEEEEE" filter="url(#f1)" height="3" style="stroke: #EEEEEE; stroke-width: 1.0;" width="1333" x="3" y="634.7334"/><line style="stroke: #000000; stroke-width: 1.0;" x1="3" x2="1336" y1="634.7334" y2="634.7334"/><line style="stroke: #000000; stroke-width: 1.0;" x1="3" x2="1336" y1="637.7334" y2="637.7334"/><rect fill="#EEEEEE" filter="url(#f1)" height="23.3105" style="stroke: #000000; stroke-width: 2.0;" width="173" x="583" y="624.0781"/><text fill="#000000" font-family="sans-serif" font-size="13" font-weight="bold" lengthAdjust="spacingAndGlyphs" textLength="155" x="589" y="640.6465">Subscribe Audio Cache</text><polygon fill="#A80036" points="512,674.3887,522,678.3887,512,682.3887,516,678.3887" style="stroke: #A80036; stroke-width: 1.0;"/><line style="stroke: #A80036; stroke-width: 1.0; stroke-dasharray: 2.0,2.0;" x1="3" x2="518" y1="678.3887" y2="678.3887"/><text fill="#000000" font-family="sans-serif" font-size="13" lengthAdjust="spacingAndGlyphs" textLength="41" x="10" y="673.957">OnIdle</text><polygon fill="#A80036" points="734,703.6992,744,707.6992,734,711.6992,738,707.6992" style="stroke: #A80036; stroke-width: 1.0;"/><line style="stroke: #A80036; stroke-width: 1.0; stroke-dasharray: 2.0,2.0;" x1="524" x2="740" y1="707.6992" y2="707.6992"/><text fill="#000000" font-family="sans-serif" font-size="13" lengthAdjust="spacingAndGlyphs" textLength="41" x="531" y="703.2676">OnIdle</text><line style="stroke: #A80036; stroke-width: 1.0; stroke-dasharray: 2.0,2.0;" x1="746" x2="788" y1="737.3203" y2="737.3203"/><line style="stroke: #A80036; stroke-width: 1.0; stroke-dasharray: 2.0,2.0;" x1="788" x2="788" y1="737.3203" y2="750.3203"/><line style="stroke: #A80036; stroke-width: 1.0; stroke-dasharray: 2.0,2.0;" x1="747" x2="788" y1="750.3203" y2="750.3203"/><polygon fill="#A80036" points="757,746.3203,747,750.3203,757,754.3203,753,750.3203" style="stroke: #A80036; stroke-width: 1.0;"/><text fill="#000000" font-family="sans-serif" font-size="13" lengthAdjust="spacingAndGlyphs" textLength="90" x="753" y="732.5781">SubscribeFiles</text><line style="stroke: #A80036; stroke-width: 1.0; stroke-dasharray: 2.0,2.0;" x1="746" x2="788" y1="779.6309" y2="779.6309"/><line style="stroke: #A80036; stroke-width: 1.0; stroke-dasharray: 2.0,2.0;" x1="788" x2="788" y1="779.6309" y2="792.6309"/><line style="stroke: #A80036; stroke-width: 1.0; stroke-dasharray: 2.0,2.0;" x1="747" x2="788" y1="792.6309" y2="792.6309"/><polygon fill="#A80036" points="757,788.6309,747,792.6309,757,796.6309,753,792.6309" style="stroke: #A80036; stroke-width: 1.0;"/><text fill="#000000" font-family="sans-serif" font-size="13" lengthAdjust="spacingAndGlyphs" textLength="216" x="753" y="774.8887">SubscribeCacheFile(CSITypeAudio)</text><polygon fill="#A80036" points="964,822.6309,974,826.6309,964,830.6309,968,826.6309" style="stroke: #A80036; stroke-width: 1.0;"/><line style="stroke: #A80036; stroke-width: 1.0; stroke-dasharray: 2.0,2.0;" x1="746" x2="970" y1="826.6309" y2="826.6309"/><text fill="#000000" font-family="sans-serif" font-size="13" lengthAdjust="spacingAndGlyphs" textLength="101" x="753" y="822.1992">Add(eSubscribe)</text><polygon fill="#FBFB77" filter="url(#f1)" points="981,805.6309,981,830.6309,1207,830.6309,1207,815.6309,1197,805.6309,981,805.6309" style="stroke: #A80036; stroke-width: 1.0;"/><line style="stroke: #A80036; stroke-width: 1.0;" x1="1197" x2="1197" y1="805.6309" y2="815.6309"/><line style="stroke: #A80036; stroke-width: 1.0;" x1="1207" x2="1197" y1="815.6309" y2="815.6309"/><text fill="#000000" font-family="sans-serif" font-size="13" lengthAdjust="spacingAndGlyphs" textLength="205" x="987" y="823.1992">eSubscribe, push to m_wkQueue</text><polygon fill="#A80036" points="964,856.9414,974,860.9414,964,864.9414,968,860.9414" style="stroke: #A80036; stroke-width: 1.0;"/><line style="stroke: #A80036; stroke-width: 1.0; stroke-dasharray: 2.0,2.0;" x1="746" x2="970" y1="860.9414" y2="860.9414"/><text fill="#000000" font-family="sans-serif" font-size="13" lengthAdjust="spacingAndGlyphs" textLength="41" x="753" y="856.5098">OnIdle</text><line style="stroke: #A80036; stroke-width: 1.0; stroke-dasharray: 2.0,2.0;" x1="976" x2="1018" y1="890.5625" y2="890.5625"/><line style="stroke: #A80036; stroke-width: 1.0; stroke-dasharray: 2.0,2.0;" x1="1018" x2="1018" y1="890.5625" y2="903.5625"/><line style="stroke: #A80036; stroke-width: 1.0; stroke-dasharray: 2.0,2.0;" x1="977" x2="1018" y1="903.5625" y2="903.5625"/><polygon fill="#A80036" points="987,899.5625,977,903.5625,987,907.5625,983,903.5625" style="stroke: #A80036; stroke-width: 1.0;"/><text fill="#000000" font-family="sans-serif" font-size="13" lengthAdjust="spacingAndGlyphs" textLength="61" x="983" y="885.8203">Subscribe</text><polygon fill="#A80036" points="393.5,933.5625,383.5,937.5625,393.5,941.5625,389.5,937.5625" style="stroke: #A80036; stroke-width: 1.0;"/><line style="stroke: #A80036; stroke-width: 1.0; stroke-dasharray: 2.0,2.0;" x1="387.5" x2="975" y1="937.5625" y2="937.5625"/><text fill="#000000" font-family="sans-serif" font-size="13" lengthAdjust="spacingAndGlyphs" textLength="153" x="399.5" y="933.1309">CacheRetrieveRequestEx</text><polygon fill="#FBFB77" filter="url(#f1)" points="981,916.5625,981,941.5625,1173,941.5625,1173,926.5625,1163,916.5625,981,916.5625" style="stroke: #A80036; stroke-width: 1.0;"/><line style="stroke: #A80036; stroke-width: 1.0;" x1="1163" x2="1163" y1="916.5625" y2="926.5625"/><line style="stroke: #A80036; stroke-width: 1.0;" x1="1173" x2="1163" y1="926.5625" y2="926.5625"/><text fill="#000000" font-family="sans-serif" font-size="13" lengthAdjust="spacingAndGlyphs" textLength="171" x="987" y="934.1309">send subscribe request out</text><polygon fill="#A80036" points="213,967.873,223,971.873,213,975.873,217,971.873" style="stroke: #A80036; stroke-width: 1.0;"/><line style="stroke: #A80036; stroke-width: 1.0; stroke-dasharray: 2.0,2.0;" x1="3" x2="219" y1="971.873" y2="971.873"/><text fill="#000000" font-family="sans-serif" font-size="13" lengthAdjust="spacingAndGlyphs" textLength="172" x="10" y="967.4414">OnCacheRetrieveConfirmEx</text><polygon fill="#A80036" points="1095.5,997.1836,1105.5,1001.1836,1095.5,1005.1836,1099.5,1001.1836" style="stroke: #A80036; stroke-width: 1.0;"/><line style="stroke: #A80036; stroke-width: 1.0; stroke-dasharray: 2.0,2.0;" x1="225" x2="1101.5" y1="1001.1836" y2="1001.1836"/><text fill="#000000" font-family="sans-serif" font-size="13" lengthAdjust="spacingAndGlyphs" textLength="172" x="232" y="996.752">OnCacheRetrieveConfirmEx</text><polygon fill="#A80036" points="535,1026.4941,525,1030.4941,535,1034.4941,531,1030.4941" style="stroke: #A80036; stroke-width: 1.0;"/><line style="stroke: #A80036; stroke-width: 1.0; stroke-dasharray: 2.0,2.0;" x1="529" x2="1106.5" y1="1030.4941" y2="1030.4941"/><text fill="#000000" font-family="sans-serif" font-size="13" lengthAdjust="spacingAndGlyphs" textLength="172" x="541" y="1026.0625">OnCacheRetrieveConfirmEx</text><polygon fill="#A80036" points="734,1055.8047,744,1059.8047,734,1063.8047,738,1059.8047" style="stroke: #A80036; stroke-width: 1.0;"/><line style="stroke: #A80036; stroke-width: 1.0; stroke-dasharray: 2.0,2.0;" x1="524" x2="740" y1="1059.8047" y2="1059.8047"/><text fill="#000000" font-family="sans-serif" font-size="13" lengthAdjust="spacingAndGlyphs" textLength="172" x="531" y="1055.373">OnCacheRetrieveConfirmEx</text><polygon fill="#A80036" points="964,1085.1152,974,1089.1152,964,1093.1152,968,1089.1152" style="stroke: #A80036; stroke-width: 1.0;"/><line style="stroke: #A80036; stroke-width: 1.0; stroke-dasharray: 2.0,2.0;" x1="746" x2="970" y1="1089.1152" y2="1089.1152"/><text fill="#000000" font-family="sans-serif" font-size="13" lengthAdjust="spacingAndGlyphs" textLength="172" x="753" y="1084.6836">OnCacheRetrieveConfirmEx</text></g></svg>