<?xml version="1.0" encoding="UTF-8" standalone="yes"?><svg xmlns="http://www.w3.org/2000/svg" xmlns:xlink="http://www.w3.org/1999/xlink" height="1001pt" style="width:2728px;height:1001px;" version="1.1" viewBox="0 0 2728 1001" width="2728pt"><defs><filter height="300%" id="f1" width="300%" x="-1" y="-1"><feGaussianBlur result="blurOut" stdDeviation="2.0"/><feColorMatrix in="blurOut" result="blurOut2" type="matrix" values="0 0 0 0 0 0 0 0 0 0 0 0 0 0 0 0 0 0 .4 0"/><feOffset dx="4.0" dy="4.0" in="blurOut2" result="blurOut3"/><feBlend in="SourceGraphic" in2="blurOut3" mode="normal"/></filter></defs><g><rect fill="#FFFFFF" filter="url(#f1)" height="58.6211" style="stroke: #A80036; stroke-width: 1.0;" width="10" x="414" y="119.1094"/><rect fill="#FFFFFF" filter="url(#f1)" height="58.6211" style="stroke: #A80036; stroke-width: 1.0;" width="10" x="748" y="177.7305"/><rect fill="#FFFFFF" filter="url(#f1)" height="115.9316" style="stroke: #A80036; stroke-width: 1.0;" width="10" x="748" y="527.8359"/><rect fill="#FFFFFF" filter="url(#f1)" height="82.6211" style="stroke: #A80036; stroke-width: 1.0;" width="10" x="891" y="312.9727"/><rect fill="#DDDDDD" height="996.3613" style="stroke: #A80036; stroke-width: 1.0;" width="125" x="155.5" y="4"/><text fill="#000000" font-family="sans-serif" font-size="13" font-weight="bold" lengthAdjust="spacingAndGlyphs" textLength="96" x="170" y="16.5684">ConferencMgr</text><rect fill="#DDDDDD" height="996.3613" style="stroke: #A80036; stroke-width: 1.0;" width="331" x="352.5" y="4"/><text fill="#000000" font-family="sans-serif" font-size="13" font-weight="bold" lengthAdjust="spacingAndGlyphs" textLength="72" x="482" y="16.5684">WebExMgr</text><rect fill="#DDDDDD" height="996.3613" style="stroke: #A80036; stroke-width: 1.0;" width="887.5" x="685.5" y="4"/><text fill="#000000" font-family="sans-serif" font-size="13" font-weight="bold" lengthAdjust="spacingAndGlyphs" textLength="75" x="1091.75" y="16.5684">ServiceMgr</text><rect fill="#DDDDDD" height="996.3613" style="stroke: #A80036; stroke-width: 1.0;" width="177" x="1575" y="4"/><text fill="#000000" font-family="sans-serif" font-size="13" font-weight="bold" lengthAdjust="spacingAndGlyphs" textLength="20" x="1653.5" y="16.5684">cm</text><rect fill="#DDDDDD" height="996.3613" style="stroke: #A80036; stroke-width: 1.0;" width="883" x="1754" y="4"/><text fill="#000000" font-family="sans-serif" font-size="13" font-weight="bold" lengthAdjust="spacingAndGlyphs" textLength="63" x="2164" y="16.5684">HybridCli</text><rect fill="#DDDDDD" height="996.3613" style="stroke: #A80036; stroke-width: 1.0;" width="76" x="2651" y="4"/><text fill="#000000" font-family="sans-serif" font-size="13" font-weight="bold" lengthAdjust="spacingAndGlyphs" textLength="48" x="2665" y="16.5684">mac.dll</text><line style="stroke: #A80036; stroke-width: 1.0; stroke-dasharray: 5.0,5.0;" x1="217.5" x2="217.5" y1="58.7988" y2="961.873"/><line style="stroke: #A80036; stroke-width: 1.0; stroke-dasharray: 5.0,5.0;" x1="418.5" x2="418.5" y1="58.7988" y2="961.873"/><line style="stroke: #A80036; stroke-width: 1.0; stroke-dasharray: 5.0,5.0;" x1="619.5" x2="619.5" y1="58.7988" y2="961.873"/><line style="stroke: #A80036; stroke-width: 1.0; stroke-dasharray: 5.0,5.0;" x1="752.5" x2="752.5" y1="58.7988" y2="961.873"/><line style="stroke: #A80036; stroke-width: 1.0; stroke-dasharray: 5.0,5.0;" x1="896" x2="896" y1="58.7988" y2="961.873"/><line style="stroke: #A80036; stroke-width: 1.0; stroke-dasharray: 5.0,5.0;" x1="1056.5" x2="1056.5" y1="58.7988" y2="961.873"/><line style="stroke: #A80036; stroke-width: 1.0; stroke-dasharray: 5.0,5.0;" x1="1218" x2="1218" y1="58.7988" y2="961.873"/><line style="stroke: #A80036; stroke-width: 1.0; stroke-dasharray: 5.0,5.0;" x1="1337" x2="1337" y1="58.7988" y2="961.873"/><line style="stroke: #A80036; stroke-width: 1.0; stroke-dasharray: 5.0,5.0;" x1="1488" x2="1488" y1="58.7988" y2="961.873"/><line style="stroke: #A80036; stroke-width: 1.0; stroke-dasharray: 5.0,5.0;" x1="1663" x2="1663" y1="58.7988" y2="961.873"/><line style="stroke: #A80036; stroke-width: 1.0; stroke-dasharray: 5.0,5.0;" x1="1800" x2="1800" y1="58.7988" y2="961.873"/><line style="stroke: #A80036; stroke-width: 1.0; stroke-dasharray: 5.0,5.0;" x1="1921" x2="1921" y1="58.7988" y2="961.873"/><line style="stroke: #A80036; stroke-width: 1.0; stroke-dasharray: 5.0,5.0;" x1="2070" x2="2070" y1="58.7988" y2="961.873"/><line style="stroke: #A80036; stroke-width: 1.0; stroke-dasharray: 5.0,5.0;" x1="2239" x2="2239" y1="58.7988" y2="961.873"/><line style="stroke: #A80036; stroke-width: 1.0; stroke-dasharray: 5.0,5.0;" x1="2394" x2="2394" y1="58.7988" y2="961.873"/><line style="stroke: #A80036; stroke-width: 1.0; stroke-dasharray: 5.0,5.0;" x1="2557" x2="2557" y1="58.7988" y2="961.873"/><line style="stroke: #A80036; stroke-width: 1.0; stroke-dasharray: 5.0,5.0;" x1="2689" x2="2689" y1="58.7988" y2="961.873"/><rect fill="#FEFECE" filter="url(#f1)" height="30.4883" style="stroke: #A80036; stroke-width: 1.5;" width="113" x="159.5" y="23.3105"/><text fill="#000000" font-family="sans-serif" font-size="14" lengthAdjust="spacingAndGlyphs" textLength="99" x="166.5" y="43.8457">CAtConfAgent</text><rect fill="#FEFECE" filter="url(#f1)" height="30.4883" style="stroke: #A80036; stroke-width: 1.5;" width="113" x="159.5" y="960.873"/><text fill="#000000" font-family="sans-serif" font-size="14" lengthAdjust="spacingAndGlyphs" textLength="99" x="166.5" y="981.4082">CAtConfAgent</text><rect fill="#FEFECE" filter="url(#f1)" height="30.4883" style="stroke: #A80036; stroke-width: 1.5;" width="121" x="356.5" y="23.3105"/><text fill="#000000" font-family="sans-serif" font-size="14" lengthAdjust="spacingAndGlyphs" textLength="107" x="363.5" y="43.8457">CMCServiceMgr</text><rect fill="#FEFECE" filter="url(#f1)" height="30.4883" style="stroke: #A80036; stroke-width: 1.5;" width="121" x="356.5" y="960.873"/><text fill="#000000" font-family="sans-serif" font-size="14" lengthAdjust="spacingAndGlyphs" textLength="107" x="363.5" y="981.4082">CMCServiceMgr</text><rect fill="#FEFECE" filter="url(#f1)" height="30.4883" style="stroke: #A80036; stroke-width: 1.5;" width="115" x="560.5" y="23.3105"/><text fill="#000000" font-family="sans-serif" font-size="14" lengthAdjust="spacingAndGlyphs" textLength="101" x="567.5" y="43.8457">CMCCacheMgr</text><rect fill="#FEFECE" filter="url(#f1)" height="30.4883" style="stroke: #A80036; stroke-width: 1.5;" width="115" x="560.5" y="960.873"/><text fill="#000000" font-family="sans-serif" font-size="14" lengthAdjust="spacingAndGlyphs" textLength="101" x="567.5" y="981.4082">CMCCacheMgr</text><rect fill="#FEFECE" filter="url(#f1)" height="30.4883" style="stroke: #A80036; stroke-width: 1.5;" width="123" x="689.5" y="23.3105"/><text fill="#000000" font-family="sans-serif" font-size="14" lengthAdjust="spacingAndGlyphs" textLength="109" x="696.5" y="43.8457">CPfwServiceMgr</text><rect fill="#FEFECE" filter="url(#f1)" height="30.4883" style="stroke: #A80036; stroke-width: 1.5;" width="123" x="689.5" y="960.873"/><text fill="#000000" font-family="sans-serif" font-size="14" lengthAdjust="spacingAndGlyphs" textLength="109" x="696.5" y="981.4082">CPfwServiceMgr</text><rect fill="#FEFECE" filter="url(#f1)" height="30.4883" style="stroke: #A80036; stroke-width: 1.5;" width="114" x="837" y="23.3105"/><text fill="#000000" font-family="sans-serif" font-size="14" lengthAdjust="spacingAndGlyphs" textLength="100" x="844" y="43.8457">CSmCacheMgr</text><rect fill="#FEFECE" filter="url(#f1)" height="30.4883" style="stroke: #A80036; stroke-width: 1.5;" width="114" x="837" y="960.873"/><text fill="#000000" font-family="sans-serif" font-size="14" lengthAdjust="spacingAndGlyphs" textLength="100" x="844" y="981.4082">CSmCacheMgr</text><rect fill="#FEFECE" filter="url(#f1)" height="30.4883" style="stroke: #A80036; stroke-width: 1.5;" width="159" x="975.5" y="23.3105"/><text fill="#000000" font-family="sans-serif" font-size="14" lengthAdjust="spacingAndGlyphs" textLength="145" x="982.5" y="43.8457">ISmCacheUpdateSink</text><rect fill="#FEFECE" filter="url(#f1)" height="30.4883" style="stroke: #A80036; stroke-width: 1.5;" width="159" x="975.5" y="960.873"/><text fill="#000000" font-family="sans-serif" font-size="14" lengthAdjust="spacingAndGlyphs" textLength="145" x="982.5" y="981.4082">ISmCacheUpdateSink</text><rect fill="#FEFECE" filter="url(#f1)" height="30.4883" style="stroke: #A80036; stroke-width: 1.5;" width="94" x="1169" y="23.3105"/><text fill="#000000" font-family="sans-serif" font-size="14" lengthAdjust="spacingAndGlyphs" textLength="80" x="1176" y="43.8457">CSmCSIMgr</text><rect fill="#FEFECE" filter="url(#f1)" height="30.4883" style="stroke: #A80036; stroke-width: 1.5;" width="94" x="1169" y="960.873"/><text fill="#000000" font-family="sans-serif" font-size="14" lengthAdjust="spacingAndGlyphs" textLength="80" x="1176" y="981.4082">CSmCSIMgr</text><rect fill="#FEFECE" filter="url(#f1)" height="30.4883" style="stroke: #A80036; stroke-width: 1.5;" width="116" x="1277" y="23.3105"/><text fill="#000000" font-family="sans-serif" font-size="14" lengthAdjust="spacingAndGlyphs" textLength="102" x="1284" y="43.8457">CSmAvatarMgr</text><rect fill="#FEFECE" filter="url(#f1)" height="30.4883" style="stroke: #A80036; stroke-width: 1.5;" width="116" x="1277" y="960.873"/><text fill="#000000" font-family="sans-serif" font-size="14" lengthAdjust="spacingAndGlyphs" textLength="102" x="1284" y="981.4082">CSmAvatarMgr</text><rect fill="#FEFECE" filter="url(#f1)" height="30.4883" style="stroke: #A80036; stroke-width: 1.5;" width="158" x="1407" y="23.3105"/><text fill="#000000" font-family="sans-serif" font-size="14" lengthAdjust="spacingAndGlyphs" textLength="144" x="1414" y="43.8457">CSmHybridAudioMgr</text><rect fill="#FEFECE" filter="url(#f1)" height="30.4883" style="stroke: #A80036; stroke-width: 1.5;" width="158" x="1407" y="960.873"/><text fill="#000000" font-family="sans-serif" font-size="14" lengthAdjust="spacingAndGlyphs" textLength="144" x="1414" y="981.4082">CSmHybridAudioMgr</text><rect fill="#FEFECE" filter="url(#f1)" height="30.4883" style="stroke: #A80036; stroke-width: 1.5;" width="165" x="1579" y="23.3105"/><text fill="#000000" font-family="sans-serif" font-size="14" lengthAdjust="spacingAndGlyphs" textLength="151" x="1586" y="43.8457">CPcmHybridAudioMgr</text><rect fill="#FEFECE" filter="url(#f1)" height="30.4883" style="stroke: #A80036; stroke-width: 1.5;" width="165" x="1579" y="960.873"/><text fill="#000000" font-family="sans-serif" font-size="14" lengthAdjust="spacingAndGlyphs" textLength="151" x="1586" y="981.4082">CPcmHybridAudioMgr</text><rect fill="#FEFECE" filter="url(#f1)" height="30.4883" style="stroke: #A80036; stroke-width: 1.5;" width="80" x="1758" y="23.3105"/><text fill="#000000" font-family="sans-serif" font-size="14" lengthAdjust="spacingAndGlyphs" textLength="66" x="1765" y="43.8457">hybridAPI</text><rect fill="#FEFECE" filter="url(#f1)" height="30.4883" style="stroke: #A80036; stroke-width: 1.5;" width="80" x="1758" y="960.873"/><text fill="#000000" font-family="sans-serif" font-size="14" lengthAdjust="spacingAndGlyphs" textLength="66" x="1765" y="981.4082">hybridAPI</text><rect fill="#FEFECE" filter="url(#f1)" height="30.4883" style="stroke: #A80036; stroke-width: 1.5;" width="134" x="1852" y="23.3105"/><text fill="#000000" font-family="sans-serif" font-size="14" lengthAdjust="spacingAndGlyphs" textLength="120" x="1859" y="43.8457">CHybridClientCtrl</text><rect fill="#FEFECE" filter="url(#f1)" height="30.4883" style="stroke: #A80036; stroke-width: 1.5;" width="134" x="1852" y="960.873"/><text fill="#000000" font-family="sans-serif" font-size="14" lengthAdjust="spacingAndGlyphs" textLength="120" x="1859" y="981.4082">CHybridClientCtrl</text><rect fill="#FEFECE" filter="url(#f1)" height="30.4883" style="stroke: #A80036; stroke-width: 1.5;" width="136" x="2000" y="23.3105"/><text fill="#000000" font-family="sans-serif" font-size="14" lengthAdjust="spacingAndGlyphs" textLength="122" x="2007" y="43.8457">CHybridClientMgr</text><rect fill="#FEFECE" filter="url(#f1)" height="30.4883" style="stroke: #A80036; stroke-width: 1.5;" width="136" x="2000" y="960.873"/><text fill="#000000" font-family="sans-serif" font-size="14" lengthAdjust="spacingAndGlyphs" textLength="122" x="2007" y="981.4082">CHybridClientMgr</text><rect fill="#FEFECE" filter="url(#f1)" height="30.4883" style="stroke: #A80036; stroke-width: 1.5;" width="132" x="2171" y="23.3105"/><text fill="#000000" font-family="sans-serif" font-size="14" lengthAdjust="spacingAndGlyphs" textLength="118" x="2178" y="43.8457">CHCCVoIPService</text><rect fill="#FEFECE" filter="url(#f1)" height="30.4883" style="stroke: #A80036; stroke-width: 1.5;" width="132" x="2171" y="960.873"/><text fill="#000000" font-family="sans-serif" font-size="14" lengthAdjust="spacingAndGlyphs" textLength="118" x="2178" y="981.4082">CHCCVoIPService</text><rect fill="#FEFECE" filter="url(#f1)" height="30.4883" style="stroke: #A80036; stroke-width: 1.5;" width="150" x="2317" y="23.3105"/><text fill="#000000" font-family="sans-serif" font-size="14" lengthAdjust="spacingAndGlyphs" textLength="136" x="2324" y="43.8457">CHybridVoIPModule</text><rect fill="#FEFECE" filter="url(#f1)" height="30.4883" style="stroke: #A80036; stroke-width: 1.5;" width="150" x="2317" y="960.873"/><text fill="#000000" font-family="sans-serif" font-size="14" lengthAdjust="spacingAndGlyphs" textLength="136" x="2324" y="981.4082">CHybridVoIPModule</text><rect fill="#FEFECE" filter="url(#f1)" height="30.4883" style="stroke: #A80036; stroke-width: 1.5;" width="148" x="2481" y="23.3105"/><text fill="#000000" font-family="sans-serif" font-size="14" lengthAdjust="spacingAndGlyphs" textLength="134" x="2488" y="43.8457">AudioExportedProc</text><rect fill="#FEFECE" filter="url(#f1)" height="30.4883" style="stroke: #A80036; stroke-width: 1.5;" width="148" x="2481" y="960.873"/><text fill="#000000" font-family="sans-serif" font-size="14" lengthAdjust="spacingAndGlyphs" textLength="134" x="2488" y="981.4082">AudioExportedProc</text><rect fill="#FEFECE" filter="url(#f1)" height="30.4883" style="stroke: #A80036; stroke-width: 1.5;" width="64" x="2655" y="23.3105"/><text fill="#000000" font-family="sans-serif" font-size="14" lengthAdjust="spacingAndGlyphs" textLength="50" x="2662" y="43.8457">macAPI</text><rect fill="#FEFECE" filter="url(#f1)" height="30.4883" style="stroke: #A80036; stroke-width: 1.5;" width="64" x="2655" y="960.873"/><text fill="#000000" font-family="sans-serif" font-size="14" lengthAdjust="spacingAndGlyphs" textLength="50" x="2662" y="981.4082">macAPI</text><rect fill="#FFFFFF" filter="url(#f1)" height="58.6211" style="stroke: #A80036; stroke-width: 1.0;" width="10" x="414" y="119.1094"/><rect fill="#FFFFFF" filter="url(#f1)" height="58.6211" style="stroke: #A80036; stroke-width: 1.0;" width="10" x="748" y="177.7305"/><rect fill="#FFFFFF" filter="url(#f1)" height="115.9316" style="stroke: #A80036; stroke-width: 1.0;" width="10" x="748" y="527.8359"/><rect fill="#FFFFFF" filter="url(#f1)" height="82.6211" style="stroke: #A80036; stroke-width: 1.0;" width="10" x="891" y="312.9727"/><polygon fill="#A80036" points="206,85.7988,216,89.7988,206,93.7988,210,89.7988" style="stroke: #A80036; stroke-width: 1.0;"/><line style="stroke: #A80036; stroke-width: 1.0;" x1="3" x2="212" y1="89.7988" y2="89.7988"/><text fill="#000000" font-family="sans-serif" font-size="13" lengthAdjust="spacingAndGlyphs" textLength="191" x="10" y="85.3672">on_cache_retrieve_confirm_ex</text><polygon fill="#A80036" points="402,115.1094,412,119.1094,402,123.1094,406,119.1094" style="stroke: #A80036; stroke-width: 1.0;"/><line style="stroke: #A80036; stroke-width: 1.0;" x1="218" x2="408" y1="119.1094" y2="119.1094"/><text fill="#000000" font-family="sans-serif" font-size="13" lengthAdjust="spacingAndGlyphs" textLength="172" x="225" y="114.6777">OnCacheRetrieveConfirmEx</text><polygon fill="#A80036" points="608,144.4199,618,148.4199,608,152.4199,612,148.4199" style="stroke: #A80036; stroke-width: 1.0;"/><line style="stroke: #A80036; stroke-width: 1.0;" x1="424" x2="614" y1="148.4199" y2="148.4199"/><text fill="#000000" font-family="sans-serif" font-size="13" lengthAdjust="spacingAndGlyphs" textLength="172" x="431" y="143.9883">OnCacheRetrieveConfirmEx</text><polygon fill="#A80036" points="736,173.7305,746,177.7305,736,181.7305,740,177.7305" style="stroke: #A80036; stroke-width: 1.0;"/><line style="stroke: #A80036; stroke-width: 1.0;" x1="419" x2="742" y1="177.7305" y2="177.7305"/><text fill="#000000" font-family="sans-serif" font-size="13" lengthAdjust="spacingAndGlyphs" textLength="172" x="426" y="173.2988">OnCacheRetrieveConfirmEx</text><polygon fill="#A80036" points="1325,203.041,1335,207.041,1325,211.041,1329,207.041" style="stroke: #A80036; stroke-width: 1.0;"/><line style="stroke: #A80036; stroke-width: 1.0;" x1="758" x2="1331" y1="207.041" y2="207.041"/><text fill="#000000" font-family="sans-serif" font-size="13" lengthAdjust="spacingAndGlyphs" textLength="172" x="765" y="202.6094">OnCacheRetrieveConfirmEx</text><polygon fill="#A80036" points="1206,232.3516,1216,236.3516,1206,240.3516,1210,236.3516" style="stroke: #A80036; stroke-width: 1.0;"/><line style="stroke: #A80036; stroke-width: 1.0;" x1="753" x2="1212" y1="236.3516" y2="236.3516"/><text fill="#000000" font-family="sans-serif" font-size="13" lengthAdjust="spacingAndGlyphs" textLength="172" x="760" y="231.9199">OnCacheRetrieveConfirmEx</text><polygon fill="#A80036" points="907,266.6621,897,270.6621,907,274.6621,903,270.6621" style="stroke: #A80036; stroke-width: 1.0;"/><line style="stroke: #A80036; stroke-width: 1.0;" x1="901" x2="1217" y1="270.6621" y2="270.6621"/><text fill="#000000" font-family="sans-serif" font-size="13" lengthAdjust="spacingAndGlyphs" textLength="172" x="913" y="266.2305">OnCacheRetrieveConfirmEx</text><polygon fill="#FBFB77" filter="url(#f1)" points="1223,249.6621,1223,274.6621,1345,274.6621,1345,259.6621,1335,249.6621,1223,249.6621" style="stroke: #A80036; stroke-width: 1.0;"/><line style="stroke: #A80036; stroke-width: 1.0;" x1="1335" x2="1335" y1="249.6621" y2="259.6621"/><line style="stroke: #A80036; stroke-width: 1.0;" x1="1345" x2="1335" y1="259.6621" y2="259.6621"/><text fill="#000000" font-family="sans-serif" font-size="13" lengthAdjust="spacingAndGlyphs" textLength="101" x="1229" y="267.2305">CACHE_APPEND</text><line style="stroke: #A80036; stroke-width: 1.0;" x1="896" x2="943" y1="300.2832" y2="300.2832"/><line style="stroke: #A80036; stroke-width: 1.0;" x1="943" x2="943" y1="300.2832" y2="313.2832"/><line style="stroke: #A80036; stroke-width: 1.0;" x1="902" x2="943" y1="313.2832" y2="313.2832"/><polygon fill="#A80036" points="912,309.2832,902,313.2832,912,317.2832,908,313.2832" style="stroke: #A80036; stroke-width: 1.0;"/><text fill="#000000" font-family="sans-serif" font-size="13" lengthAdjust="spacingAndGlyphs" textLength="116" x="908" y="295.541">HandleRetriveData</text><polygon fill="#FBFB77" filter="url(#f1)" points="1036,290.4727,1036,315.4727,1234,315.4727,1234,300.4727,1224,290.4727,1036,290.4727" style="stroke: #A80036; stroke-width: 1.0;"/><line style="stroke: #A80036; stroke-width: 1.0;" x1="1224" x2="1224" y1="290.4727" y2="300.4727"/><line style="stroke: #A80036; stroke-width: 1.0;" x1="1234" x2="1224" y1="300.4727" y2="300.4727"/><text fill="#000000" font-family="sans-serif" font-size="13" lengthAdjust="spacingAndGlyphs" textLength="177" x="1042" y="308.041">CSI_COMMON_CACHE_INFO</text><line style="stroke: #A80036; stroke-width: 1.0;" x1="901" x2="943" y1="347.5938" y2="347.5938"/><line style="stroke: #A80036; stroke-width: 1.0;" x1="943" x2="943" y1="347.5938" y2="360.5938"/><line style="stroke: #A80036; stroke-width: 1.0;" x1="902" x2="943" y1="360.5938" y2="360.5938"/><polygon fill="#A80036" points="912,356.5938,902,360.5938,912,364.5938,908,360.5938" style="stroke: #A80036; stroke-width: 1.0;"/><text fill="#000000" font-family="sans-serif" font-size="13" lengthAdjust="spacingAndGlyphs" textLength="102" x="908" y="342.8516">ParseCSIInfoXml</text><line style="stroke: #A80036; stroke-width: 1.0;" x1="901" x2="943" y1="394.9043" y2="394.9043"/><line style="stroke: #A80036; stroke-width: 1.0;" x1="943" x2="943" y1="394.9043" y2="407.9043"/><line style="stroke: #A80036; stroke-width: 1.0;" x1="896" x2="943" y1="407.9043" y2="407.9043"/><polygon fill="#A80036" points="906,403.9043,896,407.9043,906,411.9043,902,407.9043" style="stroke: #A80036; stroke-width: 1.0;"/><text fill="#000000" font-family="sans-serif" font-size="13" lengthAdjust="spacingAndGlyphs" textLength="124" x="908" y="390.1621">SaveIntoLocalCache</text><polygon fill="#A80036" points="1045,427.9043,1055,431.9043,1045,435.9043,1049,431.9043" style="stroke: #A80036; stroke-width: 1.0;"/><line style="stroke: #A80036; stroke-width: 1.0;" x1="896" x2="1051" y1="431.9043" y2="431.9043"/><text fill="#000000" font-family="sans-serif" font-size="13" lengthAdjust="spacingAndGlyphs" textLength="137" x="903" y="427.4727">OnCacheDataUpdated</text><polygon fill="#A80036" points="1206,457.2148,1216,461.2148,1206,465.2148,1210,461.2148" style="stroke: #A80036; stroke-width: 1.0;"/><line style="stroke: #A80036; stroke-width: 1.0;" x1="1057" x2="1212" y1="461.2148" y2="461.2148"/><text fill="#000000" font-family="sans-serif" font-size="13" lengthAdjust="spacingAndGlyphs" textLength="137" x="1064" y="456.7832">OnCacheDataUpdated</text><polygon fill="#A80036" points="764,486.5254,754,490.5254,764,494.5254,760,490.5254" style="stroke: #A80036; stroke-width: 1.0;"/><line style="stroke: #A80036; stroke-width: 1.0;" x1="758" x2="1217" y1="490.5254" y2="490.5254"/><text fill="#000000" font-family="sans-serif" font-size="13" lengthAdjust="spacingAndGlyphs" textLength="92" x="770" y="486.0938">OnReceieveCSI</text><line style="stroke: #A80036; stroke-width: 1.0;" x1="753" x2="800" y1="515.1465" y2="515.1465"/><line style="stroke: #A80036; stroke-width: 1.0;" x1="800" x2="800" y1="515.1465" y2="528.1465"/><line style="stroke: #A80036; stroke-width: 1.0;" x1="759" x2="800" y1="528.1465" y2="528.1465"/><polygon fill="#A80036" points="769,524.1465,759,528.1465,769,532.1465,765,528.1465" style="stroke: #A80036; stroke-width: 1.0;"/><text fill="#000000" font-family="sans-serif" font-size="13" lengthAdjust="spacingAndGlyphs" textLength="129" x="765" y="510.4043">OnUserCSIIndication</text><line style="stroke: #A80036; stroke-width: 1.0;" x1="758" x2="800" y1="562.457" y2="562.457"/><line style="stroke: #A80036; stroke-width: 1.0;" x1="800" x2="800" y1="562.457" y2="575.457"/><line style="stroke: #A80036; stroke-width: 1.0;" x1="759" x2="800" y1="575.457" y2="575.457"/><polygon fill="#A80036" points="769,571.457,759,575.457,769,579.457,765,575.457" style="stroke: #A80036; stroke-width: 1.0;"/><text fill="#000000" font-family="sans-serif" font-size="13" lengthAdjust="spacingAndGlyphs" textLength="93" x="765" y="557.7148">GetSessionMgr</text><polygon fill="#FBFB77" filter="url(#f1)" points="870,547.6465,870,572.6465,1047,572.6465,1047,557.6465,1037,547.6465,870,547.6465" style="stroke: #A80036; stroke-width: 1.0;"/><line style="stroke: #A80036; stroke-width: 1.0;" x1="1037" x2="1037" y1="547.6465" y2="557.6465"/><line style="stroke: #A80036; stroke-width: 1.0;" x1="1047" x2="1037" y1="557.6465" y2="557.6465"/><text fill="#000000" font-family="sans-serif" font-size="13" lengthAdjust="spacingAndGlyphs" textLength="156" x="876" y="565.2148">Get CSmHybridAudioMgr</text><polygon fill="#A80036" points="1476,605.457,1486,609.457,1476,613.457,1480,609.457" style="stroke: #A80036; stroke-width: 1.0;"/><line style="stroke: #A80036; stroke-width: 1.0;" x1="758" x2="1482" y1="609.457" y2="609.457"/><text fill="#000000" font-family="sans-serif" font-size="13" lengthAdjust="spacingAndGlyphs" textLength="87" x="765" y="605.0254">GetHybridMgr</text><polygon fill="#FBFB77" filter="url(#f1)" points="1493,588.457,1493,613.457,1677,613.457,1677,598.457,1667,588.457,1493,588.457" style="stroke: #A80036; stroke-width: 1.0;"/><line style="stroke: #A80036; stroke-width: 1.0;" x1="1667" x2="1667" y1="588.457" y2="598.457"/><line style="stroke: #A80036; stroke-width: 1.0;" x1="1677" x2="1667" y1="598.457" y2="598.457"/><text fill="#000000" font-family="sans-serif" font-size="13" lengthAdjust="spacingAndGlyphs" textLength="163" x="1499" y="606.0254">Get CPcmHybridAudioMgr</text><polygon fill="#A80036" points="1651.5,639.7676,1661.5,643.7676,1651.5,647.7676,1655.5,643.7676" style="stroke: #A80036; stroke-width: 1.0;"/><line style="stroke: #A80036; stroke-width: 1.0;" x1="753" x2="1657.5" y1="643.7676" y2="643.7676"/><text fill="#000000" font-family="sans-serif" font-size="13" lengthAdjust="spacingAndGlyphs" textLength="57" x="760" y="639.3359">SetParam</text><polygon fill="#A80036" points="1788,669.0781,1798,673.0781,1788,677.0781,1792,673.0781" style="stroke: #A80036; stroke-width: 1.0;"/><line style="stroke: #A80036; stroke-width: 1.0;" x1="1663.5" x2="1794" y1="673.0781" y2="673.0781"/><text fill="#000000" font-family="sans-serif" font-size="13" lengthAdjust="spacingAndGlyphs" textLength="92" x="1670.5" y="668.6465">HCC_SetParam</text><polygon fill="#A80036" points="1909,698.3887,1919,702.3887,1909,706.3887,1913,702.3887" style="stroke: #A80036; stroke-width: 1.0;"/><line style="stroke: #A80036; stroke-width: 1.0;" x1="1800" x2="1915" y1="702.3887" y2="702.3887"/><text fill="#000000" font-family="sans-serif" font-size="13" lengthAdjust="spacingAndGlyphs" textLength="57" x="1807" y="697.957">SetParam</text><polygon fill="#A80036" points="2058,732.6992,2068,736.6992,2058,740.6992,2062,736.6992" style="stroke: #A80036; stroke-width: 1.0;"/><line style="stroke: #A80036; stroke-width: 1.0;" x1="1921" x2="2064" y1="736.6992" y2="736.6992"/><text fill="#000000" font-family="sans-serif" font-size="13" lengthAdjust="spacingAndGlyphs" textLength="57" x="1928" y="732.2676">SetParam</text><polygon fill="#FBFB77" filter="url(#f1)" points="2075,715.6992,2075,740.6992,2295,740.6992,2295,725.6992,2285,715.6992,2075,715.6992" style="stroke: #A80036; stroke-width: 1.0;"/><line style="stroke: #A80036; stroke-width: 1.0;" x1="2285" x2="2285" y1="715.6992" y2="725.6992"/><line style="stroke: #A80036; stroke-width: 1.0;" x1="2295" x2="2285" y1="725.6992" y2="725.6992"/><text fill="#000000" font-family="sans-serif" font-size="13" lengthAdjust="spacingAndGlyphs" textLength="199" x="2081" y="733.2676">HCC_PARAM_SET_RECEIVE_CSIS</text><line style="stroke: #A80036; stroke-width: 1.0;" x1="2070" x2="2112" y1="771.3203" y2="771.3203"/><line style="stroke: #A80036; stroke-width: 1.0;" x1="2112" x2="2112" y1="771.3203" y2="784.3203"/><line style="stroke: #A80036; stroke-width: 1.0;" x1="2071" x2="2112" y1="784.3203" y2="784.3203"/><polygon fill="#A80036" points="2081,780.3203,2071,784.3203,2081,788.3203,2077,784.3203" style="stroke: #A80036; stroke-width: 1.0;"/><text fill="#000000" font-family="sans-serif" font-size="13" lengthAdjust="spacingAndGlyphs" textLength="155" x="2077" y="766.5781">HandleReceivedCMR4CSI</text><line style="stroke: #A80036; stroke-width: 1.0;" x1="2070" x2="2112" y1="813.6309" y2="813.6309"/><line style="stroke: #A80036; stroke-width: 1.0;" x1="2112" x2="2112" y1="813.6309" y2="826.6309"/><line style="stroke: #A80036; stroke-width: 1.0;" x1="2071" x2="2112" y1="826.6309" y2="826.6309"/><polygon fill="#A80036" points="2081,822.6309,2071,826.6309,2081,830.6309,2077,826.6309" style="stroke: #A80036; stroke-width: 1.0;"/><text fill="#000000" font-family="sans-serif" font-size="13" lengthAdjust="spacingAndGlyphs" textLength="123" x="2077" y="808.8887">SendCSIItemToWME</text><polygon fill="#A80036" points="2227,851.6309,2237,855.6309,2227,859.6309,2231,855.6309" style="stroke: #A80036; stroke-width: 1.0;"/><line style="stroke: #A80036; stroke-width: 1.0;" x1="2070" x2="2233" y1="855.6309" y2="855.6309"/><text fill="#000000" font-family="sans-serif" font-size="13" lengthAdjust="spacingAndGlyphs" textLength="75" x="2077" y="851.1992">SetCMR4CSI</text><polygon fill="#A80036" points="2382,880.9414,2392,884.9414,2382,888.9414,2386,884.9414" style="stroke: #A80036; stroke-width: 1.0;"/><line style="stroke: #A80036; stroke-width: 1.0;" x1="2239" x2="2388" y1="884.9414" y2="884.9414"/><text fill="#000000" font-family="sans-serif" font-size="13" lengthAdjust="spacingAndGlyphs" textLength="75" x="2246" y="880.5098">SetCMR4CSI</text><polygon fill="#A80036" points="2545,910.252,2555,914.252,2545,918.252,2549,914.252" style="stroke: #A80036; stroke-width: 1.0;"/><line style="stroke: #A80036; stroke-width: 1.0;" x1="2394" x2="2551" y1="914.252" y2="914.252"/><text fill="#000000" font-family="sans-serif" font-size="13" lengthAdjust="spacingAndGlyphs" textLength="75" x="2401" y="909.8203">SetCMR4CSI</text><polygon fill="#A80036" points="2677,939.5625,2687,943.5625,2677,947.5625,2681,943.5625" style="stroke: #A80036; stroke-width: 1.0;"/><line style="stroke: #A80036; stroke-width: 1.0;" x1="2557" x2="2683" y1="943.5625" y2="943.5625"/><text fill="#000000" font-family="sans-serif" font-size="13" lengthAdjust="spacingAndGlyphs" textLength="108" x="2564" y="939.1309">MmHSetCMR4CSI</text></g></svg>