<?xml version="1.0" encoding="UTF-8" standalone="yes"?><svg xmlns="http://www.w3.org/2000/svg" xmlns:xlink="http://www.w3.org/1999/xlink" height="672pt" style="width:902px;height:672px;" version="1.1" viewBox="0 0 902 672" width="902pt"><defs><filter height="300%" id="f1" width="300%" x="-1" y="-1"><feGaussianBlur result="blurOut" stdDeviation="2.0"/><feColorMatrix in="blurOut" result="blurOut2" type="matrix" values="0 0 0 0 0 0 0 0 0 0 0 0 0 0 0 0 0 0 .4 0"/><feOffset dx="4.0" dy="4.0" in="blurOut2" result="blurOut3"/><feBlend in="SourceGraphic" in2="blurOut3" mode="normal"/></filter></defs><g><ellipse cx="130.5" cy="130" fill="#000000" filter="url(#f1)" rx="10" ry="10" style="stroke: none; stroke-width: 1.0;"/><rect fill="#FEFECE" filter="url(#f1)" height="50" rx="12.5" ry="12.5" style="stroke: #A80036; stroke-width: 1.5;" width="196" x="32.5" y="232"/><line style="stroke: #A80036; stroke-width: 1.5;" x1="32.5" x2="228.5" y1="258.4883" y2="258.4883"/><text fill="#000000" font-family="sans-serif" font-size="14" lengthAdjust="spacingAndGlyphs" textLength="176" x="42.5" y="250.5352">OI_STATUS_NOTSTARTED</text><rect fill="#FEFECE" filter="url(#f1)" height="50" rx="12.5" ry="12.5" style="stroke: #A80036; stroke-width: 1.5;" width="249" x="6" y="359"/><line style="stroke: #A80036; stroke-width: 1.5;" x1="6" x2="255" y1="385.4883" y2="385.4883"/><text fill="#000000" font-family="sans-serif" font-size="14" lengthAdjust="spacingAndGlyphs" textLength="229" x="16" y="377.5352">OI_STATUS_DOWNLOAD_SETTING</text><rect fill="#FEFECE" filter="url(#f1)" height="50" rx="12.5" ry="12.5" style="stroke: #A80036; stroke-width: 1.5;" width="232" x="14.5" y="486"/><line style="stroke: #A80036; stroke-width: 1.5;" x1="14.5" x2="246.5" y1="512.4883" y2="512.4883"/><text fill="#000000" font-family="sans-serif" font-size="14" lengthAdjust="spacingAndGlyphs" textLength="212" x="24.5" y="504.5352">OI_STATUS_NEED_VERSIONFILE</text><rect fill="#FEFECE" filter="url(#f1)" height="50" rx="12.5" ry="12.5" style="stroke: #A80036; stroke-width: 1.5;" width="277" x="158" y="613"/><line style="stroke: #A80036; stroke-width: 1.5;" x1="158" x2="435" y1="639.4883" y2="639.4883"/><text fill="#000000" font-family="sans-serif" font-size="14" lengthAdjust="spacingAndGlyphs" textLength="257" x="168" y="631.5352">OI_STATUS_DOWNLOAD_VERSIONFILE</text><polygon fill="#FBFB77" filter="url(#f1)" points="316.5,490.5,316.5,531.1211,622.5,531.1211,622.5,500.5,612.5,490.5,316.5,490.5" style="stroke: #A80036; stroke-width: 1.0;"/><polygon fill="#FBFB77" points="316.5,490.5,316.5,507,246.7,511,316.5,515,316.5,531.1211,622.5,531.1211,622.5,500.5,612.5,490.5,316.5,490.5" style="stroke: #A80036; stroke-width: 1.0;"/><line style="stroke: #A80036; stroke-width: 1.0;" x1="612.5" x2="612.5" y1="490.5" y2="500.5"/><line style="stroke: #A80036; stroke-width: 1.0;" x1="622.5" x2="612.5" y1="500.5" y2="500.5"/><text fill="#000000" font-family="sans-serif" font-size="13" lengthAdjust="spacingAndGlyphs" textLength="281" x="322.5" y="508.0684">use ptWBXOIURL (InternetConnect) to get file</text><text fill="#000000" font-family="sans-serif" font-size="13" lengthAdjust="spacingAndGlyphs" textLength="181" x="322.5" y="523.3789">call URLReturn to return data</text><rect fill="#FEFECE" filter="url(#f1)" height="50" rx="12.5" ry="12.5" style="stroke: #A80036; stroke-width: 1.5;" width="191" x="597" y="613"/><line style="stroke: #A80036; stroke-width: 1.5;" x1="597" x2="788" y1="639.4883" y2="639.4883"/><text fill="#000000" font-family="sans-serif" font-size="14" lengthAdjust="spacingAndGlyphs" textLength="171" x="607" y="631.5352">OI_STATUS_NEED_INIFILE</text><rect fill="#FEFECE" filter="url(#f1)" height="50" rx="12.5" ry="12.5" style="stroke: #A80036; stroke-width: 1.5;" width="236" x="657.5" y="486"/><line style="stroke: #A80036; stroke-width: 1.5;" x1="657.5" x2="893.5" y1="512.4883" y2="512.4883"/><text fill="#000000" font-family="sans-serif" font-size="14" lengthAdjust="spacingAndGlyphs" textLength="216" x="667.5" y="504.5352">OI_STATUS_DOWNLOAD_INIFILE</text><rect fill="#FEFECE" filter="url(#f1)" height="50" rx="12.5" ry="12.5" style="stroke: #A80036; stroke-width: 1.5;" width="202" x="674.5" y="359"/><line style="stroke: #A80036; stroke-width: 1.5;" x1="674.5" x2="876.5" y1="385.4883" y2="385.4883"/><text fill="#000000" font-family="sans-serif" font-size="14" lengthAdjust="spacingAndGlyphs" textLength="182" x="684.5" y="377.5352">OI_STATUS_CHECK_INIFILE</text><rect fill="#FEFECE" filter="url(#f1)" height="50" rx="12.5" ry="12.5" style="stroke: #A80036; stroke-width: 1.5;" width="131" x="710" y="232"/><line style="stroke: #A80036; stroke-width: 1.5;" x1="710" x2="841" y1="258.4883" y2="258.4883"/><text fill="#000000" font-family="sans-serif" font-size="14" lengthAdjust="spacingAndGlyphs" textLength="111" x="720" y="250.5352">OI_STATUS_END</text><polygon fill="#FBFB77" filter="url(#f1)" points="492.5,244.5,492.5,269.8105,640.5,269.8105,640.5,254.5,630.5,244.5,492.5,244.5" style="stroke: #A80036; stroke-width: 1.0;"/><polygon fill="#FBFB77" points="492.5,244.5,492.5,269.8105,640.5,269.8105,640.5,262.5,709.988,257,640.5,254.5,640.5,254.5,630.5,244.5,492.5,244.5" style="stroke: #A80036; stroke-width: 1.0;"/><line style="stroke: #A80036; stroke-width: 1.0;" x1="630.5" x2="630.5" y1="244.5" y2="254.5"/><line style="stroke: #A80036; stroke-width: 1.0;" x1="640.5" x2="630.5" y1="254.5" y2="254.5"/><text fill="#000000" font-family="sans-serif" font-size="13" lengthAdjust="spacingAndGlyphs" textLength="127" x="498.5" y="262.0684">set m_bQuit = TRUE</text><rect fill="#FEFECE" filter="url(#f1)" height="50" rx="12.5" ry="12.5" style="stroke: #A80036; stroke-width: 1.5;" width="132" x="709.5" y="105"/><line style="stroke: #A80036; stroke-width: 1.5;" x1="709.5" x2="841.5" y1="131.4883" y2="131.4883"/><text fill="#000000" font-family="sans-serif" font-size="14" lengthAdjust="spacingAndGlyphs" textLength="112" x="719.5" y="123.5352">OI_STATUS_IDLE</text><ellipse cx="775.5" cy="18" fill="none" filter="url(#f1)" rx="10" ry="10" style="stroke: #000000; stroke-width: 1.0;"/><ellipse cx="776" cy="18.5" fill="#000000" rx="6" ry="6" style="stroke: none; stroke-width: 1.0;"/><path d="M130.5,140.393 C130.5,159.076 130.5,198.984 130.5,226.882 " fill="none" style="stroke: #A80036; stroke-width: 1.0;"/><polygon fill="#A80036" points="130.5,231.943,134.5,222.943,130.5,226.943,126.5,222.943,130.5,231.943" style="stroke: #A80036; stroke-width: 1.0;"/><path d="M130.5,282.091 C130.5,302.703 130.5,331.965 130.5,353.848 " fill="none" style="stroke: #A80036; stroke-width: 1.0;"/><polygon fill="#A80036" points="130.5,358.961,134.5,349.961,130.5,353.961,126.5,349.961,130.5,358.961" style="stroke: #A80036; stroke-width: 1.0;"/><text fill="#000000" font-family="sans-serif" font-size="13" lengthAdjust="spacingAndGlyphs" textLength="128" x="131.5" y="325.5684">GetSiteSettingByXML</text><path d="M130.5,409.091 C130.5,429.703 130.5,458.965 130.5,480.848 " fill="none" style="stroke: #A80036; stroke-width: 1.0;"/><polygon fill="#A80036" points="130.5,485.961,134.5,476.961,130.5,480.961,126.5,476.961,130.5,485.961" style="stroke: #A80036; stroke-width: 1.0;"/><text fill="#000000" font-family="sans-serif" font-size="13" lengthAdjust="spacingAndGlyphs" textLength="106" x="131.5" y="452.5684">OnGetSiteSetting</text><path d="M163.296,536.091 C191.034,557.312 230.755,587.7007 259.598,609.7677 " fill="none" style="stroke: #A80036; stroke-width: 1.0;"/><polygon fill="#A80036" points="263.772,612.961,259.0551,604.3152,259.8011,609.9226,254.1936,610.6686,263.772,612.961" style="stroke: #A80036; stroke-width: 1.0;"/><text fill="#000000" font-family="sans-serif" font-size="13" lengthAdjust="spacingAndGlyphs" textLength="145" x="224.5" y="579.5684">GetVersionFileFromSite</text><path d="M435.002,638 C486.541,638 544.01,638 591.557,638 " fill="none" style="stroke: #A80036; stroke-width: 1.0;"/><polygon fill="#A80036" points="596.714,638,587.714,634,591.714,638,587.714,642,596.714,638" style="stroke: #A80036; stroke-width: 1.0;"/><text fill="#000000" font-family="sans-serif" font-size="13" lengthAdjust="spacingAndGlyphs" textLength="108" x="462" y="631.5684">OnGetVersionFile</text><path d="M756.299,540.379 C741.933,562.361 722.496,592.1025 708.864,612.961 " fill="none" style="stroke: #A80036; stroke-width: 1.0;"/><polygon fill="#A80036" points="759.102,536.091,750.829,541.435,756.3659,540.2759,757.5249,545.8128,759.102,536.091" style="stroke: #A80036; stroke-width: 1.0;"/><text fill="#000000" font-family="sans-serif" font-size="13" lengthAdjust="spacingAndGlyphs" textLength="116" x="739.5" y="579.5684">GetINIFileFromSite</text><path d="M775.5,414.207 C775.5,436.103 775.5,465.363 775.5,485.961 " fill="none" style="stroke: #A80036; stroke-width: 1.0;"/><polygon fill="#A80036" points="775.5,409.091,771.5,418.091,775.5,414.091,779.5,418.091,775.5,409.091" style="stroke: #A80036; stroke-width: 1.0;"/><text fill="#000000" font-family="sans-serif" font-size="13" lengthAdjust="spacingAndGlyphs" textLength="79" x="776.5" y="452.5684">OnGetINIFile</text><path d="M775.5,287.207 C775.5,309.103 775.5,338.363 775.5,358.961 " fill="none" style="stroke: #A80036; stroke-width: 1.0;"/><polygon fill="#A80036" points="775.5,282.091,771.5,291.091,775.5,287.091,779.5,291.091,775.5,282.091" style="stroke: #A80036; stroke-width: 1.0;"/><text fill="#000000" font-family="sans-serif" font-size="13" lengthAdjust="spacingAndGlyphs" textLength="97" x="776.5" y="325.5684">OnCheckINIFile</text><path d="M775.5,160.207 C775.5,182.103 775.5,211.363 775.5,231.961 " fill="none" style="stroke: #A80036; stroke-width: 1.0;"/><polygon fill="#A80036" points="775.5,155.091,771.5,164.091,775.5,160.091,779.5,164.091,775.5,155.091" style="stroke: #A80036; stroke-width: 1.0;"/><text fill="#000000" font-family="sans-serif" font-size="13" lengthAdjust="spacingAndGlyphs" textLength="54" x="776.5" y="198.5684">OnTimer</text><path d="M775.5,33.626 C775.5,52.032 775.5,82.862 775.5,104.69 " fill="none" style="stroke: #A80036; stroke-width: 1.0;"/><polygon fill="#A80036" points="775.5,28.336,771.5,37.336,775.5,33.336,779.5,37.336,775.5,28.336" style="stroke: #A80036; stroke-width: 1.0;"/><text fill="#000000" font-family="sans-serif" font-size="13" lengthAdjust="spacingAndGlyphs" textLength="54" x="776.5" y="71.5684">OnTimer</text></g></svg>