<?xml version="1.0" encoding="UTF-8" standalone="yes"?><svg xmlns="http://www.w3.org/2000/svg" xmlns:xlink="http://www.w3.org/1999/xlink" height="292pt" style="width:775px;height:292px;" version="1.1" viewBox="0 0 775 292" width="775pt"><defs><filter height="300%" id="f1" width="300%" x="-1" y="-1"><feGaussianBlur result="blurOut" stdDeviation="2.0"/><feColorMatrix in="blurOut" result="blurOut2" type="matrix" values="0 0 0 0 0 0 0 0 0 0 0 0 0 0 0 0 0 0 .4 0"/><feOffset dx="4.0" dy="4.0" in="blurOut2" result="blurOut3"/><feBlend in="SourceGraphic" in2="blurOut3" mode="normal"/></filter></defs><g><line style="stroke: #A80036; stroke-width: 1.0; stroke-dasharray: 5.0,5.0;" x1="109.5" x2="109.5" y1="38.4883" y2="254.3516"/><line style="stroke: #A80036; stroke-width: 1.0; stroke-dasharray: 5.0,5.0;" x1="308.5" x2="308.5" y1="38.4883" y2="254.3516"/><line style="stroke: #A80036; stroke-width: 1.0; stroke-dasharray: 5.0,5.0;" x1="539.5" x2="539.5" y1="38.4883" y2="254.3516"/><line style="stroke: #A80036; stroke-width: 1.0; stroke-dasharray: 5.0,5.0;" x1="697" x2="697" y1="38.4883" y2="254.3516"/><rect fill="#FEFECE" filter="url(#f1)" height="30.4883" style="stroke: #A80036; stroke-width: 1.5;" width="117" x="49.5" y="3"/><text fill="#000000" font-family="sans-serif" font-size="14" lengthAdjust="spacingAndGlyphs" textLength="103" x="56.5" y="23.5352">CDlgQuickstart</text><rect fill="#FEFECE" filter="url(#f1)" height="30.4883" style="stroke: #A80036; stroke-width: 1.5;" width="117" x="49.5" y="253.3516"/><text fill="#000000" font-family="sans-serif" font-size="14" lengthAdjust="spacingAndGlyphs" textLength="103" x="56.5" y="273.8867">CDlgQuickstart</text><rect fill="#FEFECE" filter="url(#f1)" height="30.4883" style="stroke: #A80036; stroke-width: 1.5;" width="252" x="180.5" y="3"/><text fill="#000000" font-family="sans-serif" font-size="14" lengthAdjust="spacingAndGlyphs" textLength="238" x="187.5" y="23.5352">CComUIConnectionPointContainer</text><rect fill="#FEFECE" filter="url(#f1)" height="30.4883" style="stroke: #A80036; stroke-width: 1.5;" width="252" x="180.5" y="253.3516"/><text fill="#000000" font-family="sans-serif" font-size="14" lengthAdjust="spacingAndGlyphs" textLength="238" x="187.5" y="273.8867">CComUIConnectionPointContainer</text><rect fill="#FEFECE" filter="url(#f1)" height="30.4883" style="stroke: #A80036; stroke-width: 1.5;" width="183" x="446.5" y="3"/><text fill="#000000" font-family="sans-serif" font-size="14" lengthAdjust="spacingAndGlyphs" textLength="169" x="453.5" y="23.5352">CQuickStartDlgPresenter</text><rect fill="#FEFECE" filter="url(#f1)" height="30.4883" style="stroke: #A80036; stroke-width: 1.5;" width="183" x="446.5" y="253.3516"/><text fill="#000000" font-family="sans-serif" font-size="14" lengthAdjust="spacingAndGlyphs" textLength="169" x="453.5" y="273.8867">CQuickStartDlgPresenter</text><rect fill="#FEFECE" filter="url(#f1)" height="30.4883" style="stroke: #A80036; stroke-width: 1.5;" width="98" x="646" y="3"/><text fill="#000000" font-family="sans-serif" font-size="14" lengthAdjust="spacingAndGlyphs" textLength="84" x="653" y="23.5352">CWCLReskin</text><rect fill="#FEFECE" filter="url(#f1)" height="30.4883" style="stroke: #A80036; stroke-width: 1.5;" width="98" x="646" y="253.3516"/><text fill="#000000" font-family="sans-serif" font-size="14" lengthAdjust="spacingAndGlyphs" textLength="84" x="653" y="273.8867">CWCLReskin</text><polygon fill="#A80036" points="98,65.4883,108,69.4883,98,73.4883,102,69.4883" style="stroke: #A80036; stroke-width: 1.0;"/><line style="stroke: #A80036; stroke-width: 1.0;" x1="3" x2="104" y1="69.4883" y2="69.4883"/><text fill="#000000" font-family="sans-serif" font-size="13" lengthAdjust="spacingAndGlyphs" textLength="83" x="10" y="65.0566">OnShareMore</text><polygon fill="#FBFB77" filter="url(#f1)" points="10,82.7988,10,107.7988,205,107.7988,205,92.7988,195,82.7988,10,82.7988" style="stroke: #A80036; stroke-width: 1.0;"/><line style="stroke: #A80036; stroke-width: 1.0;" x1="195" x2="195" y1="82.7988" y2="92.7988"/><line style="stroke: #A80036; stroke-width: 1.0;" x1="205" x2="195" y1="92.7988" y2="92.7988"/><text fill="#000000" font-family="sans-serif" font-size="13" lengthAdjust="spacingAndGlyphs" textLength="174" x="16" y="100.3672">Click IDC_QS_SHARE_MORE</text><polygon fill="#A80036" points="296.5,134.1094,306.5,138.1094,296.5,142.1094,300.5,138.1094" style="stroke: #A80036; stroke-width: 1.0;"/><line style="stroke: #A80036; stroke-width: 1.0;" x1="110" x2="302.5" y1="138.1094" y2="138.1094"/><text fill="#000000" font-family="sans-serif" font-size="13" lengthAdjust="spacingAndGlyphs" textLength="113" x="117" y="133.6777">Fire_OnShareMore</text><polygon fill="#A80036" points="528,163.4199,538,167.4199,528,171.4199,532,167.4199" style="stroke: #A80036; stroke-width: 1.0;"/><line style="stroke: #A80036; stroke-width: 1.0;" x1="308.5" x2="534" y1="167.4199" y2="167.4199"/><text fill="#000000" font-family="sans-serif" font-size="13" lengthAdjust="spacingAndGlyphs" textLength="83" x="315.5" y="162.9883">OnShareMore</text><polygon fill="#A80036" points="685,192.7305,695,196.7305,685,200.7305,689,196.7305" style="stroke: #A80036; stroke-width: 1.0;"/><line style="stroke: #A80036; stroke-width: 1.0;" x1="540" x2="691" y1="196.7305" y2="196.7305"/><text fill="#000000" font-family="sans-serif" font-size="13" lengthAdjust="spacingAndGlyphs" textLength="133" x="547" y="192.2988">ShowSharingMoreDlg</text><polygon fill="#FBFB77" filter="url(#f1)" points="470,210.041,470,235.041,766,235.041,766,220.041,756,210.041,470,210.041" style="stroke: #A80036; stroke-width: 1.0;"/><line style="stroke: #A80036; stroke-width: 1.0;" x1="756" x2="756" y1="210.041" y2="220.041"/><line style="stroke: #A80036; stroke-width: 1.0;" x1="766" x2="756" y1="220.041" y2="220.041"/><text fill="#000000" font-family="sans-serif" font-size="13" lengthAdjust="spacingAndGlyphs" textLength="71" x="576.25" y="227.6094">Show Menu</text></g></svg>