<?xml version="1.0" encoding="UTF-8" standalone="yes"?><svg xmlns="http://www.w3.org/2000/svg" xmlns:xlink="http://www.w3.org/1999/xlink" height="598pt" style="width:1871px;height:598px;" version="1.1" viewBox="0 0 1871 598" width="1871pt"><defs><filter height="300%" id="f1" width="300%" x="-1" y="-1"><feGaussianBlur result="blurOut" stdDeviation="2.0"/><feColorMatrix in="blurOut" result="blurOut2" type="matrix" values="0 0 0 0 0 0 0 0 0 0 0 0 0 0 0 0 0 0 .4 0"/><feOffset dx="4.0" dy="4.0" in="blurOut2" result="blurOut3"/><feBlend in="SourceGraphic" in2="blurOut3" mode="normal"/></filter></defs><g><line style="stroke: #A80036; stroke-width: 1.0; stroke-dasharray: 5.0,5.0;" x1="158.5" x2="158.5" y1="38.4883" y2="560.457"/><line style="stroke: #A80036; stroke-width: 1.0; stroke-dasharray: 5.0,5.0;" x1="318.5" x2="318.5" y1="38.4883" y2="560.457"/><line style="stroke: #A80036; stroke-width: 1.0; stroke-dasharray: 5.0,5.0;" x1="479.5" x2="479.5" y1="38.4883" y2="560.457"/><line style="stroke: #A80036; stroke-width: 1.0; stroke-dasharray: 5.0,5.0;" x1="712" x2="712" y1="38.4883" y2="560.457"/><line style="stroke: #A80036; stroke-width: 1.0; stroke-dasharray: 5.0,5.0;" x1="862" x2="862" y1="38.4883" y2="560.457"/><line style="stroke: #A80036; stroke-width: 1.0; stroke-dasharray: 5.0,5.0;" x1="979" x2="979" y1="38.4883" y2="560.457"/><line style="stroke: #A80036; stroke-width: 1.0; stroke-dasharray: 5.0,5.0;" x1="1145" x2="1145" y1="38.4883" y2="560.457"/><line style="stroke: #A80036; stroke-width: 1.0; stroke-dasharray: 5.0,5.0;" x1="1323.5" x2="1323.5" y1="38.4883" y2="560.457"/><line style="stroke: #A80036; stroke-width: 1.0; stroke-dasharray: 5.0,5.0;" x1="1445.5" x2="1445.5" y1="38.4883" y2="560.457"/><line style="stroke: #A80036; stroke-width: 1.0; stroke-dasharray: 5.0,5.0;" x1="1608.5" x2="1608.5" y1="38.4883" y2="560.457"/><line style="stroke: #A80036; stroke-width: 1.0; stroke-dasharray: 5.0,5.0;" x1="1791.5" x2="1791.5" y1="38.4883" y2="560.457"/><rect fill="#FEFECE" filter="url(#f1)" height="30.4883" style="stroke: #A80036; stroke-width: 1.5;" width="121" x="96.5" y="3"/><text fill="#000000" font-family="sans-serif" font-size="14" lengthAdjust="spacingAndGlyphs" textLength="107" x="103.5" y="23.5352">CShareMoreDlg</text><rect fill="#FEFECE" filter="url(#f1)" height="30.4883" style="stroke: #A80036; stroke-width: 1.5;" width="121" x="96.5" y="559.457"/><text fill="#000000" font-family="sans-serif" font-size="14" lengthAdjust="spacingAndGlyphs" textLength="107" x="103.5" y="579.9922">CShareMoreDlg</text><rect fill="#FEFECE" filter="url(#f1)" height="30.4883" style="stroke: #A80036; stroke-width: 1.5;" width="170" x="231.5" y="3"/><text fill="#000000" font-family="sans-serif" font-size="14" lengthAdjust="spacingAndGlyphs" textLength="156" x="238.5" y="23.5352">CSharingMoreWrapper</text><rect fill="#FEFECE" filter="url(#f1)" height="30.4883" style="stroke: #A80036; stroke-width: 1.5;" width="170" x="231.5" y="559.457"/><text fill="#000000" font-family="sans-serif" font-size="14" lengthAdjust="spacingAndGlyphs" textLength="156" x="238.5" y="579.9922">CSharingMoreWrapper</text><rect fill="#FEFECE" filter="url(#f1)" height="30.4883" style="stroke: #A80036; stroke-width: 1.5;" width="124" x="415.5" y="3"/><text fill="#000000" font-family="sans-serif" font-size="14" lengthAdjust="spacingAndGlyphs" textLength="110" x="422.5" y="23.5352">CPfwMainFrame</text><rect fill="#FEFECE" filter="url(#f1)" height="30.4883" style="stroke: #A80036; stroke-width: 1.5;" width="124" x="415.5" y="559.457"/><text fill="#000000" font-family="sans-serif" font-size="14" lengthAdjust="spacingAndGlyphs" textLength="110" x="422.5" y="579.9922">CPfwMainFrame</text><rect fill="#FEFECE" filter="url(#f1)" height="30.4883" style="stroke: #A80036; stroke-width: 1.5;" width="185" x="618" y="3"/><text fill="#000000" font-family="sans-serif" font-size="14" lengthAdjust="spacingAndGlyphs" textLength="171" x="625" y="23.5352">CPfwChainMessageMapT</text><rect fill="#FEFECE" filter="url(#f1)" height="30.4883" style="stroke: #A80036; stroke-width: 1.5;" width="185" x="618" y="559.457"/><text fill="#000000" font-family="sans-serif" font-size="14" lengthAdjust="spacingAndGlyphs" textLength="171" x="625" y="579.9922">CPfwChainMessageMapT</text><rect fill="#FEFECE" filter="url(#f1)" height="30.4883" style="stroke: #A80036; stroke-width: 1.5;" width="87" x="817" y="3"/><text fill="#000000" font-family="sans-serif" font-size="14" lengthAdjust="spacingAndGlyphs" textLength="73" x="824" y="23.5352">CMCUIMgr</text><rect fill="#FEFECE" filter="url(#f1)" height="30.4883" style="stroke: #A80036; stroke-width: 1.5;" width="87" x="817" y="559.457"/><text fill="#000000" font-family="sans-serif" font-size="14" lengthAdjust="spacingAndGlyphs" textLength="73" x="824" y="579.9922">CMCUIMgr</text><rect fill="#FEFECE" filter="url(#f1)" height="30.4883" style="stroke: #A80036; stroke-width: 1.5;" width="109" x="923" y="3"/><text fill="#000000" font-family="sans-serif" font-size="14" lengthAdjust="spacingAndGlyphs" textLength="95" x="930" y="23.5352">CSmDefUIMgr</text><rect fill="#FEFECE" filter="url(#f1)" height="30.4883" style="stroke: #A80036; stroke-width: 1.5;" width="109" x="923" y="559.457"/><text fill="#000000" font-family="sans-serif" font-size="14" lengthAdjust="spacingAndGlyphs" textLength="95" x="930" y="579.9922">CSmDefUIMgr</text><rect fill="#FEFECE" filter="url(#f1)" height="30.4883" style="stroke: #A80036; stroke-width: 1.5;" width="194" x="1046" y="3"/><text fill="#000000" font-family="sans-serif" font-size="14" lengthAdjust="spacingAndGlyphs" textLength="180" x="1053" y="23.5352">CPfwMessageCenterAgent</text><rect fill="#FEFECE" filter="url(#f1)" height="30.4883" style="stroke: #A80036; stroke-width: 1.5;" width="194" x="1046" y="559.457"/><text fill="#000000" font-family="sans-serif" font-size="14" lengthAdjust="spacingAndGlyphs" textLength="180" x="1053" y="579.9922">CPfwMessageCenterAgent</text><rect fill="#FEFECE" filter="url(#f1)" height="30.4883" style="stroke: #A80036; stroke-width: 1.5;" width="107" x="1268.5" y="3"/><text fill="#000000" font-family="sans-serif" font-size="14" lengthAdjust="spacingAndGlyphs" textLength="93" x="1275.5" y="23.5352">CSmFITUIMgr</text><rect fill="#FEFECE" filter="url(#f1)" height="30.4883" style="stroke: #A80036; stroke-width: 1.5;" width="107" x="1268.5" y="559.457"/><text fill="#000000" font-family="sans-serif" font-size="14" lengthAdjust="spacingAndGlyphs" textLength="93" x="1275.5" y="579.9922">CSmFITUIMgr</text><rect fill="#FEFECE" filter="url(#f1)" height="30.4883" style="stroke: #A80036; stroke-width: 1.5;" width="108" x="1389.5" y="3"/><text fill="#000000" font-family="sans-serif" font-size="14" lengthAdjust="spacingAndGlyphs" textLength="94" x="1396.5" y="23.5352">CMCFITUIMgr</text><rect fill="#FEFECE" filter="url(#f1)" height="30.4883" style="stroke: #A80036; stroke-width: 1.5;" width="108" x="1389.5" y="559.457"/><text fill="#000000" font-family="sans-serif" font-size="14" lengthAdjust="spacingAndGlyphs" textLength="94" x="1396.5" y="579.9922">CMCFITUIMgr</text><rect fill="#FEFECE" filter="url(#f1)" height="30.4883" style="stroke: #A80036; stroke-width: 1.5;" width="191" x="1511.5" y="3"/><text fill="#000000" font-family="sans-serif" font-size="14" lengthAdjust="spacingAndGlyphs" textLength="177" x="1518.5" y="23.5352">CSmAppShareSessionMgr</text><rect fill="#FEFECE" filter="url(#f1)" height="30.4883" style="stroke: #A80036; stroke-width: 1.5;" width="191" x="1511.5" y="559.457"/><text fill="#000000" font-family="sans-serif" font-size="14" lengthAdjust="spacingAndGlyphs" textLength="177" x="1518.5" y="579.9922">CSmAppShareSessionMgr</text><rect fill="#FEFECE" filter="url(#f1)" height="30.4883" style="stroke: #A80036; stroke-width: 1.5;" width="146" x="1716.5" y="3"/><text fill="#000000" font-family="sans-serif" font-size="14" lengthAdjust="spacingAndGlyphs" textLength="132" x="1723.5" y="23.5352">CPcmAppShareMgr</text><rect fill="#FEFECE" filter="url(#f1)" height="30.4883" style="stroke: #A80036; stroke-width: 1.5;" width="146" x="1716.5" y="559.457"/><text fill="#000000" font-family="sans-serif" font-size="14" lengthAdjust="spacingAndGlyphs" textLength="132" x="1723.5" y="579.9922">CPcmAppShareMgr</text><polygon fill="#A80036" points="147,65.4883,157,69.4883,147,73.4883,151,69.4883" style="stroke: #A80036; stroke-width: 1.0;"/><line style="stroke: #A80036; stroke-width: 1.0;" x1="3" x2="153" y1="69.4883" y2="69.4883"/><text fill="#000000" font-family="sans-serif" font-size="13" lengthAdjust="spacingAndGlyphs" textLength="132" x="10" y="65.0566">OnBtnShareOtherApp</text><polygon fill="#FBFB77" filter="url(#f1)" points="52,82.7988,52,107.7988,262,107.7988,262,92.7988,252,82.7988,52,82.7988" style="stroke: #A80036; stroke-width: 1.0;"/><line style="stroke: #A80036; stroke-width: 1.0;" x1="252" x2="252" y1="82.7988" y2="92.7988"/><line style="stroke: #A80036; stroke-width: 1.0;" x1="262" x2="252" y1="92.7988" y2="92.7988"/><text fill="#000000" font-family="sans-serif" font-size="13" lengthAdjust="spacingAndGlyphs" textLength="189" x="58" y="100.3672">User Click "Other Application"</text><polygon fill="#A80036" points="306.5,134.1094,316.5,138.1094,306.5,142.1094,310.5,138.1094" style="stroke: #A80036; stroke-width: 1.0;"/><line style="stroke: #A80036; stroke-width: 1.0;" x1="159" x2="312.5" y1="138.1094" y2="138.1094"/><text fill="#000000" font-family="sans-serif" font-size="13" lengthAdjust="spacingAndGlyphs" textLength="94" x="166" y="133.6777">ShareOtherApp</text><polygon fill="#A80036" points="467.5,163.4199,477.5,167.4199,467.5,171.4199,471.5,167.4199" style="stroke: #A80036; stroke-width: 1.0;"/><line style="stroke: #A80036; stroke-width: 1.0;" x1="318.5" x2="473.5" y1="167.4199" y2="167.4199"/><text fill="#000000" font-family="sans-serif" font-size="13" lengthAdjust="spacingAndGlyphs" textLength="84" x="325.5" y="162.9883">SendMessage</text><polygon fill="#FBFB77" filter="url(#f1)" points="245,180.7305,245,205.7305,552,205.7305,552,190.7305,542,180.7305,245,180.7305" style="stroke: #A80036; stroke-width: 1.0;"/><line style="stroke: #A80036; stroke-width: 1.0;" x1="542" x2="542" y1="180.7305" y2="190.7305"/><line style="stroke: #A80036; stroke-width: 1.0;" x1="552" x2="542" y1="190.7305" y2="190.7305"/><text fill="#000000" font-family="sans-serif" font-size="13" lengthAdjust="spacingAndGlyphs" textLength="242" x="271" y="198.2988">PFW_QS_MENU_SHARE_OTHER_APP_ID</text><polygon fill="#A80036" points="700.5,232.041,710.5,236.041,700.5,240.041,704.5,236.041" style="stroke: #A80036; stroke-width: 1.0;"/><line style="stroke: #A80036; stroke-width: 1.0;" x1="479.5" x2="706.5" y1="236.041" y2="236.041"/><text fill="#000000" font-family="sans-serif" font-size="13" lengthAdjust="spacingAndGlyphs" textLength="209" x="486.5" y="231.6094">PfwChainProcessWindowMessage</text><polygon fill="#A80036" points="490.5,261.3516,480.5,265.3516,490.5,269.3516,486.5,265.3516" style="stroke: #A80036; stroke-width: 1.0;"/><line style="stroke: #A80036; stroke-width: 1.0;" x1="484.5" x2="711.5" y1="265.3516" y2="265.3516"/><text fill="#000000" font-family="sans-serif" font-size="13" lengthAdjust="spacingAndGlyphs" textLength="151" x="496.5" y="260.9199">ProcessWindowMessage</text><polygon fill="#A80036" points="850.5,290.6621,860.5,294.6621,850.5,298.6621,854.5,294.6621" style="stroke: #A80036; stroke-width: 1.0;"/><line style="stroke: #A80036; stroke-width: 1.0;" x1="479.5" x2="856.5" y1="294.6621" y2="294.6621"/><text fill="#000000" font-family="sans-serif" font-size="13" lengthAdjust="spacingAndGlyphs" textLength="93" x="486.5" y="290.2305">OnWindowMsg</text><polygon fill="#A80036" points="967.5,319.9727,977.5,323.9727,967.5,327.9727,971.5,323.9727" style="stroke: #A80036; stroke-width: 1.0;"/><line style="stroke: #A80036; stroke-width: 1.0;" x1="862.5" x2="973.5" y1="323.9727" y2="323.9727"/><text fill="#000000" font-family="sans-serif" font-size="13" lengthAdjust="spacingAndGlyphs" textLength="93" x="869.5" y="319.541">OnWindowMsg</text><line style="stroke: #A80036; stroke-width: 1.0;" x1="979.5" x2="1021.5" y1="353.5938" y2="353.5938"/><line style="stroke: #A80036; stroke-width: 1.0;" x1="1021.5" x2="1021.5" y1="353.5938" y2="366.5938"/><line style="stroke: #A80036; stroke-width: 1.0;" x1="980.5" x2="1021.5" y1="366.5938" y2="366.5938"/><polygon fill="#A80036" points="990.5,362.5938,980.5,366.5938,990.5,370.5938,986.5,366.5938" style="stroke: #A80036; stroke-width: 1.0;"/><text fill="#000000" font-family="sans-serif" font-size="13" lengthAdjust="spacingAndGlyphs" textLength="119" x="986.5" y="348.8516">ChainToMsgCenter</text><polygon fill="#A80036" points="1133,391.5938,1143,395.5938,1133,399.5938,1137,395.5938" style="stroke: #A80036; stroke-width: 1.0;"/><line style="stroke: #A80036; stroke-width: 1.0;" x1="979.5" x2="1139" y1="395.5938" y2="395.5938"/><text fill="#000000" font-family="sans-serif" font-size="13" lengthAdjust="spacingAndGlyphs" textLength="84" x="986.5" y="391.1621">SendMessage</text><polygon fill="#A80036" points="1312,420.9043,1322,424.9043,1312,428.9043,1316,424.9043" style="stroke: #A80036; stroke-width: 1.0;"/><line style="stroke: #A80036; stroke-width: 1.0;" x1="1145" x2="1318" y1="424.9043" y2="424.9043"/><text fill="#000000" font-family="sans-serif" font-size="13" lengthAdjust="spacingAndGlyphs" textLength="155" x="1152" y="420.4727">:ProcessWindowMessage</text><polygon fill="#A80036" points="1433.5,450.2148,1443.5,454.2148,1433.5,458.2148,1437.5,454.2148" style="stroke: #A80036; stroke-width: 1.0;"/><line style="stroke: #A80036; stroke-width: 1.0;" x1="1324" x2="1439.5" y1="454.2148" y2="454.2148"/><text fill="#000000" font-family="sans-serif" font-size="13" lengthAdjust="spacingAndGlyphs" textLength="82" x="1331" y="449.7832">OnCommand</text><polygon fill="#A80036" points="1335,479.5254,1325,483.5254,1335,487.5254,1331,483.5254" style="stroke: #A80036; stroke-width: 1.0;"/><line style="stroke: #A80036; stroke-width: 1.0;" x1="1329" x2="1444.5" y1="483.5254" y2="483.5254"/><text fill="#000000" font-family="sans-serif" font-size="13" lengthAdjust="spacingAndGlyphs" textLength="82" x="1341" y="479.0938">OnCommand</text><polygon fill="#A80036" points="1597,508.8359,1607,512.8359,1597,516.8359,1601,512.8359" style="stroke: #A80036; stroke-width: 1.0;"/><line style="stroke: #A80036; stroke-width: 1.0;" x1="1324" x2="1603" y1="512.8359" y2="512.8359"/><text fill="#000000" font-family="sans-serif" font-size="13" lengthAdjust="spacingAndGlyphs" textLength="145" x="1331" y="508.4043">SelectANewApplication</text><polygon fill="#A80036" points="1779.5,538.1465,1789.5,542.1465,1779.5,546.1465,1783.5,542.1465" style="stroke: #A80036; stroke-width: 1.0;"/><line style="stroke: #A80036; stroke-width: 1.0;" x1="1609" x2="1785.5" y1="542.1465" y2="542.1465"/><text fill="#000000" font-family="sans-serif" font-size="13" lengthAdjust="spacingAndGlyphs" textLength="153" x="1616" y="537.7148">ShowInstalledAppDialog</text></g></svg>