<?xml version="1.0" encoding="UTF-8" standalone="yes"?><svg xmlns="http://www.w3.org/2000/svg" xmlns:xlink="http://www.w3.org/1999/xlink" height="751pt" style="width:5570px;height:751px;" version="1.1" viewBox="0 0 5570 751" width="5570pt"><defs><filter height="300%" id="f1" width="300%" x="-1" y="-1"><feGaussianBlur result="blurOut" stdDeviation="2.0"/><feColorMatrix in="blurOut" result="blurOut2" type="matrix" values="0 0 0 0 0 0 0 0 0 0 0 0 0 0 0 0 0 0 .4 0"/><feOffset dx="4.0" dy="4.0" in="blurOut2" result="blurOut3"/><feBlend in="SourceGraphic" in2="blurOut3" mode="normal"/></filter></defs><g><ellipse cx="2598" cy="33" fill="#000000" filter="url(#f1)" rx="10" ry="10" style="stroke: none; stroke-width: 1.0;"/><rect fill="#FEFECE" filter="url(#f1)" height="50" rx="12.5" ry="12.5" style="stroke: #A80036; stroke-width: 1.5;" width="274" x="2643" y="8"/><line style="stroke: #A80036; stroke-width: 1.5;" x1="2643" x2="2917" y1="34.4883" y2="34.4883"/><text fill="#000000" font-family="sans-serif" font-size="14" lengthAdjust="spacingAndGlyphs" textLength="254" x="2653" y="26.5352">ANYONE_CAN_SHARE_STATUS_NONE</text><rect fill="#FEFECE" filter="url(#f1)" height="50.6211" rx="12.5" ry="12.5" style="stroke: #A80036; stroke-width: 1.5;" width="406" x="6" y="125"/><line style="stroke: #A80036; stroke-width: 1.5;" x1="6" x2="412" y1="151.4883" y2="151.4883"/><text fill="#000000" font-family="sans-serif" font-size="14" lengthAdjust="spacingAndGlyphs" textLength="268" x="75" y="143.5352">ANYONE_CAN_SHARE_STATUS_SCREEN</text><text fill="#000000" font-family="sans-serif" font-size="12" lengthAdjust="spacingAndGlyphs" textLength="386" x="11" y="168.0898">entry / CMCUIMgr::OnShareDesktop() [S_OK == MakeMePresenter]</text><rect fill="#FEFECE" filter="url(#f1)" height="50.6211" rx="12.5" ry="12.5" style="stroke: #A80036; stroke-width: 1.5;" width="422" x="447" y="125"/><line style="stroke: #A80036; stroke-width: 1.5;" x1="447" x2="869" y1="151.4883" y2="151.4883"/><text fill="#000000" font-family="sans-serif" font-size="14" lengthAdjust="spacingAndGlyphs" textLength="306" x="505" y="143.5352">ANYONE_CAN_SHARE_STATUS_APPLICATION</text><text fill="#000000" font-family="sans-serif" font-size="12" lengthAdjust="spacingAndGlyphs" textLength="402" x="452" y="168.0898">entry / CMCUIMgr::OnShareApplication() [S_OK == MakeMePresenter]</text><rect fill="#FEFECE" filter="url(#f1)" height="50.6211" rx="12.5" ry="12.5" style="stroke: #A80036; stroke-width: 1.5;" width="437" x="904.5" y="125"/><line style="stroke: #A80036; stroke-width: 1.5;" x1="904.5" x2="1341.5" y1="151.4883" y2="151.4883"/><text fill="#000000" font-family="sans-serif" font-size="14" lengthAdjust="spacingAndGlyphs" textLength="371" x="937.5" y="143.5352">ANYONE_CAN_SHARE_STATUS_APPLICATION_BYINDEX</text><text fill="#000000" font-family="sans-serif" font-size="12" lengthAdjust="spacingAndGlyphs" textLength="417" x="909.5" y="168.0898">entry / CMCFITUIMgr::OnPreOnCommand() [S_OK == MakeMePresenter]</text><rect fill="#FEFECE" filter="url(#f1)" height="50.6211" rx="12.5" ry="12.5" style="stroke: #A80036; stroke-width: 1.5;" width="437" x="1376.5" y="125"/><line style="stroke: #A80036; stroke-width: 1.5;" x1="1376.5" x2="1813.5" y1="151.4883" y2="151.4883"/><text fill="#000000" font-family="sans-serif" font-size="14" lengthAdjust="spacingAndGlyphs" textLength="368" x="1411" y="143.5352">ANYONE_CAN_SHARE_STATUS_APPLICATION_OTHERS</text><text fill="#000000" font-family="sans-serif" font-size="12" lengthAdjust="spacingAndGlyphs" textLength="417" x="1381.5" y="168.0898">entry / CMCFITUIMgr::OnPreOnCommand() [S_OK == MakeMePresenter]</text><rect fill="#FEFECE" filter="url(#f1)" height="64.7539" rx="12.5" ry="12.5" style="stroke: #A80036; stroke-width: 1.5;" width="446" x="1849" y="118"/><line style="stroke: #A80036; stroke-width: 1.5;" x1="1849" x2="2295" y1="144.4883" y2="144.4883"/><text fill="#000000" font-family="sans-serif" font-size="14" lengthAdjust="spacingAndGlyphs" textLength="302" x="1921" y="136.5352">ANYONE_CAN_SHARE_STATUS_FILES_LOCAL</text><text fill="#000000" font-family="sans-serif" font-size="12" lengthAdjust="spacingAndGlyphs" textLength="426" x="1854" y="161.0898">entry1 /  CMCUIMgr::OnFileOpenDocument() [S_OK == MakeMePresenter]</text><text fill="#000000" font-family="sans-serif" font-size="12" lengthAdjust="spacingAndGlyphs" textLength="417" x="1854" y="175.2227">entry2 / CMCUIMgr::OnSharePresentation() [S_OK == MakeMePresenter]</text><rect fill="#FEFECE" filter="url(#f1)" height="50.6211" rx="12.5" ry="12.5" style="stroke: #A80036; stroke-width: 1.5;" width="437" x="2330.5" y="125"/><line style="stroke: #A80036; stroke-width: 1.5;" x1="2330.5" x2="2767.5" y1="151.4883" y2="151.4883"/><text fill="#000000" font-family="sans-serif" font-size="14" lengthAdjust="spacingAndGlyphs" textLength="287" x="2405.5" y="143.5352">ANYONE_CAN_SHARE_STATUS_FILES_DMS</text><text fill="#000000" font-family="sans-serif" font-size="12" lengthAdjust="spacingAndGlyphs" textLength="417" x="2335.5" y="168.0898">entry / CMCFITUIMgr::OnPreOnCommand() [S_OK == MakeMePresenter]</text><rect fill="#FEFECE" filter="url(#f1)" height="50.6211" rx="12.5" ry="12.5" style="stroke: #A80036; stroke-width: 1.5;" width="417" x="2802.5" y="125"/><line style="stroke: #A80036; stroke-width: 1.5;" x1="2802.5" x2="3219.5" y1="151.4883" y2="151.4883"/><text fill="#000000" font-family="sans-serif" font-size="14" lengthAdjust="spacingAndGlyphs" textLength="310" x="2856" y="143.5352">ANYONE_CAN_SHARE_STATUS_WEBCONTENT</text><text fill="#000000" font-family="sans-serif" font-size="12" lengthAdjust="spacingAndGlyphs" textLength="397" x="2807.5" y="168.0898">entry CMCUIMgr::OnShareWebContent() [S_OK == MakeMePresenter]</text><rect fill="#FEFECE" filter="url(#f1)" height="50.6211" rx="12.5" ry="12.5" style="stroke: #A80036; stroke-width: 1.5;" width="429" x="3254.5" y="125"/><line style="stroke: #A80036; stroke-width: 1.5;" x1="3254.5" x2="3683.5" y1="151.4883" y2="151.4883"/><text fill="#000000" font-family="sans-serif" font-size="14" lengthAdjust="spacingAndGlyphs" textLength="308" x="3315" y="143.5352">ANYONE_CAN_SHARE_STATUS_WEBBROWSER</text><text fill="#000000" font-family="sans-serif" font-size="12" lengthAdjust="spacingAndGlyphs" textLength="409" x="3259.5" y="168.0898">entry / CMCUIMgr::OnShareWebBrowser() [S_OK == MakeMePresenter]</text><rect fill="#FEFECE" filter="url(#f1)" height="50.6211" rx="12.5" ry="12.5" style="stroke: #A80036; stroke-width: 1.5;" width="453" x="3718.5" y="125"/><line style="stroke: #A80036; stroke-width: 1.5;" x1="3718.5" x2="4171.5" y1="151.4883" y2="151.4883"/><text fill="#000000" font-family="sans-serif" font-size="14" lengthAdjust="spacingAndGlyphs" textLength="239" x="3825.5" y="143.5352">ANYONE_CAN_SHARE_STATUS_MM</text><text fill="#000000" font-family="sans-serif" font-size="12" lengthAdjust="spacingAndGlyphs" textLength="433" x="3723.5" y="168.0898">entry / CMCUIMgr::OnShareMeetingManager() [S_OK == MakeMePresenter]</text><rect fill="#FEFECE" filter="url(#f1)" height="50.6211" rx="12.5" ry="12.5" style="stroke: #A80036; stroke-width: 1.5;" width="424" x="4207" y="125"/><line style="stroke: #A80036; stroke-width: 1.5;" x1="4207" x2="4631" y1="151.4883" y2="151.4883"/><text fill="#000000" font-family="sans-serif" font-size="14" lengthAdjust="spacingAndGlyphs" textLength="306" x="4266" y="143.5352">ANYONE_CAN_SHARE_STATUS_WHITEBOARD</text><text fill="#000000" font-family="sans-serif" font-size="12" lengthAdjust="spacingAndGlyphs" textLength="404" x="4212" y="168.0898">entry / CMCUIMgr::OnShareWhiteboard() [S_OK == MakeMePresenter]</text><rect fill="#FEFECE" filter="url(#f1)" height="50.6211" rx="12.5" ry="12.5" style="stroke: #A80036; stroke-width: 1.5;" width="459" x="4666.5" y="125"/><line style="stroke: #A80036; stroke-width: 1.5;" x1="4666.5" x2="5125.5" y1="151.4883" y2="151.4883"/><text fill="#000000" font-family="sans-serif" font-size="14" lengthAdjust="spacingAndGlyphs" textLength="234" x="4779" y="143.5352">ANYONE_CAN_SHARE_STATUS_RA</text><text fill="#000000" font-family="sans-serif" font-size="12" lengthAdjust="spacingAndGlyphs" textLength="439" x="4671.5" y="168.0898">entry / CMCUIMgr::OnShareRemoteComputer() [S_OK == MakeMePresenter]</text><rect fill="#FEFECE" filter="url(#f1)" height="50.6211" rx="12.5" ry="12.5" style="stroke: #A80036; stroke-width: 1.5;" width="400" x="5161" y="125"/><line style="stroke: #A80036; stroke-width: 1.5;" x1="5161" x2="5561" y1="151.4883" y2="151.4883"/><text fill="#000000" font-family="sans-serif" font-size="14" lengthAdjust="spacingAndGlyphs" textLength="281" x="5220.5" y="143.5352">ANYONE_CAN_SHARE_STATUS_ADDPAGE</text><text fill="#000000" font-family="sans-serif" font-size="12" lengthAdjust="spacingAndGlyphs" textLength="380" x="5166" y="168.0898">entry / CMCUIMgr::OnEditAddPage() [S_OK == MakeMePresenter]</text><rect fill="#FEFECE" filter="url(#f1)" height="501.4883" rx="12.5" ry="12.5" style="stroke: #A80036; stroke-width: 1.5;" width="1711" x="1924.5" y="243"/><rect fill="#FFFFFF" height="469" rx="12.5" ry="12.5" style="stroke: #FFFFFF; stroke-width: 1.0;" width="1705" x="1927.5" y="272.4883"/><line style="stroke: #A80036; stroke-width: 1.5;" x1="1924.5" x2="3635.5" y1="269.4883" y2="269.4883"/><text fill="#000000" font-family="sans-serif" font-size="14" lengthAdjust="spacingAndGlyphs" textLength="208" x="2676" y="261.5352">ANYONE_CAN_SHARE_ACTION</text><ellipse cx="2626.635" cy="292.4883" fill="#000000" filter="url(#f1)" rx="10" ry="10" style="stroke: none; stroke-width: 1.0;"/><rect fill="#FEFECE" filter="url(#f1)" height="50" rx="12.5" ry="12.5" style="stroke: #A80036; stroke-width: 1.5;" width="274" x="2489.635" y="339.4883"/><line style="stroke: #A80036; stroke-width: 1.5;" x1="2489.635" x2="2763.635" y1="365.9766" y2="365.9766"/><text fill="#000000" font-family="sans-serif" font-size="14" lengthAdjust="spacingAndGlyphs" textLength="254" x="2499.635" y="358.0234">ANYONE_CAN_SHARE_ACTION_NONE</text><rect fill="#FEFECE" filter="url(#f1)" height="50" rx="12.5" ry="12.5" style="stroke: #A80036; stroke-width: 1.5;" width="358" x="2024.6355" y="457.4883"/><line style="stroke: #A80036; stroke-width: 1.5;" x1="2024.6355" x2="2382.6355" y1="483.9766" y2="483.9766"/><text fill="#000000" font-family="sans-serif" font-size="14" lengthAdjust="spacingAndGlyphs" textLength="338" x="2034.6355" y="476.0234">ANYONE_CAN_SHARE_ACTION_MAKE_PRESENTER</text><rect fill="#FEFECE" filter="url(#f1)" height="50" rx="12.5" ry="12.5" style="stroke: #A80036; stroke-width: 1.5;" width="270" x="2491.635" y="457.4883"/><line style="stroke: #A80036; stroke-width: 1.5;" x1="2491.635" x2="2761.635" y1="483.9766" y2="483.9766"/><text fill="#000000" font-family="sans-serif" font-size="14" lengthAdjust="spacingAndGlyphs" textLength="250" x="2501.635" y="476.0234">ANYONE_CAN_SHARE_ACTION_WAIT</text><rect fill="#FEFECE" filter="url(#f1)" height="50" rx="12.5" ry="12.5" style="stroke: #A80036; stroke-width: 1.5;" width="281" x="2721.135" y="575.4883"/><line style="stroke: #A80036; stroke-width: 1.5;" x1="2721.135" x2="3002.135" y1="601.9766" y2="601.9766"/><text fill="#000000" font-family="sans-serif" font-size="14" lengthAdjust="spacingAndGlyphs" textLength="261" x="2731.135" y="594.0234">ANYONE_CAN_SHARE_ACTION_READY</text><rect fill="#FEFECE" filter="url(#f1)" height="50.6211" rx="12.5" ry="12.5" style="stroke: #A80036; stroke-width: 1.5;" width="306" x="3038.64" y="678.4883"/><line style="stroke: #A80036; stroke-width: 1.5;" x1="3038.64" x2="3344.64" y1="704.9766" y2="704.9766"/><text fill="#000000" font-family="sans-serif" font-size="14" lengthAdjust="spacingAndGlyphs" textLength="286" x="3048.64" y="697.0234">ANYONE_CAN_SHARE_ACTION_HANDLING</text><text fill="#000000" font-family="sans-serif" font-size="12" lengthAdjust="spacingAndGlyphs" textLength="216" x="3043.64" y="721.5781">exit/CMCUIMgr::LaunchAnyoneShare()</text><path d="M2626.635,302.4993 C2626.635,310.7423 2626.635,322.8783 2626.635,334.2313 " fill="none" style="stroke: #A80036; stroke-width: 1.0;"/><polygon fill="#A80036" points="2626.635,339.3753,2630.635,330.3753,2626.635,334.3753,2622.635,330.3753,2626.635,339.3753" style="stroke: #A80036; stroke-width: 1.0;"/><path d="M2489.253,368.3573 C2294.899,374.5133 1961.0514,387.8783 1942.6355,407.4883 C1932.8994,417.8553 1933.4325,428.6453 1942.6355,439.4883 C1948.9988,446.9853 1980.3225,454.2803 2019.1914,460.6673 " fill="none" style="stroke: #A80036; stroke-width: 1.0;"/><polygon fill="#A80036" points="2024.4709,461.5223,2016.2261,456.135,2019.5352,460.723,2014.9472,464.0321,2024.4709,461.5223" style="stroke: #A80036; stroke-width: 1.0;"/><text fill="#000000" font-family="sans-serif" font-size="13" lengthAdjust="spacingAndGlyphs" textLength="490" x="1943.6355" y="428.5566">CMCFeatureMgr::MakeMePresenter() [!= ANYONE_CAN_SHARE_STATUS_NONE]</text><path d="M2489.373,385.9983 C2469.51,391.7563 2453.453,398.8503 2446.635,407.4883 C2425.208,434.6373 2449.55,452.0623 2486.542,463.2003 " fill="none" style="stroke: #A80036; stroke-width: 1.0;"/><polygon fill="#A80036" points="2491.599,464.6623,2484.0658,458.3179,2486.7961,463.2723,2481.8418,466.0026,2491.599,464.6623" style="stroke: #A80036; stroke-width: 1.0;"/><text fill="#000000" font-family="sans-serif" font-size="13" lengthAdjust="spacingAndGlyphs" textLength="338" x="2447.635" y="428.5566">[!= ANYONE_CAN_SHARE_ACTION_MAKE_PRESENTER]</text><path d="M2760.193,457.3453 C2787.802,446.0453 2803.902,430.0083 2786.635,407.4883 C2782.039,401.4933 2772.593,396.1483 2760.48,391.4383 " fill="none" style="stroke: #A80036; stroke-width: 1.0;"/><polygon fill="#A80036" points="2755.521,389.5963,2762.5644,396.4803,2760.208,391.3376,2765.3506,388.9812,2755.521,389.5963" style="stroke: #A80036; stroke-width: 1.0;"/><text fill="#000000" font-family="sans-serif" font-size="13" lengthAdjust="spacingAndGlyphs" textLength="213" x="2947.635" y="421.0566">CMCUIMgr::OnPresenterChanged()</text><text fill="#000000" font-family="sans-serif" font-size="13" lengthAdjust="spacingAndGlyphs" textLength="523" x="2794.635" y="436.3672">[ANYONE_CAN_SHARE_ACTION_WAIT] / CMCServiceMgr::ResetAnyoneShareStatus()</text><path d="M2343.18,507.5133 C2453.116,527.2283 2605.866,554.6203 2717.077,574.5643 " fill="none" style="stroke: #A80036; stroke-width: 1.0;"/><polygon fill="#A80036" points="2722.009,575.4493,2713.8567,569.923,2717.0876,574.5664,2712.4441,577.7973,2722.009,575.4493" style="stroke: #A80036; stroke-width: 1.0;"/><text fill="#000000" font-family="sans-serif" font-size="13" lengthAdjust="spacingAndGlyphs" textLength="213" x="2633.635" y="539.0566">CMCUIMgr::OnPresenterChanged()</text><text fill="#000000" font-family="sans-serif" font-size="13" lengthAdjust="spacingAndGlyphs" textLength="259" x="2612.635" y="554.3672">[!= ANYONE_CAN_SHARE_ACTION_WAIT]</text><path d="M2941.52,625.5423 C2991.04,641.0752 3054.65,661.026 3105.33,676.9203 " fill="none" style="stroke: #A80036; stroke-width: 1.0;"/><polygon fill="#A80036" points="3110.19,678.4455,3102.8041,671.9302,3105.4202,676.9458,3100.4046,679.5619,3110.19,678.4455" style="stroke: #A80036; stroke-width: 1.0;"/><text fill="#000000" font-family="sans-serif" font-size="13" lengthAdjust="spacingAndGlyphs" textLength="123" x="3046.64" y="657.0566">CMCUIMgr::OnIdle()</text><path d="M3220.07,678.1511 C3278.25,622.3143 3399.15,488.8763 3322.64,407.4883 C3303.97,387.6393 2967.36,374.4423 2769.211,368.3573 " fill="none" style="stroke: #A80036; stroke-width: 1.0;"/><polygon fill="#A80036" points="2763.973,368.1973,2772.8465,372.4705,2768.9707,368.3501,2773.0911,364.4742,2763.973,368.1973" style="stroke: #A80036; stroke-width: 1.0;"/><text fill="#000000" font-family="sans-serif" font-size="13" lengthAdjust="spacingAndGlyphs" textLength="267" x="3334.64" y="546.5566">CMCServiceMgr::ResetAnyoneShareStatus()</text><path d="M2608.31,33 C2618.11,33 2627.92,33 2637.72,33 " fill="none" style="stroke: #A80036; stroke-width: 1.0;"/><polygon fill="#A80036" points="2642.85,33,2633.85,29,2637.85,33,2633.85,37,2642.85,33" style="stroke: #A80036; stroke-width: 1.0;"/><path d="M2642.78,56.122 C2636.78,56.82 2630.83,57.452 2625,58 C1652.91,149.268 1401.67,33.172 429,118 C410.119,119.647 390.389,121.857 370.831,124.354 " fill="none" style="stroke: #A80036; stroke-width: 1.0;"/><polygon fill="#A80036" points="365.862,124.995,375.2999,127.8104,370.8209,124.3551,374.2761,119.8761,365.862,124.995" style="stroke: #A80036; stroke-width: 1.0;"/><path d="M2642.78,56.069 C2636.78,56.782 2630.83,57.431 2625,58 C1855.74,133.016 1656.93,50.269 887,118 C867.825,119.687 847.801,121.882 827.919,124.335 " fill="none" style="stroke: #A80036; stroke-width: 1.0;"/><polygon fill="#A80036" points="822.868,124.964,832.2937,127.8198,827.8296,124.3454,831.304,119.8813,822.868,124.964" style="stroke: #A80036; stroke-width: 1.0;"/><path d="M2642.77,55.975 C2636.77,56.713 2630.83,57.394 2625,58 C2064.72,116.273 1919.91,66.191 1359,118 C1339.92,119.762 1320.02,121.951 1300.22,124.354 " fill="none" style="stroke: #A80036; stroke-width: 1.0;"/><polygon fill="#A80036" points="1295.19,124.969,1304.605,127.8599,1300.1539,124.3689,1303.6448,119.9177,1295.19,124.969" style="stroke: #A80036; stroke-width: 1.0;"/><path d="M2642.75,55.769 C2636.76,56.563 2630.82,57.312 2625,58 C2273.55,99.546 2182.9,80.509 1831,118 C1813.43,119.872 1795.14,122.025 1776.88,124.313 " fill="none" style="stroke: #A80036; stroke-width: 1.0;"/><polygon fill="#A80036" points="1771.73,124.961,1781.1614,127.7981,1776.6903,124.3326,1780.1559,119.8615,1771.73,124.961" style="stroke: #A80036; stroke-width: 1.0;"/><path d="M2642.65,55.795 C2537.65,73.221 2391.32,97.505 2273.13,117.12 " fill="none" style="stroke: #A80036; stroke-width: 1.0;"/><polygon fill="#A80036" points="2267.88,117.991,2277.4113,120.4718,2272.8132,117.1767,2276.1083,112.5786,2267.88,117.991" style="stroke: #A80036; stroke-width: 1.0;"/><path d="M2730.73,58.063 C2693.55,76.974 2642.54,102.92 2604.03,122.511 " fill="none" style="stroke: #A80036; stroke-width: 1.0;"/><polygon fill="#A80036" points="2599.39,124.867,2609.2262,124.3682,2603.8503,122.6075,2605.611,117.2316,2599.39,124.867" style="stroke: #A80036; stroke-width: 1.0;"/><path d="M2829.27,58.063 C2866.45,76.974 2917.46,102.92 2955.97,122.511 " fill="none" style="stroke: #A80036; stroke-width: 1.0;"/><polygon fill="#A80036" points="2960.61,124.867,2954.389,117.2316,2956.1497,122.6075,2950.7738,124.3682,2960.61,124.867" style="stroke: #A80036; stroke-width: 1.0;"/><path d="M2917.36,56.425 C3031.98,75.971 3195.25,103.815 3314.41,124.137 " fill="none" style="stroke: #A80036; stroke-width: 1.0;"/><polygon fill="#A80036" points="3319.34,124.978,3311.1428,119.5185,3314.4115,124.1354,3309.7946,127.4041,3319.34,124.978" style="stroke: #A80036; stroke-width: 1.0;"/><path d="M2917.1,43.913 C3097.19,58.647 3423.16,86.688 3701,118 C3718.27,119.947 3736.22,122.095 3754.18,124.332 " fill="none" style="stroke: #A80036; stroke-width: 1.0;"/><polygon fill="#A80036" points="3759.25,124.966,3750.8241,119.8665,3754.2897,124.3376,3749.8186,127.8031,3759.25,124.966" style="stroke: #A80036; stroke-width: 1.0;"/><path d="M2917.3,37.627 C3169.63,46.944 3723.89,71.186 4189,118 C4206.97,119.809 4225.69,121.98 4244.36,124.33 " fill="none" style="stroke: #A80036; stroke-width: 1.0;"/><polygon fill="#A80036" points="4249.62,124.998,4241.1943,119.8982,4244.6597,124.3694,4240.1885,127.8348,4249.62,124.998" style="stroke: #A80036; stroke-width: 1.0;"/><path d="M2917.15,35.23 C3226.6,41.14 4002.5,60.871 4649,118 C4669.04,119.771 4689.96,121.972 4710.77,124.387 " fill="none" style="stroke: #A80036; stroke-width: 1.0;"/><polygon fill="#A80036" points="4715.77,124.972,4707.3004,119.9456,4710.8044,124.3865,4706.3635,127.8905,4715.77,124.972" style="stroke: #A80036; stroke-width: 1.0;"/><path d="M2917.29,35.914 C3353.78,45.498 4706.51,77.74 5143,118 C5161.2,119.679 5180.19,121.862 5199.06,124.303 " fill="none" style="stroke: #A80036; stroke-width: 1.0;"/><polygon fill="#A80036" points="5204.37,124.999,5195.9592,119.8748,5199.4115,124.356,5194.9303,127.8083,5204.37,124.999" style="stroke: #A80036; stroke-width: 1.0;"/><path d="M380.109,176.039 C396.627,178.426 413.132,180.78 429,183 C922.081,251.978 1473.94,325.075 1919.01,383.008 " fill="none" style="stroke: #A80036; stroke-width: 1.0;"/><polygon fill="#A80036" points="1924.24,383.689,1915.829,378.5651,1919.2815,383.0462,1914.8004,386.4987,1924.24,383.689" style="stroke: #A80036; stroke-width: 1.0;"/><path d="M815.761,176.001 C1049.69,213.813 1505.52,287.493 1919.21,354.362 " fill="none" style="stroke: #A80036; stroke-width: 1.0;"/><polygon fill="#A80036" points="1924.38,355.197,1916.1359,349.8086,1919.4444,354.397,1914.856,357.7055,1924.38,355.197" style="stroke: #A80036; stroke-width: 1.0;"/><path d="M1246.19,176.001 C1393.75,206.546 1654.39,260.498 1919.41,315.358 " fill="none" style="stroke: #A80036; stroke-width: 1.0;"/><polygon fill="#A80036" points="1924.49,316.409,1916.4886,310.6663,1919.594,315.3946,1914.8657,318.5,1924.49,316.409" style="stroke: #A80036; stroke-width: 1.0;"/><path d="M1683.1,176.001 C1741.52,192.91 1824.72,216.992 1919.51,244.429 " fill="none" style="stroke: #A80036; stroke-width: 1.0;"/><polygon fill="#A80036" points="1924.32,245.822,1916.7816,239.4839,1919.516,244.4359,1914.5639,247.1703,1924.32,245.822" style="stroke: #A80036; stroke-width: 1.0;"/><path d="M2139.25,183.078 C2171.03,198.477 2212.11,218.379 2258.11,240.665 " fill="none" style="stroke: #A80036; stroke-width: 1.0;"/><polygon fill="#A80036" points="2262.87,242.97,2256.5027,235.4562,2258.3669,240.7971,2253.026,242.6612,2262.87,242.97" style="stroke: #A80036; stroke-width: 1.0;"/><path d="M2566.17,176.001 C2576.75,191.704 2591.49,213.595 2608.34,238.615 " fill="none" style="stroke: #A80036; stroke-width: 1.0;"/><polygon fill="#A80036" points="2611.29,242.988,2609.5914,233.2867,2608.5017,238.8376,2602.9508,237.748,2611.29,242.988" style="stroke: #A80036; stroke-width: 1.0;"/><path d="M2993.83,176.001 C2983.25,191.704 2968.51,213.595 2951.66,238.615 " fill="none" style="stroke: #A80036; stroke-width: 1.0;"/><polygon fill="#A80036" points="2948.71,242.988,2957.0492,237.748,2951.4983,238.8376,2950.4086,233.2867,2948.71,242.988" style="stroke: #A80036; stroke-width: 1.0;"/><path d="M3417.78,176.001 C3385.38,192.126 3339.89,214.775 3287.94,240.638 " fill="none" style="stroke: #A80036; stroke-width: 1.0;"/><polygon fill="#A80036" points="3283.22,242.988,3293.0594,242.5571,3287.6958,240.7594,3289.4936,235.3958,3283.22,242.988" style="stroke: #A80036; stroke-width: 1.0;"/><path d="M3858.39,176.001 C3802.96,192.321 3724.83,215.323 3635.66,241.576 " fill="none" style="stroke: #A80036; stroke-width: 1.0;"/><polygon fill="#A80036" points="3630.86,242.988,3640.6239,244.2789,3635.6558,241.5737,3638.361,236.6056,3630.86,242.988" style="stroke: #A80036; stroke-width: 1.0;"/><path d="M4297.15,176.001 C4152.94,206.18 3899.55,259.207 3640.67,313.384 " fill="none" style="stroke: #A80036; stroke-width: 1.0;"/><polygon fill="#A80036" points="3635.71,314.423,3645.3403,316.4865,3640.6031,313.3947,3643.6949,308.6575,3635.71,314.423" style="stroke: #A80036; stroke-width: 1.0;"/><path d="M4738.68,176.001 C4505.89,213.735 4052.74,287.192 3640.89,353.951 " fill="none" style="stroke: #A80036; stroke-width: 1.0;"/><polygon fill="#A80036" points="3635.74,354.786,3645.264,357.2945,3640.6756,353.986,3643.9841,349.3976,3635.74,354.786" style="stroke: #A80036; stroke-width: 1.0;"/><path d="M5191.75,176.027 C5175.28,178.422 5158.82,180.781 5143,183 C4645.81,252.721 4089.08,326.104 3640.95,384.015 " fill="none" style="stroke: #A80036; stroke-width: 1.0;"/><polygon fill="#A80036" points="3635.68,384.696,3645.1116,387.5324,3640.6403,384.0672,3644.1055,379.5959,3635.68,384.696" style="stroke: #A80036; stroke-width: 1.0;"/></g></svg>