<?xml version="1.0" encoding="UTF-8" standalone="yes"?><svg xmlns="http://www.w3.org/2000/svg" xmlns:xlink="http://www.w3.org/1999/xlink" height="674pt" style="width:2487px;height:674px;" version="1.1" viewBox="0 0 2487 674" width="2487pt"><defs><filter height="300%" id="f1" width="300%" x="-1" y="-1"><feGaussianBlur result="blurOut" stdDeviation="2.0"/><feColorMatrix in="blurOut" result="blurOut2" type="matrix" values="0 0 0 0 0 0 0 0 0 0 0 0 0 0 0 0 0 0 .4 0"/><feOffset dx="4.0" dy="4.0" in="blurOut2" result="blurOut3"/><feBlend in="SourceGraphic" in2="blurOut3" mode="normal"/></filter></defs><g><rect fill="#FEFECE" filter="url(#f1)" height="73.9102" style="stroke: #A80036; stroke-width: 1.5;" width="148" x="1188" y="8"/><ellipse cx="1205.25" cy="24" fill="#FF7700" rx="11" ry="11" style="stroke: #A80036; stroke-width: 1.0;"/><path d="M1207.4219,19.3462 Q1207.5464,19.0806 1207.7041,18.981 Q1207.8618,18.8813 1208.1855,18.8813 Q1208.667,18.8813 1208.804,19.0598 Q1208.9409,19.2383 1208.9575,19.7695 L1208.9907,21.3633 L1208.9907,21.4546 Q1208.9907,21.9443 1208.7957,22.1394 Q1208.6006,22.3345 1208.1357,22.3345 Q1207.5464,22.3345 1207.2559,21.7036 Q1207.2144,21.6123 1207.1895,21.5542 Q1206.9321,21.0396 1206.4922,20.7781 Q1206.0522,20.5166 1205.4546,20.5166 Q1204.7075,20.5166 1204.2468,20.8611 Q1203.7861,21.2056 1203.7861,21.7451 Q1203.7861,22.5088 1205.8945,22.9487 Q1206.2515,23.0234 1206.459,23.0649 Q1208.0527,23.4136 1208.7666,24.1274 Q1209.4805,24.8413 1209.4805,26.0781 Q1209.4805,27.6055 1208.4429,28.4314 Q1207.4053,29.2573 1205.4712,29.2573 Q1204.7158,29.2573 1204.1223,29.1577 Q1203.5288,29.0581 1202.9727,28.8506 Q1202.8398,29.0664 1202.6655,29.1619 Q1202.4912,29.2573 1202.1841,29.2573 Q1201.6611,29.2573 1201.4536,29.0581 Q1201.2461,28.8589 1201.2378,28.3525 L1201.2046,26.4019 L1201.2046,26.3105 Q1201.2046,25.7627 1201.408,25.5469 Q1201.6113,25.3311 1202.1177,25.3311 Q1202.6572,25.3311 1203.0225,26.1113 Q1203.1055,26.3022 1203.1553,26.4019 Q1203.479,27.041 1204.0559,27.3564 Q1204.6328,27.6719 1205.4712,27.6719 Q1206.2349,27.6719 1206.6582,27.3564 Q1207.0815,27.041 1207.0815,26.4683 Q1207.0815,25.5801 1205.1641,25.1235 Q1204.5913,24.9907 1204.2593,24.8994 Q1202.6489,24.4761 1202.0264,23.8411 Q1201.4038,23.2061 1201.4038,22.1021 Q1201.4038,20.6826 1202.4705,19.782 Q1203.5371,18.8813 1205.2305,18.8813 Q1205.7949,18.8813 1206.3386,18.9976 Q1206.8823,19.1138 1207.4219,19.3462 Z "/><text fill="#000000" font-family="sans-serif" font-size="12" lengthAdjust="spacingAndGlyphs" textLength="111" x="1219.75" y="28.5352">conCONNECTDATA</text><line style="stroke: #A80036; stroke-width: 1.5;" x1="1189" x2="1335" y1="40" y2="40"/><ellipse cx="1199" cy="51.9775" fill="none" rx="3" ry="3" style="stroke: #038048; stroke-width: 1.0;"/><text fill="#000000" font-family="sans-serif" font-size="11" lengthAdjust="spacingAndGlyphs" textLength="108" x="1208" y="54.6348">conIUnknown* punk</text><ellipse cx="1199" cy="64.9326" fill="none" rx="3" ry="3" style="stroke: #038048; stroke-width: 1.0;"/><text fill="#000000" font-family="sans-serif" font-size="11" lengthAdjust="spacingAndGlyphs" textLength="122" x="1208" y="67.5898">ConUint32    dwCookie</text><line style="stroke: #A80036; stroke-width: 1.5;" x1="1189" x2="1335" y1="73.9102" y2="73.9102"/><rect fill="#FEFECE" filter="url(#f1)" height="99.8203" style="stroke: #A80036; stroke-width: 1.5;" width="332" x="1092" y="533.5"/><ellipse cx="1216.25" cy="549.5" fill="#B4A7E5" rx="11" ry="11" style="stroke: #A80036; stroke-width: 1.0;"/><path d="M1217.4175,546.4897 L1217.4175,552.6821 L1218.812,552.6821 Q1219.3765,552.6821 1219.6213,552.8938 Q1219.8662,553.1055 1219.8662,553.5786 Q1219.8662,554.0601 1219.6172,554.28 Q1219.3682,554.5 1218.812,554.5 L1213.8813,554.5 Q1213.3169,554.5 1213.072,554.2842 Q1212.8271,554.0684 1212.8271,553.5786 Q1212.8271,553.0972 1213.0679,552.8896 Q1213.3086,552.6821 1213.8813,552.6821 L1215.2759,552.6821 L1215.2759,546.4897 L1213.8813,546.4897 Q1213.3169,546.4897 1213.072,546.2739 Q1212.8271,546.0581 1212.8271,545.5767 Q1212.8271,545.0869 1213.0679,544.8794 Q1213.3086,544.6719 1213.8813,544.6719 L1218.812,544.6719 Q1219.4014,544.6719 1219.6338,544.8794 Q1219.8662,545.0869 1219.8662,545.5767 Q1219.8662,546.0581 1219.6255,546.2739 Q1219.3848,546.4897 1218.812,546.4897 Z "/><text fill="#000000" font-family="sans-serif" font-size="12" font-style="italic" lengthAdjust="spacingAndGlyphs" textLength="75" x="1236.75" y="554.0352">conIUnknown</text><line style="stroke: #A80036; stroke-width: 1.5;" x1="1093" x2="1423" y1="565.5" y2="565.5"/><line style="stroke: #A80036; stroke-width: 1.5;" x1="1093" x2="1423" y1="573.5" y2="573.5"/><ellipse cx="1103" cy="585.4775" fill="#84BE84" rx="3" ry="3" style="stroke: #038048; stroke-width: 1.0;"/><text fill="#000000" font-family="sans-serif" font-size="11" font-style="italic" lengthAdjust="spacingAndGlyphs" textLength="216" x="1112" y="588.1348">stdapi QueryInterface(conREFIID, void**)</text><ellipse cx="1103" cy="598.4326" fill="#84BE84" rx="3" ry="3" style="stroke: #038048; stroke-width: 1.0;"/><text fill="#000000" font-family="sans-serif" font-size="11" font-style="italic" lengthAdjust="spacingAndGlyphs" textLength="306" x="1112" y="601.0898">stdapi QueryInterfaceEx(const char*, const char*, void**)</text><ellipse cx="1103" cy="611.3877" fill="#84BE84" rx="3" ry="3" style="stroke: #038048; stroke-width: 1.0;"/><text fill="#000000" font-family="sans-serif" font-size="11" font-style="italic" lengthAdjust="spacingAndGlyphs" textLength="191" x="1112" y="614.0449">ULONG stdcall_convertion AddRef()</text><ellipse cx="1103" cy="624.3428" fill="#84BE84" rx="3" ry="3" style="stroke: #038048; stroke-width: 1.0;"/><text fill="#000000" font-family="sans-serif" font-size="11" font-style="italic" lengthAdjust="spacingAndGlyphs" textLength="192" x="1112" y="627">ULONG stdcall_convertion Release()</text><rect fill="#FEFECE" filter="url(#f1)" height="99.8203" style="stroke: #A80036; stroke-width: 1.5;" width="325" x="721.5" y="328"/><ellipse cx="817.75" cy="344" fill="#B4A7E5" rx="11" ry="11" style="stroke: #A80036; stroke-width: 1.0;"/><path d="M818.9175,340.9897 L818.9175,347.1821 L820.312,347.1821 Q820.8765,347.1821 821.1213,347.3938 Q821.3662,347.6055 821.3662,348.0786 Q821.3662,348.5601 821.1172,348.78 Q820.8682,349 820.312,349 L815.3813,349 Q814.8169,349 814.572,348.7842 Q814.3271,348.5684 814.3271,348.0786 Q814.3271,347.5972 814.5679,347.3896 Q814.8086,347.1821 815.3813,347.1821 L816.7759,347.1821 L816.7759,340.9897 L815.3813,340.9897 Q814.8169,340.9897 814.572,340.7739 Q814.3271,340.5581 814.3271,340.0767 Q814.3271,339.5869 814.5679,339.3794 Q814.8086,339.1719 815.3813,339.1719 L820.312,339.1719 Q820.9014,339.1719 821.1338,339.3794 Q821.3662,339.5869 821.3662,340.0767 Q821.3662,340.5581 821.1255,340.7739 Q820.8848,340.9897 820.312,340.9897 Z "/><text fill="#000000" font-family="sans-serif" font-size="12" font-style="italic" lengthAdjust="spacingAndGlyphs" textLength="124" x="838.25" y="348.5352">conIEnumConnections</text><line style="stroke: #A80036; stroke-width: 1.5;" x1="722.5" x2="1045.5" y1="360" y2="360"/><line style="stroke: #A80036; stroke-width: 1.5;" x1="722.5" x2="1045.5" y1="368" y2="368"/><ellipse cx="732.5" cy="379.9775" fill="#84BE84" rx="3" ry="3" style="stroke: #038048; stroke-width: 1.0;"/><text fill="#000000" font-family="sans-serif" font-size="11" font-style="italic" lengthAdjust="spacingAndGlyphs" textLength="299" x="741.5" y="382.6348">stdapi Next(ConUint32, LPCONNECTDATA, ConUint32*)</text><ellipse cx="732.5" cy="392.9326" fill="#84BE84" rx="3" ry="3" style="stroke: #038048; stroke-width: 1.0;"/><text fill="#000000" font-family="sans-serif" font-size="11" font-style="italic" lengthAdjust="spacingAndGlyphs" textLength="124" x="741.5" y="395.5898">stdapi Skip(ConUint32)</text><ellipse cx="732.5" cy="405.8877" fill="#84BE84" rx="3" ry="3" style="stroke: #038048; stroke-width: 1.0;"/><text fill="#000000" font-family="sans-serif" font-size="11" font-style="italic" lengthAdjust="spacingAndGlyphs" textLength="73" x="741.5" y="408.5449">stdapi Reset()</text><ellipse cx="732.5" cy="418.8428" fill="#84BE84" rx="3" ry="3" style="stroke: #038048; stroke-width: 1.0;"/><text fill="#000000" font-family="sans-serif" font-size="11" font-style="italic" lengthAdjust="spacingAndGlyphs" textLength="206" x="741.5" y="421.5">stdapi Clone(conIEnumConnections**)</text><rect fill="#FEFECE" filter="url(#f1)" height="99.8203" style="stroke: #A80036; stroke-width: 1.5;" width="352" x="1082" y="328"/><ellipse cx="1177.75" cy="344" fill="#B4A7E5" rx="11" ry="11" style="stroke: #A80036; stroke-width: 1.0;"/><path d="M1178.9175,340.9897 L1178.9175,347.1821 L1180.312,347.1821 Q1180.8765,347.1821 1181.1213,347.3938 Q1181.3662,347.6055 1181.3662,348.0786 Q1181.3662,348.5601 1181.1172,348.78 Q1180.8682,349 1180.312,349 L1175.3813,349 Q1174.8169,349 1174.572,348.7842 Q1174.3271,348.5684 1174.3271,348.0786 Q1174.3271,347.5972 1174.5679,347.3896 Q1174.8086,347.1821 1175.3813,347.1821 L1176.7759,347.1821 L1176.7759,340.9897 L1175.3813,340.9897 Q1174.8169,340.9897 1174.572,340.7739 Q1174.3271,340.5581 1174.3271,340.0767 Q1174.3271,339.5869 1174.5679,339.3794 Q1174.8086,339.1719 1175.3813,339.1719 L1180.312,339.1719 Q1180.9014,339.1719 1181.1338,339.3794 Q1181.3662,339.5869 1181.3662,340.0767 Q1181.3662,340.5581 1181.1255,340.7739 Q1180.8848,340.9897 1180.312,340.9897 Z "/><text fill="#000000" font-family="sans-serif" font-size="12" font-style="italic" lengthAdjust="spacingAndGlyphs" textLength="152" x="1198.25" y="348.5352">conIEnumConnectionPoints</text><line style="stroke: #A80036; stroke-width: 1.5;" x1="1083" x2="1433" y1="360" y2="360"/><line style="stroke: #A80036; stroke-width: 1.5;" x1="1083" x2="1433" y1="368" y2="368"/><ellipse cx="1093" cy="379.9775" fill="#84BE84" rx="3" ry="3" style="stroke: #038048; stroke-width: 1.0;"/><text fill="#000000" font-family="sans-serif" font-size="11" font-style="italic" lengthAdjust="spacingAndGlyphs" textLength="326" x="1102" y="382.6348">stdapi Next(ConUint32, LPCONNECTIONPOINT*, ConUint32*)</text><ellipse cx="1093" cy="392.9326" fill="#84BE84" rx="3" ry="3" style="stroke: #038048; stroke-width: 1.0;"/><text fill="#000000" font-family="sans-serif" font-size="11" font-style="italic" lengthAdjust="spacingAndGlyphs" textLength="124" x="1102" y="395.5898">stdapi Skip(ConUint32)</text><ellipse cx="1093" cy="405.8877" fill="#84BE84" rx="3" ry="3" style="stroke: #038048; stroke-width: 1.0;"/><text fill="#000000" font-family="sans-serif" font-size="11" font-style="italic" lengthAdjust="spacingAndGlyphs" textLength="73" x="1102" y="408.5449">stdapi Reset()</text><ellipse cx="1093" cy="418.8428" fill="#84BE84" rx="3" ry="3" style="stroke: #038048; stroke-width: 1.0;"/><text fill="#000000" font-family="sans-serif" font-size="11" font-style="italic" lengthAdjust="spacingAndGlyphs" textLength="228" x="1102" y="421.5">stdapi Clone(conIEnumConnectionPoints*)</text><rect fill="#FEFECE" filter="url(#f1)" height="125.7305" style="stroke: #A80036; stroke-width: 1.5;" width="405" x="281.5" y="315"/><ellipse cx="422.75" cy="331" fill="#B4A7E5" rx="11" ry="11" style="stroke: #A80036; stroke-width: 1.0;"/><path d="M423.9175,327.9897 L423.9175,334.1821 L425.312,334.1821 Q425.8765,334.1821 426.1213,334.3938 Q426.3662,334.6055 426.3662,335.0786 Q426.3662,335.5601 426.1172,335.78 Q425.8682,336 425.312,336 L420.3813,336 Q419.8169,336 419.572,335.7842 Q419.3271,335.5684 419.3271,335.0786 Q419.3271,334.5972 419.5679,334.3896 Q419.8086,334.1821 420.3813,334.1821 L421.7759,334.1821 L421.7759,327.9897 L420.3813,327.9897 Q419.8169,327.9897 419.572,327.7739 Q419.3271,327.5581 419.3271,327.0767 Q419.3271,326.5869 419.5679,326.3794 Q419.8086,326.1719 420.3813,326.1719 L425.312,326.1719 Q425.9014,326.1719 426.1338,326.3794 Q426.3662,326.5869 426.3662,327.0767 Q426.3662,327.5581 426.1255,327.7739 Q425.8848,327.9897 425.312,327.9897 Z "/><text fill="#000000" font-family="sans-serif" font-size="12" font-style="italic" lengthAdjust="spacingAndGlyphs" textLength="114" x="443.25" y="335.5352">conIConnectionPoint</text><line style="stroke: #A80036; stroke-width: 1.5;" x1="282.5" x2="685.5" y1="347" y2="347"/><line style="stroke: #A80036; stroke-width: 1.5;" x1="282.5" x2="685.5" y1="355" y2="355"/><ellipse cx="292.5" cy="366.9775" fill="#84BE84" rx="3" ry="3" style="stroke: #038048; stroke-width: 1.0;"/><text fill="#000000" font-family="sans-serif" font-size="11" font-style="italic" lengthAdjust="spacingAndGlyphs" textLength="210" x="301.5" y="369.6348">stdapi GetConnectionInterface(conIID*)</text><ellipse cx="292.5" cy="379.9326" fill="#84BE84" rx="3" ry="3" style="stroke: #038048; stroke-width: 1.0;"/><text fill="#000000" font-family="sans-serif" font-size="11" font-style="italic" lengthAdjust="spacingAndGlyphs" textLength="379" x="301.5" y="382.5898">stdapi GetConnectionPointContainer(conIConnectionPointContainer**)</text><ellipse cx="292.5" cy="392.8877" fill="#84BE84" rx="3" ry="3" style="stroke: #038048; stroke-width: 1.0;"/><text fill="#000000" font-family="sans-serif" font-size="11" font-style="italic" lengthAdjust="spacingAndGlyphs" textLength="227" x="301.5" y="395.5449">stdapi Advise(conIUnknown*, ConUint32*)</text><ellipse cx="292.5" cy="405.8428" fill="#84BE84" rx="3" ry="3" style="stroke: #038048; stroke-width: 1.0;"/><text fill="#000000" font-family="sans-serif" font-size="11" font-style="italic" lengthAdjust="spacingAndGlyphs" textLength="304" x="301.5" y="408.5">stdapi AdviseEx(conIUnknown*, ConUint32, ConUint32*)</text><ellipse cx="292.5" cy="418.7979" fill="#84BE84" rx="3" ry="3" style="stroke: #038048; stroke-width: 1.0;"/><text fill="#000000" font-family="sans-serif" font-size="11" font-style="italic" lengthAdjust="spacingAndGlyphs" textLength="151" x="301.5" y="421.4551">stdapi Unadvise(ConUint32)</text><ellipse cx="292.5" cy="431.7529" fill="#84BE84" rx="3" ry="3" style="stroke: #038048; stroke-width: 1.0;"/><text fill="#000000" font-family="sans-serif" font-size="11" font-style="italic" lengthAdjust="spacingAndGlyphs" textLength="273" x="301.5" y="434.4102">stdapi EnumConnections(conIEnumConnections**)</text><rect fill="#FEFECE" filter="url(#f1)" height="73.9102" style="stroke: #A80036; stroke-width: 1.5;" width="363" x="1469.5" y="341"/><ellipse cx="1562.25" cy="357" fill="#B4A7E5" rx="11" ry="11" style="stroke: #A80036; stroke-width: 1.0;"/><path d="M1563.4175,353.9897 L1563.4175,360.1821 L1564.812,360.1821 Q1565.3765,360.1821 1565.6213,360.3938 Q1565.8662,360.6055 1565.8662,361.0786 Q1565.8662,361.5601 1565.6172,361.78 Q1565.3682,362 1564.812,362 L1559.8813,362 Q1559.3169,362 1559.072,361.7842 Q1558.8271,361.5684 1558.8271,361.0786 Q1558.8271,360.5972 1559.0679,360.3896 Q1559.3086,360.1821 1559.8813,360.1821 L1561.2759,360.1821 L1561.2759,353.9897 L1559.8813,353.9897 Q1559.3169,353.9897 1559.072,353.7739 Q1558.8271,353.5581 1558.8271,353.0767 Q1558.8271,352.5869 1559.0679,352.3794 Q1559.3086,352.1719 1559.8813,352.1719 L1564.812,352.1719 Q1565.4014,352.1719 1565.6338,352.3794 Q1565.8662,352.5869 1565.8662,353.0767 Q1565.8662,353.5581 1565.6255,353.7739 Q1565.3848,353.9897 1564.812,353.9897 Z "/><text fill="#000000" font-family="sans-serif" font-size="12" font-style="italic" lengthAdjust="spacingAndGlyphs" textLength="169" x="1582.75" y="361.5352">conIConnectionPointContainer</text><line style="stroke: #A80036; stroke-width: 1.5;" x1="1470.5" x2="1831.5" y1="373" y2="373"/><line style="stroke: #A80036; stroke-width: 1.5;" x1="1470.5" x2="1831.5" y1="381" y2="381"/><ellipse cx="1480.5" cy="392.9775" fill="#84BE84" rx="3" ry="3" style="stroke: #038048; stroke-width: 1.0;"/><text fill="#000000" font-family="sans-serif" font-size="11" font-style="italic" lengthAdjust="spacingAndGlyphs" textLength="327" x="1489.5" y="395.6348">stdapi EnumConnectionPoints(conIEnumConnectionPoints**)</text><ellipse cx="1480.5" cy="405.9326" fill="#84BE84" rx="3" ry="3" style="stroke: #038048; stroke-width: 1.0;"/><text fill="#000000" font-family="sans-serif" font-size="11" font-style="italic" lengthAdjust="spacingAndGlyphs" textLength="337" x="1489.5" y="408.5898">stdapi FindConnectionPoint(conREFIID, conIConnectionPoint**)</text><rect fill="#FEFECE" filter="url(#f1)" height="73.9102" style="stroke: #A80036; stroke-width: 1.5;" width="319" x="2073.5" y="341"/><ellipse cx="2181.75" cy="357" fill="#B4A7E5" rx="11" ry="11" style="stroke: #A80036; stroke-width: 1.0;"/><path d="M2182.9175,353.9897 L2182.9175,360.1821 L2184.312,360.1821 Q2184.8765,360.1821 2185.1213,360.3938 Q2185.3662,360.6055 2185.3662,361.0786 Q2185.3662,361.5601 2185.1172,361.78 Q2184.8682,362 2184.312,362 L2179.3813,362 Q2178.8169,362 2178.572,361.7842 Q2178.3271,361.5684 2178.3271,361.0786 Q2178.3271,360.5972 2178.5679,360.3896 Q2178.8086,360.1821 2179.3813,360.1821 L2180.7759,360.1821 L2180.7759,353.9897 L2179.3813,353.9897 Q2178.8169,353.9897 2178.572,353.7739 Q2178.3271,353.5581 2178.3271,353.0767 Q2178.3271,352.5869 2178.5679,352.3794 Q2178.8086,352.1719 2179.3813,352.1719 L2184.312,352.1719 Q2184.9014,352.1719 2185.1338,352.3794 Q2185.3662,352.5869 2185.3662,353.0767 Q2185.3662,353.5581 2185.1255,353.7739 Q2184.8848,353.9897 2184.312,353.9897 Z "/><text fill="#000000" font-family="sans-serif" font-size="12" font-style="italic" lengthAdjust="spacingAndGlyphs" textLength="94" x="2202.25" y="361.5352">conIClassFactory</text><line style="stroke: #A80036; stroke-width: 1.5;" x1="2074.5" x2="2391.5" y1="373" y2="373"/><line style="stroke: #A80036; stroke-width: 1.5;" x1="2074.5" x2="2391.5" y1="381" y2="381"/><ellipse cx="2084.5" cy="392.9775" fill="#84BE84" rx="3" ry="3" style="stroke: #038048; stroke-width: 1.0;"/><text fill="#000000" font-family="sans-serif" font-size="11" font-style="italic" lengthAdjust="spacingAndGlyphs" textLength="293" x="2093.5" y="395.6348">stdapi CreateInstance(conIUnkown*, conREFIID, void**)</text><ellipse cx="2084.5" cy="405.9326" fill="#84BE84" rx="3" ry="3" style="stroke: #038048; stroke-width: 1.0;"/><text fill="#000000" font-family="sans-serif" font-size="11" font-style="italic" lengthAdjust="spacingAndGlyphs" textLength="158" x="2093.5" y="408.5898">stdapi LockServer(CONBOOL)</text><rect fill="#FEFECE" filter="url(#f1)" height="86.8652" style="stroke: #A80036; stroke-width: 1.5;" width="170" x="1868" y="334.5"/><ellipse cx="1918.25" cy="350.5" fill="#FF7700" rx="11" ry="11" style="stroke: #A80036; stroke-width: 1.0;"/><path d="M1920.4219,345.8462 Q1920.5464,345.5806 1920.7041,345.481 Q1920.8618,345.3813 1921.1855,345.3813 Q1921.667,345.3813 1921.804,345.5598 Q1921.9409,345.7383 1921.9575,346.2695 L1921.9907,347.8633 L1921.9907,347.9546 Q1921.9907,348.4443 1921.7957,348.6394 Q1921.6006,348.8345 1921.1357,348.8345 Q1920.5464,348.8345 1920.2559,348.2036 Q1920.2144,348.1123 1920.1895,348.0542 Q1919.9321,347.5396 1919.4922,347.2781 Q1919.0522,347.0166 1918.4546,347.0166 Q1917.7075,347.0166 1917.2468,347.3611 Q1916.7861,347.7056 1916.7861,348.2451 Q1916.7861,349.0088 1918.8945,349.4487 Q1919.2515,349.5234 1919.459,349.5649 Q1921.0527,349.9136 1921.7666,350.6274 Q1922.4805,351.3413 1922.4805,352.5781 Q1922.4805,354.1055 1921.4429,354.9314 Q1920.4053,355.7573 1918.4712,355.7573 Q1917.7158,355.7573 1917.1223,355.6577 Q1916.5288,355.5581 1915.9727,355.3506 Q1915.8398,355.5664 1915.6655,355.6619 Q1915.4912,355.7573 1915.1841,355.7573 Q1914.6611,355.7573 1914.4536,355.5581 Q1914.2461,355.3589 1914.2378,354.8525 L1914.2046,352.9019 L1914.2046,352.8105 Q1914.2046,352.2627 1914.408,352.0469 Q1914.6113,351.8311 1915.1177,351.8311 Q1915.6572,351.8311 1916.0225,352.6113 Q1916.1055,352.8022 1916.1553,352.9019 Q1916.479,353.541 1917.0559,353.8564 Q1917.6328,354.1719 1918.4712,354.1719 Q1919.2349,354.1719 1919.6582,353.8564 Q1920.0815,353.541 1920.0815,352.9683 Q1920.0815,352.0801 1918.1641,351.6235 Q1917.5913,351.4907 1917.2593,351.3994 Q1915.6489,350.9761 1915.0264,350.3411 Q1914.4038,349.7061 1914.4038,348.6021 Q1914.4038,347.1826 1915.4705,346.282 Q1916.5371,345.3813 1918.2305,345.3813 Q1918.7949,345.3813 1919.3386,345.4976 Q1919.8823,345.6138 1920.4219,345.8462 Z "/><text fill="#000000" font-family="sans-serif" font-size="12" lengthAdjust="spacingAndGlyphs" textLength="61" x="1938.75" y="355.0352">ServiceInfo</text><line style="stroke: #A80036; stroke-width: 1.5;" x1="1869" x2="2037" y1="366.5" y2="366.5"/><ellipse cx="1879" cy="378.4775" fill="none" rx="3" ry="3" style="stroke: #038048; stroke-width: 1.0;"/><text fill="#000000" font-family="sans-serif" font-size="11" lengthAdjust="spacingAndGlyphs" textLength="144" x="1888" y="381.1348">ConString strServiceGroup</text><ellipse cx="1879" cy="391.4326" fill="none" rx="3" ry="3" style="stroke: #038048; stroke-width: 1.0;"/><text fill="#000000" font-family="sans-serif" font-size="11" lengthAdjust="spacingAndGlyphs" textLength="140" x="1888" y="394.0898">ConString strServiceName</text><ellipse cx="1879" cy="404.3877" fill="none" rx="3" ry="3" style="stroke: #038048; stroke-width: 1.0;"/><text fill="#000000" font-family="sans-serif" font-size="11" lengthAdjust="spacingAndGlyphs" textLength="50" x="1888" y="407.0449">conIID iid</text><line style="stroke: #A80036; stroke-width: 1.5;" x1="1869" x2="2037" y1="413.3652" y2="413.3652"/><rect fill="#FEFECE" filter="url(#f1)" height="112.7754" style="stroke: #A80036; stroke-width: 1.5;" width="371" x="1907.5" y="142"/><ellipse cx="2049.25" cy="158" fill="#ADD1B2" rx="11" ry="11" style="stroke: #A80036; stroke-width: 1.0;"/><path d="M2051.9531,153.9292 Q2052.1191,153.6304 2052.2935,153.5059 Q2052.4678,153.3813 2052.7334,153.3813 Q2053.1401,153.3813 2053.3103,153.5972 Q2053.4805,153.813 2053.4805,154.3359 L2053.4971,156.4941 Q2053.4971,157.0669 2053.3103,157.2661 Q2053.1235,157.4653 2052.6338,157.4653 Q2052.2852,157.4653 2052.0984,157.2993 Q2051.9116,157.1333 2051.7788,156.6851 Q2051.563,155.8965 2051.0898,155.552 Q2050.6167,155.2075 2049.7783,155.2075 Q2048.5,155.2075 2047.8193,156.0708 Q2047.1387,156.9341 2047.1387,158.5693 Q2047.1387,160.1963 2047.8276,161.0679 Q2048.5166,161.9395 2049.7949,161.9395 Q2050.6665,161.9395 2051.7166,161.3584 Q2052.7666,160.7773 2053.0405,160.7773 Q2053.3643,160.7773 2053.5842,161.0513 Q2053.8042,161.3252 2053.8042,161.7319 Q2053.8042,162.4624 2052.5176,163.1099 Q2051.231,163.7573 2049.6206,163.7573 Q2047.4458,163.7573 2046.1011,162.3213 Q2044.7563,160.8853 2044.7563,158.5693 Q2044.7563,156.3364 2046.1177,154.8589 Q2047.479,153.3813 2049.5708,153.3813 Q2050.1602,153.3813 2050.7329,153.5142 Q2051.3057,153.647 2051.9531,153.9292 Z "/><text fill="#000000" font-family="sans-serif" font-size="12" lengthAdjust="spacingAndGlyphs" textLength="79" x="2069.75" y="162.5352">CClassFactory</text><line style="stroke: #A80036; stroke-width: 1.5;" x1="1908.5" x2="2277.5" y1="174" y2="174"/><rect fill="none" height="6" style="stroke: #C82930; stroke-width: 1.0;" width="6" x="1915.5" y="182.9775"/><text fill="#000000" font-family="sans-serif" font-size="11" lengthAdjust="spacingAndGlyphs" textLength="122" x="1927.5" y="188.6348">ConInt32 m_lRefCount</text><rect fill="none" height="6" style="stroke: #C82930; stroke-width: 1.0;" width="6" x="1915.5" y="195.9326"/><text fill="#000000" font-family="sans-serif" font-size="11" lengthAdjust="spacingAndGlyphs" textLength="135" x="1927.5" y="201.5898">conIUnknown* m_pOuter</text><rect fill="none" height="6" style="stroke: #C82930; stroke-width: 1.0;" width="6" x="1915.5" y="208.8877"/><text fill="#000000" font-family="sans-serif" font-size="11" lengthAdjust="spacingAndGlyphs" textLength="195" x="1927.5" y="214.5449">vector&lt;ServiceInfo&gt; m_vServiceInfo</text><line style="stroke: #A80036; stroke-width: 1.5;" x1="1908.5" x2="2277.5" y1="220.8652" y2="220.8652"/><polygon fill="#FFFF44" points="1918.5,227.8428,1922.5,231.8428,1918.5,235.8428,1914.5,231.8428" style="stroke: #B38D22; stroke-width: 1.0;"/><text fill="#000000" font-family="sans-serif" font-size="11" lengthAdjust="spacingAndGlyphs" textLength="255" x="1927.5" y="235.5">stdapi ModuleCreateInstance(conREFIID, void**)</text><polygon fill="#FFFF44" points="1918.5,240.7979,1922.5,244.7979,1918.5,248.7979,1914.5,244.7979" style="stroke: #B38D22; stroke-width: 1.0;"/><text fill="#000000" font-family="sans-serif" font-size="11" lengthAdjust="spacingAndGlyphs" textLength="345" x="1927.5" y="248.4551">stdapi ModuleCreateInstanceEx(const char*, const char*, void**)</text><rect fill="#FEFECE" filter="url(#f1)" height="48" style="stroke: #A80036; stroke-width: 1.5;" width="128" x="1371" y="21"/><ellipse cx="1386" cy="37" fill="#ADD1B2" rx="11" ry="11" style="stroke: #A80036; stroke-width: 1.0;"/><path d="M1388.7031,32.9292 Q1388.8691,32.6304 1389.0435,32.5059 Q1389.2178,32.3813 1389.4834,32.3813 Q1389.8901,32.3813 1390.0603,32.5972 Q1390.2305,32.813 1390.2305,33.3359 L1390.2471,35.4941 Q1390.2471,36.0669 1390.0603,36.2661 Q1389.8735,36.4653 1389.3838,36.4653 Q1389.0352,36.4653 1388.8484,36.2993 Q1388.6616,36.1333 1388.5288,35.6851 Q1388.313,34.8965 1387.8398,34.552 Q1387.3667,34.2075 1386.5283,34.2075 Q1385.25,34.2075 1384.5693,35.0708 Q1383.8887,35.9341 1383.8887,37.5693 Q1383.8887,39.1963 1384.5776,40.0679 Q1385.2666,40.9395 1386.5449,40.9395 Q1387.4165,40.9395 1388.4666,40.3584 Q1389.5166,39.7773 1389.7905,39.7773 Q1390.1143,39.7773 1390.3342,40.0513 Q1390.5542,40.3252 1390.5542,40.7319 Q1390.5542,41.4624 1389.2676,42.1099 Q1387.981,42.7573 1386.3706,42.7573 Q1384.1958,42.7573 1382.8511,41.3213 Q1381.5063,39.8853 1381.5063,37.5693 Q1381.5063,35.3364 1382.8677,33.8589 Q1384.229,32.3813 1386.3208,32.3813 Q1386.9102,32.3813 1387.4829,32.5142 Q1388.0557,32.647 1388.7031,32.9292 Z "/><text fill="#000000" font-family="sans-serif" font-size="12" lengthAdjust="spacingAndGlyphs" textLength="96" x="1400" y="41.5352">CSmClassFactory</text><line style="stroke: #A80036; stroke-width: 1.5;" x1="1372" x2="1498" y1="53" y2="53"/><line style="stroke: #A80036; stroke-width: 1.5;" x1="1372" x2="1498" y1="61" y2="61"/><rect fill="#FEFECE" filter="url(#f1)" height="48" style="stroke: #A80036; stroke-width: 1.5;" width="164" x="2314" y="174.5"/><ellipse cx="2329" cy="190.5" fill="#ADD1B2" rx="11" ry="11" style="stroke: #A80036; stroke-width: 1.0;"/><path d="M2331.7031,186.4292 Q2331.8691,186.1304 2332.0435,186.0059 Q2332.2178,185.8813 2332.4834,185.8813 Q2332.8901,185.8813 2333.0603,186.0972 Q2333.2305,186.313 2333.2305,186.8359 L2333.2471,188.9941 Q2333.2471,189.5669 2333.0603,189.7661 Q2332.8735,189.9653 2332.3838,189.9653 Q2332.0352,189.9653 2331.8484,189.7993 Q2331.6616,189.6333 2331.5288,189.1851 Q2331.313,188.3965 2330.8398,188.052 Q2330.3667,187.7075 2329.5283,187.7075 Q2328.25,187.7075 2327.5693,188.5708 Q2326.8887,189.4341 2326.8887,191.0693 Q2326.8887,192.6963 2327.5776,193.5679 Q2328.2666,194.4395 2329.5449,194.4395 Q2330.4165,194.4395 2331.4666,193.8584 Q2332.5166,193.2773 2332.7905,193.2773 Q2333.1143,193.2773 2333.3342,193.5513 Q2333.5542,193.8252 2333.5542,194.2319 Q2333.5542,194.9624 2332.2676,195.6099 Q2330.981,196.2573 2329.3706,196.2573 Q2327.1958,196.2573 2325.8511,194.8213 Q2324.5063,193.3853 2324.5063,191.0693 Q2324.5063,188.8364 2325.8677,187.3589 Q2327.229,185.8813 2329.3208,185.8813 Q2329.9102,185.8813 2330.4829,186.0142 Q2331.0557,186.147 2331.7031,186.4292 Z "/><text fill="#000000" font-family="sans-serif" font-size="12" lengthAdjust="spacingAndGlyphs" textLength="132" x="2343" y="195.0352">CInviteRemindWrapper</text><line style="stroke: #A80036; stroke-width: 1.5;" x1="2315" x2="2477" y1="206.5" y2="206.5"/><line style="stroke: #A80036; stroke-width: 1.5;" x1="2315" x2="2477" y1="214.5" y2="214.5"/><rect fill="#FEFECE" filter="url(#f1)" height="48" style="stroke: #A80036; stroke-width: 1.5;" width="175" x="629.5" y="174.5"/><ellipse cx="644.5" cy="190.5" fill="#ADD1B2" rx="11" ry="11" style="stroke: #A80036; stroke-width: 1.0;"/><path d="M647.2031,186.4292 Q647.3691,186.1304 647.5435,186.0059 Q647.7178,185.8813 647.9834,185.8813 Q648.3901,185.8813 648.5603,186.0972 Q648.7305,186.313 648.7305,186.8359 L648.7471,188.9941 Q648.7471,189.5669 648.5603,189.7661 Q648.3735,189.9653 647.8838,189.9653 Q647.5352,189.9653 647.3484,189.7993 Q647.1616,189.6333 647.0288,189.1851 Q646.813,188.3965 646.3398,188.052 Q645.8667,187.7075 645.0283,187.7075 Q643.75,187.7075 643.0693,188.5708 Q642.3887,189.4341 642.3887,191.0693 Q642.3887,192.6963 643.0776,193.5679 Q643.7666,194.4395 645.0449,194.4395 Q645.9165,194.4395 646.9666,193.8584 Q648.0166,193.2773 648.2905,193.2773 Q648.6143,193.2773 648.8342,193.5513 Q649.0542,193.8252 649.0542,194.2319 Q649.0542,194.9624 647.7676,195.6099 Q646.481,196.2573 644.8706,196.2573 Q642.6958,196.2573 641.3511,194.8213 Q640.0063,193.3853 640.0063,191.0693 Q640.0063,188.8364 641.3677,187.3589 Q642.729,185.8813 644.8208,185.8813 Q645.4102,185.8813 645.9829,186.0142 Q646.5557,186.147 647.2031,186.4292 Z "/><text fill="#000000" font-family="sans-serif" font-size="12" lengthAdjust="spacingAndGlyphs" textLength="143" x="658.5" y="195.0352">CSmAudioPhoneWrapper</text><line style="stroke: #A80036; stroke-width: 1.5;" x1="630.5" x2="803.5" y1="206.5" y2="206.5"/><line style="stroke: #A80036; stroke-width: 1.5;" x1="630.5" x2="803.5" y1="214.5" y2="214.5"/><rect fill="#FEFECE" filter="url(#f1)" height="48" style="stroke: #A80036; stroke-width: 1.5;" width="165" x="839.5" y="174.5"/><ellipse cx="854.5" cy="190.5" fill="#ADD1B2" rx="11" ry="11" style="stroke: #A80036; stroke-width: 1.0;"/><path d="M857.2031,186.4292 Q857.3691,186.1304 857.5435,186.0059 Q857.7178,185.8813 857.9834,185.8813 Q858.3901,185.8813 858.5603,186.0972 Q858.7305,186.313 858.7305,186.8359 L858.7471,188.9941 Q858.7471,189.5669 858.5603,189.7661 Q858.3735,189.9653 857.8838,189.9653 Q857.5352,189.9653 857.3484,189.7993 Q857.1616,189.6333 857.0288,189.1851 Q856.813,188.3965 856.3398,188.052 Q855.8667,187.7075 855.0283,187.7075 Q853.75,187.7075 853.0693,188.5708 Q852.3887,189.4341 852.3887,191.0693 Q852.3887,192.6963 853.0776,193.5679 Q853.7666,194.4395 855.0449,194.4395 Q855.9165,194.4395 856.9666,193.8584 Q858.0166,193.2773 858.2905,193.2773 Q858.6143,193.2773 858.8342,193.5513 Q859.0542,193.8252 859.0542,194.2319 Q859.0542,194.9624 857.7676,195.6099 Q856.481,196.2573 854.8706,196.2573 Q852.6958,196.2573 851.3511,194.8213 Q850.0063,193.3853 850.0063,191.0693 Q850.0063,188.8364 851.3677,187.3589 Q852.729,185.8813 854.8208,185.8813 Q855.4102,185.8813 855.9829,186.0142 Q856.5557,186.147 857.2031,186.4292 Z "/><text fill="#000000" font-family="sans-serif" font-size="12" lengthAdjust="spacingAndGlyphs" textLength="133" x="868.5" y="195.0352">CSmAudioVoIPWrapper</text><line style="stroke: #A80036; stroke-width: 1.5;" x1="840.5" x2="1003.5" y1="206.5" y2="206.5"/><line style="stroke: #A80036; stroke-width: 1.5;" x1="840.5" x2="1003.5" y1="214.5" y2="214.5"/><rect fill="#FEFECE" filter="url(#f1)" height="48" style="stroke: #A80036; stroke-width: 1.5;" width="174" x="1040" y="174.5"/><ellipse cx="1055" cy="190.5" fill="#ADD1B2" rx="11" ry="11" style="stroke: #A80036; stroke-width: 1.0;"/><path d="M1057.7031,186.4292 Q1057.8691,186.1304 1058.0435,186.0059 Q1058.2178,185.8813 1058.4834,185.8813 Q1058.8901,185.8813 1059.0603,186.0972 Q1059.2305,186.313 1059.2305,186.8359 L1059.2471,188.9941 Q1059.2471,189.5669 1059.0603,189.7661 Q1058.8735,189.9653 1058.3838,189.9653 Q1058.0352,189.9653 1057.8484,189.7993 Q1057.6616,189.6333 1057.5288,189.1851 Q1057.313,188.3965 1056.8398,188.052 Q1056.3667,187.7075 1055.5283,187.7075 Q1054.25,187.7075 1053.5693,188.5708 Q1052.8887,189.4341 1052.8887,191.0693 Q1052.8887,192.6963 1053.5776,193.5679 Q1054.2666,194.4395 1055.5449,194.4395 Q1056.4165,194.4395 1057.4666,193.8584 Q1058.5166,193.2773 1058.7905,193.2773 Q1059.1143,193.2773 1059.3342,193.5513 Q1059.5542,193.8252 1059.5542,194.2319 Q1059.5542,194.9624 1058.2676,195.6099 Q1056.981,196.2573 1055.3706,196.2573 Q1053.1958,196.2573 1051.8511,194.8213 Q1050.5063,193.3853 1050.5063,191.0693 Q1050.5063,188.8364 1051.8677,187.3589 Q1053.229,185.8813 1055.3208,185.8813 Q1055.9102,185.8813 1056.4829,186.0142 Q1057.0557,186.147 1057.7031,186.4292 Z "/><text fill="#000000" font-family="sans-serif" font-size="12" lengthAdjust="spacingAndGlyphs" textLength="142" x="1069" y="195.0352">CSmAudioStatusWrapper</text><line style="stroke: #A80036; stroke-width: 1.5;" x1="1041" x2="1213" y1="206.5" y2="206.5"/><line style="stroke: #A80036; stroke-width: 1.5;" x1="1041" x2="1213" y1="214.5" y2="214.5"/><rect fill="#FEFECE" filter="url(#f1)" height="48" style="stroke: #A80036; stroke-width: 1.5;" width="161" x="1249.5" y="174.5"/><ellipse cx="1264.5" cy="190.5" fill="#ADD1B2" rx="11" ry="11" style="stroke: #A80036; stroke-width: 1.0;"/><path d="M1267.2031,186.4292 Q1267.3691,186.1304 1267.5435,186.0059 Q1267.7178,185.8813 1267.9834,185.8813 Q1268.3901,185.8813 1268.5603,186.0972 Q1268.7305,186.313 1268.7305,186.8359 L1268.7471,188.9941 Q1268.7471,189.5669 1268.5603,189.7661 Q1268.3735,189.9653 1267.8838,189.9653 Q1267.5352,189.9653 1267.3484,189.7993 Q1267.1616,189.6333 1267.0288,189.1851 Q1266.813,188.3965 1266.3398,188.052 Q1265.8667,187.7075 1265.0283,187.7075 Q1263.75,187.7075 1263.0693,188.5708 Q1262.3887,189.4341 1262.3887,191.0693 Q1262.3887,192.6963 1263.0776,193.5679 Q1263.7666,194.4395 1265.0449,194.4395 Q1265.9165,194.4395 1266.9666,193.8584 Q1268.0166,193.2773 1268.2905,193.2773 Q1268.6143,193.2773 1268.8342,193.5513 Q1269.0542,193.8252 1269.0542,194.2319 Q1269.0542,194.9624 1267.7676,195.6099 Q1266.481,196.2573 1264.8706,196.2573 Q1262.6958,196.2573 1261.3511,194.8213 Q1260.0063,193.3853 1260.0063,191.0693 Q1260.0063,188.8364 1261.3677,187.3589 Q1262.729,185.8813 1264.8208,185.8813 Q1265.4102,185.8813 1265.9829,186.0142 Q1266.5557,186.147 1267.2031,186.4292 Z "/><text fill="#000000" font-family="sans-serif" font-size="12" lengthAdjust="spacingAndGlyphs" textLength="129" x="1278.5" y="195.0352">CSharingMoreWrapper</text><line style="stroke: #A80036; stroke-width: 1.5;" x1="1250.5" x2="1409.5" y1="206.5" y2="206.5"/><line style="stroke: #A80036; stroke-width: 1.5;" x1="1250.5" x2="1409.5" y1="214.5" y2="214.5"/><rect fill="#FEFECE" filter="url(#f1)" height="48" style="stroke: #A80036; stroke-width: 1.5;" width="188" x="1446" y="174.5"/><ellipse cx="1461" cy="190.5" fill="#ADD1B2" rx="11" ry="11" style="stroke: #A80036; stroke-width: 1.0;"/><path d="M1463.7031,186.4292 Q1463.8691,186.1304 1464.0435,186.0059 Q1464.2178,185.8813 1464.4834,185.8813 Q1464.8901,185.8813 1465.0603,186.0972 Q1465.2305,186.313 1465.2305,186.8359 L1465.2471,188.9941 Q1465.2471,189.5669 1465.0603,189.7661 Q1464.8735,189.9653 1464.3838,189.9653 Q1464.0352,189.9653 1463.8484,189.7993 Q1463.6616,189.6333 1463.5288,189.1851 Q1463.313,188.3965 1462.8398,188.052 Q1462.3667,187.7075 1461.5283,187.7075 Q1460.25,187.7075 1459.5693,188.5708 Q1458.8887,189.4341 1458.8887,191.0693 Q1458.8887,192.6963 1459.5776,193.5679 Q1460.2666,194.4395 1461.5449,194.4395 Q1462.4165,194.4395 1463.4666,193.8584 Q1464.5166,193.2773 1464.7905,193.2773 Q1465.1143,193.2773 1465.3342,193.5513 Q1465.5542,193.8252 1465.5542,194.2319 Q1465.5542,194.9624 1464.2676,195.6099 Q1462.981,196.2573 1461.3706,196.2573 Q1459.1958,196.2573 1457.8511,194.8213 Q1456.5063,193.3853 1456.5063,191.0693 Q1456.5063,188.8364 1457.8677,187.3589 Q1459.229,185.8813 1461.3208,185.8813 Q1461.9102,185.8813 1462.4829,186.0142 Q1463.0557,186.147 1463.7031,186.4292 Z "/><text fill="#000000" font-family="sans-serif" font-size="12" lengthAdjust="spacingAndGlyphs" textLength="156" x="1475" y="195.0352">CAudioTestWizardWrapper</text><line style="stroke: #A80036; stroke-width: 1.5;" x1="1447" x2="1633" y1="206.5" y2="206.5"/><line style="stroke: #A80036; stroke-width: 1.5;" x1="1447" x2="1633" y1="214.5" y2="214.5"/><rect fill="#FEFECE" filter="url(#f1)" height="48" style="stroke: #A80036; stroke-width: 1.5;" width="203" x="1669.5" y="174.5"/><ellipse cx="1684.5" cy="190.5" fill="#ADD1B2" rx="11" ry="11" style="stroke: #A80036; stroke-width: 1.0;"/><path d="M1687.2031,186.4292 Q1687.3691,186.1304 1687.5435,186.0059 Q1687.7178,185.8813 1687.9834,185.8813 Q1688.3901,185.8813 1688.5603,186.0972 Q1688.7305,186.313 1688.7305,186.8359 L1688.7471,188.9941 Q1688.7471,189.5669 1688.5603,189.7661 Q1688.3735,189.9653 1687.8838,189.9653 Q1687.5352,189.9653 1687.3484,189.7993 Q1687.1616,189.6333 1687.0288,189.1851 Q1686.813,188.3965 1686.3398,188.052 Q1685.8667,187.7075 1685.0283,187.7075 Q1683.75,187.7075 1683.0693,188.5708 Q1682.3887,189.4341 1682.3887,191.0693 Q1682.3887,192.6963 1683.0776,193.5679 Q1683.7666,194.4395 1685.0449,194.4395 Q1685.9165,194.4395 1686.9666,193.8584 Q1688.0166,193.2773 1688.2905,193.2773 Q1688.6143,193.2773 1688.8342,193.5513 Q1689.0542,193.8252 1689.0542,194.2319 Q1689.0542,194.9624 1687.7676,195.6099 Q1686.481,196.2573 1684.8706,196.2573 Q1682.6958,196.2573 1681.3511,194.8213 Q1680.0063,193.3853 1680.0063,191.0693 Q1680.0063,188.8364 1681.3677,187.3589 Q1682.729,185.8813 1684.8208,185.8813 Q1685.4102,185.8813 1685.9829,186.0142 Q1686.5557,186.147 1687.2031,186.4292 Z "/><text fill="#000000" font-family="sans-serif" font-size="12" lengthAdjust="spacingAndGlyphs" textLength="171" x="1698.5" y="195.0352">CSmConnectionPointContainer</text><line style="stroke: #A80036; stroke-width: 1.5;" x1="1670.5" x2="1871.5" y1="206.5" y2="206.5"/><line style="stroke: #A80036; stroke-width: 1.5;" x1="1670.5" x2="1871.5" y1="214.5" y2="214.5"/><rect fill="#FEFECE" filter="url(#f1)" height="164.5957" style="stroke: #A80036; stroke-width: 1.5;" width="332" x="6" y="501"/><ellipse cx="122.75" cy="517" fill="#884400" rx="11" ry="11" style="stroke: #A80036; stroke-width: 1.0;"/><path d="M125.6523,514.7231 L123.9175,514.7231 L123.9175,520.9155 L125.312,520.9155 Q125.8682,520.9155 126.1089,521.1313 Q126.3496,521.3472 126.3496,521.8286 Q126.3496,522.3184 126.1089,522.5342 Q125.8682,522.75 125.312,522.75 L120.3813,522.75 Q119.8335,522.75 119.5928,522.5342 Q119.3521,522.3184 119.3521,521.8286 Q119.3521,521.3389 119.5886,521.1272 Q119.8252,520.9155 120.3813,520.9155 L121.7759,520.9155 L121.7759,514.7231 L120.041,514.7231 L119.9912,516.4082 L119.9912,516.6157 Q119.9912,517.0142 119.7712,517.2383 Q119.5513,517.4624 119.1611,517.4624 Q118.6963,517.4624 118.4763,517.2258 Q118.2563,516.9893 118.2563,516.4746 L118.2563,516.4082 L118.3477,513.9263 Q118.3726,513.1875 118.551,513.0381 Q118.7295,512.8887 119.2773,512.8887 L126.416,512.8887 Q126.9639,512.8887 127.1423,513.0381 Q127.3208,513.1875 127.354,513.9263 L127.437,516.4082 L127.437,516.4746 Q127.437,516.9976 127.2295,517.23 Q127.022,517.4624 126.5571,517.4624 Q126.1089,517.4624 125.9138,517.2341 Q125.7188,517.0059 125.7021,516.4082 Z "/><text fill="#000000" font-family="sans-serif" font-size="12" lengthAdjust="spacingAndGlyphs" textLength="90" x="143.25" y="521.5352">CStaticUnknown</text><line style="stroke: #A80036; stroke-width: 1.5;" x1="7" x2="337" y1="533" y2="533"/><line style="stroke: #A80036; stroke-width: 1.5;" x1="7" x2="337" y1="541" y2="541"/><ellipse cx="17" cy="552.9775" fill="#84BE84" rx="3" ry="3" style="stroke: #038048; stroke-width: 1.0;"/><text fill="#000000" font-family="sans-serif" font-size="11" lengthAdjust="spacingAndGlyphs" textLength="191" x="26" y="555.6348">ULONG stdcall_convertion AddRef()</text><ellipse cx="17" cy="565.9326" fill="#84BE84" rx="3" ry="3" style="stroke: #038048; stroke-width: 1.0;"/><text fill="#000000" font-family="sans-serif" font-size="11" lengthAdjust="spacingAndGlyphs" textLength="192" x="26" y="568.5898">ULONG stdcall_convertion Release()</text><ellipse cx="17" cy="578.8877" fill="#84BE84" rx="3" ry="3" style="stroke: #038048; stroke-width: 1.0;"/><text fill="#000000" font-family="sans-serif" font-size="11" lengthAdjust="spacingAndGlyphs" textLength="216" x="26" y="581.5449">stdapi QueryInterface(conREFIID, void**)</text><ellipse cx="17" cy="591.8428" fill="#84BE84" rx="3" ry="3" style="stroke: #038048; stroke-width: 1.0;"/><text fill="#000000" font-family="sans-serif" font-size="11" lengthAdjust="spacingAndGlyphs" textLength="306" x="26" y="594.5">stdapi QueryInterfaceEx(const char*, const char*, void**)</text><text fill="#000000" font-family="sans-serif" font-size="11" lengthAdjust="spacingAndGlyphs" textLength="0" x="29" y="607.4551"/><polygon fill="#FFFF44" points="17,612.7529,21,616.7529,17,620.7529,13,616.7529" style="stroke: #B38D22; stroke-width: 1.0;"/><text fill="#000000" font-family="sans-serif" font-size="11" font-style="italic" lengthAdjust="spacingAndGlyphs" textLength="112" x="26" y="620.4102">void ModuleAddRef()</text><polygon fill="#FFFF44" points="17,625.708,21,629.708,17,633.708,13,629.708" style="stroke: #B38D22; stroke-width: 1.0;"/><text fill="#000000" font-family="sans-serif" font-size="11" font-style="italic" lengthAdjust="spacingAndGlyphs" textLength="140" x="26" y="633.3652">ConInt32 ModuleRelease()</text><polygon fill="#FFFF44" points="17,638.6631,21,642.6631,17,646.6631,13,642.6631" style="stroke: #B38D22; stroke-width: 1.0;"/><text fill="#000000" font-family="sans-serif" font-size="11" font-style="italic" lengthAdjust="spacingAndGlyphs" textLength="305" x="26" y="646.3203">conIConnectionPointContainer* ModuleGetCPContainer()</text><polygon fill="#FFFF44" points="17,651.6182,21,655.6182,17,659.6182,13,655.6182" style="stroke: #B38D22; stroke-width: 1.0;"/><text fill="#000000" font-family="sans-serif" font-size="11" font-style="italic" lengthAdjust="spacingAndGlyphs" textLength="205" x="26" y="659.2754">conIClassFactory* ModuleGetFactory()</text><rect fill="#FEFECE" filter="url(#f1)" height="60.9551" style="stroke: #A80036; stroke-width: 1.5;" width="148" x="98" y="347.5"/><ellipse cx="138.2" cy="363.5" fill="#884400" rx="11" ry="11" style="stroke: #A80036; stroke-width: 1.0;"/><path d="M141.1023,361.2231 L139.3675,361.2231 L139.3675,367.4155 L140.762,367.4155 Q141.3182,367.4155 141.5589,367.6313 Q141.7996,367.8472 141.7996,368.3286 Q141.7996,368.8184 141.5589,369.0342 Q141.3182,369.25 140.762,369.25 L135.8313,369.25 Q135.2835,369.25 135.0428,369.0342 Q134.8021,368.8184 134.8021,368.3286 Q134.8021,367.8389 135.0386,367.6272 Q135.2752,367.4155 135.8313,367.4155 L137.2259,367.4155 L137.2259,361.2231 L135.491,361.2231 L135.4412,362.9082 L135.4412,363.1157 Q135.4412,363.5142 135.2212,363.7383 Q135.0013,363.9624 134.6111,363.9624 Q134.1463,363.9624 133.9263,363.7258 Q133.7063,363.4893 133.7063,362.9746 L133.7063,362.9082 L133.7977,360.4263 Q133.8226,359.6875 134.001,359.5381 Q134.1795,359.3887 134.7273,359.3887 L141.866,359.3887 Q142.4139,359.3887 142.5923,359.5381 Q142.7708,359.6875 142.804,360.4263 L142.887,362.9082 L142.887,362.9746 Q142.887,363.4976 142.6795,363.73 Q142.472,363.9624 142.0071,363.9624 Q141.5589,363.9624 141.3638,363.7341 Q141.1688,363.5059 141.1521,362.9082 Z "/><text fill="#000000" font-family="sans-serif" font-size="12" lengthAdjust="spacingAndGlyphs" textLength="60" x="157.8" y="368.0352">CUnknown</text><line style="stroke: #A80036; stroke-width: 1.5;" x1="99" x2="245" y1="379.5" y2="379.5"/><rect fill="none" height="6" style="stroke: #C82930; stroke-width: 1.0;" width="6" x="106" y="388.4775"/><text fill="#000000" font-family="sans-serif" font-size="11" lengthAdjust="spacingAndGlyphs" textLength="122" x="118" y="394.1348">ConInt32 m_lRefCount</text><line style="stroke: #A80036; stroke-width: 1.5;" x1="99" x2="245" y1="400.4551" y2="400.4551"/><rect fill="#FEFECE" filter="url(#f1)" height="48" style="stroke: #A80036; stroke-width: 1.5;" width="153" x="1534.5" y="21"/><ellipse cx="1549.5" cy="37" fill="#ADD1B2" rx="11" ry="11" style="stroke: #A80036; stroke-width: 1.0;"/><path d="M1552.2031,32.9292 Q1552.3691,32.6304 1552.5435,32.5059 Q1552.7178,32.3813 1552.9834,32.3813 Q1553.3901,32.3813 1553.5603,32.5972 Q1553.7305,32.813 1553.7305,33.3359 L1553.7471,35.4941 Q1553.7471,36.0669 1553.5603,36.2661 Q1553.3735,36.4653 1552.8838,36.4653 Q1552.5352,36.4653 1552.3484,36.2993 Q1552.1616,36.1333 1552.0288,35.6851 Q1551.813,34.8965 1551.3398,34.552 Q1550.8667,34.2075 1550.0283,34.2075 Q1548.75,34.2075 1548.0693,35.0708 Q1547.3887,35.9341 1547.3887,37.5693 Q1547.3887,39.1963 1548.0776,40.0679 Q1548.7666,40.9395 1550.0449,40.9395 Q1550.9165,40.9395 1551.9666,40.3584 Q1553.0166,39.7773 1553.2905,39.7773 Q1553.6143,39.7773 1553.8342,40.0513 Q1554.0542,40.3252 1554.0542,40.7319 Q1554.0542,41.4624 1552.7676,42.1099 Q1551.481,42.7573 1549.8706,42.7573 Q1547.6958,42.7573 1546.3511,41.3213 Q1545.0063,39.8853 1545.0063,37.5693 Q1545.0063,35.3364 1546.3677,33.8589 Q1547.729,32.3813 1549.8208,32.3813 Q1550.4102,32.3813 1550.9829,32.5142 Q1551.5557,32.647 1552.2031,32.9292 Z "/><text fill="#000000" font-family="sans-serif" font-size="12" lengthAdjust="spacingAndGlyphs" textLength="121" x="1563.5" y="41.5352">CConConnectionPoint</text><line style="stroke: #A80036; stroke-width: 1.5;" x1="1535.5" x2="1686.5" y1="53" y2="53"/><line style="stroke: #A80036; stroke-width: 1.5;" x1="1535.5" x2="1686.5" y1="61" y2="61"/><rect fill="#FEFECE" filter="url(#f1)" height="60.9551" style="stroke: #A80036; stroke-width: 1.5;" width="186" x="243" y="168"/><ellipse cx="258" cy="184" fill="#ADD1B2" rx="11" ry="11" style="stroke: #A80036; stroke-width: 1.0;"/><path d="M260.7031,179.9292 Q260.8691,179.6304 261.0435,179.5059 Q261.2178,179.3813 261.4834,179.3813 Q261.8901,179.3813 262.0603,179.5972 Q262.2305,179.813 262.2305,180.3359 L262.2471,182.4941 Q262.2471,183.0669 262.0603,183.2661 Q261.8735,183.4653 261.3838,183.4653 Q261.0352,183.4653 260.8484,183.2993 Q260.6616,183.1333 260.5288,182.6851 Q260.313,181.8965 259.8398,181.552 Q259.3667,181.2075 258.5283,181.2075 Q257.25,181.2075 256.5693,182.0708 Q255.8887,182.9341 255.8887,184.5693 Q255.8887,186.1963 256.5776,187.0679 Q257.2666,187.9395 258.5449,187.9395 Q259.4165,187.9395 260.4666,187.3584 Q261.5166,186.7773 261.7905,186.7773 Q262.1143,186.7773 262.3342,187.0513 Q262.5542,187.3252 262.5542,187.7319 Q262.5542,188.4624 261.2676,189.1099 Q259.981,189.7573 258.3706,189.7573 Q256.1958,189.7573 254.8511,188.3213 Q253.5063,186.8853 253.5063,184.5693 Q253.5063,182.3364 254.8677,180.8589 Q256.229,179.3813 258.3208,179.3813 Q258.9102,179.3813 259.4829,179.5142 Q260.0557,179.647 260.7031,179.9292 Z "/><text fill="#000000" font-family="sans-serif" font-size="12" lengthAdjust="spacingAndGlyphs" textLength="154" x="272" y="188.5352">CConnectionPointContainer</text><line style="stroke: #A80036; stroke-width: 1.5;" x1="244" x2="428" y1="200" y2="200"/><ellipse cx="254" cy="211.9775" fill="none" rx="3" ry="3" style="stroke: #038048; stroke-width: 1.0;"/><text fill="#000000" font-family="sans-serif" font-size="11" lengthAdjust="spacingAndGlyphs" textLength="160" x="263" y="214.6348">ConnectionPoint_Map m_mCP</text><line style="stroke: #A80036; stroke-width: 1.5;" x1="244" x2="428" y1="220.9551" y2="220.9551"/><path d="M975.012,428.008 C1027.59,456.9 1094.07,493.424 1149.37,523.812 " fill="none" style="stroke: #A80036; stroke-width: 1.0;"/><polygon fill="none" points="1152.75,517.68,1166.9,533.446,1146,529.95,1152.75,517.68" style="stroke: #A80036; stroke-width: 1.0;"/><path d="M1258,428.008 C1258,453.6 1258,485.181 1258,513.182 " fill="none" style="stroke: #A80036; stroke-width: 1.0;"/><polygon fill="none" points="1265,513.268,1258,533.268,1251,513.268,1265,513.268" style="stroke: #A80036; stroke-width: 1.0;"/><path d="M686.532,436.222 C692.417,437.841 698.249,439.437 704,441 C826.489,474.285 964.76,509.854 1072.52,537.129 " fill="none" style="stroke: #A80036; stroke-width: 1.0;"/><polygon fill="none" points="1074.26,530.349,1091.94,542.037,1070.83,543.922,1074.26,530.349" style="stroke: #A80036; stroke-width: 1.0;"/><path d="M1579.83,415.214 C1521.88,445.516 1438.97,488.868 1371.82,523.982 " fill="none" style="stroke: #A80036; stroke-width: 1.0;"/><polygon fill="none" points="1374.75,530.351,1353.78,533.416,1368.26,517.945,1374.75,530.351" style="stroke: #A80036; stroke-width: 1.0;"/><path d="M2137.36,415.076 C2110.95,424.427 2082.1,433.834 2055,441 C1848.73,495.553 1606.86,535.513 1444.13,559.005 " fill="none" style="stroke: #A80036; stroke-width: 1.0;"/><polygon fill="none" points="1444.98,565.955,1424.19,561.859,1443,552.096,1444.98,565.955" style="stroke: #A80036; stroke-width: 1.0;"/><path d="M2137.3,255.295 C2154.66,277.557 2174.47,302.962 2191.55,324.857 " fill="none" style="stroke: #A80036; stroke-width: 1.0;"/><polygon fill="none" points="2197.21,320.732,2203.99,340.807,2186.17,329.342,2197.21,320.732" style="stroke: #A80036; stroke-width: 1.0;"/><path d="M2040.6,265.681 C2025.62,284.89 2009.49,305.574 1995.2,323.893 " fill="none" style="stroke: #A80036; stroke-width: 1.0;"/><polygon fill="#A80036" points="1987.02,334.376,1995.7079,329.737,1990.094,330.4326,1989.3985,324.8187,1987.02,334.376" style="stroke: #A80036; stroke-width: 1.0;"/><line style="stroke: #A80036; stroke-width: 1.0;" x1="1990.094" x2="1995.02" y1="330.4326" y2="324.1255"/><polygon fill="#A80036" points="2048.7,255.295,2041.8565,257.5679,2041.3224,264.7592,2048.1659,262.4863,2048.7,255.295" style="stroke: #A80036; stroke-width: 1.0;"/><text fill="#000000" font-family="sans-serif" font-size="13" lengthAdjust="spacingAndGlyphs" textLength="8" x="2035.1153" y="275.3284">1</text><text fill="#000000" font-family="sans-serif" font-size="13" lengthAdjust="spacingAndGlyphs" textLength="10" x="1981.6451" y="323.832">N</text><path d="M1482.75,69.091 C1493.79,73.939 1505.63,78.587 1517,82 C1671.85,128.492 1722.24,107.795 1887.7,141.757 " fill="none" style="stroke: #A80036; stroke-width: 1.0;"/><polygon fill="none" points="1889.25,134.929,1907.36,145.934,1886.34,148.624,1889.25,134.929" style="stroke: #A80036; stroke-width: 1.0;"/><path d="M1480.82,69.029 C1492.35,74.13 1504.89,78.904 1517,82 C1853.42,168.035 1963.81,40.849 2296,142 C2317.63,148.586 2339.72,160.423 2357.61,171.566 " fill="none" style="stroke: #A80036; stroke-width: 1.0;"/><polygon fill="#A80036" points="2362.07,174.381,2356.5976,166.1924,2357.8429,171.7105,2352.3248,172.9558,2362.07,174.381" style="stroke: #A80036; stroke-width: 1.0;"/><path d="M1388.24,69.106 C1376.95,74.076 1364.75,78.772 1353,82 C1123.99,144.935 1048.68,71.113 822,142 C799.779,148.949 776.817,160.697 758.053,171.687 " fill="none" style="stroke: #A80036; stroke-width: 1.0;"/><polygon fill="#A80036" points="753.376,174.461,763.1572,173.3084,757.676,171.9096,759.0749,166.4284,753.376,174.461" style="stroke: #A80036; stroke-width: 1.0;"/><path d="M1386.76,69.115 C1375.85,73.904 1364.18,78.521 1353,82 C1210.24,126.41 1162.61,91.183 1022,142 C1001.254,149.498 979.764,161.066 962.048,171.787 " fill="none" style="stroke: #A80036; stroke-width: 1.0;"/><polygon fill="#A80036" points="957.628,174.491,967.3926,173.2058,961.893,171.8814,963.2173,166.3818,957.628,174.491" style="stroke: #A80036; stroke-width: 1.0;"/><path d="M1382.94,69.04 C1341.73,88.268 1282.85,116.188 1232,142 C1213.28,151.501 1192.92,162.341 1175.15,171.967 " fill="none" style="stroke: #A80036; stroke-width: 1.0;"/><polygon fill="#A80036" points="1170.69,174.387,1180.5081,173.6095,1175.0845,172.002,1176.692,166.5783,1170.69,174.387" style="stroke: #A80036; stroke-width: 1.0;"/><path d="M1418.36,69.323 C1399.62,96.718 1369.21,141.183 1349.4,170.136 " fill="none" style="stroke: #A80036; stroke-width: 1.0;"/><polygon fill="#A80036" points="1346.56,174.291,1354.9417,169.1193,1349.3821,170.1636,1348.3378,164.6039,1346.56,174.291" style="stroke: #A80036; stroke-width: 1.0;"/><path d="M1451.64,69.323 C1470.38,96.718 1500.79,141.183 1520.6,170.136 " fill="none" style="stroke: #A80036; stroke-width: 1.0;"/><polygon fill="#A80036" points="1523.44,174.291,1521.6622,164.6039,1520.6179,170.1636,1515.0583,169.1193,1523.44,174.291" style="stroke: #A80036; stroke-width: 1.0;"/><path d="M1488.36,69.105 C1497.9,73.404 1507.74,77.838 1517,82 C1576.52,108.752 1591.7,114.767 1651,142 C1672.21,151.739 1695.43,162.62 1715.74,172.214 " fill="none" style="stroke: #A80036; stroke-width: 1.0;"/><polygon fill="#A80036" points="1720.3,174.368,1713.8802,166.899,1715.7817,172.2266,1710.4541,174.1282,1720.3,174.368" style="stroke: #A80036; stroke-width: 1.0;"/><path d="M172,408.765 C172,428.216 172,454.584 172,480.935 " fill="none" style="stroke: #A80036; stroke-width: 1.0;"/><polygon fill="none" points="179,480.968,172,500.968,165,480.968,179,480.968" style="stroke: #A80036; stroke-width: 1.0;"/><path d="M307.807,229.357 C281.914,257.698 243.205,300.066 213.73,332.326 " fill="none" style="stroke: #A80036; stroke-width: 1.0;"/><polygon fill="none" points="218.757,337.202,200.099,347.246,208.421,327.759,218.757,337.202" style="stroke: #A80036; stroke-width: 1.0;"/><path d="M429.055,220.705 C482.325,232.622 550.584,246.554 612,255 C982.356,305.929 1083.77,245.03 1451,315 C1476.93,319.941 1504.22,327.138 1530.02,334.916 " fill="none" style="stroke: #A80036; stroke-width: 1.0;"/><polygon fill="none" points="1532.39,328.323,1549.4,340.95,1528.23,341.69,1532.39,328.323" style="stroke: #A80036; stroke-width: 1.0;"/></g></svg>