<?xml version="1.0" encoding="UTF-8" standalone="yes"?><svg xmlns="http://www.w3.org/2000/svg" xmlns:xlink="http://www.w3.org/1999/xlink" height="397pt" style="width:491px;height:397px;" version="1.1" viewBox="0 0 491 397" width="491pt"><defs><filter height="300%" id="f1" width="300%" x="-1" y="-1"><feGaussianBlur result="blurOut" stdDeviation="2.0"/><feColorMatrix in="blurOut" result="blurOut2" type="matrix" values="0 0 0 0 0 0 0 0 0 0 0 0 0 0 0 0 0 0 .4 0"/><feOffset dx="4.0" dy="4.0" in="blurOut2" result="blurOut3"/><feBlend in="SourceGraphic" in2="blurOut3" mode="normal"/></filter></defs><g><rect fill="#FEFECE" filter="url(#f1)" height="99.8203" style="stroke: #A80036; stroke-width: 1.5;" width="147" x="83.5" y="289"/><ellipse cx="98.5" cy="305" fill="#ADD1B2" rx="11" ry="11" style="stroke: #A80036; stroke-width: 1.0;"/><path d="M101.2031,300.9292 Q101.3691,300.6304 101.5435,300.5059 Q101.7178,300.3813 101.9834,300.3813 Q102.3901,300.3813 102.5603,300.5972 Q102.7305,300.813 102.7305,301.3359 L102.7471,303.4941 Q102.7471,304.0669 102.5603,304.2661 Q102.3735,304.4653 101.8838,304.4653 Q101.5352,304.4653 101.3484,304.2993 Q101.1616,304.1333 101.0288,303.6851 Q100.813,302.8965 100.3398,302.552 Q99.8667,302.2075 99.0283,302.2075 Q97.75,302.2075 97.0693,303.0708 Q96.3887,303.9341 96.3887,305.5693 Q96.3887,307.1963 97.0776,308.0679 Q97.7666,308.9395 99.0449,308.9395 Q99.9165,308.9395 100.9666,308.3584 Q102.0166,307.7773 102.2905,307.7773 Q102.6143,307.7773 102.8342,308.0513 Q103.0542,308.3252 103.0542,308.7319 Q103.0542,309.4624 101.7676,310.1099 Q100.481,310.7573 98.8706,310.7573 Q96.6958,310.7573 95.3511,309.3213 Q94.0063,307.8853 94.0063,305.5693 Q94.0063,303.3364 95.3677,301.8589 Q96.729,300.3813 98.8208,300.3813 Q99.4102,300.3813 99.9829,300.5142 Q100.5557,300.647 101.2031,300.9292 Z "/><text fill="#000000" font-family="sans-serif" font-size="12" lengthAdjust="spacingAndGlyphs" textLength="115" x="112.5" y="309.5352">CConfContextParam</text><line style="stroke: #A80036; stroke-width: 1.5;" x1="84.5" x2="229.5" y1="321" y2="321"/><polygon fill="none" points="94.5,327.9775,98.5,331.9775,94.5,335.9775,90.5,331.9775" style="stroke: #B38D22; stroke-width: 1.0;"/><text fill="#000000" font-family="sans-serif" font-size="11" lengthAdjust="spacingAndGlyphs" textLength="107" x="103.5" y="335.6348">TCHAR[] m_szName</text><polygon fill="none" points="94.5,340.9326,98.5,344.9326,94.5,348.9326,90.5,344.9326" style="stroke: #B38D22; stroke-width: 1.0;"/><text fill="#000000" font-family="sans-serif" font-size="11" lengthAdjust="spacingAndGlyphs" textLength="101" x="103.5" y="348.5898">CCM_PARAM_TYPE</text><line style="stroke: #A80036; stroke-width: 1.5;" x1="84.5" x2="229.5" y1="354.9102" y2="354.9102"/><ellipse cx="94.5" cy="366.8877" fill="#84BE84" rx="3" ry="3" style="stroke: #038048; stroke-width: 1.0;"/><text fill="#000000" font-family="sans-serif" font-size="11" lengthAdjust="spacingAndGlyphs" textLength="57" x="103.5" y="369.5449">SetParam()</text><ellipse cx="94.5" cy="379.8428" fill="#84BE84" rx="3" ry="3" style="stroke: #038048; stroke-width: 1.0;"/><text fill="#000000" font-family="sans-serif" font-size="11" lengthAdjust="spacingAndGlyphs" textLength="59" x="103.5" y="382.5">GetParam()</text><rect fill="#FEFECE" filter="url(#f1)" height="112.7754" style="stroke: #A80036; stroke-width: 1.5;" width="302" x="6" y="116"/><ellipse cx="86.25" cy="132" fill="#ADD1B2" rx="11" ry="11" style="stroke: #A80036; stroke-width: 1.0;"/><path d="M88.9531,127.9292 Q89.1191,127.6304 89.2935,127.5059 Q89.4678,127.3813 89.7334,127.3813 Q90.1401,127.3813 90.3103,127.5972 Q90.4805,127.813 90.4805,128.3359 L90.4971,130.4941 Q90.4971,131.0669 90.3103,131.2661 Q90.1235,131.4653 89.6338,131.4653 Q89.2852,131.4653 89.0984,131.2993 Q88.9116,131.1333 88.7788,130.6851 Q88.563,129.8965 88.0898,129.552 Q87.6167,129.2075 86.7783,129.2075 Q85.5,129.2075 84.8193,130.0708 Q84.1387,130.9341 84.1387,132.5693 Q84.1387,134.1963 84.8276,135.0679 Q85.5166,135.9395 86.7949,135.9395 Q87.6665,135.9395 88.7166,135.3584 Q89.7666,134.7773 90.0405,134.7773 Q90.3643,134.7773 90.5842,135.0513 Q90.8042,135.3252 90.8042,135.7319 Q90.8042,136.4624 89.5176,137.1099 Q88.231,137.7573 86.6206,137.7573 Q84.4458,137.7573 83.1011,136.3213 Q81.7563,134.8853 81.7563,132.5693 Q81.7563,130.3364 83.1177,128.8589 Q84.479,127.3813 86.5708,127.3813 Q87.1602,127.3813 87.7329,127.5142 Q88.3057,127.647 88.9531,127.9292 Z "/><text fill="#000000" font-family="sans-serif" font-size="12" lengthAdjust="spacingAndGlyphs" textLength="133" x="106.75" y="136.5352">CContextMgrParamMgr</text><line style="stroke: #A80036; stroke-width: 1.5;" x1="7" x2="307" y1="148" y2="148"/><rect fill="none" height="6" style="stroke: #C82930; stroke-width: 1.0;" width="6" x="14" y="156.9775"/><text fill="#000000" font-family="sans-serif" font-size="11" lengthAdjust="spacingAndGlyphs" textLength="276" x="26" y="162.6348">CSimpleValArray&lt;CConfContextParam*&gt; m_aItems</text><line style="stroke: #A80036; stroke-width: 1.5;" x1="7" x2="307" y1="168.9551" y2="168.9551"/><ellipse cx="17" cy="180.9326" fill="#84BE84" rx="3" ry="3" style="stroke: #038048; stroke-width: 1.0;"/><text fill="#000000" font-family="sans-serif" font-size="11" lengthAdjust="spacingAndGlyphs" textLength="57" x="26" y="183.5898">SetParam()</text><ellipse cx="17" cy="193.8877" fill="#84BE84" rx="3" ry="3" style="stroke: #038048; stroke-width: 1.0;"/><text fill="#000000" font-family="sans-serif" font-size="11" lengthAdjust="spacingAndGlyphs" textLength="59" x="26" y="196.5449">GetParam()</text><ellipse cx="17" cy="206.8428" fill="#84BE84" rx="3" ry="3" style="stroke: #038048; stroke-width: 1.0;"/><text fill="#000000" font-family="sans-serif" font-size="11" lengthAdjust="spacingAndGlyphs" textLength="83" x="26" y="209.5">RemoveParam()</text><ellipse cx="17" cy="219.7979" fill="#84BE84" rx="3" ry="3" style="stroke: #038048; stroke-width: 1.0;"/><text fill="#000000" font-family="sans-serif" font-size="11" lengthAdjust="spacingAndGlyphs" textLength="97" x="26" y="222.4551">RemoveAllParam()</text><rect fill="#FEFECE" filter="url(#f1)" height="48" style="stroke: #A80036; stroke-width: 1.5;" width="132" x="219" y="8"/><ellipse cx="234" cy="24" fill="#ADD1B2" rx="11" ry="11" style="stroke: #A80036; stroke-width: 1.0;"/><path d="M236.7031,19.9292 Q236.8691,19.6304 237.0435,19.5059 Q237.2178,19.3813 237.4834,19.3813 Q237.8901,19.3813 238.0603,19.5972 Q238.2305,19.813 238.2305,20.3359 L238.2471,22.4941 Q238.2471,23.0669 238.0603,23.2661 Q237.8735,23.4653 237.3838,23.4653 Q237.0352,23.4653 236.8484,23.2993 Q236.6616,23.1333 236.5288,22.6851 Q236.313,21.8965 235.8398,21.552 Q235.3667,21.2075 234.5283,21.2075 Q233.25,21.2075 232.5693,22.0708 Q231.8887,22.9341 231.8887,24.5693 Q231.8887,26.1963 232.5776,27.0679 Q233.2666,27.9395 234.5449,27.9395 Q235.4165,27.9395 236.4666,27.3584 Q237.5166,26.7773 237.7905,26.7773 Q238.1143,26.7773 238.3342,27.0513 Q238.5542,27.3252 238.5542,27.7319 Q238.5542,28.4624 237.2676,29.1099 Q235.981,29.7573 234.3706,29.7573 Q232.1958,29.7573 230.8511,28.3213 Q229.5063,26.8853 229.5063,24.5693 Q229.5063,22.3364 230.8677,20.8589 Q232.229,19.3813 234.3208,19.3813 Q234.9102,19.3813 235.4829,19.5142 Q236.0557,19.647 236.7031,19.9292 Z "/><text fill="#000000" font-family="sans-serif" font-size="12" lengthAdjust="spacingAndGlyphs" textLength="100" x="248" y="28.5352">CConfContextMgr</text><line style="stroke: #A80036; stroke-width: 1.5;" x1="220" x2="350" y1="40" y2="40"/><line style="stroke: #A80036; stroke-width: 1.5;" x1="220" x2="350" y1="48" y2="48"/><rect fill="#FEFECE" filter="url(#f1)" height="48" style="stroke: #A80036; stroke-width: 1.5;" width="139" x="343.5" y="148.5"/><ellipse cx="358.5" cy="164.5" fill="#ADD1B2" rx="11" ry="11" style="stroke: #A80036; stroke-width: 1.0;"/><path d="M361.2031,160.4292 Q361.3691,160.1304 361.5435,160.0059 Q361.7178,159.8813 361.9834,159.8813 Q362.3901,159.8813 362.5603,160.0972 Q362.7305,160.313 362.7305,160.8359 L362.7471,162.9941 Q362.7471,163.5669 362.5603,163.7661 Q362.3735,163.9653 361.8838,163.9653 Q361.5352,163.9653 361.3484,163.7993 Q361.1616,163.6333 361.0288,163.1851 Q360.813,162.3965 360.3398,162.052 Q359.8667,161.7075 359.0283,161.7075 Q357.75,161.7075 357.0693,162.5708 Q356.3887,163.4341 356.3887,165.0693 Q356.3887,166.6963 357.0776,167.5679 Q357.7666,168.4395 359.0449,168.4395 Q359.9165,168.4395 360.9666,167.8584 Q362.0166,167.2773 362.2905,167.2773 Q362.6143,167.2773 362.8342,167.5513 Q363.0542,167.8252 363.0542,168.2319 Q363.0542,168.9624 361.7676,169.6099 Q360.481,170.2573 358.8706,170.2573 Q356.6958,170.2573 355.3511,168.8213 Q354.0063,167.3853 354.0063,165.0693 Q354.0063,162.8364 355.3677,161.3589 Q356.729,159.8813 358.8208,159.8813 Q359.4102,159.8813 359.9829,160.0142 Q360.5557,160.147 361.2031,160.4292 Z "/><text fill="#000000" font-family="sans-serif" font-size="12" lengthAdjust="spacingAndGlyphs" textLength="107" x="372.5" y="169.0352">CWbxUISingleTonT</text><line style="stroke: #A80036; stroke-width: 1.5;" x1="344.5" x2="481.5" y1="180.5" y2="180.5"/><line style="stroke: #A80036; stroke-width: 1.5;" x1="344.5" x2="481.5" y1="188.5" y2="188.5"/><path d="M157,229.334 C157,244.271 157,260.474 157,275.726 " fill="none" style="stroke: #A80036; stroke-width: 1.0;"/><polygon fill="#A80036" points="157,288.828,161,282.828,157,276.828,153,282.828,157,288.828" style="stroke: #A80036; stroke-width: 1.0;"/><text fill="#000000" font-family="sans-serif" font-size="13" lengthAdjust="spacingAndGlyphs" textLength="8" x="148.5375" y="249.3719">1</text><text fill="#000000" font-family="sans-serif" font-size="13" lengthAdjust="spacingAndGlyphs" textLength="22" x="133.4531" y="278.3207">0,N</text><path d="M262.996,56.153 C251.675,68.579 237.215,84.451 222.642,100.448 " fill="none" style="stroke: #A80036; stroke-width: 1.0;"/><polygon fill="none" points="227.377,105.644,208.733,115.715,217.028,96.216,227.377,105.644" style="stroke: #A80036; stroke-width: 1.0;"/><path d="M307.004,56.153 C326.328,77.364 354.797,108.613 377.366,133.386 " fill="none" style="stroke: #A80036; stroke-width: 1.0;"/><polygon fill="none" points="382.56,128.693,390.855,148.192,372.211,138.122,382.56,128.693" style="stroke: #A80036; stroke-width: 1.0;"/></g></svg>