<?xml version="1.0" encoding="UTF-8" standalone="yes"?><svg xmlns="http://www.w3.org/2000/svg" xmlns:xlink="http://www.w3.org/1999/xlink" height="1723pt" style="width:2295px;height:1723px;" version="1.1" viewBox="0 0 2295 1723" width="2295pt"><defs><filter height="300%" id="f1" width="300%" x="-1" y="-1"><feGaussianBlur result="blurOut" stdDeviation="2.0"/><feColorMatrix in="blurOut" result="blurOut2" type="matrix" values="0 0 0 0 0 0 0 0 0 0 0 0 0 0 0 0 0 0 .4 0"/><feOffset dx="4.0" dy="4.0" in="blurOut2" result="blurOut3"/><feBlend in="SourceGraphic" in2="blurOut3" mode="normal"/></filter></defs><g><rect fill="#FFFFFF" filter="url(#f1)" height="63.6211" style="stroke: #A80036; stroke-width: 1.0;" width="10" x="92" y="1100.0703"/><rect fill="#FFFFFF" filter="url(#f1)" height="223.1738" style="stroke: #A80036; stroke-width: 1.0;" width="10" x="237.5" y="940.5176"/><rect fill="#FFFFFF" filter="url(#f1)" height="1027.2715" style="stroke: #A80036; stroke-width: 1.0;" width="10" x="1336.5" y="647.7227"/><rect fill="#FFFFFF" filter="url(#f1)" height="631.9004" style="stroke: #A80036; stroke-width: 1.0;" width="10" x="1341.5" y="709.3438"/><rect fill="#FFFFFF" filter="url(#f1)" height="358.416" style="stroke: #A80036; stroke-width: 1.0;" width="10" x="1346.5" y="805.2754"/><rect fill="#FFFFFF" filter="url(#f1)" height="111.9316" style="stroke: #A80036; stroke-width: 1.0;" width="10" x="1341.5" y="1400.5098"/><rect fill="#FFFFFF" filter="url(#f1)" height="87.9316" style="stroke: #A80036; stroke-width: 1.0;" width="10" x="1341.5" y="1563.752"/><rect fill="#FFFFFF" filter="url(#f1)" height="219.8184" style="stroke: #A80036; stroke-width: 1.0;" width="10" x="1493.5" y="199.7305"/><rect fill="#FFFFFF" filter="url(#f1)" height="214.8184" style="stroke: #000000; stroke-width: 2.0;" width="662.5" x="1057" y="220.041"/><rect fill="#FFFFFF" height="57.2656" style="stroke: none; stroke-width: 1.0;" width="662.5" x="1057" y="377.5938"/><rect fill="#FFFFFF" filter="url(#f1)" height="1116.2031" style="stroke: #000000; stroke-width: 2.0;" width="2100.5" x="13" y="550.791"/><rect fill="#FFFFFF" filter="url(#f1)" height="864.7188" style="stroke: #000000; stroke-width: 2.0;" width="2080.5" x="23" y="663.0332"/><rect fill="#FFFFFF" filter="url(#f1)" height="418.0371" style="stroke: #000000; stroke-width: 2.0;" width="2060.5" x="33" y="758.9648"/><rect fill="#FFFFFF" height="171.1973" style="stroke: none; stroke-width: 1.0;" width="2080.5" x="23" y="1356.5547"/><rect fill="#FFFFFF" filter="url(#f1)" height="46.6211" style="stroke: #000000; stroke-width: 2.0;" width="349" x="1092" y="1613.373"/><rect fill="#DDDDDD" height="1718.4824" style="stroke: #A80036; stroke-width: 1.0;" width="289" x="39" y="4"/><text fill="#000000" font-family="sans-serif" font-size="13" font-weight="bold" lengthAdjust="spacingAndGlyphs" textLength="72" x="147.5" y="16.5684">WebexMgr</text><rect fill="#DDDDDD" height="1718.4824" style="stroke: #A80036; stroke-width: 1.0;" width="620" x="330" y="4"/><text fill="#000000" font-family="sans-serif" font-size="13" font-weight="bold" lengthAdjust="spacingAndGlyphs" textLength="75" x="602.5" y="16.5684">ServiceMgr</text><rect fill="#DDDDDD" height="1718.4824" style="stroke: #A80036; stroke-width: 1.0;" width="483" x="952" y="4"/><text fill="#000000" font-family="sans-serif" font-size="13" font-weight="bold" lengthAdjust="spacingAndGlyphs" textLength="63" x="1162" y="16.5684">HybridCli</text><rect fill="#DDDDDD" height="1718.4824" style="stroke: #A80036; stroke-width: 1.0;" width="650.5" x="1437" y="4"/><text fill="#000000" font-family="sans-serif" font-size="13" font-weight="bold" lengthAdjust="spacingAndGlyphs" textLength="55" x="1734.75" y="16.5684">dtappcli</text><rect fill="#DDDDDD" height="1718.4824" style="stroke: #A80036; stroke-width: 1.0;" width="115" x="2089.5" y="4"/><text fill="#000000" font-family="sans-serif" font-size="13" font-weight="bold" lengthAdjust="spacingAndGlyphs" textLength="31" x="2131.5" y="16.5684">ARM</text><line style="stroke: #A80036; stroke-width: 1.0; stroke-dasharray: 5.0,5.0;" x1="97" x2="97" y1="58.7988" y2="1683.9941"/><line style="stroke: #A80036; stroke-width: 1.0; stroke-dasharray: 5.0,5.0;" x1="242" x2="242" y1="58.7988" y2="1683.9941"/><line style="stroke: #A80036; stroke-width: 1.0; stroke-dasharray: 5.0,5.0;" x1="397" x2="397" y1="58.7988" y2="1683.9941"/><line style="stroke: #A80036; stroke-width: 1.0; stroke-dasharray: 5.0,5.0;" x1="562" x2="562" y1="58.7988" y2="1683.9941"/><line style="stroke: #A80036; stroke-width: 1.0; stroke-dasharray: 5.0,5.0;" x1="704" x2="704" y1="58.7988" y2="1683.9941"/><line style="stroke: #A80036; stroke-width: 1.0; stroke-dasharray: 5.0,5.0;" x1="865" x2="865" y1="58.7988" y2="1683.9941"/><line style="stroke: #A80036; stroke-width: 1.0; stroke-dasharray: 5.0,5.0;" x1="1024" x2="1024" y1="58.7988" y2="1683.9941"/><line style="stroke: #A80036; stroke-width: 1.0; stroke-dasharray: 5.0,5.0;" x1="1172" x2="1172" y1="58.7988" y2="1683.9941"/><line style="stroke: #A80036; stroke-width: 1.0; stroke-dasharray: 5.0,5.0;" x1="1341" x2="1341" y1="58.7988" y2="1683.9941"/><line style="stroke: #A80036; stroke-width: 1.0; stroke-dasharray: 5.0,5.0;" x1="1498" x2="1498" y1="58.7988" y2="1683.9941"/><line style="stroke: #A80036; stroke-width: 1.0; stroke-dasharray: 5.0,5.0;" x1="1640.5" x2="1640.5" y1="58.7988" y2="1683.9941"/><line style="stroke: #A80036; stroke-width: 1.0; stroke-dasharray: 5.0,5.0;" x1="1829.5" x2="1829.5" y1="58.7988" y2="1683.9941"/><line style="stroke: #A80036; stroke-width: 1.0; stroke-dasharray: 5.0,5.0;" x1="2016.5" x2="2016.5" y1="58.7988" y2="1683.9941"/><line style="stroke: #A80036; stroke-width: 1.0; stroke-dasharray: 5.0,5.0;" x1="2146.5" x2="2146.5" y1="58.7988" y2="1683.9941"/><rect fill="#FEFECE" filter="url(#f1)" height="30.4883" style="stroke: #A80036; stroke-width: 1.5;" width="104" x="43" y="23.3105"/><text fill="#000000" font-family="sans-serif" font-size="14" lengthAdjust="spacingAndGlyphs" textLength="90" x="50" y="43.8457">CMCUserMgr</text><rect fill="#FEFECE" filter="url(#f1)" height="30.4883" style="stroke: #A80036; stroke-width: 1.5;" width="104" x="43" y="1682.9941"/><text fill="#000000" font-family="sans-serif" font-size="14" lengthAdjust="spacingAndGlyphs" textLength="90" x="50" y="1703.5293">CMCUserMgr</text><rect fill="#FEFECE" filter="url(#f1)" height="30.4883" style="stroke: #A80036; stroke-width: 1.5;" width="159" x="161" y="23.3105"/><text fill="#000000" font-family="sans-serif" font-size="14" lengthAdjust="spacingAndGlyphs" textLength="145" x="168" y="43.8457">CMCHybridAudioMgr</text><rect fill="#FEFECE" filter="url(#f1)" height="30.4883" style="stroke: #A80036; stroke-width: 1.5;" width="159" x="161" y="1682.9941"/><text fill="#000000" font-family="sans-serif" font-size="14" lengthAdjust="spacingAndGlyphs" textLength="145" x="168" y="1703.5293">CMCHybridAudioMgr</text><rect fill="#FEFECE" filter="url(#f1)" height="30.4883" style="stroke: #A80036; stroke-width: 1.5;" width="123" x="334" y="23.3105"/><text fill="#000000" font-family="sans-serif" font-size="14" lengthAdjust="spacingAndGlyphs" textLength="109" x="341" y="43.8457">CPfwServiceMgr</text><rect fill="#FEFECE" filter="url(#f1)" height="30.4883" style="stroke: #A80036; stroke-width: 1.5;" width="123" x="334" y="1682.9941"/><text fill="#000000" font-family="sans-serif" font-size="14" lengthAdjust="spacingAndGlyphs" textLength="109" x="341" y="1703.5293">CPfwServiceMgr</text><rect fill="#FEFECE" filter="url(#f1)" height="30.4883" style="stroke: #A80036; stroke-width: 1.5;" width="121" x="500" y="23.3105"/><text fill="#000000" font-family="sans-serif" font-size="14" lengthAdjust="spacingAndGlyphs" textLength="107" x="507" y="43.8457">CPfwModelBase</text><rect fill="#FEFECE" filter="url(#f1)" height="30.4883" style="stroke: #A80036; stroke-width: 1.5;" width="121" x="500" y="1682.9941"/><text fill="#000000" font-family="sans-serif" font-size="14" lengthAdjust="spacingAndGlyphs" textLength="107" x="507" y="1703.5293">CPfwModelBase</text><rect fill="#FEFECE" filter="url(#f1)" height="30.4883" style="stroke: #A80036; stroke-width: 1.5;" width="135" x="635" y="23.3105"/><text fill="#000000" font-family="sans-serif" font-size="14" lengthAdjust="spacingAndGlyphs" textLength="121" x="642" y="43.8457">CSmDefUserMgr2</text><rect fill="#FEFECE" filter="url(#f1)" height="30.4883" style="stroke: #A80036; stroke-width: 1.5;" width="135" x="635" y="1682.9941"/><text fill="#000000" font-family="sans-serif" font-size="14" lengthAdjust="spacingAndGlyphs" textLength="121" x="642" y="1703.5293">CSmDefUserMgr2</text><rect fill="#FEFECE" filter="url(#f1)" height="30.4883" style="stroke: #A80036; stroke-width: 1.5;" width="158" x="784" y="23.3105"/><text fill="#000000" font-family="sans-serif" font-size="14" lengthAdjust="spacingAndGlyphs" textLength="144" x="791" y="43.8457">CSmHybridAudioMgr</text><rect fill="#FEFECE" filter="url(#f1)" height="30.4883" style="stroke: #A80036; stroke-width: 1.5;" width="158" x="784" y="1682.9941"/><text fill="#000000" font-family="sans-serif" font-size="14" lengthAdjust="spacingAndGlyphs" textLength="144" x="791" y="1703.5293">CSmHybridAudioMgr</text><rect fill="#FEFECE" filter="url(#f1)" height="30.4883" style="stroke: #A80036; stroke-width: 1.5;" width="132" x="956" y="23.3105"/><text fill="#000000" font-family="sans-serif" font-size="14" lengthAdjust="spacingAndGlyphs" textLength="118" x="963" y="43.8457">IHybridClientSink</text><rect fill="#FEFECE" filter="url(#f1)" height="30.4883" style="stroke: #A80036; stroke-width: 1.5;" width="132" x="956" y="1682.9941"/><text fill="#000000" font-family="sans-serif" font-size="14" lengthAdjust="spacingAndGlyphs" textLength="118" x="963" y="1703.5293">IHybridClientSink</text><rect fill="#FEFECE" filter="url(#f1)" height="30.4883" style="stroke: #A80036; stroke-width: 1.5;" width="136" x="1102" y="23.3105"/><text fill="#000000" font-family="sans-serif" font-size="14" lengthAdjust="spacingAndGlyphs" textLength="122" x="1109" y="43.8457">CHybridClientMgr</text><rect fill="#FEFECE" filter="url(#f1)" height="30.4883" style="stroke: #A80036; stroke-width: 1.5;" width="136" x="1102" y="1682.9941"/><text fill="#000000" font-family="sans-serif" font-size="14" lengthAdjust="spacingAndGlyphs" textLength="122" x="1109" y="1703.5293">CHybridClientMgr</text><rect fill="#FEFECE" filter="url(#f1)" height="30.4883" style="stroke: #A80036; stroke-width: 1.5;" width="175" x="1252" y="23.3105"/><text fill="#000000" font-family="sans-serif" font-size="14" lengthAdjust="spacingAndGlyphs" textLength="161" x="1259" y="43.8457">CHCCTelephoneService</text><rect fill="#FEFECE" filter="url(#f1)" height="30.4883" style="stroke: #A80036; stroke-width: 1.5;" width="175" x="1252" y="1682.9941"/><text fill="#000000" font-family="sans-serif" font-size="14" lengthAdjust="spacingAndGlyphs" textLength="161" x="1259" y="1703.5293">CHCCTelephoneService</text><rect fill="#FEFECE" filter="url(#f1)" height="30.4883" style="stroke: #A80036; stroke-width: 1.5;" width="111" x="1441" y="23.3105"/><text fill="#000000" font-family="sans-serif" font-size="14" lengthAdjust="spacingAndGlyphs" textLength="97" x="1448" y="43.8457">CDTAppClient</text><rect fill="#FEFECE" filter="url(#f1)" height="30.4883" style="stroke: #A80036; stroke-width: 1.5;" width="111" x="1441" y="1682.9941"/><text fill="#000000" font-family="sans-serif" font-size="14" lengthAdjust="spacingAndGlyphs" textLength="97" x="1448" y="1703.5293">CDTAppClient</text><rect fill="#FEFECE" filter="url(#f1)" height="30.4883" style="stroke: #A80036; stroke-width: 1.5;" width="134" x="1571.5" y="23.3105"/><text fill="#000000" font-family="sans-serif" font-size="14" lengthAdjust="spacingAndGlyphs" textLength="120" x="1578.5" y="43.8457">IDTAppClientSink</text><rect fill="#FEFECE" filter="url(#f1)" height="30.4883" style="stroke: #A80036; stroke-width: 1.5;" width="134" x="1571.5" y="1682.9941"/><text fill="#000000" font-family="sans-serif" font-size="14" lengthAdjust="spacingAndGlyphs" textLength="120" x="1578.5" y="1703.5293">IDTAppClientSink</text><rect fill="#FEFECE" filter="url(#f1)" height="30.4883" style="stroke: #A80036; stroke-width: 1.5;" width="217" x="1719.5" y="23.3105"/><text fill="#000000" font-family="sans-serif" font-size="14" lengthAdjust="spacingAndGlyphs" textLength="203" x="1726.5" y="43.8457">CDTAppPDU_Data_HyASNNTY</text><rect fill="#FEFECE" filter="url(#f1)" height="30.4883" style="stroke: #A80036; stroke-width: 1.5;" width="217" x="1719.5" y="1682.9941"/><text fill="#000000" font-family="sans-serif" font-size="14" lengthAdjust="spacingAndGlyphs" textLength="203" x="1726.5" y="1703.5293">CDTAppPDU_Data_HyASNNTY</text><rect fill="#FEFECE" filter="url(#f1)" height="30.4883" style="stroke: #A80036; stroke-width: 1.5;" width="129" x="1950.5" y="23.3105"/><text fill="#000000" font-family="sans-serif" font-size="14" lengthAdjust="spacingAndGlyphs" textLength="115" x="1957.5" y="43.8457">CHCCApeRecord</text><rect fill="#FEFECE" filter="url(#f1)" height="30.4883" style="stroke: #A80036; stroke-width: 1.5;" width="129" x="1950.5" y="1682.9941"/><text fill="#000000" font-family="sans-serif" font-size="14" lengthAdjust="spacingAndGlyphs" textLength="115" x="1957.5" y="1703.5293">CHCCApeRecord</text><rect fill="#FEFECE" filter="url(#f1)" height="30.4883" style="stroke: #A80036; stroke-width: 1.5;" width="103" x="2093.5" y="23.3105"/><text fill="#000000" font-family="sans-serif" font-size="14" lengthAdjust="spacingAndGlyphs" textLength="89" x="2100.5" y="43.8457">IArmApeSink</text><rect fill="#FEFECE" filter="url(#f1)" height="30.4883" style="stroke: #A80036; stroke-width: 1.5;" width="103" x="2093.5" y="1682.9941"/><text fill="#000000" font-family="sans-serif" font-size="14" lengthAdjust="spacingAndGlyphs" textLength="89" x="2100.5" y="1703.5293">IArmApeSink</text><rect fill="#FFFFFF" filter="url(#f1)" height="63.6211" style="stroke: #A80036; stroke-width: 1.0;" width="10" x="92" y="1100.0703"/><rect fill="#FFFFFF" filter="url(#f1)" height="223.1738" style="stroke: #A80036; stroke-width: 1.0;" width="10" x="237.5" y="940.5176"/><rect fill="#FFFFFF" filter="url(#f1)" height="1027.2715" style="stroke: #A80036; stroke-width: 1.0;" width="10" x="1336.5" y="647.7227"/><rect fill="#FFFFFF" filter="url(#f1)" height="631.9004" style="stroke: #A80036; stroke-width: 1.0;" width="10" x="1341.5" y="709.3438"/><rect fill="#FFFFFF" filter="url(#f1)" height="358.416" style="stroke: #A80036; stroke-width: 1.0;" width="10" x="1346.5" y="805.2754"/><rect fill="#FFFFFF" filter="url(#f1)" height="111.9316" style="stroke: #A80036; stroke-width: 1.0;" width="10" x="1341.5" y="1400.5098"/><rect fill="#FFFFFF" filter="url(#f1)" height="87.9316" style="stroke: #A80036; stroke-width: 1.0;" width="10" x="1341.5" y="1563.752"/><rect fill="#FFFFFF" filter="url(#f1)" height="219.8184" style="stroke: #A80036; stroke-width: 1.0;" width="10" x="1493.5" y="199.7305"/><rect fill="#EEEEEE" filter="url(#f1)" height="3" style="stroke: #EEEEEE; stroke-width: 1.0;" width="2287" x="3" y="89.4541"/><line style="stroke: #000000; stroke-width: 1.0;" x1="3" x2="2290" y1="89.4541" y2="89.4541"/><line style="stroke: #000000; stroke-width: 1.0;" x1="3" x2="2290" y1="92.4541" y2="92.4541"/><rect fill="#EEEEEE" filter="url(#f1)" height="23.3105" style="stroke: #000000; stroke-width: 2.0;" width="210" x="1041.5" y="78.7988"/><text fill="#000000" font-family="sans-serif" font-size="13" font-weight="bold" lengthAdjust="spacingAndGlyphs" textLength="192" x="1047.5" y="95.3672">Receieve UserList From ARM</text><polygon fill="#A80036" points="2158,129.1094,2148,133.1094,2158,137.1094,2154,133.1094" style="stroke: #A80036; stroke-width: 1.0;"/><line style="stroke: #A80036; stroke-width: 1.0;" x1="2152" x2="2289" y1="133.1094" y2="133.1094"/><text fill="#000000" font-family="sans-serif" font-size="13" lengthAdjust="spacingAndGlyphs" textLength="119" x="2164" y="128.6777">ApeRosterChanged</text><polygon fill="#A80036" points="1509.5,158.4199,1499.5,162.4199,1509.5,166.4199,1505.5,162.4199" style="stroke: #A80036; stroke-width: 1.0;"/><line style="stroke: #A80036; stroke-width: 1.0;" x1="1503.5" x2="2146" y1="162.4199" y2="162.4199"/><text fill="#000000" font-family="sans-serif" font-size="13" lengthAdjust="spacingAndGlyphs" textLength="119" x="1515.5" y="157.9883">ApeRosterChanged</text><line style="stroke: #A80036; stroke-width: 1.0;" x1="1498.5" x2="1545.5" y1="187.041" y2="187.041"/><line style="stroke: #A80036; stroke-width: 1.0;" x1="1545.5" x2="1545.5" y1="187.041" y2="200.041"/><line style="stroke: #A80036; stroke-width: 1.0;" x1="1504.5" x2="1545.5" y1="200.041" y2="200.041"/><polygon fill="#A80036" points="1514.5,196.041,1504.5,200.041,1514.5,204.041,1510.5,200.041" style="stroke: #A80036; stroke-width: 1.0;"/><text fill="#000000" font-family="sans-serif" font-size="13" lengthAdjust="spacingAndGlyphs" textLength="93" x="1510.5" y="182.2988">OnRostChange</text><rect fill="none" height="214.8184" style="stroke: #000000; stroke-width: 2.0;" width="662.5" x="1057" y="220.041"/><polygon fill="#EEEEEE" points="1057,220.041,1119,220.041,1119,227.041,1109,237.041,1057,237.041,1057,220.041" style="stroke: #000000; stroke-width: 2.0;"/><text fill="#000000" font-family="sans-serif" font-size="13" font-weight="bold" lengthAdjust="spacingAndGlyphs" textLength="17" x="1072" y="233.6094">alt</text><text fill="#000000" font-family="sans-serif" font-size="11" font-weight="bold" lengthAdjust="spacingAndGlyphs" textLength="28" x="1134" y="232.6758">["M"]</text><line style="stroke: #A80036; stroke-width: 1.0;" x1="1503.5" x2="1545.5" y1="258.6621" y2="258.6621"/><line style="stroke: #A80036; stroke-width: 1.0;" x1="1545.5" x2="1545.5" y1="258.6621" y2="271.6621"/><line style="stroke: #A80036; stroke-width: 1.0;" x1="1504.5" x2="1545.5" y1="271.6621" y2="271.6621"/><polygon fill="#A80036" points="1514.5,267.6621,1504.5,271.6621,1514.5,275.6621,1510.5,271.6621" style="stroke: #A80036; stroke-width: 1.0;"/><text fill="#000000" font-family="sans-serif" font-size="13" lengthAdjust="spacingAndGlyphs" textLength="105" x="1510.5" y="253.9199">InitializeUserList</text><polygon fill="#FBFB77" filter="url(#f1)" points="1067,243.8516,1067,268.8516,1484,268.8516,1484,253.8516,1474,243.8516,1067,243.8516" style="stroke: #A80036; stroke-width: 1.0;"/><line style="stroke: #A80036; stroke-width: 1.0;" x1="1474" x2="1474" y1="243.8516" y2="253.8516"/><line style="stroke: #A80036; stroke-width: 1.0;" x1="1484" x2="1474" y1="253.8516" y2="253.8516"/><text fill="#000000" font-family="sans-serif" font-size="13" lengthAdjust="spacingAndGlyphs" textLength="396" x="1073" y="261.4199">m_pUserList manage user list ,include add, modify and remove</text><polygon fill="#A80036" points="1628.5,296.6621,1638.5,300.6621,1628.5,304.6621,1632.5,300.6621" style="stroke: #A80036; stroke-width: 1.0;"/><line style="stroke: #A80036; stroke-width: 1.0;" x1="1503.5" x2="1634.5" y1="300.6621" y2="300.6621"/><text fill="#000000" font-family="sans-serif" font-size="13" lengthAdjust="spacingAndGlyphs" textLength="113" x="1510.5" y="296.2305">OnUpdateUserList</text><polygon fill="#A80036" points="1352.5,325.9727,1342.5,329.9727,1352.5,333.9727,1348.5,329.9727" style="stroke: #A80036; stroke-width: 1.0;"/><line style="stroke: #A80036; stroke-width: 1.0;" x1="1346.5" x2="1639.5" y1="329.9727" y2="329.9727"/><text fill="#000000" font-family="sans-serif" font-size="13" lengthAdjust="spacingAndGlyphs" textLength="113" x="1358.5" y="325.541">OnUpdateUserList</text><polygon fill="#A80036" points="1183,360.2832,1173,364.2832,1183,368.2832,1179,364.2832" style="stroke: #A80036; stroke-width: 1.0;"/><line style="stroke: #A80036; stroke-width: 1.0;" x1="1177" x2="1340.5" y1="364.2832" y2="364.2832"/><text fill="#000000" font-family="sans-serif" font-size="13" lengthAdjust="spacingAndGlyphs" textLength="70" x="1189" y="359.8516">SetUserList</text><polygon fill="#FBFB77" filter="url(#f1)" points="1346,343.2832,1346,368.2832,1699,368.2832,1699,353.2832,1689,343.2832,1346,343.2832" style="stroke: #A80036; stroke-width: 1.0;"/><line style="stroke: #A80036; stroke-width: 1.0;" x1="1689" x2="1689" y1="343.2832" y2="353.2832"/><line style="stroke: #A80036; stroke-width: 1.0;" x1="1699" x2="1689" y1="353.2832" y2="353.2832"/><text fill="#000000" font-family="sans-serif" font-size="13" lengthAdjust="spacingAndGlyphs" textLength="332" x="1352" y="360.8516">CHybridClientMgr just hold the point of m_pUserList</text><line style="stroke: #000000; stroke-width: 1.0; stroke-dasharray: 2.0,2.0;" x1="1057" x2="1719.5" y1="378.5938" y2="378.5938"/><text fill="#000000" font-family="sans-serif" font-size="11" font-weight="bold" lengthAdjust="spacingAndGlyphs" textLength="24" x="1062" y="389.2285">["L"]</text><line style="stroke: #A80036; stroke-width: 1.0;" x1="1503.5" x2="1545.5" y1="418.8594" y2="418.8594"/><line style="stroke: #A80036; stroke-width: 1.0;" x1="1545.5" x2="1545.5" y1="418.8594" y2="431.8594"/><line style="stroke: #A80036; stroke-width: 1.0;" x1="1498.5" x2="1545.5" y1="431.8594" y2="431.8594"/><polygon fill="#A80036" points="1508.5,427.8594,1498.5,431.8594,1508.5,435.8594,1504.5,431.8594" style="stroke: #A80036; stroke-width: 1.0;"/><text fill="#000000" font-family="sans-serif" font-size="13" lengthAdjust="spacingAndGlyphs" textLength="95" x="1510.5" y="414.1172">UpdateUserList</text><polygon fill="#FBFB77" filter="url(#f1)" points="1067,399.0488,1067,424.0488,1484,424.0488,1484,409.0488,1474,399.0488,1067,399.0488" style="stroke: #A80036; stroke-width: 1.0;"/><line style="stroke: #A80036; stroke-width: 1.0;" x1="1474" x2="1474" y1="399.0488" y2="409.0488"/><line style="stroke: #A80036; stroke-width: 1.0;" x1="1484" x2="1474" y1="409.0488" y2="409.0488"/><text fill="#000000" font-family="sans-serif" font-size="13" lengthAdjust="spacingAndGlyphs" textLength="396" x="1073" y="416.6172">m_pUserList manage user list ,include add, modify and remove</text><rect fill="#EEEEEE" filter="url(#f1)" height="3" style="stroke: #EEEEEE; stroke-width: 1.0;" width="2287" x="3" y="462.5146"/><line style="stroke: #000000; stroke-width: 1.0;" x1="3" x2="2290" y1="462.5146" y2="462.5146"/><line style="stroke: #000000; stroke-width: 1.0;" x1="3" x2="2290" y1="465.5146" y2="465.5146"/><rect fill="#EEEEEE" filter="url(#f1)" height="23.3105" style="stroke: #000000; stroke-width: 2.0;" width="133" x="1080" y="451.8594"/><text fill="#000000" font-family="sans-serif" font-size="13" font-weight="bold" lengthAdjust="spacingAndGlyphs" textLength="115" x="1086" y="468.4277">Recieve ASN PDU</text><polygon fill="#A80036" points="2158,502.1699,2148,506.1699,2158,510.1699,2154,506.1699" style="stroke: #A80036; stroke-width: 1.0;"/><line style="stroke: #A80036; stroke-width: 1.0;" x1="2152" x2="2289" y1="506.1699" y2="506.1699"/><text fill="#000000" font-family="sans-serif" font-size="13" lengthAdjust="spacingAndGlyphs" textLength="116" x="2164" y="501.7383">ApeDataIndication</text><polygon fill="#A80036" points="1509.5,531.4805,1499.5,535.4805,1509.5,539.4805,1505.5,535.4805" style="stroke: #A80036; stroke-width: 1.0;"/><line style="stroke: #A80036; stroke-width: 1.0;" x1="1503.5" x2="2146" y1="535.4805" y2="535.4805"/><text fill="#000000" font-family="sans-serif" font-size="13" lengthAdjust="spacingAndGlyphs" textLength="116" x="1515.5" y="531.0488">ApeDataIndication</text><rect fill="none" height="1116.2031" style="stroke: #000000; stroke-width: 2.0;" width="2100.5" x="13" y="550.791"/><polygon fill="#EEEEEE" points="13,550.791,75,550.791,75,557.791,65,567.791,13,567.791,13,550.791" style="stroke: #000000; stroke-width: 2.0;"/><text fill="#000000" font-family="sans-serif" font-size="13" font-weight="bold" lengthAdjust="spacingAndGlyphs" textLength="17" x="28" y="564.3594">alt</text><text fill="#000000" font-family="sans-serif" font-size="11" font-weight="bold" lengthAdjust="spacingAndGlyphs" textLength="124" x="90" y="563.4258">["DTApp_Evt_HyASN"]</text><polygon fill="#A80036" points="1818,585.1016,1828,589.1016,1818,593.1016,1822,589.1016" style="stroke: #A80036; stroke-width: 1.0;"/><line style="stroke: #A80036; stroke-width: 1.0;" x1="1498.5" x2="1824" y1="589.1016" y2="589.1016"/><text fill="#000000" font-family="sans-serif" font-size="13" lengthAdjust="spacingAndGlyphs" textLength="47" x="1505.5" y="584.6699">Decode</text><polygon fill="#A80036" points="1628.5,614.4121,1638.5,618.4121,1628.5,622.4121,1632.5,618.4121" style="stroke: #A80036; stroke-width: 1.0;"/><line style="stroke: #A80036; stroke-width: 1.0;" x1="1498.5" x2="1634.5" y1="618.4121" y2="618.4121"/><text fill="#000000" font-family="sans-serif" font-size="13" lengthAdjust="spacingAndGlyphs" textLength="85" x="1505.5" y="613.9805">OnASNReport</text><polygon fill="#A80036" points="1357.5,643.7227,1347.5,647.7227,1357.5,651.7227,1353.5,647.7227" style="stroke: #A80036; stroke-width: 1.0;"/><line style="stroke: #A80036; stroke-width: 1.0;" x1="1351.5" x2="1639.5" y1="647.7227" y2="647.7227"/><text fill="#000000" font-family="sans-serif" font-size="13" lengthAdjust="spacingAndGlyphs" textLength="85" x="1363.5" y="643.291">OnASNReport</text><rect fill="none" height="864.7188" style="stroke: #000000; stroke-width: 2.0;" width="2080.5" x="23" y="663.0332"/><polygon fill="#EEEEEE" points="23,663.0332,85,663.0332,85,670.0332,75,680.0332,23,680.0332,23,663.0332" style="stroke: #000000; stroke-width: 2.0;"/><text fill="#000000" font-family="sans-serif" font-size="13" font-weight="bold" lengthAdjust="spacingAndGlyphs" textLength="17" x="38" y="676.6016">alt</text><text fill="#000000" font-family="sans-serif" font-size="11" font-weight="bold" lengthAdjust="spacingAndGlyphs" textLength="412" x="100" y="675.668">["no user is talking (attendeeID1 == attendeeID2 == attendeeID3 == 0)"]</text><line style="stroke: #A80036; stroke-width: 1.0;" x1="1346.5" x2="1393.5" y1="696.6543" y2="696.6543"/><line style="stroke: #A80036; stroke-width: 1.0;" x1="1393.5" x2="1393.5" y1="696.6543" y2="709.6543"/><line style="stroke: #A80036; stroke-width: 1.0;" x1="1352.5" x2="1393.5" y1="709.6543" y2="709.6543"/><polygon fill="#A80036" points="1362.5,705.6543,1352.5,709.6543,1362.5,713.6543,1358.5,709.6543" style="stroke: #A80036; stroke-width: 1.0;"/><text fill="#000000" font-family="sans-serif" font-size="13" lengthAdjust="spacingAndGlyphs" textLength="54" x="1358.5" y="691.9121">StopASN</text><polygon fill="#A80036" points="1183,739.6543,1173,743.6543,1183,747.6543,1179,743.6543" style="stroke: #A80036; stroke-width: 1.0;"/><line style="stroke: #A80036; stroke-width: 1.0;" x1="1177" x2="1340.5" y1="743.6543" y2="743.6543"/><text fill="#000000" font-family="sans-serif" font-size="13" lengthAdjust="spacingAndGlyphs" textLength="113" x="1189" y="739.2227">GetASNUserCount</text><rect fill="none" height="418.0371" style="stroke: #000000; stroke-width: 2.0;" width="2060.5" x="33" y="758.9648"/><polygon fill="#EEEEEE" points="33,758.9648,107,758.9648,107,765.9648,97,775.9648,33,775.9648,33,758.9648" style="stroke: #000000; stroke-width: 2.0;"/><text fill="#000000" font-family="sans-serif" font-size="13" font-weight="bold" lengthAdjust="spacingAndGlyphs" textLength="29" x="48" y="772.5332">loop</text><text fill="#000000" font-family="sans-serif" font-size="11" font-weight="bold" lengthAdjust="spacingAndGlyphs" textLength="88" x="122" y="771.5996">[ASNUserCount]</text><line style="stroke: #A80036; stroke-width: 1.0;" x1="1351.5" x2="1398.5" y1="792.5859" y2="792.5859"/><line style="stroke: #A80036; stroke-width: 1.0;" x1="1398.5" x2="1398.5" y1="792.5859" y2="805.5859"/><line style="stroke: #A80036; stroke-width: 1.0;" x1="1357.5" x2="1398.5" y1="805.5859" y2="805.5859"/><polygon fill="#A80036" points="1367.5,801.5859,1357.5,805.5859,1367.5,809.5859,1363.5,805.5859" style="stroke: #A80036; stroke-width: 1.0;"/><text fill="#000000" font-family="sans-serif" font-size="13" lengthAdjust="spacingAndGlyphs" textLength="61" x="1363.5" y="787.8438">FlashUser</text><polygon fill="#A80036" points="2005,835.5859,2015,839.5859,2005,843.5859,2009,839.5859" style="stroke: #A80036; stroke-width: 1.0;"/><line style="stroke: #A80036; stroke-width: 1.0;" x1="1356.5" x2="2011" y1="839.5859" y2="839.5859"/><text fill="#000000" font-family="sans-serif" font-size="13" lengthAdjust="spacingAndGlyphs" textLength="102" x="1363.5" y="835.1543">~MASK_PRI_ASN</text><line style="stroke: #A80036; stroke-width: 1.0;" x1="1356.5" x2="1398.5" y1="869.207" y2="869.207"/><line style="stroke: #A80036; stroke-width: 1.0;" x1="1398.5" x2="1398.5" y1="869.207" y2="882.207"/><line style="stroke: #A80036; stroke-width: 1.0;" x1="1357.5" x2="1398.5" y1="882.207" y2="882.207"/><polygon fill="#A80036" points="1367.5,878.207,1357.5,882.207,1367.5,886.207,1363.5,882.207" style="stroke: #A80036; stroke-width: 1.0;"/><text fill="#000000" font-family="sans-serif" font-size="13" lengthAdjust="spacingAndGlyphs" textLength="100" x="1363.5" y="864.4648">RosterToService</text><polygon fill="#A80036" points="1035,907.207,1025,911.207,1035,915.207,1031,911.207" style="stroke: #A80036; stroke-width: 1.0;"/><line style="stroke: #A80036; stroke-width: 1.0;" x1="1029" x2="1345.5" y1="911.207" y2="911.207"/><text fill="#000000" font-family="sans-serif" font-size="13" lengthAdjust="spacingAndGlyphs" textLength="113" x="1041" y="906.7754">OnRosterChanged</text><polygon fill="#A80036" points="258.5,936.5176,248.5,940.5176,258.5,944.5176,254.5,940.5176" style="stroke: #A80036; stroke-width: 1.0;"/><line style="stroke: #A80036; stroke-width: 1.0;" x1="252.5" x2="1023" y1="940.5176" y2="940.5176"/><text fill="#000000" font-family="sans-serif" font-size="13" lengthAdjust="spacingAndGlyphs" textLength="113" x="264.5" y="936.0859">OnRosterChanged</text><polygon fill="#A80036" points="853,965.8281,863,969.8281,853,973.8281,857,969.8281" style="stroke: #A80036; stroke-width: 1.0;"/><line style="stroke: #A80036; stroke-width: 1.0;" x1="247.5" x2="859" y1="969.8281" y2="969.8281"/><text fill="#000000" font-family="sans-serif" font-size="13" lengthAdjust="spacingAndGlyphs" textLength="113" x="254.5" y="965.3965">OnRosterChanged</text><polygon fill="#A80036" points="258.5,995.1387,248.5,999.1387,258.5,1003.1387,254.5,999.1387" style="stroke: #A80036; stroke-width: 1.0;"/><line style="stroke: #A80036; stroke-width: 1.0;" x1="252.5" x2="864" y1="999.1387" y2="999.1387"/><text fill="#000000" font-family="sans-serif" font-size="13" lengthAdjust="spacingAndGlyphs" textLength="71" x="264.5" y="994.707">OnAddUser</text><polygon fill="#A80036" points="853,1024.4492,863,1028.4492,853,1032.4492,857,1028.4492" style="stroke: #A80036; stroke-width: 1.0;"/><line style="stroke: #A80036; stroke-width: 1.0;" x1="247.5" x2="859" y1="1028.4492" y2="1028.4492"/><text fill="#000000" font-family="sans-serif" font-size="13" lengthAdjust="spacingAndGlyphs" textLength="71" x="254.5" y="1024.0176">OnAddUser</text><line style="stroke: #A80036; stroke-width: 1.0;" x1="865" x2="907" y1="1058.0703" y2="1058.0703"/><line style="stroke: #A80036; stroke-width: 1.0;" x1="907" x2="907" y1="1058.0703" y2="1071.0703"/><line style="stroke: #A80036; stroke-width: 1.0;" x1="866" x2="907" y1="1071.0703" y2="1071.0703"/><polygon fill="#A80036" points="876,1067.0703,866,1071.0703,876,1075.0703,872,1071.0703" style="stroke: #A80036; stroke-width: 1.0;"/><text fill="#000000" font-family="sans-serif" font-size="13" lengthAdjust="spacingAndGlyphs" textLength="100" x="872" y="1053.3281">OnAddVOIPUser</text><polygon fill="#A80036" points="113,1096.0703,103,1100.0703,113,1104.0703,109,1100.0703" style="stroke: #A80036; stroke-width: 1.0;"/><line style="stroke: #A80036; stroke-width: 1.0;" x1="107" x2="864" y1="1100.0703" y2="1100.0703"/><text fill="#000000" font-family="sans-serif" font-size="13" lengthAdjust="spacingAndGlyphs" textLength="72" x="119" y="1095.6387">UpdateUser</text><polygon fill="#A80036" points="692.5,1125.3809,702.5,1129.3809,692.5,1133.3809,696.5,1129.3809" style="stroke: #A80036; stroke-width: 1.0;"/><line style="stroke: #A80036; stroke-width: 1.0;" x1="102" x2="698.5" y1="1129.3809" y2="1129.3809"/><text fill="#000000" font-family="sans-serif" font-size="13" lengthAdjust="spacingAndGlyphs" textLength="72" x="109" y="1124.9492">UpdateUser</text><polygon fill="#A80036" points="550.5,1159.6914,560.5,1163.6914,550.5,1167.6914,554.5,1163.6914" style="stroke: #A80036; stroke-width: 1.0;"/><line style="stroke: #A80036; stroke-width: 1.0;" x1="242.5" x2="556.5" y1="1163.6914" y2="1163.6914"/><text fill="#000000" font-family="sans-serif" font-size="13" lengthAdjust="spacingAndGlyphs" textLength="102" x="249.5" y="1159.2598">NotifyObservers</text><polygon fill="#FBFB77" filter="url(#f1)" points="567,1142.6914,567,1167.6914,892,1167.6914,892,1152.6914,882,1142.6914,567,1142.6914" style="stroke: #A80036; stroke-width: 1.0;"/><line style="stroke: #A80036; stroke-width: 1.0;" x1="882" x2="882" y1="1142.6914" y2="1152.6914"/><line style="stroke: #A80036; stroke-width: 1.0;" x1="892" x2="882" y1="1152.6914" y2="1152.6914"/><text fill="#000000" font-family="sans-serif" font-size="13" lengthAdjust="spacingAndGlyphs" textLength="304" x="573" y="1160.2598">MC_MODEL_WPARAM_HYBRID_ROSTER_CHANGE</text><line style="stroke: #A80036; stroke-width: 1.0;" x1="1351.5" x2="1393.5" y1="1205.3125" y2="1205.3125"/><line style="stroke: #A80036; stroke-width: 1.0;" x1="1393.5" x2="1393.5" y1="1205.3125" y2="1218.3125"/><line style="stroke: #A80036; stroke-width: 1.0;" x1="1352.5" x2="1393.5" y1="1218.3125" y2="1218.3125"/><polygon fill="#A80036" points="1362.5,1214.3125,1352.5,1218.3125,1362.5,1222.3125,1358.5,1218.3125" style="stroke: #A80036; stroke-width: 1.0;"/><text fill="#000000" font-family="sans-serif" font-size="13" lengthAdjust="spacingAndGlyphs" textLength="94" x="1358.5" y="1200.5703">HandleSVCASN</text><polygon fill="#A80036" points="1035,1243.3125,1025,1247.3125,1035,1251.3125,1031,1247.3125" style="stroke: #A80036; stroke-width: 1.0;"/><line style="stroke: #A80036; stroke-width: 1.0;" x1="1029" x2="1340.5" y1="1247.3125" y2="1247.3125"/><text fill="#000000" font-family="sans-serif" font-size="13" lengthAdjust="spacingAndGlyphs" textLength="85" x="1041" y="1242.8809">OnASNReport</text><polygon fill="#A80036" points="876,1272.623,866,1276.623,876,1280.623,872,1276.623" style="stroke: #A80036; stroke-width: 1.0;"/><line style="stroke: #A80036; stroke-width: 1.0;" x1="870" x2="1023" y1="1276.623" y2="1276.623"/><text fill="#000000" font-family="sans-serif" font-size="13" lengthAdjust="spacingAndGlyphs" textLength="85" x="882" y="1272.1914">OnASNReport</text><polygon fill="#A80036" points="408.5,1301.9336,398.5,1305.9336,408.5,1309.9336,404.5,1305.9336" style="stroke: #A80036; stroke-width: 1.0;"/><line style="stroke: #A80036; stroke-width: 1.0;" x1="402.5" x2="864" y1="1305.9336" y2="1305.9336"/><text fill="#000000" font-family="sans-serif" font-size="13" lengthAdjust="spacingAndGlyphs" textLength="85" x="414.5" y="1301.502">OnASNReport</text><line style="stroke: #A80036; stroke-width: 1.0;" x1="397.5" x2="439.5" y1="1340.5547" y2="1340.5547"/><line style="stroke: #A80036; stroke-width: 1.0;" x1="439.5" x2="439.5" y1="1340.5547" y2="1353.5547"/><line style="stroke: #A80036; stroke-width: 1.0;" x1="392.5" x2="439.5" y1="1353.5547" y2="1353.5547"/><polygon fill="#A80036" points="402.5,1349.5547,392.5,1353.5547,402.5,1357.5547,398.5,1353.5547" style="stroke: #A80036; stroke-width: 1.0;"/><text fill="#000000" font-family="sans-serif" font-size="13" lengthAdjust="spacingAndGlyphs" textLength="151" x="404.5" y="1335.8125">ApplyNewActiveSpeaker</text><line style="stroke: #000000; stroke-width: 1.0; stroke-dasharray: 2.0,2.0;" x1="23" x2="2103.5" y1="1357.5547" y2="1357.5547"/><text fill="#000000" font-family="sans-serif" font-size="11" font-weight="bold" lengthAdjust="spacingAndGlyphs" textLength="133" x="28" y="1368.1895">["some user is talking"]</text><line style="stroke: #A80036; stroke-width: 1.0;" x1="1346.5" x2="1393.5" y1="1387.8203" y2="1387.8203"/><line style="stroke: #A80036; stroke-width: 1.0;" x1="1393.5" x2="1393.5" y1="1387.8203" y2="1400.8203"/><line style="stroke: #A80036; stroke-width: 1.0;" x1="1352.5" x2="1393.5" y1="1400.8203" y2="1400.8203"/><polygon fill="#A80036" points="1362.5,1396.8203,1352.5,1400.8203,1362.5,1404.8203,1358.5,1400.8203" style="stroke: #A80036; stroke-width: 1.0;"/><text fill="#000000" font-family="sans-serif" font-size="13" lengthAdjust="spacingAndGlyphs" textLength="55" x="1358.5" y="1383.0781">StartASN</text><line style="stroke: #A80036; stroke-width: 1.0;" x1="1351.5" x2="1393.5" y1="1435.1309" y2="1435.1309"/><line style="stroke: #A80036; stroke-width: 1.0;" x1="1393.5" x2="1393.5" y1="1435.1309" y2="1448.1309"/><line style="stroke: #A80036; stroke-width: 1.0;" x1="1352.5" x2="1393.5" y1="1448.1309" y2="1448.1309"/><polygon fill="#A80036" points="1362.5,1444.1309,1352.5,1448.1309,1362.5,1452.1309,1358.5,1448.1309" style="stroke: #A80036; stroke-width: 1.0;"/><text fill="#000000" font-family="sans-serif" font-size="13" lengthAdjust="spacingAndGlyphs" textLength="101" x="1358.5" y="1430.3887">FlashUser(False)</text><polygon fill="#A80036" points="253.5,1473.1309,243.5,1477.1309,253.5,1481.1309,249.5,1477.1309" style="stroke: #A80036; stroke-width: 1.0;"/><line style="stroke: #A80036; stroke-width: 1.0;" x1="247.5" x2="1340.5" y1="1477.1309" y2="1477.1309"/><text fill="#000000" font-family="sans-serif" font-size="13" lengthAdjust="spacingAndGlyphs" textLength="113" x="259.5" y="1472.6992">OnRosterChanged</text><line style="stroke: #A80036; stroke-width: 1.0;" x1="1351.5" x2="1393.5" y1="1511.752" y2="1511.752"/><line style="stroke: #A80036; stroke-width: 1.0;" x1="1393.5" x2="1393.5" y1="1511.752" y2="1524.752"/><line style="stroke: #A80036; stroke-width: 1.0;" x1="1346.5" x2="1393.5" y1="1524.752" y2="1524.752"/><polygon fill="#A80036" points="1356.5,1520.752,1346.5,1524.752,1356.5,1528.752,1352.5,1524.752" style="stroke: #A80036; stroke-width: 1.0;"/><text fill="#000000" font-family="sans-serif" font-size="13" lengthAdjust="spacingAndGlyphs" textLength="97" x="1358.5" y="1507.0098">FlashUser(True)</text><line style="stroke: #A80036; stroke-width: 1.0;" x1="1346.5" x2="1393.5" y1="1551.0625" y2="1551.0625"/><line style="stroke: #A80036; stroke-width: 1.0;" x1="1393.5" x2="1393.5" y1="1551.0625" y2="1564.0625"/><line style="stroke: #A80036; stroke-width: 1.0;" x1="1352.5" x2="1393.5" y1="1564.0625" y2="1564.0625"/><polygon fill="#A80036" points="1362.5,1560.0625,1352.5,1564.0625,1362.5,1568.0625,1358.5,1564.0625" style="stroke: #A80036; stroke-width: 1.0;"/><text fill="#000000" font-family="sans-serif" font-size="13" lengthAdjust="spacingAndGlyphs" textLength="82" x="1358.5" y="1546.3203">SaveASNUser</text><polygon fill="#A80036" points="1183,1594.0625,1173,1598.0625,1183,1602.0625,1179,1598.0625" style="stroke: #A80036; stroke-width: 1.0;"/><line style="stroke: #A80036; stroke-width: 1.0;" x1="1177" x2="1340.5" y1="1598.0625" y2="1598.0625"/><text fill="#000000" font-family="sans-serif" font-size="13" lengthAdjust="spacingAndGlyphs" textLength="89" x="1189" y="1593.6309">CleanASNUser</text><rect fill="none" height="46.6211" style="stroke: #000000; stroke-width: 2.0;" width="349" x="1092" y="1613.373"/><polygon fill="#EEEEEE" points="1092,1613.373,1166,1613.373,1166,1620.373,1156,1630.373,1092,1630.373,1092,1613.373" style="stroke: #000000; stroke-width: 2.0;"/><text fill="#000000" font-family="sans-serif" font-size="13" font-weight="bold" lengthAdjust="spacingAndGlyphs" textLength="29" x="1107" y="1626.9414">loop</text><text fill="#000000" font-family="sans-serif" font-size="11" font-weight="bold" lengthAdjust="spacingAndGlyphs" textLength="209" x="1181" y="1626.0078">["3 attendeeID and m_nVOIPASNCnt"]</text><polygon fill="#A80036" points="1183,1647.6836,1173,1651.6836,1183,1655.6836,1179,1651.6836" style="stroke: #A80036; stroke-width: 1.0;"/><line style="stroke: #A80036; stroke-width: 1.0;" x1="1177" x2="1335.5" y1="1651.6836" y2="1651.6836"/><text fill="#000000" font-family="sans-serif" font-size="13" lengthAdjust="spacingAndGlyphs" textLength="79" x="1189" y="1647.252">AddASNUser</text></g></svg>