<?xml version="1.0" encoding="UTF-8" standalone="yes"?><svg xmlns="http://www.w3.org/2000/svg" xmlns:xlink="http://www.w3.org/1999/xlink" height="1202pt" style="width:1445px;height:1202px;" version="1.1" viewBox="0 0 1445 1202" width="1445pt"><defs><filter height="300%" id="f1" width="300%" x="-1" y="-1"><feGaussianBlur result="blurOut" stdDeviation="2.0"/><feColorMatrix in="blurOut" result="blurOut2" type="matrix" values="0 0 0 0 0 0 0 0 0 0 0 0 0 0 0 0 0 0 .4 0"/><feOffset dx="4.0" dy="4.0" in="blurOut2" result="blurOut3"/><feBlend in="SourceGraphic" in2="blurOut3" mode="normal"/></filter></defs><g><polygon fill="#FFFFFF" filter="url(#f1)" points="845,448,887,448,894,470.4883,1438,470.4883,1438,1195,845,1195,845,448" style="stroke: #000000; stroke-width: 2.0;"/><line style="stroke: #000000; stroke-width: 2.0;" x1="845" x2="894" y1="470.4883" y2="470.4883"/><text fill="#000000" font-family="sans-serif" font-size="14" font-weight="bold" lengthAdjust="spacingAndGlyphs" textLength="36" x="848" y="464.5352">PList</text><polygon fill="#FFFFFF" filter="url(#f1)" points="14,16,45,16,52,38.4883,837,38.4883,837,979,14,979,14,16" style="stroke: #000000; stroke-width: 2.0;"/><line style="stroke: #000000; stroke-width: 2.0;" x1="14" x2="52" y1="38.4883" y2="38.4883"/><text fill="#000000" font-family="sans-serif" font-size="14" font-weight="bold" lengthAdjust="spacingAndGlyphs" textLength="25" x="17" y="32.5352">VUI</text><rect fill="#FEFECE" filter="url(#f1)" height="48" style="stroke: #A80036; stroke-width: 1.5;" width="103" x="1006.5" y="707"/><ellipse cx="1021.5" cy="723" fill="#A9DCDF" rx="11" ry="11" style="stroke: #A80036; stroke-width: 1.0;"/><path d="M1025.7803,725.4321 L1025.9214,725.4321 Q1026.3696,725.4321 1026.6021,725.6604 Q1026.8345,725.8887 1026.8345,726.3286 Q1026.8345,726.8184 1026.5896,727.0342 Q1026.3447,727.25 1025.7803,727.25 L1023.2817,727.25 Q1022.709,727.25 1022.4683,727.0383 Q1022.2275,726.8267 1022.2275,726.3286 Q1022.2275,725.8472 1022.4683,725.6396 Q1022.709,725.4321 1023.2817,725.4321 L1023.5723,725.4321 L1023.2319,724.4609 L1019.646,724.4609 L1019.2891,725.4321 L1019.5796,725.4321 Q1020.144,725.4321 1020.3889,725.6438 Q1020.6338,725.8555 1020.6338,726.3286 Q1020.6338,726.8184 1020.3889,727.0342 Q1020.144,727.25 1019.5796,727.25 L1017.438,727.25 Q1016.8652,727.25 1016.6245,727.0342 Q1016.3838,726.8184 1016.3838,726.3286 Q1016.3838,725.8887 1016.6162,725.6604 Q1016.8486,725.4321 1017.2969,725.4321 L1017.438,725.4321 L1019.6626,719.2397 L1018.9985,719.2397 Q1018.4341,719.2397 1018.1892,719.0239 Q1017.9443,718.8081 1017.9443,718.3267 Q1017.9443,717.8369 1018.1892,717.6211 Q1018.4341,717.4053 1018.9985,717.4053 L1022.1113,717.4053 Q1022.8501,717.4053 1023.1489,718.2021 L1023.1489,718.2271 Z M1021.4307,719.2397 L1020.2271,722.7427 L1022.6343,722.7427 Z "/><text fill="#000000" font-family="sans-serif" font-size="12" font-style="italic" lengthAdjust="spacingAndGlyphs" textLength="71" x="1035.5" y="727.5352">IUserListSink</text><line style="stroke: #A80036; stroke-width: 1.5;" x1="1007.5" x2="1108.5" y1="739" y2="739"/><line style="stroke: #A80036; stroke-width: 1.5;" x1="1007.5" x2="1108.5" y1="747" y2="747"/><rect fill="#FEFECE" filter="url(#f1)" height="48" style="stroke: #A80036; stroke-width: 1.5;" width="133" x="853.5" y="923"/><ellipse cx="868.5" cy="939" fill="#A9DCDF" rx="11" ry="11" style="stroke: #A80036; stroke-width: 1.0;"/><path d="M872.7803,941.4321 L872.9214,941.4321 Q873.3696,941.4321 873.6021,941.6604 Q873.8345,941.8887 873.8345,942.3286 Q873.8345,942.8184 873.5896,943.0342 Q873.3447,943.25 872.7803,943.25 L870.2817,943.25 Q869.709,943.25 869.4683,943.0383 Q869.2275,942.8267 869.2275,942.3286 Q869.2275,941.8472 869.4683,941.6396 Q869.709,941.4321 870.2817,941.4321 L870.5723,941.4321 L870.2319,940.4609 L866.646,940.4609 L866.2891,941.4321 L866.5796,941.4321 Q867.144,941.4321 867.3889,941.6438 Q867.6338,941.8555 867.6338,942.3286 Q867.6338,942.8184 867.3889,943.0342 Q867.144,943.25 866.5796,943.25 L864.438,943.25 Q863.8652,943.25 863.6245,943.0342 Q863.3838,942.8184 863.3838,942.3286 Q863.3838,941.8887 863.6162,941.6604 Q863.8486,941.4321 864.2969,941.4321 L864.438,941.4321 L866.6626,935.2397 L865.9985,935.2397 Q865.4341,935.2397 865.1892,935.0239 Q864.9443,934.8081 864.9443,934.3267 Q864.9443,933.8369 865.1892,933.6211 Q865.4341,933.4053 865.9985,933.4053 L869.1113,933.4053 Q869.8501,933.4053 870.1489,934.2021 L870.1489,934.2271 Z M868.4307,935.2397 L867.2271,938.7427 L869.6343,938.7427 Z "/><text fill="#000000" font-family="sans-serif" font-size="12" font-style="italic" lengthAdjust="spacingAndGlyphs" textLength="101" x="882.5" y="943.5352">CSmDefUserMgr2</text><line style="stroke: #A80036; stroke-width: 1.5;" x1="854.5" x2="985.5" y1="955" y2="955"/><line style="stroke: #A80036; stroke-width: 1.5;" x1="854.5" x2="985.5" y1="963" y2="963"/><rect fill="#FEFECE" filter="url(#f1)" height="48" style="stroke: #A80036; stroke-width: 1.5;" width="110" x="864" y="815"/><ellipse cx="879" cy="831" fill="#ADD1B2" rx="11" ry="11" style="stroke: #A80036; stroke-width: 1.0;"/><path d="M881.7031,826.9292 Q881.8691,826.6304 882.0435,826.5059 Q882.2178,826.3813 882.4834,826.3813 Q882.8901,826.3813 883.0603,826.5972 Q883.2305,826.813 883.2305,827.3359 L883.2471,829.4941 Q883.2471,830.0669 883.0603,830.2661 Q882.8735,830.4653 882.3838,830.4653 Q882.0352,830.4653 881.8484,830.2993 Q881.6616,830.1333 881.5288,829.6851 Q881.313,828.8965 880.8398,828.552 Q880.3667,828.2075 879.5283,828.2075 Q878.25,828.2075 877.5693,829.0708 Q876.8887,829.9341 876.8887,831.5693 Q876.8887,833.1963 877.5776,834.0679 Q878.2666,834.9395 879.5449,834.9395 Q880.4165,834.9395 881.4666,834.3584 Q882.5166,833.7773 882.7905,833.7773 Q883.1143,833.7773 883.3342,834.0513 Q883.5542,834.3252 883.5542,834.7319 Q883.5542,835.4624 882.2676,836.1099 Q880.981,836.7573 879.3706,836.7573 Q877.1958,836.7573 875.8511,835.3213 Q874.5063,833.8853 874.5063,831.5693 Q874.5063,829.3364 875.8677,827.8589 Q877.229,826.3813 879.3208,826.3813 Q879.9102,826.3813 880.4829,826.5142 Q881.0557,826.647 881.7031,826.9292 Z "/><text fill="#000000" font-family="sans-serif" font-size="12" lengthAdjust="spacingAndGlyphs" textLength="78" x="893" y="835.5352">CPumUserList</text><line style="stroke: #A80036; stroke-width: 1.5;" x1="865" x2="973" y1="847" y2="847"/><line style="stroke: #A80036; stroke-width: 1.5;" x1="865" x2="973" y1="855" y2="855"/><rect fill="#FEFECE" filter="url(#f1)" height="48" style="stroke: #A80036; stroke-width: 1.5;" width="106" x="955" y="1031"/><ellipse cx="970" cy="1047" fill="#ADD1B2" rx="11" ry="11" style="stroke: #A80036; stroke-width: 1.0;"/><path d="M972.7031,1042.9292 Q972.8691,1042.6304 973.0435,1042.5059 Q973.2178,1042.3813 973.4834,1042.3813 Q973.8901,1042.3813 974.0603,1042.5972 Q974.2305,1042.813 974.2305,1043.3359 L974.2471,1045.4941 Q974.2471,1046.0669 974.0603,1046.2661 Q973.8735,1046.4653 973.3838,1046.4653 Q973.0352,1046.4653 972.8484,1046.2993 Q972.6616,1046.1333 972.5288,1045.6851 Q972.313,1044.8965 971.8398,1044.552 Q971.3667,1044.2075 970.5283,1044.2075 Q969.25,1044.2075 968.5693,1045.0708 Q967.8887,1045.9341 967.8887,1047.5693 Q967.8887,1049.1963 968.5776,1050.0679 Q969.2666,1050.9395 970.5449,1050.9395 Q971.4165,1050.9395 972.4666,1050.3584 Q973.5166,1049.7773 973.7905,1049.7773 Q974.1143,1049.7773 974.3342,1050.0513 Q974.5542,1050.3252 974.5542,1050.7319 Q974.5542,1051.4624 973.2676,1052.1099 Q971.981,1052.7573 970.3706,1052.7573 Q968.1958,1052.7573 966.8511,1051.3213 Q965.5063,1049.8853 965.5063,1047.5693 Q965.5063,1045.3364 966.8677,1043.8589 Q968.229,1042.3813 970.3208,1042.3813 Q970.9102,1042.3813 971.4829,1042.5142 Q972.0557,1042.647 972.7031,1042.9292 Z "/><text fill="#000000" font-family="sans-serif" font-size="12" lengthAdjust="spacingAndGlyphs" textLength="74" x="984" y="1051.5352">CMCUserMgr</text><line style="stroke: #A80036; stroke-width: 1.5;" x1="956" x2="1060" y1="1063" y2="1063"/><line style="stroke: #A80036; stroke-width: 1.5;" x1="956" x2="1060" y1="1071" y2="1071"/><rect fill="#FEFECE" filter="url(#f1)" height="48" style="stroke: #A80036; stroke-width: 1.5;" width="117" x="1096.5" y="1031"/><ellipse cx="1111.5" cy="1047" fill="#ADD1B2" rx="11" ry="11" style="stroke: #A80036; stroke-width: 1.0;"/><path d="M1114.2031,1042.9292 Q1114.3691,1042.6304 1114.5435,1042.5059 Q1114.7178,1042.3813 1114.9834,1042.3813 Q1115.3901,1042.3813 1115.5603,1042.5972 Q1115.7305,1042.813 1115.7305,1043.3359 L1115.7471,1045.4941 Q1115.7471,1046.0669 1115.5603,1046.2661 Q1115.3735,1046.4653 1114.8838,1046.4653 Q1114.5352,1046.4653 1114.3484,1046.2993 Q1114.1616,1046.1333 1114.0288,1045.6851 Q1113.813,1044.8965 1113.3398,1044.552 Q1112.8667,1044.2075 1112.0283,1044.2075 Q1110.75,1044.2075 1110.0693,1045.0708 Q1109.3887,1045.9341 1109.3887,1047.5693 Q1109.3887,1049.1963 1110.0776,1050.0679 Q1110.7666,1050.9395 1112.0449,1050.9395 Q1112.9165,1050.9395 1113.9666,1050.3584 Q1115.0166,1049.7773 1115.2905,1049.7773 Q1115.6143,1049.7773 1115.8342,1050.0513 Q1116.0542,1050.3252 1116.0542,1050.7319 Q1116.0542,1051.4624 1114.7676,1052.1099 Q1113.481,1052.7573 1111.8706,1052.7573 Q1109.6958,1052.7573 1108.3511,1051.3213 Q1107.0063,1049.8853 1107.0063,1047.5693 Q1107.0063,1045.3364 1108.3677,1043.8589 Q1109.729,1042.3813 1111.8208,1042.3813 Q1112.4102,1042.3813 1112.9829,1042.5142 Q1113.5557,1042.647 1114.2031,1042.9292 Z "/><text fill="#000000" font-family="sans-serif" font-size="12" lengthAdjust="spacingAndGlyphs" textLength="85" x="1125.5" y="1051.5352">CMCPListUIMgr</text><line style="stroke: #A80036; stroke-width: 1.5;" x1="1097.5" x2="1212.5" y1="1063" y2="1063"/><line style="stroke: #A80036; stroke-width: 1.5;" x1="1097.5" x2="1212.5" y1="1071" y2="1071"/><rect fill="#FEFECE" filter="url(#f1)" height="48" style="stroke: #A80036; stroke-width: 1.5;" width="126" x="1009" y="815"/><ellipse cx="1024" cy="831" fill="#ADD1B2" rx="11" ry="11" style="stroke: #A80036; stroke-width: 1.0;"/><path d="M1026.7031,826.9292 Q1026.8691,826.6304 1027.0435,826.5059 Q1027.2178,826.3813 1027.4834,826.3813 Q1027.8901,826.3813 1028.0603,826.5972 Q1028.2305,826.813 1028.2305,827.3359 L1028.2471,829.4941 Q1028.2471,830.0669 1028.0603,830.2661 Q1027.8735,830.4653 1027.3838,830.4653 Q1027.0352,830.4653 1026.8484,830.2993 Q1026.6616,830.1333 1026.5288,829.6851 Q1026.313,828.8965 1025.8398,828.552 Q1025.3667,828.2075 1024.5283,828.2075 Q1023.25,828.2075 1022.5693,829.0708 Q1021.8887,829.9341 1021.8887,831.5693 Q1021.8887,833.1963 1022.5776,834.0679 Q1023.2666,834.9395 1024.5449,834.9395 Q1025.4165,834.9395 1026.4666,834.3584 Q1027.5166,833.7773 1027.7905,833.7773 Q1028.1143,833.7773 1028.3342,834.0513 Q1028.5542,834.3252 1028.5542,834.7319 Q1028.5542,835.4624 1027.2676,836.1099 Q1025.981,836.7573 1024.3706,836.7573 Q1022.1958,836.7573 1020.8511,835.3213 Q1019.5063,833.8853 1019.5063,831.5693 Q1019.5063,829.3364 1020.8677,827.8589 Q1022.229,826.3813 1024.3208,826.3813 Q1024.9102,826.3813 1025.4829,826.5142 Q1026.0557,826.647 1026.7031,826.9292 Z "/><text fill="#000000" font-family="sans-serif" font-size="12" lengthAdjust="spacingAndGlyphs" textLength="94" x="1038" y="835.5352">CMCUserListSink</text><line style="stroke: #A80036; stroke-width: 1.5;" x1="1010" x2="1134" y1="847" y2="847"/><line style="stroke: #A80036; stroke-width: 1.5;" x1="1010" x2="1134" y1="855" y2="855"/><rect fill="#FEFECE" filter="url(#f1)" height="48" style="stroke: #A80036; stroke-width: 1.5;" width="104" x="867" y="707"/><ellipse cx="882" cy="723" fill="#ADD1B2" rx="11" ry="11" style="stroke: #A80036; stroke-width: 1.0;"/><path d="M884.7031,718.9292 Q884.8691,718.6304 885.0435,718.5059 Q885.2178,718.3813 885.4834,718.3813 Q885.8901,718.3813 886.0603,718.5972 Q886.2305,718.813 886.2305,719.3359 L886.2471,721.4941 Q886.2471,722.0669 886.0603,722.2661 Q885.8735,722.4653 885.3838,722.4653 Q885.0352,722.4653 884.8484,722.2993 Q884.6616,722.1333 884.5288,721.6851 Q884.313,720.8965 883.8398,720.552 Q883.3667,720.2075 882.5283,720.2075 Q881.25,720.2075 880.5693,721.0708 Q879.8887,721.9341 879.8887,723.5693 Q879.8887,725.1963 880.5776,726.0679 Q881.2666,726.9395 882.5449,726.9395 Q883.4165,726.9395 884.4666,726.3584 Q885.5166,725.7773 885.7905,725.7773 Q886.1143,725.7773 886.3342,726.0513 Q886.5542,726.3252 886.5542,726.7319 Q886.5542,727.4624 885.2676,728.1099 Q883.981,728.7573 882.3706,728.7573 Q880.1958,728.7573 878.8511,727.3213 Q877.5063,725.8853 877.5063,723.5693 Q877.5063,721.3364 878.8677,719.8589 Q880.229,718.3813 882.3208,718.3813 Q882.9102,718.3813 883.4829,718.5142 Q884.0557,718.647 884.7031,718.9292 Z "/><text fill="#000000" font-family="sans-serif" font-size="12" lengthAdjust="spacingAndGlyphs" textLength="72" x="896" y="727.5352">CPumListCtrl</text><line style="stroke: #A80036; stroke-width: 1.5;" x1="868" x2="970" y1="739" y2="739"/><line style="stroke: #A80036; stroke-width: 1.5;" x1="868" x2="970" y1="747" y2="747"/><rect fill="#FEFECE" filter="url(#f1)" height="48" style="stroke: #A80036; stroke-width: 1.5;" width="114" x="862" y="599"/><ellipse cx="877" cy="615" fill="#ADD1B2" rx="11" ry="11" style="stroke: #A80036; stroke-width: 1.0;"/><path d="M879.7031,610.9292 Q879.8691,610.6304 880.0435,610.5059 Q880.2178,610.3813 880.4834,610.3813 Q880.8901,610.3813 881.0603,610.5972 Q881.2305,610.813 881.2305,611.3359 L881.2471,613.4941 Q881.2471,614.0669 881.0603,614.2661 Q880.8735,614.4653 880.3838,614.4653 Q880.0352,614.4653 879.8484,614.2993 Q879.6616,614.1333 879.5288,613.6851 Q879.313,612.8965 878.8398,612.552 Q878.3667,612.2075 877.5283,612.2075 Q876.25,612.2075 875.5693,613.0708 Q874.8887,613.9341 874.8887,615.5693 Q874.8887,617.1963 875.5776,618.0679 Q876.2666,618.9395 877.5449,618.9395 Q878.4165,618.9395 879.4666,618.3584 Q880.5166,617.7773 880.7905,617.7773 Q881.1143,617.7773 881.3342,618.0513 Q881.5542,618.3252 881.5542,618.7319 Q881.5542,619.4624 880.2676,620.1099 Q878.981,620.7573 877.3706,620.7573 Q875.1958,620.7573 873.8511,619.3213 Q872.5063,617.8853 872.5063,615.5693 Q872.5063,613.3364 873.8677,611.8589 Q875.229,610.3813 877.3208,610.3813 Q877.9102,610.3813 878.4829,610.5142 Q879.0557,610.647 879.7031,610.9292 Z "/><text fill="#000000" font-family="sans-serif" font-size="12" lengthAdjust="spacingAndGlyphs" textLength="82" x="891" y="619.5352">CListViewCtrl2</text><line style="stroke: #A80036; stroke-width: 1.5;" x1="863" x2="975" y1="631" y2="631"/><line style="stroke: #A80036; stroke-width: 1.5;" x1="863" x2="975" y1="639" y2="639"/><rect fill="#FEFECE" filter="url(#f1)" height="48" style="stroke: #A80036; stroke-width: 1.5;" width="129" x="854.5" y="491"/><ellipse cx="869.5" cy="507" fill="#ADD1B2" rx="11" ry="11" style="stroke: #A80036; stroke-width: 1.0;"/><path d="M872.2031,502.9292 Q872.3691,502.6304 872.5435,502.5059 Q872.7178,502.3813 872.9834,502.3813 Q873.3901,502.3813 873.5603,502.5972 Q873.7305,502.813 873.7305,503.3359 L873.7471,505.4941 Q873.7471,506.0669 873.5603,506.2661 Q873.3735,506.4653 872.8838,506.4653 Q872.5352,506.4653 872.3484,506.2993 Q872.1616,506.1333 872.0288,505.6851 Q871.813,504.8965 871.3398,504.552 Q870.8667,504.2075 870.0283,504.2075 Q868.75,504.2075 868.0693,505.0708 Q867.3887,505.9341 867.3887,507.5693 Q867.3887,509.1963 868.0776,510.0679 Q868.7666,510.9395 870.0449,510.9395 Q870.9165,510.9395 871.9666,510.3584 Q873.0166,509.7773 873.2905,509.7773 Q873.6143,509.7773 873.8342,510.0513 Q874.0542,510.3252 874.0542,510.7319 Q874.0542,511.4624 872.7676,512.1099 Q871.481,512.7573 869.8706,512.7573 Q867.6958,512.7573 866.3511,511.3213 Q865.0063,509.8853 865.0063,507.5693 Q865.0063,505.3364 866.3677,503.8589 Q867.729,502.3813 869.8208,502.3813 Q870.4102,502.3813 870.9829,502.5142 Q871.5557,502.647 872.2031,502.9292 Z "/><text fill="#000000" font-family="sans-serif" font-size="12" lengthAdjust="spacingAndGlyphs" textLength="97" x="883.5" y="511.5352">CCustomPListCtrl</text><line style="stroke: #A80036; stroke-width: 1.5;" x1="855.5" x2="982.5" y1="523" y2="523"/><line style="stroke: #A80036; stroke-width: 1.5;" x1="855.5" x2="982.5" y1="531" y2="531"/><rect fill="#FEFECE" filter="url(#f1)" height="48" style="stroke: #A80036; stroke-width: 1.5;" width="162" x="1059" y="923"/><ellipse cx="1074" cy="939" fill="#ADD1B2" rx="11" ry="11" style="stroke: #A80036; stroke-width: 1.0;"/><path d="M1076.7031,934.9292 Q1076.8691,934.6304 1077.0435,934.5059 Q1077.2178,934.3813 1077.4834,934.3813 Q1077.8901,934.3813 1078.0603,934.5972 Q1078.2305,934.813 1078.2305,935.3359 L1078.2471,937.4941 Q1078.2471,938.0669 1078.0603,938.2661 Q1077.8735,938.4653 1077.3838,938.4653 Q1077.0352,938.4653 1076.8484,938.2993 Q1076.6616,938.1333 1076.5288,937.6851 Q1076.313,936.8965 1075.8398,936.552 Q1075.3667,936.2075 1074.5283,936.2075 Q1073.25,936.2075 1072.5693,937.0708 Q1071.8887,937.9341 1071.8887,939.5693 Q1071.8887,941.1963 1072.5776,942.0679 Q1073.2666,942.9395 1074.5449,942.9395 Q1075.4165,942.9395 1076.4666,942.3584 Q1077.5166,941.7773 1077.7905,941.7773 Q1078.1143,941.7773 1078.3342,942.0513 Q1078.5542,942.3252 1078.5542,942.7319 Q1078.5542,943.4624 1077.2676,944.1099 Q1075.981,944.7573 1074.3706,944.7573 Q1072.1958,944.7573 1070.8511,943.3213 Q1069.5063,941.8853 1069.5063,939.5693 Q1069.5063,937.3364 1070.8677,935.8589 Q1072.229,934.3813 1074.3208,934.3813 Q1074.9102,934.3813 1075.4829,934.5142 Q1076.0557,934.647 1076.7031,934.9292 Z "/><text fill="#000000" font-family="sans-serif" font-size="12" lengthAdjust="spacingAndGlyphs" textLength="130" x="1088" y="943.5352">CMCPListActiveTalkBar</text><line style="stroke: #A80036; stroke-width: 1.5;" x1="1060" x2="1220" y1="955" y2="955"/><line style="stroke: #A80036; stroke-width: 1.5;" x1="1060" x2="1220" y1="963" y2="963"/><rect fill="#FEFECE" filter="url(#f1)" height="48" style="stroke: #A80036; stroke-width: 1.5;" width="148" x="1249" y="1031"/><ellipse cx="1264" cy="1047" fill="#ADD1B2" rx="11" ry="11" style="stroke: #A80036; stroke-width: 1.0;"/><path d="M1266.7031,1042.9292 Q1266.8691,1042.6304 1267.0435,1042.5059 Q1267.2178,1042.3813 1267.4834,1042.3813 Q1267.8901,1042.3813 1268.0603,1042.5972 Q1268.2305,1042.813 1268.2305,1043.3359 L1268.2471,1045.4941 Q1268.2471,1046.0669 1268.0603,1046.2661 Q1267.8735,1046.4653 1267.3838,1046.4653 Q1267.0352,1046.4653 1266.8484,1046.2993 Q1266.6616,1046.1333 1266.5288,1045.6851 Q1266.313,1044.8965 1265.8398,1044.552 Q1265.3667,1044.2075 1264.5283,1044.2075 Q1263.25,1044.2075 1262.5693,1045.0708 Q1261.8887,1045.9341 1261.8887,1047.5693 Q1261.8887,1049.1963 1262.5776,1050.0679 Q1263.2666,1050.9395 1264.5449,1050.9395 Q1265.4165,1050.9395 1266.4666,1050.3584 Q1267.5166,1049.7773 1267.7905,1049.7773 Q1268.1143,1049.7773 1268.3342,1050.0513 Q1268.5542,1050.3252 1268.5542,1050.7319 Q1268.5542,1051.4624 1267.2676,1052.1099 Q1265.981,1052.7573 1264.3706,1052.7573 Q1262.1958,1052.7573 1260.8511,1051.3213 Q1259.5063,1049.8853 1259.5063,1047.5693 Q1259.5063,1045.3364 1260.8677,1043.8589 Q1262.229,1042.3813 1264.3208,1042.3813 Q1264.9102,1042.3813 1265.4829,1042.5142 Q1266.0557,1042.647 1266.7031,1042.9292 Z "/><text fill="#000000" font-family="sans-serif" font-size="12" lengthAdjust="spacingAndGlyphs" textLength="116" x="1278" y="1051.5352">CMCPListVideoPanel</text><line style="stroke: #A80036; stroke-width: 1.5;" x1="1250" x2="1396" y1="1063" y2="1063"/><line style="stroke: #A80036; stroke-width: 1.5;" x1="1250" x2="1396" y1="1071" y2="1071"/><rect fill="#FEFECE" filter="url(#f1)" height="48" style="stroke: #A80036; stroke-width: 1.5;" width="120" x="1095" y="1139"/><ellipse cx="1110" cy="1155" fill="#ADD1B2" rx="11" ry="11" style="stroke: #A80036; stroke-width: 1.0;"/><path d="M1112.7031,1150.9292 Q1112.8691,1150.6304 1113.0435,1150.5059 Q1113.2178,1150.3813 1113.4834,1150.3813 Q1113.8901,1150.3813 1114.0603,1150.5972 Q1114.2305,1150.813 1114.2305,1151.3359 L1114.2471,1153.4941 Q1114.2471,1154.0669 1114.0603,1154.2661 Q1113.8735,1154.4653 1113.3838,1154.4653 Q1113.0352,1154.4653 1112.8484,1154.2993 Q1112.6616,1154.1333 1112.5288,1153.6851 Q1112.313,1152.8965 1111.8398,1152.552 Q1111.3667,1152.2075 1110.5283,1152.2075 Q1109.25,1152.2075 1108.5693,1153.0708 Q1107.8887,1153.9341 1107.8887,1155.5693 Q1107.8887,1157.1963 1108.5776,1158.0679 Q1109.2666,1158.9395 1110.5449,1158.9395 Q1111.4165,1158.9395 1112.4666,1158.3584 Q1113.5166,1157.7773 1113.7905,1157.7773 Q1114.1143,1157.7773 1114.3342,1158.0513 Q1114.5542,1158.3252 1114.5542,1158.7319 Q1114.5542,1159.4624 1113.2676,1160.1099 Q1111.981,1160.7573 1110.3706,1160.7573 Q1108.1958,1160.7573 1106.8511,1159.3213 Q1105.5063,1157.8853 1105.5063,1155.5693 Q1105.5063,1153.3364 1106.8677,1151.8589 Q1108.229,1150.3813 1110.3208,1150.3813 Q1110.9102,1150.3813 1111.4829,1150.5142 Q1112.0557,1150.647 1112.7031,1150.9292 Z "/><text fill="#000000" font-family="sans-serif" font-size="12" lengthAdjust="spacingAndGlyphs" textLength="88" x="1124" y="1159.5352">CMCPlistSelfBar</text><line style="stroke: #A80036; stroke-width: 1.5;" x1="1096" x2="1214" y1="1171" y2="1171"/><line style="stroke: #A80036; stroke-width: 1.5;" x1="1096" x2="1214" y1="1179" y2="1179"/><rect fill="#FEFECE" filter="url(#f1)" height="48" style="stroke: #A80036; stroke-width: 1.5;" width="174" x="1256" y="923"/><ellipse cx="1271" cy="939" fill="#ADD1B2" rx="11" ry="11" style="stroke: #A80036; stroke-width: 1.0;"/><path d="M1273.7031,934.9292 Q1273.8691,934.6304 1274.0435,934.5059 Q1274.2178,934.3813 1274.4834,934.3813 Q1274.8901,934.3813 1275.0603,934.5972 Q1275.2305,934.813 1275.2305,935.3359 L1275.2471,937.4941 Q1275.2471,938.0669 1275.0603,938.2661 Q1274.8735,938.4653 1274.3838,938.4653 Q1274.0352,938.4653 1273.8484,938.2993 Q1273.6616,938.1333 1273.5288,937.6851 Q1273.313,936.8965 1272.8398,936.552 Q1272.3667,936.2075 1271.5283,936.2075 Q1270.25,936.2075 1269.5693,937.0708 Q1268.8887,937.9341 1268.8887,939.5693 Q1268.8887,941.1963 1269.5776,942.0679 Q1270.2666,942.9395 1271.5449,942.9395 Q1272.4165,942.9395 1273.4666,942.3584 Q1274.5166,941.7773 1274.7905,941.7773 Q1275.1143,941.7773 1275.3342,942.0513 Q1275.5542,942.3252 1275.5542,942.7319 Q1275.5542,943.4624 1274.2676,944.1099 Q1272.981,944.7573 1271.3706,944.7573 Q1269.1958,944.7573 1267.8511,943.3213 Q1266.5063,941.8853 1266.5063,939.5693 Q1266.5063,937.3364 1267.8677,935.8589 Q1269.229,934.3813 1271.3208,934.3813 Q1271.9102,934.3813 1272.4829,934.5142 Q1273.0557,934.647 1273.7031,934.9292 Z "/><text fill="#000000" font-family="sans-serif" font-size="12" lengthAdjust="spacingAndGlyphs" textLength="142" x="1285" y="943.5352">CMCPListThumbNailView</text><line style="stroke: #A80036; stroke-width: 1.5;" x1="1257" x2="1429" y1="955" y2="955"/><line style="stroke: #A80036; stroke-width: 1.5;" x1="1257" x2="1429" y1="963" y2="963"/><rect fill="#FEFECE" filter="url(#f1)" height="48" style="stroke: #A80036; stroke-width: 1.5;" width="101" x="695.5" y="815"/><ellipse cx="710.5" cy="831" fill="#A9DCDF" rx="11" ry="11" style="stroke: #A80036; stroke-width: 1.0;"/><path d="M714.7803,833.4321 L714.9214,833.4321 Q715.3696,833.4321 715.6021,833.6604 Q715.8345,833.8887 715.8345,834.3286 Q715.8345,834.8184 715.5896,835.0342 Q715.3447,835.25 714.7803,835.25 L712.2817,835.25 Q711.709,835.25 711.4683,835.0383 Q711.2275,834.8267 711.2275,834.3286 Q711.2275,833.8472 711.4683,833.6396 Q711.709,833.4321 712.2817,833.4321 L712.5723,833.4321 L712.2319,832.4609 L708.646,832.4609 L708.2891,833.4321 L708.5796,833.4321 Q709.144,833.4321 709.3889,833.6438 Q709.6338,833.8555 709.6338,834.3286 Q709.6338,834.8184 709.3889,835.0342 Q709.144,835.25 708.5796,835.25 L706.438,835.25 Q705.8652,835.25 705.6245,835.0342 Q705.3838,834.8184 705.3838,834.3286 Q705.3838,833.8887 705.6162,833.6604 Q705.8486,833.4321 706.2969,833.4321 L706.438,833.4321 L708.6626,827.2397 L707.9985,827.2397 Q707.4341,827.2397 707.1892,827.0239 Q706.9443,826.8081 706.9443,826.3267 Q706.9443,825.8369 707.1892,825.6211 Q707.4341,825.4053 707.9985,825.4053 L711.1113,825.4053 Q711.8501,825.4053 712.1489,826.2021 L712.1489,826.2271 Z M710.4307,827.2397 L709.2271,830.7427 L711.6343,830.7427 Z "/><text fill="#000000" font-family="sans-serif" font-size="12" font-style="italic" lengthAdjust="spacingAndGlyphs" textLength="69" x="724.5" y="835.5352">IVideoUIMgr</text><line style="stroke: #A80036; stroke-width: 1.5;" x1="696.5" x2="795.5" y1="847" y2="847"/><line style="stroke: #A80036; stroke-width: 1.5;" x1="696.5" x2="795.5" y1="855" y2="855"/><rect fill="#FEFECE" filter="url(#f1)" height="48" style="stroke: #A80036; stroke-width: 1.5;" width="124" x="684" y="923"/><ellipse cx="699" cy="939" fill="#A9DCDF" rx="11" ry="11" style="stroke: #A80036; stroke-width: 1.0;"/><path d="M703.2803,941.4321 L703.4214,941.4321 Q703.8696,941.4321 704.1021,941.6604 Q704.3345,941.8887 704.3345,942.3286 Q704.3345,942.8184 704.0896,943.0342 Q703.8447,943.25 703.2803,943.25 L700.7817,943.25 Q700.209,943.25 699.9683,943.0383 Q699.7275,942.8267 699.7275,942.3286 Q699.7275,941.8472 699.9683,941.6396 Q700.209,941.4321 700.7817,941.4321 L701.0723,941.4321 L700.7319,940.4609 L697.146,940.4609 L696.7891,941.4321 L697.0796,941.4321 Q697.644,941.4321 697.8889,941.6438 Q698.1338,941.8555 698.1338,942.3286 Q698.1338,942.8184 697.8889,943.0342 Q697.644,943.25 697.0796,943.25 L694.938,943.25 Q694.3652,943.25 694.1245,943.0342 Q693.8838,942.8184 693.8838,942.3286 Q693.8838,941.8887 694.1162,941.6604 Q694.3486,941.4321 694.7969,941.4321 L694.938,941.4321 L697.1626,935.2397 L696.4985,935.2397 Q695.9341,935.2397 695.6892,935.0239 Q695.4443,934.8081 695.4443,934.3267 Q695.4443,933.8369 695.6892,933.6211 Q695.9341,933.4053 696.4985,933.4053 L699.6113,933.4053 Q700.3501,933.4053 700.6489,934.2021 L700.6489,934.2271 Z M698.9307,935.2397 L697.7271,938.7427 L700.1343,938.7427 Z "/><text fill="#000000" font-family="sans-serif" font-size="12" font-style="italic" lengthAdjust="spacingAndGlyphs" textLength="92" x="713" y="943.5352">IVideoUIMgrSink</text><line style="stroke: #A80036; stroke-width: 1.5;" x1="685" x2="807" y1="955" y2="955"/><line style="stroke: #A80036; stroke-width: 1.5;" x1="685" x2="807" y1="963" y2="963"/><rect fill="#FEFECE" filter="url(#f1)" height="48" style="stroke: #A80036; stroke-width: 1.5;" width="81" x="589.5" y="707"/><ellipse cx="604.5" cy="723" fill="#ADD1B2" rx="11" ry="11" style="stroke: #A80036; stroke-width: 1.0;"/><path d="M607.2031,718.9292 Q607.3691,718.6304 607.5435,718.5059 Q607.7178,718.3813 607.9834,718.3813 Q608.3901,718.3813 608.5603,718.5972 Q608.7305,718.813 608.7305,719.3359 L608.7471,721.4941 Q608.7471,722.0669 608.5603,722.2661 Q608.3735,722.4653 607.8838,722.4653 Q607.5352,722.4653 607.3484,722.2993 Q607.1616,722.1333 607.0288,721.6851 Q606.813,720.8965 606.3398,720.552 Q605.8667,720.2075 605.0283,720.2075 Q603.75,720.2075 603.0693,721.0708 Q602.3887,721.9341 602.3887,723.5693 Q602.3887,725.1963 603.0776,726.0679 Q603.7666,726.9395 605.0449,726.9395 Q605.9165,726.9395 606.9666,726.3584 Q608.0166,725.7773 608.2905,725.7773 Q608.6143,725.7773 608.8342,726.0513 Q609.0542,726.3252 609.0542,726.7319 Q609.0542,727.4624 607.7676,728.1099 Q606.481,728.7573 604.8706,728.7573 Q602.6958,728.7573 601.3511,727.3213 Q600.0063,725.8853 600.0063,723.5693 Q600.0063,721.3364 601.3677,719.8589 Q602.729,718.3813 604.8208,718.3813 Q605.4102,718.3813 605.9829,718.5142 Q606.5557,718.647 607.2031,718.9292 Z "/><text fill="#000000" font-family="sans-serif" font-size="12" lengthAdjust="spacingAndGlyphs" textLength="49" x="618.5" y="727.5352">CVUIMgr</text><line style="stroke: #A80036; stroke-width: 1.5;" x1="590.5" x2="669.5" y1="739" y2="739"/><line style="stroke: #A80036; stroke-width: 1.5;" x1="590.5" x2="669.5" y1="747" y2="747"/><rect fill="#FEFECE" filter="url(#f1)" height="48" style="stroke: #A80036; stroke-width: 1.5;" width="226" x="68" y="599"/><ellipse cx="83" cy="615" fill="#ADD1B2" rx="11" ry="11" style="stroke: #A80036; stroke-width: 1.0;"/><path d="M85.7031,610.9292 Q85.8691,610.6304 86.0435,610.5059 Q86.2178,610.3813 86.4834,610.3813 Q86.8901,610.3813 87.0603,610.5972 Q87.2305,610.813 87.2305,611.3359 L87.2471,613.4941 Q87.2471,614.0669 87.0603,614.2661 Q86.8735,614.4653 86.3838,614.4653 Q86.0352,614.4653 85.8484,614.2993 Q85.6616,614.1333 85.5288,613.6851 Q85.313,612.8965 84.8398,612.552 Q84.3667,612.2075 83.5283,612.2075 Q82.25,612.2075 81.5693,613.0708 Q80.8887,613.9341 80.8887,615.5693 Q80.8887,617.1963 81.5776,618.0679 Q82.2666,618.9395 83.5449,618.9395 Q84.4165,618.9395 85.4666,618.3584 Q86.5166,617.7773 86.7905,617.7773 Q87.1143,617.7773 87.3342,618.0513 Q87.5542,618.3252 87.5542,618.7319 Q87.5542,619.4624 86.2676,620.1099 Q84.981,620.7573 83.3706,620.7573 Q81.1958,620.7573 79.8511,619.3213 Q78.5063,617.8853 78.5063,615.5693 Q78.5063,613.3364 79.8677,611.8589 Q81.229,610.3813 83.3208,610.3813 Q83.9102,610.3813 84.4829,610.5142 Q85.0557,610.647 85.7031,610.9292 Z "/><text fill="#000000" font-family="sans-serif" font-size="12" lengthAdjust="spacingAndGlyphs" textLength="194" x="97" y="619.5352">CVUIPanelListActiveMainVideoPort</text><line style="stroke: #A80036; stroke-width: 1.5;" x1="69" x2="293" y1="631" y2="631"/><line style="stroke: #A80036; stroke-width: 1.5;" x1="69" x2="293" y1="639" y2="639"/><rect fill="#FEFECE" filter="url(#f1)" height="48" style="stroke: #A80036; stroke-width: 1.5;" width="147" x="266.5" y="491"/><ellipse cx="281.5" cy="507" fill="#ADD1B2" rx="11" ry="11" style="stroke: #A80036; stroke-width: 1.0;"/><path d="M284.2031,502.9292 Q284.3691,502.6304 284.5435,502.5059 Q284.7178,502.3813 284.9834,502.3813 Q285.3901,502.3813 285.5603,502.5972 Q285.7305,502.813 285.7305,503.3359 L285.7471,505.4941 Q285.7471,506.0669 285.5603,506.2661 Q285.3735,506.4653 284.8838,506.4653 Q284.5352,506.4653 284.3484,506.2993 Q284.1616,506.1333 284.0288,505.6851 Q283.813,504.8965 283.3398,504.552 Q282.8667,504.2075 282.0283,504.2075 Q280.75,504.2075 280.0693,505.0708 Q279.3887,505.9341 279.3887,507.5693 Q279.3887,509.1963 280.0776,510.0679 Q280.7666,510.9395 282.0449,510.9395 Q282.9165,510.9395 283.9666,510.3584 Q285.0166,509.7773 285.2905,509.7773 Q285.6143,509.7773 285.8342,510.0513 Q286.0542,510.3252 286.0542,510.7319 Q286.0542,511.4624 284.7676,512.1099 Q283.481,512.7573 281.8706,512.7573 Q279.6958,512.7573 278.3511,511.3213 Q277.0063,509.8853 277.0063,507.5693 Q277.0063,505.3364 278.3677,503.8589 Q279.729,502.3813 281.8208,502.3813 Q282.4102,502.3813 282.9829,502.5142 Q283.5557,502.647 284.2031,502.9292 Z "/><text fill="#000000" font-family="sans-serif" font-size="12" lengthAdjust="spacingAndGlyphs" textLength="115" x="295.5" y="511.5352">CVUIFullScreenPanel</text><line style="stroke: #A80036; stroke-width: 1.5;" x1="267.5" x2="412.5" y1="523" y2="523"/><line style="stroke: #A80036; stroke-width: 1.5;" x1="267.5" x2="412.5" y1="531" y2="531"/><rect fill="#FEFECE" filter="url(#f1)" height="48" style="stroke: #A80036; stroke-width: 1.5;" width="175" x="503.5" y="599"/><ellipse cx="518.5" cy="615" fill="#ADD1B2" rx="11" ry="11" style="stroke: #A80036; stroke-width: 1.0;"/><path d="M521.2031,610.9292 Q521.3691,610.6304 521.5435,610.5059 Q521.7178,610.3813 521.9834,610.3813 Q522.3901,610.3813 522.5603,610.5972 Q522.7305,610.813 522.7305,611.3359 L522.7471,613.4941 Q522.7471,614.0669 522.5603,614.2661 Q522.3735,614.4653 521.8838,614.4653 Q521.5352,614.4653 521.3484,614.2993 Q521.1616,614.1333 521.0288,613.6851 Q520.813,612.8965 520.3398,612.552 Q519.8667,612.2075 519.0283,612.2075 Q517.75,612.2075 517.0693,613.0708 Q516.3887,613.9341 516.3887,615.5693 Q516.3887,617.1963 517.0776,618.0679 Q517.7666,618.9395 519.0449,618.9395 Q519.9165,618.9395 520.9666,618.3584 Q522.0166,617.7773 522.2905,617.7773 Q522.6143,617.7773 522.8342,618.0513 Q523.0542,618.3252 523.0542,618.7319 Q523.0542,619.4624 521.7676,620.1099 Q520.481,620.7573 518.8706,620.7573 Q516.6958,620.7573 515.3511,619.3213 Q514.0063,617.8853 514.0063,615.5693 Q514.0063,613.3364 515.3677,611.8589 Q516.729,610.3813 518.8208,610.3813 Q519.4102,610.3813 519.9829,610.5142 Q520.5557,610.647 521.2031,610.9292 Z "/><text fill="#000000" font-family="sans-serif" font-size="12" lengthAdjust="spacingAndGlyphs" textLength="143" x="532.5" y="619.5352">CVUIThumbnailContainer</text><line style="stroke: #A80036; stroke-width: 1.5;" x1="504.5" x2="677.5" y1="631" y2="631"/><line style="stroke: #A80036; stroke-width: 1.5;" x1="504.5" x2="677.5" y1="639" y2="639"/><rect fill="#FEFECE" filter="url(#f1)" height="48" style="stroke: #A80036; stroke-width: 1.5;" width="129" x="678.5" y="491"/><ellipse cx="693.5" cy="507" fill="#ADD1B2" rx="11" ry="11" style="stroke: #A80036; stroke-width: 1.0;"/><path d="M696.2031,502.9292 Q696.3691,502.6304 696.5435,502.5059 Q696.7178,502.3813 696.9834,502.3813 Q697.3901,502.3813 697.5603,502.5972 Q697.7305,502.813 697.7305,503.3359 L697.7471,505.4941 Q697.7471,506.0669 697.5603,506.2661 Q697.3735,506.4653 696.8838,506.4653 Q696.5352,506.4653 696.3484,506.2993 Q696.1616,506.1333 696.0288,505.6851 Q695.813,504.8965 695.3398,504.552 Q694.8667,504.2075 694.0283,504.2075 Q692.75,504.2075 692.0693,505.0708 Q691.3887,505.9341 691.3887,507.5693 Q691.3887,509.1963 692.0776,510.0679 Q692.7666,510.9395 694.0449,510.9395 Q694.9165,510.9395 695.9666,510.3584 Q697.0166,509.7773 697.2905,509.7773 Q697.6143,509.7773 697.8342,510.0513 Q698.0542,510.3252 698.0542,510.7319 Q698.0542,511.4624 696.7676,512.1099 Q695.481,512.7573 693.8706,512.7573 Q691.6958,512.7573 690.3511,511.3213 Q689.0063,509.8853 689.0063,507.5693 Q689.0063,505.3364 690.3677,503.8589 Q691.729,502.3813 693.8208,502.3813 Q694.4102,502.3813 694.9829,502.5142 Q695.5557,502.647 696.2031,502.9292 Z "/><text fill="#000000" font-family="sans-serif" font-size="12" lengthAdjust="spacingAndGlyphs" textLength="97" x="707.5" y="511.5352">CVUIWidgetPanel</text><line style="stroke: #A80036; stroke-width: 1.5;" x1="679.5" x2="806.5" y1="523" y2="523"/><line style="stroke: #A80036; stroke-width: 1.5;" x1="679.5" x2="806.5" y1="531" y2="531"/><rect fill="#FEFECE" filter="url(#f1)" height="48" style="stroke: #A80036; stroke-width: 1.5;" width="221" x="184.5" y="383"/><ellipse cx="199.5" cy="399" fill="#ADD1B2" rx="11" ry="11" style="stroke: #A80036; stroke-width: 1.0;"/><path d="M202.2031,394.9292 Q202.3691,394.6304 202.5435,394.5059 Q202.7178,394.3813 202.9834,394.3813 Q203.3901,394.3813 203.5603,394.5972 Q203.7305,394.813 203.7305,395.3359 L203.7471,397.4941 Q203.7471,398.0669 203.5603,398.2661 Q203.3735,398.4653 202.8838,398.4653 Q202.5352,398.4653 202.3484,398.2993 Q202.1616,398.1333 202.0288,397.6851 Q201.813,396.8965 201.3398,396.552 Q200.8667,396.2075 200.0283,396.2075 Q198.75,396.2075 198.0693,397.0708 Q197.3887,397.9341 197.3887,399.5693 Q197.3887,401.1963 198.0776,402.0679 Q198.7666,402.9395 200.0449,402.9395 Q200.9165,402.9395 201.9666,402.3584 Q203.0166,401.7773 203.2905,401.7773 Q203.6143,401.7773 203.8342,402.0513 Q204.0542,402.3252 204.0542,402.7319 Q204.0542,403.4624 202.7676,404.1099 Q201.481,404.7573 199.8706,404.7573 Q197.6958,404.7573 196.3511,403.3213 Q195.0063,401.8853 195.0063,399.5693 Q195.0063,397.3364 196.3677,395.8589 Q197.729,394.3813 199.8208,394.3813 Q200.4102,394.3813 200.9829,394.5142 Q201.5557,394.647 202.2031,394.9292 Z "/><text fill="#000000" font-family="sans-serif" font-size="12" lengthAdjust="spacingAndGlyphs" textLength="189" x="213.5" y="403.5352">CVUITheatreActiveMainVideoPort</text><line style="stroke: #A80036; stroke-width: 1.5;" x1="185.5" x2="404.5" y1="415" y2="415"/><line style="stroke: #A80036; stroke-width: 1.5;" x1="185.5" x2="404.5" y1="423" y2="423"/><rect fill="#FEFECE" filter="url(#f1)" height="48" style="stroke: #A80036; stroke-width: 1.5;" width="176" x="22" y="275"/><ellipse cx="37" cy="291" fill="#ADD1B2" rx="11" ry="11" style="stroke: #A80036; stroke-width: 1.0;"/><path d="M39.7031,286.9292 Q39.8691,286.6304 40.0435,286.5059 Q40.2178,286.3813 40.4834,286.3813 Q40.8901,286.3813 41.0603,286.5972 Q41.2305,286.813 41.2305,287.3359 L41.2471,289.4941 Q41.2471,290.0669 41.0603,290.2661 Q40.8735,290.4653 40.3838,290.4653 Q40.0352,290.4653 39.8484,290.2993 Q39.6616,290.1333 39.5288,289.6851 Q39.313,288.8965 38.8398,288.552 Q38.3667,288.2075 37.5283,288.2075 Q36.25,288.2075 35.5693,289.0708 Q34.8887,289.9341 34.8887,291.5693 Q34.8887,293.1963 35.5776,294.0679 Q36.2666,294.9395 37.5449,294.9395 Q38.4165,294.9395 39.4666,294.3584 Q40.5166,293.7773 40.7905,293.7773 Q41.1143,293.7773 41.3342,294.0513 Q41.5542,294.3252 41.5542,294.7319 Q41.5542,295.4624 40.2676,296.1099 Q38.981,296.7573 37.3706,296.7573 Q35.1958,296.7573 33.8511,295.3213 Q32.5063,293.8853 32.5063,291.5693 Q32.5063,289.3364 33.8677,287.8589 Q35.229,286.3813 37.3208,286.3813 Q37.9102,286.3813 38.4829,286.5142 Q39.0557,286.647 39.7031,286.9292 Z "/><text fill="#000000" font-family="sans-serif" font-size="12" lengthAdjust="spacingAndGlyphs" textLength="144" x="51" y="295.5352">CVUIActiveMainVideoPort</text><line style="stroke: #A80036; stroke-width: 1.5;" x1="23" x2="197" y1="307" y2="307"/><line style="stroke: #A80036; stroke-width: 1.5;" x1="23" x2="197" y1="315" y2="315"/><rect fill="#FEFECE" filter="url(#f1)" height="48" style="stroke: #A80036; stroke-width: 1.5;" width="196" x="233" y="275"/><ellipse cx="248" cy="291" fill="#ADD1B2" rx="11" ry="11" style="stroke: #A80036; stroke-width: 1.0;"/><path d="M250.7031,286.9292 Q250.8691,286.6304 251.0435,286.5059 Q251.2178,286.3813 251.4834,286.3813 Q251.8901,286.3813 252.0603,286.5972 Q252.2305,286.813 252.2305,287.3359 L252.2471,289.4941 Q252.2471,290.0669 252.0603,290.2661 Q251.8735,290.4653 251.3838,290.4653 Q251.0352,290.4653 250.8484,290.2993 Q250.6616,290.1333 250.5288,289.6851 Q250.313,288.8965 249.8398,288.552 Q249.3667,288.2075 248.5283,288.2075 Q247.25,288.2075 246.5693,289.0708 Q245.8887,289.9341 245.8887,291.5693 Q245.8887,293.1963 246.5776,294.0679 Q247.2666,294.9395 248.5449,294.9395 Q249.4165,294.9395 250.4666,294.3584 Q251.5166,293.7773 251.7905,293.7773 Q252.1143,293.7773 252.3342,294.0513 Q252.5542,294.3252 252.5542,294.7319 Q252.5542,295.4624 251.2676,296.1099 Q249.981,296.7573 248.3706,296.7573 Q246.1958,296.7573 244.8511,295.3213 Q243.5063,293.8853 243.5063,291.5693 Q243.5063,289.3364 244.8677,287.8589 Q246.229,286.3813 248.3208,286.3813 Q248.9102,286.3813 249.4829,286.5142 Q250.0557,286.647 250.7031,286.9292 Z "/><text fill="#000000" font-family="sans-serif" font-size="12" lengthAdjust="spacingAndGlyphs" textLength="164" x="262" y="295.5352">CVUIActiveMainSelfVideoPort</text><line style="stroke: #A80036; stroke-width: 1.5;" x1="234" x2="428" y1="307" y2="307"/><line style="stroke: #A80036; stroke-width: 1.5;" x1="234" x2="428" y1="315" y2="315"/><rect fill="#FEFECE" filter="url(#f1)" height="48" style="stroke: #A80036; stroke-width: 1.5;" width="142" x="370" y="167"/><ellipse cx="385" cy="183" fill="#ADD1B2" rx="11" ry="11" style="stroke: #A80036; stroke-width: 1.0;"/><path d="M387.7031,178.9292 Q387.8691,178.6304 388.0435,178.5059 Q388.2178,178.3813 388.4834,178.3813 Q388.8901,178.3813 389.0603,178.5972 Q389.2305,178.813 389.2305,179.3359 L389.2471,181.4941 Q389.2471,182.0669 389.0603,182.2661 Q388.8735,182.4653 388.3838,182.4653 Q388.0352,182.4653 387.8484,182.2993 Q387.6616,182.1333 387.5288,181.6851 Q387.313,180.8965 386.8398,180.552 Q386.3667,180.2075 385.5283,180.2075 Q384.25,180.2075 383.5693,181.0708 Q382.8887,181.9341 382.8887,183.5693 Q382.8887,185.1963 383.5776,186.0679 Q384.2666,186.9395 385.5449,186.9395 Q386.4165,186.9395 387.4666,186.3584 Q388.5166,185.7773 388.7905,185.7773 Q389.1143,185.7773 389.3342,186.0513 Q389.5542,186.3252 389.5542,186.7319 Q389.5542,187.4624 388.2676,188.1099 Q386.981,188.7573 385.3706,188.7573 Q383.1958,188.7573 381.8511,187.3213 Q380.5063,185.8853 380.5063,183.5693 Q380.5063,181.3364 381.8677,179.8589 Q383.229,178.3813 385.3208,178.3813 Q385.9102,178.3813 386.4829,178.5142 Q387.0557,178.647 387.7031,178.9292 Z "/><text fill="#000000" font-family="sans-serif" font-size="12" lengthAdjust="spacingAndGlyphs" textLength="110" x="399" y="187.5352">CVUIVideoPortView</text><line style="stroke: #A80036; stroke-width: 1.5;" x1="371" x2="511" y1="199" y2="199"/><line style="stroke: #A80036; stroke-width: 1.5;" x1="371" x2="511" y1="207" y2="207"/><rect fill="#FEFECE" filter="url(#f1)" height="48" style="stroke: #A80036; stroke-width: 1.5;" width="115" x="383.5" y="59"/><ellipse cx="398.5" cy="75" fill="#ADD1B2" rx="11" ry="11" style="stroke: #A80036; stroke-width: 1.0;"/><path d="M401.2031,70.9292 Q401.3691,70.6304 401.5435,70.5059 Q401.7178,70.3813 401.9834,70.3813 Q402.3901,70.3813 402.5603,70.5972 Q402.7305,70.813 402.7305,71.3359 L402.7471,73.4941 Q402.7471,74.0669 402.5603,74.2661 Q402.3735,74.4653 401.8838,74.4653 Q401.5352,74.4653 401.3484,74.2993 Q401.1616,74.1333 401.0288,73.6851 Q400.813,72.8965 400.3398,72.552 Q399.8667,72.2075 399.0283,72.2075 Q397.75,72.2075 397.0693,73.0708 Q396.3887,73.9341 396.3887,75.5693 Q396.3887,77.1963 397.0776,78.0679 Q397.7666,78.9395 399.0449,78.9395 Q399.9165,78.9395 400.9666,78.3584 Q402.0166,77.7773 402.2905,77.7773 Q402.6143,77.7773 402.8342,78.0513 Q403.0542,78.3252 403.0542,78.7319 Q403.0542,79.4624 401.7676,80.1099 Q400.481,80.7573 398.8706,80.7573 Q396.6958,80.7573 395.3511,79.3213 Q394.0063,77.8853 394.0063,75.5693 Q394.0063,73.3364 395.3677,71.8589 Q396.729,70.3813 398.8208,70.3813 Q399.4102,70.3813 399.9829,70.5142 Q400.5557,70.647 401.2031,70.9292 Z "/><text fill="#000000" font-family="sans-serif" font-size="12" lengthAdjust="spacingAndGlyphs" textLength="83" x="412.5" y="79.5352">CVUIVideoPort</text><line style="stroke: #A80036; stroke-width: 1.5;" x1="384.5" x2="497.5" y1="91" y2="91"/><line style="stroke: #A80036; stroke-width: 1.5;" x1="384.5" x2="497.5" y1="99" y2="99"/><rect fill="#FEFECE" filter="url(#f1)" height="48" style="stroke: #A80036; stroke-width: 1.5;" width="147" x="493.5" y="491"/><ellipse cx="508.5" cy="507" fill="#ADD1B2" rx="11" ry="11" style="stroke: #A80036; stroke-width: 1.0;"/><path d="M511.2031,502.9292 Q511.3691,502.6304 511.5435,502.5059 Q511.7178,502.3813 511.9834,502.3813 Q512.3901,502.3813 512.5603,502.5972 Q512.7305,502.813 512.7305,503.3359 L512.7471,505.4941 Q512.7471,506.0669 512.5603,506.2661 Q512.3735,506.4653 511.8838,506.4653 Q511.5352,506.4653 511.3484,506.2993 Q511.1616,506.1333 511.0288,505.6851 Q510.813,504.8965 510.3398,504.552 Q509.8667,504.2075 509.0283,504.2075 Q507.75,504.2075 507.0693,505.0708 Q506.3887,505.9341 506.3887,507.5693 Q506.3887,509.1963 507.0776,510.0679 Q507.7666,510.9395 509.0449,510.9395 Q509.9165,510.9395 510.9666,510.3584 Q512.0166,509.7773 512.2905,509.7773 Q512.6143,509.7773 512.8342,510.0513 Q513.0542,510.3252 513.0542,510.7319 Q513.0542,511.4624 511.7676,512.1099 Q510.481,512.7573 508.8706,512.7573 Q506.6958,512.7573 505.3511,511.3213 Q504.0063,509.8853 504.0063,507.5693 Q504.0063,505.3364 505.3677,503.8589 Q506.729,502.3813 508.8208,502.3813 Q509.4102,502.3813 509.9829,502.5142 Q510.5557,502.647 511.2031,502.9292 Z "/><text fill="#000000" font-family="sans-serif" font-size="12" lengthAdjust="spacingAndGlyphs" textLength="115" x="522.5" y="511.5352">CVUIThumbnailView</text><line style="stroke: #A80036; stroke-width: 1.5;" x1="494.5" x2="639.5" y1="523" y2="523"/><line style="stroke: #A80036; stroke-width: 1.5;" x1="494.5" x2="639.5" y1="531" y2="531"/><rect fill="#FEFECE" filter="url(#f1)" height="48" style="stroke: #A80036; stroke-width: 1.5;" width="198" x="466" y="383"/><ellipse cx="481" cy="399" fill="#ADD1B2" rx="11" ry="11" style="stroke: #A80036; stroke-width: 1.0;"/><path d="M483.7031,394.9292 Q483.8691,394.6304 484.0435,394.5059 Q484.2178,394.3813 484.4834,394.3813 Q484.8901,394.3813 485.0603,394.5972 Q485.2305,394.813 485.2305,395.3359 L485.2471,397.4941 Q485.2471,398.0669 485.0603,398.2661 Q484.8735,398.4653 484.3838,398.4653 Q484.0352,398.4653 483.8484,398.2993 Q483.6616,398.1333 483.5288,397.6851 Q483.313,396.8965 482.8398,396.552 Q482.3667,396.2075 481.5283,396.2075 Q480.25,396.2075 479.5693,397.0708 Q478.8887,397.9341 478.8887,399.5693 Q478.8887,401.1963 479.5776,402.0679 Q480.2666,402.9395 481.5449,402.9395 Q482.4165,402.9395 483.4666,402.3584 Q484.5166,401.7773 484.7905,401.7773 Q485.1143,401.7773 485.3342,402.0513 Q485.5542,402.3252 485.5542,402.7319 Q485.5542,403.4624 484.2676,404.1099 Q482.981,404.7573 481.3706,404.7573 Q479.1958,404.7573 477.8511,403.3213 Q476.5063,401.8853 476.5063,399.5693 Q476.5063,397.3364 477.8677,395.8589 Q479.229,394.3813 481.3208,394.3813 Q481.9102,394.3813 482.4829,394.5142 Q483.0557,394.647 483.7031,394.9292 Z "/><text fill="#000000" font-family="sans-serif" font-size="12" lengthAdjust="spacingAndGlyphs" textLength="166" x="495" y="403.5352">CVUIThumbnailVideoPortMgr</text><line style="stroke: #A80036; stroke-width: 1.5;" x1="467" x2="663" y1="415" y2="415"/><line style="stroke: #A80036; stroke-width: 1.5;" x1="467" x2="663" y1="423" y2="423"/><rect fill="#FEFECE" filter="url(#f1)" height="48" style="stroke: #A80036; stroke-width: 1.5;" width="176" x="464" y="275"/><ellipse cx="479" cy="291" fill="#ADD1B2" rx="11" ry="11" style="stroke: #A80036; stroke-width: 1.0;"/><path d="M481.7031,286.9292 Q481.8691,286.6304 482.0435,286.5059 Q482.2178,286.3813 482.4834,286.3813 Q482.8901,286.3813 483.0603,286.5972 Q483.2305,286.813 483.2305,287.3359 L483.2471,289.4941 Q483.2471,290.0669 483.0603,290.2661 Q482.8735,290.4653 482.3838,290.4653 Q482.0352,290.4653 481.8484,290.2993 Q481.6616,290.1333 481.5288,289.6851 Q481.313,288.8965 480.8398,288.552 Q480.3667,288.2075 479.5283,288.2075 Q478.25,288.2075 477.5693,289.0708 Q476.8887,289.9341 476.8887,291.5693 Q476.8887,293.1963 477.5776,294.0679 Q478.2666,294.9395 479.5449,294.9395 Q480.4165,294.9395 481.4666,294.3584 Q482.5166,293.7773 482.7905,293.7773 Q483.1143,293.7773 483.3342,294.0513 Q483.5542,294.3252 483.5542,294.7319 Q483.5542,295.4624 482.2676,296.1099 Q480.981,296.7573 479.3706,296.7573 Q477.1958,296.7573 475.8511,295.3213 Q474.5063,293.8853 474.5063,291.5693 Q474.5063,289.3364 475.8677,287.8589 Q477.229,286.3813 479.3208,286.3813 Q479.9102,286.3813 480.4829,286.5142 Q481.0557,286.647 481.7031,286.9292 Z "/><text fill="#000000" font-family="sans-serif" font-size="12" lengthAdjust="spacingAndGlyphs" textLength="144" x="493" y="295.5352">CVUIThumbnailVideoPort</text><line style="stroke: #A80036; stroke-width: 1.5;" x1="465" x2="639" y1="307" y2="307"/><line style="stroke: #A80036; stroke-width: 1.5;" x1="465" x2="639" y1="315" y2="315"/><rect fill="#FEFECE" filter="url(#f1)" height="48" style="stroke: #A80036; stroke-width: 1.5;" width="154" x="675" y="275"/><ellipse cx="690" cy="291" fill="#ADD1B2" rx="11" ry="11" style="stroke: #A80036; stroke-width: 1.0;"/><path d="M692.7031,286.9292 Q692.8691,286.6304 693.0435,286.5059 Q693.2178,286.3813 693.4834,286.3813 Q693.8901,286.3813 694.0603,286.5972 Q694.2305,286.813 694.2305,287.3359 L694.2471,289.4941 Q694.2471,290.0669 694.0603,290.2661 Q693.8735,290.4653 693.3838,290.4653 Q693.0352,290.4653 692.8484,290.2993 Q692.6616,290.1333 692.5288,289.6851 Q692.313,288.8965 691.8398,288.552 Q691.3667,288.2075 690.5283,288.2075 Q689.25,288.2075 688.5693,289.0708 Q687.8887,289.9341 687.8887,291.5693 Q687.8887,293.1963 688.5776,294.0679 Q689.2666,294.9395 690.5449,294.9395 Q691.4165,294.9395 692.4666,294.3584 Q693.5166,293.7773 693.7905,293.7773 Q694.1143,293.7773 694.3342,294.0513 Q694.5542,294.3252 694.5542,294.7319 Q694.5542,295.4624 693.2676,296.1099 Q691.981,296.7573 690.3706,296.7573 Q688.1958,296.7573 686.8511,295.3213 Q685.5063,293.8853 685.5063,291.5693 Q685.5063,289.3364 686.8677,287.8589 Q688.229,286.3813 690.3208,286.3813 Q690.9102,286.3813 691.4829,286.5142 Q692.0557,286.647 692.7031,286.9292 Z "/><text fill="#000000" font-family="sans-serif" font-size="12" lengthAdjust="spacingAndGlyphs" textLength="122" x="704" y="295.5352">CVUIWidgetVideoPort</text><line style="stroke: #A80036; stroke-width: 1.5;" x1="676" x2="828" y1="307" y2="307"/><line style="stroke: #A80036; stroke-width: 1.5;" x1="676" x2="828" y1="315" y2="315"/><path d="M1063.74,775.291 C1065.49,788.817 1067.36,803.184 1068.87,814.844 " fill="none" style="stroke: #A80036; stroke-width: 1.0;"/><polygon fill="none" points="1056.77,775.971,1061.14,755.237,1070.65,774.171,1056.77,775.971" style="stroke: #A80036; stroke-width: 1.0;"/><path d="M1062.34,863.023 C1055.84,879.694 1047.32,902.502 1041,923 C1031.21,954.716 1022.23,991.381 1016.11,1018.008 " fill="none" style="stroke: #A80036; stroke-width: 1.0;"/><polygon fill="#A80036" points="1013.19,1030.938,1018.4148,1025.968,1015.8367,1019.2335,1010.6118,1024.2035,1013.19,1030.938" style="stroke: #A80036; stroke-width: 1.0;"/><path d="M952.574,986.977 C964.577,1001.708 977.798,1017.934 988.317,1030.844 " fill="none" style="stroke: #A80036; stroke-width: 1.0;"/><polygon fill="none" points="946.956,991.164,939.749,971.237,957.809,982.32,946.956,991.164" style="stroke: #A80036; stroke-width: 1.0;"/><path d="M919.224,863.237 C919.351,876.855 919.511,894.146 919.653,909.477 " fill="none" style="stroke: #A80036; stroke-width: 1.0;"/><polygon fill="#A80036" points="919.776,922.844,923.7204,916.8073,919.6652,910.8445,915.7208,916.8812,919.776,922.844" style="stroke: #A80036; stroke-width: 1.0;"/><path d="M919,755.237 C919,768.855 919,786.146 919,801.477 " fill="none" style="stroke: #A80036; stroke-width: 1.0;"/><polygon fill="#A80036" points="919,814.844,923,808.844,919,802.844,915,808.844,919,814.844" style="stroke: #A80036; stroke-width: 1.0;"/><path d="M950.09,814.844 C971.618,798.117 1000.314,775.821 1022.7,758.426 " fill="none" style="stroke: #A80036; stroke-width: 1.0;"/><polygon fill="#A80036" points="1026.81,755.237,1017.2502,757.6055,1022.8634,758.3069,1022.162,763.9201,1026.81,755.237" style="stroke: #A80036; stroke-width: 1.0;"/><path d="M984.36,731 C991.713,731 999.065,731 1006.42,731 " fill="none" style="stroke: #A80036; stroke-width: 1.0;"/><polygon fill="none" points="971.125,731,977.125,735,983.125,731,977.125,727,971.125,731" style="stroke: #A80036; stroke-width: 1.0;"/><path d="M919,667.291 C919,680.817 919,695.184 919,706.844 " fill="none" style="stroke: #A80036; stroke-width: 1.0;"/><polygon fill="none" points="912,667.237,919,647.237,926,667.237,912,667.237" style="stroke: #A80036; stroke-width: 1.0;"/><path d="M919,539.237 C919,552.855 919,570.146 919,585.477 " fill="none" style="stroke: #A80036; stroke-width: 1.0;"/><polygon fill="#A80036" points="919,598.844,923,592.844,919,586.844,915,592.844,919,598.844" style="stroke: #A80036; stroke-width: 1.0;"/><path d="M1074.32,1055 C1081.65,1055 1088.99,1055 1096.32,1055 " fill="none" style="stroke: #A80036; stroke-width: 1.0;"/><polygon fill="#A80036" points="1061.12,1055,1067.12,1059,1073.12,1055,1067.12,1051,1061.12,1055" style="stroke: #A80036; stroke-width: 1.0;"/><path d="M1143.37,971.237 C1145.28,984.994 1147.71,1002.499 1149.85,1017.945 " fill="none" style="stroke: #A80036; stroke-width: 1.0;"/><polygon fill="#A80036" points="1151.64,1030.844,1154.7761,1024.3506,1149.9884,1018.9582,1146.8523,1025.4516,1151.64,1030.844" style="stroke: #A80036; stroke-width: 1.0;"/><path d="M1226.86,1055 C1234.15,1055 1241.44,1055 1248.73,1055 " fill="none" style="stroke: #A80036; stroke-width: 1.0;"/><polygon fill="#A80036" points="1213.73,1055,1219.73,1059,1225.73,1055,1219.73,1051,1213.73,1055" style="stroke: #A80036; stroke-width: 1.0;"/><path d="M1155,1092.614 C1155,1107.9531 1155,1125.2402 1155,1138.8436 " fill="none" style="stroke: #A80036; stroke-width: 1.0;"/><polygon fill="#A80036" points="1155,1079.237,1151,1085.237,1155,1091.237,1159,1085.237,1155,1079.237" style="stroke: #A80036; stroke-width: 1.0;"/><path d="M1300.81,971.237 C1273.48,986.94 1237.64,1007.525 1208.34,1024.358 " fill="none" style="stroke: #A80036; stroke-width: 1.0;"/><polygon fill="#A80036" points="1197.05,1030.844,1204.245,1031.3254,1207.4567,1024.869,1200.2617,1024.3876,1197.05,1030.844" style="stroke: #A80036; stroke-width: 1.0;"/><path d="M441,127.29 C441,140.82 441,155.18 441,166.84 " fill="none" style="stroke: #A80036; stroke-width: 1.0;"/><polygon fill="none" points="434,127.24,441,107.24,448,127.24,434,127.24" style="stroke: #A80036; stroke-width: 1.0;"/><path d="M480.627,229.556 C496.148,244.657 513.477,261.518 527.173,274.844 " fill="none" style="stroke: #A80036; stroke-width: 1.0;"/><polygon fill="none" points="475.364,234.202,465.911,215.237,485.127,224.167,475.364,234.202" style="stroke: #A80036; stroke-width: 1.0;"/><path d="M529.489,221.729 C578.132,238.621 637.592,259.27 682.805,274.971 " fill="none" style="stroke: #A80036; stroke-width: 1.0;"/><polygon fill="none" points="527.004,228.277,510.407,215.103,531.597,215.051,527.004,228.277" style="stroke: #A80036; stroke-width: 1.0;"/><path d="M350.938,220.386 C298.476,237.503 233.148,258.819 183.757,274.934 " fill="none" style="stroke: #A80036; stroke-width: 1.0;"/><polygon fill="none" points="348.807,213.718,369.992,214.169,353.15,227.027,348.807,213.718" style="stroke: #A80036; stroke-width: 1.0;"/><path d="M401.73,229.556 C386.349,244.657 369.176,261.518 355.604,274.844 " fill="none" style="stroke: #A80036; stroke-width: 1.0;"/><polygon fill="none" points="397.138,224.254,416.314,215.237,406.947,234.244,397.138,224.254" style="stroke: #A80036; stroke-width: 1.0;"/><path d="M119.591,342.768 C134.755,411.967 163.767,544.36 175.687,598.753 " fill="none" style="stroke: #A80036; stroke-width: 1.0;"/><polygon fill="none" points="112.722,344.123,115.279,323.088,126.397,341.126,112.722,344.123" style="stroke: #A80036; stroke-width: 1.0;"/><path d="M168.857,333.36 C196.444,349.465 228.654,368.269 253.621,382.844 " fill="none" style="stroke: #A80036; stroke-width: 1.0;"/><polygon fill="none" points="165.261,339.366,151.518,323.237,172.319,327.275,165.261,339.366" style="stroke: #A80036; stroke-width: 1.0;"/><path d="M211.103,299 C218.351,299 225.6,299 232.849,299 " fill="none" style="stroke: #A80036; stroke-width: 1.0;"/><polygon fill="#A80036" points="198.055,299,204.055,303,210.055,299,204.055,295,198.055,299" style="stroke: #A80036; stroke-width: 1.0;"/><path d="M554.917,323.237 C556.557,336.855 558.638,354.146 560.483,369.477 " fill="none" style="stroke: #A80036; stroke-width: 1.0;"/><polygon fill="#A80036" points="562.092,382.844,565.346,376.4088,560.6573,370.9301,557.4033,377.3653,562.092,382.844" style="stroke: #A80036; stroke-width: 1.0;"/><path d="M750.985,323.358 C749.418,360.972 746.397,433.463 744.554,477.707 " fill="none" style="stroke: #A80036; stroke-width: 1.0;"/><polygon fill="#A80036" points="744.011,490.731,748.2574,484.9028,744.5107,478.7414,740.2643,484.5696,744.011,490.731" style="stroke: #A80036; stroke-width: 1.0;"/><path d="M305.099,431.237 C310.889,445.133 318.272,462.853 324.755,478.413 " fill="none" style="stroke: #A80036; stroke-width: 1.0;"/><polygon fill="#A80036" points="329.935,490.844,331.3196,483.7671,325.3196,479.7671,323.935,486.844,329.935,490.844" style="stroke: #A80036; stroke-width: 1.0;"/><path d="M565.449,431.237 C565.701,444.855 566.021,462.146 566.305,477.477 " fill="none" style="stroke: #A80036; stroke-width: 1.0;"/><polygon fill="#A80036" points="566.553,490.844,570.4415,484.7712,566.3315,478.846,562.4429,484.9189,566.553,490.844" style="stroke: #A80036; stroke-width: 1.0;"/><path d="M572.386,539.237 C575.443,552.994 579.333,570.499 582.766,585.945 " fill="none" style="stroke: #A80036; stroke-width: 1.0;"/><polygon fill="#A80036" points="585.632,598.844,588.2352,592.1192,583.0288,587.1298,580.4257,593.8546,585.632,598.844" style="stroke: #A80036; stroke-width: 1.0;"/><path d="M280.926,647.036 C372.273,669.008 503.883,700.664 576.614,718.159 " fill="none" style="stroke: #A80036; stroke-width: 1.0;"/><polygon fill="#A80036" points="589.487,721.255,584.5887,715.9629,577.8197,718.4489,582.718,723.7411,589.487,721.255" style="stroke: #A80036; stroke-width: 1.0;"/><path d="M363.47,539.054 C391.269,566.85 439.667,613.106 486,647 C515.024,668.232 549.796,688.642 577.899,704.026 " fill="none" style="stroke: #A80036; stroke-width: 1.0;"/><polygon fill="#A80036" points="589.499,710.299,586.124,703.9264,578.9436,704.5908,582.3186,710.9634,589.499,710.299" style="stroke: #A80036; stroke-width: 1.0;"/><path d="M599.752,647.237 C604.77,661.133 611.169,678.853 616.788,694.413 " fill="none" style="stroke: #A80036; stroke-width: 1.0;"/><polygon fill="#A80036" points="621.277,706.844,623.0012,699.8421,617.201,695.5575,615.4768,702.5594,621.277,706.844" style="stroke: #A80036; stroke-width: 1.0;"/><path d="M736.889,539.362 C729.474,566.635 715.502,611.64 696,647 C686.342,664.511 673.111,682.174 661.03,696.753 " fill="none" style="stroke: #A80036; stroke-width: 1.0;"/><polygon fill="#A80036" points="652.504,706.778,659.4383,704.7992,660.2787,697.6372,653.3444,699.616,652.504,706.778" style="stroke: #A80036; stroke-width: 1.0;"/><path d="M656.033,755.237 C670.51,768.716 688.852,785.793 705.192,801.007 " fill="none" style="stroke: #A80036; stroke-width: 1.0;"/><polygon fill="none" points="710.186,796.092,720.054,814.844,700.646,806.338,710.186,796.092" style="stroke: #A80036; stroke-width: 1.0;"/><path d="M639.826,767.907 C647.932,795.197 660.877,832.72 678,863 C690.376,884.885 708.427,906.874 722.821,922.862 " fill="none" style="stroke: #A80036; stroke-width: 1.0;"/><polygon fill="none" points="636.239,755.408,634.0498,762.2788,639.5501,766.9421,641.7393,760.0714,636.239,755.408" style="stroke: #A80036; stroke-width: 1.0;"/><path d="M746,863.237 C746,879.357 746,900.621 746,917.691 " fill="none" style="stroke: #A80036; stroke-width: 1.0;"/><polygon fill="#A80036" points="746,922.844,750,913.844,746,917.844,742,913.844,746,922.844" style="stroke: #A80036; stroke-width: 1.0;"/><path d="M785.049,863.237 C810.123,878.801 842.926,899.161 869.912,915.911 " fill="none" style="stroke: #A80036; stroke-width: 1.0;"/><polygon fill="#A80036" points="881.081,922.844,878.0931,916.281,870.8858,916.5149,873.8737,923.0778,881.081,922.844" style="stroke: #A80036; stroke-width: 1.0;"/><path d="M853.177,929.968 C844.859,929.17 836.542,928.865 828.224,929.054 " fill="none" style="stroke: #A80036; stroke-width: 1.0;"/><polygon fill="none" points="828.633,936.043,808.191,930.464,827.651,922.077,828.633,936.043" style="stroke: #A80036; stroke-width: 1.0;"/></g></svg>