<?xml version="1.0" encoding="UTF-8" standalone="yes"?><svg xmlns="http://www.w3.org/2000/svg" xmlns:xlink="http://www.w3.org/1999/xlink" height="2043pt" style="width:3231px;height:2043px;" version="1.1" viewBox="0 0 3231 2043" width="3231pt"><defs><filter height="300%" id="f1" width="300%" x="-1" y="-1"><feGaussianBlur result="blurOut" stdDeviation="2.0"/><feColorMatrix in="blurOut" result="blurOut2" type="matrix" values="0 0 0 0 0 0 0 0 0 0 0 0 0 0 0 0 0 0 .4 0"/><feOffset dx="4.0" dy="4.0" in="blurOut2" result="blurOut3"/><feBlend in="SourceGraphic" in2="blurOut3" mode="normal"/></filter></defs><g><rect fill="#DDDDDD" height="2038.0117" style="stroke: #A80036; stroke-width: 1.0;" width="895.5" x="51" y="4"/><text fill="#000000" font-family="sans-serif" font-size="13" font-weight="bold" lengthAdjust="spacingAndGlyphs" textLength="72" x="462.75" y="16.5684">WebExMgr</text><rect fill="#DDDDDD" height="2038.0117" style="stroke: #A80036; stroke-width: 1.0;" width="661" x="948.5" y="4"/><text fill="#000000" font-family="sans-serif" font-size="13" font-weight="bold" lengthAdjust="spacingAndGlyphs" textLength="75" x="1241.5" y="16.5684">ServiceMgr</text><rect fill="#DDDDDD" height="2038.0117" style="stroke: #A80036; stroke-width: 1.0;" width="330.5" x="1611.5" y="4"/><text fill="#000000" font-family="sans-serif" font-size="13" font-weight="bold" lengthAdjust="spacingAndGlyphs" textLength="67" x="1743.25" y="16.5684">AtConfLib</text><rect fill="#DDDDDD" height="2038.0117" style="stroke: #A80036; stroke-width: 1.0;" width="136" x="1944" y="4"/><text fill="#000000" font-family="sans-serif" font-size="13" font-weight="bold" lengthAdjust="spacingAndGlyphs" textLength="56" x="1984" y="16.5684">UIFrame</text><rect fill="#DDDDDD" height="2038.0117" style="stroke: #A80036; stroke-width: 1.0;" width="158" x="2082" y="4"/><text fill="#000000" font-family="sans-serif" font-size="13" font-weight="bold" lengthAdjust="spacingAndGlyphs" textLength="20" x="2151" y="16.5684">cm</text><rect fill="#DDDDDD" height="2038.0117" style="stroke: #A80036; stroke-width: 1.0;" width="397" x="2265" y="4"/><text fill="#000000" font-family="sans-serif" font-size="13" font-weight="bold" lengthAdjust="spacingAndGlyphs" textLength="129" x="2399" y="16.5684">UnifiedAppSharing</text><rect fill="#DDDDDD" height="2038.0117" style="stroke: #A80036; stroke-width: 1.0;" width="199" x="2664" y="4"/><text fill="#000000" font-family="sans-serif" font-size="13" font-weight="bold" lengthAdjust="spacingAndGlyphs" textLength="50" x="2738.5" y="16.5684">atasctrl</text><rect fill="#DDDDDD" height="2038.0117" style="stroke: #A80036; stroke-width: 1.0;" width="360" x="2865" y="4"/><text fill="#000000" font-family="sans-serif" font-size="13" font-weight="bold" lengthAdjust="spacingAndGlyphs" textLength="31" x="3029.5" y="16.5684">ARM</text><line style="stroke: #A80036; stroke-width: 1.0;" x1="26" x2="26" y1="86.4883" y2="633.7676"/><line style="stroke: #A80036; stroke-width: 1.0; stroke-dasharray: 1.0,4.0;" x1="26" x2="26" y1="633.7676" y2="674.7227"/><line style="stroke: #A80036; stroke-width: 1.0;" x1="26" x2="26" y1="674.7227" y2="1955.5234"/><line style="stroke: #A80036; stroke-width: 1.0;" x1="148" x2="148" y1="86.4883" y2="633.7676"/><line style="stroke: #A80036; stroke-width: 1.0; stroke-dasharray: 1.0,4.0;" x1="148" x2="148" y1="633.7676" y2="674.7227"/><line style="stroke: #A80036; stroke-width: 1.0;" x1="148" x2="148" y1="674.7227" y2="1955.5234"/><line style="stroke: #A80036; stroke-width: 1.0;" x1="352" x2="352" y1="86.4883" y2="633.7676"/><line style="stroke: #A80036; stroke-width: 1.0; stroke-dasharray: 1.0,4.0;" x1="352" x2="352" y1="633.7676" y2="674.7227"/><line style="stroke: #A80036; stroke-width: 1.0;" x1="352" x2="352" y1="674.7227" y2="1955.5234"/><line style="stroke: #A80036; stroke-width: 1.0;" x1="524" x2="524" y1="86.4883" y2="633.7676"/><line style="stroke: #A80036; stroke-width: 1.0; stroke-dasharray: 1.0,4.0;" x1="524" x2="524" y1="633.7676" y2="674.7227"/><line style="stroke: #A80036; stroke-width: 1.0;" x1="524" x2="524" y1="674.7227" y2="1955.5234"/><line style="stroke: #A80036; stroke-width: 1.0;" x1="669" x2="669" y1="86.4883" y2="633.7676"/><line style="stroke: #A80036; stroke-width: 1.0; stroke-dasharray: 1.0,4.0;" x1="669" x2="669" y1="633.7676" y2="674.7227"/><line style="stroke: #A80036; stroke-width: 1.0;" x1="669" x2="669" y1="674.7227" y2="1955.5234"/><line style="stroke: #A80036; stroke-width: 1.0;" x1="844.5" x2="844.5" y1="86.4883" y2="633.7676"/><line style="stroke: #A80036; stroke-width: 1.0; stroke-dasharray: 1.0,4.0;" x1="844.5" x2="844.5" y1="633.7676" y2="674.7227"/><line style="stroke: #A80036; stroke-width: 1.0;" x1="844.5" x2="844.5" y1="674.7227" y2="1955.5234"/><line style="stroke: #A80036; stroke-width: 1.0;" x1="1008.5" x2="1008.5" y1="86.4883" y2="633.7676"/><line style="stroke: #A80036; stroke-width: 1.0; stroke-dasharray: 1.0,4.0;" x1="1008.5" x2="1008.5" y1="633.7676" y2="674.7227"/><line style="stroke: #A80036; stroke-width: 1.0;" x1="1008.5" x2="1008.5" y1="674.7227" y2="1955.5234"/><line style="stroke: #A80036; stroke-width: 1.0;" x1="1172.5" x2="1172.5" y1="86.4883" y2="633.7676"/><line style="stroke: #A80036; stroke-width: 1.0; stroke-dasharray: 1.0,4.0;" x1="1172.5" x2="1172.5" y1="633.7676" y2="674.7227"/><line style="stroke: #A80036; stroke-width: 1.0;" x1="1172.5" x2="1172.5" y1="674.7227" y2="1955.5234"/><line style="stroke: #A80036; stroke-width: 1.0;" x1="1345.5" x2="1345.5" y1="86.4883" y2="633.7676"/><line style="stroke: #A80036; stroke-width: 1.0; stroke-dasharray: 1.0,4.0;" x1="1345.5" x2="1345.5" y1="633.7676" y2="674.7227"/><line style="stroke: #A80036; stroke-width: 1.0;" x1="1345.5" x2="1345.5" y1="674.7227" y2="1955.5234"/><line style="stroke: #A80036; stroke-width: 1.0;" x1="1512.5" x2="1512.5" y1="86.4883" y2="633.7676"/><line style="stroke: #A80036; stroke-width: 1.0; stroke-dasharray: 1.0,4.0;" x1="1512.5" x2="1512.5" y1="633.7676" y2="674.7227"/><line style="stroke: #A80036; stroke-width: 1.0;" x1="1512.5" x2="1512.5" y1="674.7227" y2="1955.5234"/><line style="stroke: #A80036; stroke-width: 1.0;" x1="1683.5" x2="1683.5" y1="86.4883" y2="633.7676"/><line style="stroke: #A80036; stroke-width: 1.0; stroke-dasharray: 1.0,4.0;" x1="1683.5" x2="1683.5" y1="633.7676" y2="674.7227"/><line style="stroke: #A80036; stroke-width: 1.0;" x1="1683.5" x2="1683.5" y1="674.7227" y2="1955.5234"/><line style="stroke: #A80036; stroke-width: 1.0;" x1="1879" x2="1879" y1="86.4883" y2="633.7676"/><line style="stroke: #A80036; stroke-width: 1.0; stroke-dasharray: 1.0,4.0;" x1="1879" x2="1879" y1="633.7676" y2="674.7227"/><line style="stroke: #A80036; stroke-width: 1.0;" x1="1879" x2="1879" y1="674.7227" y2="1955.5234"/><line style="stroke: #A80036; stroke-width: 1.0;" x1="2012" x2="2012" y1="86.4883" y2="633.7676"/><line style="stroke: #A80036; stroke-width: 1.0; stroke-dasharray: 1.0,4.0;" x1="2012" x2="2012" y1="633.7676" y2="674.7227"/><line style="stroke: #A80036; stroke-width: 1.0;" x1="2012" x2="2012" y1="674.7227" y2="1955.5234"/><line style="stroke: #A80036; stroke-width: 1.0;" x1="2161" x2="2161" y1="86.4883" y2="633.7676"/><line style="stroke: #A80036; stroke-width: 1.0; stroke-dasharray: 1.0,4.0;" x1="2161" x2="2161" y1="633.7676" y2="674.7227"/><line style="stroke: #A80036; stroke-width: 1.0;" x1="2161" x2="2161" y1="674.7227" y2="1955.5234"/><line style="stroke: #A80036; stroke-width: 1.0;" x1="2345" x2="2345" y1="86.4883" y2="633.7676"/><line style="stroke: #A80036; stroke-width: 1.0; stroke-dasharray: 1.0,4.0;" x1="2345" x2="2345" y1="633.7676" y2="674.7227"/><line style="stroke: #A80036; stroke-width: 1.0;" x1="2345" x2="2345" y1="674.7227" y2="1955.5234"/><line style="stroke: #A80036; stroke-width: 1.0;" x1="2492" x2="2492" y1="86.4883" y2="633.7676"/><line style="stroke: #A80036; stroke-width: 1.0; stroke-dasharray: 1.0,4.0;" x1="2492" x2="2492" y1="633.7676" y2="674.7227"/><line style="stroke: #A80036; stroke-width: 1.0;" x1="2492" x2="2492" y1="674.7227" y2="1955.5234"/><line style="stroke: #A80036; stroke-width: 1.0;" x1="2611" x2="2611" y1="86.4883" y2="633.7676"/><line style="stroke: #A80036; stroke-width: 1.0; stroke-dasharray: 1.0,4.0;" x1="2611" x2="2611" y1="633.7676" y2="674.7227"/><line style="stroke: #A80036; stroke-width: 1.0;" x1="2611" x2="2611" y1="674.7227" y2="1955.5234"/><line style="stroke: #A80036; stroke-width: 1.0;" x1="2697" x2="2697" y1="86.4883" y2="633.7676"/><line style="stroke: #A80036; stroke-width: 1.0; stroke-dasharray: 1.0,4.0;" x1="2697" x2="2697" y1="633.7676" y2="674.7227"/><line style="stroke: #A80036; stroke-width: 1.0;" x1="2697" x2="2697" y1="674.7227" y2="1955.5234"/><line style="stroke: #A80036; stroke-width: 1.0;" x1="2797" x2="2797" y1="86.4883" y2="633.7676"/><line style="stroke: #A80036; stroke-width: 1.0; stroke-dasharray: 1.0,4.0;" x1="2797" x2="2797" y1="633.7676" y2="674.7227"/><line style="stroke: #A80036; stroke-width: 1.0;" x1="2797" x2="2797" y1="674.7227" y2="1955.5234"/><line style="stroke: #A80036; stroke-width: 1.0;" x1="2921" x2="2921" y1="86.4883" y2="633.7676"/><line style="stroke: #A80036; stroke-width: 1.0; stroke-dasharray: 1.0,4.0;" x1="2921" x2="2921" y1="633.7676" y2="674.7227"/><line style="stroke: #A80036; stroke-width: 1.0;" x1="2921" x2="2921" y1="674.7227" y2="1955.5234"/><line style="stroke: #A80036; stroke-width: 1.0;" x1="3102" x2="3102" y1="86.4883" y2="633.7676"/><line style="stroke: #A80036; stroke-width: 1.0; stroke-dasharray: 1.0,4.0;" x1="3102" x2="3102" y1="633.7676" y2="674.7227"/><line style="stroke: #A80036; stroke-width: 1.0;" x1="3102" x2="3102" y1="674.7227" y2="1955.5234"/><text fill="#000000" font-family="sans-serif" font-size="14" lengthAdjust="spacingAndGlyphs" textLength="31" x="8" y="83.5352">User</text><ellipse cx="26.5" cy="13" fill="#FEFECE" filter="url(#f1)" rx="8" ry="8" style="stroke: #A80036; stroke-width: 2.0;"/><path d="M26.5,21 L26.5,48 M13.5,29 L39.5,29 M26.5,48 L13.5,63 M26.5,48 L39.5,63 " fill="#FEFECE" filter="url(#f1)" style="stroke: #A80036; stroke-width: 2.0;"/><text fill="#000000" font-family="sans-serif" font-size="14" lengthAdjust="spacingAndGlyphs" textLength="31" x="8" y="1968.0586">User</text><ellipse cx="26.5" cy="1981.0117" fill="#FEFECE" filter="url(#f1)" rx="8" ry="8" style="stroke: #A80036; stroke-width: 2.0;"/><path d="M26.5,1989.0117 L26.5,2016.0117 M13.5,1997.0117 L39.5,1997.0117 M26.5,2016.0117 L13.5,2031.0117 M26.5,2016.0117 L39.5,2031.0117 " fill="#FEFECE" filter="url(#f1)" style="stroke: #A80036; stroke-width: 2.0;"/><rect fill="#FEFECE" filter="url(#f1)" height="30.4883" style="stroke: #A80036; stroke-width: 1.5;" width="183" x="55" y="51"/><text fill="#000000" font-family="sans-serif" font-size="14" lengthAdjust="spacingAndGlyphs" textLength="169" x="62" y="71.5352">CQuickStartDlgPresenter</text><rect fill="#FEFECE" filter="url(#f1)" height="30.4883" style="stroke: #A80036; stroke-width: 1.5;" width="183" x="55" y="1954.5234"/><text fill="#000000" font-family="sans-serif" font-size="14" lengthAdjust="spacingAndGlyphs" textLength="169" x="62" y="1975.0586">CQuickStartDlgPresenter</text><rect fill="#FEFECE" filter="url(#f1)" height="30.4883" style="stroke: #A80036; stroke-width: 1.5;" width="196" x="252" y="51"/><text fill="#000000" font-family="sans-serif" font-size="14" lengthAdjust="spacingAndGlyphs" textLength="182" x="259" y="71.5352">CMCQuickStartSessionMgr</text><rect fill="#FEFECE" filter="url(#f1)" height="30.4883" style="stroke: #A80036; stroke-width: 1.5;" width="196" x="252" y="1954.5234"/><text fill="#000000" font-family="sans-serif" font-size="14" lengthAdjust="spacingAndGlyphs" textLength="182" x="259" y="1975.0586">CMCQuickStartSessionMgr</text><rect fill="#FEFECE" filter="url(#f1)" height="30.4883" style="stroke: #A80036; stroke-width: 1.5;" width="121" x="462" y="51"/><text fill="#000000" font-family="sans-serif" font-size="14" lengthAdjust="spacingAndGlyphs" textLength="107" x="469" y="71.5352">CMCServiceMgr</text><rect fill="#FEFECE" filter="url(#f1)" height="30.4883" style="stroke: #A80036; stroke-width: 1.5;" width="121" x="462" y="1954.5234"/><text fill="#000000" font-family="sans-serif" font-size="14" lengthAdjust="spacingAndGlyphs" textLength="107" x="469" y="1975.0586">CMCServiceMgr</text><rect fill="#FEFECE" filter="url(#f1)" height="30.4883" style="stroke: #A80036; stroke-width: 1.5;" width="87" x="624" y="51"/><text fill="#000000" font-family="sans-serif" font-size="14" lengthAdjust="spacingAndGlyphs" textLength="73" x="631" y="71.5352">CMCUIMgr</text><rect fill="#FEFECE" filter="url(#f1)" height="30.4883" style="stroke: #A80036; stroke-width: 1.5;" width="87" x="624" y="1954.5234"/><text fill="#000000" font-family="sans-serif" font-size="14" lengthAdjust="spacingAndGlyphs" textLength="73" x="631" y="1975.0586">CMCUIMgr</text><rect fill="#FEFECE" filter="url(#f1)" height="30.4883" style="stroke: #A80036; stroke-width: 1.5;" width="192" x="746.5" y="51"/><text fill="#000000" font-family="sans-serif" font-size="14" lengthAdjust="spacingAndGlyphs" textLength="178" x="753.5" y="71.5352">CMCAppShareSessionMgr</text><rect fill="#FEFECE" filter="url(#f1)" height="30.4883" style="stroke: #A80036; stroke-width: 1.5;" width="192" x="746.5" y="1954.5234"/><text fill="#000000" font-family="sans-serif" font-size="14" lengthAdjust="spacingAndGlyphs" textLength="178" x="753.5" y="1975.0586">CMCAppShareSessionMgr</text><rect fill="#FEFECE" filter="url(#f1)" height="30.4883" style="stroke: #A80036; stroke-width: 1.5;" width="109" x="952.5" y="51"/><text fill="#000000" font-family="sans-serif" font-size="14" lengthAdjust="spacingAndGlyphs" textLength="95" x="959.5" y="71.5352">CSmDefUIMgr</text><rect fill="#FEFECE" filter="url(#f1)" height="30.4883" style="stroke: #A80036; stroke-width: 1.5;" width="109" x="952.5" y="1954.5234"/><text fill="#000000" font-family="sans-serif" font-size="14" lengthAdjust="spacingAndGlyphs" textLength="95" x="959.5" y="1975.0586">CSmDefUIMgr</text><rect fill="#FEFECE" filter="url(#f1)" height="30.4883" style="stroke: #A80036; stroke-width: 1.5;" width="191" x="1075.5" y="51"/><text fill="#000000" font-family="sans-serif" font-size="14" lengthAdjust="spacingAndGlyphs" textLength="177" x="1082.5" y="71.5352">CSmAppShareSessionMgr</text><rect fill="#FEFECE" filter="url(#f1)" height="30.4883" style="stroke: #A80036; stroke-width: 1.5;" width="191" x="1075.5" y="1954.5234"/><text fill="#000000" font-family="sans-serif" font-size="14" lengthAdjust="spacingAndGlyphs" textLength="177" x="1082.5" y="1975.0586">CSmAppShareSessionMgr</text><rect fill="#FEFECE" filter="url(#f1)" height="30.4883" style="stroke: #A80036; stroke-width: 1.5;" width="123" x="1282.5" y="51"/><text fill="#000000" font-family="sans-serif" font-size="14" lengthAdjust="spacingAndGlyphs" textLength="109" x="1289.5" y="71.5352">CPfwServiceMgr</text><rect fill="#FEFECE" filter="url(#f1)" height="30.4883" style="stroke: #A80036; stroke-width: 1.5;" width="123" x="1282.5" y="1954.5234"/><text fill="#000000" font-family="sans-serif" font-size="14" lengthAdjust="spacingAndGlyphs" textLength="109" x="1289.5" y="1975.0586">CPfwServiceMgr</text><rect fill="#FEFECE" filter="url(#f1)" height="30.4883" style="stroke: #A80036; stroke-width: 1.5;" width="182" x="1419.5" y="51"/><text fill="#000000" font-family="sans-serif" font-size="14" lengthAdjust="spacingAndGlyphs" textLength="168" x="1426.5" y="71.5352">CSmDocViewSessionMgr</text><rect fill="#FEFECE" filter="url(#f1)" height="30.4883" style="stroke: #A80036; stroke-width: 1.5;" width="182" x="1419.5" y="1954.5234"/><text fill="#000000" font-family="sans-serif" font-size="14" lengthAdjust="spacingAndGlyphs" textLength="168" x="1426.5" y="1975.0586">CSmDocViewSessionMgr</text><rect fill="#FEFECE" filter="url(#f1)" height="30.4883" style="stroke: #A80036; stroke-width: 1.5;" width="132" x="1615.5" y="51"/><text fill="#000000" font-family="sans-serif" font-size="14" lengthAdjust="spacingAndGlyphs" textLength="118" x="1622.5" y="71.5352">CAtConfManager</text><rect fill="#FEFECE" filter="url(#f1)" height="30.4883" style="stroke: #A80036; stroke-width: 1.5;" width="132" x="1615.5" y="1954.5234"/><text fill="#000000" font-family="sans-serif" font-size="14" lengthAdjust="spacingAndGlyphs" textLength="118" x="1622.5" y="1975.0586">CAtConfManager</text><rect fill="#FEFECE" filter="url(#f1)" height="30.4883" style="stroke: #A80036; stroke-width: 1.5;" width="113" x="1821" y="51"/><text fill="#000000" font-family="sans-serif" font-size="14" lengthAdjust="spacingAndGlyphs" textLength="99" x="1828" y="71.5352">CAtConfAgent</text><rect fill="#FEFECE" filter="url(#f1)" height="30.4883" style="stroke: #A80036; stroke-width: 1.5;" width="113" x="1821" y="1954.5234"/><text fill="#000000" font-family="sans-serif" font-size="14" lengthAdjust="spacingAndGlyphs" textLength="99" x="1828" y="1975.0586">CAtConfAgent</text><rect fill="#FEFECE" filter="url(#f1)" height="30.4883" style="stroke: #A80036; stroke-width: 1.5;" width="124" x="1948" y="51"/><text fill="#000000" font-family="sans-serif" font-size="14" lengthAdjust="spacingAndGlyphs" textLength="110" x="1955" y="71.5352">CPfwMainFrame</text><rect fill="#FEFECE" filter="url(#f1)" height="30.4883" style="stroke: #A80036; stroke-width: 1.5;" width="124" x="1948" y="1954.5234"/><text fill="#000000" font-family="sans-serif" font-size="14" lengthAdjust="spacingAndGlyphs" textLength="110" x="1955" y="1975.0586">CPfwMainFrame</text><rect fill="#FEFECE" filter="url(#f1)" height="30.4883" style="stroke: #A80036; stroke-width: 1.5;" width="146" x="2086" y="51"/><text fill="#000000" font-family="sans-serif" font-size="14" lengthAdjust="spacingAndGlyphs" textLength="132" x="2093" y="71.5352">CPcmAppShareMgr</text><rect fill="#FEFECE" filter="url(#f1)" height="30.4883" style="stroke: #A80036; stroke-width: 1.5;" width="146" x="2086" y="1954.5234"/><text fill="#000000" font-family="sans-serif" font-size="14" lengthAdjust="spacingAndGlyphs" textLength="132" x="2093" y="1975.0586">CPcmAppShareMgr</text><rect fill="#FEFECE" filter="url(#f1)" height="30.4883" style="stroke: #A80036; stroke-width: 1.5;" width="148" x="2269" y="51"/><text fill="#000000" font-family="sans-serif" font-size="14" lengthAdjust="spacingAndGlyphs" textLength="134" x="2276" y="71.5352">IRunningAppDialog</text><rect fill="#FEFECE" filter="url(#f1)" height="30.4883" style="stroke: #A80036; stroke-width: 1.5;" width="148" x="2269" y="1954.5234"/><text fill="#000000" font-family="sans-serif" font-size="14" lengthAdjust="spacingAndGlyphs" textLength="134" x="2276" y="1975.0586">IRunningAppDialog</text><rect fill="#FEFECE" filter="url(#f1)" height="30.4883" style="stroke: #A80036; stroke-width: 1.5;" width="119" x="2431" y="51"/><text fill="#000000" font-family="sans-serif" font-size="14" lengthAdjust="spacingAndGlyphs" textLength="105" x="2438" y="71.5352">IAppDialogSink</text><rect fill="#FEFECE" filter="url(#f1)" height="30.4883" style="stroke: #A80036; stroke-width: 1.5;" width="119" x="2431" y="1954.5234"/><text fill="#000000" font-family="sans-serif" font-size="14" lengthAdjust="spacingAndGlyphs" textLength="105" x="2438" y="1975.0586">IAppDialogSink</text><rect fill="#FEFECE" filter="url(#f1)" height="30.4883" style="stroke: #A80036; stroke-width: 1.5;" width="90" x="2564" y="51"/><text fill="#000000" font-family="sans-serif" font-size="14" lengthAdjust="spacingAndGlyphs" textLength="76" x="2571" y="71.5352">IAppDialog</text><rect fill="#FEFECE" filter="url(#f1)" height="30.4883" style="stroke: #A80036; stroke-width: 1.5;" width="90" x="2564" y="1954.5234"/><text fill="#000000" font-family="sans-serif" font-size="14" lengthAdjust="spacingAndGlyphs" textLength="76" x="2571" y="1975.0586">IAppDialog</text><rect fill="#FEFECE" filter="url(#f1)" height="30.4883" style="stroke: #A80036; stroke-width: 1.5;" width="54" x="2668" y="51"/><text fill="#000000" font-family="sans-serif" font-size="14" lengthAdjust="spacingAndGlyphs" textLength="40" x="2675" y="71.5352">ASAPI</text><rect fill="#FEFECE" filter="url(#f1)" height="30.4883" style="stroke: #A80036; stroke-width: 1.5;" width="54" x="2668" y="1954.5234"/><text fill="#000000" font-family="sans-serif" font-size="14" lengthAdjust="spacingAndGlyphs" textLength="40" x="2675" y="1975.0586">ASAPI</text><rect fill="#FEFECE" filter="url(#f1)" height="30.4883" style="stroke: #A80036; stroke-width: 1.5;" width="119" x="2736" y="51"/><text fill="#000000" font-family="sans-serif" font-size="14" lengthAdjust="spacingAndGlyphs" textLength="105" x="2743" y="71.5352">ServiceInfoProc</text><rect fill="#FEFECE" filter="url(#f1)" height="30.4883" style="stroke: #A80036; stroke-width: 1.5;" width="119" x="2736" y="1954.5234"/><text fill="#000000" font-family="sans-serif" font-size="14" lengthAdjust="spacingAndGlyphs" textLength="105" x="2743" y="1975.0586">ServiceInfoProc</text><rect fill="#FEFECE" filter="url(#f1)" height="30.4883" style="stroke: #A80036; stroke-width: 1.5;" width="101" x="2869" y="51"/><text fill="#000000" font-family="sans-serif" font-size="14" lengthAdjust="spacingAndGlyphs" textLength="87" x="2876" y="71.5352">GCCProvider</text><rect fill="#FEFECE" filter="url(#f1)" height="30.4883" style="stroke: #A80036; stroke-width: 1.5;" width="101" x="2869" y="1954.5234"/><text fill="#000000" font-family="sans-serif" font-size="14" lengthAdjust="spacingAndGlyphs" textLength="87" x="2876" y="1975.0586">GCCProvider</text><rect fill="#FEFECE" filter="url(#f1)" height="30.4883" style="stroke: #A80036; stroke-width: 1.5;" width="233" x="2984" y="51"/><text fill="#000000" font-family="sans-serif" font-size="14" lengthAdjust="spacingAndGlyphs" textLength="219" x="2991" y="71.5352">GCC_Node_Controller_SAP_Sink</text><rect fill="#FEFECE" filter="url(#f1)" height="30.4883" style="stroke: #A80036; stroke-width: 1.5;" width="233" x="2984" y="1954.5234"/><text fill="#000000" font-family="sans-serif" font-size="14" lengthAdjust="spacingAndGlyphs" textLength="219" x="2991" y="1975.0586">GCC_Node_Controller_SAP_Sink</text><polygon fill="#A80036" points="136.5,113.4883,146.5,117.4883,136.5,121.4883,140.5,117.4883" style="stroke: #A80036; stroke-width: 1.0;"/><line style="stroke: #A80036; stroke-width: 1.0;" x1="26.5" x2="142.5" y1="117.4883" y2="117.4883"/><text fill="#000000" font-family="sans-serif" font-size="13" lengthAdjust="spacingAndGlyphs" textLength="52" x="33.5" y="113.0566">OnShare</text><polygon fill="#A80036" points="340,142.7988,350,146.7988,340,150.7988,344,146.7988" style="stroke: #A80036; stroke-width: 1.0;"/><line style="stroke: #A80036; stroke-width: 1.0;" x1="148.5" x2="346" y1="146.7988" y2="146.7988"/><text fill="#000000" font-family="sans-serif" font-size="13" lengthAdjust="spacingAndGlyphs" textLength="177" x="155.5" y="142.3672">OnQsAction [ style=dotted ]</text><polygon fill="#A80036" points="512.5,172.1094,522.5,176.1094,512.5,180.1094,516.5,176.1094" style="stroke: #A80036; stroke-width: 1.0;"/><line style="stroke: #A80036; stroke-width: 1.0;" x1="352" x2="518.5" y1="176.1094" y2="176.1094"/><text fill="#000000" font-family="sans-serif" font-size="13" lengthAdjust="spacingAndGlyphs" textLength="75" x="359" y="171.6777">m_mcUiMgr</text><polygon fill="#A80036" points="657.5,201.4199,667.5,205.4199,657.5,209.4199,661.5,205.4199" style="stroke: #A80036; stroke-width: 1.0;"/><line style="stroke: #A80036; stroke-width: 1.0;" x1="352" x2="663.5" y1="205.4199" y2="205.4199"/><text fill="#000000" font-family="sans-serif" font-size="13" lengthAdjust="spacingAndGlyphs" textLength="116" x="359" y="200.9883">GetMainFrameWnd</text><polygon fill="#A80036" points="2000,230.7305,2010,234.7305,2000,238.7305,2004,234.7305" style="stroke: #A80036; stroke-width: 1.0;"/><line style="stroke: #A80036; stroke-width: 1.0;" x1="352" x2="2006" y1="234.7305" y2="234.7305"/><text fill="#000000" font-family="sans-serif" font-size="13" lengthAdjust="spacingAndGlyphs" textLength="100" x="359" y="230.2988">OnWindowsMsg</text><polygon fill="#A80036" points="680.5,260.041,670.5,264.041,680.5,268.041,676.5,264.041" style="stroke: #A80036; stroke-width: 1.0;"/><line style="stroke: #A80036; stroke-width: 1.0;" x1="674.5" x2="2011" y1="264.041" y2="264.041"/><text fill="#000000" font-family="sans-serif" font-size="13" lengthAdjust="spacingAndGlyphs" textLength="100" x="686.5" y="259.6094">OnWindowsMsg</text><line style="stroke: #A80036; stroke-width: 1.0;" x1="669.5" x2="711.5" y1="293.6621" y2="293.6621"/><line style="stroke: #A80036; stroke-width: 1.0;" x1="711.5" x2="711.5" y1="293.6621" y2="306.6621"/><line style="stroke: #A80036; stroke-width: 1.0;" x1="670.5" x2="711.5" y1="306.6621" y2="306.6621"/><polygon fill="#A80036" points="680.5,302.6621,670.5,306.6621,680.5,310.6621,676.5,306.6621" style="stroke: #A80036; stroke-width: 1.0;"/><text fill="#000000" font-family="sans-serif" font-size="13" lengthAdjust="spacingAndGlyphs" textLength="124" x="676.5" y="288.9199">OnShareApplication</text><line style="stroke: #A80036; stroke-width: 1.0;" x1="669.5" x2="711.5" y1="335.9727" y2="335.9727"/><line style="stroke: #A80036; stroke-width: 1.0;" x1="711.5" x2="711.5" y1="335.9727" y2="348.9727"/><line style="stroke: #A80036; stroke-width: 1.0;" x1="670.5" x2="711.5" y1="348.9727" y2="348.9727"/><polygon fill="#A80036" points="680.5,344.9727,670.5,348.9727,680.5,352.9727,676.5,348.9727" style="stroke: #A80036; stroke-width: 1.0;"/><text fill="#000000" font-family="sans-serif" font-size="13" lengthAdjust="spacingAndGlyphs" textLength="151" x="676.5" y="331.2305">LaunchApplicationShare</text><polygon fill="#A80036" points="535.5,373.9727,525.5,377.9727,535.5,381.9727,531.5,377.9727" style="stroke: #A80036; stroke-width: 1.0;"/><line style="stroke: #A80036; stroke-width: 1.0;" x1="529.5" x2="668.5" y1="377.9727" y2="377.9727"/><text fill="#000000" font-family="sans-serif" font-size="13" lengthAdjust="spacingAndGlyphs" textLength="121" x="541.5" y="373.541">m_mcAppShareMgr</text><polygon fill="#A80036" points="832.5,403.2832,842.5,407.2832,832.5,411.2832,836.5,407.2832" style="stroke: #A80036; stroke-width: 1.0;"/><line style="stroke: #A80036; stroke-width: 1.0;" x1="669.5" x2="838.5" y1="407.2832" y2="407.2832"/><text fill="#000000" font-family="sans-serif" font-size="13" lengthAdjust="spacingAndGlyphs" textLength="109" x="676.5" y="402.8516">QuitShareSession</text><polygon fill="#A80036" points="832.5,432.5938,842.5,436.5938,832.5,440.5938,836.5,436.5938" style="stroke: #A80036; stroke-width: 1.0;"/><line style="stroke: #A80036; stroke-width: 1.0;" x1="669.5" x2="838.5" y1="436.5938" y2="436.5938"/><text fill="#000000" font-family="sans-serif" font-size="13" lengthAdjust="spacingAndGlyphs" textLength="151" x="676.5" y="432.1621">ShowRunningAppDialog</text><polygon fill="#A80036" points="2149,461.9043,2159,465.9043,2149,469.9043,2153,465.9043" style="stroke: #A80036; stroke-width: 1.0;"/><line style="stroke: #A80036; stroke-width: 1.0;" x1="844.5" x2="2155" y1="465.9043" y2="465.9043"/><text fill="#000000" font-family="sans-serif" font-size="13" lengthAdjust="spacingAndGlyphs" textLength="151" x="851.5" y="461.4727">ShowRunningAppDialog</text><polygon fill="#A80036" points="2333,491.2148,2343,495.2148,2333,499.2148,2337,495.2148" style="stroke: #A80036; stroke-width: 1.0;"/><line style="stroke: #A80036; stroke-width: 1.0;" x1="2161" x2="2339" y1="495.2148" y2="495.2148"/><text fill="#000000" font-family="sans-serif" font-size="13" lengthAdjust="spacingAndGlyphs" textLength="82" x="2168" y="490.7832">ShowWindow</text><polygon fill="#A80036" points="2480.5,520.5254,2490.5,524.5254,2480.5,528.5254,2484.5,524.5254" style="stroke: #A80036; stroke-width: 1.0;"/><line style="stroke: #A80036; stroke-width: 1.0;" x1="26.5" x2="2486.5" y1="524.5254" y2="524.5254"/><text fill="#000000" font-family="sans-serif" font-size="13" lengthAdjust="spacingAndGlyphs" textLength="110" x="33.5" y="520.0938">Double Click App</text><polygon fill="#A80036" points="2172,549.8359,2162,553.8359,2172,557.8359,2168,553.8359" style="stroke: #A80036; stroke-width: 1.0;"/><line style="stroke: #A80036; stroke-width: 1.0;" x1="2166" x2="2491.5" y1="553.8359" y2="553.8359"/><text fill="#000000" font-family="sans-serif" font-size="13" lengthAdjust="spacingAndGlyphs" textLength="118" x="2178" y="549.4043">OnAppDialogEvent</text><polygon fill="#A80036" points="2599,579.1465,2609,583.1465,2599,587.1465,2603,583.1465" style="stroke: #A80036; stroke-width: 1.0;"/><line style="stroke: #A80036; stroke-width: 1.0;" x1="2161" x2="2605" y1="583.1465" y2="583.1465"/><text fill="#000000" font-family="sans-serif" font-size="13" lengthAdjust="spacingAndGlyphs" textLength="101" x="2168" y="578.7148">GetSelectedItem</text><line style="stroke: #A80036; stroke-width: 1.0;" x1="2161" x2="2203" y1="612.7676" y2="612.7676"/><line style="stroke: #A80036; stroke-width: 1.0;" x1="2203" x2="2203" y1="612.7676" y2="625.7676"/><line style="stroke: #A80036; stroke-width: 1.0;" x1="2162" x2="2203" y1="625.7676" y2="625.7676"/><polygon fill="#A80036" points="2172,621.7676,2162,625.7676,2172,629.7676,2168,625.7676" style="stroke: #A80036; stroke-width: 1.0;"/><text fill="#000000" font-family="sans-serif" font-size="13" lengthAdjust="spacingAndGlyphs" textLength="154" x="2168" y="608.0254">SetCurrentSelectedHwnd</text><text fill="#000000" font-family="sans-serif" font-size="11" lengthAdjust="spacingAndGlyphs" textLength="31" x="1549" y="658.4023">Timer</text><polygon fill="#A80036" points="1161,691.7227,1171,695.7227,1161,699.7227,1165,695.7227" style="stroke: #A80036; stroke-width: 1.0;"/><line style="stroke: #A80036; stroke-width: 1.0;" x1="3" x2="1167" y1="695.7227" y2="695.7227"/><text fill="#000000" font-family="sans-serif" font-size="13" lengthAdjust="spacingAndGlyphs" textLength="41" x="10" y="691.291">OnIdle</text><line style="stroke: #A80036; stroke-width: 1.0;" x1="1173" x2="1215" y1="725.3438" y2="725.3438"/><line style="stroke: #A80036; stroke-width: 1.0;" x1="1215" x2="1215" y1="725.3438" y2="738.3438"/><line style="stroke: #A80036; stroke-width: 1.0;" x1="1174" x2="1215" y1="738.3438" y2="738.3438"/><polygon fill="#A80036" points="1184,734.3438,1174,738.3438,1184,742.3438,1180,738.3438" style="stroke: #A80036; stroke-width: 1.0;"/><text fill="#000000" font-family="sans-serif" font-size="13" lengthAdjust="spacingAndGlyphs" textLength="144" x="1180" y="720.6016">HandleAppDialogEvent</text><polygon fill="#A80036" points="2149,763.3438,2159,767.3438,2149,771.3438,2153,767.3438" style="stroke: #A80036; stroke-width: 1.0;"/><line style="stroke: #A80036; stroke-width: 1.0;" x1="1173" x2="2155" y1="767.3438" y2="767.3438"/><text fill="#000000" font-family="sans-serif" font-size="13" lengthAdjust="spacingAndGlyphs" textLength="156" x="1180" y="762.9121">GetCurrentSelectedHwnd</text><polygon fill="#A80036" points="2149,792.6543,2159,796.6543,2149,800.6543,2153,796.6543" style="stroke: #A80036; stroke-width: 1.0;"/><line style="stroke: #A80036; stroke-width: 1.0;" x1="1173" x2="2155" y1="796.6543" y2="796.6543"/><text fill="#000000" font-family="sans-serif" font-size="13" lengthAdjust="spacingAndGlyphs" textLength="167" x="1180" y="792.2227">DestroyRunningAppDialog</text><line style="stroke: #A80036; stroke-width: 1.0;" x1="1173" x2="1215" y1="826.2754" y2="826.2754"/><line style="stroke: #A80036; stroke-width: 1.0;" x1="1215" x2="1215" y1="826.2754" y2="839.2754"/><line style="stroke: #A80036; stroke-width: 1.0;" x1="1174" x2="1215" y1="839.2754" y2="839.2754"/><polygon fill="#A80036" points="1184,835.2754,1174,839.2754,1184,843.2754,1180,839.2754" style="stroke: #A80036; stroke-width: 1.0;"/><text fill="#000000" font-family="sans-serif" font-size="13" lengthAdjust="spacingAndGlyphs" textLength="109" x="1180" y="821.5332">QuitShareSession</text><line style="stroke: #A80036; stroke-width: 1.0;" x1="1173" x2="1215" y1="868.5859" y2="868.5859"/><line style="stroke: #A80036; stroke-width: 1.0;" x1="1215" x2="1215" y1="868.5859" y2="881.5859"/><line style="stroke: #A80036; stroke-width: 1.0;" x1="1174" x2="1215" y1="881.5859" y2="881.5859"/><polygon fill="#A80036" points="1184,877.5859,1174,881.5859,1184,885.5859,1180,881.5859" style="stroke: #A80036; stroke-width: 1.0;"/><text fill="#000000" font-family="sans-serif" font-size="13" lengthAdjust="spacingAndGlyphs" textLength="59" x="1180" y="863.8438">ShareApp</text><polygon fill="#A80036" points="1334,906.5859,1344,910.5859,1334,914.5859,1338,910.5859" style="stroke: #A80036; stroke-width: 1.0;"/><line style="stroke: #A80036; stroke-width: 1.0;" x1="1173" x2="1340" y1="910.5859" y2="910.5859"/><text fill="#000000" font-family="sans-serif" font-size="13" lengthAdjust="spacingAndGlyphs" textLength="88" x="1180" y="906.1543">CreateSession</text><polygon fill="#A80036" points="1671.5,935.8965,1681.5,939.8965,1671.5,943.8965,1675.5,939.8965" style="stroke: #A80036; stroke-width: 1.0;"/><line style="stroke: #A80036; stroke-width: 1.0;" x1="1346" x2="1677.5" y1="939.8965" y2="939.8965"/><text fill="#000000" font-family="sans-serif" font-size="13" lengthAdjust="spacingAndGlyphs" textLength="88" x="1353" y="935.4648">CreateSession</text><polygon fill="#A80036" points="1867.5,965.207,1877.5,969.207,1867.5,973.207,1871.5,969.207" style="stroke: #A80036; stroke-width: 1.0;"/><line style="stroke: #A80036; stroke-width: 1.0;" x1="1683.5" x2="1873.5" y1="969.207" y2="969.207"/><text fill="#000000" font-family="sans-serif" font-size="13" lengthAdjust="spacingAndGlyphs" textLength="88" x="1690.5" y="964.7754">SessionCreate</text><polygon fill="#008000" points="2909.5,994.5176,2919.5,998.5176,2909.5,1002.5176,2913.5,998.5176" style="stroke: #008000; stroke-width: 1.0;"/><line style="stroke: #008000; stroke-width: 1.0;" x1="1879.5" x2="2915.5" y1="998.5176" y2="998.5176"/><text fill="#000000" font-family="sans-serif" font-size="13" lengthAdjust="spacingAndGlyphs" textLength="147" x="1886.5" y="994.0859">session_create_request</text><rect fill="#EEEEEE" filter="url(#f1)" height="3" style="stroke: #EEEEEE; stroke-width: 1.0;" width="3223" x="3" y="1027.4834"/><line style="stroke: #000000; stroke-width: 1.0;" x1="3" x2="3226" y1="1027.4834" y2="1027.4834"/><line style="stroke: #000000; stroke-width: 1.0;" x1="3" x2="3226" y1="1030.4834" y2="1030.4834"/><rect fill="#EEEEEE" filter="url(#f1)" height="23.3105" style="stroke: #000000; stroke-width: 2.0;" width="388" x="1420.5" y="1016.8281"/><text fill="#000000" font-family="sans-serif" font-size="13" font-weight="bold" lengthAdjust="spacingAndGlyphs" textLength="370" x="1426.5" y="1033.3965">Receive session create confirm message from networw</text><polygon fill="#008000" points="1890.5,1067.1387,1880.5,1071.1387,1890.5,1075.1387,1886.5,1071.1387" style="stroke: #008000; stroke-width: 1.0;"/><line style="stroke: #008000; stroke-width: 1.0;" x1="1884.5" x2="3101.5" y1="1071.1387" y2="1071.1387"/><text fill="#000000" font-family="sans-serif" font-size="13" lengthAdjust="spacingAndGlyphs" textLength="172" x="1896.5" y="1066.707">on_session_create_confirm</text><polygon fill="#A80036" points="1694.5,1096.4492,1684.5,1100.4492,1694.5,1104.4492,1690.5,1100.4492" style="stroke: #A80036; stroke-width: 1.0;"/><line style="stroke: #A80036; stroke-width: 1.0;" x1="1688.5" x2="1878.5" y1="1100.4492" y2="1100.4492"/><text fill="#000000" font-family="sans-serif" font-size="13" lengthAdjust="spacingAndGlyphs" textLength="172" x="1700.5" y="1096.0176">OnSessionCreateConfirmEx</text><polygon fill="#A80036" points="535.5,1125.7598,525.5,1129.7598,535.5,1133.7598,531.5,1129.7598" style="stroke: #A80036; stroke-width: 1.0;"/><line style="stroke: #A80036; stroke-width: 1.0;" x1="529.5" x2="1682.5" y1="1129.7598" y2="1129.7598"/><text fill="#000000" font-family="sans-serif" font-size="13" lengthAdjust="spacingAndGlyphs" textLength="157" x="541.5" y="1125.3281">OnSessionCreateConfirm</text><polygon fill="#A80036" points="1334,1155.0703,1344,1159.0703,1334,1163.0703,1338,1159.0703" style="stroke: #A80036; stroke-width: 1.0;"/><line style="stroke: #A80036; stroke-width: 1.0;" x1="524.5" x2="1340" y1="1159.0703" y2="1159.0703"/><text fill="#000000" font-family="sans-serif" font-size="13" lengthAdjust="spacingAndGlyphs" textLength="157" x="531.5" y="1154.6387">OnSessionCreateConfirm</text><line style="stroke: #A80036; stroke-width: 1.0;" x1="1346" x2="1388" y1="1188.6914" y2="1188.6914"/><line style="stroke: #A80036; stroke-width: 1.0;" x1="1388" x2="1388" y1="1188.6914" y2="1201.6914"/><line style="stroke: #A80036; stroke-width: 1.0;" x1="1347" x2="1388" y1="1201.6914" y2="1201.6914"/><polygon fill="#A80036" points="1357,1197.6914,1347,1201.6914,1357,1205.6914,1353,1201.6914" style="stroke: #A80036; stroke-width: 1.0;"/><text fill="#000000" font-family="sans-serif" font-size="13" lengthAdjust="spacingAndGlyphs" textLength="93" x="1353" y="1183.9492">GetSessionMgr</text><polygon fill="#A80036" points="855.5,1226.6914,845.5,1230.6914,855.5,1234.6914,851.5,1230.6914" style="stroke: #A80036; stroke-width: 1.0;"/><line style="stroke: #A80036; stroke-width: 1.0;" x1="849.5" x2="1345" y1="1230.6914" y2="1230.6914"/><text fill="#000000" font-family="sans-serif" font-size="13" lengthAdjust="spacingAndGlyphs" textLength="157" x="861.5" y="1226.2598">OnSessionCreateConfirm</text><polygon fill="#A80036" points="1161,1256.002,1171,1260.002,1161,1264.002,1165,1260.002" style="stroke: #A80036; stroke-width: 1.0;"/><line style="stroke: #A80036; stroke-width: 1.0;" x1="844.5" x2="1167" y1="1260.002" y2="1260.002"/><text fill="#000000" font-family="sans-serif" font-size="13" lengthAdjust="spacingAndGlyphs" textLength="157" x="851.5" y="1255.5703">OnSessionCreateConfirm</text><line style="stroke: #A80036; stroke-width: 1.0;" x1="1173" x2="1215" y1="1289.623" y2="1289.623"/><line style="stroke: #A80036; stroke-width: 1.0;" x1="1215" x2="1215" y1="1289.623" y2="1302.623"/><line style="stroke: #A80036; stroke-width: 1.0;" x1="1174" x2="1215" y1="1302.623" y2="1302.623"/><polygon fill="#A80036" points="1184,1298.623,1174,1302.623,1184,1306.623,1180,1302.623" style="stroke: #A80036; stroke-width: 1.0;"/><text fill="#000000" font-family="sans-serif" font-size="13" lengthAdjust="spacingAndGlyphs" textLength="85" x="1180" y="1284.8809">CheckSection</text><line style="stroke: #A80036; stroke-width: 1.0;" x1="1173" x2="1215" y1="1331.9336" y2="1331.9336"/><line style="stroke: #A80036; stroke-width: 1.0;" x1="1215" x2="1215" y1="1331.9336" y2="1344.9336"/><line style="stroke: #A80036; stroke-width: 1.0;" x1="1174" x2="1215" y1="1344.9336" y2="1344.9336"/><polygon fill="#A80036" points="1184,1340.9336,1174,1344.9336,1184,1348.9336,1180,1344.9336" style="stroke: #A80036; stroke-width: 1.0;"/><text fill="#000000" font-family="sans-serif" font-size="13" lengthAdjust="spacingAndGlyphs" textLength="88" x="1180" y="1327.1914">StartAppShare</text><polygon fill="#A80036" points="2149,1369.9336,2159,1373.9336,2149,1377.9336,2153,1373.9336" style="stroke: #A80036; stroke-width: 1.0;"/><line style="stroke: #A80036; stroke-width: 1.0;" x1="1173" x2="2155" y1="1373.9336" y2="1373.9336"/><text fill="#000000" font-family="sans-serif" font-size="13" lengthAdjust="spacingAndGlyphs" textLength="167" x="1180" y="1369.502">DestoryRunningAppDialog</text><line style="stroke: #A80036; stroke-width: 1.0;" x1="1173" x2="1215" y1="1403.5547" y2="1403.5547"/><line style="stroke: #A80036; stroke-width: 1.0;" x1="1215" x2="1215" y1="1403.5547" y2="1416.5547"/><line style="stroke: #A80036; stroke-width: 1.0;" x1="1174" x2="1215" y1="1416.5547" y2="1416.5547"/><polygon fill="#A80036" points="1184,1412.5547,1174,1416.5547,1184,1420.5547,1180,1416.5547" style="stroke: #A80036; stroke-width: 1.0;"/><text fill="#000000" font-family="sans-serif" font-size="13" lengthAdjust="spacingAndGlyphs" textLength="159" x="1180" y="1398.8125">CreatePresenterContainer</text><polygon fill="#A80036" points="855.5,1441.5547,845.5,1445.5547,855.5,1449.5547,851.5,1445.5547" style="stroke: #A80036; stroke-width: 1.0;"/><line style="stroke: #A80036; stroke-width: 1.0;" x1="849.5" x2="1172" y1="1445.5547" y2="1445.5547"/><text fill="#000000" font-family="sans-serif" font-size="13" lengthAdjust="spacingAndGlyphs" textLength="143" x="861.5" y="1441.123">EnrollAppShareSession</text><polygon fill="#A80036" points="2149,1470.8652,2159,1474.8652,2149,1478.8652,2153,1474.8652" style="stroke: #A80036; stroke-width: 1.0;"/><line style="stroke: #A80036; stroke-width: 1.0;" x1="844.5" x2="2155" y1="1474.8652" y2="1474.8652"/><text fill="#000000" font-family="sans-serif" font-size="13" lengthAdjust="spacingAndGlyphs" textLength="102" x="851.5" y="1470.4336">SetRosterOption</text><polygon fill="#A80036" points="2685,1500.1758,2695,1504.1758,2685,1508.1758,2689,1504.1758" style="stroke: #A80036; stroke-width: 1.0;"/><line style="stroke: #A80036; stroke-width: 1.0;" x1="2161" x2="2691" y1="1504.1758" y2="1504.1758"/><text fill="#000000" font-family="sans-serif" font-size="13" lengthAdjust="spacingAndGlyphs" textLength="118" x="2168" y="1499.7441">ASSetRosterOption</text><polygon fill="#A80036" points="1161,1529.4863,1171,1533.4863,1161,1537.4863,1165,1533.4863" style="stroke: #A80036; stroke-width: 1.0;"/><line style="stroke: #A80036; stroke-width: 1.0;" x1="844.5" x2="1167" y1="1533.4863" y2="1533.4863"/><text fill="#000000" font-family="sans-serif" font-size="13" lengthAdjust="spacingAndGlyphs" textLength="143" x="851.5" y="1529.0547">EnrollAppShareSession</text><polygon fill="#A80036" points="2149,1558.7969,2159,1562.7969,2149,1566.7969,2153,1562.7969" style="stroke: #A80036; stroke-width: 1.0;"/><line style="stroke: #A80036; stroke-width: 1.0;" x1="1173" x2="2155" y1="1562.7969" y2="1562.7969"/><text fill="#000000" font-family="sans-serif" font-size="13" lengthAdjust="spacingAndGlyphs" textLength="83" x="1180" y="1558.3652">EnrollControl</text><line style="stroke: #A80036; stroke-width: 1.0;" x1="2161" x2="2203" y1="1592.418" y2="1592.418"/><line style="stroke: #A80036; stroke-width: 1.0;" x1="2203" x2="2203" y1="1592.418" y2="1605.418"/><line style="stroke: #A80036; stroke-width: 1.0;" x1="2162" x2="2203" y1="1605.418" y2="1605.418"/><polygon fill="#A80036" points="2172,1601.418,2162,1605.418,2172,1609.418,2168,1605.418" style="stroke: #A80036; stroke-width: 1.0;"/><text fill="#000000" font-family="sans-serif" font-size="13" lengthAdjust="spacingAndGlyphs" textLength="113" x="2168" y="1587.6758">SwitchApplication</text><polygon fill="#A80036" points="2685,1630.418,2695,1634.418,2685,1638.418,2689,1634.418" style="stroke: #A80036; stroke-width: 1.0;"/><line style="stroke: #A80036; stroke-width: 1.0;" x1="2161" x2="2691" y1="1634.418" y2="1634.418"/><text fill="#000000" font-family="sans-serif" font-size="13" lengthAdjust="spacingAndGlyphs" textLength="130" x="2168" y="1629.9863">ApSwitchApplication</text><line style="stroke: #A80036; stroke-width: 1.0;" x1="2161" x2="2203" y1="1664.0391" y2="1664.0391"/><line style="stroke: #A80036; stroke-width: 1.0;" x1="2203" x2="2203" y1="1664.0391" y2="1677.0391"/><line style="stroke: #A80036; stroke-width: 1.0;" x1="2162" x2="2203" y1="1677.0391" y2="1677.0391"/><polygon fill="#A80036" points="2172,1673.0391,2162,1677.0391,2172,1681.0391,2168,1677.0391" style="stroke: #A80036; stroke-width: 1.0;"/><text fill="#000000" font-family="sans-serif" font-size="13" lengthAdjust="spacingAndGlyphs" textLength="120" x="2168" y="1659.2969">RegisterServiceInfo</text><polygon fill="#A80036" points="2685,1702.0391,2695,1706.0391,2685,1710.0391,2689,1706.0391" style="stroke: #A80036; stroke-width: 1.0;"/><line style="stroke: #A80036; stroke-width: 1.0;" x1="2161" x2="2691" y1="1706.0391" y2="1706.0391"/><text fill="#000000" font-family="sans-serif" font-size="13" lengthAdjust="spacingAndGlyphs" textLength="136" x="2168" y="1701.6074">AsRegisterServiceInfo</text><polygon fill="#A80036" points="2685,1731.3496,2695,1735.3496,2685,1739.3496,2689,1735.3496" style="stroke: #A80036; stroke-width: 1.0;"/><line style="stroke: #A80036; stroke-width: 1.0;" x1="2161" x2="2691" y1="1735.3496" y2="1735.3496"/><text fill="#000000" font-family="sans-serif" font-size="13" lengthAdjust="spacingAndGlyphs" textLength="109" x="2168" y="1730.918">ApSessionEnroll2</text><line style="stroke: #A80036; stroke-width: 1.0;" x1="2161" x2="2203" y1="1764.9707" y2="1764.9707"/><line style="stroke: #A80036; stroke-width: 1.0;" x1="2203" x2="2203" y1="1764.9707" y2="1777.9707"/><line style="stroke: #A80036; stroke-width: 1.0;" x1="2162" x2="2203" y1="1777.9707" y2="1777.9707"/><polygon fill="#A80036" points="2172,1773.9707,2162,1777.9707,2172,1781.9707,2168,1777.9707" style="stroke: #A80036; stroke-width: 1.0;"/><text fill="#000000" font-family="sans-serif" font-size="13" lengthAdjust="spacingAndGlyphs" textLength="123" x="2168" y="1760.2285">SelectAnnoColorSet</text><polygon fill="#A80036" points="2685,1802.9707,2695,1806.9707,2685,1810.9707,2689,1806.9707" style="stroke: #A80036; stroke-width: 1.0;"/><line style="stroke: #A80036; stroke-width: 1.0;" x1="2161" x2="2691" y1="1806.9707" y2="1806.9707"/><text fill="#000000" font-family="sans-serif" font-size="13" lengthAdjust="spacingAndGlyphs" textLength="107" x="2168" y="1802.5391">ApSelectColorSet</text><line style="stroke: #A80036; stroke-width: 1.0;" x1="2161" x2="2203" y1="1836.5918" y2="1836.5918"/><line style="stroke: #A80036; stroke-width: 1.0;" x1="2203" x2="2203" y1="1836.5918" y2="1849.5918"/><line style="stroke: #A80036; stroke-width: 1.0;" x1="2162" x2="2203" y1="1849.5918" y2="1849.5918"/><polygon fill="#A80036" points="2172,1845.5918,2162,1849.5918,2172,1853.5918,2168,1849.5918" style="stroke: #A80036; stroke-width: 1.0;"/><text fill="#000000" font-family="sans-serif" font-size="13" lengthAdjust="spacingAndGlyphs" textLength="170" x="2168" y="1831.8496">SetCurrentAnnotationColor</text><polygon fill="#A80036" points="2685,1874.5918,2695,1878.5918,2685,1882.5918,2689,1878.5918" style="stroke: #A80036; stroke-width: 1.0;"/><line style="stroke: #A80036; stroke-width: 1.0;" x1="2161" x2="2691" y1="1878.5918" y2="1878.5918"/><text fill="#000000" font-family="sans-serif" font-size="13" lengthAdjust="spacingAndGlyphs" textLength="186" x="2168" y="1874.1602">AsSetCurrentAnnotationColor</text><polygon fill="#A80036" points="1500.5,1903.9023,1510.5,1907.9023,1500.5,1911.9023,1504.5,1907.9023" style="stroke: #A80036; stroke-width: 1.0;"/><line style="stroke: #A80036; stroke-width: 1.0;" x1="1173" x2="1506.5" y1="1907.9023" y2="1907.9023"/><text fill="#000000" font-family="sans-serif" font-size="13" lengthAdjust="spacingAndGlyphs" textLength="45" x="1180" y="1903.4707">StartAS</text><polygon fill="#A80036" points="1184,1933.2129,1174,1937.2129,1184,1941.2129,1180,1937.2129" style="stroke: #A80036; stroke-width: 1.0;"/><line style="stroke: #A80036; stroke-width: 1.0;" x1="1178" x2="2796.5" y1="1937.2129" y2="1937.2129"/><text fill="#000000" font-family="sans-serif" font-size="13" lengthAdjust="spacingAndGlyphs" textLength="120" x="1190" y="1932.7813">OnCmMessageProc</text></g></svg>