<?xml version="1.0" encoding="UTF-8" standalone="no"?>
<!DOCTYPE svg PUBLIC "-//W3C//DTD SVG 1.1//EN"
 "http://www.w3.org/Graphics/SVG/1.1/DTD/svg11.dtd">
<!-- Generated by graphviz version 2.39.20141230.0545 (20141230.0545)
 -->
<!-- Title: wmcComponent Pages: 1 -->
<svg width="832pt" height="407pt"
 viewBox="0.00 0.00 832.00 407.00" xmlns="http://www.w3.org/2000/svg" xmlns:xlink="http://www.w3.org/1999/xlink">
<g id="graph0" class="graph" transform="scale(1 1) rotate(0) translate(4 403)">
<title>wmcComponent</title>
<polygon fill="#edf8e9" stroke="transparent" points="-4,4 -4,-403 828,-403 828,4 -4,4"/>
<g id="clust3" class="cluster"><title>clusterPlugins</title>
<polygon fill="green" stroke="green" points="255,-280 255,-355 697,-355 697,-280 255,-280"/>
<text text-anchor="middle" x="476" y="-339.8" font-family="Times,serif" font-size="14.00">Plugins</text>
</g>
<!-- WebEx Entry X -->
<g id="node1" class="node"><title>WebEx Entry X</title>
<text text-anchor="middle" x="66" y="-377.2" font-family="Times,serif" font-size="16.00" fill="green">WebEx Entry X</text>
</g>
<!-- Entry Module X -->
<g id="node2" class="node"><title>Entry Module X</title>
<text text-anchor="middle" x="66" y="-302.2" font-family="Times,serif" font-size="16.00" fill="green">Entry Module X</text>
</g>
<!-- WebEx Entry X&#45;&gt;Entry Module X -->
<g id="edge1" class="edge"><title>WebEx Entry X&#45;&gt;Entry Module X</title>
<path fill="none" stroke="green" d="M66,-362.845C66,-354.34 66,-344.008 66,-334.496"/>
<polygon fill="green" stroke="green" points="69.5001,-334.248 66,-324.248 62.5001,-334.248 69.5001,-334.248"/>
</g>
<!-- Meeting Center X -->
<g id="node3" class="node"><title>Meeting Center X</title>
<text text-anchor="middle" x="66" y="-230.2" font-family="Times,serif" font-size="16.00" fill="green">Meeting Center X</text>
</g>
<!-- Entry Module X&#45;&gt;Meeting Center X -->
<g id="edge2" class="edge"><title>Entry Module X&#45;&gt;Meeting Center X</title>
<path fill="none" stroke="green" d="M66,-287.831C66,-280.131 66,-270.974 66,-262.417"/>
<polygon fill="green" stroke="green" points="69.5001,-262.413 66,-252.413 62.5001,-262.413 69.5001,-262.413"/>
</g>
<!-- Non&#45;Admin -->
<g id="node4" class="node"><title>Non&#45;Admin</title>
<text text-anchor="middle" x="66" y="-158.2" font-family="Times,serif" font-size="16.00" fill="green">Non&#45;Admin</text>
</g>
<!-- Meeting Center X&#45;&gt;Non&#45;Admin -->
<g id="edge3" class="edge"><title>Meeting Center X&#45;&gt;Non&#45;Admin</title>
<path fill="none" stroke="green" d="M66,-215.831C66,-208.131 66,-198.974 66,-190.417"/>
<polygon fill="green" stroke="green" points="69.5001,-190.413 66,-180.413 62.5001,-190.413 69.5001,-190.413"/>
</g>
<!-- Admin -->
<g id="node5" class="node"><title>Admin</title>
<text text-anchor="middle" x="66" y="-86.2" font-family="Times,serif" font-size="16.00" fill="green">Admin</text>
</g>
<!-- Non&#45;Admin&#45;&gt;Admin -->
<g id="edge4" class="edge"><title>Non&#45;Admin&#45;&gt;Admin</title>
<path fill="none" stroke="green" d="M66,-143.831C66,-136.131 66,-126.974 66,-118.417"/>
<polygon fill="green" stroke="green" points="69.5001,-118.413 66,-108.413 62.5001,-118.413 69.5001,-118.413"/>
</g>
<!-- WebExMgr -->
<g id="node6" class="node"><title>WebExMgr</title>
<text text-anchor="middle" x="66" y="-14.2" font-family="Times,serif" font-size="16.00" fill="green">WebExMgr</text>
</g>
<!-- Admin&#45;&gt;WebExMgr -->
<g id="edge5" class="edge"><title>Admin&#45;&gt;WebExMgr</title>
<path fill="none" stroke="green" d="M66,-71.8314C66,-64.131 66,-54.9743 66,-46.4166"/>
<polygon fill="green" stroke="green" points="69.5001,-46.4132 66,-36.4133 62.5001,-46.4133 69.5001,-46.4132"/>
</g>
<!-- IE -->
<g id="node7" class="node"><title>IE</title>
<polygon fill="none" stroke="black" points="332,-399 278,-399 278,-363 332,-363 332,-399"/>
<text text-anchor="middle" x="305" y="-377.3" font-family="Times,serif" font-size="14.00">IE</text>
</g>
<!-- ieatgpc.dll -->
<g id="node10" class="node"><title>ieatgpc.dll</title>
<text text-anchor="middle" x="305" y="-302.2" font-family="Times,serif" font-size="16.00" fill="red">ieatgpc.dll</text>
</g>
<!-- IE&#45;&gt;ieatgpc.dll -->
<g id="edge6" class="edge"><title>IE&#45;&gt;ieatgpc.dll</title>
<path fill="none" stroke="black" d="M305,-362.845C305,-354.34 305,-344.008 305,-334.496"/>
<polygon fill="black" stroke="black" points="308.5,-334.248 305,-324.248 301.5,-334.248 308.5,-334.248"/>
</g>
<!-- FireFox -->
<g id="node8" class="node"><title>FireFox</title>
<polygon fill="none" stroke="black" points="504.5,-399 443.5,-399 443.5,-363 504.5,-363 504.5,-399"/>
<text text-anchor="middle" x="474" y="-377.3" font-family="Times,serif" font-size="14.00">FireFox</text>
</g>
<!-- ciscowebexstart.exe -->
<g id="node11" class="node"><title>ciscowebexstart.exe</title>
<text text-anchor="middle" x="474" y="-302.2" font-family="Times,serif" font-size="16.00" fill="red">ciscowebexstart.exe</text>
</g>
<!-- FireFox&#45;&gt;ciscowebexstart.exe -->
<g id="edge7" class="edge"><title>FireFox&#45;&gt;ciscowebexstart.exe</title>
<path fill="none" stroke="black" d="M474,-362.845C474,-354.34 474,-344.008 474,-334.496"/>
<polygon fill="black" stroke="black" points="477.5,-334.248 474,-324.248 470.5,-334.248 477.5,-334.248"/>
</g>
<!-- Chrome -->
<g id="node9" class="node"><title>Chrome</title>
<polygon fill="none" stroke="black" points="676,-399 614,-399 614,-363 676,-363 676,-399"/>
<text text-anchor="middle" x="645" y="-377.3" font-family="Times,serif" font-size="14.00">Chrome</text>
</g>
<!-- npatgpc.dll -->
<g id="node12" class="node"><title>npatgpc.dll</title>
<text text-anchor="middle" x="645" y="-302.2" font-family="Times,serif" font-size="16.00" fill="red">npatgpc.dll</text>
</g>
<!-- Chrome&#45;&gt;npatgpc.dll -->
<g id="edge8" class="edge"><title>Chrome&#45;&gt;npatgpc.dll</title>
<path fill="none" stroke="black" d="M645,-362.845C645,-354.34 645,-344.008 645,-334.496"/>
<polygon fill="black" stroke="black" points="648.5,-334.248 645,-324.248 641.5,-334.248 648.5,-334.248"/>
</g>
<!-- atmccli.dll -->
<g id="node13" class="node"><title>atmccli.dll</title>
<polygon fill="none" stroke="black" points="316,-252 240,-252 240,-216 316,-216 316,-252"/>
<text text-anchor="middle" x="278" y="-230.3" font-family="Times,serif" font-size="14.00">atmccli.dll</text>
</g>
<!-- ieatgpc.dll&#45;&gt;atmccli.dll -->
<g id="edge9" class="edge"><title>ieatgpc.dll&#45;&gt;atmccli.dll</title>
<path fill="none" stroke="black" d="M298.187,-287.831C295.236,-279.962 291.714,-270.571 288.445,-261.853"/>
<polygon fill="black" stroke="black" points="291.693,-260.548 284.905,-252.413 285.139,-263.006 291.693,-260.548"/>
</g>
<!-- ateccli.dll -->
<g id="node14" class="node"><title>ateccli.dll</title>
<polygon fill="none" stroke="black" points="441.5,-252 370.5,-252 370.5,-216 441.5,-216 441.5,-252"/>
<text text-anchor="middle" x="406" y="-230.3" font-family="Times,serif" font-size="14.00">ateccli.dll</text>
</g>
<!-- ieatgpc.dll&#45;&gt;ateccli.dll -->
<g id="edge10" class="edge"><title>ieatgpc.dll&#45;&gt;ateccli.dll</title>
<path fill="none" stroke="black" d="M330.487,-287.831C343.166,-278.793 358.66,-267.748 372.306,-258.02"/>
<polygon fill="black" stroke="black" points="374.41,-260.818 380.522,-252.163 370.347,-255.118 374.41,-260.818"/>
</g>
<!-- wbxtccli.dll -->
<g id="node15" class="node"><title>wbxtccli.dll</title>
<polygon fill="none" stroke="black" points="578.5,-252 495.5,-252 495.5,-216 578.5,-216 578.5,-252"/>
<text text-anchor="middle" x="537" y="-230.3" font-family="Times,serif" font-size="14.00">wbxtccli.dll</text>
</g>
<!-- ieatgpc.dll&#45;&gt;wbxtccli.dll -->
<g id="edge11" class="edge"><title>ieatgpc.dll&#45;&gt;wbxtccli.dll</title>
<path fill="none" stroke="black" d="M347.126,-289.475C355.956,-286.196 365.244,-282.879 374,-280 410.958,-267.846 453.255,-255.968 485.499,-247.327"/>
<polygon fill="black" stroke="black" points="486.404,-250.708 495.167,-244.752 484.603,-243.944 486.404,-250.708"/>
</g>
<!-- atsc3cli.dll -->
<g id="node16" class="node"><title>atsc3cli.dll</title>
<polygon fill="none" stroke="black" points="711,-252 633,-252 633,-216 711,-216 711,-252"/>
<text text-anchor="middle" x="672" y="-230.3" font-family="Times,serif" font-size="14.00">atsc3cli.dll</text>
</g>
<!-- ieatgpc.dll&#45;&gt;atsc3cli.dll -->
<g id="edge12" class="edge"><title>ieatgpc.dll&#45;&gt;atsc3cli.dll</title>
<path fill="none" stroke="black" d="M347.192,-288.282C355.934,-285.129 365.173,-282.165 374,-280 474.442,-255.368 503.473,-271.688 605,-252 610.833,-250.869 616.905,-249.505 622.908,-248.041"/>
<polygon fill="black" stroke="black" points="624.062,-251.359 632.892,-245.505 622.338,-244.575 624.062,-251.359"/>
</g>
<!-- ciscowebexstart.exe&#45;&gt;atmccli.dll -->
<g id="edge13" class="edge"><title>ciscowebexstart.exe&#45;&gt;atmccli.dll</title>
<path fill="none" stroke="black" d="M424.794,-287.924C394.404,-276.761 355.61,-262.51 325.535,-251.462"/>
<polygon fill="black" stroke="black" points="326.693,-248.158 316.099,-247.996 324.279,-254.729 326.693,-248.158"/>
</g>
<!-- ciscowebexstart.exe&#45;&gt;ateccli.dll -->
<g id="edge14" class="edge"><title>ciscowebexstart.exe&#45;&gt;ateccli.dll</title>
<path fill="none" stroke="black" d="M456.841,-287.831C448.849,-279.369 439.196,-269.149 430.458,-259.897"/>
<polygon fill="black" stroke="black" points="432.801,-257.28 423.39,-252.413 427.712,-262.087 432.801,-257.28"/>
</g>
<!-- ciscowebexstart.exe&#45;&gt;wbxtccli.dll -->
<g id="edge15" class="edge"><title>ciscowebexstart.exe&#45;&gt;wbxtccli.dll</title>
<path fill="none" stroke="black" d="M489.898,-287.831C497.228,-279.454 506.066,-269.353 514.097,-260.175"/>
<polygon fill="black" stroke="black" points="516.937,-262.244 520.888,-252.413 511.669,-257.634 516.937,-262.244"/>
</g>
<!-- ciscowebexstart.exe&#45;&gt;atsc3cli.dll -->
<g id="edge16" class="edge"><title>ciscowebexstart.exe&#45;&gt;atsc3cli.dll</title>
<path fill="none" stroke="black" d="M523.708,-287.924C554.201,-276.836 593.071,-262.701 623.365,-251.686"/>
<polygon fill="black" stroke="black" points="624.676,-254.933 632.877,-248.226 622.283,-248.355 624.676,-254.933"/>
</g>
<!-- npatgpc.dll&#45;&gt;atmccli.dll -->
<g id="edge17" class="edge"><title>npatgpc.dll&#45;&gt;atmccli.dll</title>
<path fill="none" stroke="black" d="M600.924,-288.316C591.805,-285.16 582.179,-282.186 573,-280 472.826,-256.139 444.012,-272.019 343,-252 337.544,-250.919 331.875,-249.619 326.26,-248.219"/>
<polygon fill="black" stroke="black" points="326.827,-244.75 316.268,-245.617 325.063,-251.524 326.827,-244.75"/>
</g>
<!-- npatgpc.dll&#45;&gt;ateccli.dll -->
<g id="edge18" class="edge"><title>npatgpc.dll&#45;&gt;ateccli.dll</title>
<path fill="none" stroke="black" d="M600.65,-289.31C591.552,-286.077 582.004,-282.821 573,-280 526.911,-265.562 514.527,-264.956 468,-252 462.669,-250.515 457.088,-248.934 451.551,-247.348"/>
<polygon fill="black" stroke="black" points="452.276,-243.915 441.698,-244.509 450.338,-250.641 452.276,-243.915"/>
</g>
<!-- npatgpc.dll&#45;&gt;wbxtccli.dll -->
<g id="edge19" class="edge"><title>npatgpc.dll&#45;&gt;wbxtccli.dll</title>
<path fill="none" stroke="black" d="M617.747,-287.831C604.061,-278.707 587.309,-267.539 572.617,-257.745"/>
<polygon fill="black" stroke="black" points="574.506,-254.798 564.244,-252.163 570.623,-260.622 574.506,-254.798"/>
</g>
<!-- npatgpc.dll&#45;&gt;atsc3cli.dll -->
<g id="edge20" class="edge"><title>npatgpc.dll&#45;&gt;atsc3cli.dll</title>
<path fill="none" stroke="black" d="M651.813,-287.831C654.764,-279.962 658.286,-270.571 661.555,-261.853"/>
<polygon fill="black" stroke="black" points="664.861,-263.006 665.095,-252.413 658.307,-260.548 664.861,-263.006"/>
</g>
<!-- atinst.exe -->
<g id="node17" class="node"><title>atinst.exe</title>
<polygon fill="none" stroke="black" points="480,-180 410,-180 410,-144 480,-144 480,-180"/>
<text text-anchor="middle" x="445" y="-158.3" font-family="Times,serif" font-size="14.00">atinst.exe</text>
</g>
<!-- atmccli.dll&#45;&gt;atinst.exe -->
<g id="edge21" class="edge"><title>atmccli.dll&#45;&gt;atinst.exe</title>
<path fill="none" stroke="green" d="M316.313,-217.482C341.442,-206.648 374.385,-192.445 400.648,-181.122"/>
<polygon fill="green" stroke="green" points="402.198,-184.265 409.995,-177.092 399.427,-177.837 402.198,-184.265"/>
</g>
<!-- mc&#45;atmgr.exe -->
<g id="node18" class="node"><title>mc&#45;atmgr.exe</title>
<polygon fill="none" stroke="black" points="254,-108 182,-108 182,-72 254,-72 254,-108"/>
<text text-anchor="middle" x="218" y="-86.3" font-family="Times,serif" font-size="14.00">atmgr.exe</text>
</g>
<!-- atmccli.dll&#45;&gt;mc&#45;atmgr.exe -->
<g id="edge30" class="edge"><title>atmccli.dll&#45;&gt;mc&#45;atmgr.exe</title>
<path fill="none" stroke="black" d="M270.401,-215.762C260.077,-190.985 241.53,-146.471 229.497,-117.594"/>
<polygon fill="black" stroke="black" points="232.614,-115.974 225.537,-108.09 226.153,-118.667 232.614,-115.974"/>
</g>
<!-- ateccli.dll&#45;&gt;atinst.exe -->
<g id="edge22" class="edge"><title>ateccli.dll&#45;&gt;atinst.exe</title>
<path fill="none" stroke="green" d="M415.841,-215.831C420.196,-207.792 425.41,-198.167 430.217,-189.292"/>
<polygon fill="green" stroke="green" points="433.341,-190.873 435.026,-180.413 427.186,-187.539 433.341,-190.873"/>
</g>
<!-- ec&#45;atmgr.exe -->
<g id="node19" class="node"><title>ec&#45;atmgr.exe</title>
<polygon fill="none" stroke="black" points="397,-108 325,-108 325,-72 397,-72 397,-108"/>
<text text-anchor="middle" x="361" y="-86.3" font-family="Times,serif" font-size="14.00">atmgr.exe</text>
</g>
<!-- ateccli.dll&#45;&gt;ec&#45;atmgr.exe -->
<g id="edge31" class="edge"><title>ateccli.dll&#45;&gt;ec&#45;atmgr.exe</title>
<path fill="none" stroke="black" d="M397.366,-215.792C392.688,-205.454 387.053,-192.183 383,-180 376.208,-159.587 370.508,-135.937 366.613,-118.004"/>
<polygon fill="black" stroke="black" points="370.027,-117.234 364.533,-108.174 363.179,-118.682 370.027,-117.234"/>
</g>
<!-- wbxtccli.dll&#45;&gt;atinst.exe -->
<g id="edge23" class="edge"><title>wbxtccli.dll&#45;&gt;atinst.exe</title>
<path fill="none" stroke="green" d="M513.785,-215.831C502.453,-206.963 488.654,-196.164 476.397,-186.572"/>
<polygon fill="green" stroke="green" points="478.24,-183.57 468.208,-180.163 473.926,-189.082 478.24,-183.57"/>
</g>
<!-- tc&#45;atmgr.exe -->
<g id="node20" class="node"><title>tc&#45;atmgr.exe</title>
<polygon fill="none" stroke="black" points="544,-108 472,-108 472,-72 544,-72 544,-108"/>
<text text-anchor="middle" x="508" y="-86.3" font-family="Times,serif" font-size="14.00">atmgr.exe</text>
</g>
<!-- wbxtccli.dll&#45;&gt;tc&#45;atmgr.exe -->
<g id="edge32" class="edge"><title>wbxtccli.dll&#45;&gt;tc&#45;atmgr.exe</title>
<path fill="none" stroke="black" d="M533.327,-215.762C528.359,-191.093 519.451,-146.86 513.633,-117.973"/>
<polygon fill="black" stroke="black" points="517.048,-117.202 511.643,-108.09 510.186,-118.584 517.048,-117.202"/>
</g>
<!-- atsc3cli.dll&#45;&gt;atinst.exe -->
<g id="edge24" class="edge"><title>atsc3cli.dll&#45;&gt;atinst.exe</title>
<path fill="none" stroke="green" d="M632.977,-221.623C593.194,-209.004 531.554,-189.453 489.8,-176.21"/>
<polygon fill="green" stroke="green" points="490.753,-172.84 480.162,-173.153 488.636,-179.512 490.753,-172.84"/>
</g>
<!-- sc&#45;atscmgr.exe -->
<g id="node21" class="node"><title>sc&#45;atscmgr.exe</title>
<polygon fill="none" stroke="black" points="686,-108 602,-108 602,-72 686,-72 686,-108"/>
<text text-anchor="middle" x="644" y="-86.3" font-family="Times,serif" font-size="14.00">atscmgr.exe</text>
</g>
<!-- atsc3cli.dll&#45;&gt;sc&#45;atscmgr.exe -->
<g id="edge33" class="edge"><title>atsc3cli.dll&#45;&gt;sc&#45;atscmgr.exe</title>
<path fill="none" stroke="black" d="M668.454,-215.762C663.657,-191.093 655.056,-146.86 649.439,-117.973"/>
<polygon fill="black" stroke="black" points="652.862,-117.238 647.517,-108.09 645.991,-118.574 652.862,-117.238"/>
</g>
<!-- scc&#45;atscmgr.exe -->
<g id="node22" class="node"><title>scc&#45;atscmgr.exe</title>
<polygon fill="none" stroke="black" points="824,-108 740,-108 740,-72 824,-72 824,-108"/>
<text text-anchor="middle" x="782" y="-86.3" font-family="Times,serif" font-size="14.00">atscmgr.exe</text>
</g>
<!-- atsc3cli.dll&#45;&gt;scc&#45;atscmgr.exe -->
<g id="edge34" class="edge"><title>atsc3cli.dll&#45;&gt;scc&#45;atscmgr.exe</title>
<path fill="none" stroke="black" d="M685.932,-215.762C705.19,-190.552 740.055,-144.91 762.066,-116.095"/>
<polygon fill="black" stroke="black" points="764.892,-118.161 768.182,-108.09 759.33,-113.912 764.892,-118.161"/>
</g>
<!-- atinst.exe&#45;&gt;mc&#45;atmgr.exe -->
<g id="edge25" class="edge"><title>atinst.exe&#45;&gt;mc&#45;atmgr.exe</title>
<path fill="none" stroke="green" d="M409.531,-150.75C370.314,-138.311 307.008,-118.232 264.004,-104.592"/>
<polygon fill="green" stroke="green" points="264.936,-101.215 254.346,-101.528 262.819,-107.888 264.936,-101.215"/>
</g>
<!-- atinst.exe&#45;&gt;ec&#45;atmgr.exe -->
<g id="edge26" class="edge"><title>atinst.exe&#45;&gt;ec&#45;atmgr.exe</title>
<path fill="none" stroke="green" d="M423.803,-143.831C413.557,-135.048 401.1,-124.371 389.99,-114.849"/>
<polygon fill="green" stroke="green" points="392.06,-112.013 382.19,-108.163 387.505,-117.328 392.06,-112.013"/>
</g>
<!-- atinst.exe&#45;&gt;tc&#45;atmgr.exe -->
<g id="edge27" class="edge"><title>atinst.exe&#45;&gt;tc&#45;atmgr.exe</title>
<path fill="none" stroke="green" d="M460.898,-143.831C468.228,-135.454 477.066,-125.353 485.097,-116.175"/>
<polygon fill="green" stroke="green" points="487.937,-118.244 491.888,-108.413 482.669,-113.634 487.937,-118.244"/>
</g>
<!-- atinst.exe&#45;&gt;sc&#45;atscmgr.exe -->
<g id="edge28" class="edge"><title>atinst.exe&#45;&gt;sc&#45;atscmgr.exe</title>
<path fill="none" stroke="green" d="M480.119,-149.294C511.226,-138.039 557.046,-121.461 592.334,-108.693"/>
<polygon fill="green" stroke="green" points="593.774,-111.894 601.986,-105.201 591.392,-105.312 593.774,-111.894"/>
</g>
<!-- atinst.exe&#45;&gt;scc&#45;atscmgr.exe -->
<g id="edge29" class="edge"><title>atinst.exe&#45;&gt;scc&#45;atscmgr.exe</title>
<path fill="none" stroke="green" d="M480.255,-155.552C531.628,-146.008 629.99,-127.174 713,-108 718.428,-106.746 724.08,-105.377 729.709,-103.972"/>
<polygon fill="green" stroke="green" points="730.932,-107.272 739.764,-101.42 729.21,-100.487 730.932,-107.272"/>
</g>
<!-- mc&#45;webexmgr.dll -->
<g id="node23" class="node"><title>mc&#45;webexmgr.dll</title>
<polygon fill="none" stroke="black" points="260,-36 166,-36 166,-0 260,-0 260,-36"/>
<text text-anchor="middle" x="213" y="-14.3" font-family="Times,serif" font-size="14.00">webexmgr.dll</text>
</g>
<!-- mc&#45;atmgr.exe&#45;&gt;mc&#45;webexmgr.dll -->
<g id="edge35" class="edge"><title>mc&#45;atmgr.exe&#45;&gt;mc&#45;webexmgr.dll</title>
<path fill="none" stroke="black" d="M216.738,-71.8314C216.204,-64.131 215.568,-54.9743 214.973,-46.4166"/>
<polygon fill="black" stroke="black" points="218.463,-46.1467 214.279,-36.4133 211.48,-46.6317 218.463,-46.1467"/>
</g>
<!-- ec&#45;wbxmgrec.dll -->
<g id="node24" class="node"><title>ec&#45;wbxmgrec.dll</title>
<polygon fill="none" stroke="black" points="408,-36 314,-36 314,-0 408,-0 408,-36"/>
<text text-anchor="middle" x="361" y="-14.3" font-family="Times,serif" font-size="14.00">wbxmgrec.dll</text>
</g>
<!-- ec&#45;atmgr.exe&#45;&gt;ec&#45;wbxmgrec.dll -->
<g id="edge36" class="edge"><title>ec&#45;atmgr.exe&#45;&gt;ec&#45;wbxmgrec.dll</title>
<path fill="none" stroke="black" d="M361,-71.8314C361,-64.131 361,-54.9743 361,-46.4166"/>
<polygon fill="black" stroke="black" points="364.5,-46.4132 361,-36.4133 357.5,-46.4133 364.5,-46.4132"/>
</g>
<!-- tc&#45;wbxmgrtc.dll -->
<g id="node25" class="node"><title>tc&#45;wbxmgrtc.dll</title>
<polygon fill="none" stroke="black" points="554,-36 462,-36 462,-0 554,-0 554,-36"/>
<text text-anchor="middle" x="508" y="-14.3" font-family="Times,serif" font-size="14.00">wbxmgrtc.dll</text>
</g>
<!-- tc&#45;atmgr.exe&#45;&gt;tc&#45;wbxmgrtc.dll -->
<g id="edge37" class="edge"><title>tc&#45;atmgr.exe&#45;&gt;tc&#45;wbxmgrtc.dll</title>
<path fill="none" stroke="black" d="M508,-71.8314C508,-64.131 508,-54.9743 508,-46.4166"/>
<polygon fill="black" stroke="black" points="511.5,-46.4132 508,-36.4133 504.5,-46.4133 511.5,-46.4132"/>
</g>
<!-- sc&#45;atsc3cli.dll -->
<g id="node26" class="node"><title>sc&#45;atsc3cli.dll</title>
<polygon fill="none" stroke="black" points="686,-36 608,-36 608,-0 686,-0 686,-36"/>
<text text-anchor="middle" x="647" y="-14.3" font-family="Times,serif" font-size="14.00">atsc3cli.dll</text>
</g>
<!-- sc&#45;atscmgr.exe&#45;&gt;sc&#45;atsc3cli.dll -->
<g id="edge38" class="edge"><title>sc&#45;atscmgr.exe&#45;&gt;sc&#45;atsc3cli.dll</title>
<path fill="none" stroke="black" d="M644.757,-71.8314C645.078,-64.131 645.459,-54.9743 645.816,-46.4166"/>
<polygon fill="black" stroke="black" points="649.313,-46.5503 646.233,-36.4133 642.319,-46.2589 649.313,-46.5503"/>
</g>
<!-- scc&#45;atsccust.dll -->
<g id="node27" class="node"><title>scc&#45;atsccust.dll</title>
<polygon fill="none" stroke="black" points="821.5,-36 742.5,-36 742.5,-0 821.5,-0 821.5,-36"/>
<text text-anchor="middle" x="782" y="-14.3" font-family="Times,serif" font-size="14.00">atsccust.dll</text>
</g>
<!-- scc&#45;atscmgr.exe&#45;&gt;scc&#45;atsccust.dll -->
<g id="edge39" class="edge"><title>scc&#45;atscmgr.exe&#45;&gt;scc&#45;atsccust.dll</title>
<path fill="none" stroke="black" d="M782,-71.8314C782,-64.131 782,-54.9743 782,-46.4166"/>
<polygon fill="black" stroke="black" points="785.5,-46.4132 782,-36.4133 778.5,-46.4133 785.5,-46.4132"/>
</g>
</g>
</svg>
