<?xml version="1.0" encoding="UTF-8" standalone="yes"?><svg xmlns="http://www.w3.org/2000/svg" xmlns:xlink="http://www.w3.org/1999/xlink" height="1380pt" style="width:1878px;height:1380px;" version="1.1" viewBox="0 0 1878 1380" width="1878pt"><defs><filter height="300%" id="f1" width="300%" x="-1" y="-1"><feGaussianBlur result="blurOut" stdDeviation="2.0"/><feColorMatrix in="blurOut" result="blurOut2" type="matrix" values="0 0 0 0 0 0 0 0 0 0 0 0 0 0 0 0 0 0 .4 0"/><feOffset dx="4.0" dy="4.0" in="blurOut2" result="blurOut3"/><feBlend in="SourceGraphic" in2="blurOut3" mode="normal"/></filter></defs><g><rect fill="#DDDDDD" height="1375.9141" style="stroke: #A80036; stroke-width: 1.0;" width="946.5" x="147" y="4"/><text fill="#000000" font-family="sans-serif" font-size="13" font-weight="bold" lengthAdjust="spacingAndGlyphs" textLength="72" x="584.25" y="16.5684">WebExMgr</text><rect fill="#DDDDDD" height="1375.9141" style="stroke: #A80036; stroke-width: 1.0;" width="755.5" x="1116.5" y="4"/><text fill="#000000" font-family="sans-serif" font-size="13" font-weight="bold" lengthAdjust="spacingAndGlyphs" textLength="75" x="1456.75" y="16.5684">ServiceMgr</text><line style="stroke: #A80036; stroke-width: 1.0; stroke-dasharray: 5.0,5.0;" x1="31" x2="31" y1="86.4883" y2="1293.4258"/><line style="stroke: #A80036; stroke-width: 1.0; stroke-dasharray: 5.0,5.0;" x1="83" x2="83" y1="86.4883" y2="1293.4258"/><line style="stroke: #A80036; stroke-width: 1.0; stroke-dasharray: 5.0,5.0;" x1="207" x2="207" y1="86.4883" y2="1293.4258"/><line style="stroke: #A80036; stroke-width: 1.0; stroke-dasharray: 5.0,5.0;" x1="334" x2="334" y1="86.4883" y2="1293.4258"/><line style="stroke: #A80036; stroke-width: 1.0; stroke-dasharray: 5.0,5.0;" x1="449" x2="449" y1="86.4883" y2="1293.4258"/><line style="stroke: #A80036; stroke-width: 1.0; stroke-dasharray: 5.0,5.0;" x1="574" x2="574" y1="86.4883" y2="1293.4258"/><line style="stroke: #A80036; stroke-width: 1.0; stroke-dasharray: 5.0,5.0;" x1="754" x2="754" y1="86.4883" y2="1293.4258"/><line style="stroke: #A80036; stroke-width: 1.0; stroke-dasharray: 5.0,5.0;" x1="887" x2="887" y1="86.4883" y2="1293.4258"/><line style="stroke: #A80036; stroke-width: 1.0; stroke-dasharray: 5.0,5.0;" x1="1026.5" x2="1026.5" y1="86.4883" y2="1293.4258"/><line style="stroke: #A80036; stroke-width: 1.0; stroke-dasharray: 5.0,5.0;" x1="1183.5" x2="1183.5" y1="86.4883" y2="1293.4258"/><line style="stroke: #A80036; stroke-width: 1.0; stroke-dasharray: 5.0,5.0;" x1="1328.5" x2="1328.5" y1="86.4883" y2="1293.4258"/><line style="stroke: #A80036; stroke-width: 1.0; stroke-dasharray: 5.0,5.0;" x1="1609" x2="1609" y1="86.4883" y2="1293.4258"/><line style="stroke: #A80036; stroke-width: 1.0; stroke-dasharray: 5.0,5.0;" x1="1788" x2="1788" y1="86.4883" y2="1293.4258"/><text fill="#000000" font-family="sans-serif" font-size="14" lengthAdjust="spacingAndGlyphs" textLength="41" x="8" y="83.5352">atmgr</text><ellipse cx="31.5" cy="13" fill="#FEFECE" filter="url(#f1)" rx="8" ry="8" style="stroke: #A80036; stroke-width: 2.0;"/><path d="M31.5,21 L31.5,48 M18.5,29 L44.5,29 M31.5,48 L18.5,63 M31.5,48 L44.5,63 " fill="#FEFECE" filter="url(#f1)" style="stroke: #A80036; stroke-width: 2.0;"/><text fill="#000000" font-family="sans-serif" font-size="14" lengthAdjust="spacingAndGlyphs" textLength="41" x="8" y="1305.9609">atmgr</text><ellipse cx="31.5" cy="1318.9141" fill="#FEFECE" filter="url(#f1)" rx="8" ry="8" style="stroke: #A80036; stroke-width: 2.0;"/><path d="M31.5,1326.9141 L31.5,1353.9141 M18.5,1334.9141 L44.5,1334.9141 M31.5,1353.9141 L18.5,1368.9141 M31.5,1353.9141 L44.5,1368.9141 " fill="#FEFECE" filter="url(#f1)" style="stroke: #A80036; stroke-width: 2.0;"/><text fill="#000000" font-family="sans-serif" font-size="14" lengthAdjust="spacingAndGlyphs" textLength="31" x="65" y="83.5352">User</text><ellipse cx="83.5" cy="13" fill="#FEFECE" filter="url(#f1)" rx="8" ry="8" style="stroke: #A80036; stroke-width: 2.0;"/><path d="M83.5,21 L83.5,48 M70.5,29 L96.5,29 M83.5,48 L70.5,63 M83.5,48 L96.5,63 " fill="#FEFECE" filter="url(#f1)" style="stroke: #A80036; stroke-width: 2.0;"/><text fill="#000000" font-family="sans-serif" font-size="14" lengthAdjust="spacingAndGlyphs" textLength="31" x="65" y="1305.9609">User</text><ellipse cx="83.5" cy="1318.9141" fill="#FEFECE" filter="url(#f1)" rx="8" ry="8" style="stroke: #A80036; stroke-width: 2.0;"/><path d="M83.5,1326.9141 L83.5,1353.9141 M70.5,1334.9141 L96.5,1334.9141 M83.5,1353.9141 L70.5,1368.9141 M83.5,1353.9141 L96.5,1368.9141 " fill="#FEFECE" filter="url(#f1)" style="stroke: #A80036; stroke-width: 2.0;"/><rect fill="#FEFECE" filter="url(#f1)" height="30.4883" style="stroke: #A80036; stroke-width: 1.5;" width="109" x="151" y="51"/><text fill="#000000" font-family="sans-serif" font-size="14" lengthAdjust="spacingAndGlyphs" textLength="95" x="158" y="71.5352">WebExMgrAPI</text><rect fill="#FEFECE" filter="url(#f1)" height="30.4883" style="stroke: #A80036; stroke-width: 1.5;" width="109" x="151" y="1292.4258"/><text fill="#000000" font-family="sans-serif" font-size="14" lengthAdjust="spacingAndGlyphs" textLength="95" x="158" y="1312.9609">WebExMgrAPI</text><rect fill="#FEFECE" filter="url(#f1)" height="30.4883" style="stroke: #A80036; stroke-width: 1.5;" width="116" x="274" y="51"/><text fill="#000000" font-family="sans-serif" font-size="14" lengthAdjust="spacingAndGlyphs" textLength="102" x="281" y="71.5352">CWebExMgrCtl</text><rect fill="#FEFECE" filter="url(#f1)" height="30.4883" style="stroke: #A80036; stroke-width: 1.5;" width="116" x="274" y="1292.4258"/><text fill="#000000" font-family="sans-serif" font-size="14" lengthAdjust="spacingAndGlyphs" textLength="102" x="281" y="1312.9609">CWebExMgrCtl</text><rect fill="#FEFECE" filter="url(#f1)" height="30.4883" style="stroke: #A80036; stroke-width: 1.5;" width="87" x="404" y="51"/><text fill="#000000" font-family="sans-serif" font-size="14" lengthAdjust="spacingAndGlyphs" textLength="73" x="411" y="71.5352">CMCUIMgr</text><rect fill="#FEFECE" filter="url(#f1)" height="30.4883" style="stroke: #A80036; stroke-width: 1.5;" width="87" x="404" y="1292.4258"/><text fill="#000000" font-family="sans-serif" font-size="14" lengthAdjust="spacingAndGlyphs" textLength="73" x="411" y="1312.9609">CMCUIMgr</text><rect fill="#FEFECE" filter="url(#f1)" height="30.4883" style="stroke: #A80036; stroke-width: 1.5;" width="135" x="505" y="51"/><text fill="#000000" font-family="sans-serif" font-size="14" lengthAdjust="spacingAndGlyphs" textLength="121" x="512" y="71.5352">CMCDocshowMgr</text><rect fill="#FEFECE" filter="url(#f1)" height="30.4883" style="stroke: #A80036; stroke-width: 1.5;" width="135" x="505" y="1292.4258"/><text fill="#000000" font-family="sans-serif" font-size="14" lengthAdjust="spacingAndGlyphs" textLength="121" x="512" y="1312.9609">CMCDocshowMgr</text><rect fill="#FEFECE" filter="url(#f1)" height="30.4883" style="stroke: #A80036; stroke-width: 1.5;" width="171" x="667" y="51"/><text fill="#000000" font-family="sans-serif" font-size="14" lengthAdjust="spacingAndGlyphs" textLength="157" x="674" y="71.5352">CMCDocshowXmlParse</text><rect fill="#FEFECE" filter="url(#f1)" height="30.4883" style="stroke: #A80036; stroke-width: 1.5;" width="171" x="667" y="1292.4258"/><text fill="#000000" font-family="sans-serif" font-size="14" lengthAdjust="spacingAndGlyphs" textLength="157" x="674" y="1312.9609">CMCDocshowXmlParse</text><rect fill="#FEFECE" filter="url(#f1)" height="30.4883" style="stroke: #A80036; stroke-width: 1.5;" width="66" x="852" y="51"/><text fill="#000000" font-family="sans-serif" font-size="14" lengthAdjust="spacingAndGlyphs" textLength="52" x="859" y="71.5352">CAbout</text><rect fill="#FEFECE" filter="url(#f1)" height="30.4883" style="stroke: #A80036; stroke-width: 1.5;" width="66" x="852" y="1292.4258"/><text fill="#000000" font-family="sans-serif" font-size="14" lengthAdjust="spacingAndGlyphs" textLength="52" x="859" y="1312.9609">CAbout</text><rect fill="#FEFECE" filter="url(#f1)" height="30.4883" style="stroke: #A80036; stroke-width: 1.5;" width="121" x="964.5" y="51"/><text fill="#000000" font-family="sans-serif" font-size="14" lengthAdjust="spacingAndGlyphs" textLength="107" x="971.5" y="71.5352">CMCServiceMgr</text><rect fill="#FEFECE" filter="url(#f1)" height="30.4883" style="stroke: #A80036; stroke-width: 1.5;" width="121" x="964.5" y="1292.4258"/><text fill="#000000" font-family="sans-serif" font-size="14" lengthAdjust="spacingAndGlyphs" textLength="107" x="971.5" y="1312.9609">CMCServiceMgr</text><rect fill="#FEFECE" filter="url(#f1)" height="30.4883" style="stroke: #A80036; stroke-width: 1.5;" width="123" x="1120.5" y="51"/><text fill="#000000" font-family="sans-serif" font-size="14" lengthAdjust="spacingAndGlyphs" textLength="109" x="1127.5" y="71.5352">CPfwServiceMgr</text><rect fill="#FEFECE" filter="url(#f1)" height="30.4883" style="stroke: #A80036; stroke-width: 1.5;" width="123" x="1120.5" y="1292.4258"/><text fill="#000000" font-family="sans-serif" font-size="14" lengthAdjust="spacingAndGlyphs" textLength="109" x="1127.5" y="1312.9609">CPfwServiceMgr</text><rect fill="#FEFECE" filter="url(#f1)" height="30.4883" style="stroke: #A80036; stroke-width: 1.5;" width="139" x="1257.5" y="51"/><text fill="#000000" font-family="sans-serif" font-size="14" lengthAdjust="spacingAndGlyphs" textLength="125" x="1264.5" y="71.5352">CConfContextMgr</text><rect fill="#FEFECE" filter="url(#f1)" height="30.4883" style="stroke: #A80036; stroke-width: 1.5;" width="139" x="1257.5" y="1292.4258"/><text fill="#000000" font-family="sans-serif" font-size="14" lengthAdjust="spacingAndGlyphs" textLength="125" x="1264.5" y="1312.9609">CConfContextMgr</text><rect fill="#FEFECE" filter="url(#f1)" height="30.4883" style="stroke: #A80036; stroke-width: 1.5;" width="176" x="1519" y="51"/><text fill="#000000" font-family="sans-serif" font-size="14" lengthAdjust="spacingAndGlyphs" textLength="162" x="1526" y="71.5352">CContextMgrParamMgr</text><rect fill="#FEFECE" filter="url(#f1)" height="30.4883" style="stroke: #A80036; stroke-width: 1.5;" width="176" x="1519" y="1292.4258"/><text fill="#000000" font-family="sans-serif" font-size="14" lengthAdjust="spacingAndGlyphs" textLength="162" x="1526" y="1312.9609">CContextMgrParamMgr</text><rect fill="#FEFECE" filter="url(#f1)" height="30.4883" style="stroke: #A80036; stroke-width: 1.5;" width="155" x="1709" y="51"/><text fill="#000000" font-family="sans-serif" font-size="14" lengthAdjust="spacingAndGlyphs" textLength="141" x="1716" y="71.5352">CConfContextParam</text><rect fill="#FEFECE" filter="url(#f1)" height="30.4883" style="stroke: #A80036; stroke-width: 1.5;" width="155" x="1709" y="1292.4258"/><text fill="#000000" font-family="sans-serif" font-size="14" lengthAdjust="spacingAndGlyphs" textLength="141" x="1716" y="1312.9609">CConfContextParam</text><rect fill="#EEEEEE" filter="url(#f1)" height="3" style="stroke: #EEEEEE; stroke-width: 1.0;" width="1870" x="3" y="117.1436"/><line style="stroke: #000000; stroke-width: 1.0;" x1="3" x2="1873" y1="117.1436" y2="117.1436"/><line style="stroke: #000000; stroke-width: 1.0;" x1="3" x2="1873" y1="120.1436" y2="120.1436"/><rect fill="#EEEEEE" filter="url(#f1)" height="23.3105" style="stroke: #000000; stroke-width: 2.0;" width="136" x="870" y="106.4883"/><text fill="#000000" font-family="sans-serif" font-size="13" font-weight="bold" lengthAdjust="spacingAndGlyphs" textLength="118" x="876" y="123.0566">Set Client Version</text><polygon fill="#A80036" points="195.5,156.7988,205.5,160.7988,195.5,164.7988,199.5,160.7988" style="stroke: #A80036; stroke-width: 1.0;"/><line style="stroke: #A80036; stroke-width: 1.0;" x1="31.5" x2="201.5" y1="160.7988" y2="160.7988"/><text fill="#000000" font-family="sans-serif" font-size="13" lengthAdjust="spacingAndGlyphs" textLength="152" x="38.5" y="156.3672">NameValue(clientparam)</text><polygon fill="#A80036" points="322,186.1094,332,190.1094,322,194.1094,326,190.1094" style="stroke: #A80036; stroke-width: 1.0;"/><line style="stroke: #A80036; stroke-width: 1.0;" x1="207.5" x2="328" y1="190.1094" y2="190.1094"/><text fill="#000000" font-family="sans-serif" font-size="13" lengthAdjust="spacingAndGlyphs" textLength="97" x="214.5" y="185.6777">MC_NameValue</text><polygon fill="#A80036" points="562.5,215.4199,572.5,219.4199,562.5,223.4199,566.5,219.4199" style="stroke: #A80036; stroke-width: 1.0;"/><line style="stroke: #A80036; stroke-width: 1.0;" x1="334" x2="568.5" y1="219.4199" y2="219.4199"/><text fill="#000000" font-family="sans-serif" font-size="13" lengthAdjust="spacingAndGlyphs" textLength="138" x="341" y="214.9883">SetDocshowXmlString</text><polygon fill="#A80036" points="742.5,244.7305,752.5,248.7305,742.5,252.7305,746.5,248.7305" style="stroke: #A80036; stroke-width: 1.0;"/><line style="stroke: #A80036; stroke-width: 1.0;" x1="574.5" x2="748.5" y1="248.7305" y2="248.7305"/><text fill="#000000" font-family="sans-serif" font-size="13" lengthAdjust="spacingAndGlyphs" textLength="138" x="581.5" y="244.2988">SetDocshowXmlString</text><polygon fill="#A80036" points="562.5,274.041,572.5,278.041,562.5,282.041,566.5,278.041" style="stroke: #A80036; stroke-width: 1.0;"/><line style="stroke: #A80036; stroke-width: 1.0;" x1="334" x2="568.5" y1="278.041" y2="278.041"/><text fill="#000000" font-family="sans-serif" font-size="13" lengthAdjust="spacingAndGlyphs" textLength="117" x="341" y="273.6094">ProcessParameters</text><line style="stroke: #A80036; stroke-width: 1.0;" x1="574.5" x2="616.5" y1="307.6621" y2="307.6621"/><line style="stroke: #A80036; stroke-width: 1.0;" x1="616.5" x2="616.5" y1="307.6621" y2="320.6621"/><line style="stroke: #A80036; stroke-width: 1.0;" x1="575.5" x2="616.5" y1="320.6621" y2="320.6621"/><polygon fill="#A80036" points="585.5,316.6621,575.5,320.6621,585.5,324.6621,581.5,320.6621" style="stroke: #A80036; stroke-width: 1.0;"/><text fill="#000000" font-family="sans-serif" font-size="13" lengthAdjust="spacingAndGlyphs" textLength="117" x="581.5" y="302.9199">SetHardcodeParam</text><line style="stroke: #A80036; stroke-width: 1.0;" x1="574.5" x2="616.5" y1="349.9727" y2="349.9727"/><line style="stroke: #A80036; stroke-width: 1.0;" x1="616.5" x2="616.5" y1="349.9727" y2="362.9727"/><line style="stroke: #A80036; stroke-width: 1.0;" x1="575.5" x2="616.5" y1="362.9727" y2="362.9727"/><polygon fill="#A80036" points="585.5,358.9727,575.5,362.9727,585.5,366.9727,581.5,362.9727" style="stroke: #A80036; stroke-width: 1.0;"/><text fill="#000000" font-family="sans-serif" font-size="13" lengthAdjust="spacingAndGlyphs" textLength="109" x="581.5" y="345.2305">ProcessSiteParam</text><polygon fill="#A80036" points="1317,387.9727,1327,391.9727,1317,395.9727,1321,391.9727" style="stroke: #A80036; stroke-width: 1.0;"/><line style="stroke: #A80036; stroke-width: 1.0;" x1="574.5" x2="1323" y1="391.9727" y2="391.9727"/><text fill="#000000" font-family="sans-serif" font-size="13" lengthAdjust="spacingAndGlyphs" textLength="163" x="581.5" y="387.541">SetAboutDlgClientVersion</text><line style="stroke: #A80036; stroke-width: 1.0;" x1="574.5" x2="616.5" y1="421.5938" y2="421.5938"/><line style="stroke: #A80036; stroke-width: 1.0;" x1="616.5" x2="616.5" y1="421.5938" y2="434.5938"/><line style="stroke: #A80036; stroke-width: 1.0;" x1="575.5" x2="616.5" y1="434.5938" y2="434.5938"/><polygon fill="#A80036" points="585.5,430.5938,575.5,434.5938,585.5,438.5938,581.5,434.5938" style="stroke: #A80036; stroke-width: 1.0;"/><text fill="#000000" font-family="sans-serif" font-size="13" lengthAdjust="spacingAndGlyphs" textLength="136" x="581.5" y="416.8516">ProcessMeetingParam</text><line style="stroke: #A80036; stroke-width: 1.0;" x1="574.5" x2="616.5" y1="463.9043" y2="463.9043"/><line style="stroke: #A80036; stroke-width: 1.0;" x1="616.5" x2="616.5" y1="463.9043" y2="476.9043"/><line style="stroke: #A80036; stroke-width: 1.0;" x1="575.5" x2="616.5" y1="476.9043" y2="476.9043"/><polygon fill="#A80036" points="585.5,472.9043,575.5,476.9043,585.5,480.9043,581.5,476.9043" style="stroke: #A80036; stroke-width: 1.0;"/><text fill="#000000" font-family="sans-serif" font-size="13" lengthAdjust="spacingAndGlyphs" textLength="103" x="581.5" y="459.1621">ProcessPDParam</text><line style="stroke: #A80036; stroke-width: 1.0;" x1="574.5" x2="616.5" y1="506.2148" y2="506.2148"/><line style="stroke: #A80036; stroke-width: 1.0;" x1="616.5" x2="616.5" y1="506.2148" y2="519.2148"/><line style="stroke: #A80036; stroke-width: 1.0;" x1="575.5" x2="616.5" y1="519.2148" y2="519.2148"/><polygon fill="#A80036" points="585.5,515.2148,575.5,519.2148,585.5,523.2148,581.5,519.2148" style="stroke: #A80036; stroke-width: 1.0;"/><text fill="#000000" font-family="sans-serif" font-size="13" lengthAdjust="spacingAndGlyphs" textLength="102" x="581.5" y="501.4727">ProcessASParam</text><line style="stroke: #A80036; stroke-width: 1.0;" x1="574.5" x2="616.5" y1="548.5254" y2="548.5254"/><line style="stroke: #A80036; stroke-width: 1.0;" x1="616.5" x2="616.5" y1="548.5254" y2="561.5254"/><line style="stroke: #A80036; stroke-width: 1.0;" x1="575.5" x2="616.5" y1="561.5254" y2="561.5254"/><polygon fill="#A80036" points="585.5,557.5254,575.5,561.5254,585.5,565.5254,581.5,561.5254" style="stroke: #A80036; stroke-width: 1.0;"/><text fill="#000000" font-family="sans-serif" font-size="13" lengthAdjust="spacingAndGlyphs" textLength="114" x="581.5" y="543.7832">ProcessUserParam</text><line style="stroke: #A80036; stroke-width: 1.0;" x1="574.5" x2="616.5" y1="590.8359" y2="590.8359"/><line style="stroke: #A80036; stroke-width: 1.0;" x1="616.5" x2="616.5" y1="590.8359" y2="603.8359"/><line style="stroke: #A80036; stroke-width: 1.0;" x1="575.5" x2="616.5" y1="603.8359" y2="603.8359"/><polygon fill="#A80036" points="585.5,599.8359,575.5,603.8359,585.5,607.8359,581.5,603.8359" style="stroke: #A80036; stroke-width: 1.0;"/><text fill="#000000" font-family="sans-serif" font-size="13" lengthAdjust="spacingAndGlyphs" textLength="166" x="581.5" y="586.0938">ProcessMeetingTypeParam</text><line style="stroke: #A80036; stroke-width: 1.0;" x1="574.5" x2="616.5" y1="633.1465" y2="633.1465"/><line style="stroke: #A80036; stroke-width: 1.0;" x1="616.5" x2="616.5" y1="633.1465" y2="646.1465"/><line style="stroke: #A80036; stroke-width: 1.0;" x1="575.5" x2="616.5" y1="646.1465" y2="646.1465"/><polygon fill="#A80036" points="585.5,642.1465,575.5,646.1465,585.5,650.1465,581.5,646.1465" style="stroke: #A80036; stroke-width: 1.0;"/><text fill="#000000" font-family="sans-serif" font-size="13" lengthAdjust="spacingAndGlyphs" textLength="151" x="581.5" y="628.4043">ProcessTelephonyParam</text><line style="stroke: #A80036; stroke-width: 1.0;" x1="574.5" x2="616.5" y1="675.457" y2="675.457"/><line style="stroke: #A80036; stroke-width: 1.0;" x1="616.5" x2="616.5" y1="675.457" y2="688.457"/><line style="stroke: #A80036; stroke-width: 1.0;" x1="575.5" x2="616.5" y1="688.457" y2="688.457"/><polygon fill="#A80036" points="585.5,684.457,575.5,688.457,585.5,692.457,581.5,688.457" style="stroke: #A80036; stroke-width: 1.0;"/><text fill="#000000" font-family="sans-serif" font-size="13" lengthAdjust="spacingAndGlyphs" textLength="158" x="581.5" y="670.7148">ProcessAudioVideoParam</text><line style="stroke: #A80036; stroke-width: 1.0;" x1="574.5" x2="616.5" y1="717.7676" y2="717.7676"/><line style="stroke: #A80036; stroke-width: 1.0;" x1="616.5" x2="616.5" y1="717.7676" y2="730.7676"/><line style="stroke: #A80036; stroke-width: 1.0;" x1="575.5" x2="616.5" y1="730.7676" y2="730.7676"/><polygon fill="#A80036" points="585.5,726.7676,575.5,730.7676,585.5,734.7676,581.5,730.7676" style="stroke: #A80036; stroke-width: 1.0;"/><text fill="#000000" font-family="sans-serif" font-size="13" lengthAdjust="spacingAndGlyphs" textLength="111" x="581.5" y="713.0254">ProcessNBRParam</text><line style="stroke: #A80036; stroke-width: 1.0;" x1="574.5" x2="616.5" y1="760.0781" y2="760.0781"/><line style="stroke: #A80036; stroke-width: 1.0;" x1="616.5" x2="616.5" y1="760.0781" y2="773.0781"/><line style="stroke: #A80036; stroke-width: 1.0;" x1="575.5" x2="616.5" y1="773.0781" y2="773.0781"/><polygon fill="#A80036" points="585.5,769.0781,575.5,773.0781,585.5,777.0781,581.5,773.0781" style="stroke: #A80036; stroke-width: 1.0;"/><text fill="#000000" font-family="sans-serif" font-size="13" lengthAdjust="spacingAndGlyphs" textLength="136" x="581.5" y="755.3359">ProcessSecurityParam</text><line style="stroke: #A80036; stroke-width: 1.0;" x1="574.5" x2="616.5" y1="802.3887" y2="802.3887"/><line style="stroke: #A80036; stroke-width: 1.0;" x1="616.5" x2="616.5" y1="802.3887" y2="815.3887"/><line style="stroke: #A80036; stroke-width: 1.0;" x1="575.5" x2="616.5" y1="815.3887" y2="815.3887"/><polygon fill="#A80036" points="585.5,811.3887,575.5,815.3887,585.5,819.3887,581.5,815.3887" style="stroke: #A80036; stroke-width: 1.0;"/><text fill="#000000" font-family="sans-serif" font-size="13" lengthAdjust="spacingAndGlyphs" textLength="117" x="581.5" y="797.6465">ProcessURLsParam</text><line style="stroke: #A80036; stroke-width: 1.0;" x1="574.5" x2="616.5" y1="844.6992" y2="844.6992"/><line style="stroke: #A80036; stroke-width: 1.0;" x1="616.5" x2="616.5" y1="844.6992" y2="857.6992"/><line style="stroke: #A80036; stroke-width: 1.0;" x1="575.5" x2="616.5" y1="857.6992" y2="857.6992"/><polygon fill="#A80036" points="585.5,853.6992,575.5,857.6992,585.5,861.6992,581.5,857.6992" style="stroke: #A80036; stroke-width: 1.0;"/><text fill="#000000" font-family="sans-serif" font-size="13" lengthAdjust="spacingAndGlyphs" textLength="140" x="581.5" y="839.957">ProcessWebACDParam</text><line style="stroke: #A80036; stroke-width: 1.0;" x1="574.5" x2="616.5" y1="887.0098" y2="887.0098"/><line style="stroke: #A80036; stroke-width: 1.0;" x1="616.5" x2="616.5" y1="887.0098" y2="900.0098"/><line style="stroke: #A80036; stroke-width: 1.0;" x1="575.5" x2="616.5" y1="900.0098" y2="900.0098"/><polygon fill="#A80036" points="585.5,896.0098,575.5,900.0098,585.5,904.0098,581.5,900.0098" style="stroke: #A80036; stroke-width: 1.0;"/><text fill="#000000" font-family="sans-serif" font-size="13" lengthAdjust="spacingAndGlyphs" textLength="137" x="581.5" y="882.2676">ProcessNewJMAParam</text><rect fill="#EEEEEE" filter="url(#f1)" height="3" style="stroke: #EEEEEE; stroke-width: 1.0;" width="1870" x="3" y="928.665"/><line style="stroke: #000000; stroke-width: 1.0;" x1="3" x2="1873" y1="928.665" y2="928.665"/><line style="stroke: #000000; stroke-width: 1.0;" x1="3" x2="1873" y1="931.665" y2="931.665"/><rect fill="#EEEEEE" filter="url(#f1)" height="23.3105" style="stroke: #000000; stroke-width: 2.0;" width="507" x="684.5" y="918.0098"/><text fill="#000000" font-family="sans-serif" font-size="13" font-weight="bold" lengthAdjust="spacingAndGlyphs" textLength="108" x="690.5" y="934.5781">User click menu</text><text fill="#000000" font-family="sans-serif" font-size="13" font-weight="bold" lengthAdjust="spacingAndGlyphs" textLength="237" x="802.5" y="934.5781">About Cisco WebEx Meeting Center</text><text fill="#000000" font-family="sans-serif" font-size="13" font-weight="bold" lengthAdjust="spacingAndGlyphs" textLength="140" x="1039.5" y="934.5781">, popup about dialog</text><polygon fill="#A80036" points="437.5,968.3203,447.5,972.3203,437.5,976.3203,441.5,972.3203" style="stroke: #A80036; stroke-width: 1.0;"/><line style="stroke: #A80036; stroke-width: 1.0;" x1="83.5" x2="443.5" y1="972.3203" y2="972.3203"/><text fill="#000000" font-family="sans-serif" font-size="13" lengthAdjust="spacingAndGlyphs" textLength="85" x="90.5" y="967.8887">OnHelpAbout</text><polygon fill="#A80036" points="875,997.6309,885,1001.6309,875,1005.6309,879,1001.6309" style="stroke: #A80036; stroke-width: 1.0;"/><line style="stroke: #A80036; stroke-width: 1.0;" x1="449.5" x2="881" y1="1001.6309" y2="1001.6309"/><text fill="#000000" font-family="sans-serif" font-size="13" lengthAdjust="spacingAndGlyphs" textLength="40" x="456.5" y="997.1992">Create</text><line style="stroke: #A80036; stroke-width: 1.0;" x1="887" x2="929" y1="1031.252" y2="1031.252"/><line style="stroke: #A80036; stroke-width: 1.0;" x1="929" x2="929" y1="1031.252" y2="1044.252"/><line style="stroke: #A80036; stroke-width: 1.0;" x1="888" x2="929" y1="1044.252" y2="1044.252"/><polygon fill="#A80036" points="898,1040.252,888,1044.252,898,1048.252,894,1044.252" style="stroke: #A80036; stroke-width: 1.0;"/><text fill="#000000" font-family="sans-serif" font-size="13" lengthAdjust="spacingAndGlyphs" textLength="80" x="894" y="1026.5098">OnInitDialog</text><line style="stroke: #A80036; stroke-width: 1.0;" x1="887" x2="929" y1="1073.5625" y2="1073.5625"/><line style="stroke: #A80036; stroke-width: 1.0;" x1="929" x2="929" y1="1073.5625" y2="1086.5625"/><line style="stroke: #A80036; stroke-width: 1.0;" x1="888" x2="929" y1="1086.5625" y2="1086.5625"/><polygon fill="#A80036" points="898,1082.5625,888,1086.5625,898,1090.5625,894,1086.5625" style="stroke: #A80036; stroke-width: 1.0;"/><text fill="#000000" font-family="sans-serif" font-size="13" lengthAdjust="spacingAndGlyphs" textLength="126" x="894" y="1068.8203">InitializeVersionInfo</text><polygon fill="#A80036" points="1317,1111.5625,1327,1115.5625,1317,1119.5625,1321,1115.5625" style="stroke: #A80036; stroke-width: 1.0;"/><line style="stroke: #A80036; stroke-width: 1.0;" x1="887" x2="1323" y1="1115.5625" y2="1115.5625"/><text fill="#000000" font-family="sans-serif" font-size="13" lengthAdjust="spacingAndGlyphs" textLength="165" x="894" y="1111.1309">GetAboutDlgClientVersion</text><polygon fill="#A80036" points="1597,1140.873,1607,1144.873,1597,1148.873,1601,1144.873" style="stroke: #A80036; stroke-width: 1.0;"/><line style="stroke: #A80036; stroke-width: 1.0;" x1="1329" x2="1603" y1="1144.873" y2="1144.873"/><text fill="#000000" font-family="sans-serif" font-size="13" lengthAdjust="spacingAndGlyphs" textLength="256" x="1336" y="1140.4414">GetParamString($AboutDlgClientVersion)</text><line style="stroke: #A80036; stroke-width: 1.0;" x1="1609" x2="1651" y1="1174.4941" y2="1174.4941"/><line style="stroke: #A80036; stroke-width: 1.0;" x1="1651" x2="1651" y1="1174.4941" y2="1187.4941"/><line style="stroke: #A80036; stroke-width: 1.0;" x1="1610" x2="1651" y1="1187.4941" y2="1187.4941"/><polygon fill="#A80036" points="1620,1183.4941,1610,1187.4941,1620,1191.4941,1616,1187.4941" style="stroke: #A80036; stroke-width: 1.0;"/><text fill="#000000" font-family="sans-serif" font-size="13" lengthAdjust="spacingAndGlyphs" textLength="59" x="1616" y="1169.752">GetParam</text><polygon fill="#A80036" points="1776.5,1212.4941,1786.5,1216.4941,1776.5,1220.4941,1780.5,1216.4941" style="stroke: #A80036; stroke-width: 1.0;"/><line style="stroke: #A80036; stroke-width: 1.0;" x1="1609" x2="1782.5" y1="1216.4941" y2="1216.4941"/><text fill="#000000" font-family="sans-serif" font-size="13" lengthAdjust="spacingAndGlyphs" textLength="55" x="1616" y="1212.0625">GetValue</text><polygon fill="#A80036" points="1015,1241.8047,1025,1245.8047,1015,1249.8047,1019,1245.8047" style="stroke: #A80036; stroke-width: 1.0;"/><line style="stroke: #A80036; stroke-width: 1.0;" x1="449.5" x2="1021" y1="1245.8047" y2="1245.8047"/><text fill="#000000" font-family="sans-serif" font-size="13" lengthAdjust="spacingAndGlyphs" textLength="133" x="456.5" y="1241.373">ShowModelessDialog</text><polygon fill="#A80036" points="1172,1271.1152,1182,1275.1152,1172,1279.1152,1176,1275.1152" style="stroke: #A80036; stroke-width: 1.0;"/><line style="stroke: #A80036; stroke-width: 1.0;" x1="1027" x2="1178" y1="1275.1152" y2="1275.1152"/><text fill="#000000" font-family="sans-serif" font-size="13" lengthAdjust="spacingAndGlyphs" textLength="133" x="1034" y="1270.6836">ShowModelessDialog</text></g></svg>