<?xml version="1.0" encoding="UTF-8" standalone="yes"?><svg xmlns="http://www.w3.org/2000/svg" xmlns:xlink="http://www.w3.org/1999/xlink" height="771pt" style="width:1468px;height:771px;" version="1.1" viewBox="0 0 1468 771" width="1468pt"><defs><filter height="300%" id="f1" width="300%" x="-1" y="-1"><feGaussianBlur result="blurOut" stdDeviation="2.0"/><feColorMatrix in="blurOut" result="blurOut2" type="matrix" values="0 0 0 0 0 0 0 0 0 0 0 0 0 0 0 0 0 0 .4 0"/><feOffset dx="4.0" dy="4.0" in="blurOut2" result="blurOut3"/><feBlend in="SourceGraphic" in2="blurOut3" mode="normal"/></filter></defs><g><rect fill="#DDDDDD" height="766.2559" style="stroke: #A80036; stroke-width: 1.0;" width="830" x="148" y="4"/><text fill="#000000" font-family="sans-serif" font-size="13" font-weight="bold" lengthAdjust="spacingAndGlyphs" textLength="72" x="527" y="16.5684">WebExMgr</text><rect fill="#DDDDDD" height="766.2559" style="stroke: #A80036; stroke-width: 1.0;" width="82" x="980" y="4"/><text fill="#000000" font-family="sans-serif" font-size="13" font-weight="bold" lengthAdjust="spacingAndGlyphs" textLength="61" x="990.5" y="16.5684">atpdmod</text><rect fill="#DDDDDD" height="766.2559" style="stroke: #A80036; stroke-width: 1.0;" width="228" x="1108.5" y="4"/><text fill="#000000" font-family="sans-serif" font-size="13" font-weight="bold" lengthAdjust="spacingAndGlyphs" textLength="37" x="1204" y="16.5684">dvsrc</text><rect fill="#DDDDDD" height="766.2559" style="stroke: #A80036; stroke-width: 1.0;" width="124" x="1338.5" y="4"/><text fill="#000000" font-family="sans-serif" font-size="13" font-weight="bold" lengthAdjust="spacingAndGlyphs" textLength="47" x="1377" y="16.5684">pdcore</text><line style="stroke: #A80036; stroke-width: 1.0; stroke-dasharray: 5.0,5.0;" x1="26" x2="26" y1="86.4883" y2="683.7676"/><line style="stroke: #A80036; stroke-width: 1.0; stroke-dasharray: 5.0,5.0;" x1="197" x2="197" y1="86.4883" y2="683.7676"/><line style="stroke: #A80036; stroke-width: 1.0; stroke-dasharray: 5.0,5.0;" x1="378" x2="378" y1="86.4883" y2="683.7676"/><line style="stroke: #A80036; stroke-width: 1.0; stroke-dasharray: 5.0,5.0;" x1="538" x2="538" y1="86.4883" y2="683.7676"/><line style="stroke: #A80036; stroke-width: 1.0; stroke-dasharray: 5.0,5.0;" x1="711" x2="711" y1="86.4883" y2="683.7676"/><line style="stroke: #A80036; stroke-width: 1.0; stroke-dasharray: 5.0,5.0;" x1="883" x2="883" y1="86.4883" y2="683.7676"/><line style="stroke: #A80036; stroke-width: 1.0; stroke-dasharray: 5.0,5.0;" x1="1021" x2="1021" y1="86.4883" y2="683.7676"/><line style="stroke: #A80036; stroke-width: 1.0; stroke-dasharray: 5.0,5.0;" x1="1148.5" x2="1148.5" y1="86.4883" y2="683.7676"/><line style="stroke: #A80036; stroke-width: 1.0; stroke-dasharray: 5.0,5.0;" x1="1267.5" x2="1267.5" y1="86.4883" y2="683.7676"/><line style="stroke: #A80036; stroke-width: 1.0; stroke-dasharray: 5.0,5.0;" x1="1400.5" x2="1400.5" y1="86.4883" y2="683.7676"/><text fill="#000000" font-family="sans-serif" font-size="14" lengthAdjust="spacingAndGlyphs" textLength="31" x="8" y="83.5352">User</text><ellipse cx="26.5" cy="13" fill="#FEFECE" filter="url(#f1)" rx="8" ry="8" style="stroke: #A80036; stroke-width: 2.0;"/><path d="M26.5,21 L26.5,48 M13.5,29 L39.5,29 M26.5,48 L13.5,63 M26.5,48 L39.5,63 " fill="#FEFECE" filter="url(#f1)" style="stroke: #A80036; stroke-width: 2.0;"/><text fill="#000000" font-family="sans-serif" font-size="14" lengthAdjust="spacingAndGlyphs" textLength="31" x="8" y="696.3027">User</text><ellipse cx="26.5" cy="709.2559" fill="#FEFECE" filter="url(#f1)" rx="8" ry="8" style="stroke: #A80036; stroke-width: 2.0;"/><path d="M26.5,717.2559 L26.5,744.2559 M13.5,725.2559 L39.5,725.2559 M26.5,744.2559 L13.5,759.2559 M26.5,744.2559 L39.5,759.2559 " fill="#FEFECE" filter="url(#f1)" style="stroke: #A80036; stroke-width: 2.0;"/><rect fill="#FEFECE" filter="url(#f1)" height="30.4883" style="stroke: #A80036; stroke-width: 1.5;" width="87" x="152" y="51"/><text fill="#000000" font-family="sans-serif" font-size="14" lengthAdjust="spacingAndGlyphs" textLength="73" x="159" y="71.5352">CMCUIMgr</text><rect fill="#FEFECE" filter="url(#f1)" height="30.4883" style="stroke: #A80036; stroke-width: 1.5;" width="87" x="152" y="682.7676"/><text fill="#000000" font-family="sans-serif" font-size="14" lengthAdjust="spacingAndGlyphs" textLength="73" x="159" y="703.3027">CMCUIMgr</text><rect fill="#FEFECE" filter="url(#f1)" height="30.4883" style="stroke: #A80036; stroke-width: 1.5;" width="109" x="322" y="51"/><text fill="#000000" font-family="sans-serif" font-size="14" lengthAdjust="spacingAndGlyphs" textLength="95" x="329" y="71.5352">CSmDefUIMgr</text><rect fill="#FEFECE" filter="url(#f1)" height="30.4883" style="stroke: #A80036; stroke-width: 1.5;" width="109" x="322" y="682.7676"/><text fill="#000000" font-family="sans-serif" font-size="14" lengthAdjust="spacingAndGlyphs" textLength="95" x="329" y="703.3027">CSmDefUIMgr</text><rect fill="#FEFECE" filter="url(#f1)" height="30.4883" style="stroke: #A80036; stroke-width: 1.5;" width="182" x="445" y="51"/><text fill="#000000" font-family="sans-serif" font-size="14" lengthAdjust="spacingAndGlyphs" textLength="168" x="452" y="71.5352">CSmDocViewSessionMgr</text><rect fill="#FEFECE" filter="url(#f1)" height="30.4883" style="stroke: #A80036; stroke-width: 1.5;" width="182" x="445" y="682.7676"/><text fill="#000000" font-family="sans-serif" font-size="14" lengthAdjust="spacingAndGlyphs" textLength="168" x="452" y="703.3027">CSmDocViewSessionMgr</text><rect fill="#FEFECE" filter="url(#f1)" height="30.4883" style="stroke: #A80036; stroke-width: 1.5;" width="137" x="641" y="51"/><text fill="#000000" font-family="sans-serif" font-size="14" lengthAdjust="spacingAndGlyphs" textLength="123" x="648" y="71.5352">CPcmDocViewMgr</text><rect fill="#FEFECE" filter="url(#f1)" height="30.4883" style="stroke: #A80036; stroke-width: 1.5;" width="137" x="641" y="682.7676"/><text fill="#000000" font-family="sans-serif" font-size="14" lengthAdjust="spacingAndGlyphs" textLength="123" x="648" y="703.3027">CPcmDocViewMgr</text><rect fill="#FEFECE" filter="url(#f1)" height="30.4883" style="stroke: #A80036; stroke-width: 1.5;" width="178" x="792" y="51"/><text fill="#000000" font-family="sans-serif" font-size="14" lengthAdjust="spacingAndGlyphs" textLength="164" x="799" y="71.5352">CPcmDocViewContainer</text><rect fill="#FEFECE" filter="url(#f1)" height="30.4883" style="stroke: #A80036; stroke-width: 1.5;" width="178" x="792" y="682.7676"/><text fill="#000000" font-family="sans-serif" font-size="14" lengthAdjust="spacingAndGlyphs" textLength="164" x="799" y="703.3027">CPcmDocViewContainer</text><rect fill="#FEFECE" filter="url(#f1)" height="30.4883" style="stroke: #A80036; stroke-width: 1.5;" width="70" x="984" y="51"/><text fill="#000000" font-family="sans-serif" font-size="14" lengthAdjust="spacingAndGlyphs" textLength="56" x="991" y="71.5352">CPDApp</text><rect fill="#FEFECE" filter="url(#f1)" height="30.4883" style="stroke: #A80036; stroke-width: 1.5;" width="70" x="984" y="682.7676"/><text fill="#000000" font-family="sans-serif" font-size="14" lengthAdjust="spacingAndGlyphs" textLength="56" x="991" y="703.3027">CPDApp</text><rect fill="#FEFECE" filter="url(#f1)" height="30.4883" style="stroke: #A80036; stroke-width: 1.5;" width="69" x="1112.5" y="51"/><text fill="#000000" font-family="sans-serif" font-size="14" lengthAdjust="spacingAndGlyphs" textLength="55" x="1119.5" y="71.5352">CDvApp</text><rect fill="#FEFECE" filter="url(#f1)" height="30.4883" style="stroke: #A80036; stroke-width: 1.5;" width="69" x="1112.5" y="682.7676"/><text fill="#000000" font-family="sans-serif" font-size="14" lengthAdjust="spacingAndGlyphs" textLength="55" x="1119.5" y="703.3027">CDvApp</text><rect fill="#FEFECE" filter="url(#f1)" height="30.4883" style="stroke: #A80036; stroke-width: 1.5;" width="125" x="1203.5" y="51"/><text fill="#000000" font-family="sans-serif" font-size="14" lengthAdjust="spacingAndGlyphs" textLength="111" x="1210.5" y="71.5352">CDvRemoteView</text><rect fill="#FEFECE" filter="url(#f1)" height="30.4883" style="stroke: #A80036; stroke-width: 1.5;" width="125" x="1203.5" y="682.7676"/><text fill="#000000" font-family="sans-serif" font-size="14" lengthAdjust="spacingAndGlyphs" textLength="111" x="1210.5" y="703.3027">CDvRemoteView</text><rect fill="#FEFECE" filter="url(#f1)" height="30.4883" style="stroke: #A80036; stroke-width: 1.5;" width="112" x="1342.5" y="51"/><text fill="#000000" font-family="sans-serif" font-size="14" lengthAdjust="spacingAndGlyphs" textLength="98" x="1349.5" y="71.5352">CPDDocument</text><rect fill="#FEFECE" filter="url(#f1)" height="30.4883" style="stroke: #A80036; stroke-width: 1.5;" width="112" x="1342.5" y="682.7676"/><text fill="#000000" font-family="sans-serif" font-size="14" lengthAdjust="spacingAndGlyphs" textLength="98" x="1349.5" y="703.3027">CPDDocument</text><rect fill="#EEEEEE" filter="url(#f1)" height="3" style="stroke: #EEEEEE; stroke-width: 1.0;" width="1460.5" x="3" y="117.1436"/><line style="stroke: #000000; stroke-width: 1.0;" x1="3" x2="1463.5" y1="117.1436" y2="117.1436"/><line style="stroke: #000000; stroke-width: 1.0;" x1="3" x2="1463.5" y1="120.1436" y2="120.1436"/><rect fill="#EEEEEE" filter="url(#f1)" height="23.3105" style="stroke: #000000; stroke-width: 2.0;" width="129" x="668.75" y="106.4883"/><text fill="#000000" font-family="sans-serif" font-size="13" font-weight="bold" lengthAdjust="spacingAndGlyphs" textLength="111" x="674.75" y="123.0566">New Whiteboard</text><polygon fill="#A80036" points="185.5,156.7988,195.5,160.7988,185.5,164.7988,189.5,160.7988" style="stroke: #A80036; stroke-width: 1.0;"/><line style="stroke: #A80036; stroke-width: 1.0;" x1="26.5" x2="191.5" y1="160.7988" y2="160.7988"/><text fill="#000000" font-family="sans-serif" font-size="13" lengthAdjust="spacingAndGlyphs" textLength="32" x="33.5" y="156.3672">Click</text><text fill="#000000" font-family="sans-serif" font-size="13" font-weight="bold" lengthAdjust="spacingAndGlyphs" textLength="111" x="69.5" y="156.3672">New Whiteboard</text><line style="stroke: #A80036; stroke-width: 1.0;" x1="197.5" x2="239.5" y1="190.4199" y2="190.4199"/><line style="stroke: #A80036; stroke-width: 1.0;" x1="239.5" x2="239.5" y1="190.4199" y2="203.4199"/><line style="stroke: #A80036; stroke-width: 1.0;" x1="198.5" x2="239.5" y1="203.4199" y2="203.4199"/><polygon fill="#A80036" points="208.5,199.4199,198.5,203.4199,208.5,207.4199,204.5,203.4199" style="stroke: #A80036; stroke-width: 1.0;"/><text fill="#000000" font-family="sans-serif" font-size="13" lengthAdjust="spacingAndGlyphs" textLength="123" x="204.5" y="185.6777">OnShareWhiteboard</text><line style="stroke: #A80036; stroke-width: 1.0;" x1="197.5" x2="239.5" y1="232.7305" y2="232.7305"/><line style="stroke: #A80036; stroke-width: 1.0;" x1="239.5" x2="239.5" y1="232.7305" y2="245.7305"/><line style="stroke: #A80036; stroke-width: 1.0;" x1="198.5" x2="239.5" y1="245.7305" y2="245.7305"/><polygon fill="#A80036" points="208.5,241.7305,198.5,245.7305,208.5,249.7305,204.5,245.7305" style="stroke: #A80036; stroke-width: 1.0;"/><text fill="#000000" font-family="sans-serif" font-size="13" lengthAdjust="spacingAndGlyphs" textLength="150" x="204.5" y="227.9883">LaunchWhiteboardShare</text><polygon fill="#A80036" points="366.5,270.7305,376.5,274.7305,366.5,278.7305,370.5,274.7305" style="stroke: #A80036; stroke-width: 1.0;"/><line style="stroke: #A80036; stroke-width: 1.0;" x1="197.5" x2="372.5" y1="274.7305" y2="274.7305"/><text fill="#000000" font-family="sans-serif" font-size="13" lengthAdjust="spacingAndGlyphs" textLength="157" x="204.5" y="270.2988">OnMenuShareWhiteboard</text><polygon fill="#A80036" points="526,300.041,536,304.041,526,308.041,530,304.041" style="stroke: #A80036; stroke-width: 1.0;"/><line style="stroke: #A80036; stroke-width: 1.0;" x1="378.5" x2="532" y1="304.041" y2="304.041"/><text fill="#000000" font-family="sans-serif" font-size="13" lengthAdjust="spacingAndGlyphs" textLength="98" x="385.5" y="299.6094">NewWhiteboard</text><polygon fill="#A80036" points="699.5,329.3516,709.5,333.3516,699.5,337.3516,703.5,333.3516" style="stroke: #A80036; stroke-width: 1.0;"/><line style="stroke: #A80036; stroke-width: 1.0;" x1="538" x2="705.5" y1="333.3516" y2="333.3516"/><text fill="#000000" font-family="sans-serif" font-size="13" lengthAdjust="spacingAndGlyphs" textLength="98" x="545" y="328.9199">NewWhiteboard</text><line style="stroke: #A80036; stroke-width: 1.0;" x1="711.5" x2="753.5" y1="362.9727" y2="362.9727"/><line style="stroke: #A80036; stroke-width: 1.0;" x1="753.5" x2="753.5" y1="362.9727" y2="375.9727"/><line style="stroke: #A80036; stroke-width: 1.0;" x1="712.5" x2="753.5" y1="375.9727" y2="375.9727"/><polygon fill="#A80036" points="722.5,371.9727,712.5,375.9727,722.5,379.9727,718.5,375.9727" style="stroke: #A80036; stroke-width: 1.0;"/><text fill="#000000" font-family="sans-serif" font-size="13" lengthAdjust="spacingAndGlyphs" textLength="98" x="718.5" y="358.2305">OpenDocument</text><polygon fill="#A80036" points="1009,400.9727,1019,404.9727,1009,408.9727,1013,404.9727" style="stroke: #A80036; stroke-width: 1.0;"/><line style="stroke: #A80036; stroke-width: 1.0;" x1="711.5" x2="1015" y1="404.9727" y2="404.9727"/><text fill="#000000" font-family="sans-serif" font-size="13" lengthAdjust="spacingAndGlyphs" textLength="104" x="718.5" y="400.541">ShareWhiteBoard</text><polygon fill="#A80036" points="1137,430.2832,1147,434.2832,1137,438.2832,1141,434.2832" style="stroke: #A80036; stroke-width: 1.0;"/><line style="stroke: #A80036; stroke-width: 1.0;" x1="1021" x2="1143" y1="434.2832" y2="434.2832"/><text fill="#000000" font-family="sans-serif" font-size="13" lengthAdjust="spacingAndGlyphs" textLength="104" x="1028" y="429.8516">ShareWhiteBoard</text><line style="stroke: #A80036; stroke-width: 1.0;" x1="1149" x2="1191" y1="463.9043" y2="463.9043"/><line style="stroke: #A80036; stroke-width: 1.0;" x1="1191" x2="1191" y1="463.9043" y2="476.9043"/><line style="stroke: #A80036; stroke-width: 1.0;" x1="1150" x2="1191" y1="476.9043" y2="476.9043"/><polygon fill="#A80036" points="1160,472.9043,1150,476.9043,1160,480.9043,1156,476.9043" style="stroke: #A80036; stroke-width: 1.0;"/><text fill="#000000" font-family="sans-serif" font-size="13" lengthAdjust="spacingAndGlyphs" textLength="105" x="1156" y="459.1621">CreateDocument</text><polygon fill="#A80036" points="1388.5,501.9043,1398.5,505.9043,1388.5,509.9043,1392.5,505.9043" style="stroke: #A80036; stroke-width: 1.0;"/><line style="stroke: #A80036; stroke-width: 1.0;" x1="1149" x2="1394.5" y1="505.9043" y2="505.9043"/><text fill="#000000" font-family="sans-serif" font-size="13" lengthAdjust="spacingAndGlyphs" textLength="92" x="1156" y="501.4727">OnSetAppType</text><line style="stroke: #A80036; stroke-width: 1.0;" x1="1149" x2="1191" y1="535.5254" y2="535.5254"/><line style="stroke: #A80036; stroke-width: 1.0;" x1="1191" x2="1191" y1="535.5254" y2="548.5254"/><line style="stroke: #A80036; stroke-width: 1.0;" x1="1150" x2="1191" y1="548.5254" y2="548.5254"/><polygon fill="#A80036" points="1160,544.5254,1150,548.5254,1160,552.5254,1156,548.5254" style="stroke: #A80036; stroke-width: 1.0;"/><text fill="#000000" font-family="sans-serif" font-size="13" lengthAdjust="spacingAndGlyphs" textLength="97" x="1156" y="530.7832">GetRemoteView</text><polygon fill="#A80036" points="1256,573.5254,1266,577.5254,1256,581.5254,1260,577.5254" style="stroke: #A80036; stroke-width: 1.0;"/><line style="stroke: #A80036; stroke-width: 1.0;" x1="1149" x2="1262" y1="577.5254" y2="577.5254"/><text fill="#000000" font-family="sans-serif" font-size="13" lengthAdjust="spacingAndGlyphs" textLength="68" x="1156" y="573.0938">GetNodeID</text><polygon fill="#A80036" points="1388.5,602.8359,1398.5,606.8359,1388.5,610.8359,1392.5,606.8359" style="stroke: #A80036; stroke-width: 1.0;"/><line style="stroke: #A80036; stroke-width: 1.0;" x1="1149" x2="1394.5" y1="606.8359" y2="606.8359"/><text fill="#000000" font-family="sans-serif" font-size="13" lengthAdjust="spacingAndGlyphs" textLength="58" x="1156" y="602.4043">SetDocID</text><polygon fill="#A80036" points="1388.5,632.1465,1398.5,636.1465,1388.5,640.1465,1392.5,636.1465" style="stroke: #A80036; stroke-width: 1.0;"/><line style="stroke: #A80036; stroke-width: 1.0;" x1="1149" x2="1394.5" y1="636.1465" y2="636.1465"/><text fill="#000000" font-family="sans-serif" font-size="13" lengthAdjust="spacingAndGlyphs" textLength="56" x="1156" y="631.7148">NewPage</text><polygon fill="#A80036" points="894,661.457,884,665.457,894,669.457,890,665.457" style="stroke: #A80036; stroke-width: 1.0;"/><line style="stroke: #A80036; stroke-width: 1.0;" x1="888" x2="1020" y1="665.457" y2="665.457"/><text fill="#000000" font-family="sans-serif" font-size="13" lengthAdjust="spacingAndGlyphs" textLength="93" x="900" y="661.0254">GlobalCallBack</text></g></svg>