<?xml version="1.0" encoding="UTF-8" standalone="yes"?><svg xmlns="http://www.w3.org/2000/svg" xmlns:xlink="http://www.w3.org/1999/xlink" height="793pt" style="width:865px;height:793px;" version="1.1" viewBox="0 0 865 793" width="865pt"><defs><filter height="300%" id="f1" width="300%" x="-1" y="-1"><feGaussianBlur result="blurOut" stdDeviation="2.0"/><feColorMatrix in="blurOut" result="blurOut2" type="matrix" values="0 0 0 0 0 0 0 0 0 0 0 0 0 0 0 0 0 0 .4 0"/><feOffset dx="4.0" dy="4.0" in="blurOut2" result="blurOut3"/><feBlend in="SourceGraphic" in2="blurOut3" mode="normal"/></filter></defs><g><rect fill="#FFFFFF" filter="url(#f1)" height="34.3105" style="stroke: #A80036; stroke-width: 1.0;" width="10" x="368" y="413.2383"/><rect fill="#FFFFFF" filter="url(#f1)" height="119.9316" style="stroke: #A80036; stroke-width: 1.0;" width="10" x="527" y="128.1094"/><rect fill="#FFFFFF" filter="url(#f1)" height="428.6816" style="stroke: #000000; stroke-width: 2.0;" width="690" x="166.5" y="309.6621"/><rect fill="#FFFFFF" height="369.0605" style="stroke: none; stroke-width: 1.0;" width="690" x="166.5" y="369.2832"/><rect fill="#FFFFFF" filter="url(#f1)" height="75.9316" style="stroke: #000000; stroke-width: 2.0;" width="476" x="265.5" y="502.1699"/><line style="stroke: #A80036; stroke-width: 1.0; stroke-dasharray: 5.0,5.0;" x1="216.5" x2="216.5" y1="38.4883" y2="755.3438"/><line style="stroke: #A80036; stroke-width: 1.0; stroke-dasharray: 5.0,5.0;" x1="372.5" x2="372.5" y1="38.4883" y2="755.3438"/><line style="stroke: #A80036; stroke-width: 1.0; stroke-dasharray: 5.0,5.0;" x1="531.5" x2="531.5" y1="38.4883" y2="755.3438"/><line style="stroke: #A80036; stroke-width: 1.0; stroke-dasharray: 5.0,5.0;" x1="712.5" x2="712.5" y1="38.4883" y2="755.3438"/><line style="stroke: #A80036; stroke-width: 1.0; stroke-dasharray: 5.0,5.0;" x1="793.5" x2="793.5" y1="38.4883" y2="755.3438"/><rect fill="#FEFECE" filter="url(#f1)" height="30.4883" style="stroke: #A80036; stroke-width: 1.5;" width="77" x="176.5" y="3"/><text fill="#000000" font-family="sans-serif" font-size="14" lengthAdjust="spacingAndGlyphs" textLength="63" x="183.5" y="23.5352">ptUpdate</text><rect fill="#FEFECE" filter="url(#f1)" height="30.4883" style="stroke: #A80036; stroke-width: 1.5;" width="77" x="176.5" y="754.3438"/><text fill="#000000" font-family="sans-serif" font-size="14" lengthAdjust="spacingAndGlyphs" textLength="63" x="183.5" y="774.8789">ptUpdate</text><rect fill="#FEFECE" filter="url(#f1)" height="30.4883" style="stroke: #A80036; stroke-width: 1.5;" width="191" x="275.5" y="3"/><text fill="#000000" font-family="sans-serif" font-size="14" lengthAdjust="spacingAndGlyphs" textLength="177" x="282.5" y="23.5352">CCheckForUpdateFileNew</text><rect fill="#FEFECE" filter="url(#f1)" height="30.4883" style="stroke: #A80036; stroke-width: 1.5;" width="191" x="275.5" y="754.3438"/><text fill="#000000" font-family="sans-serif" font-size="14" lengthAdjust="spacingAndGlyphs" textLength="177" x="282.5" y="774.8789">CCheckForUpdateFileNew</text><rect fill="#FEFECE" filter="url(#f1)" height="30.4883" style="stroke: #A80036; stroke-width: 1.5;" width="99" x="480.5" y="3"/><text fill="#000000" font-family="sans-serif" font-size="14" lengthAdjust="spacingAndGlyphs" textLength="85" x="487.5" y="23.5352">CCommItem</text><rect fill="#FEFECE" filter="url(#f1)" height="30.4883" style="stroke: #A80036; stroke-width: 1.5;" width="99" x="480.5" y="754.3438"/><text fill="#000000" font-family="sans-serif" font-size="14" lengthAdjust="spacingAndGlyphs" textLength="85" x="487.5" y="774.8789">CCommItem</text><rect fill="#FEFECE" filter="url(#f1)" height="30.4883" style="stroke: #A80036; stroke-width: 1.5;" width="33" x="694.5" y="3"/><text fill="#000000" font-family="sans-serif" font-size="14" lengthAdjust="spacingAndGlyphs" textLength="19" x="701.5" y="23.5352">OS</text><rect fill="#FEFECE" filter="url(#f1)" height="30.4883" style="stroke: #A80036; stroke-width: 1.5;" width="33" x="694.5" y="754.3438"/><text fill="#000000" font-family="sans-serif" font-size="14" lengthAdjust="spacingAndGlyphs" textLength="19" x="701.5" y="774.8789">OS</text><rect fill="#FEFECE" filter="url(#f1)" height="30.4883" style="stroke: #A80036; stroke-width: 1.5;" width="101" x="741.5" y="3"/><text fill="#000000" font-family="sans-serif" font-size="14" lengthAdjust="spacingAndGlyphs" textLength="87" x="748.5" y="23.5352">CPTUpdStart</text><rect fill="#FEFECE" filter="url(#f1)" height="30.4883" style="stroke: #A80036; stroke-width: 1.5;" width="101" x="741.5" y="754.3438"/><text fill="#000000" font-family="sans-serif" font-size="14" lengthAdjust="spacingAndGlyphs" textLength="87" x="748.5" y="774.8789">CPTUpdStart</text><rect fill="#FFFFFF" filter="url(#f1)" height="34.3105" style="stroke: #A80036; stroke-width: 1.0;" width="10" x="368" y="413.2383"/><rect fill="#FFFFFF" filter="url(#f1)" height="119.9316" style="stroke: #A80036; stroke-width: 1.0;" width="10" x="527" y="128.1094"/><polygon fill="#A80036" points="205,65.4883,215,69.4883,205,73.4883,209,69.4883" style="stroke: #A80036; stroke-width: 1.0;"/><line style="stroke: #A80036; stroke-width: 1.0;" x1="3" x2="211" y1="69.4883" y2="69.4883"/><text fill="#000000" font-family="sans-serif" font-size="13" lengthAdjust="spacingAndGlyphs" textLength="190" x="10" y="65.0566">"ptUpdate.exe /CheckVersion"</text><polygon fill="#A80036" points="361,94.7988,371,98.7988,361,102.7988,365,98.7988" style="stroke: #A80036; stroke-width: 1.0;"/><line style="stroke: #A80036; stroke-width: 1.0;" x1="217" x2="367" y1="98.7988" y2="98.7988"/><text fill="#000000" font-family="sans-serif" font-size="13" lengthAdjust="spacingAndGlyphs" textLength="132" x="224" y="94.3672">StartCheckForUpdate</text><polygon fill="#A80036" points="515,124.1094,525,128.1094,515,132.1094,519,128.1094" style="stroke: #A80036; stroke-width: 1.0;"/><line style="stroke: #A80036; stroke-width: 1.0;" x1="373" x2="521" y1="128.1094" y2="128.1094"/><text fill="#000000" font-family="sans-serif" font-size="13" lengthAdjust="spacingAndGlyphs" textLength="124" x="380" y="123.6777">CheckWritePrivilege</text><line style="stroke: #A80036; stroke-width: 1.0;" x1="537" x2="579" y1="157.7305" y2="157.7305"/><line style="stroke: #A80036; stroke-width: 1.0;" x1="579" x2="579" y1="157.7305" y2="170.7305"/><line style="stroke: #A80036; stroke-width: 1.0;" x1="538" x2="579" y1="170.7305" y2="170.7305"/><polygon fill="#A80036" points="548,166.7305,538,170.7305,548,174.7305,544,170.7305" style="stroke: #A80036; stroke-width: 1.0;"/><text fill="#000000" font-family="sans-serif" font-size="13" lengthAdjust="spacingAndGlyphs" textLength="85" x="544" y="152.9883">GetOSVersion</text><line style="stroke: #A80036; stroke-width: 1.0;" x1="537" x2="579" y1="200.041" y2="200.041"/><line style="stroke: #A80036; stroke-width: 1.0;" x1="579" x2="579" y1="200.041" y2="213.041"/><line style="stroke: #A80036; stroke-width: 1.0;" x1="538" x2="579" y1="213.041" y2="213.041"/><polygon fill="#A80036" points="548,209.041,538,213.041,548,217.041,544,213.041" style="stroke: #A80036; stroke-width: 1.0;"/><text fill="#000000" font-family="sans-serif" font-size="13" lengthAdjust="spacingAndGlyphs" textLength="102" x="544" y="195.2988">GetPTInstallPath</text><line style="stroke: #A80036; stroke-width: 1.0;" x1="537" x2="579" y1="247.3516" y2="247.3516"/><line style="stroke: #A80036; stroke-width: 1.0;" x1="579" x2="579" y1="247.3516" y2="260.3516"/><line style="stroke: #A80036; stroke-width: 1.0;" x1="532" x2="579" y1="260.3516" y2="260.3516"/><polygon fill="#A80036" points="542,256.3516,532,260.3516,542,264.3516,538,260.3516" style="stroke: #A80036; stroke-width: 1.0;"/><text fill="#000000" font-family="sans-serif" font-size="13" lengthAdjust="spacingAndGlyphs" textLength="157" x="544" y="242.6094">GetPTInstallPathFromReg</text><polygon fill="#FBFB77" filter="url(#f1)" points="380,268.3516,380,293.3516,679,293.3516,679,278.3516,669,268.3516,380,268.3516" style="stroke: #A80036; stroke-width: 1.0;"/><line style="stroke: #A80036; stroke-width: 1.0;" x1="669" x2="669" y1="268.3516" y2="278.3516"/><line style="stroke: #A80036; stroke-width: 1.0;" x1="679" x2="669" y1="278.3516" y2="278.3516"/><text fill="#000000" font-family="sans-serif" font-size="13" lengthAdjust="spacingAndGlyphs" textLength="278" x="386" y="285.9199">read register "SOFTWARE\WebEx\ProdTools"</text><rect fill="none" height="428.6816" style="stroke: #000000; stroke-width: 2.0;" width="690" x="166.5" y="309.6621"/><polygon fill="#EEEEEE" points="166.5,309.6621,228.5,309.6621,228.5,316.6621,218.5,326.6621,166.5,326.6621,166.5,309.6621" style="stroke: #000000; stroke-width: 2.0;"/><text fill="#000000" font-family="sans-serif" font-size="13" font-weight="bold" lengthAdjust="spacingAndGlyphs" textLength="17" x="181.5" y="323.2305">alt</text><text fill="#000000" font-family="sans-serif" font-size="11" font-weight="bold" lengthAdjust="spacingAndGlyphs" textLength="191" x="243.5" y="322.2969">[CheckWritePrivilege return False]</text><line style="stroke: #A80036; stroke-width: 1.0;" x1="217" x2="259" y1="348.2832" y2="348.2832"/><line style="stroke: #A80036; stroke-width: 1.0;" x1="259" x2="259" y1="348.2832" y2="361.2832"/><line style="stroke: #A80036; stroke-width: 1.0;" x1="218" x2="259" y1="361.2832" y2="361.2832"/><polygon fill="#A80036" points="228,357.2832,218,361.2832,228,365.2832,224,361.2832" style="stroke: #A80036; stroke-width: 1.0;"/><text fill="#000000" font-family="sans-serif" font-size="13" lengthAdjust="spacingAndGlyphs" textLength="74" x="224" y="343.541">SkinUnLoad</text><line style="stroke: #000000; stroke-width: 1.0; stroke-dasharray: 2.0,2.0;" x1="166.5" x2="856.5" y1="370.2832" y2="370.2832"/><text fill="#000000" font-family="sans-serif" font-size="11" font-weight="bold" lengthAdjust="spacingAndGlyphs" textLength="72" x="171.5" y="380.918">[return True]</text><line style="stroke: #A80036; stroke-width: 1.0;" x1="373" x2="420" y1="400.5488" y2="400.5488"/><line style="stroke: #A80036; stroke-width: 1.0;" x1="420" x2="420" y1="400.5488" y2="413.5488"/><line style="stroke: #A80036; stroke-width: 1.0;" x1="379" x2="420" y1="413.5488" y2="413.5488"/><polygon fill="#A80036" points="389,409.5488,379,413.5488,389,417.5488,385,413.5488" style="stroke: #A80036; stroke-width: 1.0;"/><text fill="#000000" font-family="sans-serif" font-size="13" lengthAdjust="spacingAndGlyphs" textLength="128" x="385" y="395.8066">GetSiteSettingByXML</text><polygon fill="#A80036" points="520,443.5488,530,447.5488,520,451.5488,524,447.5488" style="stroke: #A80036; stroke-width: 1.0;"/><line style="stroke: #A80036; stroke-width: 1.0;" x1="373" x2="526" y1="447.5488" y2="447.5488"/><text fill="#000000" font-family="sans-serif" font-size="13" lengthAdjust="spacingAndGlyphs" textLength="73" x="380" y="443.1172">GetAccount</text><polygon fill="#FBFB77" filter="url(#f1)" points="229,460.8594,229,485.8594,672,485.8594,672,470.8594,662,460.8594,229,460.8594" style="stroke: #A80036; stroke-width: 1.0;"/><line style="stroke: #A80036; stroke-width: 1.0;" x1="662" x2="662" y1="460.8594" y2="470.8594"/><line style="stroke: #A80036; stroke-width: 1.0;" x1="672" x2="662" y1="470.8594" y2="470.8594"/><text fill="#000000" font-family="sans-serif" font-size="13" lengthAdjust="spacingAndGlyphs" textLength="422" x="235" y="478.4277">get account by call ptsrv.exe (need ptInst.exe setting meeting info)</text><rect fill="none" height="75.9316" style="stroke: #000000; stroke-width: 2.0;" width="476" x="265.5" y="502.1699"/><polygon fill="#EEEEEE" points="265.5,502.1699,339.5,502.1699,339.5,509.1699,329.5,519.1699,265.5,519.1699,265.5,502.1699" style="stroke: #000000; stroke-width: 2.0;"/><text fill="#000000" font-family="sans-serif" font-size="13" font-weight="bold" lengthAdjust="spacingAndGlyphs" textLength="29" x="280.5" y="515.7383">loop</text><text fill="#000000" font-family="sans-serif" font-size="11" font-weight="bold" lengthAdjust="spacingAndGlyphs" textLength="59" x="354.5" y="514.8047">[!m_bQuit]</text><polygon fill="#A80036" points="701,536.4805,711,540.4805,701,544.4805,705,540.4805" style="stroke: #A80036; stroke-width: 1.0;"/><line style="stroke: #A80036; stroke-width: 1.0;" x1="373" x2="707" y1="540.4805" y2="540.4805"/><text fill="#000000" font-family="sans-serif" font-size="13" lengthAdjust="spacingAndGlyphs" textLength="112" x="380" y="536.0488">TranslateMessage</text><polygon fill="#A80036" points="701,565.791,711,569.791,701,573.791,705,569.791" style="stroke: #A80036; stroke-width: 1.0;"/><line style="stroke: #A80036; stroke-width: 1.0;" x1="373" x2="707" y1="569.791" y2="569.791"/><text fill="#000000" font-family="sans-serif" font-size="13" lengthAdjust="spacingAndGlyphs" textLength="110" x="380" y="565.3594">DispatchMessage</text><line style="stroke: #A80036; stroke-width: 1.0;" x1="373" x2="415" y1="606.4121" y2="606.4121"/><line style="stroke: #A80036; stroke-width: 1.0;" x1="415" x2="415" y1="606.4121" y2="619.4121"/><line style="stroke: #A80036; stroke-width: 1.0;" x1="374" x2="415" y1="619.4121" y2="619.4121"/><polygon fill="#A80036" points="384,615.4121,374,619.4121,384,623.4121,380,619.4121" style="stroke: #A80036; stroke-width: 1.0;"/><text fill="#000000" font-family="sans-serif" font-size="13" lengthAdjust="spacingAndGlyphs" textLength="126" x="380" y="601.6699">BuildUpdatePackage</text><polygon fill="#FBFB77" filter="url(#f1)" points="275,632.4121,275,657.4121,467,657.4121,467,642.4121,457,632.4121,275,632.4121" style="stroke: #A80036; stroke-width: 1.0;"/><line style="stroke: #A80036; stroke-width: 1.0;" x1="457" x2="457" y1="632.4121" y2="642.4121"/><line style="stroke: #A80036; stroke-width: 1.0;" x1="467" x2="457" y1="642.4121" y2="642.4121"/><text fill="#000000" font-family="sans-serif" font-size="13" lengthAdjust="spacingAndGlyphs" textLength="171" x="281" y="649.9805">Output Update Package file</text><polygon fill="#A80036" points="782,683.7227,792,687.7227,782,691.7227,786,687.7227" style="stroke: #A80036; stroke-width: 1.0;"/><line style="stroke: #A80036; stroke-width: 1.0;" x1="373" x2="788" y1="687.7227" y2="687.7227"/><text fill="#000000" font-family="sans-serif" font-size="13" lengthAdjust="spacingAndGlyphs" textLength="88" x="380" y="683.291">DownLoadFile</text><line style="stroke: #A80036; stroke-width: 1.0;" x1="373" x2="415" y1="717.3438" y2="717.3438"/><line style="stroke: #A80036; stroke-width: 1.0;" x1="415" x2="415" y1="717.3438" y2="730.3438"/><line style="stroke: #A80036; stroke-width: 1.0;" x1="374" x2="415" y1="730.3438" y2="730.3438"/><polygon fill="#A80036" points="384,726.3438,374,730.3438,384,734.3438,380,730.3438" style="stroke: #A80036; stroke-width: 1.0;"/><text fill="#000000" font-family="sans-serif" font-size="13" lengthAdjust="spacingAndGlyphs" textLength="124" x="380" y="712.6016">FreeDownloadItems</text></g></svg>