<?xml version="1.0" encoding="UTF-8" standalone="yes"?><svg xmlns="http://www.w3.org/2000/svg" xmlns:xlink="http://www.w3.org/1999/xlink" height="437pt" style="width:862px;height:437px;" version="1.1" viewBox="0 0 862 437" width="862pt"><defs><filter height="300%" id="f1" width="300%" x="-1" y="-1"><feGaussianBlur result="blurOut" stdDeviation="2.0"/><feColorMatrix in="blurOut" result="blurOut2" type="matrix" values="0 0 0 0 0 0 0 0 0 0 0 0 0 0 0 0 0 0 .4 0"/><feOffset dx="4.0" dy="4.0" in="blurOut2" result="blurOut3"/><feBlend in="SourceGraphic" in2="blurOut3" mode="normal"/></filter></defs><g><text fill="#000000" font-family="sans-serif" font-size="14" font-weight="bold" lengthAdjust="spacingAndGlyphs" textLength="368" x="246.5" y="23.5352">Attendee Click Record button which on Quick Start</text><line style="stroke: #A80036; stroke-width: 1.0; stroke-dasharray: 5.0,5.0;" x1="101" x2="101" y1="68.9766" y2="398.7715"/><line style="stroke: #A80036; stroke-width: 1.0; stroke-dasharray: 5.0,5.0;" x1="305" x2="305" y1="68.9766" y2="398.7715"/><line style="stroke: #A80036; stroke-width: 1.0; stroke-dasharray: 5.0,5.0;" x1="460" x2="460" y1="68.9766" y2="398.7715"/><line style="stroke: #A80036; stroke-width: 1.0; stroke-dasharray: 5.0,5.0;" x1="604" x2="604" y1="68.9766" y2="398.7715"/><line style="stroke: #A80036; stroke-width: 1.0; stroke-dasharray: 5.0,5.0;" x1="786" x2="786" y1="68.9766" y2="398.7715"/><rect fill="#FEFECE" filter="url(#f1)" height="30.4883" style="stroke: #A80036; stroke-width: 1.5;" width="183" x="8" y="33.4883"/><text fill="#000000" font-family="sans-serif" font-size="14" lengthAdjust="spacingAndGlyphs" textLength="169" x="15" y="54.0234">CQuickStartDlgPresenter</text><rect fill="#FEFECE" filter="url(#f1)" height="30.4883" style="stroke: #A80036; stroke-width: 1.5;" width="183" x="8" y="397.7715"/><text fill="#000000" font-family="sans-serif" font-size="14" lengthAdjust="spacingAndGlyphs" textLength="169" x="15" y="418.3066">CQuickStartDlgPresenter</text><rect fill="#FEFECE" filter="url(#f1)" height="30.4883" style="stroke: #A80036; stroke-width: 1.5;" width="196" x="205" y="33.4883"/><text fill="#000000" font-family="sans-serif" font-size="14" lengthAdjust="spacingAndGlyphs" textLength="182" x="212" y="54.0234">CMCQuickStartSessionMgr</text><rect fill="#FEFECE" filter="url(#f1)" height="30.4883" style="stroke: #A80036; stroke-width: 1.5;" width="196" x="205" y="397.7715"/><text fill="#000000" font-family="sans-serif" font-size="14" lengthAdjust="spacingAndGlyphs" textLength="182" x="212" y="418.3066">CMCQuickStartSessionMgr</text><rect fill="#FEFECE" filter="url(#f1)" height="30.4883" style="stroke: #A80036; stroke-width: 1.5;" width="87" x="415" y="33.4883"/><text fill="#000000" font-family="sans-serif" font-size="14" lengthAdjust="spacingAndGlyphs" textLength="73" x="422" y="54.0234">CMCUIMgr</text><rect fill="#FEFECE" filter="url(#f1)" height="30.4883" style="stroke: #A80036; stroke-width: 1.5;" width="87" x="415" y="397.7715"/><text fill="#000000" font-family="sans-serif" font-size="14" lengthAdjust="spacingAndGlyphs" textLength="73" x="422" y="418.3066">CMCUIMgr</text><rect fill="#FEFECE" filter="url(#f1)" height="30.4883" style="stroke: #A80036; stroke-width: 1.5;" width="172" x="516" y="33.4883"/><text fill="#000000" font-family="sans-serif" font-size="14" lengthAdjust="spacingAndGlyphs" textLength="158" x="523" y="54.0234">CSmRecordSessionMgr</text><rect fill="#FEFECE" filter="url(#f1)" height="30.4883" style="stroke: #A80036; stroke-width: 1.5;" width="172" x="516" y="397.7715"/><text fill="#000000" font-family="sans-serif" font-size="14" lengthAdjust="spacingAndGlyphs" textLength="158" x="523" y="418.3066">CSmRecordSessionMgr</text><rect fill="#FEFECE" filter="url(#f1)" height="30.4883" style="stroke: #A80036; stroke-width: 1.5;" width="100" x="734" y="33.4883"/><text fill="#000000" font-family="sans-serif" font-size="14" lengthAdjust="spacingAndGlyphs" textLength="86" x="741" y="54.0234">CWBXFileDlg</text><rect fill="#FEFECE" filter="url(#f1)" height="30.4883" style="stroke: #A80036; stroke-width: 1.5;" width="100" x="734" y="397.7715"/><text fill="#000000" font-family="sans-serif" font-size="14" lengthAdjust="spacingAndGlyphs" textLength="86" x="741" y="418.3066">CWBXFileDlg</text><polygon fill="#A80036" points="89.5,95.9766,99.5,99.9766,89.5,103.9766,93.5,99.9766" style="stroke: #A80036; stroke-width: 1.0;"/><line style="stroke: #A80036; stroke-width: 1.0;" x1="3" x2="95.5" y1="99.9766" y2="99.9766"/><text fill="#000000" font-family="sans-serif" font-size="13" lengthAdjust="spacingAndGlyphs" textLength="61" x="10" y="95.5449">OnRecord</text><polygon fill="#A80036" points="293,125.2871,303,129.2871,293,133.2871,297,129.2871" style="stroke: #A80036; stroke-width: 1.0;"/><line style="stroke: #A80036; stroke-width: 1.0;" x1="101.5" x2="299" y1="129.2871" y2="129.2871"/><text fill="#000000" font-family="sans-serif" font-size="13" lengthAdjust="spacingAndGlyphs" textLength="76" x="108.5" y="124.8555">OnQsAction</text><polygon fill="#FBFB77" filter="url(#f1)" points="8,142.5977,8,167.5977,400,167.5977,400,152.5977,390,142.5977,8,142.5977" style="stroke: #A80036; stroke-width: 1.0;"/><line style="stroke: #A80036; stroke-width: 1.0;" x1="390" x2="390" y1="142.5977" y2="152.5977"/><line style="stroke: #A80036; stroke-width: 1.0;" x1="400" x2="390" y1="152.5977" y2="152.5977"/><text fill="#000000" font-family="sans-serif" font-size="13" lengthAdjust="spacingAndGlyphs" textLength="321" x="37" y="160.166">SendMessage(WM_QS_ACTION, NEWQSID_RECORD)</text><polygon fill="#A80036" points="448.5,193.9082,458.5,197.9082,448.5,201.9082,452.5,197.9082" style="stroke: #A80036; stroke-width: 1.0;"/><line style="stroke: #A80036; stroke-width: 1.0;" x1="305" x2="454.5" y1="197.9082" y2="197.9082"/><text fill="#000000" font-family="sans-serif" font-size="13" lengthAdjust="spacingAndGlyphs" textLength="94" x="312" y="193.4766">:OnRecordStart</text><polygon fill="#A80036" points="592,223.2188,602,227.2188,592,231.2188,596,227.2188" style="stroke: #A80036; stroke-width: 1.0;"/><line style="stroke: #A80036; stroke-width: 1.0;" x1="460.5" x2="598" y1="227.2188" y2="227.2188"/><text fill="#000000" font-family="sans-serif" font-size="13" lengthAdjust="spacingAndGlyphs" textLength="76" x="467.5" y="222.7871">:StartRecord</text><line style="stroke: #A80036; stroke-width: 1.0;" x1="604" x2="646" y1="256.8398" y2="256.8398"/><line style="stroke: #A80036; stroke-width: 1.0;" x1="646" x2="646" y1="256.8398" y2="269.8398"/><line style="stroke: #A80036; stroke-width: 1.0;" x1="605" x2="646" y1="269.8398" y2="269.8398"/><polygon fill="#A80036" points="615,265.8398,605,269.8398,615,273.8398,611,269.8398" style="stroke: #A80036; stroke-width: 1.0;"/><text fill="#000000" font-family="sans-serif" font-size="13" lengthAdjust="spacingAndGlyphs" textLength="163" x="611" y="252.0977">GetWebExRecordFileName</text><line style="stroke: #A80036; stroke-width: 1.0;" x1="604" x2="646" y1="299.1504" y2="299.1504"/><line style="stroke: #A80036; stroke-width: 1.0;" x1="646" x2="646" y1="299.1504" y2="312.1504"/><line style="stroke: #A80036; stroke-width: 1.0;" x1="605" x2="646" y1="312.1504" y2="312.1504"/><polygon fill="#A80036" points="615,308.1504,605,312.1504,615,316.1504,611,312.1504" style="stroke: #A80036; stroke-width: 1.0;"/><text fill="#000000" font-family="sans-serif" font-size="13" lengthAdjust="spacingAndGlyphs" textLength="168" x="611" y="294.4082">GetRecordTitleFromService</text><polygon fill="#A80036" points="774,337.1504,784,341.1504,774,345.1504,778,341.1504" style="stroke: #A80036; stroke-width: 1.0;"/><line style="stroke: #A80036; stroke-width: 1.0;" x1="604" x2="780" y1="341.1504" y2="341.1504"/><text fill="#000000" font-family="sans-serif" font-size="13" lengthAdjust="spacingAndGlyphs" textLength="48" x="611" y="336.7188">DoMoal</text><polygon fill="#FBFB77" filter="url(#f1)" points="536,354.4609,536,379.4609,853,379.4609,853,364.4609,843,354.4609,536,354.4609" style="stroke: #A80036; stroke-width: 1.0;"/><line style="stroke: #A80036; stroke-width: 1.0;" x1="843" x2="843" y1="354.4609" y2="364.4609"/><line style="stroke: #A80036; stroke-width: 1.0;" x1="853" x2="843" y1="364.4609" y2="364.4609"/><text fill="#000000" font-family="sans-serif" font-size="13" lengthAdjust="spacingAndGlyphs" textLength="254" x="561" y="372.0293">Show "Save Recorded Meeting As" dialog</text></g></svg>