<?xml version="1.0" encoding="UTF-8" standalone="yes"?><svg xmlns="http://www.w3.org/2000/svg" xmlns:xlink="http://www.w3.org/1999/xlink" height="864pt" style="width:1458px;height:864px;" version="1.1" viewBox="0 0 1458 864" width="1458pt"><defs><filter height="300%" id="f1" width="300%" x="-1" y="-1"><feGaussianBlur result="blurOut" stdDeviation="2.0"/><feColorMatrix in="blurOut" result="blurOut2" type="matrix" values="0 0 0 0 0 0 0 0 0 0 0 0 0 0 0 0 0 0 .4 0"/><feOffset dx="4.0" dy="4.0" in="blurOut2" result="blurOut3"/><feBlend in="SourceGraphic" in2="blurOut3" mode="normal"/></filter></defs><g><rect fill="#FEFECE" filter="url(#f1)" height="242.3262" style="stroke: #A80036; stroke-width: 1.5;" width="948" x="6" y="613"/><ellipse cx="422.75" cy="629" fill="#ADD1B2" rx="11" ry="11" style="stroke: #A80036; stroke-width: 1.0;"/><path d="M425.4531,624.9292 Q425.6191,624.6304 425.7935,624.5059 Q425.9678,624.3813 426.2334,624.3813 Q426.6401,624.3813 426.8103,624.5972 Q426.9805,624.813 426.9805,625.3359 L426.9971,627.4941 Q426.9971,628.0669 426.8103,628.2661 Q426.6235,628.4653 426.1338,628.4653 Q425.7852,628.4653 425.5984,628.2993 Q425.4116,628.1333 425.2788,627.6851 Q425.063,626.8965 424.5898,626.552 Q424.1167,626.2075 423.2783,626.2075 Q422,626.2075 421.3193,627.0708 Q420.6387,627.9341 420.6387,629.5693 Q420.6387,631.1963 421.3276,632.0679 Q422.0166,632.9395 423.2949,632.9395 Q424.1665,632.9395 425.2166,632.3584 Q426.2666,631.7773 426.5405,631.7773 Q426.8643,631.7773 427.0842,632.0513 Q427.3042,632.3252 427.3042,632.7319 Q427.3042,633.4624 426.0176,634.1099 Q424.731,634.7573 423.1206,634.7573 Q420.9458,634.7573 419.6011,633.3213 Q418.2563,631.8853 418.2563,629.5693 Q418.2563,627.3364 419.6177,625.8589 Q420.979,624.3813 423.0708,624.3813 Q423.6602,624.3813 424.2329,624.5142 Q424.8057,624.647 425.4531,624.9292 Z "/><text fill="#000000" font-family="sans-serif" font-size="12" lengthAdjust="spacingAndGlyphs" textLength="106" x="443.25" y="633.5352">CClientReleaseInfo</text><line style="stroke: #A80036; stroke-width: 1.5;" x1="7" x2="953" y1="645" y2="645"/><polygon fill="none" points="17,651.9775,21,655.9775,17,659.9775,13,655.9775" style="stroke: #B38D22; stroke-width: 1.0;"/><text fill="#000000" font-family="sans-serif" font-size="11" lengthAdjust="spacingAndGlyphs" textLength="135" x="26" y="659.6348">string m_strBuildNumber</text><polygon fill="none" points="17,664.9326,21,668.9326,17,672.9326,13,668.9326" style="stroke: #B38D22; stroke-width: 1.0;"/><text fill="#000000" font-family="sans-serif" font-size="11" lengthAdjust="spacingAndGlyphs" textLength="146" x="26" y="672.5898">string m_strDisplayVersion</text><polygon fill="none" points="17,677.8877,21,681.8877,17,685.8877,13,681.8877" style="stroke: #B38D22; stroke-width: 1.0;"/><text fill="#000000" font-family="sans-serif" font-size="11" lengthAdjust="spacingAndGlyphs" textLength="107" x="26" y="685.5449">string m_strVersion</text><polygon fill="none" points="17,690.8428,21,694.8428,17,698.8428,13,694.8428" style="stroke: #B38D22; stroke-width: 1.0;"/><text fill="#000000" font-family="sans-serif" font-size="11" lengthAdjust="spacingAndGlyphs" textLength="138" x="26" y="698.5">string m_strReleaseOrder</text><polygon fill="none" points="17,703.7979,21,707.7979,17,711.7979,13,707.7979" style="stroke: #B38D22; stroke-width: 1.0;"/><text fill="#000000" font-family="sans-serif" font-size="11" lengthAdjust="spacingAndGlyphs" textLength="140" x="26" y="711.4551">string m_strDownloadURL</text><line style="stroke: #A80036; stroke-width: 1.5;" x1="7" x2="953" y1="717.7754" y2="717.7754"/><ellipse cx="17" cy="729.7529" fill="#84BE84" rx="3" ry="3" style="stroke: #038048; stroke-width: 1.0;"/><text fill="#000000" font-family="sans-serif" font-size="11" lengthAdjust="spacingAndGlyphs" textLength="108" x="26" y="732.4102">CClientReleaseInfo()</text><ellipse cx="17" cy="742.708" fill="#84BE84" rx="3" ry="3" style="stroke: #038048; stroke-width: 1.0;"/><text fill="#000000" font-family="sans-serif" font-size="11" lengthAdjust="spacingAndGlyphs" textLength="922" x="26" y="745.3652">CClientReleaseInfo(const string&amp; strBuildNumber, const string&amp; strDisplayVersion, const string&amp; strVersion, const string&amp; strReleaseOrder, const string&amp; tstrDownloadUrl)</text><ellipse cx="17" cy="755.6631" fill="#84BE84" rx="3" ry="3" style="stroke: #038048; stroke-width: 1.0;"/><text fill="#000000" font-family="sans-serif" font-size="11" lengthAdjust="spacingAndGlyphs" textLength="281" x="26" y="758.3203">CClientReleaseInfo(const CClientReleaseInfo&amp; other)</text><ellipse cx="17" cy="768.6182" fill="#84BE84" rx="3" ry="3" style="stroke: #038048; stroke-width: 1.0;"/><text fill="#000000" font-family="sans-serif" font-size="11" lengthAdjust="spacingAndGlyphs" textLength="348" x="26" y="771.2754">CClientReleaseInfo&amp; operator=(const CClientReleaseInfo&amp; other)</text><text fill="#000000" font-family="sans-serif" font-size="11" lengthAdjust="spacingAndGlyphs" textLength="0" x="29" y="784.2305"/><ellipse cx="17" cy="794.5283" fill="#84BE84" rx="3" ry="3" style="stroke: #038048; stroke-width: 1.0;"/><text fill="#000000" font-family="sans-serif" font-size="11" lengthAdjust="spacingAndGlyphs" textLength="136" x="26" y="797.1855">string GetBuildeNumber()</text><ellipse cx="17" cy="807.4834" fill="#84BE84" rx="3" ry="3" style="stroke: #038048; stroke-width: 1.0;"/><text fill="#000000" font-family="sans-serif" font-size="11" lengthAdjust="spacingAndGlyphs" textLength="141" x="26" y="810.1406">string GetDisplayVersion()</text><ellipse cx="17" cy="820.4385" fill="#84BE84" rx="3" ry="3" style="stroke: #038048; stroke-width: 1.0;"/><text fill="#000000" font-family="sans-serif" font-size="11" lengthAdjust="spacingAndGlyphs" textLength="102" x="26" y="823.0957">string GetVersion()</text><ellipse cx="17" cy="833.3936" fill="#84BE84" rx="3" ry="3" style="stroke: #038048; stroke-width: 1.0;"/><text fill="#000000" font-family="sans-serif" font-size="11" lengthAdjust="spacingAndGlyphs" textLength="133" x="26" y="836.0508">string GetReleaseOrder()</text><ellipse cx="17" cy="846.3486" fill="#84BE84" rx="3" ry="3" style="stroke: #038048; stroke-width: 1.0;"/><text fill="#000000" font-family="sans-serif" font-size="11" lengthAdjust="spacingAndGlyphs" textLength="130" x="26" y="849.0059">string GetDownloadUrl()</text><rect fill="#FEFECE" filter="url(#f1)" height="86.8652" style="stroke: #A80036; stroke-width: 1.5;" width="233" x="533.5" y="433.5"/><ellipse cx="558.4" cy="449.5" fill="#ADD1B2" rx="11" ry="11" style="stroke: #A80036; stroke-width: 1.0;"/><path d="M561.1031,445.4292 Q561.2691,445.1304 561.4435,445.0059 Q561.6178,444.8813 561.8834,444.8813 Q562.2901,444.8813 562.4603,445.0972 Q562.6305,445.313 562.6305,445.8359 L562.6471,447.9941 Q562.6471,448.5669 562.4603,448.7661 Q562.2735,448.9653 561.7838,448.9653 Q561.4352,448.9653 561.2484,448.7993 Q561.0616,448.6333 560.9288,448.1851 Q560.713,447.3965 560.2398,447.052 Q559.7667,446.7075 558.9283,446.7075 Q557.65,446.7075 556.9693,447.5708 Q556.2887,448.4341 556.2887,450.0693 Q556.2887,451.6963 556.9776,452.5679 Q557.6666,453.4395 558.9449,453.4395 Q559.8165,453.4395 560.8666,452.8584 Q561.9166,452.2773 562.1905,452.2773 Q562.5143,452.2773 562.7342,452.5513 Q562.9542,452.8252 562.9542,453.2319 Q562.9542,453.9624 561.6676,454.6099 Q560.381,455.2573 558.7706,455.2573 Q556.5958,455.2573 555.2511,453.8213 Q553.9063,452.3853 553.9063,450.0693 Q553.9063,447.8364 555.2677,446.3589 Q556.629,444.8813 558.7208,444.8813 Q559.3102,444.8813 559.8829,445.0142 Q560.4557,445.147 561.1031,445.4292 Z "/><text fill="#000000" font-family="sans-serif" font-size="12" lengthAdjust="spacingAndGlyphs" textLength="179" x="574.6" y="454.0352">CGpcCompatibleClientsDecode</text><line style="stroke: #A80036; stroke-width: 1.5;" x1="534.5" x2="765.5" y1="465.5" y2="465.5"/><polygon fill="none" points="544.5,472.4775,548.5,476.4775,544.5,480.4775,540.5,476.4775" style="stroke: #B38D22; stroke-width: 1.0;"/><text fill="#000000" font-family="sans-serif" font-size="11" lengthAdjust="spacingAndGlyphs" textLength="163" x="553.5" y="480.1348">vector m_vecClientReleaseInfo</text><line style="stroke: #A80036; stroke-width: 1.5;" x1="534.5" x2="765.5" y1="486.4551" y2="486.4551"/><ellipse cx="544.5" cy="498.4326" fill="#84BE84" rx="3" ry="3" style="stroke: #038048; stroke-width: 1.0;"/><text fill="#000000" font-family="sans-serif" font-size="11" lengthAdjust="spacingAndGlyphs" textLength="137" x="553.5" y="501.0898">bool Parse(string strJson)</text><ellipse cx="544.5" cy="511.3877" fill="#84BE84" rx="3" ry="3" style="stroke: #038048; stroke-width: 1.0;"/><text fill="#000000" font-family="sans-serif" font-size="11" lengthAdjust="spacingAndGlyphs" textLength="207" x="553.5" y="514.0449">void GetClientReleaseInfo(vector&amp; vec)</text><rect fill="#FEFECE" filter="url(#f1)" height="48" style="stroke: #A80036; stroke-width: 1.5;" width="110" x="989" y="710"/><ellipse cx="1004" cy="726" fill="#ADD1B2" rx="11" ry="11" style="stroke: #A80036; stroke-width: 1.0;"/><path d="M1006.7031,721.9292 Q1006.8691,721.6304 1007.0435,721.5059 Q1007.2178,721.3813 1007.4834,721.3813 Q1007.8901,721.3813 1008.0603,721.5972 Q1008.2305,721.813 1008.2305,722.3359 L1008.2471,724.4941 Q1008.2471,725.0669 1008.0603,725.2661 Q1007.8735,725.4653 1007.3838,725.4653 Q1007.0352,725.4653 1006.8484,725.2993 Q1006.6616,725.1333 1006.5288,724.6851 Q1006.313,723.8965 1005.8398,723.552 Q1005.3667,723.2075 1004.5283,723.2075 Q1003.25,723.2075 1002.5693,724.0708 Q1001.8887,724.9341 1001.8887,726.5693 Q1001.8887,728.1963 1002.5776,729.0679 Q1003.2666,729.9395 1004.5449,729.9395 Q1005.4165,729.9395 1006.4666,729.3584 Q1007.5166,728.7773 1007.7905,728.7773 Q1008.1143,728.7773 1008.3342,729.0513 Q1008.5542,729.3252 1008.5542,729.7319 Q1008.5542,730.4624 1007.2676,731.1099 Q1005.981,731.7573 1004.3706,731.7573 Q1002.1958,731.7573 1000.8511,730.3213 Q999.5063,728.8853 999.5063,726.5693 Q999.5063,724.3364 1000.8677,722.8589 Q1002.229,721.3813 1004.3208,721.3813 Q1004.9102,721.3813 1005.4829,721.5142 Q1006.0557,721.647 1006.7031,721.9292 Z "/><text fill="#000000" font-family="sans-serif" font-size="12" lengthAdjust="spacingAndGlyphs" textLength="78" x="1018" y="730.5352">JSON::Reader</text><line style="stroke: #A80036; stroke-width: 1.5;" x1="990" x2="1098" y1="742" y2="742"/><line style="stroke: #A80036; stroke-width: 1.5;" x1="990" x2="1098" y1="750" y2="750"/><rect fill="#FEFECE" filter="url(#f1)" height="112.7754" style="stroke: #A80036; stroke-width: 1.5;" width="294" x="802" y="420.5"/><ellipse cx="891.25" cy="436.5" fill="#EB937F" rx="11" ry="11" style="stroke: #A80036; stroke-width: 1.0;"/><path d="M893.229,433.4067 L889.3691,433.4067 L889.3691,435.5317 L890.8301,435.5317 L890.8301,435.4321 Q890.8301,434.959 891.0376,434.7266 Q891.2451,434.4941 891.6685,434.4941 Q892.042,434.4941 892.2786,434.7058 Q892.5151,434.9175 892.5151,435.2412 Q892.5151,435.2578 892.5234,435.3491 Q892.5317,435.4404 892.5317,435.5317 L892.5317,437.25 Q892.5317,437.8062 892.3325,438.0469 Q892.1333,438.2876 891.6851,438.2876 Q891.2617,438.2876 891.0459,438.0635 Q890.8301,437.8394 890.8301,437.3994 L890.8301,437.25 L889.3691,437.25 L889.3691,439.7319 L893.229,439.7319 L893.229,438.7441 Q893.229,438.188 893.4407,437.9473 Q893.6523,437.7065 894.1338,437.7065 Q894.6069,437.7065 894.8103,437.9431 Q895.0137,438.1797 895.0137,438.7441 L895.0137,440.7529 Q895.0137,441.2012 894.8394,441.3506 Q894.665,441.5 894.1504,441.5 L887.3521,441.5 Q886.8042,441.5 886.5676,441.2842 Q886.3311,441.0684 886.3311,440.5786 Q886.3311,440.1387 886.5552,439.9104 Q886.7793,439.6821 887.2109,439.6821 L887.3521,439.6821 L887.3521,433.4897 L887.2109,433.4897 Q886.7876,433.4897 886.5593,433.2532 Q886.3311,433.0166 886.3311,432.5767 Q886.3311,432.0952 886.5718,431.8752 Q886.8125,431.6553 887.3521,431.6553 L894.1504,431.6553 Q894.6567,431.6553 894.8352,431.8088 Q895.0137,431.9624 895.0137,432.4189 L895.0137,434.2783 Q895.0137,434.8428 894.8062,435.0876 Q894.5986,435.3325 894.1338,435.3325 Q893.6523,435.3325 893.4407,435.0835 Q893.229,434.8345 893.229,434.2783 Z "/><text fill="#000000" font-family="sans-serif" font-size="12" lengthAdjust="spacingAndGlyphs" textLength="107" x="911.75" y="441.0352">eCompatibleStatus</text><line style="stroke: #A80036; stroke-width: 1.5;" x1="803" x2="1095" y1="452.5" y2="452.5"/><text fill="#000000" font-family="sans-serif" font-size="11" lengthAdjust="spacingAndGlyphs" textLength="195" x="808" y="467.1348">E_COMPATIBLE_STATUS_ERROR = 0,</text><text fill="#000000" font-family="sans-serif" font-size="11" lengthAdjust="spacingAndGlyphs" textLength="197" x="808" y="480.0898">E_RUN_DIRECT_WITHOUT_UPGRADE,</text><text fill="#000000" font-family="sans-serif" font-size="11" lengthAdjust="spacingAndGlyphs" textLength="256" x="808" y="493.0449">E_RUN_DIRECT_WITH_BACKGROUND_UPGRADE,</text><text fill="#000000" font-family="sans-serif" font-size="11" lengthAdjust="spacingAndGlyphs" textLength="223" x="808" y="506">E_LOCAL_UPGRADE_WITHOUT_UPGRADE,</text><text fill="#000000" font-family="sans-serif" font-size="11" lengthAdjust="spacingAndGlyphs" textLength="282" x="808" y="518.9551">E_LOCAL_UPGRADE_WITH_BACKGROUND_UPGRADE,</text><line style="stroke: #A80036; stroke-width: 1.5;" x1="803" x2="1095" y1="525.2754" y2="525.2754"/><rect fill="#FEFECE" filter="url(#f1)" height="151.6406" style="stroke: #A80036; stroke-width: 1.5;" width="318" x="1131" y="401"/><ellipse cx="1224.75" cy="417" fill="#ADD1B2" rx="11" ry="11" style="stroke: #A80036; stroke-width: 1.0;"/><path d="M1227.4531,412.9292 Q1227.6191,412.6304 1227.7935,412.5059 Q1227.9678,412.3813 1228.2334,412.3813 Q1228.6401,412.3813 1228.8103,412.5972 Q1228.9805,412.813 1228.9805,413.3359 L1228.9971,415.4941 Q1228.9971,416.0669 1228.8103,416.2661 Q1228.6235,416.4653 1228.1338,416.4653 Q1227.7852,416.4653 1227.5984,416.2993 Q1227.4116,416.1333 1227.2788,415.6851 Q1227.063,414.8965 1226.5898,414.552 Q1226.1167,414.2075 1225.2783,414.2075 Q1224,414.2075 1223.3193,415.0708 Q1222.6387,415.9341 1222.6387,417.5693 Q1222.6387,419.1963 1223.3276,420.0679 Q1224.0166,420.9395 1225.2949,420.9395 Q1226.1665,420.9395 1227.2166,420.3584 Q1228.2666,419.7773 1228.5405,419.7773 Q1228.8643,419.7773 1229.0842,420.0513 Q1229.3042,420.3252 1229.3042,420.7319 Q1229.3042,421.4624 1228.0176,422.1099 Q1226.731,422.7573 1225.1206,422.7573 Q1222.9458,422.7573 1221.6011,421.3213 Q1220.2563,419.8853 1220.2563,417.5693 Q1220.2563,415.3364 1221.6177,413.8589 Q1222.979,412.3813 1225.0708,412.3813 Q1225.6602,412.3813 1226.2329,412.5142 Q1226.8057,412.647 1227.4531,412.9292 Z "/><text fill="#000000" font-family="sans-serif" font-size="12" lengthAdjust="spacingAndGlyphs" textLength="122" x="1245.25" y="421.5352">CProductVersionHelp</text><line style="stroke: #A80036; stroke-width: 1.5;" x1="1132" x2="1448" y1="433" y2="433"/><polygon fill="none" points="1142,439.9775,1146,443.9775,1142,447.9775,1138,443.9775" style="stroke: #B38D22; stroke-width: 1.0;"/><text fill="#000000" font-family="sans-serif" font-size="11" lengthAdjust="spacingAndGlyphs" textLength="24" x="1151" y="447.6348">bool</text><text fill="#000000" font-family="sans-serif" font-size="11" lengthAdjust="spacingAndGlyphs" textLength="133" x="1199" y="447.6348">m_bVersionFormatError;</text><polygon fill="none" points="1142,452.9326,1146,456.9326,1142,460.9326,1138,456.9326" style="stroke: #B38D22; stroke-width: 1.0;"/><text fill="#000000" font-family="sans-serif" font-size="11" lengthAdjust="spacingAndGlyphs" textLength="14" x="1151" y="460.5898">int</text><text fill="#000000" font-family="sans-serif" font-size="11" lengthAdjust="spacingAndGlyphs" textLength="99" x="1175" y="460.5898">m_nVersionField0;</text><polygon fill="none" points="1142,465.8877,1146,469.8877,1142,473.8877,1138,469.8877" style="stroke: #B38D22; stroke-width: 1.0;"/><text fill="#000000" font-family="sans-serif" font-size="11" lengthAdjust="spacingAndGlyphs" textLength="14" x="1151" y="473.5449">int</text><text fill="#000000" font-family="sans-serif" font-size="11" lengthAdjust="spacingAndGlyphs" textLength="99" x="1175" y="473.5449">m_nVersionField1;</text><polygon fill="none" points="1142,478.8428,1146,482.8428,1142,486.8428,1138,482.8428" style="stroke: #B38D22; stroke-width: 1.0;"/><text fill="#000000" font-family="sans-serif" font-size="11" lengthAdjust="spacingAndGlyphs" textLength="14" x="1151" y="486.5">int</text><text fill="#000000" font-family="sans-serif" font-size="11" lengthAdjust="spacingAndGlyphs" textLength="99" x="1175" y="486.5">m_nVersionField2;</text><polygon fill="none" points="1142,491.7979,1146,495.7979,1142,499.7979,1138,495.7979" style="stroke: #B38D22; stroke-width: 1.0;"/><text fill="#000000" font-family="sans-serif" font-size="11" lengthAdjust="spacingAndGlyphs" textLength="14" x="1151" y="499.4551">int</text><text fill="#000000" font-family="sans-serif" font-size="11" lengthAdjust="spacingAndGlyphs" textLength="99" x="1175" y="499.4551">m_nVersionField3;</text><line style="stroke: #A80036; stroke-width: 1.5;" x1="1132" x2="1448" y1="505.7754" y2="505.7754"/><ellipse cx="1142" cy="517.7529" fill="#84BE84" rx="3" ry="3" style="stroke: #038048; stroke-width: 1.0;"/><text fill="#000000" font-family="sans-serif" font-size="11" lengthAdjust="spacingAndGlyphs" textLength="255" x="1151" y="520.4102">CProductVersionHelp(const string&amp; strVersion)</text><ellipse cx="1142" cy="530.708" fill="#84BE84" rx="3" ry="3" style="stroke: #038048; stroke-width: 1.0;"/><text fill="#000000" font-family="sans-serif" font-size="11" lengthAdjust="spacingAndGlyphs" textLength="292" x="1151" y="533.3652">int operator&gt;= (const CProductVersionHelp&amp; version)</text><ellipse cx="1142" cy="543.6631" fill="#84BE84" rx="3" ry="3" style="stroke: #038048; stroke-width: 1.0;"/><text fill="#000000" font-family="sans-serif" font-size="11" lengthAdjust="spacingAndGlyphs" textLength="256" x="1151" y="546.3203">bool SetStringVersion(const string&amp; strVersion)</text><rect fill="#FEFECE" filter="url(#f1)" height="333.0117" style="stroke: #A80036; stroke-width: 1.5;" width="518" x="540" y="8"/><ellipse cx="727.25" cy="24" fill="#ADD1B2" rx="11" ry="11" style="stroke: #A80036; stroke-width: 1.0;"/><path d="M729.9531,19.9292 Q730.1191,19.6304 730.2935,19.5059 Q730.4678,19.3813 730.7334,19.3813 Q731.1401,19.3813 731.3103,19.5972 Q731.4805,19.813 731.4805,20.3359 L731.4971,22.4941 Q731.4971,23.0669 731.3103,23.2661 Q731.1235,23.4653 730.6338,23.4653 Q730.2852,23.4653 730.0984,23.2993 Q729.9116,23.1333 729.7788,22.6851 Q729.563,21.8965 729.0898,21.552 Q728.6167,21.2075 727.7783,21.2075 Q726.5,21.2075 725.8193,22.0708 Q725.1387,22.9341 725.1387,24.5693 Q725.1387,26.1963 725.8276,27.0679 Q726.5166,27.9395 727.7949,27.9395 Q728.6665,27.9395 729.7166,27.3584 Q730.7666,26.7773 731.0405,26.7773 Q731.3643,26.7773 731.5842,27.0513 Q731.8042,27.3252 731.8042,27.7319 Q731.8042,28.4624 730.5176,29.1099 Q729.231,29.7573 727.6206,29.7573 Q725.4458,29.7573 724.1011,28.3213 Q722.7563,26.8853 722.7563,24.5693 Q722.7563,22.3364 724.1177,20.8589 Q725.479,19.3813 727.5708,19.3813 Q728.1602,19.3813 728.7329,19.5142 Q729.3057,19.647 729.9531,19.9292 Z "/><text fill="#000000" font-family="sans-serif" font-size="12" lengthAdjust="spacingAndGlyphs" textLength="135" x="747.75" y="28.5352">CGpcCompatibleClients</text><line style="stroke: #A80036; stroke-width: 1.5;" x1="541" x2="1057" y1="40" y2="40"/><polygon fill="none" points="551,46.9775,555,50.9775,551,54.9775,547,50.9775" style="stroke: #B38D22; stroke-width: 1.0;"/><text fill="#000000" font-family="sans-serif" font-size="11" lengthAdjust="spacingAndGlyphs" textLength="24" x="560" y="54.6348">bool</text><text fill="#000000" font-family="sans-serif" font-size="11" lengthAdjust="spacingAndGlyphs" textLength="161" x="752" y="54.6348">m_bGpcUpgradeManagement;</text><polygon fill="none" points="551,59.9326,555,63.9326,551,67.9326,547,63.9326" style="stroke: #B38D22; stroke-width: 1.0;"/><text fill="#000000" font-family="sans-serif" font-size="11" lengthAdjust="spacingAndGlyphs" textLength="100" x="560" y="67.5898">eCompatibleStatus</text><text fill="#000000" font-family="sans-serif" font-size="11" lengthAdjust="spacingAndGlyphs" textLength="119" x="752" y="67.5898">m_eCompatibleStatus;</text><polygon fill="none" points="551,72.8877,555,76.8877,551,80.8877,547,76.8877" style="stroke: #B38D22; stroke-width: 1.0;"/><text fill="#000000" font-family="sans-serif" font-size="11" lengthAdjust="spacingAndGlyphs" textLength="32" x="560" y="80.5449">string</text><text fill="#000000" font-family="sans-serif" font-size="11" lengthAdjust="spacingAndGlyphs" textLength="170" x="728" y="80.5449">m_strCompatibleDownloadLink;</text><text fill="#000000" font-family="sans-serif" font-size="11" lengthAdjust="spacingAndGlyphs" textLength="0" x="563" y="93.5"/><polygon fill="none" points="551,98.7979,555,102.7979,551,106.7979,547,102.7979" style="stroke: #B38D22; stroke-width: 1.0;"/><text fill="#000000" font-family="sans-serif" font-size="11" lengthAdjust="spacingAndGlyphs" textLength="115" x="560" y="106.4551">CProductVersionHelp</text><text fill="#000000" font-family="sans-serif" font-size="11" lengthAdjust="spacingAndGlyphs" textLength="151" x="728" y="106.4551">m_LocalFirstDisplayVersion;</text><polygon fill="none" points="551,111.7529,555,115.7529,551,119.7529,547,115.7529" style="stroke: #B38D22; stroke-width: 1.0;"/><text fill="#000000" font-family="sans-serif" font-size="11" lengthAdjust="spacingAndGlyphs" textLength="115" x="560" y="119.4102">CProductVersionHelp</text><text fill="#000000" font-family="sans-serif" font-size="11" lengthAdjust="spacingAndGlyphs" textLength="166" x="728" y="119.4102">m_LocalSecondDisplayVersion;</text><text fill="#000000" font-family="sans-serif" font-size="11" lengthAdjust="spacingAndGlyphs" textLength="0" x="563" y="132.3652"/><polygon fill="none" points="551,137.6631,555,141.6631,551,145.6631,547,141.6631" style="stroke: #B38D22; stroke-width: 1.0;"/><text fill="#000000" font-family="sans-serif" font-size="11" lengthAdjust="spacingAndGlyphs" textLength="100" x="560" y="145.3203">CClientReleaseInfo</text><text fill="#000000" font-family="sans-serif" font-size="11" lengthAdjust="spacingAndGlyphs" textLength="148" x="728" y="145.3203">m_newestClientReleaseInfo;</text><polygon fill="none" points="551,150.6182,555,154.6182,551,158.6182,547,154.6182" style="stroke: #B38D22; stroke-width: 1.0;"/><text fill="#000000" font-family="sans-serif" font-size="11" lengthAdjust="spacingAndGlyphs" textLength="110" x="560" y="158.2754">vecClientReleaseInfo</text><text fill="#000000" font-family="sans-serif" font-size="11" lengthAdjust="spacingAndGlyphs" textLength="129" x="728" y="158.2754">m_vecClientReleaseInfo;</text><line style="stroke: #A80036; stroke-width: 1.5;" x1="541" x2="1057" y1="164.5957" y2="164.5957"/><ellipse cx="551" cy="176.5732" fill="#84BE84" rx="3" ry="3" style="stroke: #038048; stroke-width: 1.0;"/><text fill="#000000" font-family="sans-serif" font-size="11" lengthAdjust="spacingAndGlyphs" textLength="265" x="560" y="179.2305">void SetGpcUpgradeManagement(bool bUpgrade)</text><ellipse cx="551" cy="189.5283" fill="#84BE84" rx="3" ry="3" style="stroke: #038048; stroke-width: 1.0;"/><text fill="#000000" font-family="sans-serif" font-size="11" lengthAdjust="spacingAndGlyphs" textLength="284" x="560" y="192.1855">bool SetGpcCompatibleClients(const string&amp; strJson)</text><ellipse cx="551" cy="202.4834" fill="#84BE84" rx="3" ry="3" style="stroke: #038048; stroke-width: 1.0;"/><text fill="#000000" font-family="sans-serif" font-size="11" lengthAdjust="spacingAndGlyphs" textLength="492" x="560" y="205.1406">bool SetLocalDisplayVersion(const string&amp; strFirstVersion, const string&amp; strSecondVersion)</text><ellipse cx="551" cy="215.4385" fill="#84BE84" rx="3" ry="3" style="stroke: #038048; stroke-width: 1.0;"/><text fill="#000000" font-family="sans-serif" font-size="11" lengthAdjust="spacingAndGlyphs" textLength="315" x="560" y="218.0957">bool SetLocalFirstDisplayVersion(const string&amp; strVersion)</text><ellipse cx="551" cy="228.3936" fill="#84BE84" rx="3" ry="3" style="stroke: #038048; stroke-width: 1.0;"/><text fill="#000000" font-family="sans-serif" font-size="11" lengthAdjust="spacingAndGlyphs" textLength="330" x="560" y="231.0508">bool SetLocalSecondDisplayVersion(const string&amp; strVersion)</text><text fill="#000000" font-family="sans-serif" font-size="11" lengthAdjust="spacingAndGlyphs" textLength="0" x="563" y="244.0059"/><ellipse cx="551" cy="254.3037" fill="#84BE84" rx="3" ry="3" style="stroke: #038048; stroke-width: 1.0;"/><text fill="#000000" font-family="sans-serif" font-size="11" lengthAdjust="spacingAndGlyphs" textLength="137" x="560" y="256.9609">int GetCompatibleStatus()</text><ellipse cx="551" cy="267.2588" fill="#84BE84" rx="3" ry="3" style="stroke: #038048; stroke-width: 1.0;"/><text fill="#000000" font-family="sans-serif" font-size="11" lengthAdjust="spacingAndGlyphs" textLength="136" x="560" y="269.916">string GetDownloadLink()</text><ellipse cx="551" cy="280.2139" fill="#84BE84" rx="3" ry="3" style="stroke: #038048; stroke-width: 1.0;"/><text fill="#000000" font-family="sans-serif" font-size="11" lengthAdjust="spacingAndGlyphs" textLength="197" x="560" y="282.8711">string GetCompatibleDownloadLink()</text><text fill="#000000" font-family="sans-serif" font-size="11" lengthAdjust="spacingAndGlyphs" textLength="0" x="563" y="295.8262"/><polygon fill="#FFFF44" points="551,301.124,555,305.124,551,309.124,547,305.124" style="stroke: #B38D22; stroke-width: 1.0;"/><text fill="#000000" font-family="sans-serif" font-size="11" lengthAdjust="spacingAndGlyphs" textLength="305" x="560" y="308.7813">bool HandleGpcCompatibleClients(const string&amp; strJson)</text><polygon fill="#FFFF44" points="551,314.0791,555,318.0791,551,322.0791,547,318.0791" style="stroke: #B38D22; stroke-width: 1.0;"/><text fill="#000000" font-family="sans-serif" font-size="11" lengthAdjust="spacingAndGlyphs" textLength="345" x="560" y="321.7363">bool IsVersionCompatible(const CProductVersionHelp&amp; version)</text><polygon fill="#FFFF44" points="551,327.0342,555,331.0342,551,335.0342,547,331.0342" style="stroke: #B38D22; stroke-width: 1.0;"/><text fill="#000000" font-family="sans-serif" font-size="11" lengthAdjust="spacingAndGlyphs" textLength="165" x="560" y="334.6914">void HandleCompatibleStatus()</text><path d="M721.135,520.591 C741.352,531.997 763.678,543.692 785,553 C864.994,587.921 903.707,558.643 972,613 C1002.069,636.933 1022.36,677.105 1033.54,704.544 " fill="none" style="stroke: #A80036; stroke-width: 1.0; stroke-dasharray: 7.0,7.0;"/><polygon fill="#A80036" points="1035.53,709.513,1035.9092,699.6714,1033.6767,704.8691,1028.479,702.6367,1035.53,709.513" style="stroke: #A80036; stroke-width: 1.0;"/><path d="M613.94,531.514 C598.169,555.356 578.989,584.352 560.13,612.862 " fill="none" style="stroke: #A80036; stroke-width: 1.0;"/><polygon fill="#A80036" points="621.162,520.597,614.5158,523.3948,614.5422,530.6059,621.1884,527.8081,621.162,520.597" style="stroke: #A80036; stroke-width: 1.0;"/><text fill="#000000" font-family="sans-serif" font-size="13" lengthAdjust="spacingAndGlyphs" textLength="8" x="608.1337" y="541.0237">1</text><text fill="#000000" font-family="sans-serif" font-size="13" lengthAdjust="spacingAndGlyphs" textLength="10" x="554.943" y="602.189">N</text><path d="M716.873,341.235 C701.124,373.208 685.835,404.248 673.86,428.559 " fill="none" style="stroke: #A80036; stroke-width: 1.0; stroke-dasharray: 7.0,7.0;"/><polygon fill="#A80036" points="671.51,433.33,679.0765,427.0254,673.7203,428.8451,671.9006,423.4889,671.51,433.33" style="stroke: #A80036; stroke-width: 1.0;"/><path d="M887.611,353.198 C897.28,372.699 906.638,391.57 915.011,408.455 " fill="none" style="stroke: #A80036; stroke-width: 1.0;"/><polygon fill="#A80036" points="920.924,420.379,920.5092,410.5389,918.7027,415.8995,913.342,414.093,920.924,420.379" style="stroke: #A80036; stroke-width: 1.0;"/><line style="stroke: #A80036; stroke-width: 1.0;" x1="918.7027" x2="915.1485" y1="415.8995" y2="408.7325"/><polygon fill="#A80036" points="881.678,341.235,880.76,348.3874,887.0092,351.9857,887.9272,344.8333,881.678,341.235" style="stroke: #A80036; stroke-width: 1.0;"/><path d="M549.897,351.337 C537.067,367.002 525.559,383.575 516,401 C483.097,460.977 472.832,536.155 471.348,599.895 " fill="none" style="stroke: #A80036; stroke-width: 1.0;"/><polygon fill="#A80036" points="471.161,612.898,475.2892,603.9561,471.2324,607.8985,467.29,603.8418,471.161,612.898" style="stroke: #A80036; stroke-width: 1.0;"/><line style="stroke: #A80036; stroke-width: 1.0;" x1="471.2324" x2="471.3475" y1="607.8985" y2="599.899"/><polygon fill="#A80036" points="558.512,341.173,551.5811,343.1637,550.753,350.3271,557.6839,348.3364,558.512,341.173" style="stroke: #A80036; stroke-width: 1.0;"/><path d="M1069.63,341.23 C1099.16,359.425 1128.2,377.318 1155.02,393.841 " fill="none" style="stroke: #A80036; stroke-width: 1.0;"/><polygon fill="#A80036" points="1166.37,400.835,1160.8035,392.7101,1162.1124,398.2135,1156.609,399.5224,1166.37,400.835" style="stroke: #A80036; stroke-width: 1.0;"/><line style="stroke: #A80036; stroke-width: 1.0;" x1="1162.1124" x2="1155.305" y1="398.2135" y2="394.0165"/><polygon fill="#A80036" points="1058.16,334.165,1061.1723,340.7168,1068.3787,340.4561,1065.3664,333.9043,1058.16,334.165" style="stroke: #A80036; stroke-width: 1.0;"/></g></svg>