<?xml version="1.0" encoding="UTF-8" standalone="no"?><svg xmlns="http://www.w3.org/2000/svg" xmlns:xlink="http://www.w3.org/1999/xlink" contentScriptType="application/ecmascript" contentStyleType="text/css" height="1371px" preserveAspectRatio="none" style="width:1889px;height:1371px;" version="1.1" viewBox="0 0 1889 1371" width="1889px" zoomAndPan="magnify"><defs><filter height="300%" id="ffo00vh" width="300%" x="-1" y="-1"><feGaussianBlur result="blurOut" stdDeviation="2.0"/><feColorMatrix in="blurOut" result="blurOut2" type="matrix" values="0 0 0 0 0 0 0 0 0 0 0 0 0 0 0 0 0 0 .4 0"/><feOffset dx="4.0" dy="4.0" in="blurOut2" result="blurOut3"/><feBlend in="SourceGraphic" in2="blurOut3" mode="normal"/></filter></defs><g><line style="stroke: #A80036; stroke-width: 1.0; stroke-dasharray: 5.0,5.0;" x1="125" x2="125" y1="38.4883" y2="1333.0469"/><line style="stroke: #A80036; stroke-width: 1.0; stroke-dasharray: 5.0,5.0;" x1="292.5" x2="292.5" y1="38.4883" y2="1333.0469"/><line style="stroke: #A80036; stroke-width: 1.0; stroke-dasharray: 5.0,5.0;" x1="485.5" x2="485.5" y1="38.4883" y2="1333.0469"/><line style="stroke: #A80036; stroke-width: 1.0; stroke-dasharray: 5.0,5.0;" x1="681.5" x2="681.5" y1="38.4883" y2="1333.0469"/><line style="stroke: #A80036; stroke-width: 1.0; stroke-dasharray: 5.0,5.0;" x1="872.5" x2="872.5" y1="38.4883" y2="1333.0469"/><line style="stroke: #A80036; stroke-width: 1.0; stroke-dasharray: 5.0,5.0;" x1="1087.5" x2="1087.5" y1="38.4883" y2="1333.0469"/><line style="stroke: #A80036; stroke-width: 1.0; stroke-dasharray: 5.0,5.0;" x1="1340.5" x2="1340.5" y1="38.4883" y2="1333.0469"/><line style="stroke: #A80036; stroke-width: 1.0; stroke-dasharray: 5.0,5.0;" x1="1601.5" x2="1601.5" y1="38.4883" y2="1333.0469"/><line style="stroke: #A80036; stroke-width: 1.0; stroke-dasharray: 5.0,5.0;" x1="1779.5" x2="1779.5" y1="38.4883" y2="1333.0469"/><rect fill="#FEFECE" filter="url(#ffo00vh)" height="30.4883" style="stroke: #A80036; stroke-width: 1.5;" width="108" x="69" y="3"/><text fill="#000000" font-family="sans-serif" font-size="14" lengthAdjust="spacingAndGlyphs" textLength="94" x="76" y="23.5352">GPCGlobalAPI</text><rect fill="#FEFECE" filter="url(#ffo00vh)" height="30.4883" style="stroke: #A80036; stroke-width: 1.5;" width="108" x="69" y="1332.0469"/><text fill="#000000" font-family="sans-serif" font-size="14" lengthAdjust="spacingAndGlyphs" textLength="94" x="76" y="1352.582">GPCGlobalAPI</text><rect fill="#FEFECE" filter="url(#ffo00vh)" height="30.4883" style="stroke: #A80036; stroke-width: 1.5;" width="137" x="222.5" y="3"/><text fill="#000000" font-family="sans-serif" font-size="14" lengthAdjust="spacingAndGlyphs" textLength="123" x="229.5" y="23.5352">CATGpcExtension</text><rect fill="#FEFECE" filter="url(#ffo00vh)" height="30.4883" style="stroke: #A80036; stroke-width: 1.5;" width="137" x="222.5" y="1332.0469"/><text fill="#000000" font-family="sans-serif" font-size="14" lengthAdjust="spacingAndGlyphs" textLength="123" x="229.5" y="1352.582">CATGpcExtension</text><rect fill="#FEFECE" filter="url(#ffo00vh)" height="30.4883" style="stroke: #A80036; stroke-width: 1.5;" width="221" x="373.5" y="3"/><text fill="#000000" font-family="sans-serif" font-size="14" lengthAdjust="spacingAndGlyphs" textLength="207" x="380.5" y="23.5352">CATGpcExtensionNoScriptCall</text><rect fill="#FEFECE" filter="url(#ffo00vh)" height="30.4883" style="stroke: #A80036; stroke-width: 1.5;" width="221" x="373.5" y="1332.0469"/><text fill="#000000" font-family="sans-serif" font-size="14" lengthAdjust="spacingAndGlyphs" textLength="207" x="380.5" y="1352.582">CATGpcExtensionNoScriptCall</text><rect fill="#FEFECE" filter="url(#ffo00vh)" height="30.4883" style="stroke: #A80036; stroke-width: 1.5;" width="142" x="608.5" y="3"/><text fill="#000000" font-family="sans-serif" font-size="14" lengthAdjust="spacingAndGlyphs" textLength="128" x="615.5" y="23.5352">CMeetingLauncher</text><rect fill="#FEFECE" filter="url(#ffo00vh)" height="30.4883" style="stroke: #A80036; stroke-width: 1.5;" width="142" x="608.5" y="1332.0469"/><text fill="#000000" font-family="sans-serif" font-size="14" lengthAdjust="spacingAndGlyphs" textLength="128" x="615.5" y="1352.582">CMeetingLauncher</text><rect fill="#FEFECE" filter="url(#ffo00vh)" height="30.4883" style="stroke: #A80036; stroke-width: 1.5;" width="212" x="764.5" y="3"/><text fill="#000000" font-family="sans-serif" font-size="14" lengthAdjust="spacingAndGlyphs" textLength="198" x="771.5" y="23.5352">CJmeParameterWriter_Helper</text><rect fill="#FEFECE" filter="url(#ffo00vh)" height="30.4883" style="stroke: #A80036; stroke-width: 1.5;" width="212" x="764.5" y="1332.0469"/><text fill="#000000" font-family="sans-serif" font-size="14" lengthAdjust="spacingAndGlyphs" textLength="198" x="771.5" y="1352.582">CJmeParameterWriter_Helper</text><rect fill="#FEFECE" filter="url(#ffo00vh)" height="30.4883" style="stroke: #A80036; stroke-width: 1.5;" width="190" x="990.5" y="3"/><text fill="#000000" font-family="sans-serif" font-size="14" lengthAdjust="spacingAndGlyphs" textLength="176" x="997.5" y="23.5352">CJmeParameterWriterImpl</text><rect fill="#FEFECE" filter="url(#ffo00vh)" height="30.4883" style="stroke: #A80036; stroke-width: 1.5;" width="190" x="990.5" y="1332.0469"/><text fill="#000000" font-family="sans-serif" font-size="14" lengthAdjust="spacingAndGlyphs" textLength="176" x="997.5" y="1352.582">CJmeParameterWriterImpl</text><rect fill="#FEFECE" filter="url(#ffo00vh)" height="30.4883" style="stroke: #A80036; stroke-width: 1.5;" width="246" x="1215.5" y="3"/><text fill="#000000" font-family="sans-serif" font-size="14" lengthAdjust="spacingAndGlyphs" textLength="232" x="1222.5" y="23.5352">CJmeParameterWriter_Helper_ARF</text><rect fill="#FEFECE" filter="url(#ffo00vh)" height="30.4883" style="stroke: #A80036; stroke-width: 1.5;" width="246" x="1215.5" y="1332.0469"/><text fill="#000000" font-family="sans-serif" font-size="14" lengthAdjust="spacingAndGlyphs" textLength="232" x="1222.5" y="1352.582">CJmeParameterWriter_Helper_ARF</text><rect fill="#FEFECE" filter="url(#ffo00vh)" height="30.4883" style="stroke: #A80036; stroke-width: 1.5;" width="132" x="1533.5" y="3"/><text fill="#000000" font-family="sans-serif" font-size="14" lengthAdjust="spacingAndGlyphs" textLength="118" x="1540.5" y="23.5352">CIniFileParseImpl</text><rect fill="#FEFECE" filter="url(#ffo00vh)" height="30.4883" style="stroke: #A80036; stroke-width: 1.5;" width="132" x="1533.5" y="1332.0469"/><text fill="#000000" font-family="sans-serif" font-size="14" lengthAdjust="spacingAndGlyphs" textLength="118" x="1540.5" y="1352.582">CIniFileParseImpl</text><rect fill="#FEFECE" filter="url(#ffo00vh)" height="30.4883" style="stroke: #A80036; stroke-width: 1.5;" width="196" x="1679.5" y="3"/><text fill="#000000" font-family="sans-serif" font-size="14" lengthAdjust="spacingAndGlyphs" textLength="182" x="1686.5" y="23.5352">CJmeActionDispatcherImpl</text><rect fill="#FEFECE" filter="url(#ffo00vh)" height="30.4883" style="stroke: #A80036; stroke-width: 1.5;" width="196" x="1679.5" y="1332.0469"/><text fill="#000000" font-family="sans-serif" font-size="14" lengthAdjust="spacingAndGlyphs" textLength="182" x="1686.5" y="1352.582">CJmeActionDispatcherImpl</text><polygon fill="#A80036" points="113,65.4883,123,69.4883,113,73.4883,117,69.4883" style="stroke: #A80036; stroke-width: 1.0;"/><line style="stroke: #A80036; stroke-width: 1.0;" x1="3" x2="119" y1="69.4883" y2="69.4883"/><text fill="#000000" font-family="sans-serif" font-size="13" lengthAdjust="spacingAndGlyphs" textLength="98" x="10" y="65.0566">GpcInitInstance</text><line style="stroke: #A80036; stroke-width: 1.0;" x1="125" x2="167" y1="99.1094" y2="99.1094"/><line style="stroke: #A80036; stroke-width: 1.0;" x1="167" x2="167" y1="99.1094" y2="112.1094"/><line style="stroke: #A80036; stroke-width: 1.0;" x1="126" x2="167" y1="112.1094" y2="112.1094"/><polygon fill="#A80036" points="136,108.1094,126,112.1094,136,116.1094,132,112.1094" style="stroke: #A80036; stroke-width: 1.0;"/><text fill="#000000" font-family="sans-serif" font-size="13" lengthAdjust="spacingAndGlyphs" textLength="105" x="132" y="94.3672">Gpc_InitInstance</text><polygon fill="#FBFB77" filter="url(#ffo00vh)" points="62,125.1094,62,150.1094,183,150.1094,183,135.1094,173,125.1094,62,125.1094" style="stroke: #A80036; stroke-width: 1.0;"/><line style="stroke: #A80036; stroke-width: 1.0;" x1="173" x2="173" y1="125.1094" y2="135.1094"/><line style="stroke: #A80036; stroke-width: 1.0;" x1="183" x2="173" y1="135.1094" y2="135.1094"/><text fill="#000000" font-family="sans-serif" font-size="13" lengthAdjust="spacingAndGlyphs" textLength="100" x="68" y="142.6777">JME not support</text><polygon fill="#A80036" points="281,176.4199,291,180.4199,281,184.4199,285,180.4199" style="stroke: #A80036; stroke-width: 1.0;"/><line style="stroke: #A80036; stroke-width: 1.0;" x1="125" x2="287" y1="180.4199" y2="180.4199"/><text fill="#000000" font-family="sans-serif" font-size="13" lengthAdjust="spacingAndGlyphs" textLength="144" x="132" y="175.9883">CreateATGPCExtension</text><polygon fill="#FBFB77" filter="url(#ffo00vh)" points="64,193.7305,64,218.7305,353,218.7305,353,203.7305,343,193.7305,64,193.7305" style="stroke: #A80036; stroke-width: 1.0;"/><line style="stroke: #A80036; stroke-width: 1.0;" x1="343" x2="343" y1="193.7305" y2="203.7305"/><line style="stroke: #A80036; stroke-width: 1.0;" x1="353" x2="343" y1="203.7305" y2="203.7305"/><text fill="#000000" font-family="sans-serif" font-size="13" lengthAdjust="spacingAndGlyphs" textLength="219" x="92.75" y="211.2988">new CATGpcExtensionNoScriptCall</text><polygon fill="#A80036" points="281,245.041,291,249.041,281,253.041,285,249.041" style="stroke: #A80036; stroke-width: 1.0;"/><line style="stroke: #A80036; stroke-width: 1.0;" x1="125" x2="287" y1="249.041" y2="249.041"/><text fill="#000000" font-family="sans-serif" font-size="13" lengthAdjust="spacingAndGlyphs" textLength="74" x="132" y="244.6094">InitInstance</text><polygon fill="#A80036" points="113,274.3516,123,278.3516,113,282.3516,117,278.3516" style="stroke: #A80036; stroke-width: 1.0;"/><line style="stroke: #A80036; stroke-width: 1.0;" x1="3" x2="119" y1="278.3516" y2="278.3516"/><text fill="#000000" font-family="sans-serif" font-size="13" lengthAdjust="spacingAndGlyphs" textLength="85" x="10" y="273.9199">GpcHeartbeat</text><polygon fill="#A80036" points="281,303.6621,291,307.6621,281,311.6621,285,307.6621" style="stroke: #A80036; stroke-width: 1.0;"/><line style="stroke: #A80036; stroke-width: 1.0;" x1="125" x2="287" y1="307.6621" y2="307.6621"/><text fill="#000000" font-family="sans-serif" font-size="13" lengthAdjust="spacingAndGlyphs" textLength="61" x="132" y="303.2305">Heartbeat</text><line style="stroke: #A80036; stroke-width: 1.0;" x1="293" x2="335" y1="337.2832" y2="337.2832"/><line style="stroke: #A80036; stroke-width: 1.0;" x1="335" x2="335" y1="337.2832" y2="350.2832"/><line style="stroke: #A80036; stroke-width: 1.0;" x1="294" x2="335" y1="350.2832" y2="350.2832"/><polygon fill="#A80036" points="304,346.2832,294,350.2832,304,354.2832,300,350.2832" style="stroke: #A80036; stroke-width: 1.0;"/><text fill="#000000" font-family="sans-serif" font-size="13" lengthAdjust="spacingAndGlyphs" textLength="94" x="300" y="332.541">InitComponent</text><line style="stroke: #A80036; stroke-width: 1.0;" x1="293" x2="335" y1="379.5938" y2="379.5938"/><line style="stroke: #A80036; stroke-width: 1.0;" x1="335" x2="335" y1="379.5938" y2="392.5938"/><line style="stroke: #A80036; stroke-width: 1.0;" x1="294" x2="335" y1="392.5938" y2="392.5938"/><polygon fill="#A80036" points="304,388.5938,294,392.5938,304,396.5938,300,392.5938" style="stroke: #A80036; stroke-width: 1.0;"/><text fill="#000000" font-family="sans-serif" font-size="13" lengthAdjust="spacingAndGlyphs" textLength="79" x="300" y="374.8516">StartMeeting</text><polygon fill="#A80036" points="474,417.5938,484,421.5938,474,425.5938,478,421.5938" style="stroke: #A80036; stroke-width: 1.0;"/><line style="stroke: #A80036; stroke-width: 1.0;" x1="293" x2="480" y1="421.5938" y2="421.5938"/><text fill="#000000" font-family="sans-serif" font-size="13" lengthAdjust="spacingAndGlyphs" textLength="79" x="300" y="417.1621">StartMeeting</text><polygon fill="#A80036" points="669.5,446.9043,679.5,450.9043,669.5,454.9043,673.5,450.9043" style="stroke: #A80036; stroke-width: 1.0;"/><line style="stroke: #A80036; stroke-width: 1.0;" x1="486" x2="675.5" y1="450.9043" y2="450.9043"/><text fill="#000000" font-family="sans-serif" font-size="13" lengthAdjust="spacingAndGlyphs" textLength="79" x="493" y="446.4727">StartMeeting</text><polygon fill="#FBFB77" filter="url(#ffo00vh)" points="223,464.2148,223,489.2148,750,489.2148,750,474.2148,740,464.2148,223,464.2148" style="stroke: #A80036; stroke-width: 1.0;"/><line style="stroke: #A80036; stroke-width: 1.0;" x1="740" x2="740" y1="464.2148" y2="474.2148"/><line style="stroke: #A80036; stroke-width: 1.0;" x1="750" x2="740" y1="474.2148" y2="474.2148"/><text fill="#000000" font-family="sans-serif" font-size="13" lengthAdjust="spacingAndGlyphs" textLength="202" x="379" y="481.7832">gpccomponentname(atplycli.dll)</text><line style="stroke: #A80036; stroke-width: 1.0;" x1="681.5" x2="723.5" y1="519.8359" y2="519.8359"/><line style="stroke: #A80036; stroke-width: 1.0;" x1="723.5" x2="723.5" y1="519.8359" y2="532.8359"/><line style="stroke: #A80036; stroke-width: 1.0;" x1="682.5" x2="723.5" y1="532.8359" y2="532.8359"/><polygon fill="#A80036" points="692.5,528.8359,682.5,532.8359,692.5,536.8359,688.5,532.8359" style="stroke: #A80036; stroke-width: 1.0;"/><text fill="#000000" font-family="sans-serif" font-size="13" lengthAdjust="spacingAndGlyphs" textLength="94" x="688.5" y="515.0938">InitJmeContext</text><line style="stroke: #A80036; stroke-width: 1.0;" x1="681.5" x2="723.5" y1="562.1465" y2="562.1465"/><line style="stroke: #A80036; stroke-width: 1.0;" x1="723.5" x2="723.5" y1="562.1465" y2="575.1465"/><line style="stroke: #A80036; stroke-width: 1.0;" x1="682.5" x2="723.5" y1="575.1465" y2="575.1465"/><polygon fill="#A80036" points="692.5,571.1465,682.5,575.1465,692.5,579.1465,688.5,575.1465" style="stroke: #A80036; stroke-width: 1.0;"/><text fill="#000000" font-family="sans-serif" font-size="13" lengthAdjust="spacingAndGlyphs" textLength="56" x="688.5" y="557.4043">CreateIni</text><polygon fill="#A80036" points="1075.5,600.1465,1085.5,604.1465,1075.5,608.1465,1079.5,604.1465" style="stroke: #A80036; stroke-width: 1.0;"/><line style="stroke: #A80036; stroke-width: 1.0;" x1="681.5" x2="1081.5" y1="604.1465" y2="604.1465"/><text fill="#000000" font-family="sans-serif" font-size="13" lengthAdjust="spacingAndGlyphs" textLength="32" x="688.5" y="599.7148">Write</text><line style="stroke: #A80036; stroke-width: 1.0;" x1="1087.5" x2="1129.5" y1="633.7676" y2="633.7676"/><line style="stroke: #A80036; stroke-width: 1.0;" x1="1129.5" x2="1129.5" y1="633.7676" y2="646.7676"/><line style="stroke: #A80036; stroke-width: 1.0;" x1="1088.5" x2="1129.5" y1="646.7676" y2="646.7676"/><polygon fill="#A80036" points="1098.5,642.7676,1088.5,646.7676,1098.5,650.7676,1094.5,646.7676" style="stroke: #A80036; stroke-width: 1.0;"/><text fill="#000000" font-family="sans-serif" font-size="13" lengthAdjust="spacingAndGlyphs" textLength="59" x="1094.5" y="629.0254">InitParam</text><line style="stroke: #A80036; stroke-width: 1.0;" x1="1087.5" x2="1129.5" y1="676.0781" y2="676.0781"/><line style="stroke: #A80036; stroke-width: 1.0;" x1="1129.5" x2="1129.5" y1="676.0781" y2="689.0781"/><line style="stroke: #A80036; stroke-width: 1.0;" x1="1088.5" x2="1129.5" y1="689.0781" y2="689.0781"/><polygon fill="#A80036" points="1098.5,685.0781,1088.5,689.0781,1098.5,693.0781,1094.5,689.0781" style="stroke: #A80036; stroke-width: 1.0;"/><text fill="#000000" font-family="sans-serif" font-size="13" lengthAdjust="spacingAndGlyphs" textLength="156" x="1094.5" y="671.3359">InitParameterWriteHelper</text><line style="stroke: #A80036; stroke-width: 1.0;" x1="1087.5" x2="1129.5" y1="718.3887" y2="718.3887"/><line style="stroke: #A80036; stroke-width: 1.0;" x1="1129.5" x2="1129.5" y1="718.3887" y2="731.3887"/><line style="stroke: #A80036; stroke-width: 1.0;" x1="1088.5" x2="1129.5" y1="731.3887" y2="731.3887"/><polygon fill="#A80036" points="1098.5,727.3887,1088.5,731.3887,1098.5,735.3887,1094.5,731.3887" style="stroke: #A80036; stroke-width: 1.0;"/><text fill="#000000" font-family="sans-serif" font-size="13" lengthAdjust="spacingAndGlyphs" textLength="239" x="1094.5" y="713.6465">new CJmeParameterWriter_Helper_ARF</text><line style="stroke: #A80036; stroke-width: 1.0;" x1="1087.5" x2="1129.5" y1="760.6992" y2="760.6992"/><line style="stroke: #A80036; stroke-width: 1.0;" x1="1129.5" x2="1129.5" y1="760.6992" y2="773.6992"/><line style="stroke: #A80036; stroke-width: 1.0;" x1="1088.5" x2="1129.5" y1="773.6992" y2="773.6992"/><polygon fill="#A80036" points="1098.5,769.6992,1088.5,773.6992,1098.5,777.6992,1094.5,773.6992" style="stroke: #A80036; stroke-width: 1.0;"/><text fill="#000000" font-family="sans-serif" font-size="13" lengthAdjust="spacingAndGlyphs" textLength="171" x="1094.5" y="755.957">WriteParameterFromInitCall</text><polygon fill="#A80036" points="883.5,798.6992,873.5,802.6992,883.5,806.6992,879.5,802.6992" style="stroke: #A80036; stroke-width: 1.0;"/><line style="stroke: #A80036; stroke-width: 1.0;" x1="877.5" x2="1086.5" y1="802.6992" y2="802.6992"/><text fill="#000000" font-family="sans-serif" font-size="13" lengthAdjust="spacingAndGlyphs" textLength="145" x="889.5" y="798.2676">ProcessOtherValueItem</text><rect fill="#EEEEEE" filter="url(#ffo00vh)" height="3" style="stroke: #EEEEEE; stroke-width: 1.0;" width="1881.5" x="3" y="831.665"/><line style="stroke: #000000; stroke-width: 1.0;" x1="3" x2="1884.5" y1="831.665" y2="831.665"/><line style="stroke: #000000; stroke-width: 1.0;" x1="3" x2="1884.5" y1="834.665" y2="834.665"/><rect fill="#EEEEEE" filter="url(#ffo00vh)" height="23.3105" style="stroke: #000000; stroke-width: 2.0;" width="447" x="720.25" y="821.0098"/><text fill="#000000" font-family="sans-serif" font-size="13" font-weight="bold" lengthAdjust="spacingAndGlyphs" textLength="429" x="726.25" y="837.5781">CJmeParameterWriter_Helper_ARF Handle detail webex.ini logic</text><polygon fill="#A80036" points="1328.5,871.3203,1338.5,875.3203,1328.5,879.3203,1332.5,875.3203" style="stroke: #A80036; stroke-width: 1.0;"/><line style="stroke: #A80036; stroke-width: 1.0;" x1="872.5" x2="1334.5" y1="875.3203" y2="875.3203"/><text fill="#000000" font-family="sans-serif" font-size="13" lengthAdjust="spacingAndGlyphs" textLength="145" x="879.5" y="870.8887">ProcessOtherValueItem</text><line style="stroke: #A80036; stroke-width: 1.0;" x1="1340.5" x2="1382.5" y1="904.9414" y2="904.9414"/><line style="stroke: #A80036; stroke-width: 1.0;" x1="1382.5" x2="1382.5" y1="904.9414" y2="917.9414"/><line style="stroke: #A80036; stroke-width: 1.0;" x1="1341.5" x2="1382.5" y1="917.9414" y2="917.9414"/><polygon fill="#A80036" points="1351.5,913.9414,1341.5,917.9414,1351.5,921.9414,1347.5,917.9414" style="stroke: #A80036; stroke-width: 1.0;"/><text fill="#000000" font-family="sans-serif" font-size="13" lengthAdjust="spacingAndGlyphs" textLength="126" x="1347.5" y="900.1992">NameValue_Handler</text><line style="stroke: #A80036; stroke-width: 1.0;" x1="1340.5" x2="1382.5" y1="947.252" y2="947.252"/><line style="stroke: #A80036; stroke-width: 1.0;" x1="1382.5" x2="1382.5" y1="947.252" y2="960.252"/><line style="stroke: #A80036; stroke-width: 1.0;" x1="1341.5" x2="1382.5" y1="960.252" y2="960.252"/><polygon fill="#A80036" points="1351.5,956.252,1341.5,960.252,1351.5,964.252,1347.5,960.252" style="stroke: #A80036; stroke-width: 1.0;"/><text fill="#000000" font-family="sans-serif" font-size="13" lengthAdjust="spacingAndGlyphs" textLength="247" x="1347.5" y="942.5098">NBR2_SetDownloadParameters_Handler</text><line style="stroke: #A80036; stroke-width: 1.0;" x1="1340.5" x2="1382.5" y1="989.5625" y2="989.5625"/><line style="stroke: #A80036; stroke-width: 1.0;" x1="1382.5" x2="1382.5" y1="989.5625" y2="1002.5625"/><line style="stroke: #A80036; stroke-width: 1.0;" x1="1341.5" x2="1382.5" y1="1002.5625" y2="1002.5625"/><polygon fill="#A80036" points="1351.5,998.5625,1341.5,1002.5625,1351.5,1006.5625,1347.5,1002.5625" style="stroke: #A80036; stroke-width: 1.0;"/><text fill="#000000" font-family="sans-serif" font-size="13" lengthAdjust="spacingAndGlyphs" textLength="207" x="1347.5" y="984.8203">NBR2_SetControlParams_Handler</text><line style="stroke: #A80036; stroke-width: 1.0;" x1="1340.5" x2="1382.5" y1="1031.873" y2="1031.873"/><line style="stroke: #A80036; stroke-width: 1.0;" x1="1382.5" x2="1382.5" y1="1031.873" y2="1044.873"/><line style="stroke: #A80036; stroke-width: 1.0;" x1="1341.5" x2="1382.5" y1="1044.873" y2="1044.873"/><polygon fill="#A80036" points="1351.5,1040.873,1341.5,1044.873,1351.5,1048.873,1347.5,1044.873" style="stroke: #A80036; stroke-width: 1.0;"/><text fill="#000000" font-family="sans-serif" font-size="13" lengthAdjust="spacingAndGlyphs" textLength="214" x="1347.5" y="1027.1309">NBR2_SetAdditionParams_Handler</text><line style="stroke: #A80036; stroke-width: 1.0;" x1="1087.5" x2="1129.5" y1="1074.1836" y2="1074.1836"/><line style="stroke: #A80036; stroke-width: 1.0;" x1="1129.5" x2="1129.5" y1="1074.1836" y2="1087.1836"/><line style="stroke: #A80036; stroke-width: 1.0;" x1="1088.5" x2="1129.5" y1="1087.1836" y2="1087.1836"/><polygon fill="#A80036" points="1098.5,1083.1836,1088.5,1087.1836,1098.5,1091.1836,1094.5,1087.1836" style="stroke: #A80036; stroke-width: 1.0;"/><text fill="#000000" font-family="sans-serif" font-size="13" lengthAdjust="spacingAndGlyphs" textLength="170" x="1094.5" y="1069.4414">WriteParameterAfterInitCall</text><line style="stroke: #A80036; stroke-width: 1.0;" x1="1087.5" x2="1129.5" y1="1116.4941" y2="1116.4941"/><line style="stroke: #A80036; stroke-width: 1.0;" x1="1129.5" x2="1129.5" y1="1116.4941" y2="1129.4941"/><line style="stroke: #A80036; stroke-width: 1.0;" x1="1088.5" x2="1129.5" y1="1129.4941" y2="1129.4941"/><polygon fill="#A80036" points="1098.5,1125.4941,1088.5,1129.4941,1098.5,1133.4941,1094.5,1129.4941" style="stroke: #A80036; stroke-width: 1.0;"/><text fill="#000000" font-family="sans-serif" font-size="13" lengthAdjust="spacingAndGlyphs" textLength="121" x="1094.5" y="1111.752">WriteOtherIniParam</text><line style="stroke: #A80036; stroke-width: 1.0;" x1="1087.5" x2="1129.5" y1="1158.8047" y2="1158.8047"/><line style="stroke: #A80036; stroke-width: 1.0;" x1="1129.5" x2="1129.5" y1="1158.8047" y2="1171.8047"/><line style="stroke: #A80036; stroke-width: 1.0;" x1="1088.5" x2="1129.5" y1="1171.8047" y2="1171.8047"/><polygon fill="#A80036" points="1098.5,1167.8047,1088.5,1171.8047,1098.5,1175.8047,1094.5,1171.8047" style="stroke: #A80036; stroke-width: 1.0;"/><text fill="#000000" font-family="sans-serif" font-size="13" lengthAdjust="spacingAndGlyphs" textLength="167" x="1094.5" y="1154.0625">WriteParameterInContainer</text><polygon fill="#A80036" points="1589.5,1196.8047,1599.5,1200.8047,1589.5,1204.8047,1593.5,1200.8047" style="stroke: #A80036; stroke-width: 1.0;"/><line style="stroke: #A80036; stroke-width: 1.0;" x1="1087.5" x2="1595.5" y1="1200.8047" y2="1200.8047"/><text fill="#000000" font-family="sans-serif" font-size="13" lengthAdjust="spacingAndGlyphs" textLength="88" x="1094.5" y="1196.373">CommitIniFile</text><line style="stroke: #A80036; stroke-width: 1.0;" x1="681.5" x2="723.5" y1="1230.4258" y2="1230.4258"/><line style="stroke: #A80036; stroke-width: 1.0;" x1="723.5" x2="723.5" y1="1230.4258" y2="1243.4258"/><line style="stroke: #A80036; stroke-width: 1.0;" x1="682.5" x2="723.5" y1="1243.4258" y2="1243.4258"/><polygon fill="#A80036" points="692.5,1239.4258,682.5,1243.4258,692.5,1247.4258,688.5,1243.4258" style="stroke: #A80036; stroke-width: 1.0;"/><text fill="#000000" font-family="sans-serif" font-size="13" lengthAdjust="spacingAndGlyphs" textLength="71" x="688.5" y="1225.6836">GoToLobby</text><polygon fill="#A80036" points="1767.5,1268.4258,1777.5,1272.4258,1767.5,1276.4258,1771.5,1272.4258" style="stroke: #A80036; stroke-width: 1.0;"/><line style="stroke: #A80036; stroke-width: 1.0;" x1="681.5" x2="1773.5" y1="1272.4258" y2="1272.4258"/><text fill="#000000" font-family="sans-serif" font-size="13" lengthAdjust="spacingAndGlyphs" textLength="28" x="688.5" y="1267.9941">:Run</text><line style="stroke: #A80036; stroke-width: 1.0;" x1="1779.5" x2="1821.5" y1="1302.0469" y2="1302.0469"/><line style="stroke: #A80036; stroke-width: 1.0;" x1="1821.5" x2="1821.5" y1="1302.0469" y2="1315.0469"/><line style="stroke: #A80036; stroke-width: 1.0;" x1="1780.5" x2="1821.5" y1="1315.0469" y2="1315.0469"/><polygon fill="#A80036" points="1790.5,1311.0469,1780.5,1315.0469,1790.5,1319.0469,1786.5,1315.0469" style="stroke: #A80036; stroke-width: 1.0;"/><text fill="#000000" font-family="sans-serif" font-size="13" lengthAdjust="spacingAndGlyphs" textLength="89" x="1786.5" y="1297.3047">InitDispatcher</text></g></svg>