<?xml version="1.0" encoding="UTF-8" standalone="yes"?><svg xmlns="http://www.w3.org/2000/svg" xmlns:xlink="http://www.w3.org/1999/xlink" height="580pt" style="width:693px;height:580px;" version="1.1" viewBox="0 0 693 580" width="693pt"><defs><filter height="300%" id="f1" width="300%" x="-1" y="-1"><feGaussianBlur result="blurOut" stdDeviation="2.0"/><feColorMatrix in="blurOut" result="blurOut2" type="matrix" values="0 0 0 0 0 0 0 0 0 0 0 0 0 0 0 0 0 0 .4 0"/><feOffset dx="4.0" dy="4.0" in="blurOut2" result="blurOut3"/><feBlend in="SourceGraphic" in2="blurOut3" mode="normal"/></filter></defs><g><rect fill="#FFFFFF" filter="url(#f1)" height="34.3105" style="stroke: #A80036; stroke-width: 1.0;" width="10" x="264" y="440.2832"/><rect fill="#FFFFFF" filter="url(#f1)" height="100.9316" style="stroke: #A80036; stroke-width: 1.0;" width="10" x="410" y="190.1094"/><rect fill="#DDDDDD" height="575.3926" style="stroke: #A80036; stroke-width: 1.0;" width="564" x="51" y="4"/><text fill="#000000" font-family="sans-serif" font-size="13" font-weight="bold" lengthAdjust="spacingAndGlyphs" textLength="111" x="277.5" y="16.5684">CiscoWebExStart</text><line style="stroke: #A80036; stroke-width: 1.0; stroke-dasharray: 5.0,5.0;" x1="26" x2="26" y1="86.4883" y2="492.9043"/><line style="stroke: #A80036; stroke-width: 1.0; stroke-dasharray: 5.0,5.0;" x1="138" x2="138" y1="86.4883" y2="492.9043"/><line style="stroke: #A80036; stroke-width: 1.0; stroke-dasharray: 5.0,5.0;" x1="269" x2="269" y1="86.4883" y2="492.9043"/><line style="stroke: #A80036; stroke-width: 1.0; stroke-dasharray: 5.0,5.0;" x1="415" x2="415" y1="86.4883" y2="492.9043"/><line style="stroke: #A80036; stroke-width: 1.0; stroke-dasharray: 5.0,5.0;" x1="544" x2="544" y1="86.4883" y2="492.9043"/><line style="stroke: #A80036; stroke-width: 1.0; stroke-dasharray: 5.0,5.0;" x1="651" x2="651" y1="86.4883" y2="492.9043"/><text fill="#000000" font-family="sans-serif" font-size="14" lengthAdjust="spacingAndGlyphs" textLength="31" x="8" y="83.5352">User</text><ellipse cx="26.5" cy="13" fill="#FEFECE" filter="url(#f1)" rx="8" ry="8" style="stroke: #A80036; stroke-width: 2.0;"/><path d="M26.5,21 L26.5,48 M13.5,29 L39.5,29 M26.5,48 L13.5,63 M26.5,48 L39.5,63 " fill="#FEFECE" filter="url(#f1)" style="stroke: #A80036; stroke-width: 2.0;"/><text fill="#000000" font-family="sans-serif" font-size="14" lengthAdjust="spacingAndGlyphs" textLength="31" x="8" y="505.4395">User</text><ellipse cx="26.5" cy="518.3926" fill="#FEFECE" filter="url(#f1)" rx="8" ry="8" style="stroke: #A80036; stroke-width: 2.0;"/><path d="M26.5,526.3926 L26.5,553.3926 M13.5,534.3926 L39.5,534.3926 M26.5,553.3926 L13.5,568.3926 M26.5,553.3926 L39.5,568.3926 " fill="#FEFECE" filter="url(#f1)" style="stroke: #A80036; stroke-width: 2.0;"/><rect fill="#FEFECE" filter="url(#f1)" height="30.4883" style="stroke: #A80036; stroke-width: 1.5;" width="162" x="55" y="51"/><text fill="#000000" font-family="sans-serif" font-size="14" lengthAdjust="spacingAndGlyphs" textLength="148" x="62" y="71.5352">CiscoWebExStartMain</text><rect fill="#FEFECE" filter="url(#f1)" height="30.4883" style="stroke: #A80036; stroke-width: 1.5;" width="162" x="55" y="491.9043"/><text fill="#000000" font-family="sans-serif" font-size="14" lengthAdjust="spacingAndGlyphs" textLength="148" x="62" y="512.4395">CiscoWebExStartMain</text><rect fill="#FEFECE" filter="url(#f1)" height="30.4883" style="stroke: #A80036; stroke-width: 1.5;" width="72" x="231" y="51"/><text fill="#000000" font-family="sans-serif" font-size="14" lengthAdjust="spacingAndGlyphs" textLength="58" x="238" y="71.5352">CWSApp</text><rect fill="#FEFECE" filter="url(#f1)" height="30.4883" style="stroke: #A80036; stroke-width: 1.5;" width="72" x="231" y="491.9043"/><text fill="#000000" font-family="sans-serif" font-size="14" lengthAdjust="spacingAndGlyphs" textLength="58" x="238" y="512.4395">CWSApp</text><rect fill="#FEFECE" filter="url(#f1)" height="30.4883" style="stroke: #A80036; stroke-width: 1.5;" width="100" x="363" y="51"/><text fill="#000000" font-family="sans-serif" font-size="14" lengthAdjust="spacingAndGlyphs" textLength="86" x="370" y="71.5352">CMainFrame</text><rect fill="#FEFECE" filter="url(#f1)" height="30.4883" style="stroke: #A80036; stroke-width: 1.5;" width="100" x="363" y="491.9043"/><text fill="#000000" font-family="sans-serif" font-size="14" lengthAdjust="spacingAndGlyphs" textLength="86" x="370" y="512.4395">CMainFrame</text><rect fill="#FEFECE" filter="url(#f1)" height="30.4883" style="stroke: #A80036; stroke-width: 1.5;" width="130" x="477" y="51"/><text fill="#000000" font-family="sans-serif" font-size="14" lengthAdjust="spacingAndGlyphs" textLength="116" x="484" y="71.5352">CWSGPCWrapper</text><rect fill="#FEFECE" filter="url(#f1)" height="30.4883" style="stroke: #A80036; stroke-width: 1.5;" width="130" x="477" y="491.9043"/><text fill="#000000" font-family="sans-serif" font-size="14" lengthAdjust="spacingAndGlyphs" textLength="116" x="484" y="512.4395">CWSGPCWrapper</text><rect fill="#FEFECE" filter="url(#f1)" height="30.4883" style="stroke: #A80036; stroke-width: 1.5;" width="57" x="621" y="51"/><text fill="#000000" font-family="sans-serif" font-size="14" lengthAdjust="spacingAndGlyphs" textLength="43" x="628" y="71.5352">Win32</text><rect fill="#FEFECE" filter="url(#f1)" height="30.4883" style="stroke: #A80036; stroke-width: 1.5;" width="57" x="621" y="491.9043"/><text fill="#000000" font-family="sans-serif" font-size="14" lengthAdjust="spacingAndGlyphs" textLength="43" x="628" y="512.4395">Win32</text><rect fill="#FFFFFF" filter="url(#f1)" height="34.3105" style="stroke: #A80036; stroke-width: 1.0;" width="10" x="264" y="440.2832"/><rect fill="#FFFFFF" filter="url(#f1)" height="100.9316" style="stroke: #A80036; stroke-width: 1.0;" width="10" x="410" y="190.1094"/><rect fill="#EEEEEE" filter="url(#f1)" height="3" style="stroke: #EEEEEE; stroke-width: 1.0;" width="685" x="3" y="117.1436"/><line style="stroke: #000000; stroke-width: 1.0;" x1="3" x2="688" y1="117.1436" y2="117.1436"/><line style="stroke: #000000; stroke-width: 1.0;" x1="3" x2="688" y1="120.1436" y2="120.1436"/><rect fill="#EEEEEE" filter="url(#f1)" height="23.3105" style="stroke: #000000; stroke-width: 2.0;" width="134" x="278.5" y="106.4883"/><text fill="#000000" font-family="sans-serif" font-size="13" font-weight="bold" lengthAdjust="spacingAndGlyphs" textLength="116" x="284.5" y="123.0566">Create IO Thread</text><polygon fill="#A80036" points="403,156.7988,413,160.7988,403,164.7988,407,160.7988" style="stroke: #A80036; stroke-width: 1.0;"/><line style="stroke: #A80036; stroke-width: 1.0;" x1="26.5" x2="409" y1="160.7988" y2="160.7988"/><text fill="#000000" font-family="sans-serif" font-size="13" lengthAdjust="spacingAndGlyphs" textLength="40" x="33.5" y="156.3672">Create</text><polygon fill="#A80036" points="431,186.1094,421,190.1094,431,194.1094,427,190.1094" style="stroke: #A80036; stroke-width: 1.0;"/><line style="stroke: #A80036; stroke-width: 1.0;" x1="425" x2="650.5" y1="190.1094" y2="190.1094"/><text fill="#000000" font-family="sans-serif" font-size="13" lengthAdjust="spacingAndGlyphs" textLength="58" x="437" y="185.6777">OnCreate</text><polygon fill="#A80036" points="280,215.4199,270,219.4199,280,223.4199,276,219.4199" style="stroke: #A80036; stroke-width: 1.0;"/><line style="stroke: #A80036; stroke-width: 1.0; stroke-dasharray: 2.0,2.0;" x1="274" x2="409" y1="219.4199" y2="219.4199"/><text fill="#000000" font-family="sans-serif" font-size="13" lengthAdjust="spacingAndGlyphs" textLength="117" x="286" y="214.9883">CreateStdIOThread</text><line style="stroke: #A80036; stroke-width: 1.0; stroke-dasharray: 2.0,2.0;" x1="269" x2="311" y1="249.041" y2="249.041"/><line style="stroke: #A80036; stroke-width: 1.0; stroke-dasharray: 2.0,2.0;" x1="311" x2="311" y1="249.041" y2="262.041"/><line style="stroke: #A80036; stroke-width: 1.0; stroke-dasharray: 2.0,2.0;" x1="270" x2="311" y1="262.041" y2="262.041"/><polygon fill="#A80036" points="280,258.041,270,262.041,280,266.041,276,262.041" style="stroke: #A80036; stroke-width: 1.0;"/><text fill="#000000" font-family="sans-serif" font-size="13" lengthAdjust="spacingAndGlyphs" textLength="93" x="276" y="244.2988">StartStdIORead</text><polygon fill="#A80036" points="639.5,287.041,649.5,291.041,639.5,295.041,643.5,291.041" style="stroke: #A80036; stroke-width: 1.0;"/><line style="stroke: #A80036; stroke-width: 1.0; stroke-dasharray: 2.0,2.0;" x1="269" x2="645.5" y1="291.041" y2="291.041"/><text fill="#000000" font-family="sans-serif" font-size="13" lengthAdjust="spacingAndGlyphs" textLength="83" x="276" y="286.6094">CreateThread</text><polygon fill="#FBFB77" filter="url(#f1)" points="237,304.3516,237,329.3516,683,329.3516,683,314.3516,673,304.3516,237,304.3516" style="stroke: #A80036; stroke-width: 1.0;"/><line style="stroke: #A80036; stroke-width: 1.0;" x1="673" x2="673" y1="304.3516" y2="314.3516"/><line style="stroke: #A80036; stroke-width: 1.0;" x1="683" x2="673" y1="314.3516" y2="314.3516"/><text fill="#000000" font-family="sans-serif" font-size="13" lengthAdjust="spacingAndGlyphs" textLength="107" x="400" y="321.9199">ReadStdIOThread</text><rect fill="#EEEEEE" filter="url(#f1)" height="3" style="stroke: #EEEEEE; stroke-width: 1.0;" width="685" x="3" y="359.3174"/><line style="stroke: #000000; stroke-width: 1.0;" x1="3" x2="688" y1="359.3174" y2="359.3174"/><line style="stroke: #000000; stroke-width: 1.0;" x1="3" x2="688" y1="362.3174" y2="362.3174"/><rect fill="#EEEEEE" filter="url(#f1)" height="23.3105" style="stroke: #000000; stroke-width: 2.0;" width="180" x="255.5" y="348.6621"/><text fill="#000000" font-family="sans-serif" font-size="13" font-weight="bold" lengthAdjust="spacingAndGlyphs" textLength="162" x="261.5" y="365.2305">Read data from channel</text><polygon fill="#A80036" points="280,398.9727,270,402.9727,280,406.9727,276,402.9727" style="stroke: #A80036; stroke-width: 1.0;"/><line style="stroke: #A80036; stroke-width: 1.0; stroke-dasharray: 2.0,2.0;" x1="274" x2="650.5" y1="402.9727" y2="402.9727"/><text fill="#000000" font-family="sans-serif" font-size="13" lengthAdjust="spacingAndGlyphs" textLength="107" x="286" y="398.541">ReadStdIOThread</text><line style="stroke: #A80036; stroke-width: 1.0; stroke-dasharray: 2.0,2.0;" x1="269" x2="316" y1="427.5938" y2="427.5938"/><line style="stroke: #A80036; stroke-width: 1.0; stroke-dasharray: 2.0,2.0;" x1="316" x2="316" y1="427.5938" y2="440.5938"/><line style="stroke: #A80036; stroke-width: 1.0; stroke-dasharray: 2.0,2.0;" x1="275" x2="316" y1="440.5938" y2="440.5938"/><polygon fill="#A80036" points="285,436.5938,275,440.5938,285,444.5938,281,440.5938" style="stroke: #A80036; stroke-width: 1.0;"/><text fill="#000000" font-family="sans-serif" font-size="13" lengthAdjust="spacingAndGlyphs" textLength="64" x="281" y="422.8516">ReadStdIO</text><polygon fill="#A80036" points="639.5,470.5938,649.5,474.5938,639.5,478.5938,643.5,474.5938" style="stroke: #A80036; stroke-width: 1.0;"/><line style="stroke: #A80036; stroke-width: 1.0; stroke-dasharray: 2.0,2.0;" x1="269" x2="645.5" y1="474.5938" y2="474.5938"/><text fill="#000000" font-family="sans-serif" font-size="13" lengthAdjust="spacingAndGlyphs" textLength="223" x="276" y="470.1621">GetStdHandle(STD_INPUT_HANDLE)</text></g></svg>