<?xml version="1.0" encoding="UTF-8" standalone="no"?><svg xmlns="http://www.w3.org/2000/svg" xmlns:xlink="http://www.w3.org/1999/xlink" contentScriptType="application/ecmascript" contentStyleType="text/css" height="882px" preserveAspectRatio="none" style="width:714px;height:882px;" version="1.1" viewBox="0 0 714 882" width="714px" zoomAndPan="magnify"><defs><filter height="300%" id="fmviv7l" width="300%" x="-1" y="-1"><feGaussianBlur result="blurOut" stdDeviation="2.0"/><feColorMatrix in="blurOut" result="blurOut2" type="matrix" values="0 0 0 0 0 0 0 0 0 0 0 0 0 0 0 0 0 0 .4 0"/><feOffset dx="4.0" dy="4.0" in="blurOut2" result="blurOut3"/><feBlend in="SourceGraphic" in2="blurOut3" mode="normal"/></filter></defs><g><!--class INBRPlayCCSink--><rect fill="#FEFECE" filter="url(#fmviv7l)" height="73.9102" style="stroke: #A80036; stroke-width: 1.5;" width="121" x="6.5" y="570"/><ellipse cx="21.5" cy="586" fill="#B4A7E5" rx="11" ry="11" style="stroke: #A80036; stroke-width: 1.0;"/><path d="M17.4277,581.7651 L17.4277,579.6069 L24.8071,579.6069 L24.8071,581.7651 L22.3418,581.7651 L22.3418,589.8418 L24.8071,589.8418 L24.8071,592 L17.4277,592 L17.4277,589.8418 L19.8931,589.8418 L19.8931,581.7651 Z "/><text fill="#000000" font-family="sans-serif" font-size="12" font-style="italic" lengthAdjust="spacingAndGlyphs" textLength="89" x="35.5" y="590.5352">INBRPlayCCSink</text><line style="stroke: #A80036; stroke-width: 1.5;" x1="7.5" x2="126.5" y1="602" y2="602"/><line style="stroke: #A80036; stroke-width: 1.5;" x1="7.5" x2="126.5" y1="610" y2="610"/><ellipse cx="17.5" cy="621.9775" fill="#84BE84" rx="3" ry="3" style="stroke: #038048; stroke-width: 1.0;"/><text fill="#000000" font-family="sans-serif" font-size="11" lengthAdjust="spacingAndGlyphs" textLength="61" x="26.5" y="624.6348">NotifyInfo()</text><ellipse cx="17.5" cy="634.9326" fill="#84BE84" rx="3" ry="3" style="stroke: #038048; stroke-width: 1.0;"/><text fill="#000000" font-family="sans-serif" font-size="11" lengthAdjust="spacingAndGlyphs" textLength="65" x="26.5" y="637.5898">OnEditInfo()</text><!--class CNBRPfwPlayCtl--><rect fill="#FEFECE" filter="url(#fmviv7l)" height="48" style="stroke: #A80036; stroke-width: 1.5;" width="122" x="6" y="449"/><ellipse cx="21" cy="465" fill="#ADD1B2" rx="11" ry="11" style="stroke: #A80036; stroke-width: 1.0;"/><path d="M23.9731,470.6431 Q23.3921,470.9419 22.7529,471.0913 Q22.1138,471.2407 21.4082,471.2407 Q18.9014,471.2407 17.5815,469.5889 Q16.2617,467.937 16.2617,464.8159 Q16.2617,461.6865 17.5815,460.0347 Q18.9014,458.3828 21.4082,458.3828 Q22.1138,458.3828 22.7612,458.5322 Q23.4087,458.6816 23.9731,458.9805 L23.9731,461.7031 Q23.3423,461.1221 22.7488,460.8523 Q22.1553,460.5825 21.5244,460.5825 Q20.1797,460.5825 19.4949,461.6492 Q18.8101,462.7158 18.8101,464.8159 Q18.8101,466.9077 19.4949,467.9744 Q20.1797,469.041 21.5244,469.041 Q22.1553,469.041 22.7488,468.7712 Q23.3423,468.5015 23.9731,467.9204 Z "/><text fill="#000000" font-family="sans-serif" font-size="12" lengthAdjust="spacingAndGlyphs" textLength="90" x="35" y="469.5352">CNBRPfwPlayCtl</text><line style="stroke: #A80036; stroke-width: 1.5;" x1="7" x2="127" y1="481" y2="481"/><line style="stroke: #A80036; stroke-width: 1.5;" x1="7" x2="127" y1="489" y2="489"/><!--class CNBRPfwUICtl--><rect fill="#FEFECE" filter="url(#fmviv7l)" height="73.9102" style="stroke: #A80036; stroke-width: 1.5;" width="110" x="121" y="289"/><ellipse cx="136" cy="305" fill="#ADD1B2" rx="11" ry="11" style="stroke: #A80036; stroke-width: 1.0;"/><path d="M138.9731,310.6431 Q138.3921,310.9419 137.7529,311.0913 Q137.1138,311.2407 136.4082,311.2407 Q133.9014,311.2407 132.5815,309.5889 Q131.2617,307.937 131.2617,304.8159 Q131.2617,301.6865 132.5815,300.0347 Q133.9014,298.3828 136.4082,298.3828 Q137.1138,298.3828 137.7612,298.5322 Q138.4087,298.6816 138.9731,298.9805 L138.9731,301.7031 Q138.3423,301.1221 137.7488,300.8523 Q137.1553,300.5825 136.5244,300.5825 Q135.1797,300.5825 134.4949,301.6492 Q133.8101,302.7158 133.8101,304.8159 Q133.8101,306.9077 134.4949,307.9744 Q135.1797,309.041 136.5244,309.041 Q137.1553,309.041 137.7488,308.7712 Q138.3423,308.5015 138.9731,307.9204 Z "/><text fill="#000000" font-family="sans-serif" font-size="12" lengthAdjust="spacingAndGlyphs" textLength="78" x="150" y="309.5352">CNBRPfwUICtl</text><line style="stroke: #A80036; stroke-width: 1.5;" x1="122" x2="230" y1="321" y2="321"/><rect fill="none" height="6" style="stroke: #C82930; stroke-width: 1.0;" width="6" x="129" y="336.4551"/><text fill="#000000" font-family="sans-serif" font-size="11" lengthAdjust="spacingAndGlyphs" textLength="84" x="141" y="335.6348">INBRCommand*</text><text fill="#000000" font-family="sans-serif" font-size="11" lengthAdjust="spacingAndGlyphs" textLength="55" x="141" y="348.5898">m_pUIMgr</text><line style="stroke: #A80036; stroke-width: 1.5;" x1="122" x2="230" y1="354.9102" y2="354.9102"/><!--class INBRCommand--><rect fill="#FEFECE" filter="url(#fmviv7l)" height="60.9551" style="stroke: #A80036; stroke-width: 1.5;" width="142" x="163" y="442.5"/><ellipse cx="188.8" cy="458.5" fill="#B4A7E5" rx="11" ry="11" style="stroke: #A80036; stroke-width: 1.0;"/><path d="M184.7277,454.2651 L184.7277,452.1069 L192.1071,452.1069 L192.1071,454.2651 L189.6418,454.2651 L189.6418,462.3418 L192.1071,462.3418 L192.1071,464.5 L184.7277,464.5 L184.7277,462.3418 L187.1931,462.3418 L187.1931,454.2651 Z "/><text fill="#000000" font-family="sans-serif" font-size="12" font-style="italic" lengthAdjust="spacingAndGlyphs" textLength="86" x="205.2" y="463.0352">INBRCommand</text><line style="stroke: #A80036; stroke-width: 1.5;" x1="164" x2="304" y1="474.5" y2="474.5"/><line style="stroke: #A80036; stroke-width: 1.5;" x1="164" x2="304" y1="482.5" y2="482.5"/><ellipse cx="174" cy="494.4775" fill="#84BE84" rx="3" ry="3" style="stroke: #038048; stroke-width: 1.0;"/><text fill="#000000" font-family="sans-serif" font-size="11" lengthAdjust="spacingAndGlyphs" textLength="116" x="183" y="497.1348">OnHandleCommand()</text><!--class CNBRPfwMgr--><rect fill="#FEFECE" filter="url(#fmviv7l)" height="86.8652" style="stroke: #A80036; stroke-width: 1.5;" width="179" x="86.5" y="129"/><ellipse cx="134.75" cy="145" fill="#ADD1B2" rx="11" ry="11" style="stroke: #A80036; stroke-width: 1.0;"/><path d="M137.7231,150.6431 Q137.1421,150.9419 136.5029,151.0913 Q135.8638,151.2407 135.1582,151.2407 Q132.6514,151.2407 131.3315,149.5889 Q130.0117,147.937 130.0117,144.8159 Q130.0117,141.6865 131.3315,140.0347 Q132.6514,138.3828 135.1582,138.3828 Q135.8638,138.3828 136.5112,138.5322 Q137.1587,138.6816 137.7231,138.9805 L137.7231,141.7031 Q137.0923,141.1221 136.4988,140.8523 Q135.9053,140.5825 135.2744,140.5825 Q133.9297,140.5825 133.2449,141.6492 Q132.5601,142.7158 132.5601,144.8159 Q132.5601,146.9077 133.2449,147.9744 Q133.9297,149.041 135.2744,149.041 Q135.9053,149.041 136.4988,148.7712 Q137.0923,148.5015 137.7231,147.9204 Z "/><text fill="#000000" font-family="sans-serif" font-size="12" lengthAdjust="spacingAndGlyphs" textLength="74" x="155.25" y="149.5352">CNBRPfwMgr</text><line style="stroke: #A80036; stroke-width: 1.5;" x1="87.5" x2="264.5" y1="161" y2="161"/><polygon fill="none" points="97.5,167.9775,101.5,171.9775,97.5,175.9775,93.5,171.9775" style="stroke: #B38D22; stroke-width: 1.0;"/><text fill="#000000" font-family="sans-serif" font-size="11" lengthAdjust="spacingAndGlyphs" textLength="153" x="106.5" y="175.6348">CNBRPfwPlayCtl* m_pPlayCtl;</text><polygon fill="none" points="97.5,187.4102,101.5,191.4102,97.5,195.4102,93.5,191.4102" style="stroke: #B38D22; stroke-width: 1.0;"/><text fill="#000000" font-family="sans-serif" font-size="11" lengthAdjust="spacingAndGlyphs" textLength="78" x="106.5" y="188.5898">CNBRPfwUICtl*</text><text fill="#000000" font-family="sans-serif" font-size="11" lengthAdjust="spacingAndGlyphs" textLength="52" x="106.5" y="201.5449">m_pUICtl;</text><line style="stroke: #A80036; stroke-width: 1.5;" x1="87.5" x2="264.5" y1="207.8652" y2="207.8652"/><!--class CNBRUIMgr--><rect fill="#FEFECE" filter="url(#fmviv7l)" height="99.8203" style="stroke: #A80036; stroke-width: 1.5;" width="182" x="266" y="276"/><ellipse cx="320.25" cy="292" fill="#ADD1B2" rx="11" ry="11" style="stroke: #A80036; stroke-width: 1.0;"/><path d="M323.2231,297.6431 Q322.6421,297.9419 322.0029,298.0913 Q321.3638,298.2407 320.6582,298.2407 Q318.1514,298.2407 316.8315,296.5889 Q315.5117,294.937 315.5117,291.8159 Q315.5117,288.6865 316.8315,287.0347 Q318.1514,285.3828 320.6582,285.3828 Q321.3638,285.3828 322.0112,285.5322 Q322.6587,285.6816 323.2231,285.9805 L323.2231,288.7031 Q322.5923,288.1221 321.9988,287.8523 Q321.4053,287.5825 320.7744,287.5825 Q319.4297,287.5825 318.7449,288.6492 Q318.0601,289.7158 318.0601,291.8159 Q318.0601,293.9077 318.7449,294.9744 Q319.4297,296.041 320.7744,296.041 Q321.4053,296.041 321.9988,295.7712 Q322.5923,295.5015 323.2231,294.9204 Z "/><text fill="#000000" font-family="sans-serif" font-size="12" lengthAdjust="spacingAndGlyphs" textLength="65" x="340.75" y="296.5352">CNBRUIMgr</text><line style="stroke: #A80036; stroke-width: 1.5;" x1="267" x2="447" y1="308" y2="308"/><rect fill="none" height="6" style="stroke: #C82930; stroke-width: 1.0;" width="6" x="274" y="316.9775"/><text fill="#000000" font-family="sans-serif" font-size="11" lengthAdjust="spacingAndGlyphs" textLength="156" x="286" y="322.6348">CNBRPlayMgr*    m_pPlayMgr;</text><rect fill="none" height="6" style="stroke: #C82930; stroke-width: 1.0;" width="6" x="274" y="336.4102"/><text fill="#000000" font-family="sans-serif" font-size="11" lengthAdjust="spacingAndGlyphs" textLength="92" x="286" y="335.5898">CNBRMainFrame*</text><text fill="#000000" font-family="sans-serif" font-size="11" lengthAdjust="spacingAndGlyphs" textLength="72" x="286" y="348.5449">m_pMainFrm;</text><rect fill="none" height="6" style="stroke: #C82930; stroke-width: 1.0;" width="6" x="274" y="355.8428"/><text fill="#000000" font-family="sans-serif" font-size="11" lengthAdjust="spacingAndGlyphs" textLength="155" x="286" y="361.5">INBRCommand*    m_pPfwCtl;</text><line style="stroke: #A80036; stroke-width: 1.5;" x1="267" x2="447" y1="367.8203" y2="367.8203"/><!--class CNBRMainFrame--><rect fill="#FEFECE" filter="url(#fmviv7l)" height="60.9551" style="stroke: #A80036; stroke-width: 1.5;" width="166" x="267" y="576.5"/><ellipse cx="299.55" cy="592.5" fill="#ADD1B2" rx="11" ry="11" style="stroke: #A80036; stroke-width: 1.0;"/><path d="M302.5231,598.1431 Q301.9421,598.4419 301.3029,598.5913 Q300.6638,598.7407 299.9582,598.7407 Q297.4514,598.7407 296.1315,597.0889 Q294.8117,595.437 294.8117,592.3159 Q294.8117,589.1865 296.1315,587.5347 Q297.4514,585.8828 299.9582,585.8828 Q300.6638,585.8828 301.3112,586.0322 Q301.9587,586.1816 302.5231,586.4805 L302.5231,589.2031 Q301.8923,588.6221 301.2988,588.3523 Q300.7053,588.0825 300.0744,588.0825 Q298.7297,588.0825 298.0449,589.1492 Q297.3601,590.2158 297.3601,592.3159 Q297.3601,594.4077 298.0449,595.4744 Q298.7297,596.541 300.0744,596.541 Q300.7053,596.541 301.2988,596.2712 Q301.8923,596.0015 302.5231,595.4204 Z "/><text fill="#000000" font-family="sans-serif" font-size="12" lengthAdjust="spacingAndGlyphs" textLength="95" x="317.45" y="597.0352">CNBRMainFrame</text><line style="stroke: #A80036; stroke-width: 1.5;" x1="268" x2="432" y1="608.5" y2="608.5"/><rect fill="none" height="6" style="stroke: #C82930; stroke-width: 1.0;" width="6" x="275" y="617.4775"/><text fill="#000000" font-family="sans-serif" font-size="11" lengthAdjust="spacingAndGlyphs" textLength="140" x="287" y="623.1348">CNBRCntMgr* m_pCntMgr</text><line style="stroke: #A80036; stroke-width: 1.5;" x1="268" x2="432" y1="629.4551" y2="629.4551"/><!--class CNBRCntMgr--><rect fill="#FEFECE" filter="url(#fmviv7l)" height="60.9551" style="stroke: #A80036; stroke-width: 1.5;" width="142" x="217" y="704"/><ellipse cx="248.65" cy="720" fill="#ADD1B2" rx="11" ry="11" style="stroke: #A80036; stroke-width: 1.0;"/><path d="M251.6231,725.6431 Q251.0421,725.9419 250.4029,726.0913 Q249.7638,726.2407 249.0582,726.2407 Q246.5514,726.2407 245.2315,724.5889 Q243.9117,722.937 243.9117,719.8159 Q243.9117,716.6865 245.2315,715.0347 Q246.5514,713.3828 249.0582,713.3828 Q249.7638,713.3828 250.4112,713.5322 Q251.0587,713.6816 251.6231,713.9805 L251.6231,716.7031 Q250.9923,716.1221 250.3988,715.8523 Q249.8053,715.5825 249.1744,715.5825 Q247.8297,715.5825 247.1449,716.6492 Q246.4601,717.7158 246.4601,719.8159 Q246.4601,721.9077 247.1449,722.9744 Q247.8297,724.041 249.1744,724.041 Q249.8053,724.041 250.3988,723.7712 Q250.9923,723.5015 251.6231,722.9204 Z "/><text fill="#000000" font-family="sans-serif" font-size="12" lengthAdjust="spacingAndGlyphs" textLength="73" x="266.35" y="724.5352">CNBRCntMgr</text><line style="stroke: #A80036; stroke-width: 1.5;" x1="218" x2="358" y1="736" y2="736"/><rect fill="none" height="6" style="stroke: #C82930; stroke-width: 1.0;" width="6" x="225" y="744.9775"/><text fill="#000000" font-family="sans-serif" font-size="11" lengthAdjust="spacingAndGlyphs" textLength="116" x="237" y="750.6348">CNBRUISink*     m_pUI</text><line style="stroke: #A80036; stroke-width: 1.5;" x1="218" x2="358" y1="756.9551" y2="756.9551"/><!--class CNBRUISink--><rect fill="#FEFECE" filter="url(#fmviv7l)" height="48" style="stroke: #A80036; stroke-width: 1.5;" width="98" x="301" y="825"/><ellipse cx="316" cy="841" fill="#ADD1B2" rx="11" ry="11" style="stroke: #A80036; stroke-width: 1.0;"/><path d="M318.9731,846.6431 Q318.3921,846.9419 317.7529,847.0913 Q317.1138,847.2407 316.4082,847.2407 Q313.9014,847.2407 312.5815,845.5889 Q311.2617,843.937 311.2617,840.8159 Q311.2617,837.6865 312.5815,836.0347 Q313.9014,834.3828 316.4082,834.3828 Q317.1138,834.3828 317.7612,834.5322 Q318.4087,834.6816 318.9731,834.9805 L318.9731,837.7031 Q318.3423,837.1221 317.7488,836.8523 Q317.1553,836.5825 316.5244,836.5825 Q315.1797,836.5825 314.4949,837.6492 Q313.8101,838.7158 313.8101,840.8159 Q313.8101,842.9077 314.4949,843.9744 Q315.1797,845.041 316.5244,845.041 Q317.1553,845.041 317.7488,844.7712 Q318.3423,844.5015 318.9731,843.9204 Z "/><text fill="#000000" font-family="sans-serif" font-size="12" lengthAdjust="spacingAndGlyphs" textLength="66" x="330" y="845.5352">CNBRUISink</text><line style="stroke: #A80036; stroke-width: 1.5;" x1="302" x2="398" y1="857" y2="857"/><line style="stroke: #A80036; stroke-width: 1.5;" x1="302" x2="398" y1="865" y2="865"/><!--class CNBRPlayMgr--><rect fill="#FEFECE" filter="url(#fmviv7l)" height="73.9102" style="stroke: #A80036; stroke-width: 1.5;" width="171" x="427.5" y="436"/><ellipse cx="470.4" cy="452" fill="#ADD1B2" rx="11" ry="11" style="stroke: #A80036; stroke-width: 1.0;"/><path d="M473.3731,457.6431 Q472.7921,457.9419 472.1529,458.0913 Q471.5138,458.2407 470.8082,458.2407 Q468.3014,458.2407 466.9815,456.5889 Q465.6617,454.937 465.6617,451.8159 Q465.6617,448.6865 466.9815,447.0347 Q468.3014,445.3828 470.8082,445.3828 Q471.5138,445.3828 472.1612,445.5322 Q472.8087,445.6816 473.3731,445.9805 L473.3731,448.7031 Q472.7423,448.1221 472.1488,447.8523 Q471.5553,447.5825 470.9244,447.5825 Q469.5797,447.5825 468.8949,448.6492 Q468.2101,449.7158 468.2101,451.8159 Q468.2101,453.9077 468.8949,454.9744 Q469.5797,456.041 470.9244,456.041 Q471.5553,456.041 472.1488,455.7712 Q472.7423,455.5015 473.3731,454.9204 Z "/><text fill="#000000" font-family="sans-serif" font-size="12" lengthAdjust="spacingAndGlyphs" textLength="77" x="490.6" y="456.5352">CNBRPlayMgr</text><line style="stroke: #A80036; stroke-width: 1.5;" x1="428.5" x2="597.5" y1="468" y2="468"/><rect fill="none" height="6" style="stroke: #C82930; stroke-width: 1.0;" width="6" x="435.5" y="476.9775"/><text fill="#000000" font-family="sans-serif" font-size="11" lengthAdjust="spacingAndGlyphs" textLength="145" x="447.5" y="482.6348">CNBRPlayBar*   m_pPlayBar;</text><rect fill="none" height="6" style="stroke: #C82930; stroke-width: 1.0;" width="6" x="435.5" y="489.9326"/><text fill="#000000" font-family="sans-serif" font-size="11" lengthAdjust="spacingAndGlyphs" textLength="135" x="447.5" y="495.5898">CNBRMixer*     m_pMixer;</text><line style="stroke: #A80036; stroke-width: 1.5;" x1="428.5" x2="597.5" y1="501.9102" y2="501.9102"/><!--class CNBRPlayBar--><rect fill="#FEFECE" filter="url(#fmviv7l)" height="48" style="stroke: #A80036; stroke-width: 1.5;" width="106" x="468" y="583"/><ellipse cx="483" cy="599" fill="#ADD1B2" rx="11" ry="11" style="stroke: #A80036; stroke-width: 1.0;"/><path d="M485.9731,604.6431 Q485.3921,604.9419 484.7529,605.0913 Q484.1138,605.2407 483.4082,605.2407 Q480.9014,605.2407 479.5815,603.5889 Q478.2617,601.937 478.2617,598.8159 Q478.2617,595.6865 479.5815,594.0347 Q480.9014,592.3828 483.4082,592.3828 Q484.1138,592.3828 484.7612,592.5322 Q485.4087,592.6816 485.9731,592.9805 L485.9731,595.7031 Q485.3423,595.1221 484.7488,594.8523 Q484.1553,594.5825 483.5244,594.5825 Q482.1797,594.5825 481.4949,595.6492 Q480.8101,596.7158 480.8101,598.8159 Q480.8101,600.9077 481.4949,601.9744 Q482.1797,603.041 483.5244,603.041 Q484.1553,603.041 484.7488,602.7712 Q485.3423,602.5015 485.9731,601.9204 Z "/><text fill="#000000" font-family="sans-serif" font-size="12" lengthAdjust="spacingAndGlyphs" textLength="74" x="497" y="603.5352">CNBRPlayBar</text><line style="stroke: #A80036; stroke-width: 1.5;" x1="469" x2="573" y1="615" y2="615"/><line style="stroke: #A80036; stroke-width: 1.5;" x1="469" x2="573" y1="623" y2="623"/><!--class CNBRMixer--><rect fill="#FEFECE" filter="url(#fmviv7l)" height="48" style="stroke: #A80036; stroke-width: 1.5;" width="96" x="609" y="583"/><ellipse cx="624" cy="599" fill="#ADD1B2" rx="11" ry="11" style="stroke: #A80036; stroke-width: 1.0;"/><path d="M626.9731,604.6431 Q626.3921,604.9419 625.7529,605.0913 Q625.1138,605.2407 624.4082,605.2407 Q621.9014,605.2407 620.5815,603.5889 Q619.2617,601.937 619.2617,598.8159 Q619.2617,595.6865 620.5815,594.0347 Q621.9014,592.3828 624.4082,592.3828 Q625.1138,592.3828 625.7612,592.5322 Q626.4087,592.6816 626.9731,592.9805 L626.9731,595.7031 Q626.3423,595.1221 625.7488,594.8523 Q625.1553,594.5825 624.5244,594.5825 Q623.1797,594.5825 622.4949,595.6492 Q621.8101,596.7158 621.8101,598.8159 Q621.8101,600.9077 622.4949,601.9744 Q623.1797,603.041 624.5244,603.041 Q625.1553,603.041 625.7488,602.7712 Q626.3423,602.5015 626.9731,601.9204 Z "/><text fill="#000000" font-family="sans-serif" font-size="12" lengthAdjust="spacingAndGlyphs" textLength="64" x="638" y="603.5352">CNBRMixer</text><line style="stroke: #A80036; stroke-width: 1.5;" x1="610" x2="704" y1="615" y2="615"/><line style="stroke: #A80036; stroke-width: 1.5;" x1="610" x2="704" y1="623" y2="623"/><!--class CNBRPfwMgrWin--><rect fill="#FEFECE" filter="url(#fmviv7l)" height="60.9551" style="stroke: #A80036; stroke-width: 1.5;" width="171" x="171.5" y="8"/><ellipse cx="206.75" cy="24" fill="#ADD1B2" rx="11" ry="11" style="stroke: #A80036; stroke-width: 1.0;"/><path d="M209.7231,29.6431 Q209.1421,29.9419 208.5029,30.0913 Q207.8638,30.2407 207.1582,30.2407 Q204.6514,30.2407 203.3315,28.5889 Q202.0117,26.937 202.0117,23.8159 Q202.0117,20.6865 203.3315,19.0347 Q204.6514,17.3828 207.1582,17.3828 Q207.8638,17.3828 208.5112,17.5322 Q209.1587,17.6816 209.7231,17.9805 L209.7231,20.7031 Q209.0923,20.1221 208.4988,19.8523 Q207.9053,19.5825 207.2744,19.5825 Q205.9297,19.5825 205.2449,20.6492 Q204.5601,21.7158 204.5601,23.8159 Q204.5601,25.9077 205.2449,26.9744 Q205.9297,28.041 207.2744,28.041 Q207.9053,28.041 208.4988,27.7712 Q209.0923,27.5015 209.7231,26.9204 Z "/><text fill="#000000" font-family="sans-serif" font-size="12" lengthAdjust="spacingAndGlyphs" textLength="94" x="225.25" y="28.5352">CNBRPfwMgrWin</text><line style="stroke: #A80036; stroke-width: 1.5;" x1="172.5" x2="341.5" y1="40" y2="40"/><rect fill="none" height="6" style="stroke: #C82930; stroke-width: 1.0;" width="6" x="179.5" y="48.9775"/><text fill="#000000" font-family="sans-serif" font-size="11" lengthAdjust="spacingAndGlyphs" textLength="145" x="191.5" y="54.6348">CNBRUIMgr*        m_pUIMgr</text><line style="stroke: #A80036; stroke-width: 1.5;" x1="172.5" x2="341.5" y1="60.9551" y2="60.9551"/><path d="M67,497.295 C67,511.868 67,531.309 67,549.719 " fill="none" style="stroke: #A80036; stroke-width: 1.0;"/><polygon fill="none" points="74.0001,549.751,67,569.751,60.0001,549.751,74.0001,549.751" style="stroke: #A80036; stroke-width: 1.0;"/><path d="M179.277,363.216 C184.913,381.555 193.625,404.068 202.65,423.846 " fill="none" style="stroke: #A80036; stroke-width: 1.0;"/><polygon fill="none" points="209.073,421.049,211.493,442.1,196.474,427.153,209.073,421.049" style="stroke: #A80036; stroke-width: 1.0;"/><path d="M202.355,363.216 C213.621,385.831 225.16,414.793 231.79,437.147 " fill="none" style="stroke: #A80036; stroke-width: 1.0;"/><polygon fill="#A80036" points="233.208,442.1,234.5774,432.3468,231.8323,437.293,226.8862,434.5479,233.208,442.1" style="stroke: #A80036; stroke-width: 1.0;"/><path d="M131.292,226.983 C120.589,242.056 110.193,259 103,276 C78.0604,334.946 70.366,411.054 68.0163,448.736 " fill="none" style="stroke: #A80036; stroke-width: 1.0;"/><polygon fill="#A80036" points="139.097,216.364,132.3203,218.8291,131.9893,226.0326,138.766,223.5675,139.097,216.364" style="stroke: #A80036; stroke-width: 1.0;"/><path d="M176,229.175 C176,249.101 176,271.024 176,288.867 " fill="none" style="stroke: #A80036; stroke-width: 1.0;"/><polygon fill="#A80036" points="176,216.104,172,222.104,176,228.104,180,222.104,176,216.104" style="stroke: #A80036; stroke-width: 1.0;"/><path d="M148.776,363.216 C129.78,388.485 104.8277,421.679 87.5044,444.723 " fill="none" style="stroke: #A80036; stroke-width: 1.0;"/><polygon fill="#A80036" points="84.3617,448.904,92.9669,444.1133,87.366,444.9072,86.5721,439.3064,84.3617,448.904" style="stroke: #A80036; stroke-width: 1.0;"/><path d="M303.218,376.09 C288.553,392.346 273.338,410.361 260.786,426.348 " fill="none" style="stroke: #A80036; stroke-width: 1.0;"/><polygon fill="none" points="266.255,430.721,248.585,442.417,255.105,422.255,266.255,430.721" style="stroke: #A80036; stroke-width: 1.0;"/><path d="M328.212,376.09 C311.879,396.733 291.53,420.212 273.744,438.772 " fill="none" style="stroke: #A80036; stroke-width: 1.0;"/><polygon fill="#A80036" points="270.223,442.417,279.3533,438.7241,273.6973,438.8213,273.6002,433.1653,270.223,442.417" style="stroke: #A80036; stroke-width: 1.0;"/><path d="M304.29,765.058 C313.669,782.0769 325.387,803.3396 334.611,820.0755 " fill="none" style="stroke: #A80036; stroke-width: 1.0;"/><polygon fill="#A80036" points="337.142,824.6686,336.3009,814.8557,334.7285,820.2897,329.2946,818.7173,337.142,824.6686" style="stroke: #A80036; stroke-width: 1.0;"/><path d="M360.275,637.848 C366.176,656.589 372.995,681.406 376,704 C379.575,730.874 380.099,738.201 376,765 C373.942,778.4537 370.11,792.7226 366.009,805.5649 " fill="none" style="stroke: #A80036; stroke-width: 1.0;"/><polygon fill="none" points="372.495,808.2265,359.34,824.8378,359.265,803.6483,372.495,808.2265" style="stroke: #A80036; stroke-width: 1.0;"/><path d="M329.462,649.572 C320.668,667.375 310.6,687.753 302.588,703.972 " fill="none" style="stroke: #A80036; stroke-width: 1.0;"/><polygon fill="#A80036" points="335.307,637.742,329.0635,641.3501,329.9927,648.5011,336.2362,644.893,335.307,637.742" style="stroke: #A80036; stroke-width: 1.0;"/><path d="M515.975,523.095 C517.216,543.563 518.597,566.357 519.597,582.856 " fill="none" style="stroke: #A80036; stroke-width: 1.0;"/><polygon fill="#A80036" points="515.186,510.07,511.5566,516.3012,515.9126,522.048,519.542,515.8168,515.186,510.07" style="stroke: #A80036; stroke-width: 1.0;"/><path d="M562.129,519.035 C585.541,540.496 612.553,565.257 631.752,582.856 " fill="none" style="stroke: #A80036; stroke-width: 1.0;"/><polygon fill="#A80036" points="552.349,510.07,554.069,517.073,561.1948,518.1787,559.4748,511.1757,552.349,510.07" style="stroke: #A80036; stroke-width: 1.0;"/><path d="M468.46,510.07 C444.134,529.769 414.235,553.982 390.561,573.153 " fill="none" style="stroke: #A80036; stroke-width: 1.0;"/><polygon fill="#A80036" points="386.517,576.428,396.0284,573.8719,390.4025,573.2811,390.9933,567.6551,386.517,576.428" style="stroke: #A80036; stroke-width: 1.0;"/><path d="M419.34,384.945 C437.814,402.116 457.51,420.423 474.05,435.796 " fill="none" style="stroke: #A80036; stroke-width: 1.0;"/><polygon fill="#A80036" points="409.814,376.09,411.4861,383.1046,418.6041,384.2591,416.9321,377.2445,409.814,376.09" style="stroke: #A80036; stroke-width: 1.0;"/><path d="M355.436,389.324 C353.977,447.493 351.862,531.788 350.749,576.14 " fill="none" style="stroke: #A80036; stroke-width: 1.0;"/><polygon fill="#A80036" points="355.765,376.237,351.6159,382.1349,355.4643,388.2332,359.6134,382.3353,355.765,376.237" style="stroke: #A80036; stroke-width: 1.0;"/><path d="M271.741,81.585 C289.865,133.33 320.576,221.01 339.771,275.812 " fill="none" style="stroke: #A80036; stroke-width: 1.0;"/><polygon fill="#A80036" points="267.419,69.246,265.6273,76.231,271.3858,80.5714,273.1775,73.5864,267.419,69.246" style="stroke: #A80036; stroke-width: 1.0;"/><path d="M238.822,69.123 C231.129,81.661 221.873,96.744 212.859,111.433 " fill="none" style="stroke: #A80036; stroke-width: 1.0;"/><polygon fill="none" points="218.533,115.571,202.106,128.957,206.6,108.249,218.533,115.571" style="stroke: #A80036; stroke-width: 1.0;"/></g></svg>