<?xml version="1.0" encoding="UTF-8" standalone="no"?><svg xmlns="http://www.w3.org/2000/svg" xmlns:xlink="http://www.w3.org/1999/xlink" contentScriptType="application/ecmascript" contentStyleType="text/css" height="514px" preserveAspectRatio="none" style="width:1184px;height:514px;" version="1.1" viewBox="0 0 1184 514" width="1184px" zoomAndPan="magnify"><defs><filter height="300%" id="f12oijv" width="300%" x="-1" y="-1"><feGaussianBlur result="blurOut" stdDeviation="2.0"/><feColorMatrix in="blurOut" result="blurOut2" type="matrix" values="0 0 0 0 0 0 0 0 0 0 0 0 0 0 0 0 0 0 .4 0"/><feOffset dx="4.0" dy="4.0" in="blurOut2" result="blurOut3"/><feBlend in="SourceGraphic" in2="blurOut3" mode="normal"/></filter></defs><g><rect fill="#ADD8E6" height="509.0137" style="stroke: #A80036; stroke-width: 1.0;" width="268" x="24.5" y="4"/><text fill="#000000" font-family="sans-serif" font-size="13" font-weight="bold" lengthAdjust="spacingAndGlyphs" textLength="106" x="105.5" y="16.5684">CNBRPfwPlayCtl</text><rect fill="#ADD8E6" height="509.0137" style="stroke: #A80036; stroke-width: 1.0;" width="266" x="475" y="4"/><text fill="#000000" font-family="sans-serif" font-size="13" font-weight="bold" lengthAdjust="spacingAndGlyphs" textLength="77" x="569.5" y="16.5684">CNBRUIMgr</text><line style="stroke: #A80036; stroke-width: 1.0; stroke-dasharray: 5.0,5.0;" x1="90.5" x2="90.5" y1="58.7988" y2="474.5254"/><line style="stroke: #A80036; stroke-width: 1.0; stroke-dasharray: 5.0,5.0;" x1="225.5" x2="225.5" y1="58.7988" y2="474.5254"/><line style="stroke: #A80036; stroke-width: 1.0; stroke-dasharray: 5.0,5.0;" x1="389" x2="389" y1="58.7988" y2="474.5254"/><line style="stroke: #A80036; stroke-width: 1.0; stroke-dasharray: 5.0,5.0;" x1="539" x2="539" y1="58.7988" y2="474.5254"/><line style="stroke: #A80036; stroke-width: 1.0; stroke-dasharray: 5.0,5.0;" x1="689" x2="689" y1="58.7988" y2="474.5254"/><line style="stroke: #A80036; stroke-width: 1.0; stroke-dasharray: 5.0,5.0;" x1="877.5" x2="877.5" y1="58.7988" y2="474.5254"/><line style="stroke: #A80036; stroke-width: 1.0; stroke-dasharray: 5.0,5.0;" x1="994.5" x2="994.5" y1="58.7988" y2="474.5254"/><line style="stroke: #A80036; stroke-width: 1.0; stroke-dasharray: 5.0,5.0;" x1="1115.5" x2="1115.5" y1="58.7988" y2="474.5254"/><rect fill="#FEFECE" filter="url(#f12oijv)" height="30.4883" style="stroke: #A80036; stroke-width: 1.5;" width="121" x="28.5" y="23.3105"/><text fill="#000000" font-family="sans-serif" font-size="14" lengthAdjust="spacingAndGlyphs" textLength="107" x="35.5" y="43.8457">INBRPlayCCSink</text><rect fill="#FEFECE" filter="url(#f12oijv)" height="30.4883" style="stroke: #A80036; stroke-width: 1.5;" width="121" x="28.5" y="473.5254"/><text fill="#000000" font-family="sans-serif" font-size="14" lengthAdjust="spacingAndGlyphs" textLength="107" x="35.5" y="494.0605">INBRPlayCCSink</text><rect fill="#FEFECE" filter="url(#f12oijv)" height="30.4883" style="stroke: #A80036; stroke-width: 1.5;" width="121" x="163.5" y="23.3105"/><text fill="#000000" font-family="sans-serif" font-size="14" lengthAdjust="spacingAndGlyphs" textLength="107" x="170.5" y="43.8457">CNBRPfwPlayCtl</text><rect fill="#FEFECE" filter="url(#f12oijv)" height="30.4883" style="stroke: #A80036; stroke-width: 1.5;" width="121" x="163.5" y="473.5254"/><text fill="#000000" font-family="sans-serif" font-size="14" lengthAdjust="spacingAndGlyphs" textLength="107" x="170.5" y="494.0605">CNBRPfwPlayCtl</text><rect fill="#FEFECE" filter="url(#f12oijv)" height="30.4883" style="stroke: #A80036; stroke-width: 1.5;" width="108" x="333" y="23.3105"/><text fill="#000000" font-family="sans-serif" font-size="14" lengthAdjust="spacingAndGlyphs" textLength="94" x="340" y="43.8457">CNBRPfwUICtl</text><rect fill="#FEFECE" filter="url(#f12oijv)" height="30.4883" style="stroke: #A80036; stroke-width: 1.5;" width="108" x="333" y="473.5254"/><text fill="#000000" font-family="sans-serif" font-size="14" lengthAdjust="spacingAndGlyphs" textLength="94" x="340" y="494.0605">CNBRPfwUICtl</text><rect fill="#FEFECE" filter="url(#f12oijv)" height="30.4883" style="stroke: #A80036; stroke-width: 1.5;" width="116" x="479" y="23.3105"/><text fill="#000000" font-family="sans-serif" font-size="14" lengthAdjust="spacingAndGlyphs" textLength="102" x="486" y="43.8457">INBRCommand</text><rect fill="#FEFECE" filter="url(#f12oijv)" height="30.4883" style="stroke: #A80036; stroke-width: 1.5;" width="116" x="479" y="473.5254"/><text fill="#000000" font-family="sans-serif" font-size="14" lengthAdjust="spacingAndGlyphs" textLength="102" x="486" y="494.0605">INBRCommand</text><rect fill="#FEFECE" filter="url(#f12oijv)" height="30.4883" style="stroke: #A80036; stroke-width: 1.5;" width="92" x="641" y="23.3105"/><text fill="#000000" font-family="sans-serif" font-size="14" lengthAdjust="spacingAndGlyphs" textLength="78" x="648" y="43.8457">CNBRUIMgr</text><rect fill="#FEFECE" filter="url(#f12oijv)" height="30.4883" style="stroke: #A80036; stroke-width: 1.5;" width="92" x="641" y="473.5254"/><text fill="#000000" font-family="sans-serif" font-size="14" lengthAdjust="spacingAndGlyphs" textLength="78" x="648" y="494.0605">CNBRUIMgr</text><rect fill="#FEFECE" filter="url(#f12oijv)" height="30.4883" style="stroke: #A80036; stroke-width: 1.5;" width="105" x="823.5" y="23.3105"/><text fill="#000000" font-family="sans-serif" font-size="14" lengthAdjust="spacingAndGlyphs" textLength="91" x="830.5" y="43.8457">CNBRPlayMgr</text><rect fill="#FEFECE" filter="url(#f12oijv)" height="30.4883" style="stroke: #A80036; stroke-width: 1.5;" width="105" x="823.5" y="473.5254"/><text fill="#000000" font-family="sans-serif" font-size="14" lengthAdjust="spacingAndGlyphs" textLength="91" x="830.5" y="494.0605">CNBRPlayMgr</text><rect fill="#FEFECE" filter="url(#f12oijv)" height="30.4883" style="stroke: #A80036; stroke-width: 1.5;" width="100" x="942.5" y="23.3105"/><text fill="#000000" font-family="sans-serif" font-size="14" lengthAdjust="spacingAndGlyphs" textLength="86" x="949.5" y="43.8457">CNBRPlayBar</text><rect fill="#FEFECE" filter="url(#f12oijv)" height="30.4883" style="stroke: #A80036; stroke-width: 1.5;" width="100" x="942.5" y="473.5254"/><text fill="#000000" font-family="sans-serif" font-size="14" lengthAdjust="spacingAndGlyphs" textLength="86" x="949.5" y="494.0605">CNBRPlayBar</text><rect fill="#FEFECE" filter="url(#f12oijv)" height="30.4883" style="stroke: #A80036; stroke-width: 1.5;" width="114" x="1056.5" y="23.3105"/><text fill="#000000" font-family="sans-serif" font-size="14" lengthAdjust="spacingAndGlyphs" textLength="100" x="1063.5" y="43.8457">CWbxTrackBar</text><rect fill="#FEFECE" filter="url(#f12oijv)" height="30.4883" style="stroke: #A80036; stroke-width: 1.5;" width="114" x="1056.5" y="473.5254"/><text fill="#000000" font-family="sans-serif" font-size="14" lengthAdjust="spacingAndGlyphs" textLength="100" x="1063.5" y="494.0605">CWbxTrackBar</text><rect fill="#EEEEEE" filter="url(#f12oijv)" height="3" style="stroke: #EEEEEE; stroke-width: 1.0;" width="1176.5" x="3" y="89.4541"/><line style="stroke: #000000; stroke-width: 1.0;" x1="3" x2="1179.5" y1="89.4541" y2="89.4541"/><line style="stroke: #000000; stroke-width: 1.0;" x1="3" x2="1179.5" y1="92.4541" y2="92.4541"/><rect fill="#EEEEEE" filter="url(#f12oijv)" height="23.3105" style="stroke: #000000; stroke-width: 2.0;" width="276" x="453.25" y="78.7988"/><text fill="#000000" font-family="sans-serif" font-size="13" font-weight="bold" lengthAdjust="spacingAndGlyphs" textLength="258" x="459.25" y="95.3672">nmac notify nbr_pfw volume message</text><polygon fill="#A80036" points="79,129.1094,89,133.1094,79,137.1094,83,133.1094" style="stroke: #A80036; stroke-width: 1.0;"/><line style="stroke: #A80036; stroke-width: 1.0;" x1="3" x2="85" y1="133.1094" y2="133.1094"/><text fill="#000000" font-family="sans-serif" font-size="13" lengthAdjust="spacingAndGlyphs" textLength="64" x="10" y="128.6777">NotifyInfo</text><polygon fill="#A80036" points="214,158.4199,224,162.4199,214,166.4199,218,162.4199" style="stroke: #A80036; stroke-width: 1.0;"/><line style="stroke: #A80036; stroke-width: 1.0; stroke-dasharray: 2.0,2.0;" x1="91" x2="220" y1="162.4199" y2="162.4199"/><text fill="#000000" font-family="sans-serif" font-size="13" lengthAdjust="spacingAndGlyphs" textLength="64" x="98" y="157.9883">NotifyInfo</text><polygon fill="#A80036" points="377,187.7305,387,191.7305,377,195.7305,381,191.7305" style="stroke: #A80036; stroke-width: 1.0;"/><line style="stroke: #A80036; stroke-width: 1.0;" x1="226" x2="383" y1="191.7305" y2="191.7305"/><text fill="#000000" font-family="sans-serif" font-size="13" lengthAdjust="spacingAndGlyphs" textLength="139" x="233" y="187.2988">OnMixerVolumeNotify</text><polygon fill="#FBFB77" filter="url(#f12oijv)" points="169,205.041,169,230.041,445,230.041,445,215.041,435,205.041,169,205.041" style="stroke: #A80036; stroke-width: 1.0;"/><line style="stroke: #A80036; stroke-width: 1.0;" x1="435" x2="435" y1="205.041" y2="215.041"/><line style="stroke: #A80036; stroke-width: 1.0;" x1="445" x2="435" y1="215.041" y2="215.041"/><text fill="#000000" font-family="sans-serif" font-size="13" lengthAdjust="spacingAndGlyphs" textLength="226" x="187.75" y="222.6094">NBR_CC_PFW_INFO_VOLUME_VALUE</text><polygon fill="#A80036" points="527,256.3516,537,260.3516,527,264.3516,531,260.3516" style="stroke: #A80036; stroke-width: 1.0;"/><line style="stroke: #A80036; stroke-width: 1.0;" x1="389" x2="533" y1="260.3516" y2="260.3516"/><text fill="#000000" font-family="sans-serif" font-size="13" lengthAdjust="spacingAndGlyphs" textLength="126" x="396" y="255.9199">OnHandleCommand</text><polygon fill="#FBFB77" filter="url(#f12oijv)" points="327,273.6621,327,298.6621,597,298.6621,597,283.6621,587,273.6621,327,273.6621" style="stroke: #A80036; stroke-width: 1.0;"/><line style="stroke: #A80036; stroke-width: 1.0;" x1="587" x2="587" y1="273.6621" y2="283.6621"/><line style="stroke: #A80036; stroke-width: 1.0;" x1="597" x2="587" y1="283.6621" y2="283.6621"/><text fill="#000000" font-family="sans-serif" font-size="13" lengthAdjust="spacingAndGlyphs" textLength="249" x="333" y="291.2305">NBR2_PLAY_UI_MIXER_VOLUME_NOTIFY</text><polygon fill="#A80036" points="677,324.9727,687,328.9727,677,332.9727,681,328.9727" style="stroke: #A80036; stroke-width: 1.0;"/><line style="stroke: #A80036; stroke-width: 1.0; stroke-dasharray: 2.0,2.0;" x1="539" x2="683" y1="328.9727" y2="328.9727"/><text fill="#000000" font-family="sans-serif" font-size="13" lengthAdjust="spacingAndGlyphs" textLength="126" x="546" y="324.541">OnHandleCommand</text><polygon fill="#FBFB77" filter="url(#f12oijv)" points="477,342.2832,477,367.2832,747,367.2832,747,352.2832,737,342.2832,477,342.2832" style="stroke: #A80036; stroke-width: 1.0;"/><line style="stroke: #A80036; stroke-width: 1.0;" x1="737" x2="737" y1="342.2832" y2="352.2832"/><line style="stroke: #A80036; stroke-width: 1.0;" x1="747" x2="737" y1="352.2832" y2="352.2832"/><text fill="#000000" font-family="sans-serif" font-size="13" lengthAdjust="spacingAndGlyphs" textLength="249" x="483" y="359.8516">NBR2_PLAY_UI_MIXER_VOLUME_NOTIFY</text><polygon fill="#A80036" points="866,393.5938,876,397.5938,866,401.5938,870,397.5938" style="stroke: #A80036; stroke-width: 1.0;"/><line style="stroke: #A80036; stroke-width: 1.0;" x1="689" x2="872" y1="397.5938" y2="397.5938"/><text fill="#000000" font-family="sans-serif" font-size="13" lengthAdjust="spacingAndGlyphs" textLength="165" x="696" y="393.1621">HandleMixerVolumeNotify</text><polygon fill="#A80036" points="982.5,422.9043,992.5,426.9043,982.5,430.9043,986.5,426.9043" style="stroke: #A80036; stroke-width: 1.0;"/><line style="stroke: #A80036; stroke-width: 1.0;" x1="878" x2="988.5" y1="426.9043" y2="426.9043"/><text fill="#000000" font-family="sans-serif" font-size="13" lengthAdjust="spacingAndGlyphs" textLength="81" x="885" y="422.4727">SetVolumPos</text><polygon fill="#A80036" points="1103.5,452.2148,1113.5,456.2148,1103.5,460.2148,1107.5,456.2148" style="stroke: #A80036; stroke-width: 1.0;"/><line style="stroke: #A80036; stroke-width: 1.0;" x1="994.5" x2="1109.5" y1="456.2148" y2="456.2148"/><text fill="#000000" font-family="sans-serif" font-size="13" lengthAdjust="spacingAndGlyphs" textLength="41" x="1001.5" y="451.7832">SetPos</text></g></svg>