<?xml version="1.0" encoding="UTF-8" standalone="no"?><svg xmlns="http://www.w3.org/2000/svg" xmlns:xlink="http://www.w3.org/1999/xlink" contentScriptType="application/ecmascript" contentStyleType="text/css" height="664px" preserveAspectRatio="none" style="width:1242px;height:664px;" version="1.1" viewBox="0 0 1242 664" width="1242px" zoomAndPan="magnify"><defs><filter height="300%" id="fbbunnb" width="300%" x="-1" y="-1"><feGaussianBlur result="blurOut" stdDeviation="2.0"/><feColorMatrix in="blurOut" result="blurOut2" type="matrix" values="0 0 0 0 0 0 0 0 0 0 0 0 0 0 0 0 0 0 .4 0"/><feOffset dx="4.0" dy="4.0" in="blurOut2" result="blurOut3"/><feBlend in="SourceGraphic" in2="blurOut3" mode="normal"/></filter></defs><g><rect fill="#ADD8E6" height="659.2559" style="stroke: #A80036; stroke-width: 1.0;" width="274" x="691" y="4"/><text fill="#000000" font-family="sans-serif" font-size="13" font-weight="bold" lengthAdjust="spacingAndGlyphs" textLength="92" x="782" y="16.5684">CNBRPfwUICtl</text><line style="stroke: #A80036; stroke-width: 1.0; stroke-dasharray: 5.0,5.0;" x1="92" x2="92" y1="58.7988" y2="624.7676"/><line style="stroke: #A80036; stroke-width: 1.0; stroke-dasharray: 5.0,5.0;" x1="220" x2="220" y1="58.7988" y2="624.7676"/><line style="stroke: #A80036; stroke-width: 1.0; stroke-dasharray: 5.0,5.0;" x1="351" x2="351" y1="58.7988" y2="624.7676"/><line style="stroke: #A80036; stroke-width: 1.0; stroke-dasharray: 5.0,5.0;" x1="481" x2="481" y1="58.7988" y2="624.7676"/><line style="stroke: #A80036; stroke-width: 1.0; stroke-dasharray: 5.0,5.0;" x1="605" x2="605" y1="58.7988" y2="624.7676"/><line style="stroke: #A80036; stroke-width: 1.0; stroke-dasharray: 5.0,5.0;" x1="755" x2="755" y1="58.7988" y2="624.7676"/><line style="stroke: #A80036; stroke-width: 1.0; stroke-dasharray: 5.0,5.0;" x1="905" x2="905" y1="58.7988" y2="624.7676"/><line style="stroke: #A80036; stroke-width: 1.0; stroke-dasharray: 5.0,5.0;" x1="1044.5" x2="1044.5" y1="58.7988" y2="624.7676"/><line style="stroke: #A80036; stroke-width: 1.0; stroke-dasharray: 5.0,5.0;" x1="1174.5" x2="1174.5" y1="58.7988" y2="624.7676"/><rect fill="#FEFECE" filter="url(#fbbunnb)" height="30.4883" style="stroke: #A80036; stroke-width: 1.5;" width="100" x="40" y="23.3105"/><text fill="#000000" font-family="sans-serif" font-size="14" lengthAdjust="spacingAndGlyphs" textLength="86" x="47" y="43.8457">CNBRPlayBar</text><rect fill="#FEFECE" filter="url(#fbbunnb)" height="30.4883" style="stroke: #A80036; stroke-width: 1.5;" width="100" x="40" y="623.7676"/><text fill="#000000" font-family="sans-serif" font-size="14" lengthAdjust="spacingAndGlyphs" textLength="86" x="47" y="644.3027">CNBRPlayBar</text><rect fill="#FEFECE" filter="url(#fbbunnb)" height="30.4883" style="stroke: #A80036; stroke-width: 1.5;" width="129" x="154" y="23.3105"/><text fill="#000000" font-family="sans-serif" font-size="14" lengthAdjust="spacingAndGlyphs" textLength="115" x="161" y="43.8457">CWbxBmpButton</text><rect fill="#FEFECE" filter="url(#fbbunnb)" height="30.4883" style="stroke: #A80036; stroke-width: 1.5;" width="129" x="154" y="623.7676"/><text fill="#000000" font-family="sans-serif" font-size="14" lengthAdjust="spacingAndGlyphs" textLength="115" x="161" y="644.3027">CWbxBmpButton</text><rect fill="#FEFECE" filter="url(#fbbunnb)" height="30.4883" style="stroke: #A80036; stroke-width: 1.5;" width="105" x="297" y="23.3105"/><text fill="#000000" font-family="sans-serif" font-size="14" lengthAdjust="spacingAndGlyphs" textLength="91" x="304" y="43.8457">CNBRPlayMgr</text><rect fill="#FEFECE" filter="url(#fbbunnb)" height="30.4883" style="stroke: #A80036; stroke-width: 1.5;" width="105" x="297" y="623.7676"/><text fill="#000000" font-family="sans-serif" font-size="14" lengthAdjust="spacingAndGlyphs" textLength="91" x="304" y="644.3027">CNBRPlayMgr</text><rect fill="#FEFECE" filter="url(#fbbunnb)" height="30.4883" style="stroke: #A80036; stroke-width: 1.5;" width="127" x="416" y="23.3105"/><text fill="#000000" font-family="sans-serif" font-size="14" lengthAdjust="spacingAndGlyphs" textLength="113" x="423" y="43.8457">CNBRMainFrame</text><rect fill="#FEFECE" filter="url(#fbbunnb)" height="30.4883" style="stroke: #A80036; stroke-width: 1.5;" width="127" x="416" y="623.7676"/><text fill="#000000" font-family="sans-serif" font-size="14" lengthAdjust="spacingAndGlyphs" textLength="113" x="423" y="644.3027">CNBRMainFrame</text><rect fill="#FEFECE" filter="url(#fbbunnb)" height="30.4883" style="stroke: #A80036; stroke-width: 1.5;" width="92" x="557" y="23.3105"/><text fill="#000000" font-family="sans-serif" font-size="14" lengthAdjust="spacingAndGlyphs" textLength="78" x="564" y="43.8457">CNBRUIMgr</text><rect fill="#FEFECE" filter="url(#fbbunnb)" height="30.4883" style="stroke: #A80036; stroke-width: 1.5;" width="92" x="557" y="623.7676"/><text fill="#000000" font-family="sans-serif" font-size="14" lengthAdjust="spacingAndGlyphs" textLength="78" x="564" y="644.3027">CNBRUIMgr</text><rect fill="#FEFECE" filter="url(#fbbunnb)" height="30.4883" style="stroke: #A80036; stroke-width: 1.5;" width="116" x="695" y="23.3105"/><text fill="#000000" font-family="sans-serif" font-size="14" lengthAdjust="spacingAndGlyphs" textLength="102" x="702" y="43.8457">INBRCommand</text><rect fill="#FEFECE" filter="url(#fbbunnb)" height="30.4883" style="stroke: #A80036; stroke-width: 1.5;" width="116" x="695" y="623.7676"/><text fill="#000000" font-family="sans-serif" font-size="14" lengthAdjust="spacingAndGlyphs" textLength="102" x="702" y="644.3027">INBRCommand</text><rect fill="#FEFECE" filter="url(#fbbunnb)" height="30.4883" style="stroke: #A80036; stroke-width: 1.5;" width="108" x="849" y="23.3105"/><text fill="#000000" font-family="sans-serif" font-size="14" lengthAdjust="spacingAndGlyphs" textLength="94" x="856" y="43.8457">CNBRPfwUICtl</text><rect fill="#FEFECE" filter="url(#fbbunnb)" height="30.4883" style="stroke: #A80036; stroke-width: 1.5;" width="108" x="849" y="623.7676"/><text fill="#000000" font-family="sans-serif" font-size="14" lengthAdjust="spacingAndGlyphs" textLength="94" x="856" y="644.3027">CNBRPfwUICtl</text><rect fill="#FEFECE" filter="url(#fbbunnb)" height="30.4883" style="stroke: #A80036; stroke-width: 1.5;" width="121" x="982.5" y="23.3105"/><text fill="#000000" font-family="sans-serif" font-size="14" lengthAdjust="spacingAndGlyphs" textLength="107" x="989.5" y="43.8457">CNBRPfwPlayCtl</text><rect fill="#FEFECE" filter="url(#fbbunnb)" height="30.4883" style="stroke: #A80036; stroke-width: 1.5;" width="121" x="982.5" y="623.7676"/><text fill="#000000" font-family="sans-serif" font-size="14" lengthAdjust="spacingAndGlyphs" textLength="107" x="989.5" y="644.3027">CNBRPfwPlayCtl</text><rect fill="#FEFECE" filter="url(#fbbunnb)" height="30.4883" style="stroke: #A80036; stroke-width: 1.5;" width="111" x="1117.5" y="23.3105"/><text fill="#000000" font-family="sans-serif" font-size="14" lengthAdjust="spacingAndGlyphs" textLength="97" x="1124.5" y="43.8457">INBRPlayCCCtl</text><rect fill="#FEFECE" filter="url(#fbbunnb)" height="30.4883" style="stroke: #A80036; stroke-width: 1.5;" width="111" x="1117.5" y="623.7676"/><text fill="#000000" font-family="sans-serif" font-size="14" lengthAdjust="spacingAndGlyphs" textLength="97" x="1124.5" y="644.3027">INBRPlayCCCtl</text><rect fill="#EEEEEE" filter="url(#fbbunnb)" height="3" style="stroke: #EEEEEE; stroke-width: 1.0;" width="1234.5" x="3" y="89.4541"/><line style="stroke: #000000; stroke-width: 1.0;" x1="3" x2="1237.5" y1="89.4541" y2="89.4541"/><line style="stroke: #000000; stroke-width: 1.0;" x1="3" x2="1237.5" y1="92.4541" y2="92.4541"/><rect fill="#EEEEEE" filter="url(#fbbunnb)" height="23.3105" style="stroke: #000000; stroke-width: 2.0;" width="149" x="545.75" y="78.7988"/><text fill="#000000" font-family="sans-serif" font-size="13" font-weight="bold" lengthAdjust="spacingAndGlyphs" textLength="131" x="551.75" y="95.3672">User adjust volume</text><polygon fill="#A80036" points="80,129.1094,90,133.1094,80,137.1094,84,133.1094" style="stroke: #A80036; stroke-width: 1.0;"/><line style="stroke: #A80036; stroke-width: 1.0;" x1="3" x2="86" y1="133.1094" y2="133.1094"/><text fill="#000000" font-family="sans-serif" font-size="13" lengthAdjust="spacingAndGlyphs" textLength="65" x="10" y="128.6777">OnVolume</text><polygon fill="#A80036" points="208.5,158.4199,218.5,162.4199,208.5,166.4199,212.5,162.4199" style="stroke: #A80036; stroke-width: 1.0;"/><line style="stroke: #A80036; stroke-width: 1.0;" x1="92" x2="214.5" y1="162.4199" y2="162.4199"/><text fill="#000000" font-family="sans-serif" font-size="13" lengthAdjust="spacingAndGlyphs" textLength="43" x="99" y="157.9883">GetPos</text><polygon fill="#A80036" points="339.5,187.7305,349.5,191.7305,339.5,195.7305,343.5,191.7305" style="stroke: #A80036; stroke-width: 1.0;"/><line style="stroke: #A80036; stroke-width: 1.0;" x1="92" x2="345.5" y1="191.7305" y2="191.7305"/><text fill="#000000" font-family="sans-serif" font-size="13" lengthAdjust="spacingAndGlyphs" textLength="77" x="99" y="187.2988">UICommand</text><polygon fill="#FBFB77" filter="url(#fbbunnb)" points="41,205.041,41,230.041,402,230.041,402,215.041,392,205.041,41,205.041" style="stroke: #A80036; stroke-width: 1.0;"/><line style="stroke: #A80036; stroke-width: 1.0;" x1="392" x2="392" y1="205.041" y2="215.041"/><line style="stroke: #A80036; stroke-width: 1.0;" x1="402" x2="392" y1="215.041" y2="215.041"/><text fill="#000000" font-family="sans-serif" font-size="13" lengthAdjust="spacingAndGlyphs" textLength="97" x="166.5" y="222.6094">NBRUI_VOLUME</text><polygon fill="#A80036" points="469.5,256.3516,479.5,260.3516,469.5,264.3516,473.5,260.3516" style="stroke: #A80036; stroke-width: 1.0;"/><line style="stroke: #A80036; stroke-width: 1.0;" x1="351.5" x2="475.5" y1="260.3516" y2="260.3516"/><text fill="#000000" font-family="sans-serif" font-size="13" lengthAdjust="spacingAndGlyphs" textLength="58" x="358.5" y="255.9199">ToUICmd</text><polygon fill="#FBFB77" filter="url(#fbbunnb)" points="294,273.6621,294,298.6621,539,298.6621,539,283.6621,529,273.6621,294,273.6621" style="stroke: #A80036; stroke-width: 1.0;"/><line style="stroke: #A80036; stroke-width: 1.0;" x1="529" x2="529" y1="273.6621" y2="283.6621"/><line style="stroke: #A80036; stroke-width: 1.0;" x1="539" x2="529" y1="283.6621" y2="283.6621"/><text fill="#000000" font-family="sans-serif" font-size="13" lengthAdjust="spacingAndGlyphs" textLength="131" x="344.5" y="291.2305">UICMD_SET_VOLUME</text><polygon fill="#A80036" points="593,324.9727,603,328.9727,593,332.9727,597,328.9727" style="stroke: #A80036; stroke-width: 1.0;"/><line style="stroke: #A80036; stroke-width: 1.0;" x1="481.5" x2="599" y1="328.9727" y2="328.9727"/><text fill="#000000" font-family="sans-serif" font-size="13" lengthAdjust="spacingAndGlyphs" textLength="70" x="488.5" y="324.541">ToPFWCmd</text><polygon fill="#FBFB77" filter="url(#fbbunnb)" points="427,342.2832,427,367.2832,659,367.2832,659,352.2832,649,342.2832,427,342.2832" style="stroke: #A80036; stroke-width: 1.0;"/><line style="stroke: #A80036; stroke-width: 1.0;" x1="649" x2="649" y1="342.2832" y2="352.2832"/><line style="stroke: #A80036; stroke-width: 1.0;" x1="659" x2="649" y1="352.2832" y2="352.2832"/><text fill="#000000" font-family="sans-serif" font-size="13" lengthAdjust="spacingAndGlyphs" textLength="195" x="439" y="359.8516">NBR_PLAY_CMDID_SETVOLUME</text><polygon fill="#A80036" points="743,393.5938,753,397.5938,743,401.5938,747,397.5938" style="stroke: #A80036; stroke-width: 1.0;"/><line style="stroke: #A80036; stroke-width: 1.0;" x1="605" x2="749" y1="397.5938" y2="397.5938"/><text fill="#000000" font-family="sans-serif" font-size="13" lengthAdjust="spacingAndGlyphs" textLength="126" x="612" y="393.1621">OnHandleCommand</text><polygon fill="#A80036" points="893,422.9043,903,426.9043,893,430.9043,897,426.9043" style="stroke: #A80036; stroke-width: 1.0;"/><line style="stroke: #A80036; stroke-width: 1.0; stroke-dasharray: 2.0,2.0;" x1="755" x2="899" y1="426.9043" y2="426.9043"/><text fill="#000000" font-family="sans-serif" font-size="13" lengthAdjust="spacingAndGlyphs" textLength="126" x="762" y="422.4727">OnHandleCommand</text><polygon fill="#A80036" points="1033,452.2148,1043,456.2148,1033,460.2148,1037,456.2148" style="stroke: #A80036; stroke-width: 1.0;"/><line style="stroke: #A80036; stroke-width: 1.0;" x1="905" x2="1039" y1="456.2148" y2="456.2148"/><text fill="#000000" font-family="sans-serif" font-size="13" lengthAdjust="spacingAndGlyphs" textLength="116" x="912" y="451.7832">OnHandlePlayCmd</text><polygon fill="#FBFB77" filter="url(#fbbunnb)" points="848,469.5254,848,494.5254,1101,494.5254,1101,479.5254,1091,469.5254,848,469.5254" style="stroke: #A80036; stroke-width: 1.0;"/><line style="stroke: #A80036; stroke-width: 1.0;" x1="1091" x2="1091" y1="469.5254" y2="479.5254"/><line style="stroke: #A80036; stroke-width: 1.0;" x1="1101" x2="1091" y1="479.5254" y2="479.5254"/><text fill="#000000" font-family="sans-serif" font-size="13" lengthAdjust="spacingAndGlyphs" textLength="195" x="870.75" y="487.0938">NBR_PLAY_CMDID_SETVOLUME</text><line style="stroke: #A80036; stroke-width: 1.0;" x1="1045" x2="1087" y1="525.1465" y2="525.1465"/><line style="stroke: #A80036; stroke-width: 1.0;" x1="1087" x2="1087" y1="525.1465" y2="538.1465"/><line style="stroke: #A80036; stroke-width: 1.0;" x1="1046" x2="1087" y1="538.1465" y2="538.1465"/><polygon fill="#A80036" points="1056,534.1465,1046,538.1465,1056,542.1465,1052,538.1465" style="stroke: #A80036; stroke-width: 1.0;"/><text fill="#000000" font-family="sans-serif" font-size="13" lengthAdjust="spacingAndGlyphs" textLength="66" x="1052" y="520.4043">SetVolume</text><polygon fill="#A80036" points="1163,563.1465,1173,567.1465,1163,571.1465,1167,567.1465" style="stroke: #A80036; stroke-width: 1.0;"/><line style="stroke: #A80036; stroke-width: 1.0;" x1="1045" x2="1169" y1="567.1465" y2="567.1465"/><text fill="#000000" font-family="sans-serif" font-size="13" lengthAdjust="spacingAndGlyphs" textLength="98" x="1052" y="562.7148">HandlePlayCmd</text><polygon fill="#FBFB77" filter="url(#fbbunnb)" points="987,580.457,987,605.457,1232,605.457,1232,590.457,1222,580.457,987,580.457" style="stroke: #A80036; stroke-width: 1.0;"/><line style="stroke: #A80036; stroke-width: 1.0;" x1="1222" x2="1222" y1="580.457" y2="590.457"/><line style="stroke: #A80036; stroke-width: 1.0;" x1="1232" x2="1222" y1="590.457" y2="590.457"/><text fill="#000000" font-family="sans-serif" font-size="13" lengthAdjust="spacingAndGlyphs" textLength="207" x="999.5" y="598.0254">NBR_PFW_CC_CMD_SET_VOLUME</text></g></svg>