<?xml version="1.0" encoding="UTF-8" standalone="yes"?><svg xmlns="http://www.w3.org/2000/svg" xmlns:xlink="http://www.w3.org/1999/xlink" height="392pt" style="width:1350px;height:392px;" version="1.1" viewBox="0 0 1350 392" width="1350pt"><defs><filter height="300%" id="f1" width="300%" x="-1" y="-1"><feGaussianBlur result="blurOut" stdDeviation="2.0"/><feColorMatrix in="blurOut" result="blurOut2" type="matrix" values="0 0 0 0 0 0 0 0 0 0 0 0 0 0 0 0 0 0 .4 0"/><feOffset dx="4.0" dy="4.0" in="blurOut2" result="blurOut3"/><feBlend in="SourceGraphic" in2="blurOut3" mode="normal"/></filter></defs><g><rect fill="#FEFECE" filter="url(#f1)" height="203.4609" style="stroke: #A80036; stroke-width: 1.5;" width="315" x="6" y="8"/><ellipse cx="83.75" cy="24" fill="#ADD1B2" rx="11" ry="11" style="stroke: #A80036; stroke-width: 1.0;"/><path d="M86.4531,19.9292 Q86.6191,19.6304 86.7935,19.5059 Q86.9678,19.3813 87.2334,19.3813 Q87.6401,19.3813 87.8103,19.5972 Q87.9805,19.813 87.9805,20.3359 L87.9971,22.4941 Q87.9971,23.0669 87.8103,23.2661 Q87.6235,23.4653 87.1338,23.4653 Q86.7852,23.4653 86.5984,23.2993 Q86.4116,23.1333 86.2788,22.6851 Q86.063,21.8965 85.5898,21.552 Q85.1167,21.2075 84.2783,21.2075 Q83,21.2075 82.3193,22.0708 Q81.6387,22.9341 81.6387,24.5693 Q81.6387,26.1963 82.3276,27.0679 Q83.0166,27.9395 84.2949,27.9395 Q85.1665,27.9395 86.2166,27.3584 Q87.2666,26.7773 87.5405,26.7773 Q87.8643,26.7773 88.0842,27.0513 Q88.3042,27.3252 88.3042,27.7319 Q88.3042,28.4624 87.0176,29.1099 Q85.731,29.7573 84.1206,29.7573 Q81.9458,29.7573 80.6011,28.3213 Q79.2563,26.8853 79.2563,24.5693 Q79.2563,22.3364 80.6177,20.8589 Q81.979,19.3813 84.0708,19.3813 Q84.6602,19.3813 85.2329,19.5142 Q85.8057,19.647 86.4531,19.9292 Z "/><text fill="#000000" font-family="sans-serif" font-size="12" lengthAdjust="spacingAndGlyphs" textLength="151" x="104.25" y="28.5352">CCiscoWebExUpdateProxy</text><line style="stroke: #A80036; stroke-width: 1.5;" x1="7" x2="320" y1="40" y2="40"/><polygon fill="none" points="17,46.9775,21,50.9775,17,54.9775,13,50.9775" style="stroke: #B38D22; stroke-width: 1.0;"/><text fill="#000000" font-family="sans-serif" font-size="11" lengthAdjust="spacingAndGlyphs" textLength="142" x="26" y="54.6348">BOOL   m_bUpdateLaunch;</text><polygon fill="none" points="17,59.9326,21,63.9326,17,67.9326,13,63.9326" style="stroke: #B38D22; stroke-width: 1.0;"/><text fill="#000000" font-family="sans-serif" font-size="11" lengthAdjust="spacingAndGlyphs" textLength="111" x="26" y="67.5898">string m_strExePath;</text><polygon fill="none" points="17,72.8877,21,76.8877,17,80.8877,13,76.8877" style="stroke: #B38D22; stroke-width: 1.0;"/><text fill="#000000" font-family="sans-serif" font-size="11" lengthAdjust="spacingAndGlyphs" textLength="105" x="26" y="80.5449">string m_strIniPath;</text><text fill="#000000" font-family="sans-serif" font-size="11" lengthAdjust="spacingAndGlyphs" textLength="0" x="29" y="93.5"/><polygon fill="none" points="17,98.7979,21,102.7979,17,106.7979,13,102.7979" style="stroke: #B38D22; stroke-width: 1.0;"/><text fill="#000000" font-family="sans-serif" font-size="11" lengthAdjust="spacingAndGlyphs" textLength="179" x="26" y="106.4551">string m_strCommunicationWND;</text><line style="stroke: #A80036; stroke-width: 1.5;" x1="7" x2="320" y1="112.7754" y2="112.7754"/><ellipse cx="17" cy="124.7529" fill="#84BE84" rx="3" ry="3" style="stroke: #038048; stroke-width: 1.0;"/><text fill="#000000" font-family="sans-serif" font-size="11" lengthAdjust="spacingAndGlyphs" textLength="276" x="26" y="127.4102">void SetCommandLine(const string&amp; strCommand);</text><ellipse cx="17" cy="137.708" fill="#84BE84" rx="3" ry="3" style="stroke: #038048; stroke-width: 1.0;"/><text fill="#000000" font-family="sans-serif" font-size="11" lengthAdjust="spacingAndGlyphs" textLength="279" x="26" y="140.3652">void SetCommunicationWND(const string&amp; strWND);</text><ellipse cx="17" cy="150.6631" fill="#84BE84" rx="3" ry="3" style="stroke: #038048; stroke-width: 1.0;"/><text fill="#000000" font-family="sans-serif" font-size="11" lengthAdjust="spacingAndGlyphs" textLength="212" x="26" y="153.3203">void SetCommunicationWND(int nWND);</text><ellipse cx="17" cy="163.6182" fill="#84BE84" rx="3" ry="3" style="stroke: #038048; stroke-width: 1.0;"/><text fill="#000000" font-family="sans-serif" font-size="11" lengthAdjust="spacingAndGlyphs" textLength="106" x="26" y="166.2754">string GetExePath();</text><ellipse cx="17" cy="176.5732" fill="#84BE84" rx="3" ry="3" style="stroke: #038048; stroke-width: 1.0;"/><text fill="#000000" font-family="sans-serif" font-size="11" lengthAdjust="spacingAndGlyphs" textLength="100" x="26" y="179.2305">string GetIniPath();</text><ellipse cx="17" cy="189.5283" fill="#84BE84" rx="3" ry="3" style="stroke: #038048; stroke-width: 1.0;"/><text fill="#000000" font-family="sans-serif" font-size="11" lengthAdjust="spacingAndGlyphs" textLength="271" x="26" y="192.1855">int ExecuteCommand(const string&amp; strCommand);</text><polygon fill="#FFFF44" points="17,197.4834,21,201.4834,17,205.4834,13,201.4834" style="stroke: #B38D22; stroke-width: 1.0;"/><text fill="#000000" font-family="sans-serif" font-size="11" lengthAdjust="spacingAndGlyphs" textLength="289" x="26" y="205.1406">void ParseCommandLine(const string&amp; strCommand);</text><rect fill="#FEFECE" filter="url(#f1)" height="125.7305" style="stroke: #A80036; stroke-width: 1.5;" width="985" x="356" y="46.5"/><ellipse cx="774.75" cy="62.5" fill="#ADD1B2" rx="11" ry="11" style="stroke: #A80036; stroke-width: 1.0;"/><path d="M777.4531,58.4292 Q777.6191,58.1304 777.7935,58.0059 Q777.9678,57.8813 778.2334,57.8813 Q778.6401,57.8813 778.8103,58.0972 Q778.9805,58.313 778.9805,58.8359 L778.9971,60.9941 Q778.9971,61.5669 778.8103,61.7661 Q778.6235,61.9653 778.1338,61.9653 Q777.7852,61.9653 777.5984,61.7993 Q777.4116,61.6333 777.2788,61.1851 Q777.063,60.3965 776.5898,60.052 Q776.1167,59.7075 775.2783,59.7075 Q774,59.7075 773.3193,60.5708 Q772.6387,61.4341 772.6387,63.0693 Q772.6387,64.6963 773.3276,65.5679 Q774.0166,66.4395 775.2949,66.4395 Q776.1665,66.4395 777.2166,65.8584 Q778.2666,65.2773 778.5405,65.2773 Q778.8643,65.2773 779.0842,65.5513 Q779.3042,65.8252 779.3042,66.2319 Q779.3042,66.9624 778.0176,67.6099 Q776.731,68.2573 775.1206,68.2573 Q772.9458,68.2573 771.6011,66.8213 Q770.2563,65.3853 770.2563,63.0693 Q770.2563,60.8364 771.6177,59.3589 Q772.979,57.8813 775.0708,57.8813 Q775.6602,57.8813 776.2329,58.0142 Q776.8057,58.147 777.4531,58.4292 Z "/><text fill="#000000" font-family="sans-serif" font-size="12" lengthAdjust="spacingAndGlyphs" textLength="139" x="795.25" y="67.0352">CCiscoWebExUpdateEnv</text><line style="stroke: #A80036; stroke-width: 1.5;" x1="357" x2="1340" y1="78.5" y2="78.5"/><line style="stroke: #A80036; stroke-width: 1.5;" x1="357" x2="1340" y1="86.5" y2="86.5"/><ellipse cx="367" cy="98.4775" fill="#84BE84" rx="3" ry="3" style="stroke: #038048; stroke-width: 1.0;"/><text fill="#000000" font-family="sans-serif" font-size="11" lengthAdjust="spacingAndGlyphs" textLength="36" x="376" y="101.1348">tstring</text><text fill="#000000" font-family="sans-serif" font-size="11" lengthAdjust="spacingAndGlyphs" textLength="74" x="424" y="101.1348">GetAppPath();</text><ellipse cx="367" cy="111.4326" fill="#84BE84" rx="3" ry="3" style="stroke: #038048; stroke-width: 1.0;"/><text fill="#000000" font-family="sans-serif" font-size="11" lengthAdjust="spacingAndGlyphs" textLength="36" x="376" y="114.0898">tstring</text><text fill="#000000" font-family="sans-serif" font-size="11" lengthAdjust="spacingAndGlyphs" textLength="106" x="424" y="114.0898">GetCommandLine();</text><text fill="#000000" font-family="sans-serif" font-size="11" lengthAdjust="spacingAndGlyphs" textLength="0" x="379" y="127.0449"/><ellipse cx="367" cy="137.3428" fill="#84BE84" rx="3" ry="3" style="stroke: #038048; stroke-width: 1.0;"/><text fill="#000000" font-family="sans-serif" font-size="11" lengthAdjust="spacingAndGlyphs" textLength="24" x="376" y="140">bool</text><text fill="#000000" font-family="sans-serif" font-size="11" lengthAdjust="spacingAndGlyphs" textLength="887" x="448" y="140">ReadIniProfileString(const string&amp; strSectionName, const string&amp; strKey, const string&amp; strDefaultValue, TCHAR* pszValue, int nValueSize, const string&amp; strIniFilePath);</text><ellipse cx="367" cy="150.2979" fill="#84BE84" rx="3" ry="3" style="stroke: #038048; stroke-width: 1.0;"/><text fill="#000000" font-family="sans-serif" font-size="11" lengthAdjust="spacingAndGlyphs" textLength="24" x="376" y="152.9551">bool</text><text fill="#000000" font-family="sans-serif" font-size="11" lengthAdjust="spacingAndGlyphs" textLength="670" x="448" y="152.9551">WriteIniProfileString(const string&amp; strSectionName, const string&amp; strKey, const string&amp; strValue, const string&amp; strIniFilePath);</text><ellipse cx="367" cy="163.2529" fill="#84BE84" rx="3" ry="3" style="stroke: #038048; stroke-width: 1.0;"/><text fill="#000000" font-family="sans-serif" font-size="11" lengthAdjust="spacingAndGlyphs" textLength="24" x="376" y="165.9102">bool</text><text fill="#000000" font-family="sans-serif" font-size="11" lengthAdjust="spacingAndGlyphs" textLength="340" x="448" y="165.9102">RunProcess(const tstring&amp; strAppPath, const tstring&amp; strCmd);</text><rect fill="#FEFECE" filter="url(#f1)" height="60.9551" style="stroke: #A80036; stroke-width: 1.5;" width="220" x="53.5" y="297"/><ellipse cx="68.5" cy="313" fill="#ADD1B2" rx="11" ry="11" style="stroke: #A80036; stroke-width: 1.0;"/><path d="M71.2031,308.9292 Q71.3691,308.6304 71.5435,308.5059 Q71.7178,308.3813 71.9834,308.3813 Q72.3901,308.3813 72.5603,308.5972 Q72.7305,308.813 72.7305,309.3359 L72.7471,311.4941 Q72.7471,312.0669 72.5603,312.2661 Q72.3735,312.4653 71.8838,312.4653 Q71.5352,312.4653 71.3484,312.2993 Q71.1616,312.1333 71.0288,311.6851 Q70.813,310.8965 70.3398,310.552 Q69.8667,310.2075 69.0283,310.2075 Q67.75,310.2075 67.0693,311.0708 Q66.3887,311.9341 66.3887,313.5693 Q66.3887,315.1963 67.0776,316.0679 Q67.7666,316.9395 69.0449,316.9395 Q69.9165,316.9395 70.9666,316.3584 Q72.0166,315.7773 72.2905,315.7773 Q72.6143,315.7773 72.8342,316.0513 Q73.0542,316.3252 73.0542,316.7319 Q73.0542,317.4624 71.7676,318.1099 Q70.481,318.7573 68.8706,318.7573 Q66.6958,318.7573 65.3511,317.3213 Q64.0063,315.8853 64.0063,313.5693 Q64.0063,311.3364 65.3677,309.8589 Q66.729,308.3813 68.8208,308.3813 Q69.4102,308.3813 69.9829,308.5142 Q70.5557,308.647 71.2031,308.9292 Z "/><text fill="#000000" font-family="sans-serif" font-size="12" lengthAdjust="spacingAndGlyphs" textLength="188" x="82.5" y="317.5352">CCiscoWebExUpdateChannelSink</text><line style="stroke: #A80036; stroke-width: 1.5;" x1="54.5" x2="272.5" y1="329" y2="329"/><ellipse cx="64.5" cy="340.9775" fill="none" rx="3" ry="3" style="stroke: #038048; stroke-width: 1.0;"/><text fill="#000000" font-family="sans-serif" font-size="11" lengthAdjust="spacingAndGlyphs" textLength="23" x="73.5" y="343.6348">void</text><line style="stroke: #A80036; stroke-width: 1.5;" x1="54.5" x2="272.5" y1="349.9551" y2="349.9551"/><rect fill="#FEFECE" filter="url(#f1)" height="112.7754" style="stroke: #A80036; stroke-width: 1.5;" width="450" x="308.5" y="271"/><ellipse cx="446.75" cy="287" fill="#ADD1B2" rx="11" ry="11" style="stroke: #A80036; stroke-width: 1.0;"/><path d="M449.4531,282.9292 Q449.6191,282.6304 449.7935,282.5059 Q449.9678,282.3813 450.2334,282.3813 Q450.6401,282.3813 450.8103,282.5972 Q450.9805,282.813 450.9805,283.3359 L450.9971,285.4941 Q450.9971,286.0669 450.8103,286.2661 Q450.6235,286.4653 450.1338,286.4653 Q449.7852,286.4653 449.5984,286.2993 Q449.4116,286.1333 449.2788,285.6851 Q449.063,284.8965 448.5898,284.552 Q448.1167,284.2075 447.2783,284.2075 Q446,284.2075 445.3193,285.0708 Q444.6387,285.9341 444.6387,287.5693 Q444.6387,289.1963 445.3276,290.0679 Q446.0166,290.9395 447.2949,290.9395 Q448.1665,290.9395 449.2166,290.3584 Q450.2666,289.7773 450.5405,289.7773 Q450.8643,289.7773 451.0842,290.0513 Q451.3042,290.3252 451.3042,290.7319 Q451.3042,291.4624 450.0176,292.1099 Q448.731,292.7573 447.1206,292.7573 Q444.9458,292.7573 443.6011,291.3213 Q442.2563,289.8853 442.2563,287.5693 Q442.2563,285.3364 443.6177,283.8589 Q444.979,282.3813 447.0708,282.3813 Q447.6602,282.3813 448.2329,282.5142 Q448.8057,282.647 449.4531,282.9292 Z "/><text fill="#000000" font-family="sans-serif" font-size="12" lengthAdjust="spacingAndGlyphs" textLength="165" x="467.25" y="291.5352">CCiscoWebExUpdateChannel</text><line style="stroke: #A80036; stroke-width: 1.5;" x1="309.5" x2="757.5" y1="303" y2="303"/><polygon fill="none" points="319.5,309.9775,323.5,313.9775,319.5,317.9775,315.5,313.9775" style="stroke: #B38D22; stroke-width: 1.0;"/><text fill="#000000" font-family="sans-serif" font-size="11" lengthAdjust="spacingAndGlyphs" textLength="33" x="328.5" y="317.6348">HWND</text><text fill="#000000" font-family="sans-serif" font-size="11" lengthAdjust="spacingAndGlyphs" textLength="49" x="400.5" y="317.6348">m_hWnd;</text><line style="stroke: #A80036; stroke-width: 1.5;" x1="309.5" x2="757.5" y1="323.9551" y2="323.9551"/><ellipse cx="319.5" cy="335.9326" fill="#84BE84" rx="3" ry="3" style="stroke: #038048; stroke-width: 1.0;"/><text fill="#000000" font-family="sans-serif" font-size="11" lengthAdjust="spacingAndGlyphs" textLength="424" x="328.5" y="338.5898">CCiscoWebExUpdateChannel(CCiscoWebExUpdateChannelSink* pChannelSink);</text><ellipse cx="319.5" cy="348.8877" fill="#84BE84" rx="3" ry="3" style="stroke: #038048; stroke-width: 1.0;"/><text fill="#000000" font-family="sans-serif" font-size="11" lengthAdjust="spacingAndGlyphs" textLength="24" x="328.5" y="351.5449">bool</text><text fill="#000000" font-family="sans-serif" font-size="11" lengthAdjust="spacingAndGlyphs" textLength="46" x="400.5" y="351.5449">Create();</text><ellipse cx="319.5" cy="361.8428" fill="#84BE84" rx="3" ry="3" style="stroke: #038048; stroke-width: 1.0;"/><text fill="#000000" font-family="sans-serif" font-size="11" lengthAdjust="spacingAndGlyphs" textLength="23" x="328.5" y="364.5">void</text><text fill="#000000" font-family="sans-serif" font-size="11" lengthAdjust="spacingAndGlyphs" textLength="53" x="376.5" y="364.5">Destroy();</text><ellipse cx="319.5" cy="374.7979" fill="#84BE84" rx="3" ry="3" style="stroke: #038048; stroke-width: 1.0;"/><text fill="#000000" font-family="sans-serif" font-size="11" lengthAdjust="spacingAndGlyphs" textLength="33" x="328.5" y="377.4551">HWND</text><text fill="#000000" font-family="sans-serif" font-size="11" lengthAdjust="spacingAndGlyphs" textLength="62" x="400.5" y="377.4551">GetHWND();</text></g></svg>