<?xml version="1.0" encoding="UTF-8" standalone="yes"?><svg xmlns="http://www.w3.org/2000/svg" xmlns:xlink="http://www.w3.org/1999/xlink" height="1996pt" style="width:2760px;height:1996px;" version="1.1" viewBox="0 0 2760 1996" width="2760pt"><defs><filter height="300%" id="f1" width="300%" x="-1" y="-1"><feGaussianBlur result="blurOut" stdDeviation="2.0"/><feColorMatrix in="blurOut" result="blurOut2" type="matrix" values="0 0 0 0 0 0 0 0 0 0 0 0 0 0 0 0 0 0 .4 0"/><feOffset dx="4.0" dy="4.0" in="blurOut2" result="blurOut3"/><feBlend in="SourceGraphic" in2="blurOut3" mode="normal"/></filter></defs><g><rect fill="#FFFFFF" filter="url(#f1)" height="1037.3164" style="stroke: #A80036; stroke-width: 1.0;" width="10" x="465" y="162.4199"/><rect fill="#FFFFFF" filter="url(#f1)" height="897.0742" style="stroke: #A80036; stroke-width: 1.0;" width="10" x="783.5" y="268.3516"/><rect fill="#FFFFFF" filter="url(#f1)" height="215.1738" style="stroke: #A80036; stroke-width: 1.0;" width="10" x="788.5" y="310.6621"/><rect fill="#FFFFFF" filter="url(#f1)" height="514.6582" style="stroke: #A80036; stroke-width: 1.0;" width="10" x="788.5" y="650.7676"/><rect fill="#FFFFFF" filter="url(#f1)" height="348.1055" style="stroke: #A80036; stroke-width: 1.0;" width="10" x="2212.5" y="1583.1523"/><rect fill="#FFFFFF" filter="url(#f1)" height="270.4844" style="stroke: #A80036; stroke-width: 1.0;" width="10" x="2217.5" y="1620.4629"/><rect fill="#DDDDDD" height="1991.0566" style="stroke: #A80036; stroke-width: 1.0;" width="171" x="4" y="4"/><text fill="#000000" font-family="sans-serif" font-size="13" font-weight="bold" lengthAdjust="spacingAndGlyphs" textLength="72" x="53.5" y="16.5684">WebExMgr</text><rect fill="#DDDDDD" height="1991.0566" style="stroke: #A80036; stroke-width: 1.0;" width="696.5" x="177" y="4"/><text fill="#000000" font-family="sans-serif" font-size="13" font-weight="bold" lengthAdjust="spacingAndGlyphs" textLength="75" x="487.75" y="16.5684">ServiceMgr</text><rect fill="#DDDDDD" height="1991.0566" style="stroke: #A80036; stroke-width: 1.0;" width="177" x="895" y="4"/><text fill="#000000" font-family="sans-serif" font-size="13" font-weight="bold" lengthAdjust="spacingAndGlyphs" textLength="20" x="973.5" y="16.5684">cm</text><rect fill="#DDDDDD" height="1991.0566" style="stroke: #A80036; stroke-width: 1.0;" width="1237" x="1074" y="4"/><text fill="#000000" font-family="sans-serif" font-size="13" font-weight="bold" lengthAdjust="spacingAndGlyphs" textLength="63" x="1661" y="16.5684">HybridCli</text><rect fill="#DDDDDD" height="1991.0566" style="stroke: #A80036; stroke-width: 1.0;" width="146" x="2313" y="4"/><text fill="#000000" font-family="sans-serif" font-size="13" font-weight="bold" lengthAdjust="spacingAndGlyphs" textLength="55" x="2358.5" y="16.5684">dtappcli</text><rect fill="#DDDDDD" height="1991.0566" style="stroke: #A80036; stroke-width: 1.0;" width="252" x="2461" y="4"/><text fill="#000000" font-family="sans-serif" font-size="13" font-weight="bold" lengthAdjust="spacingAndGlyphs" textLength="48" x="2563" y="16.5684">mac.dll</text><line style="stroke: #A80036; stroke-width: 1.0; stroke-dasharray: 5.0,5.0;" x1="89" x2="89" y1="58.7988" y2="1956.5684"/><line style="stroke: #A80036; stroke-width: 1.0; stroke-dasharray: 5.0,5.0;" x1="276" x2="276" y1="58.7988" y2="1956.5684"/><line style="stroke: #A80036; stroke-width: 1.0; stroke-dasharray: 5.0,5.0;" x1="470" x2="470" y1="58.7988" y2="1956.5684"/><line style="stroke: #A80036; stroke-width: 1.0; stroke-dasharray: 5.0,5.0;" x1="633.5" x2="633.5" y1="58.7988" y2="1956.5684"/><line style="stroke: #A80036; stroke-width: 1.0; stroke-dasharray: 5.0,5.0;" x1="788.5" x2="788.5" y1="58.7988" y2="1956.5684"/><line style="stroke: #A80036; stroke-width: 1.0; stroke-dasharray: 5.0,5.0;" x1="983" x2="983" y1="58.7988" y2="1956.5684"/><line style="stroke: #A80036; stroke-width: 1.0; stroke-dasharray: 5.0,5.0;" x1="1120" x2="1120" y1="58.7988" y2="1956.5684"/><line style="stroke: #A80036; stroke-width: 1.0; stroke-dasharray: 5.0,5.0;" x1="1240" x2="1240" y1="58.7988" y2="1956.5684"/><line style="stroke: #A80036; stroke-width: 1.0; stroke-dasharray: 5.0,5.0;" x1="1387" x2="1387" y1="58.7988" y2="1956.5684"/><line style="stroke: #A80036; stroke-width: 1.0; stroke-dasharray: 5.0,5.0;" x1="1536" x2="1536" y1="58.7988" y2="1956.5684"/><line style="stroke: #A80036; stroke-width: 1.0; stroke-dasharray: 5.0,5.0;" x1="1721" x2="1721" y1="58.7988" y2="1956.5684"/><line style="stroke: #A80036; stroke-width: 1.0; stroke-dasharray: 5.0,5.0;" x1="1906" x2="1906" y1="58.7988" y2="1956.5684"/><line style="stroke: #A80036; stroke-width: 1.0; stroke-dasharray: 5.0,5.0;" x1="2055" x2="2055" y1="58.7988" y2="1956.5684"/><line style="stroke: #A80036; stroke-width: 1.0; stroke-dasharray: 5.0,5.0;" x1="2217" x2="2217" y1="58.7988" y2="1956.5684"/><line style="stroke: #A80036; stroke-width: 1.0; stroke-dasharray: 5.0,5.0;" x1="2386" x2="2386" y1="58.7988" y2="1956.5684"/><line style="stroke: #A80036; stroke-width: 1.0; stroke-dasharray: 5.0,5.0;" x1="2499" x2="2499" y1="58.7988" y2="1956.5684"/><line style="stroke: #A80036; stroke-width: 1.0; stroke-dasharray: 5.0,5.0;" x1="2626" x2="2626" y1="58.7988" y2="1956.5684"/><rect fill="#FEFECE" filter="url(#f1)" height="30.4883" style="stroke: #A80036; stroke-width: 1.5;" width="159" x="8" y="23.3105"/><text fill="#000000" font-family="sans-serif" font-size="14" lengthAdjust="spacingAndGlyphs" textLength="145" x="15" y="43.8457">CMCHybridAudioMgr</text><rect fill="#FEFECE" filter="url(#f1)" height="30.4883" style="stroke: #A80036; stroke-width: 1.5;" width="159" x="8" y="1955.5684"/><text fill="#000000" font-family="sans-serif" font-size="14" lengthAdjust="spacingAndGlyphs" textLength="145" x="15" y="1976.1035">CMCHybridAudioMgr</text><rect fill="#FEFECE" filter="url(#f1)" height="30.4883" style="stroke: #A80036; stroke-width: 1.5;" width="186" x="181" y="23.3105"/><text fill="#000000" font-family="sans-serif" font-size="14" lengthAdjust="spacingAndGlyphs" textLength="172" x="188" y="43.8457">CSmAudioStatusWrapper</text><rect fill="#FEFECE" filter="url(#f1)" height="30.4883" style="stroke: #A80036; stroke-width: 1.5;" width="186" x="181" y="1955.5684"/><text fill="#000000" font-family="sans-serif" font-size="14" lengthAdjust="spacingAndGlyphs" textLength="172" x="188" y="1976.1035">CSmAudioStatusWrapper</text><rect fill="#FEFECE" filter="url(#f1)" height="30.4883" style="stroke: #A80036; stroke-width: 1.5;" width="174" x="381" y="23.3105"/><text fill="#000000" font-family="sans-serif" font-size="14" lengthAdjust="spacingAndGlyphs" textLength="160" x="388" y="43.8457">CSmAudioVoIPWrapper</text><rect fill="#FEFECE" filter="url(#f1)" height="30.4883" style="stroke: #A80036; stroke-width: 1.5;" width="174" x="381" y="1955.5684"/><text fill="#000000" font-family="sans-serif" font-size="14" lengthAdjust="spacingAndGlyphs" textLength="160" x="388" y="1976.1035">CSmAudioVoIPWrapper</text><rect fill="#FEFECE" filter="url(#f1)" height="30.4883" style="stroke: #A80036; stroke-width: 1.5;" width="123" x="570.5" y="23.3105"/><text fill="#000000" font-family="sans-serif" font-size="14" lengthAdjust="spacingAndGlyphs" textLength="109" x="577.5" y="43.8457">CPfwServiceMgr</text><rect fill="#FEFECE" filter="url(#f1)" height="30.4883" style="stroke: #A80036; stroke-width: 1.5;" width="123" x="570.5" y="1955.5684"/><text fill="#000000" font-family="sans-serif" font-size="14" lengthAdjust="spacingAndGlyphs" textLength="109" x="577.5" y="1976.1035">CPfwServiceMgr</text><rect fill="#FEFECE" filter="url(#f1)" height="30.4883" style="stroke: #A80036; stroke-width: 1.5;" width="158" x="707.5" y="23.3105"/><text fill="#000000" font-family="sans-serif" font-size="14" lengthAdjust="spacingAndGlyphs" textLength="144" x="714.5" y="43.8457">CSmHybridAudioMgr</text><rect fill="#FEFECE" filter="url(#f1)" height="30.4883" style="stroke: #A80036; stroke-width: 1.5;" width="158" x="707.5" y="1955.5684"/><text fill="#000000" font-family="sans-serif" font-size="14" lengthAdjust="spacingAndGlyphs" textLength="144" x="714.5" y="1976.1035">CSmHybridAudioMgr</text><rect fill="#FEFECE" filter="url(#f1)" height="30.4883" style="stroke: #A80036; stroke-width: 1.5;" width="165" x="899" y="23.3105"/><text fill="#000000" font-family="sans-serif" font-size="14" lengthAdjust="spacingAndGlyphs" textLength="151" x="906" y="43.8457">CPcmHybridAudioMgr</text><rect fill="#FEFECE" filter="url(#f1)" height="30.4883" style="stroke: #A80036; stroke-width: 1.5;" width="165" x="899" y="1955.5684"/><text fill="#000000" font-family="sans-serif" font-size="14" lengthAdjust="spacingAndGlyphs" textLength="151" x="906" y="1976.1035">CPcmHybridAudioMgr</text><rect fill="#FEFECE" filter="url(#f1)" height="30.4883" style="stroke: #A80036; stroke-width: 1.5;" width="80" x="1078" y="23.3105"/><text fill="#000000" font-family="sans-serif" font-size="14" lengthAdjust="spacingAndGlyphs" textLength="66" x="1085" y="43.8457">hybridAPI</text><rect fill="#FEFECE" filter="url(#f1)" height="30.4883" style="stroke: #A80036; stroke-width: 1.5;" width="80" x="1078" y="1955.5684"/><text fill="#000000" font-family="sans-serif" font-size="14" lengthAdjust="spacingAndGlyphs" textLength="66" x="1085" y="1976.1035">hybridAPI</text><rect fill="#FEFECE" filter="url(#f1)" height="30.4883" style="stroke: #A80036; stroke-width: 1.5;" width="132" x="1172" y="23.3105"/><text fill="#000000" font-family="sans-serif" font-size="14" lengthAdjust="spacingAndGlyphs" textLength="118" x="1179" y="43.8457">IHybridClientSink</text><rect fill="#FEFECE" filter="url(#f1)" height="30.4883" style="stroke: #A80036; stroke-width: 1.5;" width="132" x="1172" y="1955.5684"/><text fill="#000000" font-family="sans-serif" font-size="14" lengthAdjust="spacingAndGlyphs" textLength="118" x="1179" y="1976.1035">IHybridClientSink</text><rect fill="#FEFECE" filter="url(#f1)" height="30.4883" style="stroke: #A80036; stroke-width: 1.5;" width="134" x="1318" y="23.3105"/><text fill="#000000" font-family="sans-serif" font-size="14" lengthAdjust="spacingAndGlyphs" textLength="120" x="1325" y="43.8457">CHybridClientCtrl</text><rect fill="#FEFECE" filter="url(#f1)" height="30.4883" style="stroke: #A80036; stroke-width: 1.5;" width="134" x="1318" y="1955.5684"/><text fill="#000000" font-family="sans-serif" font-size="14" lengthAdjust="spacingAndGlyphs" textLength="120" x="1325" y="1976.1035">CHybridClientCtrl</text><rect fill="#FEFECE" filter="url(#f1)" height="30.4883" style="stroke: #A80036; stroke-width: 1.5;" width="136" x="1466" y="23.3105"/><text fill="#000000" font-family="sans-serif" font-size="14" lengthAdjust="spacingAndGlyphs" textLength="122" x="1473" y="43.8457">CHybridClientMgr</text><rect fill="#FEFECE" filter="url(#f1)" height="30.4883" style="stroke: #A80036; stroke-width: 1.5;" width="136" x="1466" y="1955.5684"/><text fill="#000000" font-family="sans-serif" font-size="14" lengthAdjust="spacingAndGlyphs" textLength="122" x="1473" y="1976.1035">CHybridClientMgr</text><rect fill="#FEFECE" filter="url(#f1)" height="30.4883" style="stroke: #A80036; stroke-width: 1.5;" width="132" x="1653" y="23.3105"/><text fill="#000000" font-family="sans-serif" font-size="14" lengthAdjust="spacingAndGlyphs" textLength="118" x="1660" y="43.8457">CHCCVoIPService</text><rect fill="#FEFECE" filter="url(#f1)" height="30.4883" style="stroke: #A80036; stroke-width: 1.5;" width="132" x="1653" y="1955.5684"/><text fill="#000000" font-family="sans-serif" font-size="14" lengthAdjust="spacingAndGlyphs" textLength="118" x="1660" y="1976.1035">CHCCVoIPService</text><rect fill="#FEFECE" filter="url(#f1)" height="30.4883" style="stroke: #A80036; stroke-width: 1.5;" width="150" x="1829" y="23.3105"/><text fill="#000000" font-family="sans-serif" font-size="14" lengthAdjust="spacingAndGlyphs" textLength="136" x="1836" y="43.8457">CHybridVoIPModule</text><rect fill="#FEFECE" filter="url(#f1)" height="30.4883" style="stroke: #A80036; stroke-width: 1.5;" width="150" x="1829" y="1955.5684"/><text fill="#000000" font-family="sans-serif" font-size="14" lengthAdjust="spacingAndGlyphs" textLength="136" x="1836" y="1976.1035">CHybridVoIPModule</text><rect fill="#FEFECE" filter="url(#f1)" height="30.4883" style="stroke: #A80036; stroke-width: 1.5;" width="121" x="1993" y="23.3105"/><text fill="#000000" font-family="sans-serif" font-size="14" lengthAdjust="spacingAndGlyphs" textLength="107" x="2000" y="43.8457">CJoinCommand</text><rect fill="#FEFECE" filter="url(#f1)" height="30.4883" style="stroke: #A80036; stroke-width: 1.5;" width="121" x="1993" y="1955.5684"/><text fill="#000000" font-family="sans-serif" font-size="14" lengthAdjust="spacingAndGlyphs" textLength="107" x="2000" y="1976.1035">CJoinCommand</text><rect fill="#FEFECE" filter="url(#f1)" height="30.4883" style="stroke: #A80036; stroke-width: 1.5;" width="175" x="2128" y="23.3105"/><text fill="#000000" font-family="sans-serif" font-size="14" lengthAdjust="spacingAndGlyphs" textLength="161" x="2135" y="43.8457">CHCCTelephoneService</text><rect fill="#FEFECE" filter="url(#f1)" height="30.4883" style="stroke: #A80036; stroke-width: 1.5;" width="175" x="2128" y="1955.5684"/><text fill="#000000" font-family="sans-serif" font-size="14" lengthAdjust="spacingAndGlyphs" textLength="161" x="2135" y="1976.1035">CHCCTelephoneService</text><rect fill="#FEFECE" filter="url(#f1)" height="30.4883" style="stroke: #A80036; stroke-width: 1.5;" width="134" x="2317" y="23.3105"/><text fill="#000000" font-family="sans-serif" font-size="14" lengthAdjust="spacingAndGlyphs" textLength="120" x="2324" y="43.8457">IDTAppClientSink</text><rect fill="#FEFECE" filter="url(#f1)" height="30.4883" style="stroke: #A80036; stroke-width: 1.5;" width="134" x="2317" y="1955.5684"/><text fill="#000000" font-family="sans-serif" font-size="14" lengthAdjust="spacingAndGlyphs" textLength="120" x="2324" y="1976.1035">IDTAppClientSink</text><rect fill="#FEFECE" filter="url(#f1)" height="30.4883" style="stroke: #A80036; stroke-width: 1.5;" width="64" x="2465" y="23.3105"/><text fill="#000000" font-family="sans-serif" font-size="14" lengthAdjust="spacingAndGlyphs" textLength="50" x="2472" y="43.8457">macAPI</text><rect fill="#FEFECE" filter="url(#f1)" height="30.4883" style="stroke: #A80036; stroke-width: 1.5;" width="64" x="2465" y="1955.5684"/><text fill="#000000" font-family="sans-serif" font-size="14" lengthAdjust="spacingAndGlyphs" textLength="50" x="2472" y="1976.1035">macAPI</text><rect fill="#FEFECE" filter="url(#f1)" height="30.4883" style="stroke: #A80036; stroke-width: 1.5;" width="162" x="2543" y="23.3105"/><text fill="#000000" font-family="sans-serif" font-size="14" lengthAdjust="spacingAndGlyphs" textLength="148" x="2550" y="43.8457">CMMHybridClientSink</text><rect fill="#FEFECE" filter="url(#f1)" height="30.4883" style="stroke: #A80036; stroke-width: 1.5;" width="162" x="2543" y="1955.5684"/><text fill="#000000" font-family="sans-serif" font-size="14" lengthAdjust="spacingAndGlyphs" textLength="148" x="2550" y="1976.1035">CMMHybridClientSink</text><rect fill="#FFFFFF" filter="url(#f1)" height="1037.3164" style="stroke: #A80036; stroke-width: 1.0;" width="10" x="465" y="162.4199"/><rect fill="#FFFFFF" filter="url(#f1)" height="897.0742" style="stroke: #A80036; stroke-width: 1.0;" width="10" x="783.5" y="268.3516"/><rect fill="#FFFFFF" filter="url(#f1)" height="215.1738" style="stroke: #A80036; stroke-width: 1.0;" width="10" x="788.5" y="310.6621"/><rect fill="#FFFFFF" filter="url(#f1)" height="514.6582" style="stroke: #A80036; stroke-width: 1.0;" width="10" x="788.5" y="650.7676"/><rect fill="#FFFFFF" filter="url(#f1)" height="348.1055" style="stroke: #A80036; stroke-width: 1.0;" width="10" x="2212.5" y="1583.1523"/><rect fill="#FFFFFF" filter="url(#f1)" height="270.4844" style="stroke: #A80036; stroke-width: 1.0;" width="10" x="2217.5" y="1620.4629"/><rect fill="#EEEEEE" filter="url(#f1)" height="3" style="stroke: #EEEEEE; stroke-width: 1.0;" width="2752" x="3" y="89.4541"/><line style="stroke: #000000; stroke-width: 1.0;" x1="3" x2="2755" y1="89.4541" y2="89.4541"/><line style="stroke: #000000; stroke-width: 1.0;" x1="3" x2="2755" y1="92.4541" y2="92.4541"/><rect fill="#EEEEEE" filter="url(#f1)" height="23.3105" style="stroke: #000000; stroke-width: 2.0;" width="209" x="1274.5" y="78.7988"/><text fill="#000000" font-family="sans-serif" font-size="13" font-weight="bold" lengthAdjust="spacingAndGlyphs" textLength="191" x="1280.5" y="95.3672">AUDIO_VOIP_DEVICE_MICOK</text><polygon fill="#A80036" points="264,129.1094,274,133.1094,264,137.1094,268,133.1094" style="stroke: #A80036; stroke-width: 1.0;"/><line style="stroke: #A80036; stroke-width: 1.0;" x1="3" x2="270" y1="133.1094" y2="133.1094"/><text fill="#000000" font-family="sans-serif" font-size="13" lengthAdjust="spacingAndGlyphs" textLength="51" x="10" y="128.6777">JoinVoIP</text><polygon fill="#A80036" points="453,158.4199,463,162.4199,453,166.4199,457,162.4199" style="stroke: #A80036; stroke-width: 1.0;"/><line style="stroke: #A80036; stroke-width: 1.0;" x1="276" x2="459" y1="162.4199" y2="162.4199"/><text fill="#000000" font-family="sans-serif" font-size="13" lengthAdjust="spacingAndGlyphs" textLength="51" x="283" y="157.9883">JoinVoIP</text><polygon fill="#A80036" points="622,192.7305,632,196.7305,622,200.7305,626,196.7305" style="stroke: #A80036; stroke-width: 1.0;"/><line style="stroke: #A80036; stroke-width: 1.0;" x1="475" x2="628" y1="196.7305" y2="196.7305"/><text fill="#000000" font-family="sans-serif" font-size="13" lengthAdjust="spacingAndGlyphs" textLength="135" x="482" y="192.2988">GetHybridSessionMgr</text><polygon fill="#FBFB77" filter="url(#f1)" points="639,175.7305,639,200.7305,791,200.7305,791,185.7305,781,175.7305,639,175.7305" style="stroke: #A80036; stroke-width: 1.0;"/><line style="stroke: #A80036; stroke-width: 1.0;" x1="781" x2="781" y1="175.7305" y2="185.7305"/><line style="stroke: #A80036; stroke-width: 1.0;" x1="791" x2="781" y1="185.7305" y2="185.7305"/><text fill="#000000" font-family="sans-serif" font-size="13" lengthAdjust="spacingAndGlyphs" textLength="131" x="645" y="193.2988">CSmHybridAudioMgr</text><polygon fill="#A80036" points="776.5,227.041,786.5,231.041,776.5,235.041,780.5,231.041" style="stroke: #A80036; stroke-width: 1.0;"/><line style="stroke: #A80036; stroke-width: 1.0;" x1="475" x2="782.5" y1="231.041" y2="231.041"/><text fill="#000000" font-family="sans-serif" font-size="13" lengthAdjust="spacingAndGlyphs" textLength="51" x="482" y="226.6094">JoinVoIP</text><line style="stroke: #A80036; stroke-width: 1.0;" x1="788.5" x2="835.5" y1="255.6621" y2="255.6621"/><line style="stroke: #A80036; stroke-width: 1.0;" x1="835.5" x2="835.5" y1="255.6621" y2="268.6621"/><line style="stroke: #A80036; stroke-width: 1.0;" x1="794.5" x2="835.5" y1="268.6621" y2="268.6621"/><polygon fill="#A80036" points="804.5,264.6621,794.5,268.6621,804.5,272.6621,800.5,268.6621" style="stroke: #A80036; stroke-width: 1.0;"/><text fill="#000000" font-family="sans-serif" font-size="13" lengthAdjust="spacingAndGlyphs" textLength="81" x="800.5" y="250.9199">JoinWithVOIP</text><line style="stroke: #A80036; stroke-width: 1.0;" x1="793.5" x2="840.5" y1="297.9727" y2="297.9727"/><line style="stroke: #A80036; stroke-width: 1.0;" x1="840.5" x2="840.5" y1="297.9727" y2="310.9727"/><line style="stroke: #A80036; stroke-width: 1.0;" x1="799.5" x2="840.5" y1="310.9727" y2="310.9727"/><polygon fill="#A80036" points="809.5,306.9727,799.5,310.9727,809.5,314.9727,805.5,310.9727" style="stroke: #A80036; stroke-width: 1.0;"/><text fill="#000000" font-family="sans-serif" font-size="13" lengthAdjust="spacingAndGlyphs" textLength="136" x="805.5" y="293.2305">IsAudioDeviceNormal</text><polygon fill="#A80036" points="971.5,340.9727,981.5,344.9727,971.5,348.9727,975.5,344.9727" style="stroke: #A80036; stroke-width: 1.0;"/><line style="stroke: #A80036; stroke-width: 1.0;" x1="798.5" x2="977.5" y1="344.9727" y2="344.9727"/><text fill="#000000" font-family="sans-serif" font-size="13" lengthAdjust="spacingAndGlyphs" textLength="161" x="805.5" y="340.541">IsAudioEquipmentNormal</text><polygon fill="#A80036" points="1108,370.2832,1118,374.2832,1108,378.2832,1112,374.2832" style="stroke: #A80036; stroke-width: 1.0;"/><line style="stroke: #A80036; stroke-width: 1.0;" x1="983.5" x2="1114" y1="374.2832" y2="374.2832"/><text fill="#000000" font-family="sans-serif" font-size="13" lengthAdjust="spacingAndGlyphs" textLength="94" x="990.5" y="369.8516">HCC_GetParam</text><polygon fill="#A80036" points="1375,399.5938,1385,403.5938,1375,407.5938,1379,403.5938" style="stroke: #A80036; stroke-width: 1.0;"/><line style="stroke: #A80036; stroke-width: 1.0;" x1="1120" x2="1381" y1="403.5938" y2="403.5938"/><text fill="#000000" font-family="sans-serif" font-size="13" lengthAdjust="spacingAndGlyphs" textLength="59" x="1127" y="399.1621">GetParam</text><polygon fill="#A80036" points="1524,428.9043,1534,432.9043,1524,436.9043,1528,432.9043" style="stroke: #A80036; stroke-width: 1.0;"/><line style="stroke: #A80036; stroke-width: 1.0;" x1="1387" x2="1530" y1="432.9043" y2="432.9043"/><text fill="#000000" font-family="sans-serif" font-size="13" lengthAdjust="spacingAndGlyphs" textLength="59" x="1394" y="428.4727">GetParam</text><polygon fill="#A80036" points="1709,458.2148,1719,462.2148,1709,466.2148,1713,462.2148" style="stroke: #A80036; stroke-width: 1.0;"/><line style="stroke: #A80036; stroke-width: 1.0;" x1="1536" x2="1715" y1="462.2148" y2="462.2148"/><text fill="#000000" font-family="sans-serif" font-size="13" lengthAdjust="spacingAndGlyphs" textLength="161" x="1543" y="457.7832">IsAudioEquipmentNormal</text><polygon fill="#A80036" points="1894,487.5254,1904,491.5254,1894,495.5254,1898,491.5254" style="stroke: #A80036; stroke-width: 1.0;"/><line style="stroke: #A80036; stroke-width: 1.0;" x1="1721" x2="1900" y1="491.5254" y2="491.5254"/><text fill="#000000" font-family="sans-serif" font-size="13" lengthAdjust="spacingAndGlyphs" textLength="161" x="1728" y="487.0938">IsAudioEquipmentNormal</text><polygon fill="#A80036" points="2487,521.8359,2497,525.8359,2487,529.8359,2491,525.8359" style="stroke: #A80036; stroke-width: 1.0;"/><line style="stroke: #A80036; stroke-width: 1.0;" x1="1906" x2="2493" y1="525.8359" y2="525.8359"/><text fill="#000000" font-family="sans-serif" font-size="13" lengthAdjust="spacingAndGlyphs" textLength="194" x="1913" y="521.4043">MmHIsAudioEquipmentNormal</text><polygon fill="#FBFB77" filter="url(#f1)" points="2504,504.8359,2504,529.8359,2711,529.8359,2711,514.8359,2701,504.8359,2504,504.8359" style="stroke: #A80036; stroke-width: 1.0;"/><line style="stroke: #A80036; stroke-width: 1.0;" x1="2701" x2="2701" y1="504.8359" y2="514.8359"/><line style="stroke: #A80036; stroke-width: 1.0;" x1="2711" x2="2701" y1="514.8359" y2="514.8359"/><text fill="#000000" font-family="sans-serif" font-size="13" lengthAdjust="spacingAndGlyphs" textLength="186" x="2510" y="522.4043">HCC_PARAM_DEVICE_STATUS</text><polygon fill="#A80036" points="486,561.1465,476,565.1465,486,569.1465,482,565.1465" style="stroke: #A80036; stroke-width: 1.0;"/><line style="stroke: #A80036; stroke-width: 1.0;" x1="480" x2="782.5" y1="565.1465" y2="565.1465"/><text fill="#000000" font-family="sans-serif" font-size="13" lengthAdjust="spacingAndGlyphs" textLength="139" x="492" y="560.7148">OnVoIPStatusChanged</text><polygon fill="#FBFB77" filter="url(#f1)" points="798,544.1465,798,569.1465,998,569.1465,998,554.1465,988,544.1465,798,544.1465" style="stroke: #A80036; stroke-width: 1.0;"/><line style="stroke: #A80036; stroke-width: 1.0;" x1="988" x2="988" y1="544.1465" y2="554.1465"/><line style="stroke: #A80036; stroke-width: 1.0;" x1="998" x2="988" y1="554.1465" y2="554.1465"/><text fill="#000000" font-family="sans-serif" font-size="13" lengthAdjust="spacingAndGlyphs" textLength="179" x="804" y="561.7148">AUDIO_VOIP_DEVICE_MICOK</text><rect fill="#EEEEEE" filter="url(#f1)" height="3" style="stroke: #EEEEEE; stroke-width: 1.0;" width="2752" x="3" y="599.1123"/><line style="stroke: #000000; stroke-width: 1.0;" x1="3" x2="2755" y1="599.1123" y2="599.1123"/><line style="stroke: #000000; stroke-width: 1.0;" x1="3" x2="2755" y1="602.1123" y2="602.1123"/><rect fill="#EEEEEE" filter="url(#f1)" height="23.3105" style="stroke: #000000; stroke-width: 2.0;" width="199" x="1279.5" y="588.457"/><text fill="#000000" font-family="sans-serif" font-size="13" font-weight="bold" lengthAdjust="spacingAndGlyphs" textLength="181" x="1285.5" y="605.0254">AUDIO_VOIP_CONNECTING</text><line style="stroke: #A80036; stroke-width: 1.0;" x1="793.5" x2="840.5" y1="638.0781" y2="638.0781"/><line style="stroke: #A80036; stroke-width: 1.0;" x1="840.5" x2="840.5" y1="638.0781" y2="651.0781"/><line style="stroke: #A80036; stroke-width: 1.0;" x1="799.5" x2="840.5" y1="651.0781" y2="651.0781"/><polygon fill="#A80036" points="809.5,647.0781,799.5,651.0781,809.5,655.0781,805.5,651.0781" style="stroke: #A80036; stroke-width: 1.0;"/><text fill="#000000" font-family="sans-serif" font-size="13" lengthAdjust="spacingAndGlyphs" textLength="138" x="805.5" y="633.3359">ContinueJoinWithVOIP</text><line style="stroke: #A80036; stroke-width: 1.0;" x1="798.5" x2="840.5" y1="685.3887" y2="685.3887"/><line style="stroke: #A80036; stroke-width: 1.0;" x1="840.5" x2="840.5" y1="685.3887" y2="698.3887"/><line style="stroke: #A80036; stroke-width: 1.0;" x1="799.5" x2="840.5" y1="698.3887" y2="698.3887"/><polygon fill="#A80036" points="809.5,694.3887,799.5,698.3887,809.5,702.3887,805.5,698.3887" style="stroke: #A80036; stroke-width: 1.0;"/><text fill="#000000" font-family="sans-serif" font-size="13" lengthAdjust="spacingAndGlyphs" textLength="111" x="805.5" y="680.6465">GetHybridSession</text><line style="stroke: #A80036; stroke-width: 1.0;" x1="798.5" x2="840.5" y1="727.6992" y2="727.6992"/><line style="stroke: #A80036; stroke-width: 1.0;" x1="840.5" x2="840.5" y1="727.6992" y2="740.6992"/><line style="stroke: #A80036; stroke-width: 1.0;" x1="799.5" x2="840.5" y1="740.6992" y2="740.6992"/><polygon fill="#A80036" points="809.5,736.6992,799.5,740.6992,809.5,744.6992,805.5,740.6992" style="stroke: #A80036; stroke-width: 1.0;"/><text fill="#000000" font-family="sans-serif" font-size="13" lengthAdjust="spacingAndGlyphs" textLength="130" x="805.5" y="722.957">InitVoipUserJoinData</text><polygon fill="#A80036" points="971.5,765.6992,981.5,769.6992,971.5,773.6992,975.5,769.6992" style="stroke: #A80036; stroke-width: 1.0;"/><line style="stroke: #A80036; stroke-width: 1.0;" x1="798.5" x2="977.5" y1="769.6992" y2="769.6992"/><text fill="#000000" font-family="sans-serif" font-size="13" lengthAdjust="spacingAndGlyphs" textLength="95" x="805.5" y="765.2676">JoinConference</text><polygon fill="#A80036" points="1108,795.0098,1118,799.0098,1108,803.0098,1112,799.0098" style="stroke: #A80036; stroke-width: 1.0;"/><line style="stroke: #A80036; stroke-width: 1.0;" x1="983.5" x2="1114" y1="799.0098" y2="799.0098"/><text fill="#000000" font-family="sans-serif" font-size="13" lengthAdjust="spacingAndGlyphs" textLength="99" x="990.5" y="794.5781">HCC_Command</text><polygon fill="#A80036" points="1375,824.3203,1385,828.3203,1375,832.3203,1379,828.3203" style="stroke: #A80036; stroke-width: 1.0;"/><line style="stroke: #A80036; stroke-width: 1.0;" x1="1120" x2="1381" y1="828.3203" y2="828.3203"/><text fill="#000000" font-family="sans-serif" font-size="13" lengthAdjust="spacingAndGlyphs" textLength="120" x="1127" y="823.8887">DispatchCommand</text><polygon fill="#A80036" points="1524,853.6309,1534,857.6309,1524,861.6309,1528,857.6309" style="stroke: #A80036; stroke-width: 1.0;"/><line style="stroke: #A80036; stroke-width: 1.0;" x1="1387" x2="1530" y1="857.6309" y2="857.6309"/><text fill="#000000" font-family="sans-serif" font-size="13" lengthAdjust="spacingAndGlyphs" textLength="120" x="1394" y="853.1992">DispatchCommand</text><line style="stroke: #A80036; stroke-width: 1.0;" x1="1536" x2="1578" y1="887.252" y2="887.252"/><line style="stroke: #A80036; stroke-width: 1.0;" x1="1578" x2="1578" y1="887.252" y2="900.252"/><line style="stroke: #A80036; stroke-width: 1.0;" x1="1537" x2="1578" y1="900.252" y2="900.252"/><polygon fill="#A80036" points="1547,896.252,1537,900.252,1547,904.252,1543,900.252" style="stroke: #A80036; stroke-width: 1.0;"/><text fill="#000000" font-family="sans-serif" font-size="13" lengthAdjust="spacingAndGlyphs" textLength="104" x="1543" y="882.5098">CreateCommand</text><polygon fill="#FBFB77" filter="url(#f1)" points="1659,872.4414,1659,897.4414,1777,897.4414,1777,882.4414,1767,872.4414,1659,872.4414" style="stroke: #A80036; stroke-width: 1.0;"/><line style="stroke: #A80036; stroke-width: 1.0;" x1="1767" x2="1767" y1="872.4414" y2="882.4414"/><line style="stroke: #A80036; stroke-width: 1.0;" x1="1777" x2="1767" y1="882.4414" y2="882.4414"/><text fill="#000000" font-family="sans-serif" font-size="13" lengthAdjust="spacingAndGlyphs" textLength="97" x="1665" y="890.0098">CJoinCommand</text><polygon fill="#A80036" points="2043.5,925.252,2053.5,929.252,2043.5,933.252,2047.5,929.252" style="stroke: #A80036; stroke-width: 1.0;"/><line style="stroke: #A80036; stroke-width: 1.0;" x1="1536" x2="2049.5" y1="929.252" y2="929.252"/><text fill="#000000" font-family="sans-serif" font-size="13" lengthAdjust="spacingAndGlyphs" textLength="49" x="1543" y="924.8203">Execute</text><polygon fill="#A80036" points="2205.5,954.5625,2215.5,958.5625,2205.5,962.5625,2209.5,958.5625" style="stroke: #A80036; stroke-width: 1.0;"/><line style="stroke: #A80036; stroke-width: 1.0;" x1="2055.5" x2="2211.5" y1="958.5625" y2="958.5625"/><text fill="#000000" font-family="sans-serif" font-size="13" lengthAdjust="spacingAndGlyphs" textLength="72" x="2062.5" y="954.1309">JoinSession</text><line style="stroke: #A80036; stroke-width: 1.0;" x1="2217.5" x2="2259.5" y1="988.1836" y2="988.1836"/><line style="stroke: #A80036; stroke-width: 1.0;" x1="2259.5" x2="2259.5" y1="988.1836" y2="1001.1836"/><line style="stroke: #A80036; stroke-width: 1.0;" x1="2218.5" x2="2259.5" y1="1001.1836" y2="1001.1836"/><polygon fill="#A80036" points="2228.5,997.1836,2218.5,1001.1836,2228.5,1005.1836,2224.5,1001.1836" style="stroke: #A80036; stroke-width: 1.0;"/><text fill="#000000" font-family="sans-serif" font-size="13" lengthAdjust="spacingAndGlyphs" textLength="84" x="2224.5" y="983.4414">GetSuccessor</text><polygon fill="#FBFB77" filter="url(#f1)" points="2320,973.373,2320,998.373,2474,998.373,2474,983.373,2464,973.373,2320,973.373" style="stroke: #A80036; stroke-width: 1.0;"/><line style="stroke: #A80036; stroke-width: 1.0;" x1="2464" x2="2464" y1="973.373" y2="983.373"/><line style="stroke: #A80036; stroke-width: 1.0;" x1="2474" x2="2464" y1="983.373" y2="983.373"/><text fill="#000000" font-family="sans-serif" font-size="13" lengthAdjust="spacingAndGlyphs" textLength="133" x="2326" y="990.9414">Get CHCCVoIPService</text><polygon fill="#A80036" points="1732,1026.1836,1722,1030.1836,1732,1034.1836,1728,1030.1836" style="stroke: #A80036; stroke-width: 1.0;"/><line style="stroke: #A80036; stroke-width: 1.0;" x1="1726" x2="2216.5" y1="1030.1836" y2="1030.1836"/><text fill="#000000" font-family="sans-serif" font-size="13" lengthAdjust="spacingAndGlyphs" textLength="72" x="1738" y="1025.752">JoinSession</text><polygon fill="#A80036" points="1894,1055.4941,1904,1059.4941,1894,1063.4941,1898,1059.4941" style="stroke: #A80036; stroke-width: 1.0;"/><line style="stroke: #A80036; stroke-width: 1.0;" x1="1721" x2="1900" y1="1059.4941" y2="1059.4941"/><text fill="#000000" font-family="sans-serif" font-size="13" lengthAdjust="spacingAndGlyphs" textLength="84" x="1728" y="1055.0625">EnrollSession</text><line style="stroke: #A80036; stroke-width: 1.0;" x1="1906" x2="1948" y1="1089.1152" y2="1089.1152"/><line style="stroke: #A80036; stroke-width: 1.0;" x1="1948" x2="1948" y1="1089.1152" y2="1102.1152"/><line style="stroke: #A80036; stroke-width: 1.0;" x1="1907" x2="1948" y1="1102.1152" y2="1102.1152"/><polygon fill="#A80036" points="1917,1098.1152,1907,1102.1152,1917,1106.1152,1913,1102.1152" style="stroke: #A80036; stroke-width: 1.0;"/><text fill="#000000" font-family="sans-serif" font-size="13" lengthAdjust="spacingAndGlyphs" textLength="66" x="1913" y="1084.373">StartAudio</text><polygon fill="#A80036" points="2487,1127.1152,2497,1131.1152,2487,1135.1152,2491,1131.1152" style="stroke: #A80036; stroke-width: 1.0;"/><line style="stroke: #A80036; stroke-width: 1.0;" x1="1906" x2="2493" y1="1131.1152" y2="1131.1152"/><text fill="#000000" font-family="sans-serif" font-size="13" lengthAdjust="spacingAndGlyphs" textLength="99" x="1913" y="1126.6836">MmHStartAudio</text><polygon fill="#A80036" points="486,1161.4258,476,1165.4258,486,1169.4258,482,1165.4258" style="stroke: #A80036; stroke-width: 1.0;"/><line style="stroke: #A80036; stroke-width: 1.0;" x1="480" x2="787.5" y1="1165.4258" y2="1165.4258"/><text fill="#000000" font-family="sans-serif" font-size="13" lengthAdjust="spacingAndGlyphs" textLength="139" x="492" y="1160.9941">OnVoIPStatusChanged</text><polygon fill="#FBFB77" filter="url(#f1)" points="803,1144.4258,803,1169.4258,1129,1169.4258,1129,1154.4258,1119,1144.4258,803,1144.4258" style="stroke: #A80036; stroke-width: 1.0;"/><line style="stroke: #A80036; stroke-width: 1.0;" x1="1119" x2="1119" y1="1144.4258" y2="1154.4258"/><line style="stroke: #A80036; stroke-width: 1.0;" x1="1129" x2="1119" y1="1154.4258" y2="1154.4258"/><text fill="#000000" font-family="sans-serif" font-size="13" lengthAdjust="spacingAndGlyphs" textLength="305" x="809" y="1161.9941">AUDIO_VOIP_CONNECTING, Show Connecting UI</text><polygon fill="#A80036" points="776.5,1195.7363,786.5,1199.7363,776.5,1203.7363,780.5,1199.7363" style="stroke: #A80036; stroke-width: 1.0;"/><line style="stroke: #A80036; stroke-width: 1.0;" x1="470" x2="782.5" y1="1199.7363" y2="1199.7363"/><text fill="#000000" font-family="sans-serif" font-size="13" lengthAdjust="spacingAndGlyphs" textLength="100" x="477" y="1195.3047">UpdateQSStatus</text><rect fill="#EEEEEE" filter="url(#f1)" height="3" style="stroke: #EEEEEE; stroke-width: 1.0;" width="2752" x="3" y="1228.7021"/><line style="stroke: #000000; stroke-width: 1.0;" x1="3" x2="2755" y1="1228.7021" y2="1228.7021"/><line style="stroke: #000000; stroke-width: 1.0;" x1="3" x2="2755" y1="1231.7021" y2="1231.7021"/><rect fill="#EEEEEE" filter="url(#f1)" height="23.3105" style="stroke: #000000; stroke-width: 2.0;" width="171" x="1293.5" y="1218.0469"/><text fill="#000000" font-family="sans-serif" font-size="13" font-weight="bold" lengthAdjust="spacingAndGlyphs" textLength="153" x="1299.5" y="1234.6152">AUDIO_VOIP_STARTED</text><polygon fill="#A80036" points="2637,1273.3574,2627,1277.3574,2637,1281.3574,2633,1277.3574" style="stroke: #A80036; stroke-width: 1.0;"/><line style="stroke: #A80036; stroke-width: 1.0;" x1="2631" x2="2754" y1="1277.3574" y2="1277.3574"/><text fill="#000000" font-family="sans-serif" font-size="13" lengthAdjust="spacingAndGlyphs" textLength="105" x="2643" y="1272.9258">OnSessionStatus</text><polygon fill="#FBFB77" filter="url(#f1)" points="2382,1256.3574,2382,1281.3574,2617,1281.3574,2617,1266.3574,2607,1256.3574,2382,1256.3574" style="stroke: #A80036; stroke-width: 1.0;"/><line style="stroke: #A80036; stroke-width: 1.0;" x1="2607" x2="2607" y1="1256.3574" y2="1266.3574"/><line style="stroke: #A80036; stroke-width: 1.0;" x1="2617" x2="2607" y1="1266.3574" y2="1266.3574"/><text fill="#000000" font-family="sans-serif" font-size="13" lengthAdjust="spacingAndGlyphs" textLength="214" x="2388" y="1273.9258">WEBEX_AUDIO_SESSION_CONFIRM</text><polygon fill="#A80036" points="1732,1307.668,1722,1311.668,1732,1315.668,1728,1311.668" style="stroke: #A80036; stroke-width: 1.0;"/><line style="stroke: #A80036; stroke-width: 1.0;" x1="1726" x2="2625" y1="1311.668" y2="1311.668"/><text fill="#000000" font-family="sans-serif" font-size="13" lengthAdjust="spacingAndGlyphs" textLength="105" x="1738" y="1307.2363">OnSessionStatus</text><line style="stroke: #A80036; stroke-width: 1.0;" x1="1721" x2="1763" y1="1341.2891" y2="1341.2891"/><line style="stroke: #A80036; stroke-width: 1.0;" x1="1763" x2="1763" y1="1341.2891" y2="1354.2891"/><line style="stroke: #A80036; stroke-width: 1.0;" x1="1722" x2="1763" y1="1354.2891" y2="1354.2891"/><polygon fill="#A80036" points="1732,1350.2891,1722,1354.2891,1732,1358.2891,1728,1354.2891" style="stroke: #A80036; stroke-width: 1.0;"/><text fill="#000000" font-family="sans-serif" font-size="13" lengthAdjust="spacingAndGlyphs" textLength="160" x="1728" y="1336.5469">OnVoIPUserEnrollConfirm</text><polygon fill="#A80036" points="1547,1379.2891,1537,1383.2891,1547,1387.2891,1543,1383.2891" style="stroke: #A80036; stroke-width: 1.0;"/><line style="stroke: #A80036; stroke-width: 1.0;" x1="1541" x2="1720" y1="1383.2891" y2="1383.2891"/><text fill="#000000" font-family="sans-serif" font-size="13" lengthAdjust="spacingAndGlyphs" textLength="85" x="1553" y="1378.8574">InfoToService</text><polygon fill="#A80036" points="1251,1408.5996,1241,1412.5996,1251,1416.5996,1247,1412.5996" style="stroke: #A80036; stroke-width: 1.0;"/><line style="stroke: #A80036; stroke-width: 1.0;" x1="1245" x2="1535" y1="1412.5996" y2="1412.5996"/><text fill="#000000" font-family="sans-serif" font-size="13" lengthAdjust="spacingAndGlyphs" textLength="153" x="1257" y="1408.168">OnInfoChangeIndication</text><polygon fill="#A80036" points="799.5,1442.9102,789.5,1446.9102,799.5,1450.9102,795.5,1446.9102" style="stroke: #A80036; stroke-width: 1.0;"/><line style="stroke: #A80036; stroke-width: 1.0;" x1="793.5" x2="1239" y1="1446.9102" y2="1446.9102"/><text fill="#000000" font-family="sans-serif" font-size="13" lengthAdjust="spacingAndGlyphs" textLength="153" x="805.5" y="1442.4785">OnInfoChangeIndication</text><polygon fill="#FBFB77" filter="url(#f1)" points="1245,1425.9102,1245,1450.9102,1449,1450.9102,1449,1435.9102,1439,1425.9102,1245,1425.9102" style="stroke: #A80036; stroke-width: 1.0;"/><line style="stroke: #A80036; stroke-width: 1.0;" x1="1439" x2="1439" y1="1425.9102" y2="1435.9102"/><line style="stroke: #A80036; stroke-width: 1.0;" x1="1449" x2="1439" y1="1435.9102" y2="1435.9102"/><text fill="#000000" font-family="sans-serif" font-size="13" lengthAdjust="spacingAndGlyphs" textLength="183" x="1251" y="1443.4785">HCC_INFO_VOIP_ENROLL_OK</text><polygon fill="#A80036" points="481,1477.2207,471,1481.2207,481,1485.2207,477,1481.2207" style="stroke: #A80036; stroke-width: 1.0;"/><line style="stroke: #A80036; stroke-width: 1.0;" x1="475" x2="787.5" y1="1481.2207" y2="1481.2207"/><text fill="#000000" font-family="sans-serif" font-size="13" lengthAdjust="spacingAndGlyphs" textLength="139" x="487" y="1476.7891">OnVoIPStatusChanged</text><rect fill="#EEEEEE" filter="url(#f1)" height="3" style="stroke: #EEEEEE; stroke-width: 1.0;" width="2752" x="3" y="1510.1865"/><line style="stroke: #000000; stroke-width: 1.0;" x1="3" x2="2755" y1="1510.1865" y2="1510.1865"/><line style="stroke: #000000; stroke-width: 1.0;" x1="3" x2="2755" y1="1513.1865" y2="1513.1865"/><rect fill="#EEEEEE" filter="url(#f1)" height="23.3105" style="stroke: #000000; stroke-width: 2.0;" width="193" x="1282.5" y="1499.5313"/><text fill="#000000" font-family="sans-serif" font-size="13" font-weight="bold" lengthAdjust="spacingAndGlyphs" textLength="175" x="1288.5" y="1516.0996">AUDIO_VOIP_CONNECTED</text><polygon fill="#A80036" points="2397,1549.8418,2387,1553.8418,2397,1557.8418,2393,1553.8418" style="stroke: #A80036; stroke-width: 1.0;"/><line style="stroke: #A80036; stroke-width: 1.0;" x1="2391" x2="2754" y1="1553.8418" y2="1553.8418"/><text fill="#000000" font-family="sans-serif" font-size="13" lengthAdjust="spacingAndGlyphs" textLength="97" x="2403" y="1549.4102">OnVoIPUserJoin</text><polygon fill="#A80036" points="2233.5,1579.1523,2223.5,1583.1523,2233.5,1587.1523,2229.5,1583.1523" style="stroke: #A80036; stroke-width: 1.0;"/><line style="stroke: #A80036; stroke-width: 1.0;" x1="2227.5" x2="2385" y1="1583.1523" y2="1583.1523"/><text fill="#000000" font-family="sans-serif" font-size="13" lengthAdjust="spacingAndGlyphs" textLength="97" x="2239.5" y="1578.7207">OnVoIPUserJoin</text><line style="stroke: #A80036; stroke-width: 1.0;" x1="2222.5" x2="2269.5" y1="1607.7734" y2="1607.7734"/><line style="stroke: #A80036; stroke-width: 1.0;" x1="2269.5" x2="2269.5" y1="1607.7734" y2="1620.7734"/><line style="stroke: #A80036; stroke-width: 1.0;" x1="2228.5" x2="2269.5" y1="1620.7734" y2="1620.7734"/><polygon fill="#A80036" points="2238.5,1616.7734,2228.5,1620.7734,2238.5,1624.7734,2234.5,1620.7734" style="stroke: #A80036; stroke-width: 1.0;"/><text fill="#000000" font-family="sans-serif" font-size="13" lengthAdjust="spacingAndGlyphs" textLength="100" x="2234.5" y="1603.0313">RosterToService</text><line style="stroke: #A80036; stroke-width: 1.0;" x1="2227.5" x2="2269.5" y1="1655.084" y2="1655.084"/><line style="stroke: #A80036; stroke-width: 1.0;" x1="2269.5" x2="2269.5" y1="1655.084" y2="1668.084"/><line style="stroke: #A80036; stroke-width: 1.0;" x1="2228.5" x2="2269.5" y1="1668.084" y2="1668.084"/><polygon fill="#A80036" points="2238.5,1664.084,2228.5,1668.084,2238.5,1672.084,2234.5,1668.084" style="stroke: #A80036; stroke-width: 1.0;"/><text fill="#000000" font-family="sans-serif" font-size="13" lengthAdjust="spacingAndGlyphs" textLength="90" x="2234.5" y="1650.3418">GetHybridSink</text><polygon fill="#A80036" points="1251,1693.084,1241,1697.084,1251,1701.084,1247,1697.084" style="stroke: #A80036; stroke-width: 1.0;"/><line style="stroke: #A80036; stroke-width: 1.0;" x1="1245" x2="2216.5" y1="1697.084" y2="1697.084"/><text fill="#000000" font-family="sans-serif" font-size="13" lengthAdjust="spacingAndGlyphs" textLength="113" x="1257" y="1692.6523">OnRosterChanged</text><polygon fill="#A80036" points="100.5,1722.3945,90.5,1726.3945,100.5,1730.3945,96.5,1726.3945" style="stroke: #A80036; stroke-width: 1.0;"/><line style="stroke: #A80036; stroke-width: 1.0;" x1="94.5" x2="1239" y1="1726.3945" y2="1726.3945"/><text fill="#000000" font-family="sans-serif" font-size="13" lengthAdjust="spacingAndGlyphs" textLength="113" x="106.5" y="1721.9629">OnRosterChanged</text><polygon fill="#A80036" points="776.5,1751.7051,786.5,1755.7051,776.5,1759.7051,780.5,1755.7051" style="stroke: #A80036; stroke-width: 1.0;"/><line style="stroke: #A80036; stroke-width: 1.0;" x1="89.5" x2="782.5" y1="1755.7051" y2="1755.7051"/><text fill="#000000" font-family="sans-serif" font-size="13" lengthAdjust="spacingAndGlyphs" textLength="113" x="96.5" y="1751.2734">OnRosterChanged</text><polygon fill="#A80036" points="100.5,1781.0156,90.5,1785.0156,100.5,1789.0156,96.5,1785.0156" style="stroke: #A80036; stroke-width: 1.0;"/><line style="stroke: #A80036; stroke-width: 1.0;" x1="94.5" x2="787.5" y1="1785.0156" y2="1785.0156"/><text fill="#000000" font-family="sans-serif" font-size="13" lengthAdjust="spacingAndGlyphs" textLength="71" x="106.5" y="1780.584">OnAddUser</text><polygon fill="#A80036" points="776.5,1810.3262,786.5,1814.3262,776.5,1818.3262,780.5,1814.3262" style="stroke: #A80036; stroke-width: 1.0;"/><line style="stroke: #A80036; stroke-width: 1.0;" x1="89.5" x2="782.5" y1="1814.3262" y2="1814.3262"/><text fill="#000000" font-family="sans-serif" font-size="13" lengthAdjust="spacingAndGlyphs" textLength="71" x="96.5" y="1809.8945">OnAddUser</text><line style="stroke: #A80036; stroke-width: 1.0;" x1="788.5" x2="830.5" y1="1843.9473" y2="1843.9473"/><line style="stroke: #A80036; stroke-width: 1.0;" x1="830.5" x2="830.5" y1="1843.9473" y2="1856.9473"/><line style="stroke: #A80036; stroke-width: 1.0;" x1="789.5" x2="830.5" y1="1856.9473" y2="1856.9473"/><polygon fill="#A80036" points="799.5,1852.9473,789.5,1856.9473,799.5,1860.9473,795.5,1856.9473" style="stroke: #A80036; stroke-width: 1.0;"/><text fill="#000000" font-family="sans-serif" font-size="13" lengthAdjust="spacingAndGlyphs" textLength="100" x="795.5" y="1839.2051">OnAddVOIPUser</text><polygon fill="#A80036" points="481,1886.9473,471,1890.9473,481,1894.9473,477,1890.9473" style="stroke: #A80036; stroke-width: 1.0;"/><line style="stroke: #A80036; stroke-width: 1.0;" x1="475" x2="787.5" y1="1890.9473" y2="1890.9473"/><text fill="#000000" font-family="sans-serif" font-size="13" lengthAdjust="spacingAndGlyphs" textLength="139" x="487" y="1886.5156">OnVoIPStatusChanged</text><polygon fill="#FBFB77" filter="url(#f1)" points="793,1869.9473,793,1894.9473,979,1894.9473,979,1879.9473,969,1869.9473,793,1869.9473" style="stroke: #A80036; stroke-width: 1.0;"/><line style="stroke: #A80036; stroke-width: 1.0;" x1="969" x2="969" y1="1869.9473" y2="1879.9473"/><line style="stroke: #A80036; stroke-width: 1.0;" x1="979" x2="969" y1="1879.9473" y2="1879.9473"/><text fill="#000000" font-family="sans-serif" font-size="13" lengthAdjust="spacingAndGlyphs" textLength="165" x="799" y="1887.5156">AUDIO_VOIP_CONNECTED</text><line style="stroke: #A80036; stroke-width: 1.0;" x1="2222.5" x2="2264.5" y1="1930.5684" y2="1930.5684"/><line style="stroke: #A80036; stroke-width: 1.0;" x1="2264.5" x2="2264.5" y1="1930.5684" y2="1943.5684"/><line style="stroke: #A80036; stroke-width: 1.0;" x1="2217.5" x2="2264.5" y1="1943.5684" y2="1943.5684"/><polygon fill="#A80036" points="2227.5,1939.5684,2217.5,1943.5684,2227.5,1947.5684,2223.5,1943.5684" style="stroke: #A80036; stroke-width: 1.0;"/><text fill="#000000" font-family="sans-serif" font-size="13" lengthAdjust="spacingAndGlyphs" textLength="118" x="2229.5" y="1925.8262">SynchToTelephone</text></g></svg>