<?xml version="1.0" encoding="UTF-8" standalone="yes"?><svg xmlns="http://www.w3.org/2000/svg" xmlns:xlink="http://www.w3.org/1999/xlink" height="1437pt" style="width:1864px;height:1437px;" version="1.1" viewBox="0 0 1864 1437" width="1864pt"><defs><filter height="300%" id="f1" width="300%" x="-1" y="-1"><feGaussianBlur result="blurOut" stdDeviation="2.0"/><feColorMatrix in="blurOut" result="blurOut2" type="matrix" values="0 0 0 0 0 0 0 0 0 0 0 0 0 0 0 0 0 0 .4 0"/><feOffset dx="4.0" dy="4.0" in="blurOut2" result="blurOut3"/><feBlend in="SourceGraphic" in2="blurOut3" mode="normal"/></filter></defs><g><polygon fill="#FFFFFF" filter="url(#f1)" points="488,275,559,275,566,297.4883,1286,297.4883,1286,1344,488,1344,488,275" style="stroke: #000000; stroke-width: 2.0;"/><line style="stroke: #000000; stroke-width: 2.0;" x1="488" x2="566" y1="297.4883" y2="297.4883"/><text fill="#000000" font-family="sans-serif" font-size="14" font-weight="bold" lengthAdjust="spacingAndGlyphs" textLength="65" x="492" y="290.5352">ptUpdate</text><polygon fill="#FFFFFF" filter="url(#f1)" points="339,275,403,275,410,297.4883,475,297.4883,475,344,339,344,339,275" style="stroke: #000000; stroke-width: 2.0;"/><line style="stroke: #000000; stroke-width: 2.0;" x1="339" x2="410" y1="297.4883" y2="297.4883"/><text fill="#000000" font-family="sans-serif" font-size="14" font-weight="bold" lengthAdjust="spacingAndGlyphs" textLength="58" x="343" y="290.5352">ptONIUI</text><polygon fill="#FFFFFF" filter="url(#f1)" points="1294,16,1348,16,1355,38.4883,1679,38.4883,1679,441,1294,441,1294,16" style="stroke: #000000; stroke-width: 2.0;"/><line style="stroke: #000000; stroke-width: 2.0;" x1="1294" x2="1355" y1="38.4883" y2="38.4883"/><text fill="#000000" font-family="sans-serif" font-size="14" font-weight="bold" lengthAdjust="spacingAndGlyphs" textLength="48" x="1298" y="31.5352">ptFunc</text><polygon fill="#FFFFFF" filter="url(#f1)" points="1446,776,1517,776,1524,798.4883,1527,798.4883,1527,845,1446,845,1446,776" style="stroke: #000000; stroke-width: 2.0;"/><line style="stroke: #000000; stroke-width: 2.0;" x1="1446" x2="1524" y1="798.4883" y2="798.4883"/><text fill="#000000" font-family="sans-serif" font-size="14" font-weight="bold" lengthAdjust="spacingAndGlyphs" textLength="65" x="1450" y="791.5352">ptService</text><polygon fill="#FFFFFF" filter="url(#f1)" points="14,1162,111,1162,118,1184.4883,480,1184.4883,480,1430,14,1430,14,1162" style="stroke: #000000; stroke-width: 2.0;"/><line style="stroke: #000000; stroke-width: 2.0;" x1="14" x2="118" y1="1184.4883" y2="1184.4883"/><text fill="#000000" font-family="sans-serif" font-size="14" font-weight="bold" lengthAdjust="spacingAndGlyphs" textLength="91" x="18" y="1177.5352">ptWBXOIURL</text><ellipse cx="1185" cy="311" fill="#FEFECE" filter="url(#f1)" rx="8" ry="8" style="stroke: #A80036; stroke-width: 2.0;"/><text fill="#000000" font-family="sans-serif" font-size="14" lengthAdjust="spacingAndGlyphs" textLength="101" x="1134.5" y="333.5352">/CheckVersion</text><rect fill="#FEFECE" filter="url(#f1)" height="36.4883" style="stroke: #A80036; stroke-width: 1.5;" width="197" x="801.5" y="510"/><rect fill="#FEFECE" height="5" style="stroke: #A80036; stroke-width: 1.5;" width="10" x="796.5" y="515"/><rect fill="#FEFECE" height="5" style="stroke: #A80036; stroke-width: 1.5;" width="10" x="796.5" y="536.4883"/><text fill="#000000" font-family="sans-serif" font-size="14" lengthAdjust="spacingAndGlyphs" textLength="177" x="811.5" y="533.5352">CCheckForUpdateFileNew</text><ellipse cx="624" cy="923" fill="#FEFECE" filter="url(#f1)" rx="8" ry="8" style="stroke: #A80036; stroke-width: 2.0;"/><text fill="#000000" font-family="sans-serif" font-size="14" lengthAdjust="spacingAndGlyphs" textLength="100" x="574" y="945.5352">/DownloadFile</text><rect fill="#FEFECE" filter="url(#f1)" height="36.4883" style="stroke: #A80036; stroke-width: 1.5;" width="207" x="499.5" y="1087"/><rect fill="#FEFECE" height="5" style="stroke: #A80036; stroke-width: 1.5;" width="10" x="494.5" y="1092"/><rect fill="#FEFECE" height="5" style="stroke: #A80036; stroke-width: 1.5;" width="10" x="494.5" y="1113.4883"/><text fill="#000000" font-family="sans-serif" font-size="14" lengthAdjust="spacingAndGlyphs" textLength="187" x="509.5" y="1110.5352">CCheckForUpdateFileDown</text><ellipse cx="928" cy="311" fill="#FEFECE" filter="url(#f1)" rx="8" ry="8" style="stroke: #A80036; stroke-width: 2.0;"/><text fill="#000000" font-family="sans-serif" font-size="14" lengthAdjust="spacingAndGlyphs" textLength="133" x="861.5" y="333.5352">/CopyFileNormalXP</text><rect fill="#FEFECE" filter="url(#f1)" height="36.4883" style="stroke: #A80036; stroke-width: 1.5;" width="203" x="563.5" y="510"/><rect fill="#FEFECE" height="5" style="stroke: #A80036; stroke-width: 1.5;" width="10" x="558.5" y="515"/><rect fill="#FEFECE" height="5" style="stroke: #A80036; stroke-width: 1.5;" width="10" x="558.5" y="536.4883"/><text fill="#000000" font-family="sans-serif" font-size="14" lengthAdjust="spacingAndGlyphs" textLength="183" x="573.5" y="533.5352">CCheckForUpdateFileCopy</text><ellipse cx="732" cy="311" fill="#FEFECE" filter="url(#f1)" rx="8" ry="8" style="stroke: #A80036; stroke-width: 2.0;"/><text fill="#000000" font-family="sans-serif" font-size="14" lengthAdjust="spacingAndGlyphs" textLength="111" x="676.5" y="333.5352">/CopyFileAdmin</text><ellipse cx="560" cy="311" fill="#FEFECE" filter="url(#f1)" rx="8" ry="8" style="stroke: #A80036; stroke-width: 2.0;"/><text fill="#000000" font-family="sans-serif" font-size="14" lengthAdjust="spacingAndGlyphs" textLength="116" x="502" y="333.5352">/CopyFileNormal</text><rect fill="#FEFECE" filter="url(#f1)" height="36.4883" style="stroke: #A80036; stroke-width: 1.5;" width="105" x="1048.5" y="685"/><rect fill="#FEFECE" height="5" style="stroke: #A80036; stroke-width: 1.5;" width="10" x="1043.5" y="690"/><rect fill="#FEFECE" height="5" style="stroke: #A80036; stroke-width: 1.5;" width="10" x="1043.5" y="711.4883"/><text fill="#000000" font-family="sans-serif" font-size="14" lengthAdjust="spacingAndGlyphs" textLength="85" x="1058.5" y="708.5352">CCommItem</text><rect fill="#FEFECE" filter="url(#f1)" height="36.4883" style="stroke: #A80036; stroke-width: 1.5;" width="107" x="602.5" y="685"/><rect fill="#FEFECE" height="5" style="stroke: #A80036; stroke-width: 1.5;" width="10" x="597.5" y="690"/><rect fill="#FEFECE" height="5" style="stroke: #A80036; stroke-width: 1.5;" width="10" x="597.5" y="711.4883"/><text fill="#000000" font-family="sans-serif" font-size="14" lengthAdjust="spacingAndGlyphs" textLength="87" x="612.5" y="708.5352">CPTUpdStart</text><rect fill="#FEFECE" filter="url(#f1)" height="36.4883" style="stroke: #A80036; stroke-width: 1.5;" width="128" x="496" y="1300"/><rect fill="#FEFECE" height="5" style="stroke: #A80036; stroke-width: 1.5;" width="10" x="491" y="1305"/><rect fill="#FEFECE" height="5" style="stroke: #A80036; stroke-width: 1.5;" width="10" x="491" y="1326.4883"/><text fill="#000000" font-family="sans-serif" font-size="14" lengthAdjust="spacingAndGlyphs" textLength="108" x="506" y="1323.5352">CPTUpdDownUI</text><ellipse cx="407" cy="311" fill="#FEFECE" filter="url(#f1)" rx="8" ry="8" style="stroke: #A80036; stroke-width: 2.0;"/><text fill="#000000" font-family="sans-serif" font-size="14" lengthAdjust="spacingAndGlyphs" textLength="120" x="347" y="333.5352">IPTSettingModule</text><ellipse cx="1647" cy="52" fill="#FEFECE" filter="url(#f1)" rx="8" ry="8" style="stroke: #A80036; stroke-width: 2.0;"/><text fill="#000000" font-family="sans-serif" font-size="14" lengthAdjust="spacingAndGlyphs" textLength="48" x="1623" y="74.5352">IPTMgr</text><ellipse cx="1337" cy="52" fill="#FEFECE" filter="url(#f1)" rx="8" ry="8" style="stroke: #A80036; stroke-width: 2.0;"/><text fill="#000000" font-family="sans-serif" font-size="14" lengthAdjust="spacingAndGlyphs" textLength="69" x="1302.5" y="74.5352">IPTSetting</text><ellipse cx="1550" cy="52" fill="#FEFECE" filter="url(#f1)" rx="8" ry="8" style="stroke: #A80036; stroke-width: 2.0;"/><text fill="#000000" font-family="sans-serif" font-size="14" lengthAdjust="spacingAndGlyphs" textLength="76" x="1512" y="74.5352">IPTMeeting</text><ellipse cx="1442" cy="52" fill="#FEFECE" filter="url(#f1)" rx="8" ry="8" style="stroke: #A80036; stroke-width: 2.0;"/><text fill="#000000" font-family="sans-serif" font-size="14" lengthAdjust="spacingAndGlyphs" textLength="70" x="1407" y="74.5352">IPTUpdate</text><rect fill="#FEFECE" filter="url(#f1)" height="36.4883" style="stroke: #A80036; stroke-width: 1.5;" width="95" x="1302.5" y="200"/><rect fill="#FEFECE" height="5" style="stroke: #A80036; stroke-width: 1.5;" width="10" x="1297.5" y="205"/><rect fill="#FEFECE" height="5" style="stroke: #A80036; stroke-width: 1.5;" width="10" x="1297.5" y="226.4883"/><text fill="#000000" font-family="sans-serif" font-size="14" lengthAdjust="spacingAndGlyphs" textLength="75" x="1312.5" y="223.5352">CPTSetting</text><rect fill="#FEFECE" filter="url(#f1)" height="36.4883" style="stroke: #A80036; stroke-width: 1.5;" width="96" x="1433" y="200"/><rect fill="#FEFECE" height="5" style="stroke: #A80036; stroke-width: 1.5;" width="10" x="1428" y="205"/><rect fill="#FEFECE" height="5" style="stroke: #A80036; stroke-width: 1.5;" width="10" x="1428" y="226.4883"/><text fill="#000000" font-family="sans-serif" font-size="14" lengthAdjust="spacingAndGlyphs" textLength="76" x="1443" y="223.5352">CPTUpdate</text><rect fill="#FEFECE" filter="url(#f1)" height="36.4883" style="stroke: #A80036; stroke-width: 1.5;" width="102" x="1564" y="200"/><rect fill="#FEFECE" height="5" style="stroke: #A80036; stroke-width: 1.5;" width="10" x="1559" y="205"/><rect fill="#FEFECE" height="5" style="stroke: #A80036; stroke-width: 1.5;" width="10" x="1559" y="226.4883"/><text fill="#000000" font-family="sans-serif" font-size="14" lengthAdjust="spacingAndGlyphs" textLength="82" x="1574" y="223.5352">CPTMeeting</text><rect fill="#FEFECE" filter="url(#f1)" height="36.4883" style="stroke: #A80036; stroke-width: 1.5;" width="110" x="1553" y="397"/><rect fill="#FEFECE" height="5" style="stroke: #A80036; stroke-width: 1.5;" width="10" x="1548" y="402"/><rect fill="#FEFECE" height="5" style="stroke: #A80036; stroke-width: 1.5;" width="10" x="1548" y="423.4883"/><text fill="#000000" font-family="sans-serif" font-size="14" lengthAdjust="spacingAndGlyphs" textLength="90" x="1563" y="420.5352">CExeMeeting</text><ellipse cx="1486" cy="812" fill="#FEFECE" filter="url(#f1)" rx="8" ry="8" style="stroke: #A80036; stroke-width: 2.0;"/><text fill="#000000" font-family="sans-serif" font-size="14" lengthAdjust="spacingAndGlyphs" textLength="52" x="1460" y="834.5352">ISetting</text><ellipse cx="256" cy="1198" fill="#FEFECE" filter="url(#f1)" rx="8" ry="8" style="stroke: #A80036; stroke-width: 2.0;"/><text fill="#000000" font-family="sans-serif" font-size="14" lengthAdjust="spacingAndGlyphs" textLength="134" x="189" y="1220.5352">CWbxOI3URLObject</text><ellipse cx="415" cy="1198" fill="#FEFECE" filter="url(#f1)" rx="8" ry="8" style="stroke: #A80036; stroke-width: 2.0;"/><text fill="#000000" font-family="sans-serif" font-size="14" lengthAdjust="spacingAndGlyphs" textLength="113" x="358.5" y="1220.5352">IWbxOI3URLSink</text><ellipse cx="88" cy="1198" fill="#FEFECE" filter="url(#f1)" rx="8" ry="8" style="stroke: #A80036; stroke-width: 2.0;"/><text fill="#000000" font-family="sans-serif" font-size="14" lengthAdjust="spacingAndGlyphs" textLength="132" x="22" y="1220.5352">CWbxOI3FileObject</text><polygon fill="#FBFB77" filter="url(#f1)" points="22,1397,22,1422.3105,222,1422.3105,222,1407,212,1397,22,1397" style="stroke: #A80036; stroke-width: 1.0;"/><polygon fill="#FBFB77" points="22,1397,22,1422.3105,222,1422.3105,222,1407,212,1397,123.909,1397,90.8403,1223,115.909,1397,22,1397" style="stroke: #A80036; stroke-width: 1.0;"/><line style="stroke: #A80036; stroke-width: 1.0;" x1="212" x2="212" y1="1397" y2="1407"/><line style="stroke: #A80036; stroke-width: 1.0;" x1="222" x2="212" y1="1407" y2="1407"/><text fill="#000000" font-family="sans-serif" font-size="13" lengthAdjust="spacingAndGlyphs" textLength="179" x="28" y="1414.5684">use WinInet to download file</text><rect fill="#FEFECE" filter="url(#f1)" height="36.4883" style="stroke: #A80036; stroke-width: 1.5;" width="70" x="1434" y="510"/><rect fill="#FEFECE" height="5" style="stroke: #A80036; stroke-width: 1.5;" width="10" x="1429" y="515"/><rect fill="#FEFECE" height="5" style="stroke: #A80036; stroke-width: 1.5;" width="10" x="1429" y="536.4883"/><text fill="#000000" font-family="sans-serif" font-size="14" lengthAdjust="spacingAndGlyphs" textLength="50" x="1444" y="533.5352">ieatgpc</text><path d="M1165.18,336.3 C1136.99,360.64 1083.36,405.91 1035,441 C1001.795,465.091 962.166,490.227 934.465,507.25 " fill="none" style="stroke: #A80036; stroke-width: 1.0;"/><polygon fill="#A80036" points="930.124,509.911,939.8871,508.6143,934.3859,507.2964,935.7038,501.7952,930.124,509.911" style="stroke: #A80036; stroke-width: 1.0;"/><text fill="#000000" font-family="sans-serif" font-size="13" lengthAdjust="spacingAndGlyphs" textLength="132" x="1093" y="420.0684">StartCheckForUpdate</text><path d="M621.948,948.001 C618.161,979.38 610.069,1046.425 605.789,1081.894 " fill="none" style="stroke: #A80036; stroke-width: 1.0;"/><polygon fill="#A80036" points="605.186,1086.89,610.2373,1078.4352,605.7861,1081.9261,602.2951,1077.475,605.186,1086.89" style="stroke: #A80036; stroke-width: 1.0;"/><text fill="#000000" font-family="sans-serif" font-size="13" lengthAdjust="spacingAndGlyphs" textLength="114" x="616" y="1022.5684">StartDownloadFile</text><path d="M919.206,336.42 C905.5,362.13 876.855,410.48 841,441 C805.976,470.813 758.974,493.369 722.353,508.036 " fill="none" style="stroke: #A80036; stroke-width: 1.0;"/><polygon fill="#A80036" points="717.485,509.963,727.3256,510.3673,722.1336,508.1216,724.3793,502.9296,717.485,509.963" style="stroke: #A80036; stroke-width: 1.0;"/><text fill="#000000" font-family="sans-serif" font-size="13" lengthAdjust="spacingAndGlyphs" textLength="144" x="882" y="420.0684">StartNormalCopyFileXP</text><path d="M726.517,336.1 C714.534,373.48 686,462.491 672.424,504.842 " fill="none" style="stroke: #A80036; stroke-width: 1.0;"/><polygon fill="#A80036" points="670.845,509.768,677.4012,502.4184,672.3712,505.0066,669.783,499.9766,670.845,509.768" style="stroke: #A80036; stroke-width: 1.0;"/><text fill="#000000" font-family="sans-serif" font-size="13" lengthAdjust="spacingAndGlyphs" textLength="124" x="708" y="420.0684">StartAdminCopyFile</text><path d="M554.189,336.21 C546.939,360.82 537.386,406.87 554,441 C568.225,470.222 597.541,492.531 622.474,507.238 " fill="none" style="stroke: #A80036; stroke-width: 1.0;"/><polygon fill="#A80036" points="627.074,509.896,621.283,501.9296,622.7449,507.3943,617.2802,508.8562,627.074,509.896" style="stroke: #A80036; stroke-width: 1.0;"/><text fill="#000000" font-family="sans-serif" font-size="13" lengthAdjust="spacingAndGlyphs" textLength="129" x="555" y="420.0684">StartNormalCopyFile</text><path d="M920.753,546.069 C957.916,578.424 1035.68,646.129 1075.82,681.08 " fill="none" style="stroke: #A80036; stroke-width: 1.0;"/><polygon fill="#A80036" points="1080.06,684.767,1075.9016,675.8391,1076.29,681.4826,1070.6465,681.871,1080.06,684.767" style="stroke: #A80036; stroke-width: 1.0;"/><text fill="#000000" font-family="sans-serif" font-size="13" lengthAdjust="spacingAndGlyphs" textLength="73" x="1011" y="620.5684">GetAccount</text><path d="M874.807,546.069 C829.42,578.621 734.146,646.952 685.68,681.713 " fill="none" style="stroke: #A80036; stroke-width: 1.0;"/><polygon fill="#A80036" points="681.422,684.767,691.0666,682.7716,685.4849,681.8527,686.4037,676.271,681.422,684.767" style="stroke: #A80036; stroke-width: 1.0;"/><text fill="#000000" font-family="sans-serif" font-size="13" lengthAdjust="spacingAndGlyphs" textLength="85" x="791" y="620.5684">DownloadFile</text><path d="M653.435,721.273 C647.621,762.702 633.451,863.66 627.132,908.686 " fill="none" style="stroke: #A80036; stroke-width: 1.0;"/><polygon fill="#A80036" points="626.401,913.892,631.6144,905.5361,627.0967,908.9406,623.6922,904.423,626.401,913.892" style="stroke: #A80036; stroke-width: 1.0;"/><text fill="#000000" font-family="sans-serif" font-size="13" lengthAdjust="spacingAndGlyphs" textLength="156" x="647" y="817.5684">LaunchPTUpdateProcess,</text><text fill="#000000" font-family="sans-serif" font-size="13" lengthAdjust="spacingAndGlyphs" textLength="94" x="680" y="832.8789">ShellExecuteEx</text><path d="M599.913,1123.384 C594.7,1153.934 583.585,1217.039 572,1270 C570.24,1278.045 568.115,1286.797 566.146,1294.597 " fill="none" style="stroke: #A80036; stroke-width: 1.0;"/><polygon fill="#A80036" points="564.814,1299.825,570.9123,1292.0913,566.0485,1294.9798,563.16,1290.116,564.814,1299.825" style="stroke: #A80036; stroke-width: 1.0;"/><text fill="#000000" font-family="sans-serif" font-size="13" lengthAdjust="spacingAndGlyphs" textLength="114" x="595" y="1211.0684">StartDownloadFile</text><path d="M1338.42,77.21 C1340.76,105.64 1345.43,162.45 1348.07,194.53 " fill="none" style="stroke: #A80036; stroke-width: 1.0;"/><polygon fill="#A80036" points="1348.51,199.84,1351.751,190.5397,1348.096,194.8572,1343.7785,191.2021,1348.51,199.84" style="stroke: #A80036; stroke-width: 1.0;"/><path d="M1302.22,219.81 C1131.62,226.45 558.533,250.37 480,275 C463.382,280.21 446.614,289.93 433.347,298.91 " fill="none" style="stroke: #A80036; stroke-width: 1.0;"/><polygon fill="#A80036" points="428.987,301.92,438.6661,300.0992,433.1019,299.0796,434.1214,293.5154,428.987,301.92" style="stroke: #A80036; stroke-width: 1.0;"/><path d="M1446.25,77.21 C1453.29,105.76 1467.4,162.92 1475.31,194.93 " fill="none" style="stroke: #A80036; stroke-width: 1.0;"/><polygon fill="#A80036" points="1476.52,199.84,1478.2446,190.1433,1475.3208,194.9859,1470.4781,192.0621,1476.52,199.84" style="stroke: #A80036; stroke-width: 1.0;"/><path d="M1557.08,77.21 C1568.82,105.76 1592.34,162.92 1605.51,194.93 " fill="none" style="stroke: #A80036; stroke-width: 1.0;"/><polygon fill="#A80036" points="1607.53,199.84,1607.8127,189.9952,1605.6313,195.2145,1600.4119,193.0332,1607.53,199.84" style="stroke: #A80036; stroke-width: 1.0;"/><path d="M1614.35,236.18 C1613.08,272.1 1610.24,352.1 1608.83,391.77 " fill="none" style="stroke: #A80036; stroke-width: 1.0;"/><polygon fill="#A80036" points="1608.64,396.86,1612.9713,388.0147,1608.8256,391.8634,1604.9768,387.7177,1608.64,396.86" style="stroke: #A80036; stroke-width: 1.0;"/><text fill="#000000" font-family="sans-serif" font-size="13" lengthAdjust="spacingAndGlyphs" textLength="29" x="1613" y="324.0684">Start</text><path d="M1600.59,433.23 C1594.04,447.472 1583.3,466.971 1569,480 C1551.94,495.544 1528.94,507.054 1509.3,514.9 " fill="none" style="stroke: #A80036; stroke-width: 1.0;"/><polygon fill="#A80036" points="1504.38,516.816,1514.2181,517.2772,1509.0391,515.0015,1511.3148,509.8226,1504.38,516.816" style="stroke: #A80036; stroke-width: 1.0;"/><text fill="#000000" font-family="sans-serif" font-size="13" lengthAdjust="spacingAndGlyphs" textLength="107" x="1583" y="476.5684">GpcStdDownload</text><path d="M1433.66,524.868 C1380.27,518.804 1288.65,502.408 1322,463 C1336.42,445.959 1468.13,429.49 1547.69,420.98 " fill="none" style="stroke: #A80036; stroke-width: 1.0;"/><polygon fill="#A80036" points="1552.86,420.43,1543.4875,417.404,1547.888,420.9586,1544.3333,425.3591,1552.86,420.43" style="stroke: #A80036; stroke-width: 1.0;"/><text fill="#000000" font-family="sans-serif" font-size="13" lengthAdjust="spacingAndGlyphs" textLength="237" x="1323" y="476.5684">OnGpcDownload download gpcini file</text><path d="M1432.75,231.35 C1384.25,244.9 1312.94,265.24 1286,275 C1265.78,282.33 1243.83,291.71 1225.57,299.93 " fill="none" style="stroke: #A80036; stroke-width: 1.0;"/><polygon fill="#A80036" points="1221.02,301.99,1230.8687,301.9329,1225.5772,299.9328,1227.5772,294.6413,1221.02,301.99" style="stroke: #A80036; stroke-width: 1.0;"/><path d="M1512.23,813.845 C1577.12,797.854 1740,752.764 1740,703 C1740,138.5 1740,138.5 1740,138.5 C1740,59.31 1465.83,96.19 1389,77 C1384.96,75.99 1380.78,74.83 1376.62,73.6 " fill="none" style="stroke: #A80036; stroke-width: 1.0;"/><polygon fill="#A80036" points="1371.77,72.12,1379.2147,78.568,1376.5532,73.5764,1381.5449,70.9149,1371.77,72.12" style="stroke: #A80036; stroke-width: 1.0;"/><text fill="#000000" font-family="sans-serif" font-size="13" lengthAdjust="spacingAndGlyphs" textLength="122" x="1741" y="420.0684">GeneralCall_Setting</text><path d="M801.29,543.397 C795.441,544.284 789.644,545.158 784,546 C730.157,554.035 299,561.061 299,615.5 C299,615.5 299,615.5 299,1105 C299,1134.234 283.561,1164.698 271.185,1184.421 " fill="none" style="stroke: #A80036; stroke-width: 1.0;"/><polygon fill="#A80036" points="268.437,1188.707,276.6622,1183.2898,271.1359,1184.498,269.9277,1178.9716,268.437,1188.707" style="stroke: #A80036; stroke-width: 1.0;"/><text fill="#000000" font-family="sans-serif" font-size="13" lengthAdjust="spacingAndGlyphs" textLength="47" x="300" y="880.5684">use Get</text><path d="M419.099,1188.959 C423.54,1168.972 430,1134.781 430,1105 C430,615.5 430,615.5 430,615.5 C430,606.256 657.759,567.48 796.178,544.768 " fill="none" style="stroke: #A80036; stroke-width: 1.0;"/><polygon fill="#A80036" points="801.473,543.9,791.9439,541.4107,796.539,544.7099,793.2398,549.3051,801.473,543.9" style="stroke: #A80036; stroke-width: 1.0;"/><text fill="#000000" font-family="sans-serif" font-size="13" lengthAdjust="spacingAndGlyphs" textLength="65" x="431" y="880.5684">URLReturn</text><path d="M1153.73,719.023 C1235.21,743.787 1389.21,790.585 1454.97,810.569 " fill="none" style="stroke: #A80036; stroke-width: 1.0;"/><polygon fill="#A80036" points="1459.92,812.075,1452.4759,805.6263,1455.1369,810.6182,1450.145,813.2793,1459.92,812.075" style="stroke: #A80036; stroke-width: 1.0;"/><text fill="#000000" font-family="sans-serif" font-size="13" lengthAdjust="spacingAndGlyphs" textLength="71" x="1307" y="764.5684">GeneralCall</text><path d="M495.635,1301.861 C493.057,1301.23 490.504,1300.607 488,1300 C373.185,1272.159 239.517,1241 159.442,1222.467 " fill="none" style="stroke: #A80036; stroke-width: 1.0;"/><polygon fill="#A80036" points="154.246,1221.265,162.1127,1227.1908,159.1173,1222.3921,163.916,1219.3968,154.246,1221.265" style="stroke: #A80036; stroke-width: 1.0;"/><text fill="#000000" font-family="sans-serif" font-size="13" lengthAdjust="spacingAndGlyphs" textLength="63" x="358" y="1266.5684">Download</text><path d="M437.022,1223.01 C462.545,1242.725 504.637,1275.237 532.343,1296.637 " fill="none" style="stroke: #A80036; stroke-width: 1.0;"/><polygon fill="#A80036" points="536.322,1299.711,531.6434,1291.0444,532.3646,1296.6551,526.7539,1297.3763,536.322,1299.711" style="stroke: #A80036; stroke-width: 1.0;"/><text fill="#000000" font-family="sans-serif" font-size="13" lengthAdjust="spacingAndGlyphs" textLength="65" x="498" y="1266.5684">URLReturn</text></g></svg>