<?xml version="1.0" encoding="UTF-8" standalone="yes"?><svg xmlns="http://www.w3.org/2000/svg" xmlns:xlink="http://www.w3.org/1999/xlink" height="1142pt" style="width:1912px;height:1142px;" version="1.1" viewBox="0 0 1912 1142" width="1912pt"><defs><filter height="300%" id="f1" width="300%" x="-1" y="-1"><feGaussianBlur result="blurOut" stdDeviation="2.0"/><feColorMatrix in="blurOut" result="blurOut2" type="matrix" values="0 0 0 0 0 0 0 0 0 0 0 0 0 0 0 0 0 0 .4 0"/><feOffset dx="4.0" dy="4.0" in="blurOut2" result="blurOut3"/><feBlend in="SourceGraphic" in2="blurOut3" mode="normal"/></filter></defs><g><rect fill="#FFFFFF" filter="url(#f1)" height="63.6211" style="stroke: #A80036; stroke-width: 1.0;" width="10" x="524.5" y="991.873"/><rect fill="#DDDDDD" height="1137.6035" style="stroke: #A80036; stroke-width: 1.0;" width="313" x="115.5" y="4"/><text fill="#000000" font-family="sans-serif" font-size="13" font-weight="bold" lengthAdjust="spacingAndGlyphs" textLength="104" x="220" y="16.5684">ConferenceMgr</text><rect fill="#DDDDDD" height="1137.6035" style="stroke: #A80036; stroke-width: 1.0;" width="774" x="466.5" y="4"/><text fill="#000000" font-family="sans-serif" font-size="13" font-weight="bold" lengthAdjust="spacingAndGlyphs" textLength="75" x="816" y="16.5684">ServiceMgr</text><rect fill="#DDDDDD" height="1137.6035" style="stroke: #A80036; stroke-width: 1.0;" width="152" x="1262" y="4"/><text fill="#000000" font-family="sans-serif" font-size="13" font-weight="bold" lengthAdjust="spacingAndGlyphs" textLength="20" x="1328" y="16.5684">cm</text><rect fill="#DDDDDD" height="1137.6035" style="stroke: #A80036; stroke-width: 1.0;" width="415" x="1416" y="4"/><text fill="#000000" font-family="sans-serif" font-size="13" font-weight="bold" lengthAdjust="spacingAndGlyphs" textLength="65" x="1591" y="16.5684">MMP_SDK</text><line style="stroke: #A80036; stroke-width: 1.0; stroke-dasharray: 5.0,5.0;" x1="198.5" x2="198.5" y1="58.7988" y2="1103.1152"/><line style="stroke: #A80036; stroke-width: 1.0; stroke-dasharray: 5.0,5.0;" x1="356.5" x2="356.5" y1="58.7988" y2="1103.1152"/><line style="stroke: #A80036; stroke-width: 1.0; stroke-dasharray: 5.0,5.0;" x1="529.5" x2="529.5" y1="58.7988" y2="1103.1152"/><line style="stroke: #A80036; stroke-width: 1.0; stroke-dasharray: 5.0,5.0;" x1="690.5" x2="690.5" y1="58.7988" y2="1103.1152"/><line style="stroke: #A80036; stroke-width: 1.0; stroke-dasharray: 5.0,5.0;" x1="851.5" x2="851.5" y1="58.7988" y2="1103.1152"/><line style="stroke: #A80036; stroke-width: 1.0; stroke-dasharray: 5.0,5.0;" x1="1004.5" x2="1004.5" y1="58.7988" y2="1103.1152"/><line style="stroke: #A80036; stroke-width: 1.0; stroke-dasharray: 5.0,5.0;" x1="1172.5" x2="1172.5" y1="58.7988" y2="1103.1152"/><line style="stroke: #A80036; stroke-width: 1.0; stroke-dasharray: 5.0,5.0;" x1="1338" x2="1338" y1="58.7988" y2="1103.1152"/><line style="stroke: #A80036; stroke-width: 1.0; stroke-dasharray: 5.0,5.0;" x1="1474" x2="1474" y1="58.7988" y2="1103.1152"/><line style="stroke: #A80036; stroke-width: 1.0; stroke-dasharray: 5.0,5.0;" x1="1608" x2="1608" y1="58.7988" y2="1103.1152"/><line style="stroke: #A80036; stroke-width: 1.0; stroke-dasharray: 5.0,5.0;" x1="1757" x2="1757" y1="58.7988" y2="1103.1152"/><rect fill="#FEFECE" filter="url(#f1)" height="30.4883" style="stroke: #A80036; stroke-width: 1.5;" width="155" x="119.5" y="23.3105"/><text fill="#000000" font-family="sans-serif" font-size="14" lengthAdjust="spacingAndGlyphs" textLength="141" x="126.5" y="43.8457">IAtConfManagerSink</text><rect fill="#FEFECE" filter="url(#f1)" height="30.4883" style="stroke: #A80036; stroke-width: 1.5;" width="155" x="119.5" y="1102.1152"/><text fill="#000000" font-family="sans-serif" font-size="14" lengthAdjust="spacingAndGlyphs" textLength="141" x="126.5" y="1122.6504">IAtConfManagerSink</text><rect fill="#FEFECE" filter="url(#f1)" height="30.4883" style="stroke: #A80036; stroke-width: 1.5;" width="132" x="288.5" y="23.3105"/><text fill="#000000" font-family="sans-serif" font-size="14" lengthAdjust="spacingAndGlyphs" textLength="118" x="295.5" y="43.8457">CAtConfManager</text><rect fill="#FEFECE" filter="url(#f1)" height="30.4883" style="stroke: #A80036; stroke-width: 1.5;" width="132" x="288.5" y="1102.1152"/><text fill="#000000" font-family="sans-serif" font-size="14" lengthAdjust="spacingAndGlyphs" textLength="118" x="295.5" y="1122.6504">CAtConfManager</text><rect fill="#FEFECE" filter="url(#f1)" height="30.4883" style="stroke: #A80036; stroke-width: 1.5;" width="114" x="470.5" y="23.3105"/><text fill="#000000" font-family="sans-serif" font-size="14" lengthAdjust="spacingAndGlyphs" textLength="100" x="477.5" y="43.8457">CSmCacheMgr</text><rect fill="#FEFECE" filter="url(#f1)" height="30.4883" style="stroke: #A80036; stroke-width: 1.5;" width="114" x="470.5" y="1102.1152"/><text fill="#000000" font-family="sans-serif" font-size="14" lengthAdjust="spacingAndGlyphs" textLength="100" x="477.5" y="1122.6504">CSmCacheMgr</text><rect fill="#FEFECE" filter="url(#f1)" height="30.4883" style="stroke: #A80036; stroke-width: 1.5;" width="168" x="604.5" y="23.3105"/><text fill="#000000" font-family="sans-serif" font-size="14" lengthAdjust="spacingAndGlyphs" textLength="154" x="611.5" y="43.8457">ISmCacheUpdatedSink</text><rect fill="#FEFECE" filter="url(#f1)" height="30.4883" style="stroke: #A80036; stroke-width: 1.5;" width="168" x="604.5" y="1102.1152"/><text fill="#000000" font-family="sans-serif" font-size="14" lengthAdjust="spacingAndGlyphs" textLength="154" x="611.5" y="1122.6504">ISmCacheUpdatedSink</text><rect fill="#FEFECE" filter="url(#f1)" height="30.4883" style="stroke: #A80036; stroke-width: 1.5;" width="94" x="802.5" y="23.3105"/><text fill="#000000" font-family="sans-serif" font-size="14" lengthAdjust="spacingAndGlyphs" textLength="80" x="809.5" y="43.8457">CSmCSIMgr</text><rect fill="#FEFECE" filter="url(#f1)" height="30.4883" style="stroke: #A80036; stroke-width: 1.5;" width="94" x="802.5" y="1102.1152"/><text fill="#000000" font-family="sans-serif" font-size="14" lengthAdjust="spacingAndGlyphs" textLength="80" x="809.5" y="1122.6504">CSmCSIMgr</text><rect fill="#FEFECE" filter="url(#f1)" height="30.4883" style="stroke: #A80036; stroke-width: 1.5;" width="185" x="910.5" y="23.3105"/><text fill="#000000" font-family="sans-serif" font-size="14" lengthAdjust="spacingAndGlyphs" textLength="171" x="917.5" y="43.8457">CSmSvcVideoSessionMgr</text><rect fill="#FEFECE" filter="url(#f1)" height="30.4883" style="stroke: #A80036; stroke-width: 1.5;" width="185" x="910.5" y="1102.1152"/><text fill="#000000" font-family="sans-serif" font-size="14" lengthAdjust="spacingAndGlyphs" textLength="171" x="917.5" y="1122.6504">CSmSvcVideoSessionMgr</text><rect fill="#FEFECE" filter="url(#f1)" height="30.4883" style="stroke: #A80036; stroke-width: 1.5;" width="123" x="1109.5" y="23.3105"/><text fill="#000000" font-family="sans-serif" font-size="14" lengthAdjust="spacingAndGlyphs" textLength="109" x="1116.5" y="43.8457">CPfwServiceMgr</text><rect fill="#FEFECE" filter="url(#f1)" height="30.4883" style="stroke: #A80036; stroke-width: 1.5;" width="123" x="1109.5" y="1102.1152"/><text fill="#000000" font-family="sans-serif" font-size="14" lengthAdjust="spacingAndGlyphs" textLength="109" x="1116.5" y="1122.6504">CPfwServiceMgr</text><rect fill="#FEFECE" filter="url(#f1)" height="30.4883" style="stroke: #A80036; stroke-width: 1.5;" width="140" x="1266" y="23.3105"/><text fill="#000000" font-family="sans-serif" font-size="14" lengthAdjust="spacingAndGlyphs" textLength="126" x="1273" y="43.8457">CPcmSvcVideoMgr</text><rect fill="#FEFECE" filter="url(#f1)" height="30.4883" style="stroke: #A80036; stroke-width: 1.5;" width="140" x="1266" y="1102.1152"/><text fill="#000000" font-family="sans-serif" font-size="14" lengthAdjust="spacingAndGlyphs" textLength="126" x="1273" y="1122.6504">CPcmSvcVideoMgr</text><rect fill="#FEFECE" filter="url(#f1)" height="30.4883" style="stroke: #A80036; stroke-width: 1.5;" width="105" x="1420" y="23.3105"/><text fill="#000000" font-family="sans-serif" font-size="14" lengthAdjust="spacingAndGlyphs" textLength="91" x="1427" y="43.8457">ISVideoClient</text><rect fill="#FEFECE" filter="url(#f1)" height="30.4883" style="stroke: #A80036; stroke-width: 1.5;" width="105" x="1420" y="1102.1152"/><text fill="#000000" font-family="sans-serif" font-size="14" lengthAdjust="spacingAndGlyphs" textLength="91" x="1427" y="1122.6504">ISVideoClient</text><rect fill="#FEFECE" filter="url(#f1)" height="30.4883" style="stroke: #A80036; stroke-width: 1.5;" width="134" x="1539" y="23.3105"/><text fill="#000000" font-family="sans-serif" font-size="14" lengthAdjust="spacingAndGlyphs" textLength="120" x="1546" y="43.8457">ISVideoClientSink</text><rect fill="#FEFECE" filter="url(#f1)" height="30.4883" style="stroke: #A80036; stroke-width: 1.5;" width="134" x="1539" y="1102.1152"/><text fill="#000000" font-family="sans-serif" font-size="14" lengthAdjust="spacingAndGlyphs" textLength="120" x="1546" y="1122.6504">ISVideoClientSink</text><rect fill="#FEFECE" filter="url(#f1)" height="30.4883" style="stroke: #A80036; stroke-width: 1.5;" width="136" x="1687" y="23.3105"/><text fill="#000000" font-family="sans-serif" font-size="14" lengthAdjust="spacingAndGlyphs" textLength="122" x="1694" y="43.8457">CMmSVideoClient</text><rect fill="#FEFECE" filter="url(#f1)" height="30.4883" style="stroke: #A80036; stroke-width: 1.5;" width="136" x="1687" y="1102.1152"/><text fill="#000000" font-family="sans-serif" font-size="14" lengthAdjust="spacingAndGlyphs" textLength="122" x="1694" y="1122.6504">CMmSVideoClient</text><rect fill="#FFFFFF" filter="url(#f1)" height="63.6211" style="stroke: #A80036; stroke-width: 1.0;" width="10" x="524.5" y="991.873"/><rect fill="#EEEEEE" filter="url(#f1)" height="3" style="stroke: #EEEEEE; stroke-width: 1.0;" width="1904" x="3" y="89.4541"/><line style="stroke: #000000; stroke-width: 1.0;" x1="3" x2="1907" y1="89.4541" y2="89.4541"/><line style="stroke: #000000; stroke-width: 1.0;" x1="3" x2="1907" y1="92.4541" y2="92.4541"/><rect fill="#EEEEEE" filter="url(#f1)" height="23.3105" style="stroke: #000000; stroke-width: 2.0;" width="177" x="866.5" y="78.7988"/><text fill="#000000" font-family="sans-serif" font-size="13" font-weight="bold" lengthAdjust="spacingAndGlyphs" textLength="159" x="872.5" y="95.3672">Receive CSI From Cache</text><polygon fill="#0000FF" points="187,129.1094,197,133.1094,187,137.1094,191,133.1094" style="stroke: #0000FF; stroke-width: 1.0;"/><line style="stroke: #0000FF; stroke-width: 1.0;" x1="3" x2="193" y1="133.1094" y2="133.1094"/><text fill="#000000" font-family="sans-serif" font-size="13" lengthAdjust="spacingAndGlyphs" textLength="172" x="10" y="128.6777">OnCacheRetrieveConfirmEx</text><polygon fill="#A80036" points="1161,158.4199,1171,162.4199,1161,166.4199,1165,162.4199" style="stroke: #A80036; stroke-width: 1.0;"/><line style="stroke: #A80036; stroke-width: 1.0;" x1="199" x2="1167" y1="162.4199" y2="162.4199"/><text fill="#000000" font-family="sans-serif" font-size="13" lengthAdjust="spacingAndGlyphs" textLength="172" x="206" y="157.9883">OnCacheRetrieveConfirmEx</text><polygon fill="#A80036" points="862.5,187.7305,852.5,191.7305,862.5,195.7305,858.5,191.7305" style="stroke: #A80036; stroke-width: 1.0;"/><line style="stroke: #A80036; stroke-width: 1.0;" x1="856.5" x2="1172" y1="191.7305" y2="191.7305"/><text fill="#000000" font-family="sans-serif" font-size="13" lengthAdjust="spacingAndGlyphs" textLength="172" x="868.5" y="187.2988">OnCacheRetrieveConfirmEx</text><polygon fill="#A80036" points="540.5,217.041,530.5,221.041,540.5,225.041,536.5,221.041" style="stroke: #A80036; stroke-width: 1.0;"/><line style="stroke: #A80036; stroke-width: 1.0;" x1="534.5" x2="850.5" y1="221.041" y2="221.041"/><text fill="#000000" font-family="sans-serif" font-size="13" lengthAdjust="spacingAndGlyphs" textLength="172" x="546.5" y="216.6094">OnCacheRetrieveConfirmEx</text><line style="stroke: #A80036; stroke-width: 1.0;" x1="529.5" x2="571.5" y1="250.6621" y2="250.6621"/><line style="stroke: #A80036; stroke-width: 1.0;" x1="571.5" x2="571.5" y1="250.6621" y2="263.6621"/><line style="stroke: #A80036; stroke-width: 1.0;" x1="530.5" x2="571.5" y1="263.6621" y2="263.6621"/><polygon fill="#A80036" points="540.5,259.6621,530.5,263.6621,540.5,267.6621,536.5,263.6621" style="stroke: #A80036; stroke-width: 1.0;"/><text fill="#000000" font-family="sans-serif" font-size="13" lengthAdjust="spacingAndGlyphs" textLength="123" x="536.5" y="245.9199">HandleRetrieveData</text><line style="stroke: #A80036; stroke-width: 1.0;" x1="529.5" x2="571.5" y1="292.9727" y2="292.9727"/><line style="stroke: #A80036; stroke-width: 1.0;" x1="571.5" x2="571.5" y1="292.9727" y2="305.9727"/><line style="stroke: #A80036; stroke-width: 1.0;" x1="530.5" x2="571.5" y1="305.9727" y2="305.9727"/><polygon fill="#A80036" points="540.5,301.9727,530.5,305.9727,540.5,309.9727,536.5,305.9727" style="stroke: #A80036; stroke-width: 1.0;"/><text fill="#000000" font-family="sans-serif" font-size="13" lengthAdjust="spacingAndGlyphs" textLength="102" x="536.5" y="288.2305">ParseCSIInfoXml</text><line style="stroke: #A80036; stroke-width: 1.0;" x1="529.5" x2="571.5" y1="335.2832" y2="335.2832"/><line style="stroke: #A80036; stroke-width: 1.0;" x1="571.5" x2="571.5" y1="335.2832" y2="348.2832"/><line style="stroke: #A80036; stroke-width: 1.0;" x1="530.5" x2="571.5" y1="348.2832" y2="348.2832"/><polygon fill="#A80036" points="540.5,344.2832,530.5,348.2832,540.5,352.2832,536.5,348.2832" style="stroke: #A80036; stroke-width: 1.0;"/><text fill="#000000" font-family="sans-serif" font-size="13" lengthAdjust="spacingAndGlyphs" textLength="124" x="536.5" y="330.541">SaveIntoLocalCache</text><polygon fill="#A80036" points="678.5,373.2832,688.5,377.2832,678.5,381.2832,682.5,377.2832" style="stroke: #A80036; stroke-width: 1.0;"/><line style="stroke: #A80036; stroke-width: 1.0;" x1="529.5" x2="684.5" y1="377.2832" y2="377.2832"/><text fill="#000000" font-family="sans-serif" font-size="13" lengthAdjust="spacingAndGlyphs" textLength="137" x="536.5" y="372.8516">OnCacheDataUpdated</text><polygon fill="#A80036" points="839.5,402.5938,849.5,406.5938,839.5,410.5938,843.5,406.5938" style="stroke: #A80036; stroke-width: 1.0;"/><line style="stroke: #A80036; stroke-width: 1.0;" x1="690.5" x2="845.5" y1="406.5938" y2="406.5938"/><text fill="#000000" font-family="sans-serif" font-size="13" lengthAdjust="spacingAndGlyphs" textLength="137" x="697.5" y="402.1621">OnCacheDataUpdated</text><polygon fill="#A80036" points="1161,431.9043,1171,435.9043,1161,439.9043,1165,435.9043" style="stroke: #A80036; stroke-width: 1.0;"/><line style="stroke: #A80036; stroke-width: 1.0;" x1="851.5" x2="1167" y1="435.9043" y2="435.9043"/><text fill="#000000" font-family="sans-serif" font-size="13" lengthAdjust="spacingAndGlyphs" textLength="85" x="858.5" y="431.4727">OnReceiveCSI</text><line style="stroke: #A80036; stroke-width: 1.0;" x1="1173" x2="1215" y1="465.5254" y2="465.5254"/><line style="stroke: #A80036; stroke-width: 1.0;" x1="1215" x2="1215" y1="465.5254" y2="478.5254"/><line style="stroke: #A80036; stroke-width: 1.0;" x1="1174" x2="1215" y1="478.5254" y2="478.5254"/><polygon fill="#A80036" points="1184,474.5254,1174,478.5254,1184,482.5254,1180,478.5254" style="stroke: #A80036; stroke-width: 1.0;"/><text fill="#000000" font-family="sans-serif" font-size="13" lengthAdjust="spacingAndGlyphs" textLength="129" x="1180" y="460.7832">OnUserCSIIndication</text><polygon fill="#A80036" points="1016,503.5254,1006,507.5254,1016,511.5254,1012,507.5254" style="stroke: #A80036; stroke-width: 1.0;"/><line style="stroke: #A80036; stroke-width: 1.0;" x1="1010" x2="1172" y1="507.5254" y2="507.5254"/><text fill="#000000" font-family="sans-serif" font-size="13" lengthAdjust="spacingAndGlyphs" textLength="80" x="1022" y="503.0938">GetVideoMgr</text><polygon fill="#A80036" points="1326,532.8359,1336,536.8359,1326,540.8359,1330,536.8359" style="stroke: #A80036; stroke-width: 1.0;"/><line style="stroke: #A80036; stroke-width: 1.0;" x1="1173" x2="1332" y1="536.8359" y2="536.8359"/><text fill="#000000" font-family="sans-serif" font-size="13" lengthAdjust="spacingAndGlyphs" textLength="100" x="1180" y="532.4043">GetSVideoClient</text><polygon fill="#0000FF" points="1462.5,562.1465,1472.5,566.1465,1462.5,570.1465,1466.5,566.1465" style="stroke: #0000FF; stroke-width: 1.0;"/><line style="stroke: #0000FF; stroke-width: 1.0;" x1="1173" x2="1468.5" y1="566.1465" y2="566.1465"/><text fill="#000000" font-family="sans-serif" font-size="13" lengthAdjust="spacingAndGlyphs" textLength="67" x="1180" y="561.7148">ReceiveCSI</text><polygon fill="#A80036" points="1745,591.457,1755,595.457,1745,599.457,1749,595.457" style="stroke: #A80036; stroke-width: 1.0;"/><line style="stroke: #A80036; stroke-width: 1.0;" x1="1474.5" x2="1751" y1="595.457" y2="595.457"/><text fill="#000000" font-family="sans-serif" font-size="13" lengthAdjust="spacingAndGlyphs" textLength="67" x="1481.5" y="591.0254">ReceiveCSI</text><line style="stroke: #A80036; stroke-width: 1.0;" x1="1757" x2="1799" y1="625.0781" y2="625.0781"/><line style="stroke: #A80036; stroke-width: 1.0;" x1="1799" x2="1799" y1="625.0781" y2="638.0781"/><line style="stroke: #A80036; stroke-width: 1.0;" x1="1758" x2="1799" y1="638.0781" y2="638.0781"/><polygon fill="#A80036" points="1768,634.0781,1758,638.0781,1768,642.0781,1764,638.0781" style="stroke: #A80036; stroke-width: 1.0;"/><text fill="#000000" font-family="sans-serif" font-size="13" lengthAdjust="spacingAndGlyphs" textLength="136" x="1764" y="620.3359">HandleCSIConflicated</text><rect fill="#EEEEEE" filter="url(#f1)" height="3" style="stroke: #EEEEEE; stroke-width: 1.0;" width="1904" x="3" y="666.7334"/><line style="stroke: #000000; stroke-width: 1.0;" x1="3" x2="1907" y1="666.7334" y2="666.7334"/><line style="stroke: #000000; stroke-width: 1.0;" x1="3" x2="1907" y1="669.7334" y2="669.7334"/><rect fill="#EEEEEE" filter="url(#f1)" height="23.3105" style="stroke: #000000; stroke-width: 2.0;" width="109" x="900.5" y="656.0781"/><text fill="#000000" font-family="sans-serif" font-size="13" font-weight="bold" lengthAdjust="spacingAndGlyphs" textLength="91" x="906.5" y="672.6465">CSI Conflicate</text><line style="stroke: #A80036; stroke-width: 1.0;" x1="1757" x2="1799" y1="710.6992" y2="710.6992"/><line style="stroke: #A80036; stroke-width: 1.0;" x1="1799" x2="1799" y1="710.6992" y2="723.6992"/><line style="stroke: #A80036; stroke-width: 1.0;" x1="1758" x2="1799" y1="723.6992" y2="723.6992"/><polygon fill="#A80036" points="1768,719.6992,1758,723.6992,1768,727.6992,1764,723.6992" style="stroke: #A80036; stroke-width: 1.0;"/><text fill="#000000" font-family="sans-serif" font-size="13" lengthAdjust="spacingAndGlyphs" textLength="99" x="1764" y="705.957">NotifyCSItoCFW</text><polygon fill="#A80036" points="1619,748.6992,1609,752.6992,1619,756.6992,1615,752.6992" style="stroke: #A80036; stroke-width: 1.0;"/><line style="stroke: #A80036; stroke-width: 1.0;" x1="1613" x2="1756" y1="752.6992" y2="752.6992"/><text fill="#000000" font-family="sans-serif" font-size="13" lengthAdjust="spacingAndGlyphs" textLength="121" x="1625" y="748.2676">OnCMRNotification</text><polygon fill="#0000FF" points="1016,778.0098,1006,782.0098,1016,786.0098,1012,782.0098" style="stroke: #0000FF; stroke-width: 1.0;"/><line style="stroke: #0000FF; stroke-width: 1.0;" x1="1010" x2="1607" y1="782.0098" y2="782.0098"/><text fill="#000000" font-family="sans-serif" font-size="13" lengthAdjust="spacingAndGlyphs" textLength="121" x="1022" y="777.5781">OnCMRNotification</text><polygon fill="#A80036" points="1161,807.3203,1171,811.3203,1161,815.3203,1165,811.3203" style="stroke: #A80036; stroke-width: 1.0;"/><line style="stroke: #A80036; stroke-width: 1.0;" x1="1005" x2="1167" y1="811.3203" y2="811.3203"/><text fill="#000000" font-family="sans-serif" font-size="13" lengthAdjust="spacingAndGlyphs" textLength="105" x="1012" y="806.8887">UpdateMyselfCSI</text><line style="stroke: #A80036; stroke-width: 1.0;" x1="1173" x2="1215" y1="840.9414" y2="840.9414"/><line style="stroke: #A80036; stroke-width: 1.0;" x1="1215" x2="1215" y1="840.9414" y2="853.9414"/><line style="stroke: #A80036; stroke-width: 1.0;" x1="1174" x2="1215" y1="853.9414" y2="853.9414"/><polygon fill="#A80036" points="1184,849.9414,1174,853.9414,1184,857.9414,1180,853.9414" style="stroke: #A80036; stroke-width: 1.0;"/><text fill="#000000" font-family="sans-serif" font-size="13" lengthAdjust="spacingAndGlyphs" textLength="151" x="1180" y="836.1992">UpdateMyselfCSI2Cache</text><polygon fill="#A80036" points="862.5,878.9414,852.5,882.9414,862.5,886.9414,858.5,882.9414" style="stroke: #A80036; stroke-width: 1.0;"/><line style="stroke: #A80036; stroke-width: 1.0;" x1="856.5" x2="1172" y1="882.9414" y2="882.9414"/><text fill="#000000" font-family="sans-serif" font-size="13" lengthAdjust="spacingAndGlyphs" textLength="139" x="868.5" y="878.5098">UploadMyCSIInfoToCB</text><polygon fill="#A80036" points="540.5,908.252,530.5,912.252,540.5,916.252,536.5,912.252" style="stroke: #A80036; stroke-width: 1.0;"/><line style="stroke: #A80036; stroke-width: 1.0;" x1="534.5" x2="850.5" y1="912.252" y2="912.252"/><text fill="#000000" font-family="sans-serif" font-size="13" lengthAdjust="spacingAndGlyphs" textLength="86" x="546.5" y="907.8203">SetCacheData</text><line style="stroke: #A80036; stroke-width: 1.0;" x1="529.5" x2="571.5" y1="941.873" y2="941.873"/><line style="stroke: #A80036; stroke-width: 1.0;" x1="571.5" x2="571.5" y1="941.873" y2="954.873"/><line style="stroke: #A80036; stroke-width: 1.0;" x1="530.5" x2="571.5" y1="954.873" y2="954.873"/><polygon fill="#A80036" points="540.5,950.873,530.5,954.873,540.5,958.873,536.5,954.873" style="stroke: #A80036; stroke-width: 1.0;"/><text fill="#000000" font-family="sans-serif" font-size="13" lengthAdjust="spacingAndGlyphs" textLength="96" x="536.5" y="937.1309">PackCacheData</text><line style="stroke: #A80036; stroke-width: 1.0;" x1="529.5" x2="576.5" y1="979.1836" y2="979.1836"/><line style="stroke: #A80036; stroke-width: 1.0;" x1="576.5" x2="576.5" y1="979.1836" y2="992.1836"/><line style="stroke: #A80036; stroke-width: 1.0;" x1="535.5" x2="576.5" y1="992.1836" y2="992.1836"/><polygon fill="#A80036" points="545.5,988.1836,535.5,992.1836,545.5,996.1836,541.5,992.1836" style="stroke: #A80036; stroke-width: 1.0;"/><text fill="#000000" font-family="sans-serif" font-size="13" lengthAdjust="spacingAndGlyphs" textLength="97" x="541.5" y="974.4414">SendCacheData</text><polygon fill="#A80036" points="1161,1022.1836,1171,1026.1836,1161,1030.1836,1165,1026.1836" style="stroke: #A80036; stroke-width: 1.0;"/><line style="stroke: #A80036; stroke-width: 1.0;" x1="534.5" x2="1167" y1="1026.1836" y2="1026.1836"/><text fill="#000000" font-family="sans-serif" font-size="13" lengthAdjust="spacingAndGlyphs" textLength="75" x="541.5" y="1021.752">GetConfMgr</text><polygon fill="#A80036" points="367.5,1051.4941,357.5,1055.4941,367.5,1059.4941,363.5,1055.4941" style="stroke: #A80036; stroke-width: 1.0;"/><line style="stroke: #A80036; stroke-width: 1.0;" x1="361.5" x2="528.5" y1="1055.4941" y2="1055.4941"/><text fill="#000000" font-family="sans-serif" font-size="13" lengthAdjust="spacingAndGlyphs" textLength="144" x="373.5" y="1051.0625">CacheActionRequestEx</text><polygon fill="#0000FF" points="14,1080.8047,4,1084.8047,14,1088.8047,10,1084.8047" style="stroke: #0000FF; stroke-width: 1.0;"/><line style="stroke: #0000FF; stroke-width: 1.0;" x1="8" x2="355.5" y1="1084.8047" y2="1084.8047"/><text fill="#000000" font-family="sans-serif" font-size="13" lengthAdjust="spacingAndGlyphs" textLength="144" x="20" y="1080.373">CacheActionRequestEx</text></g></svg>