<?xml version="1.0" encoding="UTF-8" standalone="yes"?><svg xmlns="http://www.w3.org/2000/svg" xmlns:xlink="http://www.w3.org/1999/xlink" height="862pt" style="width:1399px;height:862px;" version="1.1" viewBox="0 0 1399 862" width="1399pt"><defs><filter height="300%" id="f1" width="300%" x="-1" y="-1"><feGaussianBlur result="blurOut" stdDeviation="2.0"/><feColorMatrix in="blurOut" result="blurOut2" type="matrix" values="0 0 0 0 0 0 0 0 0 0 0 0 0 0 0 0 0 0 .4 0"/><feOffset dx="4.0" dy="4.0" in="blurOut2" result="blurOut3"/><feBlend in="SourceGraphic" in2="blurOut3" mode="normal"/></filter></defs><g><rect fill="#FFFFFF" filter="url(#f1)" height="64.6211" style="stroke: #A80036; stroke-width: 1.0;" width="10" x="212.5" y="311.6621"/><rect fill="#FFFFFF" filter="url(#f1)" height="77.6211" style="stroke: #A80036; stroke-width: 1.0;" width="10" x="527.5" y="412.5938"/><rect fill="#FFFFFF" filter="url(#f1)" height="148.2422" style="stroke: #A80036; stroke-width: 1.0;" width="10" x="699.5" y="656.457"/><rect fill="#FFFFFF" filter="url(#f1)" height="63.6211" style="stroke: #A80036; stroke-width: 1.0;" width="10" x="704.5" y="741.0781"/><rect fill="#FFFFFF" filter="url(#f1)" height="76.6211" style="stroke: #A80036; stroke-width: 1.0;" width="10" x="982.5" y="166.4199"/><rect fill="#DDDDDD" height="857.498" style="stroke: #A80036; stroke-width: 1.0;" width="144" x="4" y="4"/><text fill="#000000" font-family="sans-serif" font-size="13" font-weight="bold" lengthAdjust="spacingAndGlyphs" textLength="96" x="28" y="16.5684">ConferencMgr</text><rect fill="#DDDDDD" height="857.498" style="stroke: #A80036; stroke-width: 1.0;" width="617.5" x="150" y="4"/><text fill="#000000" font-family="sans-serif" font-size="13" font-weight="bold" lengthAdjust="spacingAndGlyphs" textLength="75" x="421.25" y="16.5684">ServiceMgr</text><rect fill="#DDDDDD" height="857.498" style="stroke: #A80036; stroke-width: 1.0;" width="290" x="769.5" y="4"/><text fill="#000000" font-family="sans-serif" font-size="13" font-weight="bold" lengthAdjust="spacingAndGlyphs" textLength="63" x="883" y="16.5684">HybridCli</text><rect fill="#DDDDDD" height="857.498" style="stroke: #A80036; stroke-width: 1.0;" width="174" x="1061.5" y="4"/><text fill="#000000" font-family="sans-serif" font-size="13" font-weight="bold" lengthAdjust="spacingAndGlyphs" textLength="48" x="1124.5" y="16.5684">mac.dll</text><line style="stroke: #A80036; stroke-width: 1.0; stroke-dasharray: 5.0,5.0;" x1="76" x2="76" y1="58.7988" y2="823.0098"/><line style="stroke: #A80036; stroke-width: 1.0; stroke-dasharray: 5.0,5.0;" x1="217" x2="217" y1="58.7988" y2="823.0098"/><line style="stroke: #A80036; stroke-width: 1.0; stroke-dasharray: 5.0,5.0;" x1="392.5" x2="392.5" y1="58.7988" y2="823.0098"/><line style="stroke: #A80036; stroke-width: 1.0; stroke-dasharray: 5.0,5.0;" x1="532.5" x2="532.5" y1="58.7988" y2="823.0098"/><line style="stroke: #A80036; stroke-width: 1.0; stroke-dasharray: 5.0,5.0;" x1="704.5" x2="704.5" y1="58.7988" y2="823.0098"/><line style="stroke: #A80036; stroke-width: 1.0; stroke-dasharray: 5.0,5.0;" x1="841.5" x2="841.5" y1="58.7988" y2="823.0098"/><line style="stroke: #A80036; stroke-width: 1.0; stroke-dasharray: 5.0,5.0;" x1="987.5" x2="987.5" y1="58.7988" y2="823.0098"/><line style="stroke: #A80036; stroke-width: 1.0; stroke-dasharray: 5.0,5.0;" x1="1148.5" x2="1148.5" y1="58.7988" y2="823.0098"/><rect fill="#FEFECE" filter="url(#f1)" height="30.4883" style="stroke: #A80036; stroke-width: 1.5;" width="132" x="8" y="23.3105"/><text fill="#000000" font-family="sans-serif" font-size="14" lengthAdjust="spacingAndGlyphs" textLength="118" x="15" y="43.8457">CAtConfManager</text><rect fill="#FEFECE" filter="url(#f1)" height="30.4883" style="stroke: #A80036; stroke-width: 1.5;" width="132" x="8" y="822.0098"/><text fill="#000000" font-family="sans-serif" font-size="14" lengthAdjust="spacingAndGlyphs" textLength="118" x="15" y="842.5449">CAtConfManager</text><rect fill="#FEFECE" filter="url(#f1)" height="30.4883" style="stroke: #A80036; stroke-width: 1.5;" width="123" x="154" y="23.3105"/><text fill="#000000" font-family="sans-serif" font-size="14" lengthAdjust="spacingAndGlyphs" textLength="109" x="161" y="43.8457">CPfwServiceMgr</text><rect fill="#FEFECE" filter="url(#f1)" height="30.4883" style="stroke: #A80036; stroke-width: 1.5;" width="123" x="154" y="822.0098"/><text fill="#000000" font-family="sans-serif" font-size="14" lengthAdjust="spacingAndGlyphs" textLength="109" x="161" y="842.5449">CPfwServiceMgr</text><rect fill="#FEFECE" filter="url(#f1)" height="30.4883" style="stroke: #A80036; stroke-width: 1.5;" width="158" x="311.5" y="23.3105"/><text fill="#000000" font-family="sans-serif" font-size="14" lengthAdjust="spacingAndGlyphs" textLength="144" x="318.5" y="43.8457">CSmHybridAudioMgr</text><rect fill="#FEFECE" filter="url(#f1)" height="30.4883" style="stroke: #A80036; stroke-width: 1.5;" width="158" x="311.5" y="822.0098"/><text fill="#000000" font-family="sans-serif" font-size="14" lengthAdjust="spacingAndGlyphs" textLength="144" x="318.5" y="842.5449">CSmHybridAudioMgr</text><rect fill="#FEFECE" filter="url(#f1)" height="30.4883" style="stroke: #A80036; stroke-width: 1.5;" width="94" x="483.5" y="23.3105"/><text fill="#000000" font-family="sans-serif" font-size="14" lengthAdjust="spacingAndGlyphs" textLength="80" x="490.5" y="43.8457">CSmCSIMgr</text><rect fill="#FEFECE" filter="url(#f1)" height="30.4883" style="stroke: #A80036; stroke-width: 1.5;" width="94" x="483.5" y="822.0098"/><text fill="#000000" font-family="sans-serif" font-size="14" lengthAdjust="spacingAndGlyphs" textLength="80" x="490.5" y="842.5449">CSmCSIMgr</text><rect fill="#FEFECE" filter="url(#f1)" height="30.4883" style="stroke: #A80036; stroke-width: 1.5;" width="114" x="645.5" y="23.3105"/><text fill="#000000" font-family="sans-serif" font-size="14" lengthAdjust="spacingAndGlyphs" textLength="100" x="652.5" y="43.8457">CSmCacheMgr</text><rect fill="#FEFECE" filter="url(#f1)" height="30.4883" style="stroke: #A80036; stroke-width: 1.5;" width="114" x="645.5" y="822.0098"/><text fill="#000000" font-family="sans-serif" font-size="14" lengthAdjust="spacingAndGlyphs" textLength="100" x="652.5" y="842.5449">CSmCacheMgr</text><rect fill="#FEFECE" filter="url(#f1)" height="30.4883" style="stroke: #A80036; stroke-width: 1.5;" width="132" x="773.5" y="23.3105"/><text fill="#000000" font-family="sans-serif" font-size="14" lengthAdjust="spacingAndGlyphs" textLength="118" x="780.5" y="43.8457">IHybridClientSink</text><rect fill="#FEFECE" filter="url(#f1)" height="30.4883" style="stroke: #A80036; stroke-width: 1.5;" width="132" x="773.5" y="822.0098"/><text fill="#000000" font-family="sans-serif" font-size="14" lengthAdjust="spacingAndGlyphs" textLength="118" x="780.5" y="842.5449">IHybridClientSink</text><rect fill="#FEFECE" filter="url(#f1)" height="30.4883" style="stroke: #A80036; stroke-width: 1.5;" width="132" x="919.5" y="23.3105"/><text fill="#000000" font-family="sans-serif" font-size="14" lengthAdjust="spacingAndGlyphs" textLength="118" x="926.5" y="43.8457">CHCCVoIPService</text><rect fill="#FEFECE" filter="url(#f1)" height="30.4883" style="stroke: #A80036; stroke-width: 1.5;" width="132" x="919.5" y="822.0098"/><text fill="#000000" font-family="sans-serif" font-size="14" lengthAdjust="spacingAndGlyphs" textLength="118" x="926.5" y="842.5449">CHCCVoIPService</text><rect fill="#FEFECE" filter="url(#f1)" height="30.4883" style="stroke: #A80036; stroke-width: 1.5;" width="162" x="1065.5" y="23.3105"/><text fill="#000000" font-family="sans-serif" font-size="14" lengthAdjust="spacingAndGlyphs" textLength="148" x="1072.5" y="43.8457">CMMHybridClientSink</text><rect fill="#FEFECE" filter="url(#f1)" height="30.4883" style="stroke: #A80036; stroke-width: 1.5;" width="162" x="1065.5" y="822.0098"/><text fill="#000000" font-family="sans-serif" font-size="14" lengthAdjust="spacingAndGlyphs" textLength="148" x="1072.5" y="842.5449">CMMHybridClientSink</text><rect fill="#FFFFFF" filter="url(#f1)" height="64.6211" style="stroke: #A80036; stroke-width: 1.0;" width="10" x="212.5" y="311.6621"/><rect fill="#FFFFFF" filter="url(#f1)" height="77.6211" style="stroke: #A80036; stroke-width: 1.0;" width="10" x="527.5" y="412.5938"/><rect fill="#FFFFFF" filter="url(#f1)" height="148.2422" style="stroke: #A80036; stroke-width: 1.0;" width="10" x="699.5" y="656.457"/><rect fill="#FFFFFF" filter="url(#f1)" height="63.6211" style="stroke: #A80036; stroke-width: 1.0;" width="10" x="704.5" y="741.0781"/><rect fill="#FFFFFF" filter="url(#f1)" height="76.6211" style="stroke: #A80036; stroke-width: 1.0;" width="10" x="982.5" y="166.4199"/><polygon fill="#A80036" points="1159.5,85.7988,1149.5,89.7988,1159.5,93.7988,1155.5,89.7988" style="stroke: #A80036; stroke-width: 1.0;"/><line style="stroke: #A80036; stroke-width: 1.0;" x1="1153.5" x2="1393.5" y1="89.7988" y2="89.7988"/><text fill="#000000" font-family="sans-serif" font-size="13" lengthAdjust="spacingAndGlyphs" textLength="105" x="1165.5" y="85.3672">OnSessionStatus</text><polygon fill="#A80036" points="998.5,120.1094,988.5,124.1094,998.5,128.1094,994.5,124.1094" style="stroke: #A80036; stroke-width: 1.0;"/><line style="stroke: #A80036; stroke-width: 1.0;" x1="992.5" x2="1147.5" y1="124.1094" y2="124.1094"/><text fill="#000000" font-family="sans-serif" font-size="13" lengthAdjust="spacingAndGlyphs" textLength="105" x="1004.5" y="119.6777">OnSessionStatus</text><polygon fill="#FBFB77" filter="url(#f1)" points="1153,103.1094,1153,128.1094,1385,128.1094,1385,113.1094,1375,103.1094,1153,103.1094" style="stroke: #A80036; stroke-width: 1.0;"/><line style="stroke: #A80036; stroke-width: 1.0;" x1="1375" x2="1375" y1="103.1094" y2="113.1094"/><line style="stroke: #A80036; stroke-width: 1.0;" x1="1385" x2="1375" y1="113.1094" y2="113.1094"/><text fill="#000000" font-family="sans-serif" font-size="13" lengthAdjust="spacingAndGlyphs" textLength="211" x="1159" y="120.6777">WEBEX_AUDIO_OWN_CSI_UPDATE</text><line style="stroke: #A80036; stroke-width: 1.0;" x1="987.5" x2="1034.5" y1="153.7305" y2="153.7305"/><line style="stroke: #A80036; stroke-width: 1.0;" x1="1034.5" x2="1034.5" y1="153.7305" y2="166.7305"/><line style="stroke: #A80036; stroke-width: 1.0;" x1="993.5" x2="1034.5" y1="166.7305" y2="166.7305"/><polygon fill="#A80036" points="1003.5,162.7305,993.5,166.7305,1003.5,170.7305,999.5,166.7305" style="stroke: #A80036; stroke-width: 1.0;"/><text fill="#000000" font-family="sans-serif" font-size="13" lengthAdjust="spacingAndGlyphs" textLength="94" x="999.5" y="148.9883">OnAudioNotify</text><line style="stroke: #A80036; stroke-width: 1.0;" x1="992.5" x2="1034.5" y1="201.041" y2="201.041"/><line style="stroke: #A80036; stroke-width: 1.0;" x1="1034.5" x2="1034.5" y1="201.041" y2="214.041"/><line style="stroke: #A80036; stroke-width: 1.0;" x1="993.5" x2="1034.5" y1="214.041" y2="214.041"/><polygon fill="#A80036" points="1003.5,210.041,993.5,214.041,1003.5,218.041,999.5,214.041" style="stroke: #A80036; stroke-width: 1.0;"/><text fill="#000000" font-family="sans-serif" font-size="13" lengthAdjust="spacingAndGlyphs" textLength="90" x="999.5" y="196.2988">GetHybridSink</text><polygon fill="#FBFB77" filter="url(#f1)" points="1101,186.2305,1101,211.2305,1257,211.2305,1257,196.2305,1247,186.2305,1101,186.2305" style="stroke: #A80036; stroke-width: 1.0;"/><line style="stroke: #A80036; stroke-width: 1.0;" x1="1247" x2="1247" y1="186.2305" y2="196.2305"/><line style="stroke: #A80036; stroke-width: 1.0;" x1="1257" x2="1247" y1="196.2305" y2="196.2305"/><text fill="#000000" font-family="sans-serif" font-size="13" lengthAdjust="spacingAndGlyphs" textLength="135" x="1107" y="203.7988">Get IHybridClientSink</text><polygon fill="#A80036" points="852.5,239.041,842.5,243.041,852.5,247.041,848.5,243.041" style="stroke: #A80036; stroke-width: 1.0;"/><line style="stroke: #A80036; stroke-width: 1.0;" x1="846.5" x2="986.5" y1="243.041" y2="243.041"/><text fill="#000000" font-family="sans-serif" font-size="13" lengthAdjust="spacingAndGlyphs" textLength="94" x="858.5" y="238.6094">OnAudioNotify</text><polygon fill="#A80036" points="403.5,273.3516,393.5,277.3516,403.5,281.3516,399.5,277.3516" style="stroke: #A80036; stroke-width: 1.0;"/><line style="stroke: #A80036; stroke-width: 1.0;" x1="397.5" x2="840.5" y1="277.3516" y2="277.3516"/><text fill="#000000" font-family="sans-serif" font-size="13" lengthAdjust="spacingAndGlyphs" textLength="94" x="409.5" y="272.9199">OnAudioNotify</text><polygon fill="#FBFB77" filter="url(#f1)" points="846,256.3516,846,281.3516,1078,281.3516,1078,266.3516,1068,256.3516,846,256.3516" style="stroke: #A80036; stroke-width: 1.0;"/><line style="stroke: #A80036; stroke-width: 1.0;" x1="1068" x2="1068" y1="256.3516" y2="266.3516"/><line style="stroke: #A80036; stroke-width: 1.0;" x1="1078" x2="1068" y1="266.3516" y2="266.3516"/><text fill="#000000" font-family="sans-serif" font-size="13" lengthAdjust="spacingAndGlyphs" textLength="211" x="852" y="273.9199">WEBEX_AUDIO_OWN_CSI_UPDATE</text><polygon fill="#A80036" points="233.5,307.6621,223.5,311.6621,233.5,315.6621,229.5,311.6621" style="stroke: #A80036; stroke-width: 1.0;"/><line style="stroke: #A80036; stroke-width: 1.0;" x1="227.5" x2="391.5" y1="311.6621" y2="311.6621"/><text fill="#000000" font-family="sans-serif" font-size="13" lengthAdjust="spacingAndGlyphs" textLength="105" x="239.5" y="307.2305">UpdateMyselfCSI</text><polygon fill="#A80036" points="87,336.9727,77,340.9727,87,344.9727,83,340.9727" style="stroke: #A80036; stroke-width: 1.0;"/><line style="stroke: #A80036; stroke-width: 1.0;" x1="81" x2="211.5" y1="340.9727" y2="340.9727"/><text fill="#000000" font-family="sans-serif" font-size="13" lengthAdjust="spacingAndGlyphs" textLength="96" x="93" y="336.541">GetCurrentUser</text><line style="stroke: #A80036; stroke-width: 1.0;" x1="222.5" x2="264.5" y1="375.5938" y2="375.5938"/><line style="stroke: #A80036; stroke-width: 1.0;" x1="264.5" x2="264.5" y1="375.5938" y2="388.5938"/><line style="stroke: #A80036; stroke-width: 1.0;" x1="217.5" x2="264.5" y1="388.5938" y2="388.5938"/><polygon fill="#A80036" points="227.5,384.5938,217.5,388.5938,227.5,392.5938,223.5,388.5938" style="stroke: #A80036; stroke-width: 1.0;"/><text fill="#000000" font-family="sans-serif" font-size="13" lengthAdjust="spacingAndGlyphs" textLength="151" x="229.5" y="370.8516">UpdateMyselfCSI2Cache</text><polygon fill="#A80036" points="515.5,408.5938,525.5,412.5938,515.5,416.5938,519.5,412.5938" style="stroke: #A80036; stroke-width: 1.0;"/><line style="stroke: #A80036; stroke-width: 1.0;" x1="217.5" x2="521.5" y1="412.5938" y2="412.5938"/><text fill="#000000" font-family="sans-serif" font-size="13" lengthAdjust="spacingAndGlyphs" textLength="139" x="224.5" y="408.1621">UploadMyCSIInfoToCB</text><line style="stroke: #A80036; stroke-width: 1.0;" x1="537.5" x2="579.5" y1="442.2148" y2="442.2148"/><line style="stroke: #A80036; stroke-width: 1.0;" x1="579.5" x2="579.5" y1="442.2148" y2="455.2148"/><line style="stroke: #A80036; stroke-width: 1.0;" x1="538.5" x2="579.5" y1="455.2148" y2="455.2148"/><polygon fill="#A80036" points="548.5,451.2148,538.5,455.2148,548.5,459.2148,544.5,455.2148" style="stroke: #A80036; stroke-width: 1.0;"/><text fill="#000000" font-family="sans-serif" font-size="13" lengthAdjust="spacingAndGlyphs" textLength="108" x="544.5" y="437.4727">BackupMyCSIInfo</text><polygon fill="#FBFB77" filter="url(#f1)" points="664,427.4043,664,452.4043,812,452.4043,812,437.4043,802,427.4043,664,427.4043" style="stroke: #A80036; stroke-width: 1.0;"/><line style="stroke: #A80036; stroke-width: 1.0;" x1="802" x2="802" y1="427.4043" y2="437.4043"/><line style="stroke: #A80036; stroke-width: 1.0;" x1="812" x2="802" y1="437.4043" y2="437.4043"/><text fill="#000000" font-family="sans-serif" font-size="13" lengthAdjust="spacingAndGlyphs" textLength="127" x="670" y="444.9727">save to auCacheInfo</text><line style="stroke: #A80036; stroke-width: 1.0;" x1="537.5" x2="579.5" y1="489.5254" y2="489.5254"/><line style="stroke: #A80036; stroke-width: 1.0;" x1="579.5" x2="579.5" y1="489.5254" y2="502.5254"/><line style="stroke: #A80036; stroke-width: 1.0;" x1="532.5" x2="579.5" y1="502.5254" y2="502.5254"/><polygon fill="#A80036" points="542.5,498.5254,532.5,502.5254,542.5,506.5254,538.5,502.5254" style="stroke: #A80036; stroke-width: 1.0;"/><text fill="#000000" font-family="sans-serif" font-size="13" lengthAdjust="spacingAndGlyphs" textLength="148" x="544.5" y="484.7832">SendOutCacheInfoToCB</text><polygon fill="#A80036" points="692.5,527.5254,702.5,531.5254,692.5,535.5254,696.5,531.5254" style="stroke: #A80036; stroke-width: 1.0;"/><line style="stroke: #A80036; stroke-width: 1.0;" x1="532.5" x2="698.5" y1="531.5254" y2="531.5254"/><text fill="#000000" font-family="sans-serif" font-size="13" lengthAdjust="spacingAndGlyphs" textLength="25" x="539.5" y="527.0938">Add</text><polygon fill="#FBFB77" filter="url(#f1)" points="709,510.5254,709,535.5254,960,535.5254,960,520.5254,950,510.5254,709,510.5254" style="stroke: #A80036; stroke-width: 1.0;"/><line style="stroke: #A80036; stroke-width: 1.0;" x1="950" x2="950" y1="510.5254" y2="520.5254"/><line style="stroke: #A80036; stroke-width: 1.0;" x1="960" x2="950" y1="520.5254" y2="520.5254"/><text fill="#000000" font-family="sans-serif" font-size="13" lengthAdjust="spacingAndGlyphs" textLength="230" x="715" y="528.0938">eSetCacheData, push to m_wkQueue</text><rect fill="#EEEEEE" filter="url(#f1)" height="3" style="stroke: #EEEEEE; stroke-width: 1.0;" width="1391.5" x="3" y="565.4912"/><line style="stroke: #000000; stroke-width: 1.0;" x1="3" x2="1394.5" y1="565.4912" y2="565.4912"/><line style="stroke: #000000; stroke-width: 1.0;" x1="3" x2="1394.5" y1="568.4912" y2="568.4912"/><rect fill="#EEEEEE" filter="url(#f1)" height="23.3105" style="stroke: #000000; stroke-width: 2.0;" width="109" x="644.25" y="554.8359"/><text fill="#000000" font-family="sans-serif" font-size="13" font-weight="bold" lengthAdjust="spacingAndGlyphs" textLength="95" x="650.25" y="571.4043">Send CSI to CB</text><polygon fill="#A80036" points="692.5,610.1465,702.5,614.1465,692.5,618.1465,696.5,614.1465" style="stroke: #A80036; stroke-width: 1.0;"/><line style="stroke: #A80036; stroke-width: 1.0;" x1="3" x2="698.5" y1="614.1465" y2="614.1465"/><text fill="#000000" font-family="sans-serif" font-size="13" lengthAdjust="spacingAndGlyphs" textLength="41" x="10" y="609.7148">OnIdle</text><polygon fill="#FBFB77" filter="url(#f1)" points="709,593.1465,709,618.1465,907,618.1465,907,603.1465,897,593.1465,709,593.1465" style="stroke: #A80036; stroke-width: 1.0;"/><line style="stroke: #A80036; stroke-width: 1.0;" x1="897" x2="897" y1="593.1465" y2="603.1465"/><line style="stroke: #A80036; stroke-width: 1.0;" x1="907" x2="897" y1="603.1465" y2="603.1465"/><text fill="#000000" font-family="sans-serif" font-size="13" lengthAdjust="spacingAndGlyphs" textLength="177" x="715" y="610.7148">CSI_COMMON_CACHE_INFO</text><line style="stroke: #A80036; stroke-width: 1.0;" x1="704.5" x2="751.5" y1="643.7676" y2="643.7676"/><line style="stroke: #A80036; stroke-width: 1.0;" x1="751.5" x2="751.5" y1="643.7676" y2="656.7676"/><line style="stroke: #A80036; stroke-width: 1.0;" x1="710.5" x2="751.5" y1="656.7676" y2="656.7676"/><polygon fill="#A80036" points="720.5,652.7676,710.5,656.7676,720.5,660.7676,716.5,656.7676" style="stroke: #A80036; stroke-width: 1.0;"/><text fill="#000000" font-family="sans-serif" font-size="13" lengthAdjust="spacingAndGlyphs" textLength="86" x="716.5" y="639.0254">SetCacheData</text><polygon fill="#FBFB77" filter="url(#f1)" points="814,633.957,814,658.957,1075,658.957,1075,643.957,1065,633.957,814,633.957" style="stroke: #A80036; stroke-width: 1.0;"/><line style="stroke: #A80036; stroke-width: 1.0;" x1="1065" x2="1065" y1="633.957" y2="643.957"/><line style="stroke: #A80036; stroke-width: 1.0;" x1="1075" x2="1065" y1="643.957" y2="643.957"/><text fill="#000000" font-family="sans-serif" font-size="13" lengthAdjust="spacingAndGlyphs" textLength="240" x="820" y="651.5254">eSetCacheData, pop from m_wkQueue</text><line style="stroke: #A80036; stroke-width: 1.0;" x1="709.5" x2="751.5" y1="691.0781" y2="691.0781"/><line style="stroke: #A80036; stroke-width: 1.0;" x1="751.5" x2="751.5" y1="691.0781" y2="704.0781"/><line style="stroke: #A80036; stroke-width: 1.0;" x1="710.5" x2="751.5" y1="704.0781" y2="704.0781"/><polygon fill="#A80036" points="720.5,700.0781,710.5,704.0781,720.5,708.0781,716.5,704.0781" style="stroke: #A80036; stroke-width: 1.0;"/><text fill="#000000" font-family="sans-serif" font-size="13" lengthAdjust="spacingAndGlyphs" textLength="96" x="716.5" y="686.3359">PackCacheData</text><line style="stroke: #A80036; stroke-width: 1.0;" x1="709.5" x2="756.5" y1="728.3887" y2="728.3887"/><line style="stroke: #A80036; stroke-width: 1.0;" x1="756.5" x2="756.5" y1="728.3887" y2="741.3887"/><line style="stroke: #A80036; stroke-width: 1.0;" x1="715.5" x2="756.5" y1="741.3887" y2="741.3887"/><polygon fill="#A80036" points="725.5,737.3887,715.5,741.3887,725.5,745.3887,721.5,741.3887" style="stroke: #A80036; stroke-width: 1.0;"/><text fill="#000000" font-family="sans-serif" font-size="13" lengthAdjust="spacingAndGlyphs" textLength="97" x="721.5" y="723.6465">SendCacheData</text><polygon fill="#A80036" points="228.5,771.3887,218.5,775.3887,228.5,779.3887,224.5,775.3887" style="stroke: #A80036; stroke-width: 1.0;"/><line style="stroke: #A80036; stroke-width: 1.0;" x1="222.5" x2="703.5" y1="775.3887" y2="775.3887"/><text fill="#000000" font-family="sans-serif" font-size="13" lengthAdjust="spacingAndGlyphs" textLength="75" x="234.5" y="770.957">GetConfMgr</text><polygon fill="#A80036" points="87,800.6992,77,804.6992,87,808.6992,83,804.6992" style="stroke: #A80036; stroke-width: 1.0;"/><line style="stroke: #A80036; stroke-width: 1.0;" x1="81" x2="703.5" y1="804.6992" y2="804.6992"/><text fill="#000000" font-family="sans-serif" font-size="13" lengthAdjust="spacingAndGlyphs" textLength="144" x="93" y="800.2676">CacheActionRequestEx</text></g></svg>