<?xml version="1.0" encoding="UTF-8" standalone="yes"?><svg xmlns="http://www.w3.org/2000/svg" xmlns:xlink="http://www.w3.org/1999/xlink" height="1017pt" style="width:2342px;height:1017px;" version="1.1" viewBox="0 0 2342 1017" width="2342pt"><defs><filter height="300%" id="f1" width="300%" x="-1" y="-1"><feGaussianBlur result="blurOut" stdDeviation="2.0"/><feColorMatrix in="blurOut" result="blurOut2" type="matrix" values="0 0 0 0 0 0 0 0 0 0 0 0 0 0 0 0 0 0 .4 0"/><feOffset dx="4.0" dy="4.0" in="blurOut2" result="blurOut3"/><feBlend in="SourceGraphic" in2="blurOut3" mode="normal"/></filter></defs><g><rect fill="#FFFFFF" filter="url(#f1)" height="227.8633" style="stroke: #A80036; stroke-width: 1.0;" width="10" x="347" y="431.9043"/><rect fill="#FFFFFF" filter="url(#f1)" height="148.2422" style="stroke: #A80036; stroke-width: 1.0;" width="10" x="352" y="511.5254"/><rect fill="#FFFFFF" filter="url(#f1)" height="82.6211" style="stroke: #A80036; stroke-width: 1.0;" width="10" x="500" y="254.3516"/><rect fill="#DDDDDD" height="1012.3613" style="stroke: #A80036; stroke-width: 1.0;" width="167" x="115.5" y="4"/><text fill="#000000" font-family="sans-serif" font-size="13" font-weight="bold" lengthAdjust="spacingAndGlyphs" textLength="96" x="151" y="16.5684">ConferencMgr</text><rect fill="#DDDDDD" height="1012.3613" style="stroke: #A80036; stroke-width: 1.0;" width="767.5" x="284.5" y="4"/><text fill="#000000" font-family="sans-serif" font-size="13" font-weight="bold" lengthAdjust="spacingAndGlyphs" textLength="75" x="630.75" y="16.5684">ServiceMgr</text><rect fill="#DDDDDD" height="1012.3613" style="stroke: #A80036; stroke-width: 1.0;" width="133" x="1054" y="4"/><text fill="#000000" font-family="sans-serif" font-size="13" font-weight="bold" lengthAdjust="spacingAndGlyphs" textLength="72" x="1084.5" y="16.5684">WebExMgr</text><rect fill="#DDDDDD" height="1012.3613" style="stroke: #A80036; stroke-width: 1.0;" width="177" x="1189" y="4"/><text fill="#000000" font-family="sans-serif" font-size="13" font-weight="bold" lengthAdjust="spacingAndGlyphs" textLength="20" x="1267.5" y="16.5684">cm</text><rect fill="#DDDDDD" height="1012.3613" style="stroke: #A80036; stroke-width: 1.0;" width="883" x="1368" y="4"/><text fill="#000000" font-family="sans-serif" font-size="13" font-weight="bold" lengthAdjust="spacingAndGlyphs" textLength="63" x="1778" y="16.5684">HybridCli</text><rect fill="#DDDDDD" height="1012.3613" style="stroke: #A80036; stroke-width: 1.0;" width="76" x="2265" y="4"/><text fill="#000000" font-family="sans-serif" font-size="13" font-weight="bold" lengthAdjust="spacingAndGlyphs" textLength="48" x="2279" y="16.5684">mac.dll</text><line style="stroke: #A80036; stroke-width: 1.0; stroke-dasharray: 5.0,5.0;" x1="198.5" x2="198.5" y1="58.7988" y2="977.873"/><line style="stroke: #A80036; stroke-width: 1.0; stroke-dasharray: 5.0,5.0;" x1="351.5" x2="351.5" y1="58.7988" y2="977.873"/><line style="stroke: #A80036; stroke-width: 1.0; stroke-dasharray: 5.0,5.0;" x1="505" x2="505" y1="58.7988" y2="977.873"/><line style="stroke: #A80036; stroke-width: 1.0; stroke-dasharray: 5.0,5.0;" x1="665.5" x2="665.5" y1="58.7988" y2="977.873"/><line style="stroke: #A80036; stroke-width: 1.0; stroke-dasharray: 5.0,5.0;" x1="827" x2="827" y1="58.7988" y2="977.873"/><line style="stroke: #A80036; stroke-width: 1.0; stroke-dasharray: 5.0,5.0;" x1="967" x2="967" y1="58.7988" y2="977.873"/><line style="stroke: #A80036; stroke-width: 1.0; stroke-dasharray: 5.0,5.0;" x1="1120" x2="1120" y1="58.7988" y2="977.873"/><line style="stroke: #A80036; stroke-width: 1.0; stroke-dasharray: 5.0,5.0;" x1="1277" x2="1277" y1="58.7988" y2="977.873"/><line style="stroke: #A80036; stroke-width: 1.0; stroke-dasharray: 5.0,5.0;" x1="1414" x2="1414" y1="58.7988" y2="977.873"/><line style="stroke: #A80036; stroke-width: 1.0; stroke-dasharray: 5.0,5.0;" x1="1535" x2="1535" y1="58.7988" y2="977.873"/><line style="stroke: #A80036; stroke-width: 1.0; stroke-dasharray: 5.0,5.0;" x1="1684" x2="1684" y1="58.7988" y2="977.873"/><line style="stroke: #A80036; stroke-width: 1.0; stroke-dasharray: 5.0,5.0;" x1="1853" x2="1853" y1="58.7988" y2="977.873"/><line style="stroke: #A80036; stroke-width: 1.0; stroke-dasharray: 5.0,5.0;" x1="2008" x2="2008" y1="58.7988" y2="977.873"/><line style="stroke: #A80036; stroke-width: 1.0; stroke-dasharray: 5.0,5.0;" x1="2171" x2="2171" y1="58.7988" y2="977.873"/><line style="stroke: #A80036; stroke-width: 1.0; stroke-dasharray: 5.0,5.0;" x1="2303" x2="2303" y1="58.7988" y2="977.873"/><rect fill="#FEFECE" filter="url(#f1)" height="30.4883" style="stroke: #A80036; stroke-width: 1.5;" width="155" x="119.5" y="23.3105"/><text fill="#000000" font-family="sans-serif" font-size="14" lengthAdjust="spacingAndGlyphs" textLength="141" x="126.5" y="43.8457">IAtConfManagerSink</text><rect fill="#FEFECE" filter="url(#f1)" height="30.4883" style="stroke: #A80036; stroke-width: 1.5;" width="155" x="119.5" y="976.873"/><text fill="#000000" font-family="sans-serif" font-size="14" lengthAdjust="spacingAndGlyphs" textLength="141" x="126.5" y="997.4082">IAtConfManagerSink</text><rect fill="#FEFECE" filter="url(#f1)" height="30.4883" style="stroke: #A80036; stroke-width: 1.5;" width="123" x="288.5" y="23.3105"/><text fill="#000000" font-family="sans-serif" font-size="14" lengthAdjust="spacingAndGlyphs" textLength="109" x="295.5" y="43.8457">CPfwServiceMgr</text><rect fill="#FEFECE" filter="url(#f1)" height="30.4883" style="stroke: #A80036; stroke-width: 1.5;" width="123" x="288.5" y="976.873"/><text fill="#000000" font-family="sans-serif" font-size="14" lengthAdjust="spacingAndGlyphs" textLength="109" x="295.5" y="997.4082">CPfwServiceMgr</text><rect fill="#FEFECE" filter="url(#f1)" height="30.4883" style="stroke: #A80036; stroke-width: 1.5;" width="114" x="446" y="23.3105"/><text fill="#000000" font-family="sans-serif" font-size="14" lengthAdjust="spacingAndGlyphs" textLength="100" x="453" y="43.8457">CSmCacheMgr</text><rect fill="#FEFECE" filter="url(#f1)" height="30.4883" style="stroke: #A80036; stroke-width: 1.5;" width="114" x="446" y="976.873"/><text fill="#000000" font-family="sans-serif" font-size="14" lengthAdjust="spacingAndGlyphs" textLength="100" x="453" y="997.4082">CSmCacheMgr</text><rect fill="#FEFECE" filter="url(#f1)" height="30.4883" style="stroke: #A80036; stroke-width: 1.5;" width="159" x="584.5" y="23.3105"/><text fill="#000000" font-family="sans-serif" font-size="14" lengthAdjust="spacingAndGlyphs" textLength="145" x="591.5" y="43.8457">ISmCacheUpdateSink</text><rect fill="#FEFECE" filter="url(#f1)" height="30.4883" style="stroke: #A80036; stroke-width: 1.5;" width="159" x="584.5" y="976.873"/><text fill="#000000" font-family="sans-serif" font-size="14" lengthAdjust="spacingAndGlyphs" textLength="145" x="591.5" y="997.4082">ISmCacheUpdateSink</text><rect fill="#FEFECE" filter="url(#f1)" height="30.4883" style="stroke: #A80036; stroke-width: 1.5;" width="94" x="778" y="23.3105"/><text fill="#000000" font-family="sans-serif" font-size="14" lengthAdjust="spacingAndGlyphs" textLength="80" x="785" y="43.8457">CSmCSIMgr</text><rect fill="#FEFECE" filter="url(#f1)" height="30.4883" style="stroke: #A80036; stroke-width: 1.5;" width="94" x="778" y="976.873"/><text fill="#000000" font-family="sans-serif" font-size="14" lengthAdjust="spacingAndGlyphs" textLength="80" x="785" y="997.4082">CSmCSIMgr</text><rect fill="#FEFECE" filter="url(#f1)" height="30.4883" style="stroke: #A80036; stroke-width: 1.5;" width="158" x="886" y="23.3105"/><text fill="#000000" font-family="sans-serif" font-size="14" lengthAdjust="spacingAndGlyphs" textLength="144" x="893" y="43.8457">CSmHybridAudioMgr</text><rect fill="#FEFECE" filter="url(#f1)" height="30.4883" style="stroke: #A80036; stroke-width: 1.5;" width="158" x="886" y="976.873"/><text fill="#000000" font-family="sans-serif" font-size="14" lengthAdjust="spacingAndGlyphs" textLength="144" x="893" y="997.4082">CSmHybridAudioMgr</text><rect fill="#FEFECE" filter="url(#f1)" height="30.4883" style="stroke: #A80036; stroke-width: 1.5;" width="121" x="1058" y="23.3105"/><text fill="#000000" font-family="sans-serif" font-size="14" lengthAdjust="spacingAndGlyphs" textLength="107" x="1065" y="43.8457">CMCServiceMgr</text><rect fill="#FEFECE" filter="url(#f1)" height="30.4883" style="stroke: #A80036; stroke-width: 1.5;" width="121" x="1058" y="976.873"/><text fill="#000000" font-family="sans-serif" font-size="14" lengthAdjust="spacingAndGlyphs" textLength="107" x="1065" y="997.4082">CMCServiceMgr</text><rect fill="#FEFECE" filter="url(#f1)" height="30.4883" style="stroke: #A80036; stroke-width: 1.5;" width="165" x="1193" y="23.3105"/><text fill="#000000" font-family="sans-serif" font-size="14" lengthAdjust="spacingAndGlyphs" textLength="151" x="1200" y="43.8457">CPcmHybridAudioMgr</text><rect fill="#FEFECE" filter="url(#f1)" height="30.4883" style="stroke: #A80036; stroke-width: 1.5;" width="165" x="1193" y="976.873"/><text fill="#000000" font-family="sans-serif" font-size="14" lengthAdjust="spacingAndGlyphs" textLength="151" x="1200" y="997.4082">CPcmHybridAudioMgr</text><rect fill="#FEFECE" filter="url(#f1)" height="30.4883" style="stroke: #A80036; stroke-width: 1.5;" width="80" x="1372" y="23.3105"/><text fill="#000000" font-family="sans-serif" font-size="14" lengthAdjust="spacingAndGlyphs" textLength="66" x="1379" y="43.8457">hybridAPI</text><rect fill="#FEFECE" filter="url(#f1)" height="30.4883" style="stroke: #A80036; stroke-width: 1.5;" width="80" x="1372" y="976.873"/><text fill="#000000" font-family="sans-serif" font-size="14" lengthAdjust="spacingAndGlyphs" textLength="66" x="1379" y="997.4082">hybridAPI</text><rect fill="#FEFECE" filter="url(#f1)" height="30.4883" style="stroke: #A80036; stroke-width: 1.5;" width="134" x="1466" y="23.3105"/><text fill="#000000" font-family="sans-serif" font-size="14" lengthAdjust="spacingAndGlyphs" textLength="120" x="1473" y="43.8457">CHybridClientCtrl</text><rect fill="#FEFECE" filter="url(#f1)" height="30.4883" style="stroke: #A80036; stroke-width: 1.5;" width="134" x="1466" y="976.873"/><text fill="#000000" font-family="sans-serif" font-size="14" lengthAdjust="spacingAndGlyphs" textLength="120" x="1473" y="997.4082">CHybridClientCtrl</text><rect fill="#FEFECE" filter="url(#f1)" height="30.4883" style="stroke: #A80036; stroke-width: 1.5;" width="136" x="1614" y="23.3105"/><text fill="#000000" font-family="sans-serif" font-size="14" lengthAdjust="spacingAndGlyphs" textLength="122" x="1621" y="43.8457">CHybridClientMgr</text><rect fill="#FEFECE" filter="url(#f1)" height="30.4883" style="stroke: #A80036; stroke-width: 1.5;" width="136" x="1614" y="976.873"/><text fill="#000000" font-family="sans-serif" font-size="14" lengthAdjust="spacingAndGlyphs" textLength="122" x="1621" y="997.4082">CHybridClientMgr</text><rect fill="#FEFECE" filter="url(#f1)" height="30.4883" style="stroke: #A80036; stroke-width: 1.5;" width="132" x="1785" y="23.3105"/><text fill="#000000" font-family="sans-serif" font-size="14" lengthAdjust="spacingAndGlyphs" textLength="118" x="1792" y="43.8457">CHCCVoIPService</text><rect fill="#FEFECE" filter="url(#f1)" height="30.4883" style="stroke: #A80036; stroke-width: 1.5;" width="132" x="1785" y="976.873"/><text fill="#000000" font-family="sans-serif" font-size="14" lengthAdjust="spacingAndGlyphs" textLength="118" x="1792" y="997.4082">CHCCVoIPService</text><rect fill="#FEFECE" filter="url(#f1)" height="30.4883" style="stroke: #A80036; stroke-width: 1.5;" width="150" x="1931" y="23.3105"/><text fill="#000000" font-family="sans-serif" font-size="14" lengthAdjust="spacingAndGlyphs" textLength="136" x="1938" y="43.8457">CHybridVoIPModule</text><rect fill="#FEFECE" filter="url(#f1)" height="30.4883" style="stroke: #A80036; stroke-width: 1.5;" width="150" x="1931" y="976.873"/><text fill="#000000" font-family="sans-serif" font-size="14" lengthAdjust="spacingAndGlyphs" textLength="136" x="1938" y="997.4082">CHybridVoIPModule</text><rect fill="#FEFECE" filter="url(#f1)" height="30.4883" style="stroke: #A80036; stroke-width: 1.5;" width="148" x="2095" y="23.3105"/><text fill="#000000" font-family="sans-serif" font-size="14" lengthAdjust="spacingAndGlyphs" textLength="134" x="2102" y="43.8457">AudioExportedProc</text><rect fill="#FEFECE" filter="url(#f1)" height="30.4883" style="stroke: #A80036; stroke-width: 1.5;" width="148" x="2095" y="976.873"/><text fill="#000000" font-family="sans-serif" font-size="14" lengthAdjust="spacingAndGlyphs" textLength="134" x="2102" y="997.4082">AudioExportedProc</text><rect fill="#FEFECE" filter="url(#f1)" height="30.4883" style="stroke: #A80036; stroke-width: 1.5;" width="64" x="2269" y="23.3105"/><text fill="#000000" font-family="sans-serif" font-size="14" lengthAdjust="spacingAndGlyphs" textLength="50" x="2276" y="43.8457">macAPI</text><rect fill="#FEFECE" filter="url(#f1)" height="30.4883" style="stroke: #A80036; stroke-width: 1.5;" width="64" x="2269" y="976.873"/><text fill="#000000" font-family="sans-serif" font-size="14" lengthAdjust="spacingAndGlyphs" textLength="50" x="2276" y="997.4082">macAPI</text><rect fill="#FFFFFF" filter="url(#f1)" height="227.8633" style="stroke: #A80036; stroke-width: 1.0;" width="10" x="347" y="431.9043"/><rect fill="#FFFFFF" filter="url(#f1)" height="148.2422" style="stroke: #A80036; stroke-width: 1.0;" width="10" x="352" y="511.5254"/><rect fill="#FFFFFF" filter="url(#f1)" height="82.6211" style="stroke: #A80036; stroke-width: 1.0;" width="10" x="500" y="254.3516"/><polygon fill="#A80036" points="187,85.7988,197,89.7988,187,93.7988,191,89.7988" style="stroke: #A80036; stroke-width: 1.0;"/><line style="stroke: #A80036; stroke-width: 1.0;" x1="3" x2="193" y1="89.7988" y2="89.7988"/><text fill="#000000" font-family="sans-serif" font-size="13" lengthAdjust="spacingAndGlyphs" textLength="172" x="10" y="85.3672">OnCacheRetrieveConfirmEx</text><polygon fill="#A80036" points="1108.5,115.1094,1118.5,119.1094,1108.5,123.1094,1112.5,119.1094" style="stroke: #A80036; stroke-width: 1.0;"/><line style="stroke: #A80036; stroke-width: 1.0;" x1="199" x2="1114.5" y1="119.1094" y2="119.1094"/><text fill="#000000" font-family="sans-serif" font-size="13" lengthAdjust="spacingAndGlyphs" textLength="172" x="206" y="114.6777">OnCacheRetrieveConfirmEx</text><polygon fill="#A80036" points="363,144.4199,353,148.4199,363,152.4199,359,148.4199" style="stroke: #A80036; stroke-width: 1.0;"/><line style="stroke: #A80036; stroke-width: 1.0;" x1="357" x2="1119.5" y1="148.4199" y2="148.4199"/><text fill="#000000" font-family="sans-serif" font-size="13" lengthAdjust="spacingAndGlyphs" textLength="172" x="369" y="143.9883">OnCacheRetrieveConfirmEx</text><polygon fill="#A80036" points="815,173.7305,825,177.7305,815,181.7305,819,177.7305" style="stroke: #A80036; stroke-width: 1.0;"/><line style="stroke: #A80036; stroke-width: 1.0;" x1="352" x2="821" y1="177.7305" y2="177.7305"/><text fill="#000000" font-family="sans-serif" font-size="13" lengthAdjust="spacingAndGlyphs" textLength="172" x="359" y="173.2988">OnCacheRetrieveConfirmEx</text><polygon fill="#A80036" points="516,208.041,506,212.041,516,216.041,512,212.041" style="stroke: #A80036; stroke-width: 1.0;"/><line style="stroke: #A80036; stroke-width: 1.0;" x1="510" x2="826" y1="212.041" y2="212.041"/><text fill="#000000" font-family="sans-serif" font-size="13" lengthAdjust="spacingAndGlyphs" textLength="172" x="522" y="207.6094">OnCacheRetrieveConfirmEx</text><polygon fill="#FBFB77" filter="url(#f1)" points="832,191.041,832,216.041,954,216.041,954,201.041,944,191.041,832,191.041" style="stroke: #A80036; stroke-width: 1.0;"/><line style="stroke: #A80036; stroke-width: 1.0;" x1="944" x2="944" y1="191.041" y2="201.041"/><line style="stroke: #A80036; stroke-width: 1.0;" x1="954" x2="944" y1="201.041" y2="201.041"/><text fill="#000000" font-family="sans-serif" font-size="13" lengthAdjust="spacingAndGlyphs" textLength="101" x="838" y="208.6094">CACHE_APPEND</text><line style="stroke: #A80036; stroke-width: 1.0;" x1="505" x2="552" y1="241.6621" y2="241.6621"/><line style="stroke: #A80036; stroke-width: 1.0;" x1="552" x2="552" y1="241.6621" y2="254.6621"/><line style="stroke: #A80036; stroke-width: 1.0;" x1="511" x2="552" y1="254.6621" y2="254.6621"/><polygon fill="#A80036" points="521,250.6621,511,254.6621,521,258.6621,517,254.6621" style="stroke: #A80036; stroke-width: 1.0;"/><text fill="#000000" font-family="sans-serif" font-size="13" lengthAdjust="spacingAndGlyphs" textLength="116" x="517" y="236.9199">HandleRetriveData</text><polygon fill="#FBFB77" filter="url(#f1)" points="645,231.8516,645,256.8516,843,256.8516,843,241.8516,833,231.8516,645,231.8516" style="stroke: #A80036; stroke-width: 1.0;"/><line style="stroke: #A80036; stroke-width: 1.0;" x1="833" x2="833" y1="231.8516" y2="241.8516"/><line style="stroke: #A80036; stroke-width: 1.0;" x1="843" x2="833" y1="241.8516" y2="241.8516"/><text fill="#000000" font-family="sans-serif" font-size="13" lengthAdjust="spacingAndGlyphs" textLength="177" x="651" y="249.4199">CSI_COMMON_CACHE_INFO</text><line style="stroke: #A80036; stroke-width: 1.0;" x1="510" x2="552" y1="288.9727" y2="288.9727"/><line style="stroke: #A80036; stroke-width: 1.0;" x1="552" x2="552" y1="288.9727" y2="301.9727"/><line style="stroke: #A80036; stroke-width: 1.0;" x1="511" x2="552" y1="301.9727" y2="301.9727"/><polygon fill="#A80036" points="521,297.9727,511,301.9727,521,305.9727,517,301.9727" style="stroke: #A80036; stroke-width: 1.0;"/><text fill="#000000" font-family="sans-serif" font-size="13" lengthAdjust="spacingAndGlyphs" textLength="102" x="517" y="284.2305">ParseCSIInfoXml</text><line style="stroke: #A80036; stroke-width: 1.0;" x1="510" x2="552" y1="336.2832" y2="336.2832"/><line style="stroke: #A80036; stroke-width: 1.0;" x1="552" x2="552" y1="336.2832" y2="349.2832"/><line style="stroke: #A80036; stroke-width: 1.0;" x1="505" x2="552" y1="349.2832" y2="349.2832"/><polygon fill="#A80036" points="515,345.2832,505,349.2832,515,353.2832,511,349.2832" style="stroke: #A80036; stroke-width: 1.0;"/><text fill="#000000" font-family="sans-serif" font-size="13" lengthAdjust="spacingAndGlyphs" textLength="124" x="517" y="331.541">SaveIntoLocalCache</text><polygon fill="#A80036" points="654,369.2832,664,373.2832,654,377.2832,658,373.2832" style="stroke: #A80036; stroke-width: 1.0;"/><line style="stroke: #A80036; stroke-width: 1.0;" x1="505" x2="660" y1="373.2832" y2="373.2832"/><text fill="#000000" font-family="sans-serif" font-size="13" lengthAdjust="spacingAndGlyphs" textLength="137" x="512" y="368.8516">OnCacheDataUpdated</text><polygon fill="#A80036" points="815,398.5938,825,402.5938,815,406.5938,819,402.5938" style="stroke: #A80036; stroke-width: 1.0;"/><line style="stroke: #A80036; stroke-width: 1.0;" x1="666" x2="821" y1="402.5938" y2="402.5938"/><text fill="#000000" font-family="sans-serif" font-size="13" lengthAdjust="spacingAndGlyphs" textLength="137" x="673" y="398.1621">OnCacheDataUpdated</text><polygon fill="#A80036" points="368,427.9043,358,431.9043,368,435.9043,364,431.9043" style="stroke: #A80036; stroke-width: 1.0;"/><line style="stroke: #A80036; stroke-width: 1.0;" x1="362" x2="826" y1="431.9043" y2="431.9043"/><text fill="#000000" font-family="sans-serif" font-size="13" lengthAdjust="spacingAndGlyphs" textLength="92" x="374" y="427.4727">OnReceieveCSI</text><line style="stroke: #A80036; stroke-width: 1.0;" x1="357" x2="399" y1="461.5254" y2="461.5254"/><line style="stroke: #A80036; stroke-width: 1.0;" x1="399" x2="399" y1="461.5254" y2="474.5254"/><line style="stroke: #A80036; stroke-width: 1.0;" x1="358" x2="399" y1="474.5254" y2="474.5254"/><polygon fill="#A80036" points="368,470.5254,358,474.5254,368,478.5254,364,474.5254" style="stroke: #A80036; stroke-width: 1.0;"/><text fill="#000000" font-family="sans-serif" font-size="13" lengthAdjust="spacingAndGlyphs" textLength="125" x="364" y="456.7832">CalculateCSINodeID</text><line style="stroke: #A80036; stroke-width: 1.0;" x1="357" x2="404" y1="498.8359" y2="498.8359"/><line style="stroke: #A80036; stroke-width: 1.0;" x1="404" x2="404" y1="498.8359" y2="511.8359"/><line style="stroke: #A80036; stroke-width: 1.0;" x1="363" x2="404" y1="511.8359" y2="511.8359"/><polygon fill="#A80036" points="373,507.8359,363,511.8359,373,515.8359,369,511.8359" style="stroke: #A80036; stroke-width: 1.0;"/><text fill="#000000" font-family="sans-serif" font-size="13" lengthAdjust="spacingAndGlyphs" textLength="129" x="369" y="494.0938">OnUserCSIIndication</text><line style="stroke: #A80036; stroke-width: 1.0;" x1="362" x2="404" y1="546.1465" y2="546.1465"/><line style="stroke: #A80036; stroke-width: 1.0;" x1="404" x2="404" y1="546.1465" y2="559.1465"/><line style="stroke: #A80036; stroke-width: 1.0;" x1="363" x2="404" y1="559.1465" y2="559.1465"/><polygon fill="#A80036" points="373,555.1465,363,559.1465,373,563.1465,369,559.1465" style="stroke: #A80036; stroke-width: 1.0;"/><text fill="#000000" font-family="sans-serif" font-size="13" lengthAdjust="spacingAndGlyphs" textLength="74" x="369" y="541.4043">PackCSIInfo</text><line style="stroke: #A80036; stroke-width: 1.0;" x1="362" x2="404" y1="588.457" y2="588.457"/><line style="stroke: #A80036; stroke-width: 1.0;" x1="404" x2="404" y1="588.457" y2="601.457"/><line style="stroke: #A80036; stroke-width: 1.0;" x1="363" x2="404" y1="601.457" y2="601.457"/><polygon fill="#A80036" points="373,597.457,363,601.457,373,605.457,369,601.457" style="stroke: #A80036; stroke-width: 1.0;"/><text fill="#000000" font-family="sans-serif" font-size="13" lengthAdjust="spacingAndGlyphs" textLength="93" x="369" y="583.7148">GetSessionMgr</text><polygon fill="#FBFB77" filter="url(#f1)" points="474,573.6465,474,598.6465,651,598.6465,651,583.6465,641,573.6465,474,573.6465" style="stroke: #A80036; stroke-width: 1.0;"/><line style="stroke: #A80036; stroke-width: 1.0;" x1="641" x2="641" y1="573.6465" y2="583.6465"/><line style="stroke: #A80036; stroke-width: 1.0;" x1="651" x2="641" y1="583.6465" y2="583.6465"/><text fill="#000000" font-family="sans-serif" font-size="13" lengthAdjust="spacingAndGlyphs" textLength="156" x="480" y="591.2148">Get CSmHybridAudioMgr</text><polygon fill="#A80036" points="955,626.457,965,630.457,955,634.457,959,630.457" style="stroke: #A80036; stroke-width: 1.0;"/><line style="stroke: #A80036; stroke-width: 1.0;" x1="362" x2="961" y1="630.457" y2="630.457"/><text fill="#000000" font-family="sans-serif" font-size="13" lengthAdjust="spacingAndGlyphs" textLength="112" x="369" y="626.0254">SendAudioCSIInfo</text><polygon fill="#A80036" points="1265.5,655.7676,1275.5,659.7676,1265.5,663.7676,1269.5,659.7676" style="stroke: #A80036; stroke-width: 1.0;"/><line style="stroke: #A80036; stroke-width: 1.0;" x1="967" x2="1271.5" y1="659.7676" y2="659.7676"/><text fill="#000000" font-family="sans-serif" font-size="13" lengthAdjust="spacingAndGlyphs" textLength="57" x="974" y="655.3359">SetParam</text><polygon fill="#A80036" points="1402,685.0781,1412,689.0781,1402,693.0781,1406,689.0781" style="stroke: #A80036; stroke-width: 1.0;"/><line style="stroke: #A80036; stroke-width: 1.0;" x1="1277.5" x2="1408" y1="689.0781" y2="689.0781"/><text fill="#000000" font-family="sans-serif" font-size="13" lengthAdjust="spacingAndGlyphs" textLength="92" x="1284.5" y="684.6465">HCC_SetParam</text><polygon fill="#A80036" points="1523,714.3887,1533,718.3887,1523,722.3887,1527,718.3887" style="stroke: #A80036; stroke-width: 1.0;"/><line style="stroke: #A80036; stroke-width: 1.0;" x1="1414" x2="1529" y1="718.3887" y2="718.3887"/><text fill="#000000" font-family="sans-serif" font-size="13" lengthAdjust="spacingAndGlyphs" textLength="57" x="1421" y="713.957">SetParam</text><polygon fill="#A80036" points="1672,748.6992,1682,752.6992,1672,756.6992,1676,752.6992" style="stroke: #A80036; stroke-width: 1.0;"/><line style="stroke: #A80036; stroke-width: 1.0;" x1="1535" x2="1678" y1="752.6992" y2="752.6992"/><text fill="#000000" font-family="sans-serif" font-size="13" lengthAdjust="spacingAndGlyphs" textLength="57" x="1542" y="748.2676">SetParam</text><polygon fill="#FBFB77" filter="url(#f1)" points="1689,731.6992,1689,756.6992,1909,756.6992,1909,741.6992,1899,731.6992,1689,731.6992" style="stroke: #A80036; stroke-width: 1.0;"/><line style="stroke: #A80036; stroke-width: 1.0;" x1="1899" x2="1899" y1="731.6992" y2="741.6992"/><line style="stroke: #A80036; stroke-width: 1.0;" x1="1909" x2="1899" y1="741.6992" y2="741.6992"/><text fill="#000000" font-family="sans-serif" font-size="13" lengthAdjust="spacingAndGlyphs" textLength="199" x="1695" y="749.2676">HCC_PARAM_SET_RECEIVE_CSIS</text><line style="stroke: #A80036; stroke-width: 1.0;" x1="1684" x2="1726" y1="787.3203" y2="787.3203"/><line style="stroke: #A80036; stroke-width: 1.0;" x1="1726" x2="1726" y1="787.3203" y2="800.3203"/><line style="stroke: #A80036; stroke-width: 1.0;" x1="1685" x2="1726" y1="800.3203" y2="800.3203"/><polygon fill="#A80036" points="1695,796.3203,1685,800.3203,1695,804.3203,1691,800.3203" style="stroke: #A80036; stroke-width: 1.0;"/><text fill="#000000" font-family="sans-serif" font-size="13" lengthAdjust="spacingAndGlyphs" textLength="155" x="1691" y="782.5781">HandleRecievedCMR4CSI</text><line style="stroke: #A80036; stroke-width: 1.0;" x1="1684" x2="1726" y1="829.6309" y2="829.6309"/><line style="stroke: #A80036; stroke-width: 1.0;" x1="1726" x2="1726" y1="829.6309" y2="842.6309"/><line style="stroke: #A80036; stroke-width: 1.0;" x1="1685" x2="1726" y1="842.6309" y2="842.6309"/><polygon fill="#A80036" points="1695,838.6309,1685,842.6309,1695,846.6309,1691,842.6309" style="stroke: #A80036; stroke-width: 1.0;"/><text fill="#000000" font-family="sans-serif" font-size="13" lengthAdjust="spacingAndGlyphs" textLength="123" x="1691" y="824.8887">SendCSIItemToWME</text><polygon fill="#A80036" points="1841,867.6309,1851,871.6309,1841,875.6309,1845,871.6309" style="stroke: #A80036; stroke-width: 1.0;"/><line style="stroke: #A80036; stroke-width: 1.0;" x1="1684" x2="1847" y1="871.6309" y2="871.6309"/><text fill="#000000" font-family="sans-serif" font-size="13" lengthAdjust="spacingAndGlyphs" textLength="75" x="1691" y="867.1992">SetCMR4CSI</text><polygon fill="#A80036" points="1996,896.9414,2006,900.9414,1996,904.9414,2000,900.9414" style="stroke: #A80036; stroke-width: 1.0;"/><line style="stroke: #A80036; stroke-width: 1.0;" x1="1853" x2="2002" y1="900.9414" y2="900.9414"/><text fill="#000000" font-family="sans-serif" font-size="13" lengthAdjust="spacingAndGlyphs" textLength="75" x="1860" y="896.5098">SetCMR4CSI</text><polygon fill="#A80036" points="2159,926.252,2169,930.252,2159,934.252,2163,930.252" style="stroke: #A80036; stroke-width: 1.0;"/><line style="stroke: #A80036; stroke-width: 1.0;" x1="2008" x2="2165" y1="930.252" y2="930.252"/><text fill="#000000" font-family="sans-serif" font-size="13" lengthAdjust="spacingAndGlyphs" textLength="75" x="2015" y="925.8203">SetCMR4CSI</text><polygon fill="#A80036" points="2291,955.5625,2301,959.5625,2291,963.5625,2295,959.5625" style="stroke: #A80036; stroke-width: 1.0;"/><line style="stroke: #A80036; stroke-width: 1.0;" x1="2171" x2="2297" y1="959.5625" y2="959.5625"/><text fill="#000000" font-family="sans-serif" font-size="13" lengthAdjust="spacingAndGlyphs" textLength="108" x="2178" y="955.1309">MmHSetCMR4CSI</text></g></svg>