<?xml version="1.0" encoding="UTF-8" standalone="yes"?><svg xmlns="http://www.w3.org/2000/svg" xmlns:xlink="http://www.w3.org/1999/xlink" height="783pt" style="width:1638px;height:783px;" version="1.1" viewBox="0 0 1638 783" width="1638pt"><defs><filter height="300%" id="f1" width="300%" x="-1" y="-1"><feGaussianBlur result="blurOut" stdDeviation="2.0"/><feColorMatrix in="blurOut" result="blurOut2" type="matrix" values="0 0 0 0 0 0 0 0 0 0 0 0 0 0 0 0 0 0 .4 0"/><feOffset dx="4.0" dy="4.0" in="blurOut2" result="blurOut3"/><feBlend in="SourceGraphic" in2="blurOut3" mode="normal"/></filter></defs><g><rect fill="#FFFFFF" filter="url(#f1)" height="100.9316" style="stroke: #A80036; stroke-width: 1.0;" width="10" x="260.5" y="176.1094"/><rect fill="#FFFFFF" filter="url(#f1)" height="143.2422" style="stroke: #A80036; stroke-width: 1.0;" width="10" x="454.5" y="277.041"/><rect fill="#FFFFFF" filter="url(#f1)" height="190.5527" style="stroke: #A80036; stroke-width: 1.0;" width="10" x="1260.5" y="486.9043"/><rect fill="#FFFFFF" filter="url(#f1)" height="40.3105" style="stroke: #A80036; stroke-width: 1.0;" width="10" x="1265.5" y="571.5254"/><rect fill="#DDDDDD" height="778.2559" style="stroke: #A80036; stroke-width: 1.0;" width="668" x="60" y="4"/><text fill="#000000" font-family="sans-serif" font-size="13" font-weight="bold" lengthAdjust="spacingAndGlyphs" textLength="72" x="358" y="16.5684">WebExMgr</text><rect fill="#DDDDDD" height="778.2559" style="stroke: #A80036; stroke-width: 1.0;" width="136" x="730" y="4"/><text fill="#000000" font-family="sans-serif" font-size="13" font-weight="bold" lengthAdjust="spacingAndGlyphs" textLength="56" x="770" y="16.5684">UIFrame</text><rect fill="#DDDDDD" height="778.2559" style="stroke: #A80036; stroke-width: 1.0;" width="194" x="868" y="4"/><text fill="#000000" font-family="sans-serif" font-size="13" font-weight="bold" lengthAdjust="spacingAndGlyphs" textLength="75" x="927.5" y="16.5684">ServiceMgr</text><rect fill="#DDDDDD" height="778.2559" style="stroke: #A80036; stroke-width: 1.0;" width="125" x="1064" y="4"/><text fill="#000000" font-family="sans-serif" font-size="13" font-weight="bold" lengthAdjust="spacingAndGlyphs" textLength="67" x="1093" y="16.5684">AtConfLib</text><rect fill="#DDDDDD" height="778.2559" style="stroke: #A80036; stroke-width: 1.0;" width="309" x="1191" y="4"/><text fill="#000000" font-family="sans-serif" font-size="13" font-weight="bold" lengthAdjust="spacingAndGlyphs" textLength="104" x="1293.5" y="16.5684">componentmgr</text><rect fill="#DDDDDD" height="778.2559" style="stroke: #A80036; stroke-width: 1.0;" width="135" x="1502" y="4"/><text fill="#000000" font-family="sans-serif" font-size="13" font-weight="bold" lengthAdjust="spacingAndGlyphs" textLength="35" x="1552" y="16.5684">UILib</text><line style="stroke: #A80036; stroke-width: 1.0; stroke-dasharray: 5.0,5.0;" x1="31" x2="31" y1="86.4883" y2="695.7676"/><line style="stroke: #A80036; stroke-width: 1.0; stroke-dasharray: 5.0,5.0;" x1="126" x2="126" y1="86.4883" y2="695.7676"/><line style="stroke: #A80036; stroke-width: 1.0; stroke-dasharray: 5.0,5.0;" x1="265" x2="265" y1="86.4883" y2="695.7676"/><line style="stroke: #A80036; stroke-width: 1.0; stroke-dasharray: 5.0,5.0;" x1="459" x2="459" y1="86.4883" y2="695.7676"/><line style="stroke: #A80036; stroke-width: 1.0; stroke-dasharray: 5.0,5.0;" x1="630" x2="630" y1="86.4883" y2="695.7676"/><line style="stroke: #A80036; stroke-width: 1.0; stroke-dasharray: 5.0,5.0;" x1="798" x2="798" y1="86.4883" y2="695.7676"/><line style="stroke: #A80036; stroke-width: 1.0; stroke-dasharray: 5.0,5.0;" x1="965" x2="965" y1="86.4883" y2="695.7676"/><line style="stroke: #A80036; stroke-width: 1.0; stroke-dasharray: 5.0,5.0;" x1="1126" x2="1126" y1="86.4883" y2="695.7676"/><line style="stroke: #A80036; stroke-width: 1.0; stroke-dasharray: 5.0,5.0;" x1="1265" x2="1265" y1="86.4883" y2="695.7676"/><line style="stroke: #A80036; stroke-width: 1.0; stroke-dasharray: 5.0,5.0;" x1="1425" x2="1425" y1="86.4883" y2="695.7676"/><line style="stroke: #A80036; stroke-width: 1.0; stroke-dasharray: 5.0,5.0;" x1="1569" x2="1569" y1="86.4883" y2="695.7676"/><text fill="#000000" font-family="sans-serif" font-size="14" lengthAdjust="spacingAndGlyphs" textLength="40" x="8" y="83.5352">atarm</text><ellipse cx="31" cy="13" fill="#FEFECE" filter="url(#f1)" rx="8" ry="8" style="stroke: #A80036; stroke-width: 2.0;"/><path d="M31,21 L31,48 M18,29 L44,29 M31,48 L18,63 M31,48 L44,63 " fill="#FEFECE" filter="url(#f1)" style="stroke: #A80036; stroke-width: 2.0;"/><text fill="#000000" font-family="sans-serif" font-size="14" lengthAdjust="spacingAndGlyphs" textLength="40" x="8" y="708.3027">atarm</text><ellipse cx="31" cy="721.2559" fill="#FEFECE" filter="url(#f1)" rx="8" ry="8" style="stroke: #A80036; stroke-width: 2.0;"/><path d="M31,729.2559 L31,756.2559 M18,737.2559 L44,737.2559 M31,756.2559 L18,771.2559 M31,756.2559 L44,771.2559 " fill="#FEFECE" filter="url(#f1)" style="stroke: #A80036; stroke-width: 2.0;"/><rect fill="#FEFECE" filter="url(#f1)" height="30.4883" style="stroke: #A80036; stroke-width: 1.5;" width="121" x="64" y="51"/><text fill="#000000" font-family="sans-serif" font-size="14" lengthAdjust="spacingAndGlyphs" textLength="107" x="71" y="71.5352">CMCServiceMgr</text><rect fill="#FEFECE" filter="url(#f1)" height="30.4883" style="stroke: #A80036; stroke-width: 1.5;" width="121" x="64" y="694.7676"/><text fill="#000000" font-family="sans-serif" font-size="14" lengthAdjust="spacingAndGlyphs" textLength="107" x="71" y="715.3027">CMCServiceMgr</text><rect fill="#FEFECE" filter="url(#f1)" height="30.4883" style="stroke: #A80036; stroke-width: 1.5;" width="101" x="213" y="51"/><text fill="#000000" font-family="sans-serif" font-size="14" lengthAdjust="spacingAndGlyphs" textLength="87" x="220" y="71.5352">CMCPDUMgr</text><rect fill="#FEFECE" filter="url(#f1)" height="30.4883" style="stroke: #A80036; stroke-width: 1.5;" width="101" x="213" y="694.7676"/><text fill="#000000" font-family="sans-serif" font-size="14" lengthAdjust="spacingAndGlyphs" textLength="87" x="220" y="715.3027">CMCPDUMgr</text><rect fill="#FEFECE" filter="url(#f1)" height="30.4883" style="stroke: #A80036; stroke-width: 1.5;" width="131" x="392" y="51"/><text fill="#000000" font-family="sans-serif" font-size="14" lengthAdjust="spacingAndGlyphs" textLength="117" x="399" y="71.5352">CMCPrivilegeMgr</text><rect fill="#FEFECE" filter="url(#f1)" height="30.4883" style="stroke: #A80036; stroke-width: 1.5;" width="131" x="392" y="694.7676"/><text fill="#000000" font-family="sans-serif" font-size="14" lengthAdjust="spacingAndGlyphs" textLength="117" x="399" y="715.3027">CMCPrivilegeMgr</text><rect fill="#FEFECE" filter="url(#f1)" height="30.4883" style="stroke: #A80036; stroke-width: 1.5;" width="183" x="537" y="51"/><text fill="#000000" font-family="sans-serif" font-size="14" lengthAdjust="spacingAndGlyphs" textLength="169" x="544" y="71.5352">CMCDocViewSessionMgr</text><rect fill="#FEFECE" filter="url(#f1)" height="30.4883" style="stroke: #A80036; stroke-width: 1.5;" width="183" x="537" y="694.7676"/><text fill="#000000" font-family="sans-serif" font-size="14" lengthAdjust="spacingAndGlyphs" textLength="169" x="544" y="715.3027">CMCDocViewSessionMgr</text><rect fill="#FEFECE" filter="url(#f1)" height="30.4883" style="stroke: #A80036; stroke-width: 1.5;" width="124" x="734" y="51"/><text fill="#000000" font-family="sans-serif" font-size="14" lengthAdjust="spacingAndGlyphs" textLength="110" x="741" y="71.5352">CPfwMainFrame</text><rect fill="#FEFECE" filter="url(#f1)" height="30.4883" style="stroke: #A80036; stroke-width: 1.5;" width="124" x="734" y="694.7676"/><text fill="#000000" font-family="sans-serif" font-size="14" lengthAdjust="spacingAndGlyphs" textLength="110" x="741" y="715.3027">CPfwMainFrame</text><rect fill="#FEFECE" filter="url(#f1)" height="30.4883" style="stroke: #A80036; stroke-width: 1.5;" width="182" x="872" y="51"/><text fill="#000000" font-family="sans-serif" font-size="14" lengthAdjust="spacingAndGlyphs" textLength="168" x="879" y="71.5352">CSmDocViewSessionMgr</text><rect fill="#FEFECE" filter="url(#f1)" height="30.4883" style="stroke: #A80036; stroke-width: 1.5;" width="182" x="872" y="694.7676"/><text fill="#000000" font-family="sans-serif" font-size="14" lengthAdjust="spacingAndGlyphs" textLength="168" x="879" y="715.3027">CSmDocViewSessionMgr</text><rect fill="#FEFECE" filter="url(#f1)" height="30.4883" style="stroke: #A80036; stroke-width: 1.5;" width="113" x="1068" y="51"/><text fill="#000000" font-family="sans-serif" font-size="14" lengthAdjust="spacingAndGlyphs" textLength="99" x="1075" y="71.5352">CAtConfAgent</text><rect fill="#FEFECE" filter="url(#f1)" height="30.4883" style="stroke: #A80036; stroke-width: 1.5;" width="113" x="1068" y="694.7676"/><text fill="#000000" font-family="sans-serif" font-size="14" lengthAdjust="spacingAndGlyphs" textLength="99" x="1075" y="715.3027">CAtConfAgent</text><rect fill="#FEFECE" filter="url(#f1)" height="30.4883" style="stroke: #A80036; stroke-width: 1.5;" width="137" x="1195" y="51"/><text fill="#000000" font-family="sans-serif" font-size="14" lengthAdjust="spacingAndGlyphs" textLength="123" x="1202" y="71.5352">CPcmDocViewMgr</text><rect fill="#FEFECE" filter="url(#f1)" height="30.4883" style="stroke: #A80036; stroke-width: 1.5;" width="137" x="1195" y="694.7676"/><text fill="#000000" font-family="sans-serif" font-size="14" lengthAdjust="spacingAndGlyphs" textLength="123" x="1202" y="715.3027">CPcmDocViewMgr</text><rect fill="#FEFECE" filter="url(#f1)" height="30.4883" style="stroke: #A80036; stroke-width: 1.5;" width="137" x="1355" y="51"/><text fill="#000000" font-family="sans-serif" font-size="14" lengthAdjust="spacingAndGlyphs" textLength="123" x="1362" y="71.5352">CPcmPdTabCtrlEx</text><rect fill="#FEFECE" filter="url(#f1)" height="30.4883" style="stroke: #A80036; stroke-width: 1.5;" width="137" x="1355" y="694.7676"/><text fill="#000000" font-family="sans-serif" font-size="14" lengthAdjust="spacingAndGlyphs" textLength="123" x="1362" y="715.3027">CPcmPdTabCtrlEx</text><rect fill="#FEFECE" filter="url(#f1)" height="30.4883" style="stroke: #A80036; stroke-width: 1.5;" width="123" x="1506" y="51"/><text fill="#000000" font-family="sans-serif" font-size="14" lengthAdjust="spacingAndGlyphs" textLength="109" x="1513" y="71.5352">CWbxTabCtrlPD</text><rect fill="#FEFECE" filter="url(#f1)" height="30.4883" style="stroke: #A80036; stroke-width: 1.5;" width="123" x="1506" y="694.7676"/><text fill="#000000" font-family="sans-serif" font-size="14" lengthAdjust="spacingAndGlyphs" textLength="109" x="1513" y="715.3027">CWbxTabCtrlPD</text><rect fill="#FFFFFF" filter="url(#f1)" height="100.9316" style="stroke: #A80036; stroke-width: 1.0;" width="10" x="260.5" y="176.1094"/><rect fill="#FFFFFF" filter="url(#f1)" height="143.2422" style="stroke: #A80036; stroke-width: 1.0;" width="10" x="454.5" y="277.041"/><rect fill="#FFFFFF" filter="url(#f1)" height="190.5527" style="stroke: #A80036; stroke-width: 1.0;" width="10" x="1260.5" y="486.9043"/><rect fill="#FFFFFF" filter="url(#f1)" height="40.3105" style="stroke: #A80036; stroke-width: 1.0;" width="10" x="1265.5" y="571.5254"/><polygon fill="#A80036" points="1114.5,113.4883,1124.5,117.4883,1114.5,121.4883,1118.5,117.4883" style="stroke: #A80036; stroke-width: 1.0;"/><line style="stroke: #A80036; stroke-width: 1.0;" x1="31" x2="1120.5" y1="117.4883" y2="117.4883"/><text fill="#000000" font-family="sans-serif" font-size="13" lengthAdjust="spacingAndGlyphs" textLength="148" x="38" y="113.0566">on_message_indication</text><polygon fill="#A80036" points="137.5,142.7988,127.5,146.7988,137.5,150.7988,133.5,146.7988" style="stroke: #A80036; stroke-width: 1.0;"/><line style="stroke: #A80036; stroke-width: 1.0;" x1="131.5" x2="1125.5" y1="146.7988" y2="146.7988"/><text fill="#000000" font-family="sans-serif" font-size="13" lengthAdjust="spacingAndGlyphs" textLength="110" x="143.5" y="142.3672">OnDataIndication</text><polygon fill="#A80036" points="248.5,172.1094,258.5,176.1094,248.5,180.1094,252.5,176.1094" style="stroke: #A80036; stroke-width: 1.0;"/><line style="stroke: #A80036; stroke-width: 1.0;" x1="126.5" x2="254.5" y1="176.1094" y2="176.1094"/><text fill="#000000" font-family="sans-serif" font-size="13" lengthAdjust="spacingAndGlyphs" textLength="110" x="133.5" y="171.6777">OnDataIndication</text><line style="stroke: #A80036; stroke-width: 1.0;" x1="270.5" x2="312.5" y1="205.7305" y2="205.7305"/><line style="stroke: #A80036; stroke-width: 1.0;" x1="312.5" x2="312.5" y1="205.7305" y2="218.7305"/><line style="stroke: #A80036; stroke-width: 1.0;" x1="271.5" x2="312.5" y1="218.7305" y2="218.7305"/><polygon fill="#A80036" points="281.5,214.7305,271.5,218.7305,281.5,222.7305,277.5,218.7305" style="stroke: #A80036; stroke-width: 1.0;"/><text fill="#000000" font-family="sans-serif" font-size="13" lengthAdjust="spacingAndGlyphs" textLength="170" x="277.5" y="200.9883">HandlePrivilegeChangePDU</text><polygon fill="#A80036" points="786,243.7305,796,247.7305,786,251.7305,790,247.7305" style="stroke: #A80036; stroke-width: 1.0;"/><line style="stroke: #A80036; stroke-width: 1.0;" x1="126.5" x2="792" y1="247.7305" y2="247.7305"/><text fill="#000000" font-family="sans-serif" font-size="13" lengthAdjust="spacingAndGlyphs" textLength="90" x="133.5" y="243.2988">EndMenuPanel</text><polygon fill="#A80036" points="442.5,273.041,452.5,277.041,442.5,281.041,446.5,277.041" style="stroke: #A80036; stroke-width: 1.0;"/><line style="stroke: #A80036; stroke-width: 1.0;" x1="126.5" x2="448.5" y1="277.041" y2="277.041"/><text fill="#000000" font-family="sans-serif" font-size="13" lengthAdjust="spacingAndGlyphs" textLength="118" x="133.5" y="272.6094">OnPrivilegeChange</text><line style="stroke: #A80036; stroke-width: 1.0;" x1="464.5" x2="506.5" y1="306.6621" y2="306.6621"/><line style="stroke: #A80036; stroke-width: 1.0;" x1="506.5" x2="506.5" y1="306.6621" y2="319.6621"/><line style="stroke: #A80036; stroke-width: 1.0;" x1="465.5" x2="506.5" y1="319.6621" y2="319.6621"/><polygon fill="#A80036" points="475.5,315.6621,465.5,319.6621,475.5,323.6621,471.5,319.6621" style="stroke: #A80036; stroke-width: 1.0;"/><text fill="#000000" font-family="sans-serif" font-size="13" lengthAdjust="spacingAndGlyphs" textLength="89" x="471.5" y="301.9199">ApplyPrivilege</text><line style="stroke: #A80036; stroke-width: 1.0;" x1="464.5" x2="506.5" y1="348.9727" y2="348.9727"/><line style="stroke: #A80036; stroke-width: 1.0;" x1="506.5" x2="506.5" y1="348.9727" y2="361.9727"/><line style="stroke: #A80036; stroke-width: 1.0;" x1="465.5" x2="506.5" y1="361.9727" y2="361.9727"/><polygon fill="#A80036" points="475.5,357.9727,465.5,361.9727,475.5,365.9727,471.5,361.9727" style="stroke: #A80036; stroke-width: 1.0;"/><text fill="#000000" font-family="sans-serif" font-size="13" lengthAdjust="spacingAndGlyphs" textLength="125" x="471.5" y="344.2305">SetDocviewPrivilege</text><polygon fill="#A80036" points="618.5,386.9727,628.5,390.9727,618.5,394.9727,622.5,390.9727" style="stroke: #A80036; stroke-width: 1.0;"/><line style="stroke: #A80036; stroke-width: 1.0;" x1="126.5" x2="624.5" y1="390.9727" y2="390.9727"/><text fill="#000000" font-family="sans-serif" font-size="13" lengthAdjust="spacingAndGlyphs" textLength="123" x="133.5" y="386.541">SetDocviewPririlege</text><polygon fill="#A80036" points="953,416.2832,963,420.2832,953,424.2832,957,420.2832" style="stroke: #A80036; stroke-width: 1.0;"/><line style="stroke: #A80036; stroke-width: 1.0;" x1="630.5" x2="959" y1="420.2832" y2="420.2832"/><text fill="#000000" font-family="sans-serif" font-size="13" lengthAdjust="spacingAndGlyphs" textLength="125" x="637.5" y="415.8516">SetDocviewPrivilege</text><polygon fill="#A80036" points="1253.5,445.5938,1263.5,449.5938,1253.5,453.5938,1257.5,449.5938" style="stroke: #A80036; stroke-width: 1.0;"/><line style="stroke: #A80036; stroke-width: 1.0;" x1="965" x2="1259.5" y1="449.5938" y2="449.5938"/><text fill="#000000" font-family="sans-serif" font-size="13" lengthAdjust="spacingAndGlyphs" textLength="115" x="972" y="445.1621">SetSessionCtrlInfo</text><line style="stroke: #A80036; stroke-width: 1.0;" x1="965" x2="1012" y1="474.2148" y2="474.2148"/><line style="stroke: #A80036; stroke-width: 1.0;" x1="1012" x2="1012" y1="474.2148" y2="487.2148"/><line style="stroke: #A80036; stroke-width: 1.0;" x1="971" x2="1012" y1="487.2148" y2="487.2148"/><polygon fill="#A80036" points="981,483.2148,971,487.2148,981,491.2148,977,487.2148" style="stroke: #A80036; stroke-width: 1.0;"/><text fill="#000000" font-family="sans-serif" font-size="13" lengthAdjust="spacingAndGlyphs" textLength="95" x="977" y="469.4727">CheckQSStatus</text><line style="stroke: #A80036; stroke-width: 1.0;" x1="1270.5" x2="1312.5" y1="521.5254" y2="521.5254"/><line style="stroke: #A80036; stroke-width: 1.0;" x1="1312.5" x2="1312.5" y1="521.5254" y2="534.5254"/><line style="stroke: #A80036; stroke-width: 1.0;" x1="1271.5" x2="1312.5" y1="534.5254" y2="534.5254"/><polygon fill="#A80036" points="1281.5,530.5254,1271.5,534.5254,1281.5,538.5254,1277.5,534.5254" style="stroke: #A80036; stroke-width: 1.0;"/><text fill="#000000" font-family="sans-serif" font-size="13" lengthAdjust="spacingAndGlyphs" textLength="126" x="1277.5" y="516.7832">OnPrivilegeChanged</text><line style="stroke: #A80036; stroke-width: 1.0;" x1="1270.5" x2="1317.5" y1="558.8359" y2="558.8359"/><line style="stroke: #A80036; stroke-width: 1.0;" x1="1317.5" x2="1317.5" y1="558.8359" y2="571.8359"/><line style="stroke: #A80036; stroke-width: 1.0;" x1="1276.5" x2="1317.5" y1="571.8359" y2="571.8359"/><polygon fill="#A80036" points="1286.5,567.8359,1276.5,571.8359,1286.5,575.8359,1282.5,571.8359" style="stroke: #A80036; stroke-width: 1.0;"/><text fill="#000000" font-family="sans-serif" font-size="13" lengthAdjust="spacingAndGlyphs" textLength="92" x="1282.5" y="554.0938">UpdateToolbar</text><line style="stroke: #A80036; stroke-width: 1.0;" x1="1275.5" x2="1317.5" y1="611.1465" y2="611.1465"/><line style="stroke: #A80036; stroke-width: 1.0;" x1="1317.5" x2="1317.5" y1="611.1465" y2="624.1465"/><line style="stroke: #A80036; stroke-width: 1.0;" x1="1270.5" x2="1317.5" y1="624.1465" y2="624.1465"/><polygon fill="#A80036" points="1280.5,620.1465,1270.5,624.1465,1280.5,628.1465,1276.5,624.1465" style="stroke: #A80036; stroke-width: 1.0;"/><text fill="#000000" font-family="sans-serif" font-size="13" lengthAdjust="spacingAndGlyphs" textLength="131" x="1282.5" y="606.4043">NotifyToolbarUpdate</text><polygon fill="#A80036" points="1413.5,644.1465,1423.5,648.1465,1413.5,652.1465,1417.5,648.1465" style="stroke: #A80036; stroke-width: 1.0;"/><line style="stroke: #A80036; stroke-width: 1.0;" x1="1270.5" x2="1419.5" y1="648.1465" y2="648.1465"/><text fill="#000000" font-family="sans-serif" font-size="13" lengthAdjust="spacingAndGlyphs" textLength="67" x="1277.5" y="643.7148">GetTabCtrl</text><polygon fill="#008000" points="1557.5,673.457,1567.5,677.457,1557.5,681.457,1561.5,677.457" style="stroke: #008000; stroke-width: 1.0;"/><line style="stroke: #008000; stroke-width: 1.0;" x1="1265.5" x2="1563.5" y1="677.457" y2="677.457"/><text fill="#000000" font-family="sans-serif" font-size="13" lengthAdjust="spacingAndGlyphs" textLength="100" x="1272.5" y="673.0254">EnableCanClose</text></g></svg>