<?xml version="1.0" encoding="UTF-8" standalone="yes"?><svg xmlns="http://www.w3.org/2000/svg" xmlns:xlink="http://www.w3.org/1999/xlink" height="869pt" style="width:1766px;height:869px;" version="1.1" viewBox="0 0 1766 869" width="1766pt"><defs><filter height="300%" id="f1" width="300%" x="-1" y="-1"><feGaussianBlur result="blurOut" stdDeviation="2.0"/><feColorMatrix in="blurOut" result="blurOut2" type="matrix" values="0 0 0 0 0 0 0 0 0 0 0 0 0 0 0 0 0 0 .4 0"/><feOffset dx="4.0" dy="4.0" in="blurOut2" result="blurOut3"/><feBlend in="SourceGraphic" in2="blurOut3" mode="normal"/></filter></defs><g><text fill="#000000" font-family="sans-serif" font-size="14" font-weight="bold" lengthAdjust="spacingAndGlyphs" textLength="469" x="650" y="23.5352">Attendee receive a "withdrawal the recording privalege" message</text><rect fill="#FFFFFF" filter="url(#f1)" height="450.7266" style="stroke: #A80036; stroke-width: 1.0;" width="10" x="596" y="355.4609"/><line style="stroke: #A80036; stroke-width: 1.0; stroke-dasharray: 5.0,5.0;" x1="174.5" x2="174.5" y1="68.9766" y2="831.498"/><line style="stroke: #A80036; stroke-width: 1.0; stroke-dasharray: 5.0,5.0;" x1="308.5" x2="308.5" y1="68.9766" y2="831.498"/><line style="stroke: #A80036; stroke-width: 1.0; stroke-dasharray: 5.0,5.0;" x1="442.5" x2="442.5" y1="68.9766" y2="831.498"/><line style="stroke: #A80036; stroke-width: 1.0; stroke-dasharray: 5.0,5.0;" x1="600.5" x2="600.5" y1="68.9766" y2="831.498"/><line style="stroke: #A80036; stroke-width: 1.0; stroke-dasharray: 5.0,5.0;" x1="799" x2="799" y1="68.9766" y2="831.498"/><line style="stroke: #A80036; stroke-width: 1.0; stroke-dasharray: 5.0,5.0;" x1="914" x2="914" y1="68.9766" y2="831.498"/><line style="stroke: #A80036; stroke-width: 1.0; stroke-dasharray: 5.0,5.0;" x1="1085" x2="1085" y1="68.9766" y2="831.498"/><line style="stroke: #A80036; stroke-width: 1.0; stroke-dasharray: 5.0,5.0;" x1="1288" x2="1288" y1="68.9766" y2="831.498"/><line style="stroke: #A80036; stroke-width: 1.0; stroke-dasharray: 5.0,5.0;" x1="1486" x2="1486" y1="68.9766" y2="831.498"/><line style="stroke: #A80036; stroke-width: 1.0; stroke-dasharray: 5.0,5.0;" x1="1673" x2="1673" y1="68.9766" y2="831.498"/><rect fill="#FEFECE" filter="url(#f1)" height="30.4883" style="stroke: #A80036; stroke-width: 1.5;" width="113" x="116.5" y="33.4883"/><text fill="#000000" font-family="sans-serif" font-size="14" lengthAdjust="spacingAndGlyphs" textLength="99" x="123.5" y="54.0234">CAtConfAgent</text><rect fill="#FEFECE" filter="url(#f1)" height="30.4883" style="stroke: #A80036; stroke-width: 1.5;" width="113" x="116.5" y="830.498"/><text fill="#000000" font-family="sans-serif" font-size="14" lengthAdjust="spacingAndGlyphs" textLength="99" x="123.5" y="851.0332">CAtConfAgent</text><rect fill="#FEFECE" filter="url(#f1)" height="30.4883" style="stroke: #A80036; stroke-width: 1.5;" width="121" x="246.5" y="33.4883"/><text fill="#000000" font-family="sans-serif" font-size="14" lengthAdjust="spacingAndGlyphs" textLength="107" x="253.5" y="54.0234">CMCServiceMgr</text><rect fill="#FEFECE" filter="url(#f1)" height="30.4883" style="stroke: #A80036; stroke-width: 1.5;" width="121" x="246.5" y="830.498"/><text fill="#000000" font-family="sans-serif" font-size="14" lengthAdjust="spacingAndGlyphs" textLength="107" x="253.5" y="851.0332">CMCServiceMgr</text><rect fill="#FEFECE" filter="url(#f1)" height="30.4883" style="stroke: #A80036; stroke-width: 1.5;" width="101" x="390.5" y="33.4883"/><text fill="#000000" font-family="sans-serif" font-size="14" lengthAdjust="spacingAndGlyphs" textLength="87" x="397.5" y="54.0234">CMCPUDMgr</text><rect fill="#FEFECE" filter="url(#f1)" height="30.4883" style="stroke: #A80036; stroke-width: 1.5;" width="101" x="390.5" y="830.498"/><text fill="#000000" font-family="sans-serif" font-size="14" lengthAdjust="spacingAndGlyphs" textLength="87" x="397.5" y="851.0332">CMCPUDMgr</text><rect fill="#FEFECE" filter="url(#f1)" height="30.4883" style="stroke: #A80036; stroke-width: 1.5;" width="131" x="533.5" y="33.4883"/><text fill="#000000" font-family="sans-serif" font-size="14" lengthAdjust="spacingAndGlyphs" textLength="117" x="540.5" y="54.0234">CMCPrivilegeMgr</text><rect fill="#FEFECE" filter="url(#f1)" height="30.4883" style="stroke: #A80036; stroke-width: 1.5;" width="131" x="533.5" y="830.498"/><text fill="#000000" font-family="sans-serif" font-size="14" lengthAdjust="spacingAndGlyphs" textLength="117" x="540.5" y="851.0332">CMCPrivilegeMgr</text><rect fill="#FEFECE" filter="url(#f1)" height="30.4883" style="stroke: #A80036; stroke-width: 1.5;" width="70" x="762" y="33.4883"/><text fill="#000000" font-family="sans-serif" font-size="14" lengthAdjust="spacingAndGlyphs" textLength="56" x="769" y="54.0234">CAtUser</text><rect fill="#FEFECE" filter="url(#f1)" height="30.4883" style="stroke: #A80036; stroke-width: 1.5;" width="70" x="762" y="830.498"/><text fill="#000000" font-family="sans-serif" font-size="14" lengthAdjust="spacingAndGlyphs" textLength="56" x="769" y="851.0332">CAtUser</text><rect fill="#FEFECE" filter="url(#f1)" height="30.4883" style="stroke: #A80036; stroke-width: 1.5;" width="132" x="846" y="33.4883"/><text fill="#000000" font-family="sans-serif" font-size="14" lengthAdjust="spacingAndGlyphs" textLength="118" x="853" y="54.0234">CAtConfManager</text><rect fill="#FEFECE" filter="url(#f1)" height="30.4883" style="stroke: #A80036; stroke-width: 1.5;" width="132" x="846" y="830.498"/><text fill="#000000" font-family="sans-serif" font-size="14" lengthAdjust="spacingAndGlyphs" textLength="118" x="853" y="851.0332">CAtConfManager</text><rect fill="#FEFECE" filter="url(#f1)" height="30.4883" style="stroke: #A80036; stroke-width: 1.5;" width="182" x="992" y="33.4883"/><text fill="#000000" font-family="sans-serif" font-size="14" lengthAdjust="spacingAndGlyphs" textLength="168" x="999" y="54.0234">CSmDocViewSessionMgr</text><rect fill="#FEFECE" filter="url(#f1)" height="30.4883" style="stroke: #A80036; stroke-width: 1.5;" width="182" x="992" y="830.498"/><text fill="#000000" font-family="sans-serif" font-size="14" lengthAdjust="spacingAndGlyphs" textLength="168" x="999" y="851.0332">CSmDocViewSessionMgr</text><rect fill="#FEFECE" filter="url(#f1)" height="30.4883" style="stroke: #A80036; stroke-width: 1.5;" width="196" x="1188" y="33.4883"/><text fill="#000000" font-family="sans-serif" font-size="14" lengthAdjust="spacingAndGlyphs" textLength="182" x="1195" y="54.0234">CMCQuickStartSessionMgr</text><rect fill="#FEFECE" filter="url(#f1)" height="30.4883" style="stroke: #A80036; stroke-width: 1.5;" width="196" x="1188" y="830.498"/><text fill="#000000" font-family="sans-serif" font-size="14" lengthAdjust="spacingAndGlyphs" textLength="182" x="1195" y="851.0332">CMCQuickStartSessionMgr</text><rect fill="#FEFECE" filter="url(#f1)" height="30.4883" style="stroke: #A80036; stroke-width: 1.5;" width="173" x="1398" y="33.4883"/><text fill="#000000" font-family="sans-serif" font-size="14" lengthAdjust="spacingAndGlyphs" textLength="159" x="1405" y="54.0234">CMCRecordSessionMgr</text><rect fill="#FEFECE" filter="url(#f1)" height="30.4883" style="stroke: #A80036; stroke-width: 1.5;" width="173" x="1398" y="830.498"/><text fill="#000000" font-family="sans-serif" font-size="14" lengthAdjust="spacingAndGlyphs" textLength="159" x="1405" y="851.0332">CMCRecordSessionMgr</text><rect fill="#FEFECE" filter="url(#f1)" height="30.4883" style="stroke: #A80036; stroke-width: 1.5;" width="172" x="1585" y="33.4883"/><text fill="#000000" font-family="sans-serif" font-size="14" lengthAdjust="spacingAndGlyphs" textLength="158" x="1592" y="54.0234">CSmRecordSessionMgr</text><rect fill="#FEFECE" filter="url(#f1)" height="30.4883" style="stroke: #A80036; stroke-width: 1.5;" width="172" x="1585" y="830.498"/><text fill="#000000" font-family="sans-serif" font-size="14" lengthAdjust="spacingAndGlyphs" textLength="158" x="1592" y="851.0332">CSmRecordSessionMgr</text><rect fill="#FFFFFF" filter="url(#f1)" height="450.7266" style="stroke: #A80036; stroke-width: 1.0;" width="10" x="596" y="355.4609"/><polygon fill="#A80036" points="163,95.9766,173,99.9766,163,103.9766,167,99.9766" style="stroke: #A80036; stroke-width: 1.0;"/><line style="stroke: #A80036; stroke-width: 1.0;" x1="3" x2="169" y1="99.9766" y2="99.9766"/><text fill="#000000" font-family="sans-serif" font-size="13" lengthAdjust="spacingAndGlyphs" textLength="148" x="10" y="95.5449">on_message_indication</text><polygon fill="#A80036" points="297,125.2871,307,129.2871,297,133.2871,301,129.2871" style="stroke: #A80036; stroke-width: 1.0;"/><line style="stroke: #A80036; stroke-width: 1.0;" x1="175" x2="303" y1="129.2871" y2="129.2871"/><text fill="#000000" font-family="sans-serif" font-size="13" lengthAdjust="spacingAndGlyphs" textLength="110" x="182" y="124.8555">OnDataIndication</text><polygon fill="#A80036" points="431,154.5977,441,158.5977,431,162.5977,435,158.5977" style="stroke: #A80036; stroke-width: 1.0;"/><line style="stroke: #A80036; stroke-width: 1.0;" x1="309" x2="437" y1="158.5977" y2="158.5977"/><text fill="#000000" font-family="sans-serif" font-size="13" lengthAdjust="spacingAndGlyphs" textLength="110" x="316" y="154.166">OnDataIndication</text><line style="stroke: #A80036; stroke-width: 1.0;" x1="443" x2="485" y1="188.2188" y2="188.2188"/><line style="stroke: #A80036; stroke-width: 1.0;" x1="485" x2="485" y1="188.2188" y2="201.2188"/><line style="stroke: #A80036; stroke-width: 1.0;" x1="444" x2="485" y1="201.2188" y2="201.2188"/><polygon fill="#A80036" points="454,197.2188,444,201.2188,454,205.2188,450,201.2188" style="stroke: #A80036; stroke-width: 1.0;"/><text fill="#000000" font-family="sans-serif" font-size="13" lengthAdjust="spacingAndGlyphs" textLength="144" x="450" y="183.4766">HandlePrivilegeChange</text><polygon fill="#A80036" points="589,226.2188,599,230.2188,589,234.2188,593,230.2188" style="stroke: #A80036; stroke-width: 1.0;"/><line style="stroke: #A80036; stroke-width: 1.0;" x1="443" x2="595" y1="230.2188" y2="230.2188"/><text fill="#000000" font-family="sans-serif" font-size="13" lengthAdjust="spacingAndGlyphs" textLength="118" x="450" y="225.7871">OnPrivilegeChange</text><polygon fill="#A80036" points="787,255.5293,797,259.5293,787,263.5293,791,259.5293" style="stroke: #A80036; stroke-width: 1.0;"/><line style="stroke: #A80036; stroke-width: 1.0;" x1="601" x2="793" y1="259.5293" y2="259.5293"/><text fill="#000000" font-family="sans-serif" font-size="13" lengthAdjust="spacingAndGlyphs" textLength="128" x="608" y="255.0977">SetAttendeePrivilege</text><polygon fill="#A80036" points="902,284.8398,912,288.8398,902,292.8398,906,288.8398" style="stroke: #A80036; stroke-width: 1.0;"/><line style="stroke: #A80036; stroke-width: 1.0;" x1="601" x2="908" y1="288.8398" y2="288.8398"/><text fill="#000000" font-family="sans-serif" font-size="13" lengthAdjust="spacingAndGlyphs" textLength="128" x="608" y="284.4082">SetAttendeePrivilege</text><polygon fill="#A80036" points="902,314.1504,912,318.1504,902,322.1504,906,318.1504" style="stroke: #A80036; stroke-width: 1.0;"/><line style="stroke: #A80036; stroke-width: 1.0;" x1="601" x2="908" y1="318.1504" y2="318.1504"/><text fill="#000000" font-family="sans-serif" font-size="13" lengthAdjust="spacingAndGlyphs" textLength="51" x="608" y="313.7188">ReEnroll</text><line style="stroke: #A80036; stroke-width: 1.0;" x1="601" x2="648" y1="342.7715" y2="342.7715"/><line style="stroke: #A80036; stroke-width: 1.0;" x1="648" x2="648" y1="342.7715" y2="355.7715"/><line style="stroke: #A80036; stroke-width: 1.0;" x1="607" x2="648" y1="355.7715" y2="355.7715"/><polygon fill="#A80036" points="617,351.7715,607,355.7715,617,359.7715,613,355.7715" style="stroke: #A80036; stroke-width: 1.0;"/><text fill="#000000" font-family="sans-serif" font-size="13" lengthAdjust="spacingAndGlyphs" textLength="89" x="613" y="338.0293">ApplyPrivilege</text><line style="stroke: #A80036; stroke-width: 1.0;" x1="606" x2="648" y1="390.082" y2="390.082"/><line style="stroke: #A80036; stroke-width: 1.0;" x1="648" x2="648" y1="390.082" y2="403.082"/><line style="stroke: #A80036; stroke-width: 1.0;" x1="607" x2="648" y1="403.082" y2="403.082"/><polygon fill="#A80036" points="617,399.082,607,403.082,617,407.082,613,403.082" style="stroke: #A80036; stroke-width: 1.0;"/><text fill="#000000" font-family="sans-serif" font-size="13" lengthAdjust="spacingAndGlyphs" textLength="108" x="613" y="385.3398">SetChatPrivileges</text><line style="stroke: #A80036; stroke-width: 1.0;" x1="606" x2="648" y1="432.3926" y2="432.3926"/><line style="stroke: #A80036; stroke-width: 1.0;" x1="648" x2="648" y1="432.3926" y2="445.3926"/><line style="stroke: #A80036; stroke-width: 1.0;" x1="607" x2="648" y1="445.3926" y2="445.3926"/><polygon fill="#A80036" points="617,441.3926,607,445.3926,617,449.3926,613,445.3926" style="stroke: #A80036; stroke-width: 1.0;"/><text fill="#000000" font-family="sans-serif" font-size="13" lengthAdjust="spacingAndGlyphs" textLength="162" x="613" y="427.6504">SetParticipantListPrivilege</text><line style="stroke: #A80036; stroke-width: 1.0;" x1="606" x2="648" y1="474.7031" y2="474.7031"/><line style="stroke: #A80036; stroke-width: 1.0;" x1="648" x2="648" y1="474.7031" y2="487.7031"/><line style="stroke: #A80036; stroke-width: 1.0;" x1="607" x2="648" y1="487.7031" y2="487.7031"/><polygon fill="#A80036" points="617,483.7031,607,487.7031,617,491.7031,613,487.7031" style="stroke: #A80036; stroke-width: 1.0;"/><text fill="#000000" font-family="sans-serif" font-size="13" lengthAdjust="spacingAndGlyphs" textLength="125" x="613" y="469.9609">SetDocviewPrivilege</text><polygon fill="#A80036" points="1073,512.7031,1083,516.7031,1073,520.7031,1077,516.7031" style="stroke: #A80036; stroke-width: 1.0;"/><line style="stroke: #A80036; stroke-width: 1.0;" x1="606" x2="1079" y1="516.7031" y2="516.7031"/><text fill="#000000" font-family="sans-serif" font-size="13" lengthAdjust="spacingAndGlyphs" textLength="97" x="613" y="512.2715">SetDocPrivilege</text><line style="stroke: #A80036; stroke-width: 1.0;" x1="1085" x2="1127" y1="546.3242" y2="546.3242"/><line style="stroke: #A80036; stroke-width: 1.0;" x1="1127" x2="1127" y1="546.3242" y2="559.3242"/><line style="stroke: #A80036; stroke-width: 1.0;" x1="1086" x2="1127" y1="559.3242" y2="559.3242"/><polygon fill="#A80036" points="1096,555.3242,1086,559.3242,1096,563.3242,1092,559.3242" style="stroke: #A80036; stroke-width: 1.0;"/><text fill="#000000" font-family="sans-serif" font-size="13" lengthAdjust="spacingAndGlyphs" textLength="95" x="1092" y="541.582">CheckQSStatus</text><polygon fill="#A80036" points="1276,584.3242,1286,588.3242,1276,592.3242,1280,588.3242" style="stroke: #A80036; stroke-width: 1.0;"/><line style="stroke: #A80036; stroke-width: 1.0;" x1="1085" x2="1282" y1="588.3242" y2="588.3242"/><text fill="#000000" font-family="sans-serif" font-size="13" lengthAdjust="spacingAndGlyphs" textLength="95" x="1092" y="583.8926">CheckQSStatus</text><polygon fill="#A80036" points="1474.5,613.6348,1484.5,617.6348,1474.5,621.6348,1478.5,617.6348" style="stroke: #A80036; stroke-width: 1.0;"/><line style="stroke: #A80036; stroke-width: 1.0;" x1="1288" x2="1480.5" y1="617.6348" y2="617.6348"/><text fill="#000000" font-family="sans-serif" font-size="13" lengthAdjust="spacingAndGlyphs" textLength="122" x="1295" y="613.2031">CloseRecordFileDlg</text><polygon fill="#FBFB77" filter="url(#f1)" points="1196,630.9453,1196,655.9453,1578,655.9453,1578,640.9453,1568,630.9453,1196,630.9453" style="stroke: #A80036; stroke-width: 1.0;"/><line style="stroke: #A80036; stroke-width: 1.0;" x1="1568" x2="1568" y1="630.9453" y2="640.9453"/><line style="stroke: #A80036; stroke-width: 1.0;" x1="1578" x2="1568" y1="640.9453" y2="640.9453"/><text fill="#000000" font-family="sans-serif" font-size="13" lengthAdjust="spacingAndGlyphs" textLength="256" x="1252.5" y="648.5137">Close "Save Recorded Meeting As" dialog</text><line style="stroke: #A80036; stroke-width: 1.0;" x1="606" x2="648" y1="686.5664" y2="686.5664"/><line style="stroke: #A80036; stroke-width: 1.0;" x1="648" x2="648" y1="686.5664" y2="699.5664"/><line style="stroke: #A80036; stroke-width: 1.0;" x1="607" x2="648" y1="699.5664" y2="699.5664"/><polygon fill="#A80036" points="617,695.5664,607,699.5664,617,703.5664,613,699.5664" style="stroke: #A80036; stroke-width: 1.0;"/><text fill="#000000" font-family="sans-serif" font-size="13" lengthAdjust="spacingAndGlyphs" textLength="141" x="613" y="681.8242">SetTeleOptionPrivilege</text><line style="stroke: #A80036; stroke-width: 1.0;" x1="606" x2="648" y1="728.877" y2="728.877"/><line style="stroke: #A80036; stroke-width: 1.0;" x1="648" x2="648" y1="728.877" y2="741.877"/><line style="stroke: #A80036; stroke-width: 1.0;" x1="607" x2="648" y1="741.877" y2="741.877"/><polygon fill="#A80036" points="617,737.877,607,741.877,617,745.877,613,741.877" style="stroke: #A80036; stroke-width: 1.0;"/><text fill="#000000" font-family="sans-serif" font-size="13" lengthAdjust="spacingAndGlyphs" textLength="158" x="613" y="724.1348">SetRecordOptionPrivilege</text><polygon fill="#A80036" points="1661,766.877,1671,770.877,1661,774.877,1665,770.877" style="stroke: #A80036; stroke-width: 1.0;"/><line style="stroke: #A80036; stroke-width: 1.0;" x1="606" x2="1667" y1="770.877" y2="770.877"/><text fill="#000000" font-family="sans-serif" font-size="13" lengthAdjust="spacingAndGlyphs" textLength="138" x="613" y="766.4453">SetShowRecordOption</text><line style="stroke: #A80036; stroke-width: 1.0;" x1="606" x2="648" y1="805.498" y2="805.498"/><line style="stroke: #A80036; stroke-width: 1.0;" x1="648" x2="648" y1="805.498" y2="818.498"/><line style="stroke: #A80036; stroke-width: 1.0;" x1="601" x2="648" y1="818.498" y2="818.498"/><polygon fill="#A80036" points="611,814.498,601,818.498,611,822.498,607,818.498" style="stroke: #A80036; stroke-width: 1.0;"/><text fill="#000000" font-family="sans-serif" font-size="13" lengthAdjust="spacingAndGlyphs" textLength="174" x="613" y="800.7559">SetAppShareOptionPrivilege</text></g></svg>