<?xml version="1.0" encoding="UTF-8" standalone="yes"?><svg xmlns="http://www.w3.org/2000/svg" xmlns:xlink="http://www.w3.org/1999/xlink" height="1001pt" style="width:1220px;height:1001px;" version="1.1" viewBox="0 0 1220 1001" width="1220pt"><defs><filter height="300%" id="f1" width="300%" x="-1" y="-1"><feGaussianBlur result="blurOut" stdDeviation="2.0"/><feColorMatrix in="blurOut" result="blurOut2" type="matrix" values="0 0 0 0 0 0 0 0 0 0 0 0 0 0 0 0 0 0 .4 0"/><feOffset dx="4.0" dy="4.0" in="blurOut2" result="blurOut3"/><feBlend in="SourceGraphic" in2="blurOut3" mode="normal"/></filter></defs><g><rect fill="#FFFFFF" filter="url(#f1)" height="528.6133" style="stroke: #A80036; stroke-width: 1.0;" width="10" x="449" y="408.5938"/><rect fill="#FFFFFF" filter="url(#f1)" height="180.8633" style="stroke: #A80036; stroke-width: 1.0;" width="10" x="454" y="541.8359"/><rect fill="#FFFFFF" filter="url(#f1)" height="449.9922" style="stroke: #000000; stroke-width: 2.0;" width="837" x="358.5" y="495.5254"/><rect fill="#FFFFFF" filter="url(#f1)" height="175.8633" style="stroke: #000000; stroke-width: 2.0;" width="817" x="368.5" y="562.1465"/><rect fill="#FFFFFF" filter="url(#f1)" height="144.5527" style="stroke: #000000; stroke-width: 2.0;" width="797" x="378.5" y="586.457"/><rect fill="#FFFFFF" height="128.8867" style="stroke: none; stroke-width: 1.0;" width="837" x="358.5" y="816.6309"/><line style="stroke: #A80036; stroke-width: 1.0; stroke-dasharray: 5.0,5.0;" x1="178.5" x2="178.5" y1="38.4883" y2="962.5176"/><line style="stroke: #A80036; stroke-width: 1.0; stroke-dasharray: 5.0,5.0;" x1="313.5" x2="313.5" y1="38.4883" y2="962.5176"/><line style="stroke: #A80036; stroke-width: 1.0; stroke-dasharray: 5.0,5.0;" x1="453.5" x2="453.5" y1="38.4883" y2="962.5176"/><line style="stroke: #A80036; stroke-width: 1.0; stroke-dasharray: 5.0,5.0;" x1="645.5" x2="645.5" y1="38.4883" y2="962.5176"/><line style="stroke: #A80036; stroke-width: 1.0; stroke-dasharray: 5.0,5.0;" x1="786.5" x2="786.5" y1="38.4883" y2="962.5176"/><line style="stroke: #A80036; stroke-width: 1.0; stroke-dasharray: 5.0,5.0;" x1="966.5" x2="966.5" y1="38.4883" y2="962.5176"/><line style="stroke: #A80036; stroke-width: 1.0; stroke-dasharray: 5.0,5.0;" x1="1097.5" x2="1097.5" y1="38.4883" y2="962.5176"/><rect fill="#FEFECE" filter="url(#f1)" height="30.4883" style="stroke: #A80036; stroke-width: 1.5;" width="87" x="133.5" y="3"/><text fill="#000000" font-family="sans-serif" font-size="14" lengthAdjust="spacingAndGlyphs" textLength="73" x="140.5" y="23.5352">CMCUIMgr</text><rect fill="#FEFECE" filter="url(#f1)" height="30.4883" style="stroke: #A80036; stroke-width: 1.5;" width="87" x="133.5" y="961.5176"/><text fill="#000000" font-family="sans-serif" font-size="14" lengthAdjust="spacingAndGlyphs" textLength="73" x="140.5" y="982.0527">CMCUIMgr</text><rect fill="#FEFECE" filter="url(#f1)" height="30.4883" style="stroke: #A80036; stroke-width: 1.5;" width="125" x="249.5" y="3"/><text fill="#000000" font-family="sans-serif" font-size="14" lengthAdjust="spacingAndGlyphs" textLength="111" x="256.5" y="23.5352">CMCFeatureMgr</text><rect fill="#FEFECE" filter="url(#f1)" height="30.4883" style="stroke: #A80036; stroke-width: 1.5;" width="125" x="249.5" y="961.5176"/><text fill="#000000" font-family="sans-serif" font-size="14" lengthAdjust="spacingAndGlyphs" textLength="111" x="256.5" y="982.0527">CMCFeatureMgr</text><rect fill="#FEFECE" filter="url(#f1)" height="30.4883" style="stroke: #A80036; stroke-width: 1.5;" width="127" x="388.5" y="3"/><text fill="#000000" font-family="sans-serif" font-size="14" lengthAdjust="spacingAndGlyphs" textLength="113" x="395.5" y="23.5352">CMCPrivilegeDlg</text><rect fill="#FEFECE" filter="url(#f1)" height="30.4883" style="stroke: #A80036; stroke-width: 1.5;" width="127" x="388.5" y="961.5176"/><text fill="#000000" font-family="sans-serif" font-size="14" lengthAdjust="spacingAndGlyphs" textLength="113" x="395.5" y="982.0527">CMCPrivilegeDlg</text><rect fill="#FEFECE" filter="url(#f1)" height="30.4883" style="stroke: #A80036; stroke-width: 1.5;" width="123" x="582.5" y="3"/><text fill="#000000" font-family="sans-serif" font-size="14" lengthAdjust="spacingAndGlyphs" textLength="109" x="589.5" y="23.5352">CPfwServiceMgr</text><rect fill="#FEFECE" filter="url(#f1)" height="30.4883" style="stroke: #A80036; stroke-width: 1.5;" width="123" x="582.5" y="961.5176"/><text fill="#000000" font-family="sans-serif" font-size="14" lengthAdjust="spacingAndGlyphs" textLength="109" x="589.5" y="982.0527">CPfwServiceMgr</text><rect fill="#FEFECE" filter="url(#f1)" height="30.4883" style="stroke: #A80036; stroke-width: 1.5;" width="131" x="719.5" y="3"/><text fill="#000000" font-family="sans-serif" font-size="14" lengthAdjust="spacingAndGlyphs" textLength="117" x="726.5" y="23.5352">CMCPrivilegeMgr</text><rect fill="#FEFECE" filter="url(#f1)" height="30.4883" style="stroke: #A80036; stroke-width: 1.5;" width="131" x="719.5" y="961.5176"/><text fill="#000000" font-family="sans-serif" font-size="14" lengthAdjust="spacingAndGlyphs" textLength="117" x="726.5" y="982.0527">CMCPrivilegeMgr</text><rect fill="#FEFECE" filter="url(#f1)" height="30.4883" style="stroke: #A80036; stroke-width: 1.5;" width="101" x="914.5" y="3"/><text fill="#000000" font-family="sans-serif" font-size="14" lengthAdjust="spacingAndGlyphs" textLength="87" x="921.5" y="23.5352">CMCPDUMgr</text><rect fill="#FEFECE" filter="url(#f1)" height="30.4883" style="stroke: #A80036; stroke-width: 1.5;" width="101" x="914.5" y="961.5176"/><text fill="#000000" font-family="sans-serif" font-size="14" lengthAdjust="spacingAndGlyphs" textLength="87" x="921.5" y="982.0527">CMCPDUMgr</text><rect fill="#FEFECE" filter="url(#f1)" height="30.4883" style="stroke: #A80036; stroke-width: 1.5;" width="132" x="1029.5" y="3"/><text fill="#000000" font-family="sans-serif" font-size="14" lengthAdjust="spacingAndGlyphs" textLength="118" x="1036.5" y="23.5352">CAtConfManager</text><rect fill="#FEFECE" filter="url(#f1)" height="30.4883" style="stroke: #A80036; stroke-width: 1.5;" width="132" x="1029.5" y="961.5176"/><text fill="#000000" font-family="sans-serif" font-size="14" lengthAdjust="spacingAndGlyphs" textLength="118" x="1036.5" y="982.0527">CAtConfManager</text><rect fill="#FFFFFF" filter="url(#f1)" height="528.6133" style="stroke: #A80036; stroke-width: 1.0;" width="10" x="449" y="408.5938"/><rect fill="#FFFFFF" filter="url(#f1)" height="180.8633" style="stroke: #A80036; stroke-width: 1.0;" width="10" x="454" y="541.8359"/><rect fill="#EEEEEE" filter="url(#f1)" height="3" style="stroke: #EEEEEE; stroke-width: 1.0;" width="1212.5" x="3" y="69.1436"/><line style="stroke: #000000; stroke-width: 1.0;" x1="3" x2="1215.5" y1="69.1436" y2="69.1436"/><line style="stroke: #000000; stroke-width: 1.0;" x1="3" x2="1215.5" y1="72.1436" y2="72.1436"/><rect fill="#EEEEEE" filter="url(#f1)" height="23.3105" style="stroke: #000000; stroke-width: 2.0;" width="236" x="491.25" y="58.4883"/><text fill="#000000" font-family="sans-serif" font-size="13" font-weight="bold" lengthAdjust="spacingAndGlyphs" textLength="222" x="497.25" y="75.0566">Show Participant privilege dialog</text><polygon fill="#A80036" points="167,108.7988,177,112.7988,167,116.7988,171,112.7988" style="stroke: #A80036; stroke-width: 1.0;"/><line style="stroke: #A80036; stroke-width: 1.0;" x1="3" x2="173" y1="112.7988" y2="112.7988"/><text fill="#000000" font-family="sans-serif" font-size="13" lengthAdjust="spacingAndGlyphs" textLength="145" x="10" y="108.3672">OnParticipantPrivileges</text><line style="stroke: #A80036; stroke-width: 1.0;" x1="179" x2="221" y1="142.4199" y2="142.4199"/><line style="stroke: #A80036; stroke-width: 1.0;" x1="221" x2="221" y1="142.4199" y2="155.4199"/><line style="stroke: #A80036; stroke-width: 1.0;" x1="180" x2="221" y1="155.4199" y2="155.4199"/><polygon fill="#A80036" points="190,151.4199,180,155.4199,190,159.4199,186,155.4199" style="stroke: #A80036; stroke-width: 1.0;"/><text fill="#000000" font-family="sans-serif" font-size="13" lengthAdjust="spacingAndGlyphs" textLength="111" x="186" y="137.6777">ShowPrivilegeInfo</text><polygon fill="#A80036" points="302,180.4199,312,184.4199,302,188.4199,306,184.4199" style="stroke: #A80036; stroke-width: 1.0;"/><line style="stroke: #A80036; stroke-width: 1.0;" x1="179" x2="308" y1="184.4199" y2="184.4199"/><text fill="#000000" font-family="sans-serif" font-size="13" lengthAdjust="spacingAndGlyphs" textLength="111" x="186" y="179.9883">ShowPrivilegeInfo</text><polygon fill="#A80036" points="442,209.7305,452,213.7305,442,217.7305,446,213.7305" style="stroke: #A80036; stroke-width: 1.0;"/><line style="stroke: #A80036; stroke-width: 1.0;" x1="314" x2="448" y1="213.7305" y2="213.7305"/><text fill="#000000" font-family="sans-serif" font-size="13" lengthAdjust="spacingAndGlyphs" textLength="40" x="321" y="209.2988">Create</text><polygon fill="#A80036" points="634,239.041,644,243.041,634,247.041,638,243.041" style="stroke: #A80036; stroke-width: 1.0;"/><line style="stroke: #A80036; stroke-width: 1.0;" x1="314" x2="640" y1="243.041" y2="243.041"/><text fill="#000000" font-family="sans-serif" font-size="13" lengthAdjust="spacingAndGlyphs" textLength="133" x="321" y="238.6094">ShowModelessDialog</text><rect fill="#EEEEEE" filter="url(#f1)" height="3" style="stroke: #EEEEEE; stroke-width: 1.0;" width="1212.5" x="3" y="272.0068"/><line style="stroke: #000000; stroke-width: 1.0;" x1="3" x2="1215.5" y1="272.0068" y2="272.0068"/><line style="stroke: #000000; stroke-width: 1.0;" x1="3" x2="1215.5" y1="275.0068" y2="275.0068"/><rect fill="#EEEEEE" filter="url(#f1)" height="23.3105" style="stroke: #000000; stroke-width: 2.0;" width="405" x="406.75" y="261.3516"/><text fill="#000000" font-family="sans-serif" font-size="13" font-weight="bold" lengthAdjust="spacingAndGlyphs" textLength="391" x="412.75" y="277.9199">User checked "Record a meeting" and Click Assign button</text><polygon fill="#A80036" points="442,311.6621,452,315.6621,442,319.6621,446,315.6621" style="stroke: #A80036; stroke-width: 1.0;"/><line style="stroke: #A80036; stroke-width: 1.0;" x1="3" x2="448" y1="315.6621" y2="315.6621"/><text fill="#000000" font-family="sans-serif" font-size="13" lengthAdjust="spacingAndGlyphs" textLength="82" x="10" y="311.2305">OnCommand</text><polygon fill="#FBFB77" filter="url(#f1)" points="386,353.2832,386,378.2832,517,378.2832,517,363.2832,507,353.2832,386,353.2832" style="stroke: #A80036; stroke-width: 1.0;"/><line style="stroke: #A80036; stroke-width: 1.0;" x1="507" x2="507" y1="353.2832" y2="363.2832"/><line style="stroke: #A80036; stroke-width: 1.0;" x1="517" x2="507" y1="363.2832" y2="363.2832"/><text fill="#000000" font-family="sans-serif" font-size="13" lengthAdjust="spacingAndGlyphs" textLength="110" x="392" y="370.8516">PRI_ATT_RECORD</text><polygon fill="#A80036" points="437,404.5938,447,408.5938,437,412.5938,441,408.5938" style="stroke: #A80036; stroke-width: 1.0;"/><line style="stroke: #A80036; stroke-width: 1.0;" x1="3" x2="443" y1="408.5938" y2="408.5938"/><text fill="#000000" font-family="sans-serif" font-size="13" lengthAdjust="spacingAndGlyphs" textLength="36" x="10" y="404.1621">OnOK</text><line style="stroke: #A80036; stroke-width: 1.0;" x1="459" x2="501" y1="438.2148" y2="438.2148"/><line style="stroke: #A80036; stroke-width: 1.0;" x1="501" x2="501" y1="438.2148" y2="451.2148"/><line style="stroke: #A80036; stroke-width: 1.0;" x1="460" x2="501" y1="451.2148" y2="451.2148"/><polygon fill="#A80036" points="470,447.2148,460,451.2148,470,455.2148,466,451.2148" style="stroke: #A80036; stroke-width: 1.0;"/><text fill="#000000" font-family="sans-serif" font-size="13" lengthAdjust="spacingAndGlyphs" textLength="154" x="466" y="433.4727">SaveAllAttendeePrivilege</text><polygon fill="#A80036" points="775,476.2148,785,480.2148,775,484.2148,779,480.2148" style="stroke: #A80036; stroke-width: 1.0;"/><line style="stroke: #A80036; stroke-width: 1.0;" x1="459" x2="781" y1="480.2148" y2="480.2148"/><text fill="#000000" font-family="sans-serif" font-size="13" lengthAdjust="spacingAndGlyphs" textLength="97" x="466" y="475.7832">CalcAllPrivilege</text><rect fill="none" height="449.9922" style="stroke: #000000; stroke-width: 2.0;" width="837" x="358.5" y="495.5254"/><polygon fill="#EEEEEE" points="358.5,495.5254,420.5,495.5254,420.5,502.5254,410.5,512.5254,358.5,512.5254,358.5,495.5254" style="stroke: #000000; stroke-width: 2.0;"/><text fill="#000000" font-family="sans-serif" font-size="13" font-weight="bold" lengthAdjust="spacingAndGlyphs" textLength="17" x="373.5" y="509.0938">alt</text><text fill="#000000" font-family="sans-serif" font-size="11" font-weight="bold" lengthAdjust="spacingAndGlyphs" textLength="166" x="435.5" y="508.1602">[CalcAllPrivilege return True]</text><line style="stroke: #A80036; stroke-width: 1.0;" x1="459" x2="506" y1="529.1465" y2="529.1465"/><line style="stroke: #A80036; stroke-width: 1.0;" x1="506" x2="506" y1="529.1465" y2="542.1465"/><line style="stroke: #A80036; stroke-width: 1.0;" x1="465" x2="506" y1="542.1465" y2="542.1465"/><polygon fill="#A80036" points="475,538.1465,465,542.1465,475,546.1465,471,542.1465" style="stroke: #A80036; stroke-width: 1.0;"/><text fill="#000000" font-family="sans-serif" font-size="13" lengthAdjust="spacingAndGlyphs" textLength="168" x="471" y="524.4043">SaveAllNewJoinAttendeePri</text><rect fill="none" height="175.8633" style="stroke: #000000; stroke-width: 2.0;" width="817" x="368.5" y="562.1465"/><polygon fill="#EEEEEE" points="368.5,562.1465,442.5,562.1465,442.5,569.1465,432.5,579.1465,368.5,579.1465,368.5,562.1465" style="stroke: #000000; stroke-width: 2.0;"/><text fill="#000000" font-family="sans-serif" font-size="13" font-weight="bold" lengthAdjust="spacingAndGlyphs" textLength="29" x="383.5" y="575.7148">loop</text><text fill="#000000" font-family="sans-serif" font-size="11" font-weight="bold" lengthAdjust="spacingAndGlyphs" textLength="140" x="457.5" y="574.7813">[m_arrNewUser.GetSize()]</text><rect fill="none" height="144.5527" style="stroke: #000000; stroke-width: 2.0;" width="797" x="378.5" y="586.457"/><polygon fill="#EEEEEE" points="378.5,586.457,440.5,586.457,440.5,593.457,430.5,603.457,378.5,603.457,378.5,586.457" style="stroke: #000000; stroke-width: 2.0;"/><text fill="#000000" font-family="sans-serif" font-size="13" font-weight="bold" lengthAdjust="spacingAndGlyphs" textLength="17" x="393.5" y="600.0254">alt</text><text fill="#000000" font-family="sans-serif" font-size="11" font-weight="bold" lengthAdjust="spacingAndGlyphs" textLength="188" x="455.5" y="599.0918">[CanSetUserPrivilege return True]</text><polygon fill="#A80036" points="775,620.7676,785,624.7676,775,628.7676,779,624.7676" style="stroke: #A80036; stroke-width: 1.0;"/><line style="stroke: #A80036; stroke-width: 1.0;" x1="464" x2="781" y1="624.7676" y2="624.7676"/><text fill="#000000" font-family="sans-serif" font-size="13" lengthAdjust="spacingAndGlyphs" textLength="128" x="471" y="620.3359">SetAttendeePrivilege</text><polygon fill="#A80036" points="955,650.0781,965,654.0781,955,658.0781,959,654.0781" style="stroke: #A80036; stroke-width: 1.0;"/><line style="stroke: #A80036; stroke-width: 1.0;" x1="787" x2="961" y1="654.0781" y2="654.0781"/><text fill="#000000" font-family="sans-serif" font-size="13" lengthAdjust="spacingAndGlyphs" textLength="156" x="794" y="649.6465">SendPrivilegeChangePDU</text><polygon fill="#FBFB77" filter="url(#f1)" points="729,667.3887,729,692.3887,1024,692.3887,1024,677.3887,1014,667.3887,729,667.3887" style="stroke: #A80036; stroke-width: 1.0;"/><line style="stroke: #A80036; stroke-width: 1.0;" x1="1014" x2="1014" y1="667.3887" y2="677.3887"/><line style="stroke: #A80036; stroke-width: 1.0;" x1="1024" x2="1014" y1="677.3887" y2="677.3887"/><text fill="#000000" font-family="sans-serif" font-size="13" lengthAdjust="spacingAndGlyphs" textLength="155" x="792.5" y="684.957">PDU_PRIVILEGE_CHANGE</text><polygon fill="#A80036" points="1085.5,718.6992,1095.5,722.6992,1085.5,726.6992,1089.5,722.6992" style="stroke: #A80036; stroke-width: 1.0;"/><line style="stroke: #A80036; stroke-width: 1.0;" x1="967" x2="1091.5" y1="722.6992" y2="722.6992"/><text fill="#000000" font-family="sans-serif" font-size="13" lengthAdjust="spacingAndGlyphs" textLength="63" x="974" y="718.2676">:SendData</text><line style="stroke: #A80036; stroke-width: 1.0;" x1="459" x2="501" y1="766.3203" y2="766.3203"/><line style="stroke: #A80036; stroke-width: 1.0;" x1="501" x2="501" y1="766.3203" y2="779.3203"/><line style="stroke: #A80036; stroke-width: 1.0;" x1="460" x2="501" y1="779.3203" y2="779.3203"/><polygon fill="#A80036" points="470,775.3203,460,779.3203,470,783.3203,466,779.3203" style="stroke: #A80036; stroke-width: 1.0;"/><text fill="#000000" font-family="sans-serif" font-size="13" lengthAdjust="spacingAndGlyphs" textLength="97" x="466" y="761.5781">SetWeakClietPri</text><polygon fill="#A80036" points="775,804.3203,785,808.3203,775,812.3203,779,808.3203" style="stroke: #A80036; stroke-width: 1.0;"/><line style="stroke: #A80036; stroke-width: 1.0;" x1="459" x2="781" y1="808.3203" y2="808.3203"/><text fill="#000000" font-family="sans-serif" font-size="13" lengthAdjust="spacingAndGlyphs" textLength="158" x="466" y="803.8887">RefreshPresenterPrivilege</text><line style="stroke: #000000; stroke-width: 1.0; stroke-dasharray: 2.0,2.0;" x1="358.5" x2="1195.5" y1="817.6309" y2="817.6309"/><text fill="#000000" font-family="sans-serif" font-size="11" font-weight="bold" lengthAdjust="spacingAndGlyphs" textLength="168" x="363.5" y="828.2656">[CalcAllPrivilege return False]</text><line style="stroke: #A80036; stroke-width: 1.0;" x1="459" x2="501" y1="852.8965" y2="852.8965"/><line style="stroke: #A80036; stroke-width: 1.0;" x1="501" x2="501" y1="852.8965" y2="865.8965"/><line style="stroke: #A80036; stroke-width: 1.0;" x1="460" x2="501" y1="865.8965" y2="865.8965"/><polygon fill="#A80036" points="470,861.8965,460,865.8965,470,869.8965,466,865.8965" style="stroke: #A80036; stroke-width: 1.0;"/><text fill="#000000" font-family="sans-serif" font-size="13" lengthAdjust="spacingAndGlyphs" textLength="168" x="466" y="848.1543">SaveAllNewJoinAttendeePri</text><line style="stroke: #A80036; stroke-width: 1.0;" x1="459" x2="501" y1="895.207" y2="895.207"/><line style="stroke: #A80036; stroke-width: 1.0;" x1="501" x2="501" y1="895.207" y2="908.207"/><line style="stroke: #A80036; stroke-width: 1.0;" x1="460" x2="501" y1="908.207" y2="908.207"/><polygon fill="#A80036" points="470,904.207,460,908.207,470,912.207,466,908.207" style="stroke: #A80036; stroke-width: 1.0;"/><text fill="#000000" font-family="sans-serif" font-size="13" lengthAdjust="spacingAndGlyphs" textLength="97" x="466" y="890.4648">SetWeakClietPri</text><polygon fill="#A80036" points="775,933.207,785,937.207,775,941.207,779,937.207" style="stroke: #A80036; stroke-width: 1.0;"/><line style="stroke: #A80036; stroke-width: 1.0;" x1="454" x2="781" y1="937.207" y2="937.207"/><text fill="#000000" font-family="sans-serif" font-size="13" lengthAdjust="spacingAndGlyphs" textLength="158" x="461" y="932.7754">RefreshPresenterPrivilege</text></g></svg>