<?xml version="1.0" encoding="UTF-8" standalone="yes"?><svg xmlns="http://www.w3.org/2000/svg" xmlns:xlink="http://www.w3.org/1999/xlink" height="480pt" style="width:893px;height:480px;" version="1.1" viewBox="0 0 893 480" width="893pt"><defs><filter height="300%" id="f1" width="300%" x="-1" y="-1"><feGaussianBlur result="blurOut" stdDeviation="2.0"/><feColorMatrix in="blurOut" result="blurOut2" type="matrix" values="0 0 0 0 0 0 0 0 0 0 0 0 0 0 0 0 0 0 .4 0"/><feOffset dx="4.0" dy="4.0" in="blurOut2" result="blurOut3"/><feBlend in="SourceGraphic" in2="blurOut3" mode="normal"/></filter></defs><g><rect fill="#FFFFFF" filter="url(#f1)" height="250.1738" style="stroke: #A80036; stroke-width: 1.0;" width="10" x="594.5" y="117.4883"/><rect fill="#FFFFFF" filter="url(#f1)" height="135.2422" style="stroke: #A80036; stroke-width: 1.0;" width="10" x="599.5" y="154.7988"/><rect fill="#DDDDDD" height="475.4609" style="stroke: #A80036; stroke-width: 1.0;" width="133" x="60" y="4"/><text fill="#000000" font-family="sans-serif" font-size="13" font-weight="bold" lengthAdjust="spacingAndGlyphs" textLength="72" x="90.5" y="16.5684">WebExMgr</text><rect fill="#DDDDDD" height="475.4609" style="stroke: #A80036; stroke-width: 1.0;" width="133" x="402" y="4"/><text fill="#000000" font-family="sans-serif" font-size="13" font-weight="bold" lengthAdjust="spacingAndGlyphs" textLength="56" x="440.5" y="16.5684">UIFrame</text><rect fill="#DDDDDD" height="475.4609" style="stroke: #A80036; stroke-width: 1.0;" width="355" x="537" y="4"/><text fill="#000000" font-family="sans-serif" font-size="13" font-weight="bold" lengthAdjust="spacingAndGlyphs" textLength="67" x="681" y="16.5684">AtConfLib</text><line style="stroke: #A80036; stroke-width: 1.0; stroke-dasharray: 5.0,5.0;" x1="31" x2="31" y1="86.4883" y2="392.9727"/><line style="stroke: #A80036; stroke-width: 1.0; stroke-dasharray: 5.0,5.0;" x1="126" x2="126" y1="86.4883" y2="392.9727"/><line style="stroke: #A80036; stroke-width: 1.0; stroke-dasharray: 5.0,5.0;" x1="468" x2="468" y1="86.4883" y2="392.9727"/><line style="stroke: #A80036; stroke-width: 1.0; stroke-dasharray: 5.0,5.0;" x1="599" x2="599" y1="86.4883" y2="392.9727"/><line style="stroke: #A80036; stroke-width: 1.0; stroke-dasharray: 5.0,5.0;" x1="736" x2="736" y1="86.4883" y2="392.9727"/><line style="stroke: #A80036; stroke-width: 1.0; stroke-dasharray: 5.0,5.0;" x1="851" x2="851" y1="86.4883" y2="392.9727"/><text fill="#000000" font-family="sans-serif" font-size="14" lengthAdjust="spacingAndGlyphs" textLength="40" x="8" y="83.5352">atarm</text><ellipse cx="31" cy="13" fill="#FEFECE" filter="url(#f1)" rx="8" ry="8" style="stroke: #A80036; stroke-width: 2.0;"/><path d="M31,21 L31,48 M18,29 L44,29 M31,48 L18,63 M31,48 L44,63 " fill="#FEFECE" filter="url(#f1)" style="stroke: #A80036; stroke-width: 2.0;"/><text fill="#000000" font-family="sans-serif" font-size="14" lengthAdjust="spacingAndGlyphs" textLength="40" x="8" y="405.5078">atarm</text><ellipse cx="31" cy="418.4609" fill="#FEFECE" filter="url(#f1)" rx="8" ry="8" style="stroke: #A80036; stroke-width: 2.0;"/><path d="M31,426.4609 L31,453.4609 M18,434.4609 L44,434.4609 M31,453.4609 L18,468.4609 M31,453.4609 L44,468.4609 " fill="#FEFECE" filter="url(#f1)" style="stroke: #A80036; stroke-width: 2.0;"/><rect fill="#FEFECE" filter="url(#f1)" height="30.4883" style="stroke: #A80036; stroke-width: 1.5;" width="121" x="64" y="51"/><text fill="#000000" font-family="sans-serif" font-size="14" lengthAdjust="spacingAndGlyphs" textLength="107" x="71" y="71.5352">CMCServiceMgr</text><rect fill="#FEFECE" filter="url(#f1)" height="30.4883" style="stroke: #A80036; stroke-width: 1.5;" width="121" x="64" y="391.9727"/><text fill="#000000" font-family="sans-serif" font-size="14" lengthAdjust="spacingAndGlyphs" textLength="107" x="71" y="412.5078">CMCServiceMgr</text><rect fill="#FEFECE" filter="url(#f1)" height="30.4883" style="stroke: #A80036; stroke-width: 1.5;" width="121" x="406" y="51"/><text fill="#000000" font-family="sans-serif" font-size="14" lengthAdjust="spacingAndGlyphs" textLength="107" x="413" y="71.5352">CPfwModelBase</text><rect fill="#FEFECE" filter="url(#f1)" height="30.4883" style="stroke: #A80036; stroke-width: 1.5;" width="121" x="406" y="391.9727"/><text fill="#000000" font-family="sans-serif" font-size="14" lengthAdjust="spacingAndGlyphs" textLength="107" x="413" y="412.5078">CPfwModelBase</text><rect fill="#FEFECE" filter="url(#f1)" height="30.4883" style="stroke: #A80036; stroke-width: 1.5;" width="113" x="541" y="51"/><text fill="#000000" font-family="sans-serif" font-size="14" lengthAdjust="spacingAndGlyphs" textLength="99" x="548" y="71.5352">CAtConfAgent</text><rect fill="#FEFECE" filter="url(#f1)" height="30.4883" style="stroke: #A80036; stroke-width: 1.5;" width="113" x="541" y="391.9727"/><text fill="#000000" font-family="sans-serif" font-size="14" lengthAdjust="spacingAndGlyphs" textLength="99" x="548" y="412.5078">CAtConfAgent</text><rect fill="#FEFECE" filter="url(#f1)" height="30.4883" style="stroke: #A80036; stroke-width: 1.5;" width="132" x="668" y="51"/><text fill="#000000" font-family="sans-serif" font-size="14" lengthAdjust="spacingAndGlyphs" textLength="118" x="675" y="71.5352">CAtConfManager</text><rect fill="#FEFECE" filter="url(#f1)" height="30.4883" style="stroke: #A80036; stroke-width: 1.5;" width="132" x="668" y="391.9727"/><text fill="#000000" font-family="sans-serif" font-size="14" lengthAdjust="spacingAndGlyphs" textLength="118" x="675" y="412.5078">CAtConfManager</text><rect fill="#FEFECE" filter="url(#f1)" height="30.4883" style="stroke: #A80036; stroke-width: 1.5;" width="70" x="814" y="51"/><text fill="#000000" font-family="sans-serif" font-size="14" lengthAdjust="spacingAndGlyphs" textLength="56" x="821" y="71.5352">CAtUser</text><rect fill="#FEFECE" filter="url(#f1)" height="30.4883" style="stroke: #A80036; stroke-width: 1.5;" width="70" x="814" y="391.9727"/><text fill="#000000" font-family="sans-serif" font-size="14" lengthAdjust="spacingAndGlyphs" textLength="56" x="821" y="412.5078">CAtUser</text><rect fill="#FFFFFF" filter="url(#f1)" height="250.1738" style="stroke: #A80036; stroke-width: 1.0;" width="10" x="594.5" y="117.4883"/><rect fill="#FFFFFF" filter="url(#f1)" height="135.2422" style="stroke: #A80036; stroke-width: 1.0;" width="10" x="599.5" y="154.7988"/><polygon fill="#A80036" points="582.5,113.4883,592.5,117.4883,582.5,121.4883,586.5,117.4883" style="stroke: #A80036; stroke-width: 1.0;"/><line style="stroke: #A80036; stroke-width: 1.0;" x1="31" x2="588.5" y1="117.4883" y2="117.4883"/><text fill="#000000" font-family="sans-serif" font-size="13" lengthAdjust="spacingAndGlyphs" textLength="251" x="38" y="113.0566">on_conference_roster_report_indication</text><line style="stroke: #A80036; stroke-width: 1.0;" x1="604.5" x2="651.5" y1="142.1094" y2="142.1094"/><line style="stroke: #A80036; stroke-width: 1.0;" x1="651.5" x2="651.5" y1="142.1094" y2="155.1094"/><line style="stroke: #A80036; stroke-width: 1.0;" x1="610.5" x2="651.5" y1="155.1094" y2="155.1094"/><polygon fill="#A80036" points="620.5,151.1094,610.5,155.1094,620.5,159.1094,616.5,155.1094" style="stroke: #A80036; stroke-width: 1.0;"/><text fill="#000000" font-family="sans-serif" font-size="13" lengthAdjust="spacingAndGlyphs" textLength="53" x="616.5" y="137.3672">AddUser</text><polygon fill="#A80036" points="724,185.1094,734,189.1094,724,193.1094,728,189.1094" style="stroke: #A80036; stroke-width: 1.0;"/><line style="stroke: #A80036; stroke-width: 1.0;" x1="609.5" x2="730" y1="189.1094" y2="189.1094"/><text fill="#000000" font-family="sans-serif" font-size="13" lengthAdjust="spacingAndGlyphs" textLength="53" x="616.5" y="184.6777">AddUser</text><polygon fill="#A80036" points="137.5,214.4199,127.5,218.4199,137.5,222.4199,133.5,218.4199" style="stroke: #A80036; stroke-width: 1.0;"/><line style="stroke: #A80036; stroke-width: 1.0;" x1="131.5" x2="735" y1="218.4199" y2="218.4199"/><text fill="#000000" font-family="sans-serif" font-size="13" lengthAdjust="spacingAndGlyphs" textLength="156" x="143.5" y="213.9883">OnUserChangeIndication</text><line style="stroke: #A80036; stroke-width: 1.0;" x1="126.5" x2="168.5" y1="248.041" y2="248.041"/><line style="stroke: #A80036; stroke-width: 1.0;" x1="168.5" x2="168.5" y1="248.041" y2="261.041"/><line style="stroke: #A80036; stroke-width: 1.0;" x1="127.5" x2="168.5" y1="261.041" y2="261.041"/><polygon fill="#A80036" points="137.5,257.041,127.5,261.041,137.5,265.041,133.5,261.041" style="stroke: #A80036; stroke-width: 1.0;"/><text fill="#000000" font-family="sans-serif" font-size="13" lengthAdjust="spacingAndGlyphs" textLength="214" x="133.5" y="243.2988">OnUserChangeIndicationByService</text><polygon fill="#A80036" points="456.5,286.041,466.5,290.041,456.5,294.041,460.5,290.041" style="stroke: #A80036; stroke-width: 1.0;"/><line style="stroke: #A80036; stroke-width: 1.0;" x1="126.5" x2="462.5" y1="290.041" y2="290.041"/><text fill="#000000" font-family="sans-serif" font-size="13" lengthAdjust="spacingAndGlyphs" textLength="318" x="133.5" y="285.6094">NotifyObservers(MC_MODEL_WPARAM_USER_ADD)</text><line style="stroke: #A80036; stroke-width: 1.0;" x1="604.5" x2="646.5" y1="319.6621" y2="319.6621"/><line style="stroke: #A80036; stroke-width: 1.0;" x1="646.5" x2="646.5" y1="319.6621" y2="332.6621"/><line style="stroke: #A80036; stroke-width: 1.0;" x1="605.5" x2="646.5" y1="332.6621" y2="332.6621"/><polygon fill="#A80036" points="615.5,328.6621,605.5,332.6621,615.5,336.6621,611.5,332.6621" style="stroke: #A80036; stroke-width: 1.0;"/><text fill="#000000" font-family="sans-serif" font-size="13" lengthAdjust="spacingAndGlyphs" textLength="77" x="611.5" y="314.9199">RemoveUser</text><line style="stroke: #A80036; stroke-width: 1.0;" x1="604.5" x2="646.5" y1="366.9727" y2="366.9727"/><line style="stroke: #A80036; stroke-width: 1.0;" x1="646.5" x2="646.5" y1="366.9727" y2="379.9727"/><line style="stroke: #A80036; stroke-width: 1.0;" x1="599.5" x2="646.5" y1="379.9727" y2="379.9727"/><polygon fill="#A80036" points="609.5,375.9727,599.5,379.9727,609.5,383.9727,605.5,379.9727" style="stroke: #A80036; stroke-width: 1.0;"/><text fill="#000000" font-family="sans-serif" font-size="13" lengthAdjust="spacingAndGlyphs" textLength="71" x="611.5" y="362.2305">ModifyUser</text></g></svg>