<?xml version="1.0" encoding="UTF-8" standalone="no"?><svg xmlns="http://www.w3.org/2000/svg" xmlns:xlink="http://www.w3.org/1999/xlink" contentScriptType="application/ecmascript" contentStyleType="text/css" height="1279px" preserveAspectRatio="none" style="width:1963px;height:1279px;" version="1.1" viewBox="0 0 1963 1279" width="1963px" zoomAndPan="magnify"><defs><filter height="300%" id="ft780za" width="300%" x="-1" y="-1"><feGaussianBlur result="blurOut" stdDeviation="2.0"/><feColorMatrix in="blurOut" result="blurOut2" type="matrix" values="0 0 0 0 0 0 0 0 0 0 0 0 0 0 0 0 0 0 .4 0"/><feOffset dx="4.0" dy="4.0" in="blurOut2" result="blurOut3"/><feBlend in="SourceGraphic" in2="blurOut3" mode="normal"/></filter></defs><g><rect fill="#FFFFFF" filter="url(#ft780za)" height="956.2715" style="stroke: #A80036; stroke-width: 1.0;" width="10" x="999" y="274.6621"/><rect fill="#FFFFFF" filter="url(#ft780za)" height="433.0371" style="stroke: #A80036; stroke-width: 1.0;" width="10" x="1004" y="378.5938"/><rect fill="#FFFFFF" filter="url(#ft780za)" height="164.5527" style="stroke: #A80036; stroke-width: 1.0;" width="10" x="1009" y="474.5254"/><rect fill="#FFFFFF" filter="url(#ft780za)" height="128.2422" style="stroke: #A80036; stroke-width: 1.0;" width="10" x="1009" y="683.3887"/><rect fill="#FFFFFF" filter="url(#ft780za)" height="212.7949" style="stroke: #A80036; stroke-width: 1.0;" width="10" x="1004" y="870.8965"/><rect fill="#FFFFFF" filter="url(#ft780za)" height="103.2422" style="stroke: #A80036; stroke-width: 1.0;" width="10" x="1004" y="1119.6914"/><rect fill="#FFFFFF" filter="url(#ft780za)" height="1045.2031" style="stroke: #000000; stroke-width: 2.0;" width="1688.5" x="96" y="177.7305"/><rect fill="#FFFFFF" filter="url(#ft780za)" height="751.4082" style="stroke: #000000; stroke-width: 2.0;" width="1668.5" x="106" y="332.2832"/><rect fill="#FFFFFF" filter="url(#ft780za)" height="219.1738" style="stroke: #000000; stroke-width: 2.0;" width="1648.5" x="116" y="428.2148"/><rect fill="#FFFFFF" height="256.75" style="stroke: none; stroke-width: 1.0;" width="1668.5" x="106" y="826.9414"/><rect fill="#FFFFFF" filter="url(#ft780za)" height="62.9316" style="stroke: #000000; stroke-width: 2.0;" width="300" x="904.5" y="891.207"/><rect fill="#FFFFFF" filter="url(#ft780za)" height="62.9316" style="stroke: #000000; stroke-width: 2.0;" width="209" x="904.5" y="968.1387"/><rect fill="#FFFFFF" filter="url(#ft780za)" height="46.6211" style="stroke: #000000; stroke-width: 2.0;" width="349" x="754.5" y="1169.3125"/><rect fill="#DDDDDD" height="1274.4219" style="stroke: #A80036; stroke-width: 1.0;" width="289" x="4" y="4"/><text fill="#000000" font-family="sans-serif" font-size="13" font-weight="bold" lengthAdjust="spacingAndGlyphs" textLength="72" x="112.5" y="16.5684">WebexMgr</text><rect fill="#DDDDDD" height="1274.4219" style="stroke: #A80036; stroke-width: 1.0;" width="317.5" x="295" y="4"/><text fill="#000000" font-family="sans-serif" font-size="13" font-weight="bold" lengthAdjust="spacingAndGlyphs" textLength="75" x="416.25" y="16.5684">ServiceMgr</text><rect fill="#DDDDDD" height="1274.4219" style="stroke: #A80036; stroke-width: 1.0;" width="483" x="614.5" y="4"/><text fill="#000000" font-family="sans-serif" font-size="13" font-weight="bold" lengthAdjust="spacingAndGlyphs" textLength="63" x="824.5" y="16.5684">HybridCli</text><rect fill="#DDDDDD" height="1274.4219" style="stroke: #A80036; stroke-width: 1.0;" width="645" x="1113.5" y="4"/><text fill="#000000" font-family="sans-serif" font-size="13" font-weight="bold" lengthAdjust="spacingAndGlyphs" textLength="55" x="1408.5" y="16.5684">dtappcli</text><rect fill="#DDDDDD" height="1274.4219" style="stroke: #A80036; stroke-width: 1.0;" width="115" x="1760.5" y="4"/><text fill="#000000" font-family="sans-serif" font-size="13" font-weight="bold" lengthAdjust="spacingAndGlyphs" textLength="31" x="1802.5" y="16.5684">ARM</text><line style="stroke: #A80036; stroke-width: 1.0; stroke-dasharray: 5.0,5.0;" x1="62" x2="62" y1="58.7988" y2="1239.9336"/><line style="stroke: #A80036; stroke-width: 1.0; stroke-dasharray: 5.0,5.0;" x1="207" x2="207" y1="58.7988" y2="1239.9336"/><line style="stroke: #A80036; stroke-width: 1.0; stroke-dasharray: 5.0,5.0;" x1="362" x2="362" y1="58.7988" y2="1239.9336"/><line style="stroke: #A80036; stroke-width: 1.0; stroke-dasharray: 5.0,5.0;" x1="527.5" x2="527.5" y1="58.7988" y2="1239.9336"/><line style="stroke: #A80036; stroke-width: 1.0; stroke-dasharray: 5.0,5.0;" x1="686.5" x2="686.5" y1="58.7988" y2="1239.9336"/><line style="stroke: #A80036; stroke-width: 1.0; stroke-dasharray: 5.0,5.0;" x1="834.5" x2="834.5" y1="58.7988" y2="1239.9336"/><line style="stroke: #A80036; stroke-width: 1.0; stroke-dasharray: 5.0,5.0;" x1="1003.5" x2="1003.5" y1="58.7988" y2="1239.9336"/><line style="stroke: #A80036; stroke-width: 1.0; stroke-dasharray: 5.0,5.0;" x1="1174.5" x2="1174.5" y1="58.7988" y2="1239.9336"/><line style="stroke: #A80036; stroke-width: 1.0; stroke-dasharray: 5.0,5.0;" x1="1311.5" x2="1311.5" y1="58.7988" y2="1239.9336"/><line style="stroke: #A80036; stroke-width: 1.0; stroke-dasharray: 5.0,5.0;" x1="1500.5" x2="1500.5" y1="58.7988" y2="1239.9336"/><line style="stroke: #A80036; stroke-width: 1.0; stroke-dasharray: 5.0,5.0;" x1="1687.5" x2="1687.5" y1="58.7988" y2="1239.9336"/><line style="stroke: #A80036; stroke-width: 1.0; stroke-dasharray: 5.0,5.0;" x1="1817.5" x2="1817.5" y1="58.7988" y2="1239.9336"/><rect fill="#FEFECE" filter="url(#ft780za)" height="30.4883" style="stroke: #A80036; stroke-width: 1.5;" width="104" x="8" y="23.3105"/><text fill="#000000" font-family="sans-serif" font-size="14" lengthAdjust="spacingAndGlyphs" textLength="90" x="15" y="43.8457">CMCUserMgr</text><rect fill="#FEFECE" filter="url(#ft780za)" height="30.4883" style="stroke: #A80036; stroke-width: 1.5;" width="104" x="8" y="1238.9336"/><text fill="#000000" font-family="sans-serif" font-size="14" lengthAdjust="spacingAndGlyphs" textLength="90" x="15" y="1259.4688">CMCUserMgr</text><rect fill="#FEFECE" filter="url(#ft780za)" height="30.4883" style="stroke: #A80036; stroke-width: 1.5;" width="159" x="126" y="23.3105"/><text fill="#000000" font-family="sans-serif" font-size="14" lengthAdjust="spacingAndGlyphs" textLength="145" x="133" y="43.8457">CMCHybridAudioMgr</text><rect fill="#FEFECE" filter="url(#ft780za)" height="30.4883" style="stroke: #A80036; stroke-width: 1.5;" width="159" x="126" y="1238.9336"/><text fill="#000000" font-family="sans-serif" font-size="14" lengthAdjust="spacingAndGlyphs" textLength="145" x="133" y="1259.4688">CMCHybridAudioMgr</text><rect fill="#FEFECE" filter="url(#ft780za)" height="30.4883" style="stroke: #A80036; stroke-width: 1.5;" width="123" x="299" y="23.3105"/><text fill="#000000" font-family="sans-serif" font-size="14" lengthAdjust="spacingAndGlyphs" textLength="109" x="306" y="43.8457">CPfwServiceMgr</text><rect fill="#FEFECE" filter="url(#ft780za)" height="30.4883" style="stroke: #A80036; stroke-width: 1.5;" width="123" x="299" y="1238.9336"/><text fill="#000000" font-family="sans-serif" font-size="14" lengthAdjust="spacingAndGlyphs" textLength="109" x="306" y="1259.4688">CPfwServiceMgr</text><rect fill="#FEFECE" filter="url(#ft780za)" height="30.4883" style="stroke: #A80036; stroke-width: 1.5;" width="158" x="446.5" y="23.3105"/><text fill="#000000" font-family="sans-serif" font-size="14" lengthAdjust="spacingAndGlyphs" textLength="144" x="453.5" y="43.8457">CSmHybridAudioMgr</text><rect fill="#FEFECE" filter="url(#ft780za)" height="30.4883" style="stroke: #A80036; stroke-width: 1.5;" width="158" x="446.5" y="1238.9336"/><text fill="#000000" font-family="sans-serif" font-size="14" lengthAdjust="spacingAndGlyphs" textLength="144" x="453.5" y="1259.4688">CSmHybridAudioMgr</text><rect fill="#FEFECE" filter="url(#ft780za)" height="30.4883" style="stroke: #A80036; stroke-width: 1.5;" width="132" x="618.5" y="23.3105"/><text fill="#000000" font-family="sans-serif" font-size="14" lengthAdjust="spacingAndGlyphs" textLength="118" x="625.5" y="43.8457">IHybridClientSink</text><rect fill="#FEFECE" filter="url(#ft780za)" height="30.4883" style="stroke: #A80036; stroke-width: 1.5;" width="132" x="618.5" y="1238.9336"/><text fill="#000000" font-family="sans-serif" font-size="14" lengthAdjust="spacingAndGlyphs" textLength="118" x="625.5" y="1259.4688">IHybridClientSink</text><rect fill="#FEFECE" filter="url(#ft780za)" height="30.4883" style="stroke: #A80036; stroke-width: 1.5;" width="136" x="764.5" y="23.3105"/><text fill="#000000" font-family="sans-serif" font-size="14" lengthAdjust="spacingAndGlyphs" textLength="122" x="771.5" y="43.8457">CHybridClientMgr</text><rect fill="#FEFECE" filter="url(#ft780za)" height="30.4883" style="stroke: #A80036; stroke-width: 1.5;" width="136" x="764.5" y="1238.9336"/><text fill="#000000" font-family="sans-serif" font-size="14" lengthAdjust="spacingAndGlyphs" textLength="122" x="771.5" y="1259.4688">CHybridClientMgr</text><rect fill="#FEFECE" filter="url(#ft780za)" height="30.4883" style="stroke: #A80036; stroke-width: 1.5;" width="175" x="914.5" y="23.3105"/><text fill="#000000" font-family="sans-serif" font-size="14" lengthAdjust="spacingAndGlyphs" textLength="161" x="921.5" y="43.8457">CHCCTelephoneService</text><rect fill="#FEFECE" filter="url(#ft780za)" height="30.4883" style="stroke: #A80036; stroke-width: 1.5;" width="175" x="914.5" y="1238.9336"/><text fill="#000000" font-family="sans-serif" font-size="14" lengthAdjust="spacingAndGlyphs" textLength="161" x="921.5" y="1259.4688">CHCCTelephoneService</text><rect fill="#FEFECE" filter="url(#ft780za)" height="30.4883" style="stroke: #A80036; stroke-width: 1.5;" width="111" x="1117.5" y="23.3105"/><text fill="#000000" font-family="sans-serif" font-size="14" lengthAdjust="spacingAndGlyphs" textLength="97" x="1124.5" y="43.8457">CDTAppClient</text><rect fill="#FEFECE" filter="url(#ft780za)" height="30.4883" style="stroke: #A80036; stroke-width: 1.5;" width="111" x="1117.5" y="1238.9336"/><text fill="#000000" font-family="sans-serif" font-size="14" lengthAdjust="spacingAndGlyphs" textLength="97" x="1124.5" y="1259.4688">CDTAppClient</text><rect fill="#FEFECE" filter="url(#ft780za)" height="30.4883" style="stroke: #A80036; stroke-width: 1.5;" width="134" x="1242.5" y="23.3105"/><text fill="#000000" font-family="sans-serif" font-size="14" lengthAdjust="spacingAndGlyphs" textLength="120" x="1249.5" y="43.8457">IDTAppClientSink</text><rect fill="#FEFECE" filter="url(#ft780za)" height="30.4883" style="stroke: #A80036; stroke-width: 1.5;" width="134" x="1242.5" y="1238.9336"/><text fill="#000000" font-family="sans-serif" font-size="14" lengthAdjust="spacingAndGlyphs" textLength="120" x="1249.5" y="1259.4688">IDTAppClientSink</text><rect fill="#FEFECE" filter="url(#ft780za)" height="30.4883" style="stroke: #A80036; stroke-width: 1.5;" width="217" x="1390.5" y="23.3105"/><text fill="#000000" font-family="sans-serif" font-size="14" lengthAdjust="spacingAndGlyphs" textLength="203" x="1397.5" y="43.8457">CDTAppPDU_Data_HyASNNTY</text><rect fill="#FEFECE" filter="url(#ft780za)" height="30.4883" style="stroke: #A80036; stroke-width: 1.5;" width="217" x="1390.5" y="1238.9336"/><text fill="#000000" font-family="sans-serif" font-size="14" lengthAdjust="spacingAndGlyphs" textLength="203" x="1397.5" y="1259.4688">CDTAppPDU_Data_HyASNNTY</text><rect fill="#FEFECE" filter="url(#ft780za)" height="30.4883" style="stroke: #A80036; stroke-width: 1.5;" width="129" x="1621.5" y="23.3105"/><text fill="#000000" font-family="sans-serif" font-size="14" lengthAdjust="spacingAndGlyphs" textLength="115" x="1628.5" y="43.8457">CHCCApeRecord</text><rect fill="#FEFECE" filter="url(#ft780za)" height="30.4883" style="stroke: #A80036; stroke-width: 1.5;" width="129" x="1621.5" y="1238.9336"/><text fill="#000000" font-family="sans-serif" font-size="14" lengthAdjust="spacingAndGlyphs" textLength="115" x="1628.5" y="1259.4688">CHCCApeRecord</text><rect fill="#FEFECE" filter="url(#ft780za)" height="30.4883" style="stroke: #A80036; stroke-width: 1.5;" width="103" x="1764.5" y="23.3105"/><text fill="#000000" font-family="sans-serif" font-size="14" lengthAdjust="spacingAndGlyphs" textLength="89" x="1771.5" y="43.8457">IArmApeSink</text><rect fill="#FEFECE" filter="url(#ft780za)" height="30.4883" style="stroke: #A80036; stroke-width: 1.5;" width="103" x="1764.5" y="1238.9336"/><text fill="#000000" font-family="sans-serif" font-size="14" lengthAdjust="spacingAndGlyphs" textLength="89" x="1771.5" y="1259.4688">IArmApeSink</text><rect fill="#FFFFFF" filter="url(#ft780za)" height="956.2715" style="stroke: #A80036; stroke-width: 1.0;" width="10" x="999" y="274.6621"/><rect fill="#FFFFFF" filter="url(#ft780za)" height="433.0371" style="stroke: #A80036; stroke-width: 1.0;" width="10" x="1004" y="378.5938"/><rect fill="#FFFFFF" filter="url(#ft780za)" height="164.5527" style="stroke: #A80036; stroke-width: 1.0;" width="10" x="1009" y="474.5254"/><rect fill="#FFFFFF" filter="url(#ft780za)" height="128.2422" style="stroke: #A80036; stroke-width: 1.0;" width="10" x="1009" y="683.3887"/><rect fill="#FFFFFF" filter="url(#ft780za)" height="212.7949" style="stroke: #A80036; stroke-width: 1.0;" width="10" x="1004" y="870.8965"/><rect fill="#FFFFFF" filter="url(#ft780za)" height="103.2422" style="stroke: #A80036; stroke-width: 1.0;" width="10" x="1004" y="1119.6914"/><rect fill="#EEEEEE" filter="url(#ft780za)" height="3" style="stroke: #EEEEEE; stroke-width: 1.0;" width="1955" x="3" y="89.4541"/><line style="stroke: #000000; stroke-width: 1.0;" x1="3" x2="1958" y1="89.4541" y2="89.4541"/><line style="stroke: #000000; stroke-width: 1.0;" x1="3" x2="1958" y1="92.4541" y2="92.4541"/><rect fill="#EEEEEE" filter="url(#ft780za)" height="23.3105" style="stroke: #000000; stroke-width: 2.0;" width="133" x="914" y="78.7988"/><text fill="#000000" font-family="sans-serif" font-size="13" font-weight="bold" lengthAdjust="spacingAndGlyphs" textLength="115" x="920" y="95.3672">Recieve ASN PDU</text><polygon fill="#A80036" points="1829,129.1094,1819,133.1094,1829,137.1094,1825,133.1094" style="stroke: #A80036; stroke-width: 1.0;"/><line style="stroke: #A80036; stroke-width: 1.0;" x1="1823" x2="1957" y1="133.1094" y2="133.1094"/><text fill="#000000" font-family="sans-serif" font-size="13" lengthAdjust="spacingAndGlyphs" textLength="116" x="1835" y="128.6777">ApeDataIndication</text><polygon fill="#A80036" points="1186,158.4199,1176,162.4199,1186,166.4199,1182,162.4199" style="stroke: #A80036; stroke-width: 1.0;"/><line style="stroke: #A80036; stroke-width: 1.0;" x1="1180" x2="1817" y1="162.4199" y2="162.4199"/><text fill="#000000" font-family="sans-serif" font-size="13" lengthAdjust="spacingAndGlyphs" textLength="116" x="1192" y="157.9883">ApeDataIndication</text><rect fill="none" height="1045.2031" style="stroke: #000000; stroke-width: 2.0;" width="1688.5" x="96" y="177.7305"/><polygon fill="#EEEEEE" points="96,177.7305,158,177.7305,158,184.7305,148,194.7305,96,194.7305,96,177.7305" style="stroke: #000000; stroke-width: 2.0;"/><text fill="#000000" font-family="sans-serif" font-size="13" font-weight="bold" lengthAdjust="spacingAndGlyphs" textLength="17" x="111" y="191.2988">alt</text><text fill="#000000" font-family="sans-serif" font-size="11" font-weight="bold" lengthAdjust="spacingAndGlyphs" textLength="124" x="173" y="190.3652">["DTApp_Evt_HyASN"]</text><polygon fill="#A80036" points="1489,212.041,1499,216.041,1489,220.041,1493,216.041" style="stroke: #A80036; stroke-width: 1.0;"/><line style="stroke: #A80036; stroke-width: 1.0;" x1="1175" x2="1495" y1="216.041" y2="216.041"/><text fill="#000000" font-family="sans-serif" font-size="13" lengthAdjust="spacingAndGlyphs" textLength="47" x="1182" y="211.6094">Decode</text><polygon fill="#A80036" points="1299.5,241.3516,1309.5,245.3516,1299.5,249.3516,1303.5,245.3516" style="stroke: #A80036; stroke-width: 1.0;"/><line style="stroke: #A80036; stroke-width: 1.0;" x1="1175" x2="1305.5" y1="245.3516" y2="245.3516"/><text fill="#000000" font-family="sans-serif" font-size="13" lengthAdjust="spacingAndGlyphs" textLength="85" x="1182" y="240.9199">OnASNReport</text><polygon fill="#A80036" points="1020,270.6621,1010,274.6621,1020,278.6621,1016,274.6621" style="stroke: #A80036; stroke-width: 1.0;"/><line style="stroke: #A80036; stroke-width: 1.0;" x1="1014" x2="1310.5" y1="274.6621" y2="274.6621"/><text fill="#000000" font-family="sans-serif" font-size="13" lengthAdjust="spacingAndGlyphs" textLength="85" x="1026" y="270.2305">OnASNReport</text><line style="stroke: #A80036; stroke-width: 1.0;" x1="1009" x2="1051" y1="304.2832" y2="304.2832"/><line style="stroke: #A80036; stroke-width: 1.0;" x1="1051" x2="1051" y1="304.2832" y2="317.2832"/><line style="stroke: #A80036; stroke-width: 1.0;" x1="1010" x2="1051" y1="317.2832" y2="317.2832"/><polygon fill="#A80036" points="1020,313.2832,1010,317.2832,1020,321.2832,1016,317.2832" style="stroke: #A80036; stroke-width: 1.0;"/><text fill="#000000" font-family="sans-serif" font-size="13" lengthAdjust="spacingAndGlyphs" textLength="147" x="1016" y="299.541">HandleCMR4ASNReport</text><rect fill="none" height="751.4082" style="stroke: #000000; stroke-width: 2.0;" width="1668.5" x="106" y="332.2832"/><polygon fill="#EEEEEE" points="106,332.2832,168,332.2832,168,339.2832,158,349.2832,106,349.2832,106,332.2832" style="stroke: #000000; stroke-width: 2.0;"/><text fill="#000000" font-family="sans-serif" font-size="13" font-weight="bold" lengthAdjust="spacingAndGlyphs" textLength="17" x="121" y="345.8516">alt</text><text fill="#000000" font-family="sans-serif" font-size="11" font-weight="bold" lengthAdjust="spacingAndGlyphs" textLength="423" x="183" y="344.918">["no user is speaking (attendeeID1 == attendeeID2 == attendeeID3 == 0)"]</text><line style="stroke: #A80036; stroke-width: 1.0;" x1="1009" x2="1056" y1="365.9043" y2="365.9043"/><line style="stroke: #A80036; stroke-width: 1.0;" x1="1056" x2="1056" y1="365.9043" y2="378.9043"/><line style="stroke: #A80036; stroke-width: 1.0;" x1="1015" x2="1056" y1="378.9043" y2="378.9043"/><polygon fill="#A80036" points="1025,374.9043,1015,378.9043,1025,382.9043,1021,378.9043" style="stroke: #A80036; stroke-width: 1.0;"/><text fill="#000000" font-family="sans-serif" font-size="13" lengthAdjust="spacingAndGlyphs" textLength="54" x="1021" y="361.1621">StopASN</text><polygon fill="#A80036" points="845.5,408.9043,835.5,412.9043,845.5,416.9043,841.5,412.9043" style="stroke: #A80036; stroke-width: 1.0;"/><line style="stroke: #A80036; stroke-width: 1.0;" x1="839.5" x2="1003" y1="412.9043" y2="412.9043"/><text fill="#000000" font-family="sans-serif" font-size="13" lengthAdjust="spacingAndGlyphs" textLength="113" x="851.5" y="408.4727">GetASNUserCount</text><rect fill="none" height="219.1738" style="stroke: #000000; stroke-width: 2.0;" width="1648.5" x="116" y="428.2148"/><polygon fill="#EEEEEE" points="116,428.2148,190,428.2148,190,435.2148,180,445.2148,116,445.2148,116,428.2148" style="stroke: #000000; stroke-width: 2.0;"/><text fill="#000000" font-family="sans-serif" font-size="13" font-weight="bold" lengthAdjust="spacingAndGlyphs" textLength="29" x="131" y="441.7832">loop</text><text fill="#000000" font-family="sans-serif" font-size="11" font-weight="bold" lengthAdjust="spacingAndGlyphs" textLength="88" x="205" y="440.8496">[ASNUserCount]</text><line style="stroke: #A80036; stroke-width: 1.0;" x1="1014" x2="1061" y1="461.8359" y2="461.8359"/><line style="stroke: #A80036; stroke-width: 1.0;" x1="1061" x2="1061" y1="461.8359" y2="474.8359"/><line style="stroke: #A80036; stroke-width: 1.0;" x1="1020" x2="1061" y1="474.8359" y2="474.8359"/><polygon fill="#A80036" points="1030,470.8359,1020,474.8359,1030,478.8359,1026,474.8359" style="stroke: #A80036; stroke-width: 1.0;"/><text fill="#000000" font-family="sans-serif" font-size="13" lengthAdjust="spacingAndGlyphs" textLength="61" x="1026" y="457.0938">FlashUser</text><polygon fill="#A80036" points="1676,504.8359,1686,508.8359,1676,512.8359,1680,508.8359" style="stroke: #A80036; stroke-width: 1.0;"/><line style="stroke: #A80036; stroke-width: 1.0;" x1="1019" x2="1682" y1="508.8359" y2="508.8359"/><text fill="#000000" font-family="sans-serif" font-size="13" lengthAdjust="spacingAndGlyphs" textLength="102" x="1026" y="504.4043">~MASK_PRI_ASN</text><line style="stroke: #A80036; stroke-width: 1.0;" x1="1019" x2="1061" y1="538.457" y2="538.457"/><line style="stroke: #A80036; stroke-width: 1.0;" x1="1061" x2="1061" y1="538.457" y2="551.457"/><line style="stroke: #A80036; stroke-width: 1.0;" x1="1020" x2="1061" y1="551.457" y2="551.457"/><polygon fill="#A80036" points="1030,547.457,1020,551.457,1030,555.457,1026,551.457" style="stroke: #A80036; stroke-width: 1.0;"/><text fill="#000000" font-family="sans-serif" font-size="13" lengthAdjust="spacingAndGlyphs" textLength="100" x="1026" y="533.7148">RosterToService</text><polygon fill="#A80036" points="697.5,576.457,687.5,580.457,697.5,584.457,693.5,580.457" style="stroke: #A80036; stroke-width: 1.0;"/><line style="stroke: #A80036; stroke-width: 1.0;" x1="691.5" x2="1008" y1="580.457" y2="580.457"/><text fill="#000000" font-family="sans-serif" font-size="13" lengthAdjust="spacingAndGlyphs" textLength="113" x="703.5" y="576.0254">OnRosterChanged</text><polygon fill="#A80036" points="218.5,605.7676,208.5,609.7676,218.5,613.7676,214.5,609.7676" style="stroke: #A80036; stroke-width: 1.0;"/><line style="stroke: #A80036; stroke-width: 1.0;" x1="212.5" x2="685.5" y1="609.7676" y2="609.7676"/><text fill="#000000" font-family="sans-serif" font-size="13" lengthAdjust="spacingAndGlyphs" textLength="113" x="224.5" y="605.3359">OnRosterChanged</text><polygon fill="#A80036" points="515.5,635.0781,525.5,639.0781,515.5,643.0781,519.5,639.0781" style="stroke: #A80036; stroke-width: 1.0;"/><line style="stroke: #A80036; stroke-width: 1.0;" x1="207.5" x2="521.5" y1="639.0781" y2="639.0781"/><text fill="#000000" font-family="sans-serif" font-size="13" lengthAdjust="spacingAndGlyphs" textLength="113" x="214.5" y="634.6465">OnRosterChanged</text><line style="stroke: #A80036; stroke-width: 1.0;" x1="1014" x2="1061" y1="670.6992" y2="670.6992"/><line style="stroke: #A80036; stroke-width: 1.0;" x1="1061" x2="1061" y1="670.6992" y2="683.6992"/><line style="stroke: #A80036; stroke-width: 1.0;" x1="1020" x2="1061" y1="683.6992" y2="683.6992"/><polygon fill="#A80036" points="1030,679.6992,1020,683.6992,1030,687.6992,1026,683.6992" style="stroke: #A80036; stroke-width: 1.0;"/><text fill="#000000" font-family="sans-serif" font-size="13" lengthAdjust="spacingAndGlyphs" textLength="94" x="1026" y="665.957">HandleSVCASN</text><polygon fill="#A80036" points="697.5,713.6992,687.5,717.6992,697.5,721.6992,693.5,717.6992" style="stroke: #A80036; stroke-width: 1.0;"/><line style="stroke: #A80036; stroke-width: 1.0;" x1="691.5" x2="1008" y1="717.6992" y2="717.6992"/><text fill="#000000" font-family="sans-serif" font-size="13" lengthAdjust="spacingAndGlyphs" textLength="85" x="703.5" y="713.2676">OnASNReport</text><polygon fill="#A80036" points="538.5,743.0098,528.5,747.0098,538.5,751.0098,534.5,747.0098" style="stroke: #A80036; stroke-width: 1.0;"/><line style="stroke: #A80036; stroke-width: 1.0;" x1="532.5" x2="685.5" y1="747.0098" y2="747.0098"/><text fill="#000000" font-family="sans-serif" font-size="13" lengthAdjust="spacingAndGlyphs" textLength="85" x="544.5" y="742.5781">OnASNReport</text><polygon fill="#A80036" points="373.5,772.3203,363.5,776.3203,373.5,780.3203,369.5,776.3203" style="stroke: #A80036; stroke-width: 1.0;"/><line style="stroke: #A80036; stroke-width: 1.0;" x1="367.5" x2="526.5" y1="776.3203" y2="776.3203"/><text fill="#000000" font-family="sans-serif" font-size="13" lengthAdjust="spacingAndGlyphs" textLength="85" x="379.5" y="771.8887">OnASNReport</text><line style="stroke: #A80036; stroke-width: 1.0;" x1="362.5" x2="404.5" y1="810.9414" y2="810.9414"/><line style="stroke: #A80036; stroke-width: 1.0;" x1="404.5" x2="404.5" y1="810.9414" y2="823.9414"/><line style="stroke: #A80036; stroke-width: 1.0;" x1="357.5" x2="404.5" y1="823.9414" y2="823.9414"/><polygon fill="#A80036" points="367.5,819.9414,357.5,823.9414,367.5,827.9414,363.5,823.9414" style="stroke: #A80036; stroke-width: 1.0;"/><text fill="#000000" font-family="sans-serif" font-size="13" lengthAdjust="spacingAndGlyphs" textLength="151" x="369.5" y="806.1992">ApplyNewActiveSpeaker</text><line style="stroke: #000000; stroke-width: 1.0; stroke-dasharray: 2.0,2.0;" x1="106" x2="1774.5" y1="827.9414" y2="827.9414"/><text fill="#000000" font-family="sans-serif" font-size="11" font-weight="bold" lengthAdjust="spacingAndGlyphs" textLength="144" x="111" y="838.5762">["some user is speaking"]</text><line style="stroke: #A80036; stroke-width: 1.0;" x1="1009" x2="1056" y1="858.207" y2="858.207"/><line style="stroke: #A80036; stroke-width: 1.0;" x1="1056" x2="1056" y1="858.207" y2="871.207"/><line style="stroke: #A80036; stroke-width: 1.0;" x1="1015" x2="1056" y1="871.207" y2="871.207"/><polygon fill="#A80036" points="1025,867.207,1015,871.207,1025,875.207,1021,871.207" style="stroke: #A80036; stroke-width: 1.0;"/><text fill="#000000" font-family="sans-serif" font-size="13" lengthAdjust="spacingAndGlyphs" textLength="55" x="1021" y="853.4648">StartASN</text><rect fill="none" height="62.9316" style="stroke: #000000; stroke-width: 2.0;" width="300" x="904.5" y="891.207"/><polygon fill="#EEEEEE" points="904.5,891.207,978.5,891.207,978.5,898.207,968.5,908.207,904.5,908.207,904.5,891.207" style="stroke: #000000; stroke-width: 2.0;"/><text fill="#000000" font-family="sans-serif" font-size="13" font-weight="bold" lengthAdjust="spacingAndGlyphs" textLength="29" x="919.5" y="904.7754">loop</text><text fill="#000000" font-family="sans-serif" font-size="11" font-weight="bold" lengthAdjust="spacingAndGlyphs" textLength="206" x="993.5" y="903.8418">[m_pHybridMgr-&gt;GetASNUserCount]</text><rect fill="#FFFFFF" filter="url(#ft780za)" height="40.6211" style="stroke: #000000; stroke-width: 2.0;" width="181" x="911.5" y="908.5176"/><polygon fill="#EEEEEE" points="911.5,908.5176,975.5,908.5176,975.5,915.5176,965.5,925.5176,911.5,925.5176,911.5,908.5176" style="stroke: #000000; stroke-width: 2.0;"/><text fill="#000000" font-family="sans-serif" font-size="13" font-weight="bold" lengthAdjust="spacingAndGlyphs" textLength="19" x="924.5" y="923.0859">ref</text><text fill="#000000" font-family="sans-serif" font-size="13" lengthAdjust="spacingAndGlyphs" textLength="101" x="953.5" y="942.0859">FlashUser(False)</text><rect fill="none" height="62.9316" style="stroke: #000000; stroke-width: 2.0;" width="209" x="904.5" y="968.1387"/><polygon fill="#EEEEEE" points="904.5,968.1387,978.5,968.1387,978.5,975.1387,968.5,985.1387,904.5,985.1387,904.5,968.1387" style="stroke: #000000; stroke-width: 2.0;"/><text fill="#000000" font-family="sans-serif" font-size="13" font-weight="bold" lengthAdjust="spacingAndGlyphs" textLength="29" x="919.5" y="981.707">loop</text><text fill="#000000" font-family="sans-serif" font-size="11" font-weight="bold" lengthAdjust="spacingAndGlyphs" textLength="115" x="993.5" y="980.7734">[aASNUser.GetCount]</text><rect fill="#FFFFFF" filter="url(#ft780za)" height="40.6211" style="stroke: #000000; stroke-width: 2.0;" width="181" x="911.5" y="985.4492"/><polygon fill="#EEEEEE" points="911.5,985.4492,975.5,985.4492,975.5,992.4492,965.5,1002.4492,911.5,1002.4492,911.5,985.4492" style="stroke: #000000; stroke-width: 2.0;"/><text fill="#000000" font-family="sans-serif" font-size="13" font-weight="bold" lengthAdjust="spacingAndGlyphs" textLength="19" x="924.5" y="1000.0176">ref</text><text fill="#000000" font-family="sans-serif" font-size="13" lengthAdjust="spacingAndGlyphs" textLength="97" x="955.5" y="1019.0176">FlashUser(True)</text><rect fill="#FFFFFF" filter="url(#ft780za)" height="40.6211" style="stroke: #000000; stroke-width: 2.0;" width="181" x="911.5" y="1038.0703"/><polygon fill="#EEEEEE" points="911.5,1038.0703,975.5,1038.0703,975.5,1045.0703,965.5,1055.0703,911.5,1055.0703,911.5,1038.0703" style="stroke: #000000; stroke-width: 2.0;"/><text fill="#000000" font-family="sans-serif" font-size="13" font-weight="bold" lengthAdjust="spacingAndGlyphs" textLength="19" x="924.5" y="1052.6387">ref</text><text fill="#000000" font-family="sans-serif" font-size="13" lengthAdjust="spacingAndGlyphs" textLength="94" x="957" y="1071.6387">HandleSVCASN</text><line style="stroke: #A80036; stroke-width: 1.0;" x1="1009" x2="1056" y1="1107.002" y2="1107.002"/><line style="stroke: #A80036; stroke-width: 1.0;" x1="1056" x2="1056" y1="1107.002" y2="1120.002"/><line style="stroke: #A80036; stroke-width: 1.0;" x1="1015" x2="1056" y1="1120.002" y2="1120.002"/><polygon fill="#A80036" points="1025,1116.002,1015,1120.002,1025,1124.002,1021,1120.002" style="stroke: #A80036; stroke-width: 1.0;"/><text fill="#000000" font-family="sans-serif" font-size="13" lengthAdjust="spacingAndGlyphs" textLength="82" x="1021" y="1102.2598">SaveASNUser</text><polygon fill="#A80036" points="845.5,1150.002,835.5,1154.002,845.5,1158.002,841.5,1154.002" style="stroke: #A80036; stroke-width: 1.0;"/><line style="stroke: #A80036; stroke-width: 1.0;" x1="839.5" x2="1003" y1="1154.002" y2="1154.002"/><text fill="#000000" font-family="sans-serif" font-size="13" lengthAdjust="spacingAndGlyphs" textLength="89" x="851.5" y="1149.5703">CleanASNUser</text><rect fill="none" height="46.6211" style="stroke: #000000; stroke-width: 2.0;" width="349" x="754.5" y="1169.3125"/><polygon fill="#EEEEEE" points="754.5,1169.3125,828.5,1169.3125,828.5,1176.3125,818.5,1186.3125,754.5,1186.3125,754.5,1169.3125" style="stroke: #000000; stroke-width: 2.0;"/><text fill="#000000" font-family="sans-serif" font-size="13" font-weight="bold" lengthAdjust="spacingAndGlyphs" textLength="29" x="769.5" y="1182.8809">loop</text><text fill="#000000" font-family="sans-serif" font-size="11" font-weight="bold" lengthAdjust="spacingAndGlyphs" textLength="209" x="843.5" y="1181.9473">["3 attendeeID and m_nVOIPASNCnt"]</text><polygon fill="#A80036" points="845.5,1203.623,835.5,1207.623,845.5,1211.623,841.5,1207.623" style="stroke: #A80036; stroke-width: 1.0;"/><line style="stroke: #A80036; stroke-width: 1.0;" x1="839.5" x2="1003" y1="1207.623" y2="1207.623"/><text fill="#000000" font-family="sans-serif" font-size="13" lengthAdjust="spacingAndGlyphs" textLength="79" x="851.5" y="1203.1914">AddASNUser</text></g></svg>