<?xml version="1.0" encoding="UTF-8" standalone="no"?><svg xmlns="http://www.w3.org/2000/svg" xmlns:xlink="http://www.w3.org/1999/xlink" contentScriptType="application/ecmascript" contentStyleType="text/css" height="514px" preserveAspectRatio="none" style="width:1167px;height:514px;" version="1.1" viewBox="0 0 1167 514" width="1167px" zoomAndPan="magnify"><defs><filter height="300%" id="f297y30" width="300%" x="-1" y="-1"><feGaussianBlur result="blurOut" stdDeviation="2.0"/><feColorMatrix in="blurOut" result="blurOut2" type="matrix" values="0 0 0 0 0 0 0 0 0 0 0 0 0 0 0 0 0 0 .4 0"/><feOffset dx="4.0" dy="4.0" in="blurOut2" result="blurOut3"/><feBlend in="SourceGraphic" in2="blurOut3" mode="normal"/></filter></defs><g><rect fill="#ADD8E6" height="509.0137" style="stroke: #A80036; stroke-width: 1.0;" width="268" x="24.5" y="4"/><text fill="#000000" font-family="sans-serif" font-size="13" font-weight="bold" lengthAdjust="spacingAndGlyphs" textLength="106" x="105.5" y="16.5684">CNBRPfwPlayCtl</text><rect fill="#ADD8E6" height="509.0137" style="stroke: #A80036; stroke-width: 1.0;" width="266" x="459" y="4"/><text fill="#000000" font-family="sans-serif" font-size="13" font-weight="bold" lengthAdjust="spacingAndGlyphs" textLength="77" x="553.5" y="16.5684">CNBRUIMgr</text><line style="stroke: #A80036; stroke-width: 1.0; stroke-dasharray: 5.0,5.0;" x1="90.5" x2="90.5" y1="58.7988" y2="474.5254"/><line style="stroke: #A80036; stroke-width: 1.0; stroke-dasharray: 5.0,5.0;" x1="225.5" x2="225.5" y1="58.7988" y2="474.5254"/><line style="stroke: #A80036; stroke-width: 1.0; stroke-dasharray: 5.0,5.0;" x1="373" x2="373" y1="58.7988" y2="474.5254"/><line style="stroke: #A80036; stroke-width: 1.0; stroke-dasharray: 5.0,5.0;" x1="523" x2="523" y1="58.7988" y2="474.5254"/><line style="stroke: #A80036; stroke-width: 1.0; stroke-dasharray: 5.0,5.0;" x1="673" x2="673" y1="58.7988" y2="474.5254"/><line style="stroke: #A80036; stroke-width: 1.0; stroke-dasharray: 5.0,5.0;" x1="845.5" x2="845.5" y1="58.7988" y2="474.5254"/><line style="stroke: #A80036; stroke-width: 1.0; stroke-dasharray: 5.0,5.0;" x1="962.5" x2="962.5" y1="58.7988" y2="474.5254"/><line style="stroke: #A80036; stroke-width: 1.0; stroke-dasharray: 5.0,5.0;" x1="1090.5" x2="1090.5" y1="58.7988" y2="474.5254"/><rect fill="#FEFECE" filter="url(#f297y30)" height="30.4883" style="stroke: #A80036; stroke-width: 1.5;" width="121" x="28.5" y="23.3105"/><text fill="#000000" font-family="sans-serif" font-size="14" lengthAdjust="spacingAndGlyphs" textLength="107" x="35.5" y="43.8457">INBRPlayCCSink</text><rect fill="#FEFECE" filter="url(#f297y30)" height="30.4883" style="stroke: #A80036; stroke-width: 1.5;" width="121" x="28.5" y="473.5254"/><text fill="#000000" font-family="sans-serif" font-size="14" lengthAdjust="spacingAndGlyphs" textLength="107" x="35.5" y="494.0605">INBRPlayCCSink</text><rect fill="#FEFECE" filter="url(#f297y30)" height="30.4883" style="stroke: #A80036; stroke-width: 1.5;" width="121" x="163.5" y="23.3105"/><text fill="#000000" font-family="sans-serif" font-size="14" lengthAdjust="spacingAndGlyphs" textLength="107" x="170.5" y="43.8457">CNBRPfwPlayCtl</text><rect fill="#FEFECE" filter="url(#f297y30)" height="30.4883" style="stroke: #A80036; stroke-width: 1.5;" width="121" x="163.5" y="473.5254"/><text fill="#000000" font-family="sans-serif" font-size="14" lengthAdjust="spacingAndGlyphs" textLength="107" x="170.5" y="494.0605">CNBRPfwPlayCtl</text><rect fill="#FEFECE" filter="url(#f297y30)" height="30.4883" style="stroke: #A80036; stroke-width: 1.5;" width="108" x="317" y="23.3105"/><text fill="#000000" font-family="sans-serif" font-size="14" lengthAdjust="spacingAndGlyphs" textLength="94" x="324" y="43.8457">CNBRPfwUICtl</text><rect fill="#FEFECE" filter="url(#f297y30)" height="30.4883" style="stroke: #A80036; stroke-width: 1.5;" width="108" x="317" y="473.5254"/><text fill="#000000" font-family="sans-serif" font-size="14" lengthAdjust="spacingAndGlyphs" textLength="94" x="324" y="494.0605">CNBRPfwUICtl</text><rect fill="#FEFECE" filter="url(#f297y30)" height="30.4883" style="stroke: #A80036; stroke-width: 1.5;" width="116" x="463" y="23.3105"/><text fill="#000000" font-family="sans-serif" font-size="14" lengthAdjust="spacingAndGlyphs" textLength="102" x="470" y="43.8457">INBRCommand</text><rect fill="#FEFECE" filter="url(#f297y30)" height="30.4883" style="stroke: #A80036; stroke-width: 1.5;" width="116" x="463" y="473.5254"/><text fill="#000000" font-family="sans-serif" font-size="14" lengthAdjust="spacingAndGlyphs" textLength="102" x="470" y="494.0605">INBRCommand</text><rect fill="#FEFECE" filter="url(#f297y30)" height="30.4883" style="stroke: #A80036; stroke-width: 1.5;" width="92" x="625" y="23.3105"/><text fill="#000000" font-family="sans-serif" font-size="14" lengthAdjust="spacingAndGlyphs" textLength="78" x="632" y="43.8457">CNBRUIMgr</text><rect fill="#FEFECE" filter="url(#f297y30)" height="30.4883" style="stroke: #A80036; stroke-width: 1.5;" width="92" x="625" y="473.5254"/><text fill="#000000" font-family="sans-serif" font-size="14" lengthAdjust="spacingAndGlyphs" textLength="78" x="632" y="494.0605">CNBRUIMgr</text><rect fill="#FEFECE" filter="url(#f297y30)" height="30.4883" style="stroke: #A80036; stroke-width: 1.5;" width="105" x="791.5" y="23.3105"/><text fill="#000000" font-family="sans-serif" font-size="14" lengthAdjust="spacingAndGlyphs" textLength="91" x="798.5" y="43.8457">CNBRPlayMgr</text><rect fill="#FEFECE" filter="url(#f297y30)" height="30.4883" style="stroke: #A80036; stroke-width: 1.5;" width="105" x="791.5" y="473.5254"/><text fill="#000000" font-family="sans-serif" font-size="14" lengthAdjust="spacingAndGlyphs" textLength="91" x="798.5" y="494.0605">CNBRPlayMgr</text><rect fill="#FEFECE" filter="url(#f297y30)" height="30.4883" style="stroke: #A80036; stroke-width: 1.5;" width="100" x="910.5" y="23.3105"/><text fill="#000000" font-family="sans-serif" font-size="14" lengthAdjust="spacingAndGlyphs" textLength="86" x="917.5" y="43.8457">CNBRPlayBar</text><rect fill="#FEFECE" filter="url(#f297y30)" height="30.4883" style="stroke: #A80036; stroke-width: 1.5;" width="100" x="910.5" y="473.5254"/><text fill="#000000" font-family="sans-serif" font-size="14" lengthAdjust="spacingAndGlyphs" textLength="86" x="917.5" y="494.0605">CNBRPlayBar</text><rect fill="#FEFECE" filter="url(#f297y30)" height="30.4883" style="stroke: #A80036; stroke-width: 1.5;" width="129" x="1024.5" y="23.3105"/><text fill="#000000" font-family="sans-serif" font-size="14" lengthAdjust="spacingAndGlyphs" textLength="115" x="1031.5" y="43.8457">CWbxBmpButton</text><rect fill="#FEFECE" filter="url(#f297y30)" height="30.4883" style="stroke: #A80036; stroke-width: 1.5;" width="129" x="1024.5" y="473.5254"/><text fill="#000000" font-family="sans-serif" font-size="14" lengthAdjust="spacingAndGlyphs" textLength="115" x="1031.5" y="494.0605">CWbxBmpButton</text><rect fill="#EEEEEE" filter="url(#f297y30)" height="3" style="stroke: #EEEEEE; stroke-width: 1.0;" width="1159.5" x="3" y="89.4541"/><line style="stroke: #000000; stroke-width: 1.0;" x1="3" x2="1162.5" y1="89.4541" y2="89.4541"/><line style="stroke: #000000; stroke-width: 1.0;" x1="3" x2="1162.5" y1="92.4541" y2="92.4541"/><rect fill="#EEEEEE" filter="url(#f297y30)" height="23.3105" style="stroke: #000000; stroke-width: 2.0;" width="261" x="452.25" y="78.7988"/><text fill="#000000" font-family="sans-serif" font-size="13" font-weight="bold" lengthAdjust="spacingAndGlyphs" textLength="243" x="458.25" y="95.3672">nmac notify nbr_pfw mute message</text><polygon fill="#A80036" points="79,129.1094,89,133.1094,79,137.1094,83,133.1094" style="stroke: #A80036; stroke-width: 1.0;"/><line style="stroke: #A80036; stroke-width: 1.0;" x1="3" x2="85" y1="133.1094" y2="133.1094"/><text fill="#000000" font-family="sans-serif" font-size="13" lengthAdjust="spacingAndGlyphs" textLength="64" x="10" y="128.6777">NotifyInfo</text><polygon fill="#A80036" points="214,158.4199,224,162.4199,214,166.4199,218,162.4199" style="stroke: #A80036; stroke-width: 1.0;"/><line style="stroke: #A80036; stroke-width: 1.0; stroke-dasharray: 2.0,2.0;" x1="91" x2="220" y1="162.4199" y2="162.4199"/><text fill="#000000" font-family="sans-serif" font-size="13" lengthAdjust="spacingAndGlyphs" textLength="64" x="98" y="157.9883">NotifyInfo</text><polygon fill="#A80036" points="361,187.7305,371,191.7305,361,195.7305,365,191.7305" style="stroke: #A80036; stroke-width: 1.0;"/><line style="stroke: #A80036; stroke-width: 1.0;" x1="226" x2="367" y1="191.7305" y2="191.7305"/><text fill="#000000" font-family="sans-serif" font-size="13" lengthAdjust="spacingAndGlyphs" textLength="123" x="233" y="187.2988">OnMixerMuteNotify</text><polygon fill="#FBFB77" filter="url(#f297y30)" points="169,205.041,169,230.041,429,230.041,429,215.041,419,205.041,169,205.041" style="stroke: #A80036; stroke-width: 1.0;"/><line style="stroke: #A80036; stroke-width: 1.0;" x1="419" x2="419" y1="205.041" y2="215.041"/><line style="stroke: #A80036; stroke-width: 1.0;" x1="429" x2="419" y1="215.041" y2="215.041"/><text fill="#000000" font-family="sans-serif" font-size="13" lengthAdjust="spacingAndGlyphs" textLength="208" x="188.75" y="222.6094">NBR_CC_PFW_INFO_MUTE_STATE</text><polygon fill="#A80036" points="511,256.3516,521,260.3516,511,264.3516,515,260.3516" style="stroke: #A80036; stroke-width: 1.0;"/><line style="stroke: #A80036; stroke-width: 1.0;" x1="373" x2="517" y1="260.3516" y2="260.3516"/><text fill="#000000" font-family="sans-serif" font-size="13" lengthAdjust="spacingAndGlyphs" textLength="126" x="380" y="255.9199">OnHandleCommand</text><polygon fill="#FBFB77" filter="url(#f297y30)" points="317,273.6621,317,298.6621,578,298.6621,578,283.6621,568,273.6621,317,273.6621" style="stroke: #A80036; stroke-width: 1.0;"/><line style="stroke: #A80036; stroke-width: 1.0;" x1="568" x2="568" y1="273.6621" y2="283.6621"/><line style="stroke: #A80036; stroke-width: 1.0;" x1="578" x2="568" y1="283.6621" y2="283.6621"/><text fill="#000000" font-family="sans-serif" font-size="13" lengthAdjust="spacingAndGlyphs" textLength="232" x="325" y="291.2305">NBR2_PLAY_UI_MIXER_MUTE_NOTIFY</text><polygon fill="#A80036" points="661,324.9727,671,328.9727,661,332.9727,665,328.9727" style="stroke: #A80036; stroke-width: 1.0;"/><line style="stroke: #A80036; stroke-width: 1.0; stroke-dasharray: 2.0,2.0;" x1="523" x2="667" y1="328.9727" y2="328.9727"/><text fill="#000000" font-family="sans-serif" font-size="13" lengthAdjust="spacingAndGlyphs" textLength="126" x="530" y="324.541">OnHandleCommand</text><polygon fill="#FBFB77" filter="url(#f297y30)" points="469,342.2832,469,367.2832,722,367.2832,722,352.2832,712,342.2832,469,342.2832" style="stroke: #A80036; stroke-width: 1.0;"/><line style="stroke: #A80036; stroke-width: 1.0;" x1="712" x2="712" y1="342.2832" y2="352.2832"/><line style="stroke: #A80036; stroke-width: 1.0;" x1="722" x2="712" y1="352.2832" y2="352.2832"/><text fill="#000000" font-family="sans-serif" font-size="13" lengthAdjust="spacingAndGlyphs" textLength="232" x="475" y="359.8516">NBR2_PLAY_UI_MIXER_MUTE_NOTIFY</text><polygon fill="#A80036" points="834,393.5938,844,397.5938,834,401.5938,838,397.5938" style="stroke: #A80036; stroke-width: 1.0;"/><line style="stroke: #A80036; stroke-width: 1.0;" x1="673" x2="840" y1="397.5938" y2="397.5938"/><text fill="#000000" font-family="sans-serif" font-size="13" lengthAdjust="spacingAndGlyphs" textLength="149" x="680" y="393.1621">HandleMixerMuteNotify</text><polygon fill="#A80036" points="950.5,422.9043,960.5,426.9043,950.5,430.9043,954.5,426.9043" style="stroke: #A80036; stroke-width: 1.0;"/><line style="stroke: #A80036; stroke-width: 1.0;" x1="846" x2="956.5" y1="426.9043" y2="426.9043"/><text fill="#000000" font-family="sans-serif" font-size="13" lengthAdjust="spacingAndGlyphs" textLength="78" x="853" y="422.4727">MuteVolume</text><polygon fill="#A80036" points="1079,452.2148,1089,456.2148,1079,460.2148,1083,456.2148" style="stroke: #A80036; stroke-width: 1.0;"/><line style="stroke: #A80036; stroke-width: 1.0;" x1="962.5" x2="1085" y1="456.2148" y2="456.2148"/><text fill="#000000" font-family="sans-serif" font-size="13" lengthAdjust="spacingAndGlyphs" textLength="73" x="969.5" y="451.7832">SetChecked</text></g></svg>